<?xml version="1.0" encoding="UTF-8" standalone="no"?><svg xmlns="http://www.w3.org/2000/svg" xmlns:xlink="http://www.w3.org/1999/xlink" contentScriptType="application/ecmascript" contentStyleType="text/css" height="789px" preserveAspectRatio="none" style="width:1907px;height:789px;" version="1.1" viewBox="0 0 1907 789" width="1907px" zoomAndPan="magnify"><defs><filter height="300%" id="fycgdonokqlqp" width="300%" x="-1" y="-1"><feGaussianBlur result="blurOut" stdDeviation="2.0"/><feColorMatrix in="blurOut" result="blurOut2" type="matrix" values="0 0 0 0 0 0 0 0 0 0 0 0 0 0 0 0 0 0 .4 0"/><feOffset dx="4.0" dy="4.0" in="blurOut2" result="blurOut3"/><feBlend in="SourceGraphic" in2="blurOut3" mode="normal"/></filter></defs><g><text fill="#000000" font-family="sans-serif" font-size="18" lengthAdjust="spacingAndGlyphs" text-decoration="underline" textLength="345" x="784" y="19.2419">DOMOTIX &gt; CONTROLLER's Class Diagram</text><text fill="#000000" font-family="sans-serif" font-size="18" lengthAdjust="spacingAndGlyphs" textLength="0" x="958.5" y="43.7577"/><!--MD5=[e3c3ae39643e55df7c1a0329eec479c9]
cluster src.domotix.controller--><polygon fill="#FFFFFF" filter="url(#fycgdonokqlqp)" points="14,65.0317,166,65.0317,173,90.0996,974,90.0996,974,666.0317,14,666.0317,14,65.0317" style="stroke: #000000; stroke-width: 1.5;"/><line style="stroke: #000000; stroke-width: 1.5;" x1="14" x2="173" y1="90.0996" y2="90.0996"/><text fill="#000000" font-family="sans-serif" font-size="14" font-weight="bold" lengthAdjust="spacingAndGlyphs" textLength="146" x="18" y="81.9976">src.domotix.controller</text><!--MD5=[a8727cba488ea6626f091f9c58f14192]
cluster src.domotix.controller.util--><polygon fill="#FFFFFF" filter="url(#fycgdonokqlqp)" points="460,344.0317,489,344.0317,496,369.0996,713,369.0996,713,430.0317,460,430.0317,460,344.0317" style="stroke: #000000; stroke-width: 1.5;"/><line style="stroke: #000000; stroke-width: 1.5;" x1="460" x2="496" y1="369.0996" y2="369.0996"/><text fill="#000000" font-family="sans-serif" font-size="14" font-weight="bold" lengthAdjust="spacingAndGlyphs" textLength="23" x="464" y="360.9976">util</text><!--MD5=[8e0e0f0c97ec05372c8c81240809cf06]
cluster src.domotix.view--><polygon fill="#FFFFFF" filter="url(#fycgdonokqlqp)" points="1379,227.0317,1495,227.0317,1502,252.0996,1708,252.0996,1708,313.0317,1379,313.0317,1379,227.0317" style="stroke: #000000; stroke-width: 1.5;"/><line style="stroke: #000000; stroke-width: 1.5;" x1="1379" x2="1502" y1="252.0996" y2="252.0996"/><text fill="#000000" font-family="sans-serif" font-size="14" font-weight="bold" lengthAdjust="spacingAndGlyphs" textLength="110" x="1383" y="243.9976">src.domotix.view</text><!--MD5=[569c9965cbd65f289dccef418436db45]
class src.domotix.controller.Importatore--><rect fill="#FEFECE" filter="url(#fycgdonokqlqp)" height="92.9457" id="src.domotix.controller.Importatore" style="stroke: #A80036; stroke-width: 1.5;" width="154" x="155" y="95.0317"/><ellipse cx="196.1" cy="111.0317" fill="#ADD1B2" rx="11" ry="11" style="stroke: #A80036; stroke-width: 1.0;"/><path d="M196.0688,117.2036 Q194.3188,117.2036 193.1781,116.4692 Q192.0531,115.7192 191.4906,114.3754 Q190.9438,113.0161 190.9438,111.2192 Q190.9438,109.1879 191.6,107.7348 Q192.2563,106.2817 193.5375,105.5004 Q194.8188,104.7192 196.6938,104.7192 Q197.5844,104.7192 198.2563,104.9067 Q198.9281,105.0786 199.6156,105.4223 L198.8031,107.4379 Q198.1781,107.1254 197.6313,107.0004 Q197.1,106.8754 196.6156,106.8754 Q195.4438,106.8754 194.7406,107.4067 Q194.0375,107.9379 193.7406,108.8911 Q193.4438,109.8442 193.4438,111.1098 Q193.4438,113.1254 194.1625,114.0942 Q194.8813,115.0473 196.475,115.0473 Q197.0688,115.0473 197.6938,114.8911 Q198.3188,114.7348 199.1469,114.3598 L199.1469,116.5786 Q198.4125,116.8911 197.6156,117.0473 Q196.8344,117.2036 196.0688,117.2036 Z "/><text fill="#000000" font-family="sans-serif" font-size="12" lengthAdjust="spacingAndGlyphs" textLength="64" x="215.9" y="115.6877">Importatore</text><line style="stroke: #A80036; stroke-width: 1.5;" x1="156" x2="308" y1="127.0317" y2="127.0317"/><line style="stroke: #A80036; stroke-width: 1.5;" x1="156" x2="308" y1="135.0317" y2="135.0317"/><ellipse cx="166" cy="146.0317" fill="#84BE84" rx="3" ry="3" style="stroke: #038048; stroke-width: 1.0;"/><text fill="#000000" font-family="sans-serif" font-size="11" lengthAdjust="spacingAndGlyphs" textLength="121" x="175" y="150.7906">importaUnitaImmobiliari()</text><ellipse cx="166" cy="161.0136" fill="#84BE84" rx="3" ry="3" style="stroke: #038048; stroke-width: 1.0;"/><text fill="#000000" font-family="sans-serif" font-size="11" lengthAdjust="spacingAndGlyphs" textLength="123" x="175" y="165.7725">importaCategorieSensori()</text><ellipse cx="166" cy="175.9955" fill="#84BE84" rx="3" ry="3" style="stroke: #038048; stroke-width: 1.0;"/><text fill="#000000" font-family="sans-serif" font-size="11" lengthAdjust="spacingAndGlyphs" textLength="128" x="175" y="180.7544">importaCategorieAttuatori()</text><!--MD5=[b71e28d46693838dc5614a2818178488]
class src.domotix.controller.Modificatore--><rect fill="#FEFECE" filter="url(#fycgdonokqlqp)" height="48" id="src.domotix.controller.Modificatore" style="stroke: #A80036; stroke-width: 1.5;" width="98" x="22" y="117.5317"/><ellipse cx="37" cy="133.5317" fill="#ADD1B2" rx="11" ry="11" style="stroke: #A80036; stroke-width: 1.0;"/><path d="M36.9688,139.7036 Q35.2188,139.7036 34.0781,138.9692 Q32.9531,138.2192 32.3906,136.8754 Q31.8438,135.5161 31.8438,133.7192 Q31.8438,131.6879 32.5,130.2348 Q33.1563,128.7817 34.4375,128.0004 Q35.7188,127.2192 37.5938,127.2192 Q38.4844,127.2192 39.1563,127.4067 Q39.8281,127.5786 40.5156,127.9223 L39.7031,129.9379 Q39.0781,129.6254 38.5313,129.5004 Q38,129.3754 37.5156,129.3754 Q36.3438,129.3754 35.6406,129.9067 Q34.9375,130.4379 34.6406,131.3911 Q34.3438,132.3442 34.3438,133.6098 Q34.3438,135.6254 35.0625,136.5942 Q35.7813,137.5473 37.375,137.5473 Q37.9688,137.5473 38.5938,137.3911 Q39.2188,137.2348 40.0469,136.8598 L40.0469,139.0786 Q39.3125,139.3911 38.5156,139.5473 Q37.7344,139.7036 36.9688,139.7036 Z "/><text fill="#000000" font-family="sans-serif" font-size="12" lengthAdjust="spacingAndGlyphs" textLength="66" x="51" y="138.1877">Modificatore</text><line style="stroke: #A80036; stroke-width: 1.5;" x1="23" x2="119" y1="149.5317" y2="149.5317"/><line style="stroke: #A80036; stroke-width: 1.5;" x1="23" x2="119" y1="157.5317" y2="157.5317"/><!--MD5=[0762cb38a47bd56911b261b0ac435b54]
class src.domotix.controller.OperazioniFinali--><rect fill="#FEFECE" filter="url(#fycgdonokqlqp)" height="48" id="src.domotix.controller.OperazioniFinali" style="stroke: #A80036; stroke-width: 1.5;" width="117" x="344.5" y="117.5317"/><ellipse cx="359.5" cy="133.5317" fill="#ADD1B2" rx="11" ry="11" style="stroke: #A80036; stroke-width: 1.0;"/><path d="M359.4688,139.7036 Q357.7188,139.7036 356.5781,138.9692 Q355.4531,138.2192 354.8906,136.8754 Q354.3438,135.5161 354.3438,133.7192 Q354.3438,131.6879 355,130.2348 Q355.6563,128.7817 356.9375,128.0004 Q358.2188,127.2192 360.0938,127.2192 Q360.9844,127.2192 361.6563,127.4067 Q362.3281,127.5786 363.0156,127.9223 L362.2031,129.9379 Q361.5781,129.6254 361.0313,129.5004 Q360.5,129.3754 360.0156,129.3754 Q358.8438,129.3754 358.1406,129.9067 Q357.4375,130.4379 357.1406,131.3911 Q356.8438,132.3442 356.8438,133.6098 Q356.8438,135.6254 357.5625,136.5942 Q358.2813,137.5473 359.875,137.5473 Q360.4688,137.5473 361.0938,137.3911 Q361.7188,137.2348 362.5469,136.8598 L362.5469,139.0786 Q361.8125,139.3911 361.0156,139.5473 Q360.2344,139.7036 359.4688,139.7036 Z "/><text fill="#000000" font-family="sans-serif" font-size="12" lengthAdjust="spacingAndGlyphs" textLength="85" x="373.5" y="138.1877">OperazioniFinali</text><line style="stroke: #A80036; stroke-width: 1.5;" x1="345.5" x2="460.5" y1="149.5317" y2="149.5317"/><line style="stroke: #A80036; stroke-width: 1.5;" x1="345.5" x2="460.5" y1="157.5317" y2="157.5317"/><!--MD5=[1ddd180088a80c3f21304f5ea42348e6]
class src.domotix.controller.OperazioniIniziali--><rect fill="#FEFECE" filter="url(#fycgdonokqlqp)" height="48" id="src.domotix.controller.OperazioniIniziali" style="stroke: #A80036; stroke-width: 1.5;" width="123" x="496.5" y="117.5317"/><ellipse cx="511.5" cy="133.5317" fill="#ADD1B2" rx="11" ry="11" style="stroke: #A80036; stroke-width: 1.0;"/><path d="M511.4688,139.7036 Q509.7188,139.7036 508.5781,138.9692 Q507.4531,138.2192 506.8906,136.8754 Q506.3438,135.5161 506.3438,133.7192 Q506.3438,131.6879 507,130.2348 Q507.6563,128.7817 508.9375,128.0004 Q510.2188,127.2192 512.0938,127.2192 Q512.9844,127.2192 513.6563,127.4067 Q514.3281,127.5786 515.0156,127.9223 L514.2031,129.9379 Q513.5781,129.6254 513.0313,129.5004 Q512.5,129.3754 512.0156,129.3754 Q510.8438,129.3754 510.1406,129.9067 Q509.4375,130.4379 509.1406,131.3911 Q508.8438,132.3442 508.8438,133.6098 Q508.8438,135.6254 509.5625,136.5942 Q510.2813,137.5473 511.875,137.5473 Q512.4688,137.5473 513.0938,137.3911 Q513.7188,137.2348 514.5469,136.8598 L514.5469,139.0786 Q513.8125,139.3911 513.0156,139.5473 Q512.2344,139.7036 511.4688,139.7036 Z "/><text fill="#000000" font-family="sans-serif" font-size="12" lengthAdjust="spacingAndGlyphs" textLength="91" x="525.5" y="138.1877">OperazioniIniziali</text><line style="stroke: #A80036; stroke-width: 1.5;" x1="497.5" x2="618.5" y1="149.5317" y2="149.5317"/><line style="stroke: #A80036; stroke-width: 1.5;" x1="497.5" x2="618.5" y1="157.5317" y2="157.5317"/><!--MD5=[19e62dc1491eac9c9a34efd24892529b]
class src.domotix.controller.Recuperatore--><rect fill="#FEFECE" filter="url(#fycgdonokqlqp)" height="48" id="src.domotix.controller.Recuperatore" style="stroke: #A80036; stroke-width: 1.5;" width="101" x="278.5" y="610.0317"/><ellipse cx="293.5" cy="626.0317" fill="#ADD1B2" rx="11" ry="11" style="stroke: #A80036; stroke-width: 1.0;"/><path d="M293.4688,632.2036 Q291.7188,632.2036 290.5781,631.4692 Q289.4531,630.7192 288.8906,629.3754 Q288.3438,628.0161 288.3438,626.2192 Q288.3438,624.1879 289,622.7348 Q289.6563,621.2817 290.9375,620.5004 Q292.2188,619.7192 294.0938,619.7192 Q294.9844,619.7192 295.6563,619.9067 Q296.3281,620.0786 297.0156,620.4223 L296.2031,622.4379 Q295.5781,622.1254 295.0313,622.0004 Q294.5,621.8754 294.0156,621.8754 Q292.8438,621.8754 292.1406,622.4067 Q291.4375,622.9379 291.1406,623.8911 Q290.8438,624.8442 290.8438,626.1098 Q290.8438,628.1254 291.5625,629.0942 Q292.2813,630.0473 293.875,630.0473 Q294.4688,630.0473 295.0938,629.8911 Q295.7188,629.7348 296.5469,629.3598 L296.5469,631.5786 Q295.8125,631.8911 295.0156,632.0473 Q294.2344,632.2036 293.4688,632.2036 Z "/><text fill="#000000" font-family="sans-serif" font-size="12" lengthAdjust="spacingAndGlyphs" textLength="69" x="307.5" y="630.6877">Recuperatore</text><line style="stroke: #A80036; stroke-width: 1.5;" x1="279.5" x2="378.5" y1="642.0317" y2="642.0317"/><line style="stroke: #A80036; stroke-width: 1.5;" x1="279.5" x2="378.5" y1="650.0317" y2="650.0317"/><!--MD5=[906e05901960a554719547f36ce431c6]
class src.domotix.controller.Verificatore--><rect fill="#FEFECE" filter="url(#fycgdonokqlqp)" height="48" id="src.domotix.controller.Verificatore" style="stroke: #A80036; stroke-width: 1.5;" width="91" x="283.5" y="374.0317"/><ellipse cx="298.5" cy="390.0317" fill="#ADD1B2" rx="11" ry="11" style="stroke: #A80036; stroke-width: 1.0;"/><path d="M298.4688,396.2036 Q296.7188,396.2036 295.5781,395.4692 Q294.4531,394.7192 293.8906,393.3754 Q293.3438,392.0161 293.3438,390.2192 Q293.3438,388.1879 294,386.7348 Q294.6563,385.2817 295.9375,384.5004 Q297.2188,383.7192 299.0938,383.7192 Q299.9844,383.7192 300.6563,383.9067 Q301.3281,384.0786 302.0156,384.4223 L301.2031,386.4379 Q300.5781,386.1254 300.0313,386.0004 Q299.5,385.8754 299.0156,385.8754 Q297.8438,385.8754 297.1406,386.4067 Q296.4375,386.9379 296.1406,387.8911 Q295.8438,388.8442 295.8438,390.1098 Q295.8438,392.1254 296.5625,393.0942 Q297.2813,394.0473 298.875,394.0473 Q299.4688,394.0473 300.0938,393.8911 Q300.7188,393.7348 301.5469,393.3598 L301.5469,395.5786 Q300.8125,395.8911 300.0156,396.0473 Q299.2344,396.2036 298.4688,396.2036 Z "/><text fill="#000000" font-family="sans-serif" font-size="12" lengthAdjust="spacingAndGlyphs" textLength="59" x="312.5" y="394.6877">Verificatore</text><line style="stroke: #A80036; stroke-width: 1.5;" x1="284.5" x2="373.5" y1="406.0317" y2="406.0317"/><line style="stroke: #A80036; stroke-width: 1.5;" x1="284.5" x2="373.5" y1="414.0317" y2="414.0317"/><!--MD5=[f810c510c7031853d87759381cafdb98]
class src.domotix.controller.TimerGestioneRegole--><rect fill="#FEFECE" filter="url(#fycgdonokqlqp)" height="48" id="src.domotix.controller.TimerGestioneRegole" style="stroke: #A80036; stroke-width: 1.5;" width="144" x="655" y="117.5317"/><ellipse cx="670" cy="133.5317" fill="#ADD1B2" rx="11" ry="11" style="stroke: #A80036; stroke-width: 1.0;"/><path d="M669.9688,139.7036 Q668.2188,139.7036 667.0781,138.9692 Q665.9531,138.2192 665.3906,136.8754 Q664.8438,135.5161 664.8438,133.7192 Q664.8438,131.6879 665.5,130.2348 Q666.1563,128.7817 667.4375,128.0004 Q668.7188,127.2192 670.5938,127.2192 Q671.4844,127.2192 672.1563,127.4067 Q672.8281,127.5786 673.5156,127.9223 L672.7031,129.9379 Q672.0781,129.6254 671.5313,129.5004 Q671,129.3754 670.5156,129.3754 Q669.3438,129.3754 668.6406,129.9067 Q667.9375,130.4379 667.6406,131.3911 Q667.3438,132.3442 667.3438,133.6098 Q667.3438,135.6254 668.0625,136.5942 Q668.7813,137.5473 670.375,137.5473 Q670.9688,137.5473 671.5938,137.3911 Q672.2188,137.2348 673.0469,136.8598 L673.0469,139.0786 Q672.3125,139.3911 671.5156,139.5473 Q670.7344,139.7036 669.9688,139.7036 Z "/><text fill="#000000" font-family="sans-serif" font-size="12" lengthAdjust="spacingAndGlyphs" textLength="112" x="684" y="138.1877">TimerGestioneRegole</text><line style="stroke: #A80036; stroke-width: 1.5;" x1="656" x2="798" y1="149.5317" y2="149.5317"/><line style="stroke: #A80036; stroke-width: 1.5;" x1="656" x2="798" y1="157.5317" y2="157.5317"/><!--MD5=[9dd4d893f06eeaae370558f9cea874e1]
class src.domotix.controller.TimerRinfrescoDati--><rect fill="#FEFECE" filter="url(#fycgdonokqlqp)" height="48" id="src.domotix.controller.TimerRinfrescoDati" style="stroke: #A80036; stroke-width: 1.5;" width="131" x="834.5" y="117.5317"/><ellipse cx="849.5" cy="133.5317" fill="#ADD1B2" rx="11" ry="11" style="stroke: #A80036; stroke-width: 1.0;"/><path d="M849.4688,139.7036 Q847.7188,139.7036 846.5781,138.9692 Q845.4531,138.2192 844.8906,136.8754 Q844.3438,135.5161 844.3438,133.7192 Q844.3438,131.6879 845,130.2348 Q845.6563,128.7817 846.9375,128.0004 Q848.2188,127.2192 850.0938,127.2192 Q850.9844,127.2192 851.6563,127.4067 Q852.3281,127.5786 853.0156,127.9223 L852.2031,129.9379 Q851.5781,129.6254 851.0313,129.5004 Q850.5,129.3754 850.0156,129.3754 Q848.8438,129.3754 848.1406,129.9067 Q847.4375,130.4379 847.1406,131.3911 Q846.8438,132.3442 846.8438,133.6098 Q846.8438,135.6254 847.5625,136.5942 Q848.2813,137.5473 849.875,137.5473 Q850.4688,137.5473 851.0938,137.3911 Q851.7188,137.2348 852.5469,136.8598 L852.5469,139.0786 Q851.8125,139.3911 851.0156,139.5473 Q850.2344,139.7036 849.4688,139.7036 Z "/><text fill="#000000" font-family="sans-serif" font-size="12" lengthAdjust="spacingAndGlyphs" textLength="99" x="863.5" y="138.1877">TimerRinfrescoDati</text><line style="stroke: #A80036; stroke-width: 1.5;" x1="835.5" x2="964.5" y1="149.5317" y2="149.5317"/><line style="stroke: #A80036; stroke-width: 1.5;" x1="835.5" x2="964.5" y1="157.5317" y2="157.5317"/><!--MD5=[73a1c6930679f2f68b4ce1ad561192c8]
class src.domotix.controller.TimerAzioniProgrammate--><rect fill="#FEFECE" filter="url(#fycgdonokqlqp)" height="48" id="src.domotix.controller.TimerAzioniProgrammate" style="stroke: #A80036; stroke-width: 1.5;" width="167" x="799.5" y="374.0317"/><ellipse cx="814.5" cy="390.0317" fill="#ADD1B2" rx="11" ry="11" style="stroke: #A80036; stroke-width: 1.0;"/><path d="M814.4688,396.2036 Q812.7188,396.2036 811.5781,395.4692 Q810.4531,394.7192 809.8906,393.3754 Q809.3438,392.0161 809.3438,390.2192 Q809.3438,388.1879 810,386.7348 Q810.6563,385.2817 811.9375,384.5004 Q813.2188,383.7192 815.0938,383.7192 Q815.9844,383.7192 816.6563,383.9067 Q817.3281,384.0786 818.0156,384.4223 L817.2031,386.4379 Q816.5781,386.1254 816.0313,386.0004 Q815.5,385.8754 815.0156,385.8754 Q813.8438,385.8754 813.1406,386.4067 Q812.4375,386.9379 812.1406,387.8911 Q811.8438,388.8442 811.8438,390.1098 Q811.8438,392.1254 812.5625,393.0942 Q813.2813,394.0473 814.875,394.0473 Q815.4688,394.0473 816.0938,393.8911 Q816.7188,393.7348 817.5469,393.3598 L817.5469,395.5786 Q816.8125,395.8911 816.0156,396.0473 Q815.2344,396.2036 814.4688,396.2036 Z "/><text fill="#000000" font-family="sans-serif" font-size="12" lengthAdjust="spacingAndGlyphs" textLength="135" x="828.5" y="394.6877">TimerAzioniProgrammate</text><line style="stroke: #A80036; stroke-width: 1.5;" x1="800.5" x2="965.5" y1="406.0317" y2="406.0317"/><line style="stroke: #A80036; stroke-width: 1.5;" x1="800.5" x2="965.5" y1="414.0317" y2="414.0317"/><!--MD5=[5b1fe67943adfa4e88e480926117ac98]
class src.domotix.controller.util.StringUtil--><rect fill="#FEFECE" filter="url(#fycgdonokqlqp)" height="48" id="src.domotix.controller.util.StringUtil" style="stroke: #A80036; stroke-width: 1.5;" width="81" x="468.5" y="374.0317"/><ellipse cx="483.5" cy="390.0317" fill="#ADD1B2" rx="11" ry="11" style="stroke: #A80036; stroke-width: 1.0;"/><path d="M483.4688,396.2036 Q481.7188,396.2036 480.5781,395.4692 Q479.4531,394.7192 478.8906,393.3754 Q478.3438,392.0161 478.3438,390.2192 Q478.3438,388.1879 479,386.7348 Q479.6563,385.2817 480.9375,384.5004 Q482.2188,383.7192 484.0938,383.7192 Q484.9844,383.7192 485.6563,383.9067 Q486.3281,384.0786 487.0156,384.4223 L486.2031,386.4379 Q485.5781,386.1254 485.0313,386.0004 Q484.5,385.8754 484.0156,385.8754 Q482.8438,385.8754 482.1406,386.4067 Q481.4375,386.9379 481.1406,387.8911 Q480.8438,388.8442 480.8438,390.1098 Q480.8438,392.1254 481.5625,393.0942 Q482.2813,394.0473 483.875,394.0473 Q484.4688,394.0473 485.0938,393.8911 Q485.7188,393.7348 486.5469,393.3598 L486.5469,395.5786 Q485.8125,395.8911 485.0156,396.0473 Q484.2344,396.2036 483.4688,396.2036 Z "/><text fill="#000000" font-family="sans-serif" font-size="12" lengthAdjust="spacingAndGlyphs" textLength="49" x="497.5" y="394.6877">StringUtil</text><line style="stroke: #A80036; stroke-width: 1.5;" x1="469.5" x2="548.5" y1="406.0317" y2="406.0317"/><line style="stroke: #A80036; stroke-width: 1.5;" x1="469.5" x2="548.5" y1="414.0317" y2="414.0317"/><!--MD5=[7df8c4c2e8eb406e0ff213ca9597c6bf]
class src.domotix.controller.util.TimerTaskAzione--><rect fill="#FEFECE" filter="url(#fycgdonokqlqp)" height="48" id="src.domotix.controller.util.TimerTaskAzione" style="stroke: #A80036; stroke-width: 1.5;" width="120" x="585" y="374.0317"/><ellipse cx="600" cy="390.0317" fill="#ADD1B2" rx="11" ry="11" style="stroke: #A80036; stroke-width: 1.0;"/><path d="M599.9688,396.2036 Q598.2188,396.2036 597.0781,395.4692 Q595.9531,394.7192 595.3906,393.3754 Q594.8438,392.0161 594.8438,390.2192 Q594.8438,388.1879 595.5,386.7348 Q596.1563,385.2817 597.4375,384.5004 Q598.7188,383.7192 600.5938,383.7192 Q601.4844,383.7192 602.1563,383.9067 Q602.8281,384.0786 603.5156,384.4223 L602.7031,386.4379 Q602.0781,386.1254 601.5313,386.0004 Q601,385.8754 600.5156,385.8754 Q599.3438,385.8754 598.6406,386.4067 Q597.9375,386.9379 597.6406,387.8911 Q597.3438,388.8442 597.3438,390.1098 Q597.3438,392.1254 598.0625,393.0942 Q598.7813,394.0473 600.375,394.0473 Q600.9688,394.0473 601.5938,393.8911 Q602.2188,393.7348 603.0469,393.3598 L603.0469,395.5786 Q602.3125,395.8911 601.5156,396.0473 Q600.7344,396.2036 599.9688,396.2036 Z "/><text fill="#000000" font-family="sans-serif" font-size="12" lengthAdjust="spacingAndGlyphs" textLength="88" x="614" y="394.6877">TimerTaskAzione</text><line style="stroke: #A80036; stroke-width: 1.5;" x1="586" x2="704" y1="406.0317" y2="406.0317"/><line style="stroke: #A80036; stroke-width: 1.5;" x1="586" x2="704" y1="414.0317" y2="414.0317"/><polygon fill="#FFFFFF" filter="url(#fycgdonokqlqp)" points="1192.5,719.0317,1319.5,719.0317,1326.5,744.0996,1333.5,744.0996,1333.5,777.1675,1192.5,777.1675,1192.5,719.0317" style="stroke: #000000; stroke-width: 1.5;"/><line style="stroke: #000000; stroke-width: 1.5;" x1="1192.5" x2="1326.5" y1="744.0996" y2="744.0996"/><text fill="#000000" font-family="sans-serif" font-size="14" font-weight="bold" lengthAdjust="spacingAndGlyphs" textLength="121" x="1196.5" y="735.9976">src.domotix.model</text><!--MD5=[64d46d3feb93ed373cb40c8e6f8ae86a]
class src.domotix.view.MenuErroreApertura--><rect fill="#FEFECE" filter="url(#fycgdonokqlqp)" height="48" id="src.domotix.view.MenuErroreApertura" style="stroke: #A80036; stroke-width: 1.5;" width="138" x="1562" y="257.0317"/><ellipse cx="1577" cy="273.0317" fill="#ADD1B2" rx="11" ry="11" style="stroke: #A80036; stroke-width: 1.0;"/><path d="M1576.9688,279.2036 Q1575.2188,279.2036 1574.0781,278.4692 Q1572.9531,277.7192 1572.3906,276.3754 Q1571.8438,275.0161 1571.8438,273.2192 Q1571.8438,271.1879 1572.5,269.7348 Q1573.1563,268.2817 1574.4375,267.5004 Q1575.7188,266.7192 1577.5938,266.7192 Q1578.4844,266.7192 1579.1563,266.9067 Q1579.8281,267.0786 1580.5156,267.4223 L1579.7031,269.4379 Q1579.0781,269.1254 1578.5313,269.0004 Q1578,268.8754 1577.5156,268.8754 Q1576.3438,268.8754 1575.6406,269.4067 Q1574.9375,269.9379 1574.6406,270.8911 Q1574.3438,271.8442 1574.3438,273.1098 Q1574.3438,275.1254 1575.0625,276.0942 Q1575.7813,277.0473 1577.375,277.0473 Q1577.9688,277.0473 1578.5938,276.8911 Q1579.2188,276.7348 1580.0469,276.3598 L1580.0469,278.5786 Q1579.3125,278.8911 1578.5156,279.0473 Q1577.7344,279.2036 1576.9688,279.2036 Z "/><text fill="#000000" font-family="sans-serif" font-size="12" lengthAdjust="spacingAndGlyphs" textLength="106" x="1591" y="277.6877">MenuErroreApertura</text><line style="stroke: #A80036; stroke-width: 1.5;" x1="1563" x2="1699" y1="289.0317" y2="289.0317"/><line style="stroke: #A80036; stroke-width: 1.5;" x1="1563" x2="1699" y1="297.0317" y2="297.0317"/><!--MD5=[5a43ac4806d6715ee3259b6b81245646]
class src.domotix.view.MenuErroreChiusura--><rect fill="#FEFECE" filter="url(#fycgdonokqlqp)" height="48" id="src.domotix.view.MenuErroreChiusura" style="stroke: #A80036; stroke-width: 1.5;" width="139" x="1387.5" y="257.0317"/><ellipse cx="1402.5" cy="273.0317" fill="#ADD1B2" rx="11" ry="11" style="stroke: #A80036; stroke-width: 1.0;"/><path d="M1402.4688,279.2036 Q1400.7188,279.2036 1399.5781,278.4692 Q1398.4531,277.7192 1397.8906,276.3754 Q1397.3438,275.0161 1397.3438,273.2192 Q1397.3438,271.1879 1398,269.7348 Q1398.6563,268.2817 1399.9375,267.5004 Q1401.2188,266.7192 1403.0938,266.7192 Q1403.9844,266.7192 1404.6563,266.9067 Q1405.3281,267.0786 1406.0156,267.4223 L1405.2031,269.4379 Q1404.5781,269.1254 1404.0313,269.0004 Q1403.5,268.8754 1403.0156,268.8754 Q1401.8438,268.8754 1401.1406,269.4067 Q1400.4375,269.9379 1400.1406,270.8911 Q1399.8438,271.8442 1399.8438,273.1098 Q1399.8438,275.1254 1400.5625,276.0942 Q1401.2813,277.0473 1402.875,277.0473 Q1403.4688,277.0473 1404.0938,276.8911 Q1404.7188,276.7348 1405.5469,276.3598 L1405.5469,278.5786 Q1404.8125,278.8911 1404.0156,279.0473 Q1403.2344,279.2036 1402.4688,279.2036 Z "/><text fill="#000000" font-family="sans-serif" font-size="12" lengthAdjust="spacingAndGlyphs" textLength="107" x="1416.5" y="277.6877">MenuErroreChiusura</text><line style="stroke: #A80036; stroke-width: 1.5;" x1="1388.5" x2="1525.5" y1="289.0317" y2="289.0317"/><line style="stroke: #A80036; stroke-width: 1.5;" x1="1388.5" x2="1525.5" y1="297.0317" y2="297.0317"/><!--MD5=[74054751ba3b9eca75fda5044dcc84d9]
class TimerTask--><rect fill="#FEFECE" filter="url(#fycgdonokqlqp)" height="48" id="TimerTask" style="stroke: #A80036; stroke-width: 1.5;" width="85" x="982.5" y="501.0317"/><ellipse cx="997.5" cy="517.0317" fill="#ADD1B2" rx="11" ry="11" style="stroke: #A80036; stroke-width: 1.0;"/><path d="M997.4688,523.2036 Q995.7188,523.2036 994.5781,522.4692 Q993.4531,521.7192 992.8906,520.3754 Q992.3438,519.0161 992.3438,517.2192 Q992.3438,515.1879 993,513.7348 Q993.6563,512.2817 994.9375,511.5004 Q996.2188,510.7192 998.0938,510.7192 Q998.9844,510.7192 999.6563,510.9067 Q1000.3281,511.0786 1001.0156,511.4223 L1000.2031,513.4379 Q999.5781,513.1254 999.0313,513.0004 Q998.5,512.8754 998.0156,512.8754 Q996.8438,512.8754 996.1406,513.4067 Q995.4375,513.9379 995.1406,514.8911 Q994.8438,515.8442 994.8438,517.1098 Q994.8438,519.1254 995.5625,520.0942 Q996.2813,521.0473 997.875,521.0473 Q998.4688,521.0473 999.0938,520.8911 Q999.7188,520.7348 1000.5469,520.3598 L1000.5469,522.5786 Q999.8125,522.8911 999.0156,523.0473 Q998.2344,523.2036 997.4688,523.2036 Z "/><text fill="#000000" font-family="sans-serif" font-size="12" lengthAdjust="spacingAndGlyphs" textLength="53" x="1011.5" y="521.6877">TimerTask</text><line style="stroke: #A80036; stroke-width: 1.5;" x1="983.5" x2="1066.5" y1="533.0317" y2="533.0317"/><line style="stroke: #A80036; stroke-width: 1.5;" x1="983.5" x2="1066.5" y1="541.0317" y2="541.0317"/><!--MD5=[201f3e31cd77252eadb42ab4f3f9311d]
link src.domotix.controller.Modificatore to src.domotix.controller.util.StringUtil--><path d="M102.8422,165.5937 C113.4555,173.169 125.5074,181.3064 137,188.0317 C275.9778,269.3586 336.8506,245.2292 464,344.0317 C473.2749,351.2388 481.9366,360.6599 489.1352,369.6113 " fill="none" id="src.domotix.controller.Modificatore-&gt;src.domotix.controller.util.StringUtil" style="stroke: #A80036; stroke-width: 1.0;"/><polygon fill="#A80036" points="492.5477,373.9562,490.134,364.4077,489.4592,370.0241,483.8427,369.3493,492.5477,373.9562" style="stroke: #A80036; stroke-width: 1.0;"/><!--MD5=[8a38aa3df2382dc9606741a6103750ea]
link src.domotix.controller.Modificatore to src.domotix.controller.Recuperatore--><path d="M88.3828,165.9229 C105.7864,192.7847 130,237.9066 130,281.0317 C130,281.0317 130,281.0317 130,525.0317 C130,590.6093 214.1539,616.9917 273.0119,627.424 " fill="none" id="src.domotix.controller.Modificatore-&gt;src.domotix.controller.Recuperatore" style="stroke: #A80036; stroke-width: 1.0;"/><polygon fill="#A80036" points="278.269,628.3256,270.0748,622.8617,273.341,627.4803,268.7223,630.7465,278.269,628.3256" style="stroke: #A80036; stroke-width: 1.0;"/><!--MD5=[40f5ce1c4829b8a3d0d2add149b2b9f8]
link src.domotix.controller.Modificatore to src.domotix.controller.Verificatore--><path d="M95.272,165.6626 C143.2922,213.4036 250.165,319.655 301.0399,370.2341 " fill="none" id="src.domotix.controller.Modificatore-&gt;src.domotix.controller.Verificatore" style="stroke: #A80036; stroke-width: 1.0;"/><polygon fill="#A80036" points="304.6045,373.7781,301.0422,364.596,301.0587,370.2529,295.4019,370.2693,304.6045,373.7781" style="stroke: #A80036; stroke-width: 1.0;"/><!--MD5=[1275239951ea355e4db66ad8e40c3739]
link src.domotix.controller.Modificatore to src.domotix.model--><path d="M98.3733,165.7013 C109.5926,174.2419 123.1791,182.9734 137,188.0317 C247.5081,228.4765 1192,163.3549 1192,281.0317 C1192,281.0317 1192,281.0317 1192,634.0317 C1192,664.5424 1210.5508,693.6475 1228.6877,714.8122 " fill="none" id="src.domotix.controller.Modificatore-&gt;src.domotix.model" style="stroke: #A80036; stroke-width: 1.0;"/><polygon fill="#A80036" points="1232.0649,718.6702,1229.1468,709.2635,1228.7716,714.9079,1223.1273,714.5328,1232.0649,718.6702" style="stroke: #A80036; stroke-width: 1.0;"/><!--MD5=[565b7bed33788d888ce7b72ff2694668]
link src.domotix.controller.Importatore to src.domotix.model--><path d="M309.019,182.4777 C314.9979,184.6477 321.0313,186.543 327,188.0317 C423.1118,212.003 1130.6977,171.2297 1218,218.0317 C1248.3263,234.2894 1263,246.6224 1263,281.0317 C1263,281.0317 1263,281.0317 1263,634.0317 C1263,660.8958 1263,691.3208 1263,713.9785 " fill="none" id="src.domotix.controller.Importatore-&gt;src.domotix.model" style="stroke: #A80036; stroke-width: 1.0;"/><polygon fill="#A80036" points="1263,718.9811,1267,709.9811,1263,713.9811,1259,709.9811,1263,718.9811" style="stroke: #A80036; stroke-width: 1.0;"/><!--MD5=[5c5898ebcda34ab65c30afcc422018f5]
link src.domotix.controller.Verificatore to src.domotix.controller.Recuperatore--><path d="M329,422.399 C329,466.0574 329,557.4418 329,604.5527 " fill="none" id="src.domotix.controller.Verificatore-&gt;src.domotix.controller.Recuperatore" style="stroke: #A80036; stroke-width: 1.0;"/><polygon fill="#A80036" points="329,609.797,333,600.797,329,604.797,325,600.797,329,609.797" style="stroke: #A80036; stroke-width: 1.0;"/><!--MD5=[222e76682ac9ebc370daa64111fd90f3]
link src.domotix.controller.Verificatore to src.domotix.model--><path d="M374.681,415.1499 C524.3396,471.2318 1000.9389,649.8289 1187.29,719.6607 " fill="none" id="src.domotix.controller.Verificatore-&gt;src.domotix.model" style="stroke: #A80036; stroke-width: 1.0;"/><polygon fill="#A80036" points="1192.1782,721.4925,1185.1542,714.5886,1187.4962,719.7379,1182.3469,722.0799,1192.1782,721.4925" style="stroke: #A80036; stroke-width: 1.0;"/><!--MD5=[5687ef8736ca95c57867d4962220596c]
link src.domotix.controller.Recuperatore to src.domotix.model--><path d="M379.8365,652.4017 C416.3871,664.8231 467.1146,680.4693 513,689.0317 C640.8089,712.8813 1023.4259,735.3189 1187.2299,744.1165 " fill="none" id="src.domotix.controller.Recuperatore-&gt;src.domotix.model" style="stroke: #A80036; stroke-width: 1.0;"/><polygon fill="#A80036" points="1192.4881,744.3983,1183.7151,739.9224,1187.4953,744.1307,1183.2869,747.9109,1192.4881,744.3983" style="stroke: #A80036; stroke-width: 1.0;"/><!--MD5=[2af20467ac6f60db69e0151dba7a30b6]
link src.domotix.controller.OperazioniIniziali to src.domotix.model--><path d="M590.9724,165.6047 C604.8006,174.356 621.4858,183.262 638,188.0317 C727.4053,213.8542 1382.0025,214.6286 1475,218.0317 C1601.6038,222.6646 1753,154.3432 1753,281.0317 C1753,281.0317 1753,281.0317 1753,634.0317 C1753,718.0007 1476.5774,740.1446 1338.9656,745.966 " fill="none" id="src.domotix.controller.OperazioniIniziali-&gt;src.domotix.model" style="stroke: #A80036; stroke-width: 1.0;"/><polygon fill="#A80036" points="1333.7269,746.1825,1342.8845,749.8072,1338.7226,745.9759,1342.554,741.8141,1333.7269,746.1825" style="stroke: #A80036; stroke-width: 1.0;"/><!--MD5=[cc738602355c8f24d065eac3aca55f7e]
link src.domotix.controller.OperazioniIniziali to src.domotix.view.MenuErroreApertura--><path d="M590.9826,165.5694 C604.8124,174.3156 621.4959,183.2273 638,188.0317 C797.939,234.5905 1220.6192,209.9314 1387,218.0317 C1456.8096,221.4304 1477.3624,205.9517 1544,227.0317 C1562.5913,232.9128 1581.2228,243.6677 1596.4471,254.0403 " fill="none" id="src.domotix.controller.OperazioniIniziali-&gt;src.domotix.view.MenuErroreApertura" style="stroke: #A80036; stroke-width: 1.0;"/><polygon fill="#A80036" points="1600.6479,256.9513,1595.5287,248.5374,1596.5382,254.1034,1590.9721,255.1129,1600.6479,256.9513" style="stroke: #A80036; stroke-width: 1.0;"/><!--MD5=[528c1a17cb7a6e88208b0974bd98c95e]
link src.domotix.controller.OperazioniFinali to src.domotix.model--><path d="M434.1643,165.593 C447.278,174.3427 463.1546,183.2505 479,188.0317 C565.2221,214.0482 1209.6965,175.346 1289,218.0317 C1319.299,234.3404 1334,246.6224 1334,281.0317 C1334,281.0317 1334,281.0317 1334,634.0317 C1334,664.5424 1315.4492,693.6475 1297.3123,714.8122 " fill="none" id="src.domotix.controller.OperazioniFinali-&gt;src.domotix.model" style="stroke: #A80036; stroke-width: 1.0;"/><polygon fill="#A80036" points="1293.9351,718.6702,1302.8727,714.5328,1297.2284,714.9079,1296.8532,709.2635,1293.9351,718.6702" style="stroke: #A80036; stroke-width: 1.0;"/><!--MD5=[ff44c694a190eefe228faf0fea0d8704]
link src.domotix.controller.OperazioniFinali to src.domotix.view.MenuErroreChiusura--><path d="M434.1571,165.6171 C447.2697,174.3702 463.1475,183.2742 479,188.0317 C666.624,244.3401 1173.1513,159.2021 1360,218.0317 C1383.484,225.4257 1406.7235,240.1884 1424.5657,253.5654 " fill="none" id="src.domotix.controller.OperazioniFinali-&gt;src.domotix.view.MenuErroreChiusura" style="stroke: #A80036; stroke-width: 1.0;"/><polygon fill="#A80036" points="1428.9825,256.9311,1424.2484,248.2946,1425.0056,253.9006,1419.3996,254.6577,1428.9825,256.9311" style="stroke: #A80036; stroke-width: 1.0;"/><!--MD5=[3b3f8624b21b05c588359226501b0ca1]
link src.domotix.controller.TimerGestioneRegole to src.domotix.model--><path d="M764.4639,165.6458 C780.0744,174.4031 798.7855,183.3025 817,188.0317 C920.5088,214.907 1684.6859,167.6214 1779,218.0317 C1809.3465,234.2517 1824,246.6224 1824,281.0317 C1824,281.0317 1824,281.0317 1824,634.0317 C1824,665.6154 1806.7255,673.9047 1779,689.0317 C1704.9308,729.4437 1463.3737,742.3011 1338.8099,746.2938 " fill="none" id="src.domotix.controller.TimerGestioneRegole-&gt;src.domotix.model" style="stroke: #A80036; stroke-width: 1.0;"/><polygon fill="#A80036" points="1333.6982,746.4547,1342.8198,750.1691,1338.6957,746.2971,1342.5677,742.1731,1333.6982,746.4547" style="stroke: #A80036; stroke-width: 1.0;"/><!--MD5=[cae165e9b7a0f7ea3ac02bef2f7921aa]
link src.domotix.controller.TimerRinfrescoDati to src.domotix.model--><path d="M965.6275,143.6298 C1168.0078,150.5389 1773.4282,174.651 1850,218.0317 C1879.9385,234.993 1895,246.6224 1895,281.0317 C1895,281.0317 1895,281.0317 1895,634.0317 C1895,665.6154 1877.8283,674.0946 1850,689.0317 C1805.936,712.6835 1487.4401,734.5875 1338.9026,743.6439 " fill="none" id="src.domotix.controller.TimerRinfrescoDati-&gt;src.domotix.model" style="stroke: #A80036; stroke-width: 1.0;"/><polygon fill="#A80036" points="1333.6911,743.9606,1342.9173,747.4071,1338.6819,743.6572,1342.4318,739.4218,1333.6911,743.9606" style="stroke: #A80036; stroke-width: 1.0;"/><!--MD5=[6c9d350d9f0f064bbceb4c6ba7794caf]
link src.domotix.controller.TimerAzioniProgrammate to src.domotix.model--><path d="M960.0119,422.1942 C1001.7233,438.6609 1051.44,464.242 1085,501.0317 C1146.3152,568.2476 1106.3118,620.3669 1166,689.0317 C1174.9832,699.3659 1186.2338,708.4361 1197.8598,716.1673 " fill="none" id="src.domotix.controller.TimerAzioniProgrammate-&gt;src.domotix.model" style="stroke: #A80036; stroke-width: 1.0;"/><polygon fill="#A80036" points="1202.1566,718.9549,1196.7836,710.7008,1197.9621,716.2335,1192.4293,717.412,1202.1566,718.9549" style="stroke: #A80036; stroke-width: 1.0;"/><!--MD5=[f8ede6f41322b180af899d24d5c8a50d]
link src.domotix.controller.TimerAzioniProgrammate to TimerTask--><path d="M918.9879,430.2181 C918.9879,430.2181 967.2622,473.393 988.2302,492.1461 " fill="none" id="src.domotix.controller.TimerAzioniProgrammate-TimerTask" style="stroke: #A80036; stroke-width: 1.0;"/><polygon fill="#A80036" points="998.0573,500.9351,994.0154,491.9538,994.3304,497.6019,988.6823,497.9169,998.0573,500.9351" style="stroke: #A80036; stroke-width: 1.0;"/><line style="stroke: #A80036; stroke-width: 1.0;" x1="994.3304" x2="988.3674" y1="497.6019" y2="492.2687"/><polygon fill="#FFFFFF" points="910.0434,422.2184,911.8491,429.1998,918.9879,430.2181,917.1822,423.2367,910.0434,422.2184" style="stroke: #A80036; stroke-width: 1.0;"/><text fill="#000000" font-family="sans-serif" font-size="13" lengthAdjust="spacingAndGlyphs" textLength="23" x="963" y="466.9287">task</text><!--MD5=[77b97269d6cf25b27265c6822e6a81fb]
link src.domotix.controller.TimerAzioniProgrammate to src.domotix.controller.util.TimerTaskAzione--><path d="M787.1424,398.0317 C787.1424,398.0317 739.5366,398.0317 718.119,398.0317 " fill="none" id="src.domotix.controller.TimerAzioniProgrammate-src.domotix.controller.util.TimerTaskAzione" style="stroke: #A80036; stroke-width: 1.0;"/><polygon fill="#A80036" points="705.0574,398.0317,714.0574,402.0317,710.0574,398.0317,714.0574,394.0317,705.0574,398.0317" style="stroke: #A80036; stroke-width: 1.0;"/><line style="stroke: #A80036; stroke-width: 1.0;" x1="710.0574" x2="718.0575" y1="398.0317" y2="398.0316"/><polygon fill="#FFFFFF" points="799.1424,398.0317,793.1424,394.0317,787.1424,398.0317,793.1424,402.0317,799.1424,398.0317" style="stroke: #A80036; stroke-width: 1.0;"/><text fill="#000000" font-family="sans-serif" font-size="13" lengthAdjust="spacingAndGlyphs" textLength="58" x="723.25" y="390.9287">taskAzioni</text><!--MD5=[c202ebc8b03c675bef60a6386ed2d3d9]
link src.domotix.controller.util.TimerTaskAzione to TimerTask--><path d="M691.5518,422.064 C697.381,424.8489 703.2974,427.5698 709,430.0317 C735.0765,441.2893 742.6185,441.5087 769,452.0317 C788.785,459.9235 792.6082,464.8751 813,471.0317 C878.1846,490.7119 903.3832,479.3603 963.0969,496.2037 " fill="none" id="src.domotix.controller.util.TimerTaskAzione-&gt;TimerTask" style="stroke: #A80036; stroke-width: 1.0;"/><polygon fill="none" points="965.3486,489.5736,982.3385,502.2363,961.1603,502.9324,965.3486,489.5736" style="stroke: #A80036; stroke-width: 1.0;"/><!--MD5=[6fb942d2a9443f3fd6ae7dc0235a56a6]
@startuml

title __DOMOTIX > CONTROLLER's Class Diagram__\n

namespace src.domotix.controller {
    class src.domotix.controller.Importatore {
        + importaUnitaImmobiliari()
        + importaCategorieSensori()
        + importaCategorieAttuatori()
    }

    class src.domotix.controller.Modificatore {
    }

    class src.domotix.controller.OperazioniFinali {
    }

    class src.domotix.controller.OperazioniIniziali {
    }

    class src.domotix.controller.Recuperatore {
    }

    class src.domotix.controller.Verificatore {
    }

    class src.domotix.controller.TimerGestioneRegole {
    }

    class src.domotix.controller.TimerRinfrescoDati {
    }

    class src.domotix.controller.TimerAzioniProgrammate {
    }

    namespace util {
        class src.domotix.controller.util.StringUtil {
        }
        class src.domotix.controller.util.TimerTaskAzione {
        }
    }
}

namespace src.domotix.model {

}

src.domotix.controller.Modificatore - -> src.domotix.controller.util.StringUtil
src.domotix.controller.Modificatore - -> src.domotix.controller.Recuperatore
src.domotix.controller.Modificatore - -> src.domotix.controller.Verificatore
src.domotix.controller.Modificatore - -> src.domotix.model
src.domotix.controller.Importatore - -> src.domotix.model

src.domotix.controller.Verificatore - -> src.domotix.controller.Recuperatore
src.domotix.controller.Verificatore - -> src.domotix.model

src.domotix.controller.Recuperatore - -> src.domotix.model

src.domotix.controller.OperazioniIniziali - -> src.domotix.model
src.domotix.controller.OperazioniIniziali - -> src.domotix.view.MenuErroreApertura

src.domotix.controller.OperazioniFinali - -> src.domotix.model
src.domotix.controller.OperazioniFinali - -> src.domotix.view.MenuErroreChiusura

src.domotix.controller.TimerGestioneRegole - -> src.domotix.model
src.domotix.controller.TimerRinfrescoDati - -> src.domotix.model
src.domotix.controller.TimerAzioniProgrammate - -> src.domotix.model
src.domotix.controller.TimerAzioniProgrammate o-> TimerTask : task
src.domotix.controller.TimerAzioniProgrammate o-> src.domotix.controller.util.TimerTaskAzione : taskAzioni
src.domotix.controller.util.TimerTaskAzione - -|> TimerTask

@enduml

PlantUML version 1.2019.11(Sun Sep 22 12:02:15 CEST 2019)
(GPL source distribution)
Java Runtime: OpenJDK Runtime Environment
JVM: OpenJDK 64-Bit Server VM
Java Version: 11.0.3+12-b304.10
Operating System: Linux
Default Encoding: UTF-8
Language: it
Country: IT
--></g></svg>