<?xml version="1.0" encoding="UTF-8" standalone="no"?><svg xmlns="http://www.w3.org/2000/svg" xmlns:xlink="http://www.w3.org/1999/xlink" contentScriptType="application/ecmascript" contentStyleType="text/css" height="669px" preserveAspectRatio="none" style="width:1054px;height:669px;" version="1.1" viewBox="0 0 1054 669" width="1054px" zoomAndPan="magnify"><defs><filter height="300%" id="fmxnsap6r2gx6" width="300%" x="-1" y="-1"><feGaussianBlur result="blurOut" stdDeviation="2.0"/><feColorMatrix in="blurOut" result="blurOut2" type="matrix" values="0 0 0 0 0 0 0 0 0 0 0 0 0 0 0 0 0 0 .4 0"/><feOffset dx="4.0" dy="4.0" in="blurOut2" result="blurOut3"/><feBlend in="SourceGraphic" in2="blurOut3" mode="normal"/></filter></defs><g><text fill="#000000" font-family="sans-serif" font-size="18" lengthAdjust="spacingAndGlyphs" text-decoration="underline" textLength="345" x="309.5" y="19.2419">DOMOTIX &gt; CONTROLLER's Class Diagram</text><text fill="#000000" font-family="sans-serif" font-size="18" lengthAdjust="spacingAndGlyphs" textLength="0" x="484" y="43.7577"/><!--MD5=[e3c3ae39643e55df7c1a0329eec479c9]
cluster src.domotix.controller--><polygon fill="#FFFFFF" filter="url(#fmxnsap6r2gx6)" points="14,65.0317,166,65.0317,173,90.0996,495,90.0996,495,547.0317,14,547.0317,14,65.0317" style="stroke: #000000; stroke-width: 1.5;"/><line style="stroke: #000000; stroke-width: 1.5;" x1="14" x2="173" y1="90.0996" y2="90.0996"/><text fill="#000000" font-family="sans-serif" font-size="14" font-weight="bold" lengthAdjust="spacingAndGlyphs" textLength="146" x="18" y="81.9976">src.domotix.controller</text><!--MD5=[a8727cba488ea6626f091f9c58f14192]
cluster src.domotix.controller.util--><polygon fill="#FFFFFF" filter="url(#fmxnsap6r2gx6)" points="324,285.5317,353,285.5317,360,310.5996,422,310.5996,422,371.5317,324,371.5317,324,285.5317" style="stroke: #000000; stroke-width: 1.5;"/><line style="stroke: #000000; stroke-width: 1.5;" x1="324" x2="360" y1="310.5996" y2="310.5996"/><text fill="#000000" font-family="sans-serif" font-size="14" font-weight="bold" lengthAdjust="spacingAndGlyphs" textLength="23" x="328" y="302.4976">util</text><!--MD5=[8e0e0f0c97ec05372c8c81240809cf06]
cluster src.domotix.view--><polygon fill="#FFFFFF" filter="url(#fmxnsap6r2gx6)" points="583,285.5317,699,285.5317,706,310.5996,912,310.5996,912,371.5317,583,371.5317,583,285.5317" style="stroke: #000000; stroke-width: 1.5;"/><line style="stroke: #000000; stroke-width: 1.5;" x1="583" x2="706" y1="310.5996" y2="310.5996"/><text fill="#000000" font-family="sans-serif" font-size="14" font-weight="bold" lengthAdjust="spacingAndGlyphs" textLength="110" x="587" y="302.4976">src.domotix.view</text><!--MD5=[b71e28d46693838dc5614a2818178488]
class src.domotix.controller.Modificatore--><rect fill="#FEFECE" filter="url(#fmxnsap6r2gx6)" height="122.9094" id="src.domotix.controller.Modificatore" style="stroke: #A80036; stroke-width: 1.5;" width="154" x="22" y="95.0317"/><ellipse cx="62.2" cy="111.0317" fill="#ADD1B2" rx="11" ry="11" style="stroke: #A80036; stroke-width: 1.0;"/><path d="M62.1688,117.2036 Q60.4188,117.2036 59.2781,116.4692 Q58.1531,115.7192 57.5906,114.3754 Q57.0438,113.0161 57.0438,111.2192 Q57.0438,109.1879 57.7,107.7348 Q58.3563,106.2817 59.6375,105.5004 Q60.9188,104.7192 62.7938,104.7192 Q63.6844,104.7192 64.3563,104.9067 Q65.0281,105.0786 65.7156,105.4223 L64.9031,107.4379 Q64.2781,107.1254 63.7313,107.0004 Q63.2,106.8754 62.7156,106.8754 Q61.5438,106.8754 60.8406,107.4067 Q60.1375,107.9379 59.8406,108.8911 Q59.5438,109.8442 59.5438,111.1098 Q59.5438,113.1254 60.2625,114.0942 Q60.9813,115.0473 62.575,115.0473 Q63.1688,115.0473 63.7938,114.8911 Q64.4188,114.7348 65.2469,114.3598 L65.2469,116.5786 Q64.5125,116.8911 63.7156,117.0473 Q62.9344,117.2036 62.1688,117.2036 Z "/><text fill="#000000" font-family="sans-serif" font-size="12" lengthAdjust="spacingAndGlyphs" textLength="66" x="81.8" y="115.6877">Modificatore</text><line style="stroke: #A80036; stroke-width: 1.5;" x1="23" x2="175" y1="127.0317" y2="127.0317"/><line style="stroke: #A80036; stroke-width: 1.5;" x1="23" x2="175" y1="135.0317" y2="135.0317"/><ellipse cx="33" cy="146.0317" fill="#84BE84" rx="3" ry="3" style="stroke: #038048; stroke-width: 1.0;"/><text fill="#000000" font-family="sans-serif" font-size="11" lengthAdjust="spacingAndGlyphs" text-decoration="underline" textLength="107" x="42" y="150.7906">aggiungiInfoRilevabile()</text><ellipse cx="33" cy="161.0136" fill="#84BE84" rx="3" ry="3" style="stroke: #038048; stroke-width: 1.0;"/><text fill="#000000" font-family="sans-serif" font-size="11" lengthAdjust="spacingAndGlyphs" text-decoration="underline" textLength="97" x="42" y="165.7725">aggiungiParametro()</text><ellipse cx="33" cy="175.9955" fill="#84BE84" rx="3" ry="3" style="stroke: #038048; stroke-width: 1.0;"/><text fill="#000000" font-family="sans-serif" font-size="11" lengthAdjust="spacingAndGlyphs" text-decoration="underline" textLength="128" x="42" y="180.7544">aggiungiUnitaImmobiliare()</text><ellipse cx="33" cy="190.9774" fill="#84BE84" rx="3" ry="3" style="stroke: #038048; stroke-width: 1.0;"/><text fill="#000000" font-family="sans-serif" font-size="11" lengthAdjust="spacingAndGlyphs" text-decoration="underline" textLength="123" x="42" y="195.7363">rimuoviUnitaImmobiliare()</text><ellipse cx="33" cy="205.9592" fill="#84BE84" rx="3" ry="3" style="stroke: #038048; stroke-width: 1.0;"/><text fill="#000000" font-family="sans-serif" font-size="11" lengthAdjust="spacingAndGlyphs" text-decoration="underline" textLength="106" x="42" y="210.7182">setModalitaOperativa()</text><!--MD5=[0762cb38a47bd56911b261b0ac435b54]
class src.domotix.controller.OperazioniFinali--><rect fill="#FEFECE" filter="url(#fmxnsap6r2gx6)" height="48" id="src.domotix.controller.OperazioniFinali" style="stroke: #A80036; stroke-width: 1.5;" width="117" x="211.5" y="132.5317"/><ellipse cx="226.5" cy="148.5317" fill="#ADD1B2" rx="11" ry="11" style="stroke: #A80036; stroke-width: 1.0;"/><path d="M226.4688,154.7036 Q224.7188,154.7036 223.5781,153.9692 Q222.4531,153.2192 221.8906,151.8754 Q221.3438,150.5161 221.3438,148.7192 Q221.3438,146.6879 222,145.2348 Q222.6563,143.7817 223.9375,143.0004 Q225.2188,142.2192 227.0938,142.2192 Q227.9844,142.2192 228.6563,142.4067 Q229.3281,142.5786 230.0156,142.9223 L229.2031,144.9379 Q228.5781,144.6254 228.0313,144.5004 Q227.5,144.3754 227.0156,144.3754 Q225.8438,144.3754 225.1406,144.9067 Q224.4375,145.4379 224.1406,146.3911 Q223.8438,147.3442 223.8438,148.6098 Q223.8438,150.6254 224.5625,151.5942 Q225.2813,152.5473 226.875,152.5473 Q227.4688,152.5473 228.0938,152.3911 Q228.7188,152.2348 229.5469,151.8598 L229.5469,154.0786 Q228.8125,154.3911 228.0156,154.5473 Q227.2344,154.7036 226.4688,154.7036 Z "/><text fill="#000000" font-family="sans-serif" font-size="12" lengthAdjust="spacingAndGlyphs" textLength="85" x="240.5" y="153.1877">OperazioniFinali</text><line style="stroke: #A80036; stroke-width: 1.5;" x1="212.5" x2="327.5" y1="164.5317" y2="164.5317"/><line style="stroke: #A80036; stroke-width: 1.5;" x1="212.5" x2="327.5" y1="172.5317" y2="172.5317"/><!--MD5=[1ddd180088a80c3f21304f5ea42348e6]
class src.domotix.controller.OperazioniIniziali--><rect fill="#FEFECE" filter="url(#fmxnsap6r2gx6)" height="48" id="src.domotix.controller.OperazioniIniziali" style="stroke: #A80036; stroke-width: 1.5;" width="123" x="363.5" y="132.5317"/><ellipse cx="378.5" cy="148.5317" fill="#ADD1B2" rx="11" ry="11" style="stroke: #A80036; stroke-width: 1.0;"/><path d="M378.4688,154.7036 Q376.7188,154.7036 375.5781,153.9692 Q374.4531,153.2192 373.8906,151.8754 Q373.3438,150.5161 373.3438,148.7192 Q373.3438,146.6879 374,145.2348 Q374.6563,143.7817 375.9375,143.0004 Q377.2188,142.2192 379.0938,142.2192 Q379.9844,142.2192 380.6563,142.4067 Q381.3281,142.5786 382.0156,142.9223 L381.2031,144.9379 Q380.5781,144.6254 380.0313,144.5004 Q379.5,144.3754 379.0156,144.3754 Q377.8438,144.3754 377.1406,144.9067 Q376.4375,145.4379 376.1406,146.3911 Q375.8438,147.3442 375.8438,148.6098 Q375.8438,150.6254 376.5625,151.5942 Q377.2813,152.5473 378.875,152.5473 Q379.4688,152.5473 380.0938,152.3911 Q380.7188,152.2348 381.5469,151.8598 L381.5469,154.0786 Q380.8125,154.3911 380.0156,154.5473 Q379.2344,154.7036 378.4688,154.7036 Z "/><text fill="#000000" font-family="sans-serif" font-size="12" lengthAdjust="spacingAndGlyphs" textLength="91" x="392.5" y="153.1877">OperazioniIniziali</text><line style="stroke: #A80036; stroke-width: 1.5;" x1="364.5" x2="485.5" y1="164.5317" y2="164.5317"/><line style="stroke: #A80036; stroke-width: 1.5;" x1="364.5" x2="485.5" y1="172.5317" y2="172.5317"/><!--MD5=[19e62dc1491eac9c9a34efd24892529b]
class src.domotix.controller.Recuperatore--><rect fill="#FEFECE" filter="url(#fmxnsap6r2gx6)" height="77.9638" id="src.domotix.controller.Recuperatore" style="stroke: #A80036; stroke-width: 1.5;" width="184" x="86" y="461.0317"/><ellipse cx="139.25" cy="477.0317" fill="#ADD1B2" rx="11" ry="11" style="stroke: #A80036; stroke-width: 1.0;"/><path d="M139.2188,483.2036 Q137.4688,483.2036 136.3281,482.4692 Q135.2031,481.7192 134.6406,480.3754 Q134.0938,479.0161 134.0938,477.2192 Q134.0938,475.1879 134.75,473.7348 Q135.4063,472.2817 136.6875,471.5004 Q137.9688,470.7192 139.8438,470.7192 Q140.7344,470.7192 141.4063,470.9067 Q142.0781,471.0786 142.7656,471.4223 L141.9531,473.4379 Q141.3281,473.1254 140.7813,473.0004 Q140.25,472.8754 139.7656,472.8754 Q138.5938,472.8754 137.8906,473.4067 Q137.1875,473.9379 136.8906,474.8911 Q136.5938,475.8442 136.5938,477.1098 Q136.5938,479.1254 137.3125,480.0942 Q138.0313,481.0473 139.625,481.0473 Q140.2188,481.0473 140.8438,480.8911 Q141.4688,480.7348 142.2969,480.3598 L142.2969,482.5786 Q141.5625,482.8911 140.7656,483.0473 Q139.9844,483.2036 139.2188,483.2036 Z "/><text fill="#000000" font-family="sans-serif" font-size="12" lengthAdjust="spacingAndGlyphs" textLength="69" x="159.75" y="481.6877">Recuperatore</text><line style="stroke: #A80036; stroke-width: 1.5;" x1="87" x2="269" y1="493.0317" y2="493.0317"/><line style="stroke: #A80036; stroke-width: 1.5;" x1="87" x2="269" y1="501.0317" y2="501.0317"/><ellipse cx="97" cy="512.0317" fill="#84BE84" rx="3" ry="3" style="stroke: #038048; stroke-width: 1.0;"/><text fill="#000000" font-family="sans-serif" font-size="11" lengthAdjust="spacingAndGlyphs" text-decoration="underline" textLength="158" x="106" y="516.7906">getModalitaOperativeImpostabili()</text><ellipse cx="97" cy="527.0136" fill="#84BE84" rx="3" ry="3" style="stroke: #038048; stroke-width: 1.0;"/><text fill="#000000" font-family="sans-serif" font-size="11" lengthAdjust="spacingAndGlyphs" text-decoration="underline" textLength="148" x="106" y="531.7725">getModalitaOperativaCorrente()</text><!--MD5=[906e05901960a554719547f36ce431c6]
class src.domotix.controller.Verificatore--><rect fill="#FEFECE" filter="url(#fmxnsap6r2gx6)" height="122.9094" id="src.domotix.controller.Verificatore" style="stroke: #A80036; stroke-width: 1.5;" width="238" x="59" y="278.0317"/><ellipse cx="144.25" cy="294.0317" fill="#ADD1B2" rx="11" ry="11" style="stroke: #A80036; stroke-width: 1.0;"/><path d="M144.2188,300.2036 Q142.4688,300.2036 141.3281,299.4692 Q140.2031,298.7192 139.6406,297.3754 Q139.0938,296.0161 139.0938,294.2192 Q139.0938,292.1879 139.75,290.7348 Q140.4063,289.2817 141.6875,288.5004 Q142.9688,287.7192 144.8438,287.7192 Q145.7344,287.7192 146.4063,287.9067 Q147.0781,288.0786 147.7656,288.4223 L146.9531,290.4379 Q146.3281,290.1254 145.7813,290.0004 Q145.25,289.8754 144.7656,289.8754 Q143.5938,289.8754 142.8906,290.4067 Q142.1875,290.9379 141.8906,291.8911 Q141.5938,292.8442 141.5938,294.1098 Q141.5938,296.1254 142.3125,297.0942 Q143.0313,298.0473 144.625,298.0473 Q145.2188,298.0473 145.8438,297.8911 Q146.4688,297.7348 147.2969,297.3598 L147.2969,299.5786 Q146.5625,299.8911 145.7656,300.0473 Q144.9844,300.2036 144.2188,300.2036 Z "/><text fill="#000000" font-family="sans-serif" font-size="12" lengthAdjust="spacingAndGlyphs" textLength="59" x="164.75" y="298.6877">Verificatore</text><line style="stroke: #A80036; stroke-width: 1.5;" x1="60" x2="296" y1="310.0317" y2="310.0317"/><line style="stroke: #A80036; stroke-width: 1.5;" x1="60" x2="296" y1="318.0317" y2="318.0317"/><ellipse cx="70" cy="329.0317" fill="#84BE84" rx="3" ry="3" style="stroke: #038048; stroke-width: 1.0;"/><text fill="#000000" font-family="sans-serif" font-size="11" lengthAdjust="spacingAndGlyphs" text-decoration="underline" textLength="212" x="79" y="333.7906">checkValiditaModalitaOperativaPerAttuatore()</text><ellipse cx="70" cy="344.0136" fill="#84BE84" rx="3" ry="3" style="stroke: #038048; stroke-width: 1.0;"/><text fill="#000000" font-family="sans-serif" font-size="11" lengthAdjust="spacingAndGlyphs" text-decoration="underline" textLength="148" x="79" y="348.7725">checkValiditaUnitaImmobiliare()</text><ellipse cx="70" cy="358.9955" fill="#84BE84" rx="3" ry="3" style="stroke: #038048; stroke-width: 1.0;"/><text fill="#000000" font-family="sans-serif" font-size="11" lengthAdjust="spacingAndGlyphs" text-decoration="underline" textLength="117" x="79" y="363.7544">checkValiditaParametro()</text><ellipse cx="70" cy="373.9774" fill="#84BE84" rx="3" ry="3" style="stroke: #038048; stroke-width: 1.0;"/><text fill="#000000" font-family="sans-serif" font-size="11" lengthAdjust="spacingAndGlyphs" text-decoration="underline" textLength="127" x="79" y="378.7363">checkValiditaInfoRilevabile()</text><ellipse cx="70" cy="388.9592" fill="#84BE84" rx="3" ry="3" style="stroke: #038048; stroke-width: 1.0;"/><text fill="#000000" font-family="sans-serif" font-size="11" lengthAdjust="spacingAndGlyphs" text-decoration="underline" textLength="158" x="79" y="393.7182">checkUnivocitaUnitaImmobiliare()</text><!--MD5=[5b1fe67943adfa4e88e480926117ac98]
class src.domotix.controller.util.StringUtil--><rect fill="#FEFECE" filter="url(#fmxnsap6r2gx6)" height="48" id="src.domotix.controller.util.StringUtil" style="stroke: #A80036; stroke-width: 1.5;" width="81" x="332.5" y="315.5317"/><ellipse cx="347.5" cy="331.5317" fill="#ADD1B2" rx="11" ry="11" style="stroke: #A80036; stroke-width: 1.0;"/><path d="M347.4688,337.7036 Q345.7188,337.7036 344.5781,336.9692 Q343.4531,336.2192 342.8906,334.8754 Q342.3438,333.5161 342.3438,331.7192 Q342.3438,329.6879 343,328.2348 Q343.6563,326.7817 344.9375,326.0004 Q346.2188,325.2192 348.0938,325.2192 Q348.9844,325.2192 349.6563,325.4067 Q350.3281,325.5786 351.0156,325.9223 L350.2031,327.9379 Q349.5781,327.6254 349.0313,327.5004 Q348.5,327.3754 348.0156,327.3754 Q346.8438,327.3754 346.1406,327.9067 Q345.4375,328.4379 345.1406,329.3911 Q344.8438,330.3442 344.8438,331.6098 Q344.8438,333.6254 345.5625,334.5942 Q346.2813,335.5473 347.875,335.5473 Q348.4688,335.5473 349.0938,335.3911 Q349.7188,335.2348 350.5469,334.8598 L350.5469,337.0786 Q349.8125,337.3911 349.0156,337.5473 Q348.2344,337.7036 347.4688,337.7036 Z "/><text fill="#000000" font-family="sans-serif" font-size="12" lengthAdjust="spacingAndGlyphs" textLength="49" x="361.5" y="336.1877">StringUtil</text><line style="stroke: #A80036; stroke-width: 1.5;" x1="333.5" x2="412.5" y1="347.5317" y2="347.5317"/><line style="stroke: #A80036; stroke-width: 1.5;" x1="333.5" x2="412.5" y1="355.5317" y2="355.5317"/><polygon fill="#FFFFFF" filter="url(#fmxnsap6r2gx6)" points="396.5,599.0317,523.5,599.0317,530.5,624.0996,537.5,624.0996,537.5,657.1675,396.5,657.1675,396.5,599.0317" style="stroke: #000000; stroke-width: 1.5;"/><line style="stroke: #000000; stroke-width: 1.5;" x1="396.5" x2="530.5" y1="624.0996" y2="624.0996"/><text fill="#000000" font-family="sans-serif" font-size="14" font-weight="bold" lengthAdjust="spacingAndGlyphs" textLength="121" x="400.5" y="615.9976">src.domotix.model</text><!--MD5=[64d46d3feb93ed373cb40c8e6f8ae86a]
class src.domotix.view.MenuErroreApertura--><rect fill="#FEFECE" filter="url(#fmxnsap6r2gx6)" height="48" id="src.domotix.view.MenuErroreApertura" style="stroke: #A80036; stroke-width: 1.5;" width="138" x="766" y="315.5317"/><ellipse cx="781" cy="331.5317" fill="#ADD1B2" rx="11" ry="11" style="stroke: #A80036; stroke-width: 1.0;"/><path d="M780.9688,337.7036 Q779.2188,337.7036 778.0781,336.9692 Q776.9531,336.2192 776.3906,334.8754 Q775.8438,333.5161 775.8438,331.7192 Q775.8438,329.6879 776.5,328.2348 Q777.1563,326.7817 778.4375,326.0004 Q779.7188,325.2192 781.5938,325.2192 Q782.4844,325.2192 783.1563,325.4067 Q783.8281,325.5786 784.5156,325.9223 L783.7031,327.9379 Q783.0781,327.6254 782.5313,327.5004 Q782,327.3754 781.5156,327.3754 Q780.3438,327.3754 779.6406,327.9067 Q778.9375,328.4379 778.6406,329.3911 Q778.3438,330.3442 778.3438,331.6098 Q778.3438,333.6254 779.0625,334.5942 Q779.7813,335.5473 781.375,335.5473 Q781.9688,335.5473 782.5938,335.3911 Q783.2188,335.2348 784.0469,334.8598 L784.0469,337.0786 Q783.3125,337.3911 782.5156,337.5473 Q781.7344,337.7036 780.9688,337.7036 Z "/><text fill="#000000" font-family="sans-serif" font-size="12" lengthAdjust="spacingAndGlyphs" textLength="106" x="795" y="336.1877">MenuErroreApertura</text><line style="stroke: #A80036; stroke-width: 1.5;" x1="767" x2="903" y1="347.5317" y2="347.5317"/><line style="stroke: #A80036; stroke-width: 1.5;" x1="767" x2="903" y1="355.5317" y2="355.5317"/><!--MD5=[5a43ac4806d6715ee3259b6b81245646]
class src.domotix.view.MenuErroreChiusura--><rect fill="#FEFECE" filter="url(#fmxnsap6r2gx6)" height="48" id="src.domotix.view.MenuErroreChiusura" style="stroke: #A80036; stroke-width: 1.5;" width="139" x="591.5" y="315.5317"/><ellipse cx="606.5" cy="331.5317" fill="#ADD1B2" rx="11" ry="11" style="stroke: #A80036; stroke-width: 1.0;"/><path d="M606.4688,337.7036 Q604.7188,337.7036 603.5781,336.9692 Q602.4531,336.2192 601.8906,334.8754 Q601.3438,333.5161 601.3438,331.7192 Q601.3438,329.6879 602,328.2348 Q602.6563,326.7817 603.9375,326.0004 Q605.2188,325.2192 607.0938,325.2192 Q607.9844,325.2192 608.6563,325.4067 Q609.3281,325.5786 610.0156,325.9223 L609.2031,327.9379 Q608.5781,327.6254 608.0313,327.5004 Q607.5,327.3754 607.0156,327.3754 Q605.8438,327.3754 605.1406,327.9067 Q604.4375,328.4379 604.1406,329.3911 Q603.8438,330.3442 603.8438,331.6098 Q603.8438,333.6254 604.5625,334.5942 Q605.2813,335.5473 606.875,335.5473 Q607.4688,335.5473 608.0938,335.3911 Q608.7188,335.2348 609.5469,334.8598 L609.5469,337.0786 Q608.8125,337.3911 608.0156,337.5473 Q607.2344,337.7036 606.4688,337.7036 Z "/><text fill="#000000" font-family="sans-serif" font-size="12" lengthAdjust="spacingAndGlyphs" textLength="107" x="620.5" y="336.1877">MenuErroreChiusura</text><line style="stroke: #A80036; stroke-width: 1.5;" x1="592.5" x2="729.5" y1="347.5317" y2="347.5317"/><line style="stroke: #A80036; stroke-width: 1.5;" x1="592.5" x2="729.5" y1="355.5317" y2="355.5317"/><!--MD5=[201f3e31cd77252eadb42ab4f3f9311d]
link src.domotix.controller.Modificatore to src.domotix.controller.util.StringUtil--><path d="M176.1661,207.8882 C182.1367,211.4293 188.1261,214.8504 194,218.0317 C251.735,249.3012 278.1109,236.5418 329,278.0317 C340.0487,287.0397 349.6408,299.4708 357.0241,310.8003 " fill="none" id="src.domotix.controller.Modificatore-&gt;src.domotix.controller.util.StringUtil" style="stroke: #A80036; stroke-width: 1.0;"/><polygon fill="#A80036" points="359.8458,315.2433,358.3971,305.5016,357.1651,311.0226,351.6441,309.7906,359.8458,315.2433" style="stroke: #A80036; stroke-width: 1.0;"/><!--MD5=[8a38aa3df2382dc9606741a6103750ea]
link src.domotix.controller.Modificatore to src.domotix.controller.Recuperatore--><path d="M61.8257,218.1177 C36.082,269.3286 11.3158,342.9577 41,401.0317 C52.8325,424.1807 72.8829,443.164 94.0462,458.0925 " fill="none" id="src.domotix.controller.Modificatore-&gt;src.domotix.controller.Recuperatore" style="stroke: #A80036; stroke-width: 1.0;"/><polygon fill="#A80036" points="98.2916,461.0241,93.1587,452.6185,94.1773,458.1829,88.6129,459.2014,98.2916,461.0241" style="stroke: #A80036; stroke-width: 1.0;"/><!--MD5=[40f5ce1c4829b8a3d0d2add149b2b9f8]
link src.domotix.controller.Modificatore to src.domotix.controller.Verificatore--><path d="M125.6357,218.232 C133.2104,235.7786 141.4937,254.9664 149.1912,272.7973 " fill="none" id="src.domotix.controller.Modificatore-&gt;src.domotix.controller.Verificatore" style="stroke: #A80036; stroke-width: 1.0;"/><polygon fill="#A80036" points="151.3456,277.788,151.451,267.9397,149.3639,273.1975,144.1061,271.1104,151.3456,277.788" style="stroke: #A80036; stroke-width: 1.0;"/><!--MD5=[1275239951ea355e4db66ad8e40c3739]
link src.domotix.controller.Modificatore to src.domotix.model--><path d="M176.1453,209.3225 C182.0697,212.4891 188.0582,215.4369 194,218.0317 C293.1807,261.3444 359.1616,196.2105 430,278.0317 C508.1524,368.3009 488.5528,524.6906 474.8971,593.6634 " fill="none" id="src.domotix.controller.Modificatore-&gt;src.domotix.model" style="stroke: #A80036; stroke-width: 1.0;"/><polygon fill="#A80036" points="473.8437,598.8733,479.5479,590.8445,474.8346,593.9725,471.7066,589.2591,473.8437,598.8733" style="stroke: #A80036; stroke-width: 1.0;"/><!--MD5=[5c5898ebcda34ab65c30afcc422018f5]
link src.domotix.controller.Verificatore to src.domotix.controller.Recuperatore--><path d="M178,401.1262 C178,419.232 178,438.6791 178,455.4971 " fill="none" id="src.domotix.controller.Verificatore-&gt;src.domotix.controller.Recuperatore" style="stroke: #A80036; stroke-width: 1.0;"/><polygon fill="#A80036" points="178,460.6277,182,451.6277,178,455.6277,174,451.6277,178,460.6277" style="stroke: #A80036; stroke-width: 1.0;"/><!--MD5=[222e76682ac9ebc370daa64111fd90f3]
link src.domotix.controller.Verificatore to src.domotix.model--><path d="M239.6433,401.0683 C299.099,460.4212 386.8214,547.9918 434.0338,595.1225 " fill="none" id="src.domotix.controller.Verificatore-&gt;src.domotix.model" style="stroke: #A80036; stroke-width: 1.0;"/><polygon fill="#A80036" points="437.64,598.7225,434.0965,589.5332,434.1014,595.19,428.4445,595.1949,437.64,598.7225" style="stroke: #A80036; stroke-width: 1.0;"/><!--MD5=[5687ef8736ca95c57867d4962220596c]
link src.domotix.controller.Recuperatore to src.domotix.model--><path d="M266.2799,539.1314 C308.0718,557.6413 357.2968,579.4434 396.5395,596.8243 " fill="none" id="src.domotix.controller.Recuperatore-&gt;src.domotix.model" style="stroke: #A80036; stroke-width: 1.0;"/><polygon fill="#A80036" points="401.2746,598.9215,394.6655,591.6195,396.7029,596.8967,391.4258,598.9341,401.2746,598.9215" style="stroke: #A80036; stroke-width: 1.0;"/><!--MD5=[2af20467ac6f60db69e0151dba7a30b6]
link src.domotix.controller.OperazioniIniziali to src.domotix.model--><path d="M486.8527,162.3758 C607.4207,175.1819 866.7591,210.1422 920,278.0317 C1042.0258,433.6315 700.7399,558.7821 542.6093,606.8243 " fill="none" id="src.domotix.controller.OperazioniIniziali-&gt;src.domotix.model" style="stroke: #A80036; stroke-width: 1.0;"/><polygon fill="#A80036" points="537.5235,608.362,547.296,609.5859,542.3095,606.9149,544.9806,601.9283,537.5235,608.362" style="stroke: #A80036; stroke-width: 1.0;"/><!--MD5=[cc738602355c8f24d065eac3aca55f7e]
link src.domotix.controller.OperazioniIniziali to src.domotix.view.MenuErroreApertura--><path d="M486.5301,174.4939 C553.0479,195.0835 661.1927,232.001 748,278.0317 C766.2234,287.6949 785.0789,300.6093 800.5579,312.1087 " fill="none" id="src.domotix.controller.OperazioniIniziali-&gt;src.domotix.view.MenuErroreApertura" style="stroke: #A80036; stroke-width: 1.0;"/><polygon fill="#A80036" points="804.8309,315.3107,800.0276,306.7126,800.8297,312.3122,795.23,313.1144,804.8309,315.3107" style="stroke: #A80036; stroke-width: 1.0;"/><!--MD5=[528c1a17cb7a6e88208b0974bd98c95e]
link src.domotix.controller.OperazioniFinali to src.domotix.model--><path d="M296.0182,180.7801 C310.0787,193.0319 328.1747,207.4933 346,218.0317 C406.7442,253.944 453.644,219.4599 493,278.0317 C559.0404,376.3167 509.832,527.0752 482.2941,594.0006 " fill="none" id="src.domotix.controller.OperazioniFinali-&gt;src.domotix.model" style="stroke: #A80036; stroke-width: 1.0;"/><polygon fill="#A80036" points="480.3507,598.6725,487.5006,591.8991,482.2711,594.056,480.1142,588.8265,480.3507,598.6725" style="stroke: #A80036; stroke-width: 1.0;"/><!--MD5=[ff44c694a190eefe228faf0fea0d8704]
link src.domotix.controller.OperazioniFinali to src.domotix.view.MenuErroreChiusura--><path d="M294.5096,180.7481 C308.5648,193.4489 327.1269,208.3388 346,218.0317 C435.3915,263.9417 472.1123,237.3472 564,278.0317 C584.8421,287.2598 606.4118,300.5092 623.9036,312.3486 " fill="none" id="src.domotix.controller.OperazioniFinali-&gt;src.domotix.view.MenuErroreChiusura" style="stroke: #A80036; stroke-width: 1.0;"/><polygon fill="#A80036" points="628.2599,315.3249,623.0853,306.9449,624.1315,312.5042,618.5722,313.5504,628.2599,315.3249" style="stroke: #A80036; stroke-width: 1.0;"/><!--MD5=[488a333b279b87bd6e79203a53b91441]
@startuml

title __DOMOTIX > CONTROLLER's Class Diagram__\n

namespace src.domotix.controller {
    class src.domotix.controller.Modificatore {
        {static} + aggiungiInfoRilevabile()
        {static} + aggiungiParametro()
        {static} + aggiungiUnitaImmobiliare()
        {static} + rimuoviUnitaImmobiliare()
        {static} + setModalitaOperativa()
    }

    class src.domotix.controller.OperazioniFinali {

    }

    class src.domotix.controller.OperazioniIniziali {

    }

    class src.domotix.controller.Recuperatore {
        {static} + getModalitaOperativeImpostabili()
        {static} + getModalitaOperativaCorrente()
    }

    class src.domotix.controller.Verificatore {
        {static} + checkValiditaModalitaOperativaPerAttuatore()
        {static} + checkValiditaUnitaImmobiliare()
        {static} + checkValiditaParametro()
        {static} + checkValiditaInfoRilevabile()
        {static} + checkUnivocitaUnitaImmobiliare()
    }

    namespace util {
        class src.domotix.controller.util.StringUtil {
        }
    }
}

namespace src.domotix.model {

}

src.domotix.controller.Modificatore - -> src.domotix.controller.util.StringUtil
src.domotix.controller.Modificatore - -> src.domotix.controller.Recuperatore
src.domotix.controller.Modificatore - -> src.domotix.controller.Verificatore
src.domotix.controller.Modificatore - -> src.domotix.model

src.domotix.controller.Verificatore - -> src.domotix.controller.Recuperatore
src.domotix.controller.Verificatore - -> src.domotix.model

src.domotix.controller.Recuperatore - -> src.domotix.model

src.domotix.controller.OperazioniIniziali - -> src.domotix.model
src.domotix.controller.OperazioniIniziali - -> src.domotix.view.MenuErroreApertura

src.domotix.controller.OperazioniFinali - -> src.domotix.model
src.domotix.controller.OperazioniFinali - -> src.domotix.view.MenuErroreChiusura

@enduml

PlantUML version 1.2019.11(Sun Sep 22 12:02:15 CEST 2019)
(GPL source distribution)
Java Runtime: OpenJDK Runtime Environment
JVM: OpenJDK 64-Bit Server VM
Java Version: 11.0.3+12-b304.10
Operating System: Linux
Default Encoding: UTF-8
Language: it
Country: IT
--></g></svg>