<?xml version="1.0" encoding="UTF-8" standalone="no"?><svg xmlns="http://www.w3.org/2000/svg" xmlns:xlink="http://www.w3.org/1999/xlink" contentScriptType="application/ecmascript" contentStyleType="text/css" height="744px" preserveAspectRatio="none" style="width:1577px;height:744px;" version="1.1" viewBox="0 0 1577 744" width="1577px" zoomAndPan="magnify"><defs><filter height="300%" id="fd4vytum3ivip" width="300%" x="-1" y="-1"><feGaussianBlur result="blurOut" stdDeviation="2.0"/><feColorMatrix in="blurOut" result="blurOut2" type="matrix" values="0 0 0 0 0 0 0 0 0 0 0 0 0 0 0 0 0 0 .4 0"/><feOffset dx="4.0" dy="4.0" in="blurOut2" result="blurOut3"/><feBlend in="SourceGraphic" in2="blurOut3" mode="normal"/></filter></defs><g><text fill="#000000" font-family="sans-serif" font-size="18" lengthAdjust="spacingAndGlyphs" text-decoration="underline" textLength="345" x="548.5" y="19.2419">DOMOTIX &gt; CONTROLLER's Class Diagram</text><text fill="#000000" font-family="sans-serif" font-size="18" lengthAdjust="spacingAndGlyphs" textLength="0" x="723" y="43.7577"/><!--MD5=[e3c3ae39643e55df7c1a0329eec479c9]
cluster src.domotix.controller--><polygon fill="#FFFFFF" filter="url(#fd4vytum3ivip)" points="14,65.0317,166,65.0317,173,90.0996,979,90.0996,979,622.0317,14,622.0317,14,65.0317" style="stroke: #000000; stroke-width: 1.5;"/><line style="stroke: #000000; stroke-width: 1.5;" x1="14" x2="173" y1="90.0996" y2="90.0996"/><text fill="#000000" font-family="sans-serif" font-size="14" font-weight="bold" lengthAdjust="spacingAndGlyphs" textLength="146" x="18" y="81.9976">src.domotix.controller</text><!--MD5=[a8727cba488ea6626f091f9c58f14192]
cluster src.domotix.controller.util--><polygon fill="#FFFFFF" filter="url(#fd4vytum3ivip)" points="252,338.0317,281,338.0317,288,363.0996,350,363.0996,350,424.0317,252,424.0317,252,338.0317" style="stroke: #000000; stroke-width: 1.5;"/><line style="stroke: #000000; stroke-width: 1.5;" x1="252" x2="288" y1="363.0996" y2="363.0996"/><text fill="#000000" font-family="sans-serif" font-size="14" font-weight="bold" lengthAdjust="spacingAndGlyphs" textLength="23" x="256" y="354.9976">util</text><!--MD5=[8e0e0f0c97ec05372c8c81240809cf06]
cluster src.domotix.view--><polygon fill="#FFFFFF" filter="url(#fd4vytum3ivip)" points="987,338.0317,1103,338.0317,1110,363.0996,1316,363.0996,1316,424.0317,987,424.0317,987,338.0317" style="stroke: #000000; stroke-width: 1.5;"/><line style="stroke: #000000; stroke-width: 1.5;" x1="987" x2="1110" y1="363.0996" y2="363.0996"/><text fill="#000000" font-family="sans-serif" font-size="14" font-weight="bold" lengthAdjust="spacingAndGlyphs" textLength="110" x="991" y="354.9976">src.domotix.view</text><!--MD5=[b71e28d46693838dc5614a2818178488]
class src.domotix.controller.Modificatore--><rect fill="#FEFECE" filter="url(#fd4vytum3ivip)" height="152.8732" id="src.domotix.controller.Modificatore" style="stroke: #A80036; stroke-width: 1.5;" width="234" x="22" y="125.0317"/><ellipse cx="101.75" cy="141.0317" fill="#ADD1B2" rx="11" ry="11" style="stroke: #A80036; stroke-width: 1.0;"/><path d="M101.7188,147.2036 Q99.9688,147.2036 98.8281,146.4692 Q97.7031,145.7192 97.1406,144.3754 Q96.5938,143.0161 96.5938,141.2192 Q96.5938,139.1879 97.25,137.7348 Q97.9063,136.2817 99.1875,135.5004 Q100.4688,134.7192 102.3438,134.7192 Q103.2344,134.7192 103.9063,134.9067 Q104.5781,135.0786 105.2656,135.4223 L104.4531,137.4379 Q103.8281,137.1254 103.2813,137.0004 Q102.75,136.8754 102.2656,136.8754 Q101.0938,136.8754 100.3906,137.4067 Q99.6875,137.9379 99.3906,138.8911 Q99.0938,139.8442 99.0938,141.1098 Q99.0938,143.1254 99.8125,144.0942 Q100.5313,145.0473 102.125,145.0473 Q102.7188,145.0473 103.3438,144.8911 Q103.9688,144.7348 104.7969,144.3598 L104.7969,146.5786 Q104.0625,146.8911 103.2656,147.0473 Q102.4844,147.2036 101.7188,147.2036 Z "/><text fill="#000000" font-family="sans-serif" font-size="12" lengthAdjust="spacingAndGlyphs" textLength="66" x="122.25" y="145.6877">Modificatore</text><line style="stroke: #A80036; stroke-width: 1.5;" x1="23" x2="255" y1="157.0317" y2="157.0317"/><line style="stroke: #A80036; stroke-width: 1.5;" x1="23" x2="255" y1="165.0317" y2="165.0317"/><ellipse cx="33" cy="176.0317" fill="#84BE84" rx="3" ry="3" style="stroke: #038048; stroke-width: 1.0;"/><text fill="#000000" font-family="sans-serif" font-size="11" lengthAdjust="spacingAndGlyphs" text-decoration="underline" textLength="78" x="42" y="180.7906">aggiungiRegola()</text><rect fill="#F24D5C" height="6" style="stroke: #C82930; stroke-width: 1.0;" width="6" x="30" y="188.0136"/><text fill="#000000" font-family="sans-serif" font-size="11" lengthAdjust="spacingAndGlyphs" text-decoration="underline" textLength="120" x="42" y="195.7725">costruisciInfoDaSensore()</text><rect fill="#F24D5C" height="6" style="stroke: #C82930; stroke-width: 1.0;" width="6" x="30" y="202.9955"/><text fill="#000000" font-family="sans-serif" font-size="11" lengthAdjust="spacingAndGlyphs" text-decoration="underline" textLength="208" x="42" y="210.7544">aggiungiComponenteCostanteAntecedente()</text><ellipse cx="33" cy="220.9774" fill="#84BE84" rx="3" ry="3" style="stroke: #038048; stroke-width: 1.0;"/><text fill="#000000" font-family="sans-serif" font-size="11" lengthAdjust="spacingAndGlyphs" text-decoration="underline" textLength="167" x="42" y="225.7363">aggiungiComponenteAntecedente()</text><ellipse cx="33" cy="235.9592" fill="#84BE84" rx="3" ry="3" style="stroke: #038048; stroke-width: 1.0;"/><text fill="#000000" font-family="sans-serif" font-size="11" lengthAdjust="spacingAndGlyphs" text-decoration="underline" textLength="125" x="42" y="240.7182">aggiungiOperatoreLogico()</text><ellipse cx="33" cy="250.9411" fill="#84BE84" rx="3" ry="3" style="stroke: #038048; stroke-width: 1.0;"/><text fill="#000000" font-family="sans-serif" font-size="11" lengthAdjust="spacingAndGlyphs" text-decoration="underline" textLength="73" x="42" y="255.7">rimuoviRegola()</text><ellipse cx="33" cy="265.923" fill="#84BE84" rx="3" ry="3" style="stroke: #038048; stroke-width: 1.0;"/><text fill="#000000" font-family="sans-serif" font-size="11" lengthAdjust="spacingAndGlyphs" text-decoration="underline" textLength="140" x="42" y="270.6819">aggiungiAzioneConseguente()</text><!--MD5=[0762cb38a47bd56911b261b0ac435b54]
class src.domotix.controller.OperazioniFinali--><rect fill="#FEFECE" filter="url(#fd4vytum3ivip)" height="48" id="src.domotix.controller.OperazioniFinali" style="stroke: #A80036; stroke-width: 1.5;" width="117" x="291.5" y="177.5317"/><ellipse cx="306.5" cy="193.5317" fill="#ADD1B2" rx="11" ry="11" style="stroke: #A80036; stroke-width: 1.0;"/><path d="M306.4688,199.7036 Q304.7188,199.7036 303.5781,198.9692 Q302.4531,198.2192 301.8906,196.8754 Q301.3438,195.5161 301.3438,193.7192 Q301.3438,191.6879 302,190.2348 Q302.6563,188.7817 303.9375,188.0004 Q305.2188,187.2192 307.0938,187.2192 Q307.9844,187.2192 308.6563,187.4067 Q309.3281,187.5786 310.0156,187.9223 L309.2031,189.9379 Q308.5781,189.6254 308.0313,189.5004 Q307.5,189.3754 307.0156,189.3754 Q305.8438,189.3754 305.1406,189.9067 Q304.4375,190.4379 304.1406,191.3911 Q303.8438,192.3442 303.8438,193.6098 Q303.8438,195.6254 304.5625,196.5942 Q305.2813,197.5473 306.875,197.5473 Q307.4688,197.5473 308.0938,197.3911 Q308.7188,197.2348 309.5469,196.8598 L309.5469,199.0786 Q308.8125,199.3911 308.0156,199.5473 Q307.2344,199.7036 306.4688,199.7036 Z "/><text fill="#000000" font-family="sans-serif" font-size="12" lengthAdjust="spacingAndGlyphs" textLength="85" x="320.5" y="198.1877">OperazioniFinali</text><line style="stroke: #A80036; stroke-width: 1.5;" x1="292.5" x2="407.5" y1="209.5317" y2="209.5317"/><line style="stroke: #A80036; stroke-width: 1.5;" x1="292.5" x2="407.5" y1="217.5317" y2="217.5317"/><!--MD5=[1ddd180088a80c3f21304f5ea42348e6]
class src.domotix.controller.OperazioniIniziali--><rect fill="#FEFECE" filter="url(#fd4vytum3ivip)" height="48" id="src.domotix.controller.OperazioniIniziali" style="stroke: #A80036; stroke-width: 1.5;" width="123" x="443.5" y="177.5317"/><ellipse cx="458.5" cy="193.5317" fill="#ADD1B2" rx="11" ry="11" style="stroke: #A80036; stroke-width: 1.0;"/><path d="M458.4688,199.7036 Q456.7188,199.7036 455.5781,198.9692 Q454.4531,198.2192 453.8906,196.8754 Q453.3438,195.5161 453.3438,193.7192 Q453.3438,191.6879 454,190.2348 Q454.6563,188.7817 455.9375,188.0004 Q457.2188,187.2192 459.0938,187.2192 Q459.9844,187.2192 460.6563,187.4067 Q461.3281,187.5786 462.0156,187.9223 L461.2031,189.9379 Q460.5781,189.6254 460.0313,189.5004 Q459.5,189.3754 459.0156,189.3754 Q457.8438,189.3754 457.1406,189.9067 Q456.4375,190.4379 456.1406,191.3911 Q455.8438,192.3442 455.8438,193.6098 Q455.8438,195.6254 456.5625,196.5942 Q457.2813,197.5473 458.875,197.5473 Q459.4688,197.5473 460.0938,197.3911 Q460.7188,197.2348 461.5469,196.8598 L461.5469,199.0786 Q460.8125,199.3911 460.0156,199.5473 Q459.2344,199.7036 458.4688,199.7036 Z "/><text fill="#000000" font-family="sans-serif" font-size="12" lengthAdjust="spacingAndGlyphs" textLength="91" x="472.5" y="198.1877">OperazioniIniziali</text><line style="stroke: #A80036; stroke-width: 1.5;" x1="444.5" x2="565.5" y1="209.5317" y2="209.5317"/><line style="stroke: #A80036; stroke-width: 1.5;" x1="444.5" x2="565.5" y1="217.5317" y2="217.5317"/><!--MD5=[19e62dc1491eac9c9a34efd24892529b]
class src.domotix.controller.Recuperatore--><rect fill="#FEFECE" filter="url(#fd4vytum3ivip)" height="137.8913" id="src.domotix.controller.Recuperatore" style="stroke: #A80036; stroke-width: 1.5;" width="160" x="100" y="476.0317"/><ellipse cx="141.55" cy="492.0317" fill="#ADD1B2" rx="11" ry="11" style="stroke: #A80036; stroke-width: 1.0;"/><path d="M141.5188,498.2036 Q139.7688,498.2036 138.6281,497.4692 Q137.5031,496.7192 136.9406,495.3754 Q136.3938,494.0161 136.3938,492.2192 Q136.3938,490.1879 137.05,488.7348 Q137.7063,487.2817 138.9875,486.5004 Q140.2688,485.7192 142.1438,485.7192 Q143.0344,485.7192 143.7063,485.9067 Q144.3781,486.0786 145.0656,486.4223 L144.2531,488.4379 Q143.6281,488.1254 143.0813,488.0004 Q142.55,487.8754 142.0656,487.8754 Q140.8938,487.8754 140.1906,488.4067 Q139.4875,488.9379 139.1906,489.8911 Q138.8938,490.8442 138.8938,492.1098 Q138.8938,494.1254 139.6125,495.0942 Q140.3313,496.0473 141.925,496.0473 Q142.5188,496.0473 143.1438,495.8911 Q143.7688,495.7348 144.5969,495.3598 L144.5969,497.5786 Q143.8625,497.8911 143.0656,498.0473 Q142.2844,498.2036 141.5188,498.2036 Z "/><text fill="#000000" font-family="sans-serif" font-size="12" lengthAdjust="spacingAndGlyphs" textLength="69" x="161.45" y="496.6877">Recuperatore</text><line style="stroke: #A80036; stroke-width: 1.5;" x1="101" x2="259" y1="508.0317" y2="508.0317"/><line style="stroke: #A80036; stroke-width: 1.5;" x1="101" x2="259" y1="516.0317" y2="516.0317"/><ellipse cx="111" cy="527.0317" fill="#84BE84" rx="3" ry="3" style="stroke: #038048; stroke-width: 1.0;"/><text fill="#000000" font-family="sans-serif" font-size="11" lengthAdjust="spacingAndGlyphs" text-decoration="underline" textLength="78" x="120" y="531.7906">getRegoleUnita()</text><ellipse cx="111" cy="542.0136" fill="#84BE84" rx="3" ry="3" style="stroke: #038048; stroke-width: 1.0;"/><text fill="#000000" font-family="sans-serif" font-size="11" lengthAdjust="spacingAndGlyphs" text-decoration="underline" textLength="78" x="120" y="546.7725">isInfoNumerica()</text><ellipse cx="111" cy="556.9955" fill="#84BE84" rx="3" ry="3" style="stroke: #038048; stroke-width: 1.0;"/><text fill="#000000" font-family="sans-serif" font-size="11" lengthAdjust="spacingAndGlyphs" text-decoration="underline" textLength="134" x="120" y="561.7544">getAntecedentiRegoleUnita()</text><ellipse cx="111" cy="571.9774" fill="#84BE84" rx="3" ry="3" style="stroke: #038048; stroke-width: 1.0;"/><text fill="#000000" font-family="sans-serif" font-size="11" lengthAdjust="spacingAndGlyphs" text-decoration="underline" textLength="111" x="120" y="576.7363">isModalitaParametrica()</text><ellipse cx="111" cy="586.9592" fill="#84BE84" rx="3" ry="3" style="stroke: #038048; stroke-width: 1.0;"/><text fill="#000000" font-family="sans-serif" font-size="11" lengthAdjust="spacingAndGlyphs" text-decoration="underline" textLength="134" x="120" y="591.7182">getNomiParametriModalita()</text><ellipse cx="111" cy="601.9411" fill="#84BE84" rx="3" ry="3" style="stroke: #038048; stroke-width: 1.0;"/><text fill="#000000" font-family="sans-serif" font-size="11" lengthAdjust="spacingAndGlyphs" text-decoration="underline" textLength="85" x="120" y="606.7">getModalitaTutte()</text><!--MD5=[906e05901960a554719547f36ce431c6]
class src.domotix.controller.Verificatore--><rect fill="#FEFECE" filter="url(#fd4vytum3ivip)" height="48" id="src.domotix.controller.Verificatore" style="stroke: #A80036; stroke-width: 1.5;" width="91" x="134.5" y="368.0317"/><ellipse cx="149.5" cy="384.0317" fill="#ADD1B2" rx="11" ry="11" style="stroke: #A80036; stroke-width: 1.0;"/><path d="M149.4688,390.2036 Q147.7188,390.2036 146.5781,389.4692 Q145.4531,388.7192 144.8906,387.3754 Q144.3438,386.0161 144.3438,384.2192 Q144.3438,382.1879 145,380.7348 Q145.6563,379.2817 146.9375,378.5004 Q148.2188,377.7192 150.0938,377.7192 Q150.9844,377.7192 151.6563,377.9067 Q152.3281,378.0786 153.0156,378.4223 L152.2031,380.4379 Q151.5781,380.1254 151.0313,380.0004 Q150.5,379.8754 150.0156,379.8754 Q148.8438,379.8754 148.1406,380.4067 Q147.4375,380.9379 147.1406,381.8911 Q146.8438,382.8442 146.8438,384.1098 Q146.8438,386.1254 147.5625,387.0942 Q148.2813,388.0473 149.875,388.0473 Q150.4688,388.0473 151.0938,387.8911 Q151.7188,387.7348 152.5469,387.3598 L152.5469,389.5786 Q151.8125,389.8911 151.0156,390.0473 Q150.2344,390.2036 149.4688,390.2036 Z "/><text fill="#000000" font-family="sans-serif" font-size="12" lengthAdjust="spacingAndGlyphs" textLength="59" x="163.5" y="388.6877">Verificatore</text><line style="stroke: #A80036; stroke-width: 1.5;" x1="135.5" x2="224.5" y1="400.0317" y2="400.0317"/><line style="stroke: #A80036; stroke-width: 1.5;" x1="135.5" x2="224.5" y1="408.0317" y2="408.0317"/><!--MD5=[f810c510c7031853d87759381cafdb98]
class src.domotix.controller.TimerGestioneRegole--><rect fill="#FEFECE" filter="url(#fd4vytum3ivip)" height="212.8008" id="src.domotix.controller.TimerGestioneRegole" style="stroke: #A80036; stroke-width: 1.5;" width="173" x="601.5" y="95.0317"/><ellipse cx="629.55" cy="111.0317" fill="#ADD1B2" rx="11" ry="11" style="stroke: #A80036; stroke-width: 1.0;"/><path d="M629.5188,117.2036 Q627.7688,117.2036 626.6281,116.4692 Q625.5031,115.7192 624.9406,114.3754 Q624.3938,113.0161 624.3938,111.2192 Q624.3938,109.1879 625.05,107.7348 Q625.7063,106.2817 626.9875,105.5004 Q628.2688,104.7192 630.1438,104.7192 Q631.0344,104.7192 631.7063,104.9067 Q632.3781,105.0786 633.0656,105.4223 L632.2531,107.4379 Q631.6281,107.1254 631.0813,107.0004 Q630.55,106.8754 630.0656,106.8754 Q628.8938,106.8754 628.1906,107.4067 Q627.4875,107.9379 627.1906,108.8911 Q626.8938,109.8442 626.8938,111.1098 Q626.8938,113.1254 627.6125,114.0942 Q628.3313,115.0473 629.925,115.0473 Q630.5188,115.0473 631.1438,114.8911 Q631.7688,114.7348 632.5969,114.3598 L632.5969,116.5786 Q631.8625,116.8911 631.0656,117.0473 Q630.2844,117.2036 629.5188,117.2036 Z "/><text fill="#000000" font-family="sans-serif" font-size="12" lengthAdjust="spacingAndGlyphs" textLength="112" x="646.45" y="115.6877">TimerGestioneRegole</text><line style="stroke: #A80036; stroke-width: 1.5;" x1="602.5" x2="773.5" y1="127.0317" y2="127.0317"/><ellipse cx="612.5" cy="138.0317" fill="none" rx="3" ry="3" style="stroke: #038048; stroke-width: 1.0;"/><text fill="#000000" font-family="sans-serif" font-size="11" lengthAdjust="spacingAndGlyphs" text-decoration="underline" textLength="98" x="621.5" y="142.7906">DEFAULT_DELAY : int</text><rect fill="none" height="6" style="stroke: #C82930; stroke-width: 1.0;" width="6" x="609.5" y="150.0136"/><text fill="#000000" font-family="sans-serif" font-size="11" lengthAdjust="spacingAndGlyphs" text-decoration="underline" textLength="147" x="621.5" y="157.7725">instance : TimerGestioneRegole</text><rect fill="none" height="6" style="stroke: #C82930; stroke-width: 1.0;" width="6" x="609.5" y="164.9955"/><text fill="#000000" font-family="sans-serif" font-size="11" lengthAdjust="spacingAndGlyphs" textLength="59" x="621.5" y="172.7544">timer : Timer</text><rect fill="none" height="6" style="stroke: #C82930; stroke-width: 1.0;" width="6" x="609.5" y="179.9774"/><text fill="#000000" font-family="sans-serif" font-size="11" lengthAdjust="spacingAndGlyphs" textLength="42" x="621.5" y="187.7363">delay : int</text><line style="stroke: #A80036; stroke-width: 1.5;" x1="602.5" x2="773.5" y1="194.9592" y2="194.9592"/><ellipse cx="612.5" cy="205.9592" fill="#84BE84" rx="3" ry="3" style="stroke: #038048; stroke-width: 1.0;"/><text fill="#000000" font-family="sans-serif" font-size="11" lengthAdjust="spacingAndGlyphs" text-decoration="underline" textLength="61" x="621.5" y="210.7182">getInstance()</text><ellipse cx="612.5" cy="220.9411" fill="#84BE84" rx="3" ry="3" style="stroke: #038048; stroke-width: 1.0;"/><text fill="#000000" font-family="sans-serif" font-size="11" lengthAdjust="spacingAndGlyphs" textLength="108" x="621.5" y="225.7">TimerGestioneRegole()</text><ellipse cx="612.5" cy="235.923" fill="#84BE84" rx="3" ry="3" style="stroke: #038048; stroke-width: 1.0;"/><text fill="#000000" font-family="sans-serif" font-size="11" lengthAdjust="spacingAndGlyphs" textLength="48" x="621.5" y="240.6819">getDelay()</text><ellipse cx="612.5" cy="250.9049" fill="#84BE84" rx="3" ry="3" style="stroke: #038048; stroke-width: 1.0;"/><text fill="#000000" font-family="sans-serif" font-size="11" lengthAdjust="spacingAndGlyphs" textLength="47" x="621.5" y="255.6638">setDelay()</text><ellipse cx="612.5" cy="265.8868" fill="#84BE84" rx="3" ry="3" style="stroke: #038048; stroke-width: 1.0;"/><text fill="#000000" font-family="sans-serif" font-size="11" lengthAdjust="spacingAndGlyphs" textLength="27" x="621.5" y="270.6457">start()</text><ellipse cx="612.5" cy="280.8687" fill="#84BE84" rx="3" ry="3" style="stroke: #038048; stroke-width: 1.0;"/><text fill="#000000" font-family="sans-serif" font-size="11" lengthAdjust="spacingAndGlyphs" textLength="26" x="621.5" y="285.6276">stop()</text><rect fill="#F24D5C" height="6" style="stroke: #C82930; stroke-width: 1.0;" width="6" x="609.5" y="292.8506"/><text fill="#000000" font-family="sans-serif" font-size="11" lengthAdjust="spacingAndGlyphs" textLength="34" x="621.5" y="300.6095">action()</text><!--MD5=[9dd4d893f06eeaae370558f9cea874e1]
class src.domotix.controller.TimerRinfrescoDati--><rect fill="#FEFECE" filter="url(#fd4vytum3ivip)" height="212.8008" id="src.domotix.controller.TimerRinfrescoDati" style="stroke: #A80036; stroke-width: 1.5;" width="161" x="809.5" y="95.0317"/><ellipse cx="838" cy="111.0317" fill="#ADD1B2" rx="11" ry="11" style="stroke: #A80036; stroke-width: 1.0;"/><path d="M837.9688,117.2036 Q836.2188,117.2036 835.0781,116.4692 Q833.9531,115.7192 833.3906,114.3754 Q832.8438,113.0161 832.8438,111.2192 Q832.8438,109.1879 833.5,107.7348 Q834.1563,106.2817 835.4375,105.5004 Q836.7188,104.7192 838.5938,104.7192 Q839.4844,104.7192 840.1563,104.9067 Q840.8281,105.0786 841.5156,105.4223 L840.7031,107.4379 Q840.0781,107.1254 839.5313,107.0004 Q839,106.8754 838.5156,106.8754 Q837.3438,106.8754 836.6406,107.4067 Q835.9375,107.9379 835.6406,108.8911 Q835.3438,109.8442 835.3438,111.1098 Q835.3438,113.1254 836.0625,114.0942 Q836.7813,115.0473 838.375,115.0473 Q838.9688,115.0473 839.5938,114.8911 Q840.2188,114.7348 841.0469,114.3598 L841.0469,116.5786 Q840.3125,116.8911 839.5156,117.0473 Q838.7344,117.2036 837.9688,117.2036 Z "/><text fill="#000000" font-family="sans-serif" font-size="12" lengthAdjust="spacingAndGlyphs" textLength="99" x="855" y="115.6877">TimerRinfrescoDati</text><line style="stroke: #A80036; stroke-width: 1.5;" x1="810.5" x2="969.5" y1="127.0317" y2="127.0317"/><ellipse cx="820.5" cy="138.0317" fill="none" rx="3" ry="3" style="stroke: #038048; stroke-width: 1.0;"/><text fill="#000000" font-family="sans-serif" font-size="11" lengthAdjust="spacingAndGlyphs" text-decoration="underline" textLength="98" x="829.5" y="142.7906">DEFAULT_DELAY : int</text><rect fill="none" height="6" style="stroke: #C82930; stroke-width: 1.0;" width="6" x="817.5" y="150.0136"/><text fill="#000000" font-family="sans-serif" font-size="11" lengthAdjust="spacingAndGlyphs" text-decoration="underline" textLength="135" x="829.5" y="157.7725">instance : TimerRinfrescoDati</text><rect fill="none" height="6" style="stroke: #C82930; stroke-width: 1.0;" width="6" x="817.5" y="164.9955"/><text fill="#000000" font-family="sans-serif" font-size="11" lengthAdjust="spacingAndGlyphs" textLength="59" x="829.5" y="172.7544">timer : Timer</text><rect fill="none" height="6" style="stroke: #C82930; stroke-width: 1.0;" width="6" x="817.5" y="179.9774"/><text fill="#000000" font-family="sans-serif" font-size="11" lengthAdjust="spacingAndGlyphs" textLength="42" x="829.5" y="187.7363">delay : int</text><line style="stroke: #A80036; stroke-width: 1.5;" x1="810.5" x2="969.5" y1="194.9592" y2="194.9592"/><ellipse cx="820.5" cy="205.9592" fill="#84BE84" rx="3" ry="3" style="stroke: #038048; stroke-width: 1.0;"/><text fill="#000000" font-family="sans-serif" font-size="11" lengthAdjust="spacingAndGlyphs" text-decoration="underline" textLength="61" x="829.5" y="210.7182">getInstance()</text><ellipse cx="820.5" cy="220.9411" fill="#84BE84" rx="3" ry="3" style="stroke: #038048; stroke-width: 1.0;"/><text fill="#000000" font-family="sans-serif" font-size="11" lengthAdjust="spacingAndGlyphs" textLength="96" x="829.5" y="225.7">TimerRinfrescoDati()</text><ellipse cx="820.5" cy="235.923" fill="#84BE84" rx="3" ry="3" style="stroke: #038048; stroke-width: 1.0;"/><text fill="#000000" font-family="sans-serif" font-size="11" lengthAdjust="spacingAndGlyphs" textLength="48" x="829.5" y="240.6819">getDelay()</text><ellipse cx="820.5" cy="250.9049" fill="#84BE84" rx="3" ry="3" style="stroke: #038048; stroke-width: 1.0;"/><text fill="#000000" font-family="sans-serif" font-size="11" lengthAdjust="spacingAndGlyphs" textLength="47" x="829.5" y="255.6638">setDelay()</text><ellipse cx="820.5" cy="265.8868" fill="#84BE84" rx="3" ry="3" style="stroke: #038048; stroke-width: 1.0;"/><text fill="#000000" font-family="sans-serif" font-size="11" lengthAdjust="spacingAndGlyphs" textLength="27" x="829.5" y="270.6457">start()</text><ellipse cx="820.5" cy="280.8687" fill="#84BE84" rx="3" ry="3" style="stroke: #038048; stroke-width: 1.0;"/><text fill="#000000" font-family="sans-serif" font-size="11" lengthAdjust="spacingAndGlyphs" textLength="26" x="829.5" y="285.6276">stop()</text><rect fill="#F24D5C" height="6" style="stroke: #C82930; stroke-width: 1.0;" width="6" x="817.5" y="292.8506"/><text fill="#000000" font-family="sans-serif" font-size="11" lengthAdjust="spacingAndGlyphs" textLength="34" x="829.5" y="300.6095">action()</text><!--MD5=[5b1fe67943adfa4e88e480926117ac98]
class src.domotix.controller.util.StringUtil--><rect fill="#FEFECE" filter="url(#fd4vytum3ivip)" height="48" id="src.domotix.controller.util.StringUtil" style="stroke: #A80036; stroke-width: 1.5;" width="81" x="260.5" y="368.0317"/><ellipse cx="275.5" cy="384.0317" fill="#ADD1B2" rx="11" ry="11" style="stroke: #A80036; stroke-width: 1.0;"/><path d="M275.4688,390.2036 Q273.7188,390.2036 272.5781,389.4692 Q271.4531,388.7192 270.8906,387.3754 Q270.3438,386.0161 270.3438,384.2192 Q270.3438,382.1879 271,380.7348 Q271.6563,379.2817 272.9375,378.5004 Q274.2188,377.7192 276.0938,377.7192 Q276.9844,377.7192 277.6563,377.9067 Q278.3281,378.0786 279.0156,378.4223 L278.2031,380.4379 Q277.5781,380.1254 277.0313,380.0004 Q276.5,379.8754 276.0156,379.8754 Q274.8438,379.8754 274.1406,380.4067 Q273.4375,380.9379 273.1406,381.8911 Q272.8438,382.8442 272.8438,384.1098 Q272.8438,386.1254 273.5625,387.0942 Q274.2813,388.0473 275.875,388.0473 Q276.4688,388.0473 277.0938,387.8911 Q277.7188,387.7348 278.5469,387.3598 L278.5469,389.5786 Q277.8125,389.8911 277.0156,390.0473 Q276.2344,390.2036 275.4688,390.2036 Z "/><text fill="#000000" font-family="sans-serif" font-size="12" lengthAdjust="spacingAndGlyphs" textLength="49" x="289.5" y="388.6877">StringUtil</text><line style="stroke: #A80036; stroke-width: 1.5;" x1="261.5" x2="340.5" y1="400.0317" y2="400.0317"/><line style="stroke: #A80036; stroke-width: 1.5;" x1="261.5" x2="340.5" y1="408.0317" y2="408.0317"/><polygon fill="#FFFFFF" filter="url(#fd4vytum3ivip)" points="395.5,674.0317,522.5,674.0317,529.5,699.0996,536.5,699.0996,536.5,732.1675,395.5,732.1675,395.5,674.0317" style="stroke: #000000; stroke-width: 1.5;"/><line style="stroke: #000000; stroke-width: 1.5;" x1="395.5" x2="529.5" y1="699.0996" y2="699.0996"/><text fill="#000000" font-family="sans-serif" font-size="14" font-weight="bold" lengthAdjust="spacingAndGlyphs" textLength="121" x="399.5" y="690.9976">src.domotix.model</text><!--MD5=[64d46d3feb93ed373cb40c8e6f8ae86a]
class src.domotix.view.MenuErroreApertura--><rect fill="#FEFECE" filter="url(#fd4vytum3ivip)" height="48" id="src.domotix.view.MenuErroreApertura" style="stroke: #A80036; stroke-width: 1.5;" width="138" x="1170" y="368.0317"/><ellipse cx="1185" cy="384.0317" fill="#ADD1B2" rx="11" ry="11" style="stroke: #A80036; stroke-width: 1.0;"/><path d="M1184.9688,390.2036 Q1183.2188,390.2036 1182.0781,389.4692 Q1180.9531,388.7192 1180.3906,387.3754 Q1179.8438,386.0161 1179.8438,384.2192 Q1179.8438,382.1879 1180.5,380.7348 Q1181.1563,379.2817 1182.4375,378.5004 Q1183.7188,377.7192 1185.5938,377.7192 Q1186.4844,377.7192 1187.1563,377.9067 Q1187.8281,378.0786 1188.5156,378.4223 L1187.7031,380.4379 Q1187.0781,380.1254 1186.5313,380.0004 Q1186,379.8754 1185.5156,379.8754 Q1184.3438,379.8754 1183.6406,380.4067 Q1182.9375,380.9379 1182.6406,381.8911 Q1182.3438,382.8442 1182.3438,384.1098 Q1182.3438,386.1254 1183.0625,387.0942 Q1183.7813,388.0473 1185.375,388.0473 Q1185.9688,388.0473 1186.5938,387.8911 Q1187.2188,387.7348 1188.0469,387.3598 L1188.0469,389.5786 Q1187.3125,389.8911 1186.5156,390.0473 Q1185.7344,390.2036 1184.9688,390.2036 Z "/><text fill="#000000" font-family="sans-serif" font-size="12" lengthAdjust="spacingAndGlyphs" textLength="106" x="1199" y="388.6877">MenuErroreApertura</text><line style="stroke: #A80036; stroke-width: 1.5;" x1="1171" x2="1307" y1="400.0317" y2="400.0317"/><line style="stroke: #A80036; stroke-width: 1.5;" x1="1171" x2="1307" y1="408.0317" y2="408.0317"/><!--MD5=[5a43ac4806d6715ee3259b6b81245646]
class src.domotix.view.MenuErroreChiusura--><rect fill="#FEFECE" filter="url(#fd4vytum3ivip)" height="48" id="src.domotix.view.MenuErroreChiusura" style="stroke: #A80036; stroke-width: 1.5;" width="139" x="995.5" y="368.0317"/><ellipse cx="1010.5" cy="384.0317" fill="#ADD1B2" rx="11" ry="11" style="stroke: #A80036; stroke-width: 1.0;"/><path d="M1010.4688,390.2036 Q1008.7188,390.2036 1007.5781,389.4692 Q1006.4531,388.7192 1005.8906,387.3754 Q1005.3438,386.0161 1005.3438,384.2192 Q1005.3438,382.1879 1006,380.7348 Q1006.6563,379.2817 1007.9375,378.5004 Q1009.2188,377.7192 1011.0938,377.7192 Q1011.9844,377.7192 1012.6563,377.9067 Q1013.3281,378.0786 1014.0156,378.4223 L1013.2031,380.4379 Q1012.5781,380.1254 1012.0313,380.0004 Q1011.5,379.8754 1011.0156,379.8754 Q1009.8438,379.8754 1009.1406,380.4067 Q1008.4375,380.9379 1008.1406,381.8911 Q1007.8438,382.8442 1007.8438,384.1098 Q1007.8438,386.1254 1008.5625,387.0942 Q1009.2813,388.0473 1010.875,388.0473 Q1011.4688,388.0473 1012.0938,387.8911 Q1012.7188,387.7348 1013.5469,387.3598 L1013.5469,389.5786 Q1012.8125,389.8911 1012.0156,390.0473 Q1011.2344,390.2036 1010.4688,390.2036 Z "/><text fill="#000000" font-family="sans-serif" font-size="12" lengthAdjust="spacingAndGlyphs" textLength="107" x="1024.5" y="388.6877">MenuErroreChiusura</text><line style="stroke: #A80036; stroke-width: 1.5;" x1="996.5" x2="1133.5" y1="400.0317" y2="400.0317"/><line style="stroke: #A80036; stroke-width: 1.5;" x1="996.5" x2="1133.5" y1="408.0317" y2="408.0317"/><!--MD5=[201f3e31cd77252eadb42ab4f3f9311d]
link src.domotix.controller.Modificatore to src.domotix.controller.util.StringUtil--><path d="M205.8577,278.079 C222.6646,297.5383 240.5868,318.4768 257,338.0317 C264.0154,346.3899 271.5518,355.5649 278.3704,363.9426 " fill="none" id="src.domotix.controller.Modificatore-&gt;src.domotix.controller.util.StringUtil" style="stroke: #A80036; stroke-width: 1.0;"/><polygon fill="#A80036" points="281.6546,367.9841,279.0831,358.4769,278.5014,364.1037,272.8745,363.522,281.6546,367.9841" style="stroke: #A80036; stroke-width: 1.0;"/><!--MD5=[8a38aa3df2382dc9606741a6103750ea]
link src.domotix.controller.Modificatore to src.domotix.controller.Recuperatore--><path d="M118.8456,278.1221 C110.5621,321.4482 105.3271,376.336 117,424.0317 C120.9033,439.9805 127.3128,456.1651 134.5849,471.2882 " fill="none" id="src.domotix.controller.Modificatore-&gt;src.domotix.controller.Recuperatore" style="stroke: #A80036; stroke-width: 1.0;"/><polygon fill="#A80036" points="136.8677,475.946,136.4988,466.104,134.6673,471.4562,129.3151,469.6247,136.8677,475.946" style="stroke: #A80036; stroke-width: 1.0;"/><!--MD5=[40f5ce1c4829b8a3d0d2add149b2b9f8]
link src.domotix.controller.Modificatore to src.domotix.controller.Verificatore--><path d="M155.499,278.1919 C161.912,307.9888 168.8685,340.311 173.7247,362.8743 " fill="none" id="src.domotix.controller.Modificatore-&gt;src.domotix.controller.Verificatore" style="stroke: #A80036; stroke-width: 1.0;"/><polygon fill="#A80036" points="174.7893,367.8209,176.8059,358.1807,173.7371,362.9328,168.985,359.8641,174.7893,367.8209" style="stroke: #A80036; stroke-width: 1.0;"/><!--MD5=[1275239951ea355e4db66ad8e40c3739]
link src.domotix.controller.Modificatore to src.domotix.model--><path d="M228.0427,278.2442 C242.8494,289.0748 258.459,299.4307 274,308.0317 C308.6853,327.2277 330.7546,309.2351 358,338.0317 C360.9426,341.1419 429.9574,578.6222 456.0927,668.8074 " fill="none" id="src.domotix.controller.Modificatore-&gt;src.domotix.model" style="stroke: #A80036; stroke-width: 1.0;"/><polygon fill="#A80036" points="457.5282,673.7619,458.8653,664.0042,456.1366,668.9594,451.1814,666.2307,457.5282,673.7619" style="stroke: #A80036; stroke-width: 1.0;"/><!--MD5=[5c5898ebcda34ab65c30afcc422018f5]
link src.domotix.controller.Verificatore to src.domotix.controller.Recuperatore--><path d="M180,416.275 C180,431.1893 180,451.1795 180,470.9538 " fill="none" id="src.domotix.controller.Verificatore-&gt;src.domotix.controller.Recuperatore" style="stroke: #A80036; stroke-width: 1.0;"/><polygon fill="#A80036" points="180,475.9733,184,466.9733,180,470.9733,176,466.9733,180,475.9733" style="stroke: #A80036; stroke-width: 1.0;"/><!--MD5=[222e76682ac9ebc370daa64111fd90f3]
link src.domotix.controller.Verificatore to src.domotix.model--><path d="M213.1366,416.2716 C233.2715,431.9635 258.7244,453.5954 278,476.0317 C327.8266,534.0285 318.8011,564.3568 369,622.0317 C384.2705,639.5764 403.5286,656.4811 420.8527,670.267 " fill="none" id="src.domotix.controller.Verificatore-&gt;src.domotix.model" style="stroke: #A80036; stroke-width: 1.0;"/><polygon fill="#A80036" points="425.2118,673.7032,420.6201,664.9902,421.2851,670.6078,415.6675,671.2728,425.2118,673.7032" style="stroke: #A80036; stroke-width: 1.0;"/><!--MD5=[5687ef8736ca95c57867d4962220596c]
link src.domotix.controller.Recuperatore to src.domotix.model--><path d="M260.1649,601.9458 C271.0324,608.9818 282.1718,615.8604 293,622.0317 C324.8561,640.1876 361.4647,657.7694 392.7786,671.8866 " fill="none" id="src.domotix.controller.Recuperatore-&gt;src.domotix.model" style="stroke: #A80036; stroke-width: 1.0;"/><polygon fill="#A80036" points="397.3591,673.944,390.7883,666.6075,392.7981,671.8953,387.5103,673.9051,397.3591,673.944" style="stroke: #A80036; stroke-width: 1.0;"/><!--MD5=[2af20467ac6f60db69e0151dba7a30b6]
link src.domotix.controller.OperazioniIniziali to src.domotix.model--><path d="M515.122,225.6032 C527.3107,251.1626 550.4231,290.2709 584,308.0317 C656.7403,346.5084 1267.003,278.6772 1324,338.0317 C1565.6413,589.6678 792.3341,676.3052 541.7123,697.4137 " fill="none" id="src.domotix.controller.OperazioniIniziali-&gt;src.domotix.model" style="stroke: #A80036; stroke-width: 1.0;"/><polygon fill="#A80036" points="536.612,697.8403,545.9141,701.076,541.5946,697.4234,545.2472,693.1039,536.612,697.8403" style="stroke: #A80036; stroke-width: 1.0;"/><!--MD5=[cc738602355c8f24d065eac3aca55f7e]
link src.domotix.controller.OperazioniIniziali to src.domotix.view.MenuErroreApertura--><path d="M515.3869,225.9904 C527.6694,251.4892 550.7354,290.1744 584,308.0317 C695.366,367.8156 1031.4026,300.18 1152,338.0317 C1170.6044,343.871 1189.2379,354.62 1204.46,364.9993 " fill="none" id="src.domotix.controller.OperazioniIniziali-&gt;src.domotix.view.MenuErroreApertura" style="stroke: #A80036; stroke-width: 1.0;"/><polygon fill="#A80036" points="1208.6601,367.9126,1203.5447,359.4964,1204.5517,365.0629,1198.9852,366.0699,1208.6601,367.9126" style="stroke: #A80036; stroke-width: 1.0;"/><!--MD5=[528c1a17cb7a6e88208b0974bd98c95e]
link src.domotix.controller.OperazioniFinali to src.domotix.model--><path d="M365.8837,225.5385 C382.522,251.9423 408.0058,296.1956 421,338.0317 C457.473,455.4598 464.5368,602.7758 465.7983,668.5539 " fill="none" id="src.domotix.controller.OperazioniFinali-&gt;src.domotix.model" style="stroke: #A80036; stroke-width: 1.0;"/><polygon fill="#A80036" points="465.8915,673.9056,469.734,664.8372,465.8044,668.9064,461.7353,664.9767,465.8915,673.9056" style="stroke: #A80036; stroke-width: 1.0;"/><!--MD5=[ff44c694a190eefe228faf0fea0d8704]
link src.domotix.controller.OperazioniFinali to src.domotix.view.MenuErroreChiusura--><path d="M359.7403,225.9615 C371.3407,251.4356 393.3477,290.0999 426,308.0317 C535.4292,368.1273 868.8707,297.6375 987,338.0317 C1003.9479,343.827 1020.5725,354.4434 1034.0901,364.7389 " fill="none" id="src.domotix.controller.OperazioniFinali-&gt;src.domotix.view.MenuErroreChiusura" style="stroke: #A80036; stroke-width: 1.0;"/><polygon fill="#A80036" points="1038.1824,367.9181,1033.5291,359.2378,1034.2339,364.8506,1028.6211,365.5554,1038.1824,367.9181" style="stroke: #A80036; stroke-width: 1.0;"/><!--MD5=[3b3f8624b21b05c588359226501b0ca1]
link src.domotix.controller.TimerGestioneRegole to src.domotix.model--><path d="M774.5047,298.4713 C780.1541,302.0876 785.9948,305.3177 792,308.0317 C850.8038,334.6082 1327.5641,291.238 1372,338.0317 C1398.3199,365.7481 1383.3918,387.5466 1372,424.0317 C1340.1061,526.1798 1327.0461,567.4517 1235,622.0317 C1176.1911,656.9032 724.0088,687.5686 541.7641,698.6397 " fill="none" id="src.domotix.controller.TimerGestioneRegole-&gt;src.domotix.model" style="stroke: #A80036; stroke-width: 1.0;"/><polygon fill="#A80036" points="536.7159,698.9455,545.9414,702.3938,541.7067,698.6431,545.4575,694.4084,536.7159,698.9455" style="stroke: #A80036; stroke-width: 1.0;"/><!--MD5=[cae165e9b7a0f7ea3ac02bef2f7921aa]
link src.domotix.controller.TimerRinfrescoDati to src.domotix.model--><path d="M970.5772,210.9971 C1101.773,228.2492 1352.2586,269.4902 1405,338.0317 C1468.3001,420.2951 1350.1879,600.0245 1320,622.0317 C1257.8215,667.3603 739.4626,692.2915 541.9908,700.217 " fill="none" id="src.domotix.controller.TimerRinfrescoDati-&gt;src.domotix.model" style="stroke: #A80036; stroke-width: 1.0;"/><polygon fill="#A80036" points="536.8141,700.4238,545.9667,704.0611,541.8101,700.2241,545.6471,696.0675,536.8141,700.4238" style="stroke: #A80036; stroke-width: 1.0;"/><!--MD5=[74ee68a86283a77190d641b8e5404f90]
@startuml

title __DOMOTIX > CONTROLLER's Class Diagram__\n

namespace src.domotix.controller {
    class src.domotix.controller.Modificatore {
        {static} + aggiungiRegola()
        {static} - costruisciInfoDaSensore()
        {static} - aggiungiComponenteCostanteAntecedente()
        {static} + aggiungiComponenteAntecedente()
        {static} + aggiungiOperatoreLogico()
        {static} + rimuoviRegola()
        {static} + aggiungiAzioneConseguente()
    }

    class src.domotix.controller.OperazioniFinali {

    }

    class src.domotix.controller.OperazioniIniziali {

    }

    class src.domotix.controller.Recuperatore {
        {static} + getRegoleUnita()
        {static} + isInfoNumerica()
        {static} + getAntecedentiRegoleUnita()
        {static} + isModalitaParametrica()
        {static} + getNomiParametriModalita()
        {static} + getModalitaTutte()
    }

    class src.domotix.controller.Verificatore {

    }

    class src.domotix.controller.TimerGestioneRegole {
        {static} + DEFAULT_DELAY : int
        {static} - instance : TimerGestioneRegole
        {static} + getInstance()
        - timer : Timer
        - delay : int
        + TimerGestioneRegole()
        + getDelay()
        + setDelay()
        + start()
        + stop()
        - action()
    }

    class src.domotix.controller.TimerRinfrescoDati {
        {static} + DEFAULT_DELAY : int
        {static} - instance : TimerRinfrescoDati
        {static} + getInstance()
        - timer : Timer
        - delay : int
        + TimerRinfrescoDati()
        + getDelay()
        + setDelay()
        + start()
        + stop()
        - action()
    }

    namespace util {
        class src.domotix.controller.util.StringUtil {
        }
    }
}

namespace src.domotix.model {

}

src.domotix.controller.Modificatore - -> src.domotix.controller.util.StringUtil
src.domotix.controller.Modificatore - -> src.domotix.controller.Recuperatore
src.domotix.controller.Modificatore - -> src.domotix.controller.Verificatore
src.domotix.controller.Modificatore - -> src.domotix.model

src.domotix.controller.Verificatore - -> src.domotix.controller.Recuperatore
src.domotix.controller.Verificatore - -> src.domotix.model

src.domotix.controller.Recuperatore - -> src.domotix.model

src.domotix.controller.OperazioniIniziali - -> src.domotix.model
src.domotix.controller.OperazioniIniziali - -> src.domotix.view.MenuErroreApertura

src.domotix.controller.OperazioniFinali - -> src.domotix.model
src.domotix.controller.OperazioniFinali - -> src.domotix.view.MenuErroreChiusura

src.domotix.controller.TimerGestioneRegole - -> src.domotix.model
src.domotix.controller.TimerRinfrescoDati - -> src.domotix.model

@enduml

PlantUML version 1.2019.11(Sun Sep 22 12:02:15 CEST 2019)
(GPL source distribution)
Java Runtime: OpenJDK Runtime Environment
JVM: OpenJDK 64-Bit Server VM
Java Version: 11.0.3+12-b304.10
Operating System: Linux
Default Encoding: UTF-8
Language: it
Country: IT
--></g></svg>