<?xml version="1.0" encoding="UTF-8" standalone="no"?><svg xmlns="http://www.w3.org/2000/svg" xmlns:xlink="http://www.w3.org/1999/xlink" contentScriptType="application/ecmascript" contentStyleType="text/css" height="759px" preserveAspectRatio="none" style="width:1560px;height:759px;" version="1.1" viewBox="0 0 1560 759" width="1560px" zoomAndPan="magnify"><defs><filter height="300%" id="f1uaza7d3685c7" width="300%" x="-1" y="-1"><feGaussianBlur result="blurOut" stdDeviation="2.0"/><feColorMatrix in="blurOut" result="blurOut2" type="matrix" values="0 0 0 0 0 0 0 0 0 0 0 0 0 0 0 0 0 0 .4 0"/><feOffset dx="4.0" dy="4.0" in="blurOut2" result="blurOut3"/><feBlend in="SourceGraphic" in2="blurOut3" mode="normal"/></filter></defs><g><text fill="#000000" font-family="sans-serif" font-size="18" lengthAdjust="spacingAndGlyphs" text-decoration="underline" textLength="345" x="547" y="19.2419">DOMOTIX &gt; CONTROLLER's Class Diagram</text><text fill="#000000" font-family="sans-serif" font-size="18" lengthAdjust="spacingAndGlyphs" textLength="0" x="721.5" y="43.7577"/><!--MD5=[e3c3ae39643e55df7c1a0329eec479c9]
cluster src.domotix.controller--><polygon fill="#FFFFFF" filter="url(#f1uaza7d3685c7)" points="14,65.0317,166,65.0317,173,90.0996,979,90.0996,979,637.0317,14,637.0317,14,65.0317" style="stroke: #000000; stroke-width: 1.5;"/><line style="stroke: #000000; stroke-width: 1.5;" x1="14" x2="173" y1="90.0996" y2="90.0996"/><text fill="#000000" font-family="sans-serif" font-size="14" font-weight="bold" lengthAdjust="spacingAndGlyphs" textLength="146" x="18" y="81.9976">src.domotix.controller</text><!--MD5=[a8727cba488ea6626f091f9c58f14192]
cluster src.domotix.controller.util--><polygon fill="#FFFFFF" filter="url(#f1uaza7d3685c7)" points="315,345.5317,344,345.5317,351,370.5996,413,370.5996,413,431.5317,315,431.5317,315,345.5317" style="stroke: #000000; stroke-width: 1.5;"/><line style="stroke: #000000; stroke-width: 1.5;" x1="315" x2="351" y1="370.5996" y2="370.5996"/><text fill="#000000" font-family="sans-serif" font-size="14" font-weight="bold" lengthAdjust="spacingAndGlyphs" textLength="23" x="319" y="362.4976">util</text><!--MD5=[8e0e0f0c97ec05372c8c81240809cf06]
cluster src.domotix.view--><polygon fill="#FFFFFF" filter="url(#f1uaza7d3685c7)" points="987,345.5317,1103,345.5317,1110,370.5996,1316,370.5996,1316,431.5317,987,431.5317,987,345.5317" style="stroke: #000000; stroke-width: 1.5;"/><line style="stroke: #000000; stroke-width: 1.5;" x1="987" x2="1110" y1="370.5996" y2="370.5996"/><text fill="#000000" font-family="sans-serif" font-size="14" font-weight="bold" lengthAdjust="spacingAndGlyphs" textLength="110" x="991" y="362.4976">src.domotix.view</text><!--MD5=[b71e28d46693838dc5614a2818178488]
class src.domotix.controller.Modificatore--><rect fill="#FEFECE" filter="url(#f1uaza7d3685c7)" height="152.8732" id="src.domotix.controller.Modificatore" style="stroke: #A80036; stroke-width: 1.5;" width="234" x="22" y="125.0317"/><ellipse cx="101.75" cy="141.0317" fill="#ADD1B2" rx="11" ry="11" style="stroke: #A80036; stroke-width: 1.0;"/><path d="M101.7188,147.2036 Q99.9688,147.2036 98.8281,146.4692 Q97.7031,145.7192 97.1406,144.3754 Q96.5938,143.0161 96.5938,141.2192 Q96.5938,139.1879 97.25,137.7348 Q97.9063,136.2817 99.1875,135.5004 Q100.4688,134.7192 102.3438,134.7192 Q103.2344,134.7192 103.9063,134.9067 Q104.5781,135.0786 105.2656,135.4223 L104.4531,137.4379 Q103.8281,137.1254 103.2813,137.0004 Q102.75,136.8754 102.2656,136.8754 Q101.0938,136.8754 100.3906,137.4067 Q99.6875,137.9379 99.3906,138.8911 Q99.0938,139.8442 99.0938,141.1098 Q99.0938,143.1254 99.8125,144.0942 Q100.5313,145.0473 102.125,145.0473 Q102.7188,145.0473 103.3438,144.8911 Q103.9688,144.7348 104.7969,144.3598 L104.7969,146.5786 Q104.0625,146.8911 103.2656,147.0473 Q102.4844,147.2036 101.7188,147.2036 Z "/><text fill="#000000" font-family="sans-serif" font-size="12" lengthAdjust="spacingAndGlyphs" textLength="66" x="122.25" y="145.6877">Modificatore</text><line style="stroke: #A80036; stroke-width: 1.5;" x1="23" x2="255" y1="157.0317" y2="157.0317"/><line style="stroke: #A80036; stroke-width: 1.5;" x1="23" x2="255" y1="165.0317" y2="165.0317"/><ellipse cx="33" cy="176.0317" fill="#84BE84" rx="3" ry="3" style="stroke: #038048; stroke-width: 1.0;"/><text fill="#000000" font-family="sans-serif" font-size="11" lengthAdjust="spacingAndGlyphs" text-decoration="underline" textLength="78" x="42" y="180.7906">aggiungiRegola()</text><rect fill="#F24D5C" height="6" style="stroke: #C82930; stroke-width: 1.0;" width="6" x="30" y="188.0136"/><text fill="#000000" font-family="sans-serif" font-size="11" lengthAdjust="spacingAndGlyphs" text-decoration="underline" textLength="120" x="42" y="195.7725">costruisciInfoDaSensore()</text><rect fill="#F24D5C" height="6" style="stroke: #C82930; stroke-width: 1.0;" width="6" x="30" y="202.9955"/><text fill="#000000" font-family="sans-serif" font-size="11" lengthAdjust="spacingAndGlyphs" text-decoration="underline" textLength="208" x="42" y="210.7544">aggiungiComponenteCostanteAntecedente()</text><ellipse cx="33" cy="220.9774" fill="#84BE84" rx="3" ry="3" style="stroke: #038048; stroke-width: 1.0;"/><text fill="#000000" font-family="sans-serif" font-size="11" lengthAdjust="spacingAndGlyphs" text-decoration="underline" textLength="167" x="42" y="225.7363">aggiungiComponenteAntecedente()</text><ellipse cx="33" cy="235.9592" fill="#84BE84" rx="3" ry="3" style="stroke: #038048; stroke-width: 1.0;"/><text fill="#000000" font-family="sans-serif" font-size="11" lengthAdjust="spacingAndGlyphs" text-decoration="underline" textLength="125" x="42" y="240.7182">aggiungiOperatoreLogico()</text><ellipse cx="33" cy="250.9411" fill="#84BE84" rx="3" ry="3" style="stroke: #038048; stroke-width: 1.0;"/><text fill="#000000" font-family="sans-serif" font-size="11" lengthAdjust="spacingAndGlyphs" text-decoration="underline" textLength="73" x="42" y="255.7">rimuoviRegola()</text><ellipse cx="33" cy="265.923" fill="#84BE84" rx="3" ry="3" style="stroke: #038048; stroke-width: 1.0;"/><text fill="#000000" font-family="sans-serif" font-size="11" lengthAdjust="spacingAndGlyphs" text-decoration="underline" textLength="140" x="42" y="270.6819">aggiungiAzioneConseguente()</text><!--MD5=[0762cb38a47bd56911b261b0ac435b54]
class src.domotix.controller.OperazioniFinali--><rect fill="#FEFECE" filter="url(#f1uaza7d3685c7)" height="48" id="src.domotix.controller.OperazioniFinali" style="stroke: #A80036; stroke-width: 1.5;" width="117" x="291.5" y="177.5317"/><ellipse cx="306.5" cy="193.5317" fill="#ADD1B2" rx="11" ry="11" style="stroke: #A80036; stroke-width: 1.0;"/><path d="M306.4688,199.7036 Q304.7188,199.7036 303.5781,198.9692 Q302.4531,198.2192 301.8906,196.8754 Q301.3438,195.5161 301.3438,193.7192 Q301.3438,191.6879 302,190.2348 Q302.6563,188.7817 303.9375,188.0004 Q305.2188,187.2192 307.0938,187.2192 Q307.9844,187.2192 308.6563,187.4067 Q309.3281,187.5786 310.0156,187.9223 L309.2031,189.9379 Q308.5781,189.6254 308.0313,189.5004 Q307.5,189.3754 307.0156,189.3754 Q305.8438,189.3754 305.1406,189.9067 Q304.4375,190.4379 304.1406,191.3911 Q303.8438,192.3442 303.8438,193.6098 Q303.8438,195.6254 304.5625,196.5942 Q305.2813,197.5473 306.875,197.5473 Q307.4688,197.5473 308.0938,197.3911 Q308.7188,197.2348 309.5469,196.8598 L309.5469,199.0786 Q308.8125,199.3911 308.0156,199.5473 Q307.2344,199.7036 306.4688,199.7036 Z "/><text fill="#000000" font-family="sans-serif" font-size="12" lengthAdjust="spacingAndGlyphs" textLength="85" x="320.5" y="198.1877">OperazioniFinali</text><line style="stroke: #A80036; stroke-width: 1.5;" x1="292.5" x2="407.5" y1="209.5317" y2="209.5317"/><line style="stroke: #A80036; stroke-width: 1.5;" x1="292.5" x2="407.5" y1="217.5317" y2="217.5317"/><!--MD5=[1ddd180088a80c3f21304f5ea42348e6]
class src.domotix.controller.OperazioniIniziali--><rect fill="#FEFECE" filter="url(#f1uaza7d3685c7)" height="48" id="src.domotix.controller.OperazioniIniziali" style="stroke: #A80036; stroke-width: 1.5;" width="123" x="443.5" y="177.5317"/><ellipse cx="458.5" cy="193.5317" fill="#ADD1B2" rx="11" ry="11" style="stroke: #A80036; stroke-width: 1.0;"/><path d="M458.4688,199.7036 Q456.7188,199.7036 455.5781,198.9692 Q454.4531,198.2192 453.8906,196.8754 Q453.3438,195.5161 453.3438,193.7192 Q453.3438,191.6879 454,190.2348 Q454.6563,188.7817 455.9375,188.0004 Q457.2188,187.2192 459.0938,187.2192 Q459.9844,187.2192 460.6563,187.4067 Q461.3281,187.5786 462.0156,187.9223 L461.2031,189.9379 Q460.5781,189.6254 460.0313,189.5004 Q459.5,189.3754 459.0156,189.3754 Q457.8438,189.3754 457.1406,189.9067 Q456.4375,190.4379 456.1406,191.3911 Q455.8438,192.3442 455.8438,193.6098 Q455.8438,195.6254 456.5625,196.5942 Q457.2813,197.5473 458.875,197.5473 Q459.4688,197.5473 460.0938,197.3911 Q460.7188,197.2348 461.5469,196.8598 L461.5469,199.0786 Q460.8125,199.3911 460.0156,199.5473 Q459.2344,199.7036 458.4688,199.7036 Z "/><text fill="#000000" font-family="sans-serif" font-size="12" lengthAdjust="spacingAndGlyphs" textLength="91" x="472.5" y="198.1877">OperazioniIniziali</text><line style="stroke: #A80036; stroke-width: 1.5;" x1="444.5" x2="565.5" y1="209.5317" y2="209.5317"/><line style="stroke: #A80036; stroke-width: 1.5;" x1="444.5" x2="565.5" y1="217.5317" y2="217.5317"/><!--MD5=[19e62dc1491eac9c9a34efd24892529b]
class src.domotix.controller.Recuperatore--><rect fill="#FEFECE" filter="url(#f1uaza7d3685c7)" height="137.8913" id="src.domotix.controller.Recuperatore" style="stroke: #A80036; stroke-width: 1.5;" width="160" x="123" y="491.0317"/><ellipse cx="164.55" cy="507.0317" fill="#ADD1B2" rx="11" ry="11" style="stroke: #A80036; stroke-width: 1.0;"/><path d="M164.5188,513.2036 Q162.7688,513.2036 161.6281,512.4692 Q160.5031,511.7192 159.9406,510.3754 Q159.3938,509.0161 159.3938,507.2192 Q159.3938,505.1879 160.05,503.7348 Q160.7063,502.2817 161.9875,501.5004 Q163.2688,500.7192 165.1438,500.7192 Q166.0344,500.7192 166.7063,500.9067 Q167.3781,501.0786 168.0656,501.4223 L167.2531,503.4379 Q166.6281,503.1254 166.0813,503.0004 Q165.55,502.8754 165.0656,502.8754 Q163.8938,502.8754 163.1906,503.4067 Q162.4875,503.9379 162.1906,504.8911 Q161.8938,505.8442 161.8938,507.1098 Q161.8938,509.1254 162.6125,510.0942 Q163.3313,511.0473 164.925,511.0473 Q165.5188,511.0473 166.1438,510.8911 Q166.7688,510.7348 167.5969,510.3598 L167.5969,512.5786 Q166.8625,512.8911 166.0656,513.0473 Q165.2844,513.2036 164.5188,513.2036 Z "/><text fill="#000000" font-family="sans-serif" font-size="12" lengthAdjust="spacingAndGlyphs" textLength="69" x="184.45" y="511.6877">Recuperatore</text><line style="stroke: #A80036; stroke-width: 1.5;" x1="124" x2="282" y1="523.0317" y2="523.0317"/><line style="stroke: #A80036; stroke-width: 1.5;" x1="124" x2="282" y1="531.0317" y2="531.0317"/><ellipse cx="134" cy="542.0317" fill="#84BE84" rx="3" ry="3" style="stroke: #038048; stroke-width: 1.0;"/><text fill="#000000" font-family="sans-serif" font-size="11" lengthAdjust="spacingAndGlyphs" text-decoration="underline" textLength="78" x="143" y="546.7906">getRegoleUnita()</text><ellipse cx="134" cy="557.0136" fill="#84BE84" rx="3" ry="3" style="stroke: #038048; stroke-width: 1.0;"/><text fill="#000000" font-family="sans-serif" font-size="11" lengthAdjust="spacingAndGlyphs" text-decoration="underline" textLength="78" x="143" y="561.7725">isInfoNumerica()</text><ellipse cx="134" cy="571.9955" fill="#84BE84" rx="3" ry="3" style="stroke: #038048; stroke-width: 1.0;"/><text fill="#000000" font-family="sans-serif" font-size="11" lengthAdjust="spacingAndGlyphs" text-decoration="underline" textLength="134" x="143" y="576.7544">getAntecedentiRegoleUnita()</text><ellipse cx="134" cy="586.9774" fill="#84BE84" rx="3" ry="3" style="stroke: #038048; stroke-width: 1.0;"/><text fill="#000000" font-family="sans-serif" font-size="11" lengthAdjust="spacingAndGlyphs" text-decoration="underline" textLength="111" x="143" y="591.7363">isModalitaParametrica()</text><ellipse cx="134" cy="601.9592" fill="#84BE84" rx="3" ry="3" style="stroke: #038048; stroke-width: 1.0;"/><text fill="#000000" font-family="sans-serif" font-size="11" lengthAdjust="spacingAndGlyphs" text-decoration="underline" textLength="134" x="143" y="606.7182">getNomiParametriModalita()</text><ellipse cx="134" cy="616.9411" fill="#84BE84" rx="3" ry="3" style="stroke: #038048; stroke-width: 1.0;"/><text fill="#000000" font-family="sans-serif" font-size="11" lengthAdjust="spacingAndGlyphs" text-decoration="underline" textLength="85" x="143" y="621.7">getModalitaTutte()</text><!--MD5=[906e05901960a554719547f36ce431c6]
class src.domotix.controller.Verificatore--><rect fill="#FEFECE" filter="url(#f1uaza7d3685c7)" height="62.9819" id="src.domotix.controller.Verificatore" style="stroke: #A80036; stroke-width: 1.5;" width="171" x="117.5" y="368.0317"/><ellipse cx="169.25" cy="384.0317" fill="#ADD1B2" rx="11" ry="11" style="stroke: #A80036; stroke-width: 1.0;"/><path d="M169.2188,390.2036 Q167.4688,390.2036 166.3281,389.4692 Q165.2031,388.7192 164.6406,387.3754 Q164.0938,386.0161 164.0938,384.2192 Q164.0938,382.1879 164.75,380.7348 Q165.4063,379.2817 166.6875,378.5004 Q167.9688,377.7192 169.8438,377.7192 Q170.7344,377.7192 171.4063,377.9067 Q172.0781,378.0786 172.7656,378.4223 L171.9531,380.4379 Q171.3281,380.1254 170.7813,380.0004 Q170.25,379.8754 169.7656,379.8754 Q168.5938,379.8754 167.8906,380.4067 Q167.1875,380.9379 166.8906,381.8911 Q166.5938,382.8442 166.5938,384.1098 Q166.5938,386.1254 167.3125,387.0942 Q168.0313,388.0473 169.625,388.0473 Q170.2188,388.0473 170.8438,387.8911 Q171.4688,387.7348 172.2969,387.3598 L172.2969,389.5786 Q171.5625,389.8911 170.7656,390.0473 Q169.9844,390.2036 169.2188,390.2036 Z "/><text fill="#000000" font-family="sans-serif" font-size="12" lengthAdjust="spacingAndGlyphs" textLength="59" x="189.75" y="388.6877">Verificatore</text><line style="stroke: #A80036; stroke-width: 1.5;" x1="118.5" x2="287.5" y1="400.0317" y2="400.0317"/><line style="stroke: #A80036; stroke-width: 1.5;" x1="118.5" x2="287.5" y1="408.0317" y2="408.0317"/><ellipse cx="128.5" cy="419.0317" fill="#84BE84" rx="3" ry="3" style="stroke: #038048; stroke-width: 1.0;"/><text fill="#000000" font-family="sans-serif" font-size="11" lengthAdjust="spacingAndGlyphs" text-decoration="underline" textLength="145" x="137.5" y="423.7906">checkValiditaOperatoreLogico()</text><!--MD5=[f810c510c7031853d87759381cafdb98]
class src.domotix.controller.TimerGestioneRegole--><rect fill="#FEFECE" filter="url(#f1uaza7d3685c7)" height="212.8008" id="src.domotix.controller.TimerGestioneRegole" style="stroke: #A80036; stroke-width: 1.5;" width="173" x="601.5" y="95.0317"/><ellipse cx="629.55" cy="111.0317" fill="#ADD1B2" rx="11" ry="11" style="stroke: #A80036; stroke-width: 1.0;"/><path d="M629.5188,117.2036 Q627.7688,117.2036 626.6281,116.4692 Q625.5031,115.7192 624.9406,114.3754 Q624.3938,113.0161 624.3938,111.2192 Q624.3938,109.1879 625.05,107.7348 Q625.7063,106.2817 626.9875,105.5004 Q628.2688,104.7192 630.1438,104.7192 Q631.0344,104.7192 631.7063,104.9067 Q632.3781,105.0786 633.0656,105.4223 L632.2531,107.4379 Q631.6281,107.1254 631.0813,107.0004 Q630.55,106.8754 630.0656,106.8754 Q628.8938,106.8754 628.1906,107.4067 Q627.4875,107.9379 627.1906,108.8911 Q626.8938,109.8442 626.8938,111.1098 Q626.8938,113.1254 627.6125,114.0942 Q628.3313,115.0473 629.925,115.0473 Q630.5188,115.0473 631.1438,114.8911 Q631.7688,114.7348 632.5969,114.3598 L632.5969,116.5786 Q631.8625,116.8911 631.0656,117.0473 Q630.2844,117.2036 629.5188,117.2036 Z "/><text fill="#000000" font-family="sans-serif" font-size="12" lengthAdjust="spacingAndGlyphs" textLength="112" x="646.45" y="115.6877">TimerGestioneRegole</text><line style="stroke: #A80036; stroke-width: 1.5;" x1="602.5" x2="773.5" y1="127.0317" y2="127.0317"/><ellipse cx="612.5" cy="138.0317" fill="none" rx="3" ry="3" style="stroke: #038048; stroke-width: 1.0;"/><text fill="#000000" font-family="sans-serif" font-size="11" lengthAdjust="spacingAndGlyphs" text-decoration="underline" textLength="98" x="621.5" y="142.7906">DEFAULT_DELAY : int</text><rect fill="none" height="6" style="stroke: #C82930; stroke-width: 1.0;" width="6" x="609.5" y="150.0136"/><text fill="#000000" font-family="sans-serif" font-size="11" lengthAdjust="spacingAndGlyphs" text-decoration="underline" textLength="147" x="621.5" y="157.7725">instance : TimerGestioneRegole</text><rect fill="none" height="6" style="stroke: #C82930; stroke-width: 1.0;" width="6" x="609.5" y="164.9955"/><text fill="#000000" font-family="sans-serif" font-size="11" lengthAdjust="spacingAndGlyphs" textLength="59" x="621.5" y="172.7544">timer : Timer</text><rect fill="none" height="6" style="stroke: #C82930; stroke-width: 1.0;" width="6" x="609.5" y="179.9774"/><text fill="#000000" font-family="sans-serif" font-size="11" lengthAdjust="spacingAndGlyphs" textLength="42" x="621.5" y="187.7363">delay : int</text><line style="stroke: #A80036; stroke-width: 1.5;" x1="602.5" x2="773.5" y1="194.9592" y2="194.9592"/><ellipse cx="612.5" cy="205.9592" fill="#84BE84" rx="3" ry="3" style="stroke: #038048; stroke-width: 1.0;"/><text fill="#000000" font-family="sans-serif" font-size="11" lengthAdjust="spacingAndGlyphs" text-decoration="underline" textLength="61" x="621.5" y="210.7182">getInstance()</text><ellipse cx="612.5" cy="220.9411" fill="#84BE84" rx="3" ry="3" style="stroke: #038048; stroke-width: 1.0;"/><text fill="#000000" font-family="sans-serif" font-size="11" lengthAdjust="spacingAndGlyphs" textLength="108" x="621.5" y="225.7">TimerGestioneRegole()</text><ellipse cx="612.5" cy="235.923" fill="#84BE84" rx="3" ry="3" style="stroke: #038048; stroke-width: 1.0;"/><text fill="#000000" font-family="sans-serif" font-size="11" lengthAdjust="spacingAndGlyphs" textLength="48" x="621.5" y="240.6819">getDelay()</text><ellipse cx="612.5" cy="250.9049" fill="#84BE84" rx="3" ry="3" style="stroke: #038048; stroke-width: 1.0;"/><text fill="#000000" font-family="sans-serif" font-size="11" lengthAdjust="spacingAndGlyphs" textLength="47" x="621.5" y="255.6638">setDelay()</text><ellipse cx="612.5" cy="265.8868" fill="#84BE84" rx="3" ry="3" style="stroke: #038048; stroke-width: 1.0;"/><text fill="#000000" font-family="sans-serif" font-size="11" lengthAdjust="spacingAndGlyphs" textLength="27" x="621.5" y="270.6457">start()</text><ellipse cx="612.5" cy="280.8687" fill="#84BE84" rx="3" ry="3" style="stroke: #038048; stroke-width: 1.0;"/><text fill="#000000" font-family="sans-serif" font-size="11" lengthAdjust="spacingAndGlyphs" textLength="26" x="621.5" y="285.6276">stop()</text><rect fill="#F24D5C" height="6" style="stroke: #C82930; stroke-width: 1.0;" width="6" x="609.5" y="292.8506"/><text fill="#000000" font-family="sans-serif" font-size="11" lengthAdjust="spacingAndGlyphs" textLength="34" x="621.5" y="300.6095">action()</text><!--MD5=[9dd4d893f06eeaae370558f9cea874e1]
class src.domotix.controller.TimerRinfrescoDati--><rect fill="#FEFECE" filter="url(#f1uaza7d3685c7)" height="212.8008" id="src.domotix.controller.TimerRinfrescoDati" style="stroke: #A80036; stroke-width: 1.5;" width="161" x="809.5" y="95.0317"/><ellipse cx="838" cy="111.0317" fill="#ADD1B2" rx="11" ry="11" style="stroke: #A80036; stroke-width: 1.0;"/><path d="M837.9688,117.2036 Q836.2188,117.2036 835.0781,116.4692 Q833.9531,115.7192 833.3906,114.3754 Q832.8438,113.0161 832.8438,111.2192 Q832.8438,109.1879 833.5,107.7348 Q834.1563,106.2817 835.4375,105.5004 Q836.7188,104.7192 838.5938,104.7192 Q839.4844,104.7192 840.1563,104.9067 Q840.8281,105.0786 841.5156,105.4223 L840.7031,107.4379 Q840.0781,107.1254 839.5313,107.0004 Q839,106.8754 838.5156,106.8754 Q837.3438,106.8754 836.6406,107.4067 Q835.9375,107.9379 835.6406,108.8911 Q835.3438,109.8442 835.3438,111.1098 Q835.3438,113.1254 836.0625,114.0942 Q836.7813,115.0473 838.375,115.0473 Q838.9688,115.0473 839.5938,114.8911 Q840.2188,114.7348 841.0469,114.3598 L841.0469,116.5786 Q840.3125,116.8911 839.5156,117.0473 Q838.7344,117.2036 837.9688,117.2036 Z "/><text fill="#000000" font-family="sans-serif" font-size="12" lengthAdjust="spacingAndGlyphs" textLength="99" x="855" y="115.6877">TimerRinfrescoDati</text><line style="stroke: #A80036; stroke-width: 1.5;" x1="810.5" x2="969.5" y1="127.0317" y2="127.0317"/><ellipse cx="820.5" cy="138.0317" fill="none" rx="3" ry="3" style="stroke: #038048; stroke-width: 1.0;"/><text fill="#000000" font-family="sans-serif" font-size="11" lengthAdjust="spacingAndGlyphs" text-decoration="underline" textLength="98" x="829.5" y="142.7906">DEFAULT_DELAY : int</text><rect fill="none" height="6" style="stroke: #C82930; stroke-width: 1.0;" width="6" x="817.5" y="150.0136"/><text fill="#000000" font-family="sans-serif" font-size="11" lengthAdjust="spacingAndGlyphs" text-decoration="underline" textLength="135" x="829.5" y="157.7725">instance : TimerRinfrescoDati</text><rect fill="none" height="6" style="stroke: #C82930; stroke-width: 1.0;" width="6" x="817.5" y="164.9955"/><text fill="#000000" font-family="sans-serif" font-size="11" lengthAdjust="spacingAndGlyphs" textLength="59" x="829.5" y="172.7544">timer : Timer</text><rect fill="none" height="6" style="stroke: #C82930; stroke-width: 1.0;" width="6" x="817.5" y="179.9774"/><text fill="#000000" font-family="sans-serif" font-size="11" lengthAdjust="spacingAndGlyphs" textLength="42" x="829.5" y="187.7363">delay : int</text><line style="stroke: #A80036; stroke-width: 1.5;" x1="810.5" x2="969.5" y1="194.9592" y2="194.9592"/><ellipse cx="820.5" cy="205.9592" fill="#84BE84" rx="3" ry="3" style="stroke: #038048; stroke-width: 1.0;"/><text fill="#000000" font-family="sans-serif" font-size="11" lengthAdjust="spacingAndGlyphs" text-decoration="underline" textLength="61" x="829.5" y="210.7182">getInstance()</text><ellipse cx="820.5" cy="220.9411" fill="#84BE84" rx="3" ry="3" style="stroke: #038048; stroke-width: 1.0;"/><text fill="#000000" font-family="sans-serif" font-size="11" lengthAdjust="spacingAndGlyphs" textLength="96" x="829.5" y="225.7">TimerRinfrescoDati()</text><ellipse cx="820.5" cy="235.923" fill="#84BE84" rx="3" ry="3" style="stroke: #038048; stroke-width: 1.0;"/><text fill="#000000" font-family="sans-serif" font-size="11" lengthAdjust="spacingAndGlyphs" textLength="48" x="829.5" y="240.6819">getDelay()</text><ellipse cx="820.5" cy="250.9049" fill="#84BE84" rx="3" ry="3" style="stroke: #038048; stroke-width: 1.0;"/><text fill="#000000" font-family="sans-serif" font-size="11" lengthAdjust="spacingAndGlyphs" textLength="47" x="829.5" y="255.6638">setDelay()</text><ellipse cx="820.5" cy="265.8868" fill="#84BE84" rx="3" ry="3" style="stroke: #038048; stroke-width: 1.0;"/><text fill="#000000" font-family="sans-serif" font-size="11" lengthAdjust="spacingAndGlyphs" textLength="27" x="829.5" y="270.6457">start()</text><ellipse cx="820.5" cy="280.8687" fill="#84BE84" rx="3" ry="3" style="stroke: #038048; stroke-width: 1.0;"/><text fill="#000000" font-family="sans-serif" font-size="11" lengthAdjust="spacingAndGlyphs" textLength="26" x="829.5" y="285.6276">stop()</text><rect fill="#F24D5C" height="6" style="stroke: #C82930; stroke-width: 1.0;" width="6" x="817.5" y="292.8506"/><text fill="#000000" font-family="sans-serif" font-size="11" lengthAdjust="spacingAndGlyphs" textLength="34" x="829.5" y="300.6095">action()</text><!--MD5=[5b1fe67943adfa4e88e480926117ac98]
class src.domotix.controller.util.StringUtil--><rect fill="#FEFECE" filter="url(#f1uaza7d3685c7)" height="48" id="src.domotix.controller.util.StringUtil" style="stroke: #A80036; stroke-width: 1.5;" width="81" x="323.5" y="375.5317"/><ellipse cx="338.5" cy="391.5317" fill="#ADD1B2" rx="11" ry="11" style="stroke: #A80036; stroke-width: 1.0;"/><path d="M338.4688,397.7036 Q336.7188,397.7036 335.5781,396.9692 Q334.4531,396.2192 333.8906,394.8754 Q333.3438,393.5161 333.3438,391.7192 Q333.3438,389.6879 334,388.2348 Q334.6563,386.7817 335.9375,386.0004 Q337.2188,385.2192 339.0938,385.2192 Q339.9844,385.2192 340.6563,385.4067 Q341.3281,385.5786 342.0156,385.9223 L341.2031,387.9379 Q340.5781,387.6254 340.0313,387.5004 Q339.5,387.3754 339.0156,387.3754 Q337.8438,387.3754 337.1406,387.9067 Q336.4375,388.4379 336.1406,389.3911 Q335.8438,390.3442 335.8438,391.6098 Q335.8438,393.6254 336.5625,394.5942 Q337.2813,395.5473 338.875,395.5473 Q339.4688,395.5473 340.0938,395.3911 Q340.7188,395.2348 341.5469,394.8598 L341.5469,397.0786 Q340.8125,397.3911 340.0156,397.5473 Q339.2344,397.7036 338.4688,397.7036 Z "/><text fill="#000000" font-family="sans-serif" font-size="12" lengthAdjust="spacingAndGlyphs" textLength="49" x="352.5" y="396.1877">StringUtil</text><line style="stroke: #A80036; stroke-width: 1.5;" x1="324.5" x2="403.5" y1="407.5317" y2="407.5317"/><line style="stroke: #A80036; stroke-width: 1.5;" x1="324.5" x2="403.5" y1="415.5317" y2="415.5317"/><polygon fill="#FFFFFF" filter="url(#f1uaza7d3685c7)" points="458.5,689.0317,585.5,689.0317,592.5,714.0996,599.5,714.0996,599.5,747.1675,458.5,747.1675,458.5,689.0317" style="stroke: #000000; stroke-width: 1.5;"/><line style="stroke: #000000; stroke-width: 1.5;" x1="458.5" x2="592.5" y1="714.0996" y2="714.0996"/><text fill="#000000" font-family="sans-serif" font-size="14" font-weight="bold" lengthAdjust="spacingAndGlyphs" textLength="121" x="462.5" y="705.9976">src.domotix.model</text><!--MD5=[64d46d3feb93ed373cb40c8e6f8ae86a]
class src.domotix.view.MenuErroreApertura--><rect fill="#FEFECE" filter="url(#f1uaza7d3685c7)" height="48" id="src.domotix.view.MenuErroreApertura" style="stroke: #A80036; stroke-width: 1.5;" width="138" x="1170" y="375.5317"/><ellipse cx="1185" cy="391.5317" fill="#ADD1B2" rx="11" ry="11" style="stroke: #A80036; stroke-width: 1.0;"/><path d="M1184.9688,397.7036 Q1183.2188,397.7036 1182.0781,396.9692 Q1180.9531,396.2192 1180.3906,394.8754 Q1179.8438,393.5161 1179.8438,391.7192 Q1179.8438,389.6879 1180.5,388.2348 Q1181.1563,386.7817 1182.4375,386.0004 Q1183.7188,385.2192 1185.5938,385.2192 Q1186.4844,385.2192 1187.1563,385.4067 Q1187.8281,385.5786 1188.5156,385.9223 L1187.7031,387.9379 Q1187.0781,387.6254 1186.5313,387.5004 Q1186,387.3754 1185.5156,387.3754 Q1184.3438,387.3754 1183.6406,387.9067 Q1182.9375,388.4379 1182.6406,389.3911 Q1182.3438,390.3442 1182.3438,391.6098 Q1182.3438,393.6254 1183.0625,394.5942 Q1183.7813,395.5473 1185.375,395.5473 Q1185.9688,395.5473 1186.5938,395.3911 Q1187.2188,395.2348 1188.0469,394.8598 L1188.0469,397.0786 Q1187.3125,397.3911 1186.5156,397.5473 Q1185.7344,397.7036 1184.9688,397.7036 Z "/><text fill="#000000" font-family="sans-serif" font-size="12" lengthAdjust="spacingAndGlyphs" textLength="106" x="1199" y="396.1877">MenuErroreApertura</text><line style="stroke: #A80036; stroke-width: 1.5;" x1="1171" x2="1307" y1="407.5317" y2="407.5317"/><line style="stroke: #A80036; stroke-width: 1.5;" x1="1171" x2="1307" y1="415.5317" y2="415.5317"/><!--MD5=[5a43ac4806d6715ee3259b6b81245646]
class src.domotix.view.MenuErroreChiusura--><rect fill="#FEFECE" filter="url(#f1uaza7d3685c7)" height="48" id="src.domotix.view.MenuErroreChiusura" style="stroke: #A80036; stroke-width: 1.5;" width="139" x="995.5" y="375.5317"/><ellipse cx="1010.5" cy="391.5317" fill="#ADD1B2" rx="11" ry="11" style="stroke: #A80036; stroke-width: 1.0;"/><path d="M1010.4688,397.7036 Q1008.7188,397.7036 1007.5781,396.9692 Q1006.4531,396.2192 1005.8906,394.8754 Q1005.3438,393.5161 1005.3438,391.7192 Q1005.3438,389.6879 1006,388.2348 Q1006.6563,386.7817 1007.9375,386.0004 Q1009.2188,385.2192 1011.0938,385.2192 Q1011.9844,385.2192 1012.6563,385.4067 Q1013.3281,385.5786 1014.0156,385.9223 L1013.2031,387.9379 Q1012.5781,387.6254 1012.0313,387.5004 Q1011.5,387.3754 1011.0156,387.3754 Q1009.8438,387.3754 1009.1406,387.9067 Q1008.4375,388.4379 1008.1406,389.3911 Q1007.8438,390.3442 1007.8438,391.6098 Q1007.8438,393.6254 1008.5625,394.5942 Q1009.2813,395.5473 1010.875,395.5473 Q1011.4688,395.5473 1012.0938,395.3911 Q1012.7188,395.2348 1013.5469,394.8598 L1013.5469,397.0786 Q1012.8125,397.3911 1012.0156,397.5473 Q1011.2344,397.7036 1010.4688,397.7036 Z "/><text fill="#000000" font-family="sans-serif" font-size="12" lengthAdjust="spacingAndGlyphs" textLength="107" x="1024.5" y="396.1877">MenuErroreChiusura</text><line style="stroke: #A80036; stroke-width: 1.5;" x1="996.5" x2="1133.5" y1="407.5317" y2="407.5317"/><line style="stroke: #A80036; stroke-width: 1.5;" x1="996.5" x2="1133.5" y1="415.5317" y2="415.5317"/><!--MD5=[201f3e31cd77252eadb42ab4f3f9311d]
link src.domotix.controller.Modificatore to src.domotix.controller.util.StringUtil--><path d="M236.1536,278.1181 C276.838,310.3169 315.7786,341.3593 320,345.5317 C327.9827,353.4218 335.9606,362.6886 342.8879,371.2969 " fill="none" id="src.domotix.controller.Modificatore-&gt;src.domotix.controller.util.StringUtil" style="stroke: #A80036; stroke-width: 1.0;"/><polygon fill="#A80036" points="346.1996,375.4609,343.7281,365.9272,343.0873,371.5476,337.4669,370.9068,346.1996,375.4609" style="stroke: #A80036; stroke-width: 1.0;"/><!--MD5=[8a38aa3df2382dc9606741a6103750ea]
link src.domotix.controller.Modificatore to src.domotix.controller.Recuperatore--><path d="M107.1084,278.2625 C92.7994,323.7727 82.6158,382.0483 100,431.5317 C106.858,451.0527 118.0695,469.8057 130.6251,486.6648 " fill="none" id="src.domotix.controller.Modificatore-&gt;src.domotix.controller.Recuperatore" style="stroke: #A80036; stroke-width: 1.0;"/><polygon fill="#A80036" points="133.8443,490.9096,131.593,481.3215,130.8229,486.9257,125.2188,486.1557,133.8443,490.9096" style="stroke: #A80036; stroke-width: 1.0;"/><!--MD5=[40f5ce1c4829b8a3d0d2add149b2b9f8]
link src.domotix.controller.Modificatore to src.domotix.controller.Verificatore--><path d="M163.7441,278.0837 C173.1689,307.2418 183.4802,339.1423 191.169,362.9294 " fill="none" id="src.domotix.controller.Modificatore-&gt;src.domotix.controller.Verificatore" style="stroke: #A80036; stroke-width: 1.0;"/><polygon fill="#A80036" points="192.7686,367.8783,193.8066,358.0843,191.2308,363.1207,186.1944,360.5448,192.7686,367.8783" style="stroke: #A80036; stroke-width: 1.0;"/><!--MD5=[1275239951ea355e4db66ad8e40c3739]
link src.domotix.controller.Modificatore to src.domotix.model--><path d="M225.4912,278.1937 C240.9311,289.3601 257.4059,299.8339 274,308.0317 C334.4513,337.8958 372.5563,298.6336 421,345.5317 C470.2316,393.1925 509.4469,600.5238 523.4536,683.5093 " fill="none" id="src.domotix.controller.Modificatore-&gt;src.domotix.model" style="stroke: #A80036; stroke-width: 1.0;"/><polygon fill="#A80036" points="524.3396,688.7926,526.7959,679.255,523.5126,683.8615,518.9061,680.5782,524.3396,688.7926" style="stroke: #A80036; stroke-width: 1.0;"/><!--MD5=[5c5898ebcda34ab65c30afcc422018f5]
link src.domotix.controller.Verificatore to src.domotix.controller.Recuperatore--><path d="M203,431.2413 C203,446.8569 203,466.4002 203,485.5084 " fill="none" id="src.domotix.controller.Verificatore-&gt;src.domotix.controller.Recuperatore" style="stroke: #A80036; stroke-width: 1.0;"/><polygon fill="#A80036" points="203,490.8827,207,481.8827,203,485.8827,199,481.8827,203,490.8827" style="stroke: #A80036; stroke-width: 1.0;"/><!--MD5=[222e76682ac9ebc370daa64111fd90f3]
link src.domotix.controller.Verificatore to src.domotix.model--><path d="M238.6397,431.4063 C257.5503,448.6658 280.9566,470.5872 301,491.0317 C362.0321,553.2851 369.2684,576.4913 432,637.0317 C449.4656,653.8872 469.9512,671.3018 487.5847,685.6444 " fill="none" id="src.domotix.controller.Verificatore-&gt;src.domotix.model" style="stroke: #A80036; stroke-width: 1.0;"/><polygon fill="#A80036" points="491.5341,688.8443,487.0594,680.0706,487.6492,685.6967,482.0232,686.2865,491.5341,688.8443" style="stroke: #A80036; stroke-width: 1.0;"/><!--MD5=[5687ef8736ca95c57867d4962220596c]
link src.domotix.controller.Recuperatore to src.domotix.model--><path d="M283.3381,608.7369 C300.4979,618.5181 318.6764,628.4254 336,637.0317 C373.9971,655.9085 417.4811,674.4155 453.543,688.9635 " fill="none" id="src.domotix.controller.Recuperatore-&gt;src.domotix.model" style="stroke: #A80036; stroke-width: 1.0;"/><polygon fill="#A80036" points="458.3542,690.8987,451.4972,683.8289,453.7154,689.0327,448.5116,691.251,458.3542,690.8987" style="stroke: #A80036; stroke-width: 1.0;"/><!--MD5=[2af20467ac6f60db69e0151dba7a30b6]
link src.domotix.controller.OperazioniIniziali to src.domotix.model--><path d="M515.1562,225.539 C527.3749,251.042 550.5134,290.1013 584,308.0317 C656.5782,346.8937 1267.2778,285.8622 1324,345.5317 C1548.5189,581.7164 843.5368,683.2109 604.9978,710.2556 " fill="none" id="src.domotix.controller.OperazioniIniziali-&gt;src.domotix.model" style="stroke: #A80036; stroke-width: 1.0;"/><polygon fill="#A80036" points="599.7945,710.8421,609.186,713.8087,604.763,710.282,608.2897,705.859,599.7945,710.8421" style="stroke: #A80036; stroke-width: 1.0;"/><!--MD5=[cc738602355c8f24d065eac3aca55f7e]
link src.domotix.controller.OperazioniIniziali to src.domotix.view.MenuErroreApertura--><path d="M515.4327,225.9057 C527.7544,251.3321 550.8536,289.956 584,308.0317 C695.057,368.5943 1031.5601,306.8572 1152,345.5317 C1170.5656,351.4933 1189.1935,362.2597 1204.422,372.6191 " fill="none" id="src.domotix.controller.OperazioniIniziali-&gt;src.domotix.view.MenuErroreApertura" style="stroke: #A80036; stroke-width: 1.0;"/><polygon fill="#A80036" points="1208.6242,375.5259,1203.4981,367.1162,1204.5121,372.6814,1198.9469,373.6955,1208.6242,375.5259" style="stroke: #A80036; stroke-width: 1.0;"/><!--MD5=[528c1a17cb7a6e88208b0974bd98c95e]
link src.domotix.controller.OperazioniFinali to src.domotix.model--><path d="M363.7368,225.9433 C377.4696,248.9242 400.2116,283.3996 426,308.0317 C448.1976,329.234 467.7326,319.5001 484,345.5317 C551.4568,453.4778 542.1511,613.668 533.9673,683.4495 " fill="none" id="src.domotix.controller.OperazioniFinali-&gt;src.domotix.model" style="stroke: #A80036; stroke-width: 1.0;"/><polygon fill="#A80036" points="533.3313,688.7167,538.3814,680.2612,533.9307,683.7528,530.4391,679.3021,533.3313,688.7167" style="stroke: #A80036; stroke-width: 1.0;"/><!--MD5=[ff44c694a190eefe228faf0fea0d8704]
link src.domotix.controller.OperazioniFinali to src.domotix.view.MenuErroreChiusura--><path d="M359.7868,225.8774 C371.4271,251.2796 393.4679,289.8829 426,308.0317 C535.1139,368.9035 869.0479,304.3186 987,345.5317 C1003.9089,351.4398 1020.5276,362.0731 1034.0514,372.3508 " fill="none" id="src.domotix.controller.OperazioniFinali-&gt;src.domotix.view.MenuErroreChiusura" style="stroke: #A80036; stroke-width: 1.0;"/><polygon fill="#A80036" points="1038.1459,375.5235,1033.4815,366.8492,1034.1935,372.4611,1028.5816,373.1731,1038.1459,375.5235" style="stroke: #A80036; stroke-width: 1.0;"/><!--MD5=[3b3f8624b21b05c588359226501b0ca1]
link src.domotix.controller.TimerGestioneRegole to src.domotix.model--><path d="M774.5479,298.3765 C780.1861,302.0174 786.0126,305.2787 792,308.0317 C1031.0619,417.9528 1452.5859,181.3778 1371,431.5317 C1335.9386,539.0348 1318.6546,580.0247 1221,637.0317 C1117.8535,697.2447 762.0539,712.7608 604.7783,716.7081 " fill="none" id="src.domotix.controller.TimerGestioneRegole-&gt;src.domotix.model" style="stroke: #A80036; stroke-width: 1.0;"/><polygon fill="#A80036" points="599.7256,716.8327,608.8215,720.6096,604.7241,716.7094,608.6242,712.612,599.7256,716.8327" style="stroke: #A80036; stroke-width: 1.0;"/><!--MD5=[cae165e9b7a0f7ea3ac02bef2f7921aa]
link src.domotix.controller.TimerRinfrescoDati to src.domotix.model--><path d="M970.6975,212.3553 C1101.3675,231.7188 1349.9364,276.8053 1402,345.5317 C1467.6526,432.1963 1345.7629,611.7616 1311,637.0317 C1254.6017,678.0291 790.019,705.1848 604.8008,714.4756 " fill="none" id="src.domotix.controller.TimerRinfrescoDati-&gt;src.domotix.model" style="stroke: #A80036; stroke-width: 1.0;"/><polygon fill="#A80036" points="599.6716,714.7319,608.86,718.2777,604.6654,714.4823,608.4607,710.2876,599.6716,714.7319" style="stroke: #A80036; stroke-width: 1.0;"/><!--MD5=[2bf5554ce22a699d4b468e7cdfe8180b]
@startuml

title __DOMOTIX > CONTROLLER's Class Diagram__\n

namespace src.domotix.controller {
    class src.domotix.controller.Modificatore {
        {static} + aggiungiRegola()
        {static} - costruisciInfoDaSensore()
        {static} - aggiungiComponenteCostanteAntecedente()
        {static} + aggiungiComponenteAntecedente()
        {static} + aggiungiOperatoreLogico()
        {static} + rimuoviRegola()
        {static} + aggiungiAzioneConseguente()
    }

    class src.domotix.controller.OperazioniFinali {

    }

    class src.domotix.controller.OperazioniIniziali {

    }

    class src.domotix.controller.Recuperatore {
        {static} + getRegoleUnita()
        {static} + isInfoNumerica()
        {static} + getAntecedentiRegoleUnita()
        {static} + isModalitaParametrica()
        {static} + getNomiParametriModalita()
        {static} + getModalitaTutte()
    }

    class src.domotix.controller.Verificatore {
        {static} + checkValiditaOperatoreLogico()
    }

    class src.domotix.controller.TimerGestioneRegole {
        {static} + DEFAULT_DELAY : int
        {static} - instance : TimerGestioneRegole
        {static} + getInstance()
        - timer : Timer
        - delay : int
        + TimerGestioneRegole()
        + getDelay()
        + setDelay()
        + start()
        + stop()
        - action()
    }

    class src.domotix.controller.TimerRinfrescoDati {
        {static} + DEFAULT_DELAY : int
        {static} - instance : TimerRinfrescoDati
        {static} + getInstance()
        - timer : Timer
        - delay : int
        + TimerRinfrescoDati()
        + getDelay()
        + setDelay()
        + start()
        + stop()
        - action()
    }

    namespace util {
        class src.domotix.controller.util.StringUtil {
        }
    }
}

namespace src.domotix.model {

}

src.domotix.controller.Modificatore - -> src.domotix.controller.util.StringUtil
src.domotix.controller.Modificatore - -> src.domotix.controller.Recuperatore
src.domotix.controller.Modificatore - -> src.domotix.controller.Verificatore
src.domotix.controller.Modificatore - -> src.domotix.model

src.domotix.controller.Verificatore - -> src.domotix.controller.Recuperatore
src.domotix.controller.Verificatore - -> src.domotix.model

src.domotix.controller.Recuperatore - -> src.domotix.model

src.domotix.controller.OperazioniIniziali - -> src.domotix.model
src.domotix.controller.OperazioniIniziali - -> src.domotix.view.MenuErroreApertura

src.domotix.controller.OperazioniFinali - -> src.domotix.model
src.domotix.controller.OperazioniFinali - -> src.domotix.view.MenuErroreChiusura

src.domotix.controller.TimerGestioneRegole - -> src.domotix.model
src.domotix.controller.TimerRinfrescoDati - -> src.domotix.model

@enduml

PlantUML version 1.2019.11(Sun Sep 22 12:02:15 CEST 2019)
(GPL source distribution)
Java Runtime: OpenJDK Runtime Environment
JVM: OpenJDK 64-Bit Server VM
Java Version: 11.0.3+12-b304.10
Operating System: Linux
Default Encoding: UTF-8
Language: it
Country: IT
--></g></svg>