<?xml version="1.0" encoding="UTF-8" standalone="no"?><svg xmlns="http://www.w3.org/2000/svg" xmlns:xlink="http://www.w3.org/1999/xlink" contentScriptType="application/ecmascript" contentStyleType="text/css" height="1111px" preserveAspectRatio="none" style="width:1389px;height:1111px;" version="1.1" viewBox="0 0 1389 1111" width="1389px" zoomAndPan="magnify"><defs><filter height="300%" id="f15g1xq50ds11o" width="300%" x="-1" y="-1"><feGaussianBlur result="blurOut" stdDeviation="2.0"/><feColorMatrix in="blurOut" result="blurOut2" type="matrix" values="0 0 0 0 0 0 0 0 0 0 0 0 0 0 0 0 0 0 .4 0"/><feOffset dx="4.0" dy="4.0" in="blurOut2" result="blurOut3"/><feBlend in="SourceGraphic" in2="blurOut3" mode="normal"/></filter></defs><g><text fill="#000000" font-family="sans-serif" font-size="18" lengthAdjust="spacingAndGlyphs" text-decoration="underline" textLength="345" x="525" y="19.2419">DOMOTIX &gt; CONTROLLER's Class Diagram</text><text fill="#000000" font-family="sans-serif" font-size="18" lengthAdjust="spacingAndGlyphs" textLength="0" x="699.5" y="43.7577"/><!--MD5=[e3c3ae39643e55df7c1a0329eec479c9]
cluster src.domotix.controller--><polygon fill="#FFFFFF" filter="url(#f15g1xq50ds11o)" points="14,65.0317,166,65.0317,173,90.0996,853,90.0996,853,988.0317,14,988.0317,14,65.0317" style="stroke: #000000; stroke-width: 1.5;"/><line style="stroke: #000000; stroke-width: 1.5;" x1="14" x2="173" y1="90.0996" y2="90.0996"/><text fill="#000000" font-family="sans-serif" font-size="14" font-weight="bold" lengthAdjust="spacingAndGlyphs" textLength="146" x="18" y="81.9976">src.domotix.controller</text><!--MD5=[a8727cba488ea6626f091f9c58f14192]
cluster src.domotix.controller.util--><polygon fill="#FFFFFF" filter="url(#f15g1xq50ds11o)" points="247,448.5317,276,448.5317,283,473.5996,564,473.5996,564,609.5317,247,609.5317,247,448.5317" style="stroke: #000000; stroke-width: 1.5;"/><line style="stroke: #000000; stroke-width: 1.5;" x1="247" x2="283" y1="473.5996" y2="473.5996"/><text fill="#000000" font-family="sans-serif" font-size="14" font-weight="bold" lengthAdjust="spacingAndGlyphs" textLength="23" x="251" y="465.4976">util</text><!--MD5=[8e0e0f0c97ec05372c8c81240809cf06]
cluster src.domotix.view--><polygon fill="#FFFFFF" filter="url(#f15g1xq50ds11o)" points="861,272.0317,977,272.0317,984,297.0996,1190,297.0996,1190,358.0317,861,358.0317,861,272.0317" style="stroke: #000000; stroke-width: 1.5;"/><line style="stroke: #000000; stroke-width: 1.5;" x1="861" x2="984" y1="297.0996" y2="297.0996"/><text fill="#000000" font-family="sans-serif" font-size="14" font-weight="bold" lengthAdjust="spacingAndGlyphs" textLength="110" x="865" y="288.9976">src.domotix.view</text><!--MD5=[b71e28d46693838dc5614a2818178488]
class src.domotix.controller.Modificatore--><rect fill="#FEFECE" filter="url(#f15g1xq50ds11o)" height="137.8913" id="src.domotix.controller.Modificatore" style="stroke: #A80036; stroke-width: 1.5;" width="166" x="22" y="95.0317"/><ellipse cx="67.75" cy="111.0317" fill="#ADD1B2" rx="11" ry="11" style="stroke: #A80036; stroke-width: 1.0;"/><path d="M67.7188,117.2036 Q65.9688,117.2036 64.8281,116.4692 Q63.7031,115.7192 63.1406,114.3754 Q62.5938,113.0161 62.5938,111.2192 Q62.5938,109.1879 63.25,107.7348 Q63.9063,106.2817 65.1875,105.5004 Q66.4688,104.7192 68.3438,104.7192 Q69.2344,104.7192 69.9063,104.9067 Q70.5781,105.0786 71.2656,105.4223 L70.4531,107.4379 Q69.8281,107.1254 69.2813,107.0004 Q68.75,106.8754 68.2656,106.8754 Q67.0938,106.8754 66.3906,107.4067 Q65.6875,107.9379 65.3906,108.8911 Q65.0938,109.8442 65.0938,111.1098 Q65.0938,113.1254 65.8125,114.0942 Q66.5313,115.0473 68.125,115.0473 Q68.7188,115.0473 69.3438,114.8911 Q69.9688,114.7348 70.7969,114.3598 L70.7969,116.5786 Q70.0625,116.8911 69.2656,117.0473 Q68.4844,117.2036 67.7188,117.2036 Z "/><text fill="#000000" font-family="sans-serif" font-size="12" lengthAdjust="spacingAndGlyphs" textLength="66" x="88.25" y="115.6877">Modificatore</text><line style="stroke: #A80036; stroke-width: 1.5;" x1="23" x2="187" y1="127.0317" y2="127.0317"/><line style="stroke: #A80036; stroke-width: 1.5;" x1="23" x2="187" y1="135.0317" y2="135.0317"/><ellipse cx="33" cy="146.0317" fill="#84BE84" rx="3" ry="3" style="stroke: #038048; stroke-width: 1.0;"/><text fill="#000000" font-family="sans-serif" font-size="11" lengthAdjust="spacingAndGlyphs" text-decoration="underline" textLength="140" x="42" y="150.7906">aggiungiAzioneConseguente()</text><ellipse cx="33" cy="161.0136" fill="#84BE84" rx="3" ry="3" style="stroke: #038048; stroke-width: 1.0;"/><text fill="#000000" font-family="sans-serif" font-size="11" lengthAdjust="spacingAndGlyphs" text-decoration="underline" textLength="140" x="42" y="165.7725">aggiungiAzioneConseguente()</text><ellipse cx="33" cy="175.9955" fill="#84BE84" rx="3" ry="3" style="stroke: #038048; stroke-width: 1.0;"/><text fill="#000000" font-family="sans-serif" font-size="11" lengthAdjust="spacingAndGlyphs" text-decoration="underline" textLength="104" x="42" y="180.7544">cambiaStatoSensore()</text><ellipse cx="33" cy="190.9774" fill="#84BE84" rx="3" ry="3" style="stroke: #038048; stroke-width: 1.0;"/><text fill="#000000" font-family="sans-serif" font-size="11" lengthAdjust="spacingAndGlyphs" text-decoration="underline" textLength="109" x="42" y="195.7363">cambiaStatoAttuatore()</text><ellipse cx="33" cy="205.9592" fill="#84BE84" rx="3" ry="3" style="stroke: #038048; stroke-width: 1.0;"/><text fill="#000000" font-family="sans-serif" font-size="11" lengthAdjust="spacingAndGlyphs" text-decoration="underline" textLength="97" x="42" y="210.7182">cambioStatoRegola()</text><ellipse cx="33" cy="220.9411" fill="#84BE84" rx="3" ry="3" style="stroke: #038048; stroke-width: 1.0;"/><text fill="#000000" font-family="sans-serif" font-size="11" lengthAdjust="spacingAndGlyphs" text-decoration="underline" textLength="140" x="42" y="225.7">rimuoviAzioneProgrammata()</text><!--MD5=[0762cb38a47bd56911b261b0ac435b54]
class src.domotix.controller.OperazioniFinali--><rect fill="#FEFECE" filter="url(#f15g1xq50ds11o)" height="48" id="src.domotix.controller.OperazioniFinali" style="stroke: #A80036; stroke-width: 1.5;" width="117" x="223.5" y="140.0317"/><ellipse cx="238.5" cy="156.0317" fill="#ADD1B2" rx="11" ry="11" style="stroke: #A80036; stroke-width: 1.0;"/><path d="M238.4688,162.2036 Q236.7188,162.2036 235.5781,161.4692 Q234.4531,160.7192 233.8906,159.3754 Q233.3438,158.0161 233.3438,156.2192 Q233.3438,154.1879 234,152.7348 Q234.6563,151.2817 235.9375,150.5004 Q237.2188,149.7192 239.0938,149.7192 Q239.9844,149.7192 240.6563,149.9067 Q241.3281,150.0786 242.0156,150.4223 L241.2031,152.4379 Q240.5781,152.1254 240.0313,152.0004 Q239.5,151.8754 239.0156,151.8754 Q237.8438,151.8754 237.1406,152.4067 Q236.4375,152.9379 236.1406,153.8911 Q235.8438,154.8442 235.8438,156.1098 Q235.8438,158.1254 236.5625,159.0942 Q237.2813,160.0473 238.875,160.0473 Q239.4688,160.0473 240.0938,159.8911 Q240.7188,159.7348 241.5469,159.3598 L241.5469,161.5786 Q240.8125,161.8911 240.0156,162.0473 Q239.2344,162.2036 238.4688,162.2036 Z "/><text fill="#000000" font-family="sans-serif" font-size="12" lengthAdjust="spacingAndGlyphs" textLength="85" x="252.5" y="160.6877">OperazioniFinali</text><line style="stroke: #A80036; stroke-width: 1.5;" x1="224.5" x2="339.5" y1="172.0317" y2="172.0317"/><line style="stroke: #A80036; stroke-width: 1.5;" x1="224.5" x2="339.5" y1="180.0317" y2="180.0317"/><!--MD5=[1ddd180088a80c3f21304f5ea42348e6]
class src.domotix.controller.OperazioniIniziali--><rect fill="#FEFECE" filter="url(#f15g1xq50ds11o)" height="48" id="src.domotix.controller.OperazioniIniziali" style="stroke: #A80036; stroke-width: 1.5;" width="123" x="375.5" y="140.0317"/><ellipse cx="390.5" cy="156.0317" fill="#ADD1B2" rx="11" ry="11" style="stroke: #A80036; stroke-width: 1.0;"/><path d="M390.4688,162.2036 Q388.7188,162.2036 387.5781,161.4692 Q386.4531,160.7192 385.8906,159.3754 Q385.3438,158.0161 385.3438,156.2192 Q385.3438,154.1879 386,152.7348 Q386.6563,151.2817 387.9375,150.5004 Q389.2188,149.7192 391.0938,149.7192 Q391.9844,149.7192 392.6563,149.9067 Q393.3281,150.0786 394.0156,150.4223 L393.2031,152.4379 Q392.5781,152.1254 392.0313,152.0004 Q391.5,151.8754 391.0156,151.8754 Q389.8438,151.8754 389.1406,152.4067 Q388.4375,152.9379 388.1406,153.8911 Q387.8438,154.8442 387.8438,156.1098 Q387.8438,158.1254 388.5625,159.0942 Q389.2813,160.0473 390.875,160.0473 Q391.4688,160.0473 392.0938,159.8911 Q392.7188,159.7348 393.5469,159.3598 L393.5469,161.5786 Q392.8125,161.8911 392.0156,162.0473 Q391.2344,162.2036 390.4688,162.2036 Z "/><text fill="#000000" font-family="sans-serif" font-size="12" lengthAdjust="spacingAndGlyphs" textLength="91" x="404.5" y="160.6877">OperazioniIniziali</text><line style="stroke: #A80036; stroke-width: 1.5;" x1="376.5" x2="497.5" y1="172.0317" y2="172.0317"/><line style="stroke: #A80036; stroke-width: 1.5;" x1="376.5" x2="497.5" y1="180.0317" y2="180.0317"/><!--MD5=[19e62dc1491eac9c9a34efd24892529b]
class src.domotix.controller.Recuperatore--><rect fill="#FEFECE" filter="url(#f15g1xq50ds11o)" height="122.9094" id="src.domotix.controller.Recuperatore" style="stroke: #A80036; stroke-width: 1.5;" width="201" x="46.5" y="857.0317"/><ellipse cx="108.25" cy="873.0317" fill="#ADD1B2" rx="11" ry="11" style="stroke: #A80036; stroke-width: 1.0;"/><path d="M108.2188,879.2036 Q106.4688,879.2036 105.3281,878.4692 Q104.2031,877.7192 103.6406,876.3754 Q103.0938,875.0161 103.0938,873.2192 Q103.0938,871.1879 103.75,869.7348 Q104.4063,868.2817 105.6875,867.5004 Q106.9688,866.7192 108.8438,866.7192 Q109.7344,866.7192 110.4063,866.9067 Q111.0781,867.0786 111.7656,867.4223 L110.9531,869.4379 Q110.3281,869.1254 109.7813,869.0004 Q109.25,868.8754 108.7656,868.8754 Q107.5938,868.8754 106.8906,869.4067 Q106.1875,869.9379 105.8906,870.8911 Q105.5938,871.8442 105.5938,873.1098 Q105.5938,875.1254 106.3125,876.0942 Q107.0313,877.0473 108.625,877.0473 Q109.2188,877.0473 109.8438,876.8911 Q110.4688,876.7348 111.2969,876.3598 L111.2969,878.5786 Q110.5625,878.8911 109.7656,879.0473 Q108.9844,879.2036 108.2188,879.2036 Z "/><text fill="#000000" font-family="sans-serif" font-size="12" lengthAdjust="spacingAndGlyphs" textLength="69" x="128.75" y="877.6877">Recuperatore</text><line style="stroke: #A80036; stroke-width: 1.5;" x1="47.5" x2="246.5" y1="889.0317" y2="889.0317"/><line style="stroke: #A80036; stroke-width: 1.5;" x1="47.5" x2="246.5" y1="897.0317" y2="897.0317"/><polygon fill="#4177AF" points="57.5,904.0317,53.5,910.0317,61.5,910.0317" style="stroke: #1963A0; stroke-width: 1.0;"/><text fill="#000000" font-family="sans-serif" font-size="11" lengthAdjust="spacingAndGlyphs" text-decoration="underline" textLength="120" x="66.5" y="912.7906">getAzioneProgrammata()</text><polygon fill="#4177AF" points="57.5,919.0136,53.5,925.0136,61.5,925.0136" style="stroke: #1963A0; stroke-width: 1.0;"/><text fill="#000000" font-family="sans-serif" font-size="11" lengthAdjust="spacingAndGlyphs" text-decoration="underline" textLength="116" x="66.5" y="927.7725">getAzioniProgrammate()</text><ellipse cx="57.5" cy="937.9955" fill="#84BE84" rx="3" ry="3" style="stroke: #038048; stroke-width: 1.0;"/><text fill="#000000" font-family="sans-serif" font-size="11" lengthAdjust="spacingAndGlyphs" text-decoration="underline" textLength="163" x="66.5" y="942.7544">getAntecentiRegoleAttiveDisattive()</text><ellipse cx="57.5" cy="952.9774" fill="#84BE84" rx="3" ry="3" style="stroke: #038048; stroke-width: 1.0;"/><text fill="#000000" font-family="sans-serif" font-size="11" lengthAdjust="spacingAndGlyphs" text-decoration="underline" textLength="175" x="66.5" y="957.7363">getDescrizioneAzioneProgrammata()</text><ellipse cx="57.5" cy="967.9592" fill="#84BE84" rx="3" ry="3" style="stroke: #038048; stroke-width: 1.0;"/><text fill="#000000" font-family="sans-serif" font-size="11" lengthAdjust="spacingAndGlyphs" text-decoration="underline" textLength="167" x="66.5" y="972.7182">getDescrizioniAzioniProgrammate()</text><!--MD5=[906e05901960a554719547f36ce431c6]
class src.domotix.controller.Verificatore--><rect fill="#FEFECE" filter="url(#f15g1xq50ds11o)" height="77.9638" id="src.domotix.controller.Verificatore" style="stroke: #A80036; stroke-width: 1.5;" width="146" x="74" y="501.0317"/><ellipse cx="113.75" cy="517.0317" fill="#ADD1B2" rx="11" ry="11" style="stroke: #A80036; stroke-width: 1.0;"/><path d="M113.7188,523.2036 Q111.9688,523.2036 110.8281,522.4692 Q109.7031,521.7192 109.1406,520.3754 Q108.5938,519.0161 108.5938,517.2192 Q108.5938,515.1879 109.25,513.7348 Q109.9063,512.2817 111.1875,511.5004 Q112.4688,510.7192 114.3438,510.7192 Q115.2344,510.7192 115.9063,510.9067 Q116.5781,511.0786 117.2656,511.4223 L116.4531,513.4379 Q115.8281,513.1254 115.2813,513.0004 Q114.75,512.8754 114.2656,512.8754 Q113.0938,512.8754 112.3906,513.4067 Q111.6875,513.9379 111.3906,514.8911 Q111.0938,515.8442 111.0938,517.1098 Q111.0938,519.1254 111.8125,520.0942 Q112.5313,521.0473 114.125,521.0473 Q114.7188,521.0473 115.3438,520.8911 Q115.9688,520.7348 116.7969,520.3598 L116.7969,522.5786 Q116.0625,522.8911 115.2656,523.0473 Q114.4844,523.2036 113.7188,523.2036 Z "/><text fill="#000000" font-family="sans-serif" font-size="12" lengthAdjust="spacingAndGlyphs" textLength="59" x="133.25" y="521.6877">Verificatore</text><line style="stroke: #A80036; stroke-width: 1.5;" x1="75" x2="219" y1="533.0317" y2="533.0317"/><line style="stroke: #A80036; stroke-width: 1.5;" x1="75" x2="219" y1="541.0317" y2="541.0317"/><ellipse cx="85" cy="552.0317" fill="#84BE84" rx="3" ry="3" style="stroke: #038048; stroke-width: 1.0;"/><text fill="#000000" font-family="sans-serif" font-size="11" lengthAdjust="spacingAndGlyphs" text-decoration="underline" textLength="96" x="94" y="556.7906">checkValiditaOrario()</text><ellipse cx="85" cy="567.0136" fill="#84BE84" rx="3" ry="3" style="stroke: #038048; stroke-width: 1.0;"/><text fill="#000000" font-family="sans-serif" font-size="11" lengthAdjust="spacingAndGlyphs" text-decoration="underline" textLength="120" x="94" y="571.7725">checkIsSensoreOrologio()</text><!--MD5=[f810c510c7031853d87759381cafdb98]
class src.domotix.controller.TimerGestioneRegole--><rect fill="#FEFECE" filter="url(#f15g1xq50ds11o)" height="48" id="src.domotix.controller.TimerGestioneRegole" style="stroke: #A80036; stroke-width: 1.5;" width="144" x="534" y="140.0317"/><ellipse cx="549" cy="156.0317" fill="#ADD1B2" rx="11" ry="11" style="stroke: #A80036; stroke-width: 1.0;"/><path d="M548.9688,162.2036 Q547.2188,162.2036 546.0781,161.4692 Q544.9531,160.7192 544.3906,159.3754 Q543.8438,158.0161 543.8438,156.2192 Q543.8438,154.1879 544.5,152.7348 Q545.1563,151.2817 546.4375,150.5004 Q547.7188,149.7192 549.5938,149.7192 Q550.4844,149.7192 551.1563,149.9067 Q551.8281,150.0786 552.5156,150.4223 L551.7031,152.4379 Q551.0781,152.1254 550.5313,152.0004 Q550,151.8754 549.5156,151.8754 Q548.3438,151.8754 547.6406,152.4067 Q546.9375,152.9379 546.6406,153.8911 Q546.3438,154.8442 546.3438,156.1098 Q546.3438,158.1254 547.0625,159.0942 Q547.7813,160.0473 549.375,160.0473 Q549.9688,160.0473 550.5938,159.8911 Q551.2188,159.7348 552.0469,159.3598 L552.0469,161.5786 Q551.3125,161.8911 550.5156,162.0473 Q549.7344,162.2036 548.9688,162.2036 Z "/><text fill="#000000" font-family="sans-serif" font-size="12" lengthAdjust="spacingAndGlyphs" textLength="112" x="563" y="160.6877">TimerGestioneRegole</text><line style="stroke: #A80036; stroke-width: 1.5;" x1="535" x2="677" y1="172.0317" y2="172.0317"/><line style="stroke: #A80036; stroke-width: 1.5;" x1="535" x2="677" y1="180.0317" y2="180.0317"/><!--MD5=[9dd4d893f06eeaae370558f9cea874e1]
class src.domotix.controller.TimerRinfrescoDati--><rect fill="#FEFECE" filter="url(#f15g1xq50ds11o)" height="48" id="src.domotix.controller.TimerRinfrescoDati" style="stroke: #A80036; stroke-width: 1.5;" width="131" x="713.5" y="140.0317"/><ellipse cx="728.5" cy="156.0317" fill="#ADD1B2" rx="11" ry="11" style="stroke: #A80036; stroke-width: 1.0;"/><path d="M728.4688,162.2036 Q726.7188,162.2036 725.5781,161.4692 Q724.4531,160.7192 723.8906,159.3754 Q723.3438,158.0161 723.3438,156.2192 Q723.3438,154.1879 724,152.7348 Q724.6563,151.2817 725.9375,150.5004 Q727.2188,149.7192 729.0938,149.7192 Q729.9844,149.7192 730.6563,149.9067 Q731.3281,150.0786 732.0156,150.4223 L731.2031,152.4379 Q730.5781,152.1254 730.0313,152.0004 Q729.5,151.8754 729.0156,151.8754 Q727.8438,151.8754 727.1406,152.4067 Q726.4375,152.9379 726.1406,153.8911 Q725.8438,154.8442 725.8438,156.1098 Q725.8438,158.1254 726.5625,159.0942 Q727.2813,160.0473 728.875,160.0473 Q729.4688,160.0473 730.0938,159.8911 Q730.7188,159.7348 731.5469,159.3598 L731.5469,161.5786 Q730.8125,161.8911 730.0156,162.0473 Q729.2344,162.2036 728.4688,162.2036 Z "/><text fill="#000000" font-family="sans-serif" font-size="12" lengthAdjust="spacingAndGlyphs" textLength="99" x="742.5" y="160.6877">TimerRinfrescoDati</text><line style="stroke: #A80036; stroke-width: 1.5;" x1="714.5" x2="843.5" y1="172.0317" y2="172.0317"/><line style="stroke: #A80036; stroke-width: 1.5;" x1="714.5" x2="843.5" y1="180.0317" y2="180.0317"/><!--MD5=[73a1c6930679f2f68b4ce1ad561192c8]
class src.domotix.controller.TimerAzioniProgrammate--><rect fill="#FEFECE" filter="url(#f15g1xq50ds11o)" height="257.7464" id="src.domotix.controller.TimerAzioniProgrammate" style="stroke: #A80036; stroke-width: 1.5;" width="194" x="651" y="411.0317"/><ellipse cx="678.15" cy="427.0317" fill="#ADD1B2" rx="11" ry="11" style="stroke: #A80036; stroke-width: 1.0;"/><path d="M678.1188,433.2036 Q676.3688,433.2036 675.2281,432.4692 Q674.1031,431.7192 673.5406,430.3754 Q672.9938,429.0161 672.9938,427.2192 Q672.9938,425.1879 673.65,423.7348 Q674.3063,422.2817 675.5875,421.5004 Q676.8688,420.7192 678.7438,420.7192 Q679.6344,420.7192 680.3063,420.9067 Q680.9781,421.0786 681.6656,421.4223 L680.8531,423.4379 Q680.2281,423.1254 679.6813,423.0004 Q679.15,422.8754 678.6656,422.8754 Q677.4938,422.8754 676.7906,423.4067 Q676.0875,423.9379 675.7906,424.8911 Q675.4938,425.8442 675.4938,427.1098 Q675.4938,429.1254 676.2125,430.0942 Q676.9313,431.0473 678.525,431.0473 Q679.1188,431.0473 679.7438,430.8911 Q680.3688,430.7348 681.1969,430.3598 L681.1969,432.5786 Q680.4625,432.8911 679.6656,433.0473 Q678.8844,433.2036 678.1188,433.2036 Z "/><text fill="#000000" font-family="sans-serif" font-size="12" lengthAdjust="spacingAndGlyphs" textLength="135" x="694.85" y="431.6877">TimerAzioniProgrammate</text><line style="stroke: #A80036; stroke-width: 1.5;" x1="652" x2="844" y1="443.0317" y2="443.0317"/><ellipse cx="662" cy="454.0317" fill="none" rx="3" ry="3" style="stroke: #038048; stroke-width: 1.0;"/><text fill="#000000" font-family="sans-serif" font-size="11" lengthAdjust="spacingAndGlyphs" text-decoration="underline" textLength="98" x="671" y="458.7906">DEFAULT_DELAY : int</text><rect fill="none" height="6" style="stroke: #C82930; stroke-width: 1.0;" width="6" x="659" y="466.0136"/><text fill="#000000" font-family="sans-serif" font-size="11" lengthAdjust="spacingAndGlyphs" text-decoration="underline" textLength="168" x="671" y="473.7725">instance : TimerAzioniProgrammate</text><rect fill="none" height="6" style="stroke: #C82930; stroke-width: 1.0;" width="6" x="659" y="480.9955"/><text fill="#000000" font-family="sans-serif" font-size="11" lengthAdjust="spacingAndGlyphs" textLength="59" x="671" y="488.7544">timer : Timer</text><rect fill="none" height="6" style="stroke: #C82930; stroke-width: 1.0;" width="6" x="659" y="495.9774"/><text fill="#000000" font-family="sans-serif" font-size="11" lengthAdjust="spacingAndGlyphs" textLength="87" x="671" y="503.7363">timerAzioni : Timer</text><rect fill="none" height="6" style="stroke: #C82930; stroke-width: 1.0;" width="6" x="659" y="510.9592"/><text fill="#000000" font-family="sans-serif" font-size="11" lengthAdjust="spacingAndGlyphs" textLength="42" x="671" y="518.7182">delay : int</text><rect fill="none" height="6" style="stroke: #C82930; stroke-width: 1.0;" width="6" x="659" y="525.9411"/><text fill="#000000" font-family="sans-serif" font-size="11" lengthAdjust="spacingAndGlyphs" textLength="144" x="671" y="533.7">taskControlloAzioni : TimerTask</text><rect fill="none" height="6" style="stroke: #C82930; stroke-width: 1.0;" width="6" x="659" y="540.923"/><text fill="#000000" font-family="sans-serif" font-size="11" lengthAdjust="spacingAndGlyphs" textLength="160" x="671" y="548.6819">azioniPianificate : ArrayList&lt;String&gt;</text><line style="stroke: #A80036; stroke-width: 1.5;" x1="652" x2="844" y1="555.9049" y2="555.9049"/><ellipse cx="662" cy="566.9049" fill="#84BE84" rx="3" ry="3" style="stroke: #038048; stroke-width: 1.0;"/><text fill="#000000" font-family="sans-serif" font-size="11" lengthAdjust="spacingAndGlyphs" text-decoration="underline" textLength="61" x="671" y="571.6638">getInstance()</text><ellipse cx="662" cy="581.8868" fill="#84BE84" rx="3" ry="3" style="stroke: #038048; stroke-width: 1.0;"/><text fill="#000000" font-family="sans-serif" font-size="11" lengthAdjust="spacingAndGlyphs" textLength="129" x="671" y="586.6457">TimerAzioniProgrammate()</text><ellipse cx="662" cy="596.8687" fill="#84BE84" rx="3" ry="3" style="stroke: #038048; stroke-width: 1.0;"/><text fill="#000000" font-family="sans-serif" font-size="11" lengthAdjust="spacingAndGlyphs" textLength="48" x="671" y="601.6276">getDelay()</text><ellipse cx="662" cy="611.8506" fill="#84BE84" rx="3" ry="3" style="stroke: #038048; stroke-width: 1.0;"/><text fill="#000000" font-family="sans-serif" font-size="11" lengthAdjust="spacingAndGlyphs" textLength="47" x="671" y="616.6095">setDelay()</text><ellipse cx="662" cy="626.8325" fill="#84BE84" rx="3" ry="3" style="stroke: #038048; stroke-width: 1.0;"/><text fill="#000000" font-family="sans-serif" font-size="11" lengthAdjust="spacingAndGlyphs" textLength="27" x="671" y="631.5914">start()</text><ellipse cx="662" cy="641.8143" fill="#84BE84" rx="3" ry="3" style="stroke: #038048; stroke-width: 1.0;"/><text fill="#000000" font-family="sans-serif" font-size="11" lengthAdjust="spacingAndGlyphs" textLength="26" x="671" y="646.5733">stop()</text><ellipse cx="662" cy="656.7962" fill="#84BE84" rx="3" ry="3" style="stroke: #038048; stroke-width: 1.0;"/><text fill="#000000" font-family="sans-serif" font-size="11" lengthAdjust="spacingAndGlyphs" textLength="50" x="671" y="661.5551">consume()</text><!--MD5=[5b1fe67943adfa4e88e480926117ac98]
class src.domotix.controller.util.StringUtil--><rect fill="#FEFECE" filter="url(#f15g1xq50ds11o)" height="48" id="src.domotix.controller.util.StringUtil" style="stroke: #A80036; stroke-width: 1.5;" width="81" x="255.5" y="516.0317"/><ellipse cx="270.5" cy="532.0317" fill="#ADD1B2" rx="11" ry="11" style="stroke: #A80036; stroke-width: 1.0;"/><path d="M270.4688,538.2036 Q268.7188,538.2036 267.5781,537.4692 Q266.4531,536.7192 265.8906,535.3754 Q265.3438,534.0161 265.3438,532.2192 Q265.3438,530.1879 266,528.7348 Q266.6563,527.2817 267.9375,526.5004 Q269.2188,525.7192 271.0938,525.7192 Q271.9844,525.7192 272.6563,525.9067 Q273.3281,526.0786 274.0156,526.4223 L273.2031,528.4379 Q272.5781,528.1254 272.0313,528.0004 Q271.5,527.8754 271.0156,527.8754 Q269.8438,527.8754 269.1406,528.4067 Q268.4375,528.9379 268.1406,529.8911 Q267.8438,530.8442 267.8438,532.1098 Q267.8438,534.1254 268.5625,535.0942 Q269.2813,536.0473 270.875,536.0473 Q271.4688,536.0473 272.0938,535.8911 Q272.7188,535.7348 273.5469,535.3598 L273.5469,537.5786 Q272.8125,537.8911 272.0156,538.0473 Q271.2344,538.2036 270.4688,538.2036 Z "/><text fill="#000000" font-family="sans-serif" font-size="12" lengthAdjust="spacingAndGlyphs" textLength="49" x="284.5" y="536.6877">StringUtil</text><line style="stroke: #A80036; stroke-width: 1.5;" x1="256.5" x2="335.5" y1="548.0317" y2="548.0317"/><line style="stroke: #A80036; stroke-width: 1.5;" x1="256.5" x2="335.5" y1="556.0317" y2="556.0317"/><!--MD5=[7df8c4c2e8eb406e0ff213ca9597c6bf]
class src.domotix.controller.util.TimerTaskAzione--><rect fill="#FEFECE" filter="url(#f15g1xq50ds11o)" height="122.9094" id="src.domotix.controller.util.TimerTaskAzione" style="stroke: #A80036; stroke-width: 1.5;" width="185" x="371.5" y="478.5317"/><ellipse cx="415.75" cy="494.5317" fill="#ADD1B2" rx="11" ry="11" style="stroke: #A80036; stroke-width: 1.0;"/><path d="M415.7188,500.7036 Q413.9688,500.7036 412.8281,499.9692 Q411.7031,499.2192 411.1406,497.8754 Q410.5938,496.5161 410.5938,494.7192 Q410.5938,492.6879 411.25,491.2348 Q411.9063,489.7817 413.1875,489.0004 Q414.4688,488.2192 416.3438,488.2192 Q417.2344,488.2192 417.9063,488.4067 Q418.5781,488.5786 419.2656,488.9223 L418.4531,490.9379 Q417.8281,490.6254 417.2813,490.5004 Q416.75,490.3754 416.2656,490.3754 Q415.0938,490.3754 414.3906,490.9067 Q413.6875,491.4379 413.3906,492.3911 Q413.0938,493.3442 413.0938,494.6098 Q413.0938,496.6254 413.8125,497.5942 Q414.5313,498.5473 416.125,498.5473 Q416.7188,498.5473 417.3438,498.3911 Q417.9688,498.2348 418.7969,497.8598 L418.7969,500.0786 Q418.0625,500.3911 417.2656,500.5473 Q416.4844,500.7036 415.7188,500.7036 Z "/><text fill="#000000" font-family="sans-serif" font-size="12" lengthAdjust="spacingAndGlyphs" textLength="88" x="436.25" y="499.1877">TimerTaskAzione</text><line style="stroke: #A80036; stroke-width: 1.5;" x1="372.5" x2="555.5" y1="510.5317" y2="510.5317"/><rect fill="none" height="6" style="stroke: #C82930; stroke-width: 1.0;" width="6" x="379.5" y="518.5317"/><text fill="#000000" font-family="sans-serif" font-size="11" lengthAdjust="spacingAndGlyphs" textLength="73" x="391.5" y="526.2906">idAzione : String</text><rect fill="none" height="6" style="stroke: #C82930; stroke-width: 1.0;" width="6" x="379.5" y="533.5136"/><text fill="#000000" font-family="sans-serif" font-size="11" lengthAdjust="spacingAndGlyphs" textLength="69" x="391.5" y="541.2725">azione : Azione</text><rect fill="none" height="6" style="stroke: #C82930; stroke-width: 1.0;" width="6" x="379.5" y="548.4955"/><text fill="#000000" font-family="sans-serif" font-size="11" lengthAdjust="spacingAndGlyphs" textLength="159" x="391.5" y="556.2544">owner : TimerAzioniProgrammate</text><line style="stroke: #A80036; stroke-width: 1.5;" x1="372.5" x2="555.5" y1="563.4774" y2="563.4774"/><ellipse cx="382.5" cy="574.4774" fill="#84BE84" rx="3" ry="3" style="stroke: #038048; stroke-width: 1.0;"/><text fill="#000000" font-family="sans-serif" font-size="11" lengthAdjust="spacingAndGlyphs" textLength="88" x="391.5" y="579.2363">TimerTaskAzione()</text><ellipse cx="382.5" cy="589.4592" fill="#84BE84" rx="3" ry="3" style="stroke: #038048; stroke-width: 1.0;"/><text fill="#000000" font-family="sans-serif" font-size="11" lengthAdjust="spacingAndGlyphs" textLength="22" x="391.5" y="594.2182">run()</text><polygon fill="#FFFFFF" filter="url(#f15g1xq50ds11o)" points="1035.5,1041.0317,1162.5,1041.0317,1169.5,1066.0996,1176.5,1066.0996,1176.5,1099.1675,1035.5,1099.1675,1035.5,1041.0317" style="stroke: #000000; stroke-width: 1.5;"/><line style="stroke: #000000; stroke-width: 1.5;" x1="1035.5" x2="1169.5" y1="1066.0996" y2="1066.0996"/><text fill="#000000" font-family="sans-serif" font-size="14" font-weight="bold" lengthAdjust="spacingAndGlyphs" textLength="121" x="1039.5" y="1057.9976">src.domotix.model</text><!--MD5=[64d46d3feb93ed373cb40c8e6f8ae86a]
class src.domotix.view.MenuErroreApertura--><rect fill="#FEFECE" filter="url(#f15g1xq50ds11o)" height="48" id="src.domotix.view.MenuErroreApertura" style="stroke: #A80036; stroke-width: 1.5;" width="138" x="1044" y="302.0317"/><ellipse cx="1059" cy="318.0317" fill="#ADD1B2" rx="11" ry="11" style="stroke: #A80036; stroke-width: 1.0;"/><path d="M1058.9688,324.2036 Q1057.2188,324.2036 1056.0781,323.4692 Q1054.9531,322.7192 1054.3906,321.3754 Q1053.8438,320.0161 1053.8438,318.2192 Q1053.8438,316.1879 1054.5,314.7348 Q1055.1563,313.2817 1056.4375,312.5004 Q1057.7188,311.7192 1059.5938,311.7192 Q1060.4844,311.7192 1061.1563,311.9067 Q1061.8281,312.0786 1062.5156,312.4223 L1061.7031,314.4379 Q1061.0781,314.1254 1060.5313,314.0004 Q1060,313.8754 1059.5156,313.8754 Q1058.3438,313.8754 1057.6406,314.4067 Q1056.9375,314.9379 1056.6406,315.8911 Q1056.3438,316.8442 1056.3438,318.1098 Q1056.3438,320.1254 1057.0625,321.0942 Q1057.7813,322.0473 1059.375,322.0473 Q1059.9688,322.0473 1060.5938,321.8911 Q1061.2188,321.7348 1062.0469,321.3598 L1062.0469,323.5786 Q1061.3125,323.8911 1060.5156,324.0473 Q1059.7344,324.2036 1058.9688,324.2036 Z "/><text fill="#000000" font-family="sans-serif" font-size="12" lengthAdjust="spacingAndGlyphs" textLength="106" x="1073" y="322.6877">MenuErroreApertura</text><line style="stroke: #A80036; stroke-width: 1.5;" x1="1045" x2="1181" y1="334.0317" y2="334.0317"/><line style="stroke: #A80036; stroke-width: 1.5;" x1="1045" x2="1181" y1="342.0317" y2="342.0317"/><!--MD5=[5a43ac4806d6715ee3259b6b81245646]
class src.domotix.view.MenuErroreChiusura--><rect fill="#FEFECE" filter="url(#f15g1xq50ds11o)" height="48" id="src.domotix.view.MenuErroreChiusura" style="stroke: #A80036; stroke-width: 1.5;" width="139" x="869.5" y="302.0317"/><ellipse cx="884.5" cy="318.0317" fill="#ADD1B2" rx="11" ry="11" style="stroke: #A80036; stroke-width: 1.0;"/><path d="M884.4688,324.2036 Q882.7188,324.2036 881.5781,323.4692 Q880.4531,322.7192 879.8906,321.3754 Q879.3438,320.0161 879.3438,318.2192 Q879.3438,316.1879 880,314.7348 Q880.6563,313.2817 881.9375,312.5004 Q883.2188,311.7192 885.0938,311.7192 Q885.9844,311.7192 886.6563,311.9067 Q887.3281,312.0786 888.0156,312.4223 L887.2031,314.4379 Q886.5781,314.1254 886.0313,314.0004 Q885.5,313.8754 885.0156,313.8754 Q883.8438,313.8754 883.1406,314.4067 Q882.4375,314.9379 882.1406,315.8911 Q881.8438,316.8442 881.8438,318.1098 Q881.8438,320.1254 882.5625,321.0942 Q883.2813,322.0473 884.875,322.0473 Q885.4688,322.0473 886.0938,321.8911 Q886.7188,321.7348 887.5469,321.3598 L887.5469,323.5786 Q886.8125,323.8911 886.0156,324.0473 Q885.2344,324.2036 884.4688,324.2036 Z "/><text fill="#000000" font-family="sans-serif" font-size="12" lengthAdjust="spacingAndGlyphs" textLength="107" x="898.5" y="322.6877">MenuErroreChiusura</text><line style="stroke: #A80036; stroke-width: 1.5;" x1="870.5" x2="1007.5" y1="334.0317" y2="334.0317"/><line style="stroke: #A80036; stroke-width: 1.5;" x1="870.5" x2="1007.5" y1="342.0317" y2="342.0317"/><!--MD5=[74054751ba3b9eca75fda5044dcc84d9]
class TimerTask--><rect fill="#FEFECE" filter="url(#f15g1xq50ds11o)" height="48" id="TimerTask" style="stroke: #A80036; stroke-width: 1.5;" width="85" x="861.5" y="748.0317"/><ellipse cx="876.5" cy="764.0317" fill="#ADD1B2" rx="11" ry="11" style="stroke: #A80036; stroke-width: 1.0;"/><path d="M876.4688,770.2036 Q874.7188,770.2036 873.5781,769.4692 Q872.4531,768.7192 871.8906,767.3754 Q871.3438,766.0161 871.3438,764.2192 Q871.3438,762.1879 872,760.7348 Q872.6563,759.2817 873.9375,758.5004 Q875.2188,757.7192 877.0938,757.7192 Q877.9844,757.7192 878.6563,757.9067 Q879.3281,758.0786 880.0156,758.4223 L879.2031,760.4379 Q878.5781,760.1254 878.0313,760.0004 Q877.5,759.8754 877.0156,759.8754 Q875.8438,759.8754 875.1406,760.4067 Q874.4375,760.9379 874.1406,761.8911 Q873.8438,762.8442 873.8438,764.1098 Q873.8438,766.1254 874.5625,767.0942 Q875.2813,768.0473 876.875,768.0473 Q877.4688,768.0473 878.0938,767.8911 Q878.7188,767.7348 879.5469,767.3598 L879.5469,769.5786 Q878.8125,769.8911 878.0156,770.0473 Q877.2344,770.2036 876.4688,770.2036 Z "/><text fill="#000000" font-family="sans-serif" font-size="12" lengthAdjust="spacingAndGlyphs" textLength="53" x="890.5" y="768.6877">TimerTask</text><line style="stroke: #A80036; stroke-width: 1.5;" x1="862.5" x2="945.5" y1="780.0317" y2="780.0317"/><line style="stroke: #A80036; stroke-width: 1.5;" x1="862.5" x2="945.5" y1="788.0317" y2="788.0317"/><!--MD5=[201f3e31cd77252eadb42ab4f3f9311d]
link src.domotix.controller.Modificatore to src.domotix.controller.util.StringUtil--><path d="M151.4957,233.2418 C182.6587,281.625 223.1189,348.5164 252,411.0317 C267.3217,444.1966 280.1662,484.2781 287.9487,510.8709 " fill="none" id="src.domotix.controller.Modificatore-&gt;src.domotix.controller.util.StringUtil" style="stroke: #A80036; stroke-width: 1.0;"/><polygon fill="#A80036" points="289.3424,515.6747,290.676,505.9165,287.9491,510.8727,282.9929,508.1458,289.3424,515.6747" style="stroke: #A80036; stroke-width: 1.0;"/><!--MD5=[8a38aa3df2382dc9606741a6103750ea]
link src.domotix.controller.Modificatore to src.domotix.controller.Recuperatore--><path d="M62.5679,233.2735 C49.2713,261.0792 38,294.0745 38,326.0317 C38,326.0317 38,326.0317 38,772.0317 C38,801.9996 52.8627,829.8115 71.6116,852.9733 " fill="none" id="src.domotix.controller.Modificatore-&gt;src.domotix.controller.Recuperatore" style="stroke: #A80036; stroke-width: 1.0;"/><polygon fill="#A80036" points="74.9024,856.946,72.2415,847.4634,71.7128,853.0955,66.0807,852.5668,74.9024,856.946" style="stroke: #A80036; stroke-width: 1.0;"/><!--MD5=[40f5ce1c4829b8a3d0d2add149b2b9f8]
link src.domotix.controller.Modificatore to src.domotix.controller.Verificatore--><path d="M112.7524,233.4341 C121.3056,310.0052 134.8143,430.9408 142.0446,495.6693 " fill="none" id="src.domotix.controller.Modificatore-&gt;src.domotix.controller.Verificatore" style="stroke: #A80036; stroke-width: 1.0;"/><polygon fill="#A80036" points="142.6393,500.9928,145.6153,491.6043,142.0842,496.0237,137.6648,492.4925,142.6393,500.9928" style="stroke: #A80036; stroke-width: 1.0;"/><!--MD5=[1275239951ea355e4db66ad8e40c3739]
link src.domotix.controller.Modificatore to src.domotix.model--><path d="M188.0609,223.8544 C194.0099,227.1753 200.0215,230.2757 206,233.0317 C343.3696,296.3582 749.6144,310.91 863,411.0317 C962.3963,498.8005 1068.2904,913.0669 1097.9038,1035.7312 " fill="none" id="src.domotix.controller.Modificatore-&gt;src.domotix.model" style="stroke: #A80036; stroke-width: 1.0;"/><polygon fill="#A80036" points="1099.091,1040.6624,1100.8728,1030.976,1097.9204,1035.8013,1093.0951,1032.849,1099.091,1040.6624" style="stroke: #A80036; stroke-width: 1.0;"/><!--MD5=[5c5898ebcda34ab65c30afcc422018f5]
link src.domotix.controller.Verificatore to src.domotix.controller.Recuperatore--><path d="M147,579.1122 C147,643.5224 147,772.7028 147,851.8013 " fill="none" id="src.domotix.controller.Verificatore-&gt;src.domotix.controller.Recuperatore" style="stroke: #A80036; stroke-width: 1.0;"/><polygon fill="#A80036" points="147,856.9378,151,847.9378,147,851.9378,143,847.9378,147,856.9378" style="stroke: #A80036; stroke-width: 1.0;"/><!--MD5=[222e76682ac9ebc370daa64111fd90f3]
link src.domotix.controller.Verificatore to src.domotix.model--><path d="M167.5943,579.1599 C183.9126,607.1366 208.9301,644.1002 239,669.0317 C491.1169,878.0667 870.1902,1003.2225 1030.3219,1049.5186 " fill="none" id="src.domotix.controller.Verificatore-&gt;src.domotix.model" style="stroke: #A80036; stroke-width: 1.0;"/><polygon fill="#A80036" points="1035.4606,1050.9989,1027.9196,1044.6638,1030.656,1049.6148,1025.705,1052.3512,1035.4606,1050.9989" style="stroke: #A80036; stroke-width: 1.0;"/><!--MD5=[5687ef8736ca95c57867d4962220596c]
link src.domotix.controller.Recuperatore to src.domotix.model--><path d="M247.5777,965.6403 C288.4302,982.7708 336.6215,1000.495 382,1011.0317 C503.6754,1039.2841 870.5737,1059.1411 1030.3166,1066.6782 " fill="none" id="src.domotix.controller.Recuperatore-&gt;src.domotix.model" style="stroke: #A80036; stroke-width: 1.0;"/><polygon fill="#A80036" points="1035.4467,1066.9194,1026.6445,1062.5011,1030.4522,1066.6845,1026.2688,1070.4922,1035.4467,1066.9194" style="stroke: #A80036; stroke-width: 1.0;"/><!--MD5=[2af20467ac6f60db69e0151dba7a30b6]
link src.domotix.controller.OperazioniIniziali to src.domotix.model--><path d="M457.047,188.1037 C471.8125,203.9494 493.3667,223.4699 517,233.0317 C666.144,293.3737 1235,165.1433 1235,326.0317 C1235,326.0317 1235,326.0317 1235,918.5317 C1235,968.6574 1193.5567,1010.632 1157.6505,1037.592 " fill="none" id="src.domotix.controller.OperazioniIniziali-&gt;src.domotix.model" style="stroke: #A80036; stroke-width: 1.0;"/><polygon fill="#A80036" points="1153.3023,1040.805,1162.9177,1038.6735,1157.3236,1037.8336,1158.1635,1032.2394,1153.3023,1040.805" style="stroke: #A80036; stroke-width: 1.0;"/><!--MD5=[cc738602355c8f24d065eac3aca55f7e]
link src.domotix.controller.OperazioniIniziali to src.domotix.view.MenuErroreApertura--><path d="M457.4257,188.3024 C472.208,204.0218 493.6292,223.3131 517,233.0317 C621.7469,276.5899 918.1737,236.7793 1026,272.0317 C1044.3795,278.0406 1062.8469,288.6922 1078.0094,298.9563 " fill="none" id="src.domotix.controller.OperazioniIniziali-&gt;src.domotix.view.MenuErroreApertura" style="stroke: #A80036; stroke-width: 1.0;"/><polygon fill="#A80036" points="1082.1955,301.8368,1077.0489,293.4396,1078.0765,299.0024,1072.5138,300.03,1082.1955,301.8368" style="stroke: #A80036; stroke-width: 1.0;"/><!--MD5=[528c1a17cb7a6e88208b0974bd98c95e]
link src.domotix.controller.OperazioniFinali to src.domotix.model--><path d="M301.1476,188.3229 C315.0761,204.0514 335.3947,223.3452 358,233.0317 C527.1628,305.5188 606.5524,180.4036 771,263.0317 C820.8381,288.0733 806.9405,326.5763 853,358.0317 C911.3888,397.9072 954.7222,359.3736 1003,411.0317 C1171.5059,591.3359 1130.8361,928.1496 1112.4825,1035.9302 " fill="none" id="src.domotix.controller.OperazioniFinali-&gt;src.domotix.model" style="stroke: #A80036; stroke-width: 1.0;"/><polygon fill="#A80036" points="1111.6264,1040.888,1117.0998,1032.7001,1112.4774,1035.9609,1109.2165,1031.3385,1111.6264,1040.888" style="stroke: #A80036; stroke-width: 1.0;"/><!--MD5=[ff44c694a190eefe228faf0fea0d8704]
link src.domotix.controller.OperazioniFinali to src.domotix.view.MenuErroreChiusura--><path d="M300.8136,188.0573 C314.7347,203.8818 335.1795,223.3959 358,233.0317 C457.275,274.9497 737.6454,236.1477 842,263.0317 C866.5864,269.3657 890.5481,284.8108 908.5047,298.8221 " fill="none" id="src.domotix.controller.OperazioniFinali-&gt;src.domotix.view.MenuErroreChiusura" style="stroke: #A80036; stroke-width: 1.0;"/><polygon fill="#A80036" points="912.4736,301.972,907.9106,293.2439,908.5572,298.8637,902.9374,299.5102,912.4736,301.972" style="stroke: #A80036; stroke-width: 1.0;"/><!--MD5=[3b3f8624b21b05c588359226501b0ca1]
link src.domotix.controller.TimerGestioneRegole to src.domotix.model--><path d="M629.1251,188.1576 C645.9987,204.0281 670.3257,223.556 696,233.0317 C813.9552,276.5659 1150.7679,202.5542 1261,263.0317 C1291.1673,279.5826 1306,291.6224 1306,326.0317 C1306,326.0317 1306,326.0317 1306,918.5317 C1306,964.2496 1294.7346,980.1755 1261,1011.0317 C1238.8986,1031.2473 1209.1654,1044.7758 1181.6522,1053.7137 " fill="none" id="src.domotix.controller.TimerGestioneRegole-&gt;src.domotix.model" style="stroke: #A80036; stroke-width: 1.0;"/><polygon fill="#A80036" points="1176.543,1055.3298,1186.3303,1056.4295,1181.3102,1053.822,1183.9177,1048.8019,1176.543,1055.3298" style="stroke: #A80036; stroke-width: 1.0;"/><!--MD5=[cae165e9b7a0f7ea3ac02bef2f7921aa]
link src.domotix.controller.TimerRinfrescoDati to src.domotix.model--><path d="M844.5409,169.5592 C972.8372,181.3702 1251.6252,212.209 1332,263.0317 C1361.0829,281.4215 1377,291.6224 1377,326.0317 C1377,326.0317 1377,326.0317 1377,918.5317 C1377,964.2496 1367.3558,982.0474 1332,1011.0317 C1308.9787,1029.9043 1238.0285,1046.5356 1181.6971,1057.2889 " fill="none" id="src.domotix.controller.TimerRinfrescoDati-&gt;src.domotix.model" style="stroke: #A80036; stroke-width: 1.0;"/><polygon fill="#A80036" points="1176.6383,1058.2464,1186.2252,1060.5028,1181.5511,1057.3165,1184.7374,1052.6424,1176.6383,1058.2464" style="stroke: #A80036; stroke-width: 1.0;"/><!--MD5=[6c9d350d9f0f064bbceb4c6ba7794caf]
link src.domotix.controller.TimerAzioniProgrammate to src.domotix.model--><path d="M845.2187,614.6068 C886.8706,650.9119 932.9708,697.5935 964,748.0317 C1028.0862,852.2045 981.0284,906.7885 1045,1011.0317 C1050.6954,1020.3124 1058.1863,1029.1519 1065.9615,1037.0314 " fill="none" id="src.domotix.controller.TimerAzioniProgrammate-&gt;src.domotix.model" style="stroke: #A80036; stroke-width: 1.0;"/><polygon fill="#A80036" points="1069.7946,1040.8202,1066.2055,1031.6486,1066.2385,1037.3054,1060.5817,1037.3384,1069.7946,1040.8202" style="stroke: #A80036; stroke-width: 1.0;"/><!--MD5=[f8ede6f41322b180af899d24d5c8a50d]
link src.domotix.controller.TimerAzioniProgrammate to TimerTask--><path d="M841.5909,679.2181 C841.5909,679.2181 869.7782,721.1377 880.4628,737.0277 " fill="none" id="src.domotix.controller.TimerAzioniProgrammate-TimerTask" style="stroke: #A80036; stroke-width: 1.0;"/><polygon fill="#A80036" points="887.7336,747.8406,886.031,738.14,884.9436,743.6914,879.3923,742.604,887.7336,747.8406" style="stroke: #A80036; stroke-width: 1.0;"/><line style="stroke: #A80036; stroke-width: 1.0;" x1="884.9436" x2="880.4796" y1="743.6914" y2="737.0527"/><polygon fill="#FFFFFF" points="834.8949,669.26,834.9235,676.471,841.5909,679.2181,841.5623,672.0071,834.8949,669.26" style="stroke: #A80036; stroke-width: 1.0;"/><text fill="#000000" font-family="sans-serif" font-size="13" lengthAdjust="spacingAndGlyphs" textLength="23" x="867" y="713.9287">task</text><!--MD5=[77b97269d6cf25b27265c6822e6a81fb]
link src.domotix.controller.TimerAzioniProgrammate to src.domotix.controller.util.TimerTaskAzione--><path d="M638.6436,540.0317 C638.6436,540.0317 591.877,540.0317 569.8464,540.0317 " fill="none" id="src.domotix.controller.TimerAzioniProgrammate-src.domotix.controller.util.TimerTaskAzione" style="stroke: #A80036; stroke-width: 1.0;"/><polygon fill="#A80036" points="556.5992,540.0317,565.5992,544.0317,561.5992,540.0317,565.5992,536.0317,556.5992,540.0317" style="stroke: #A80036; stroke-width: 1.0;"/><line style="stroke: #A80036; stroke-width: 1.0;" x1="561.5992" x2="569.5993" y1="540.0317" y2="540.0316"/><polygon fill="#FFFFFF" points="650.6436,540.0317,644.6436,536.0317,638.6436,540.0317,644.6436,544.0317,650.6436,540.0317" style="stroke: #A80036; stroke-width: 1.0;"/><text fill="#000000" font-family="sans-serif" font-size="13" lengthAdjust="spacingAndGlyphs" textLength="58" x="574.75" y="532.9287">taskAzioni</text><!--MD5=[c202ebc8b03c675bef60a6386ed2d3d9]
link src.domotix.controller.util.TimerTaskAzione to TimerTask--><path d="M497.9436,601.5709 C514.1317,625.8044 535.556,651.8842 561,669.0317 C612.8778,703.9938 765.5037,720.4465 842.2383,742.9852 " fill="none" id="src.domotix.controller.util.TimerTaskAzione-&gt;TimerTask" style="stroke: #A80036; stroke-width: 1.0;"/><polygon fill="none" points="844.5464,736.3759,861.2944,749.357,840.1068,749.6534,844.5464,736.3759" style="stroke: #A80036; stroke-width: 1.0;"/><!--MD5=[752a0e216ce9a91409190cd44260d75a]
@startuml

title __DOMOTIX > CONTROLLER's Class Diagram__\n

namespace src.domotix.controller {
    class src.domotix.controller.Modificatore {
        {static} + aggiungiAzioneConseguente()
        {static} + aggiungiAzioneConseguente()
        {static} + cambiaStatoSensore()
        {static} + cambiaStatoAttuatore()
        {static} + cambioStatoRegola()
        {static} + rimuoviAzioneProgrammata()
    }

    class src.domotix.controller.OperazioniFinali {

    }

    class src.domotix.controller.OperazioniIniziali {

    }

    class src.domotix.controller.Recuperatore {
        {static} ~ getAzioneProgrammata()
        {static} ~ getAzioniProgrammate()
        {static} + getAntecentiRegoleAttiveDisattive()
        {static} + getDescrizioneAzioneProgrammata()
        {static} + getDescrizioniAzioniProgrammate()
    }

    class src.domotix.controller.Verificatore {
        {static} + checkValiditaOrario()
        {static} + checkIsSensoreOrologio()
    }

    class src.domotix.controller.TimerGestioneRegole {
    }

    class src.domotix.controller.TimerRinfrescoDati {
    }

    class src.domotix.controller.TimerAzioniProgrammate {
        {static} + DEFAULT_DELAY : int
        {static} - instance : TimerAzioniProgrammate
        - timer : Timer
        - timerAzioni : Timer
        - delay : int
        - taskControlloAzioni : TimerTask
        - azioniPianificate : ArrayList<String>
        {static} + getInstance()
        + TimerAzioniProgrammate()
        + getDelay()
        + setDelay()
        + start()
        + stop()
        + consume()
    }

    namespace util {
        class src.domotix.controller.util.StringUtil {
        }
        class src.domotix.controller.util.TimerTaskAzione {
            - idAzione : String
            - azione : Azione
            - owner : TimerAzioniProgrammate
            + TimerTaskAzione()
            + run()
        }
    }
}

namespace src.domotix.model {

}

src.domotix.controller.Modificatore - -> src.domotix.controller.util.StringUtil
src.domotix.controller.Modificatore - -> src.domotix.controller.Recuperatore
src.domotix.controller.Modificatore - -> src.domotix.controller.Verificatore
src.domotix.controller.Modificatore - -> src.domotix.model

src.domotix.controller.Verificatore - -> src.domotix.controller.Recuperatore
src.domotix.controller.Verificatore - -> src.domotix.model

src.domotix.controller.Recuperatore - -> src.domotix.model

src.domotix.controller.OperazioniIniziali - -> src.domotix.model
src.domotix.controller.OperazioniIniziali - -> src.domotix.view.MenuErroreApertura

src.domotix.controller.OperazioniFinali - -> src.domotix.model
src.domotix.controller.OperazioniFinali - -> src.domotix.view.MenuErroreChiusura

src.domotix.controller.TimerGestioneRegole - -> src.domotix.model
src.domotix.controller.TimerRinfrescoDati - -> src.domotix.model
src.domotix.controller.TimerAzioniProgrammate - -> src.domotix.model
src.domotix.controller.TimerAzioniProgrammate o-> TimerTask : task
src.domotix.controller.TimerAzioniProgrammate o-> src.domotix.controller.util.TimerTaskAzione : taskAzioni
src.domotix.controller.util.TimerTaskAzione - -|> TimerTask

@enduml

PlantUML version 1.2019.11(Sun Sep 22 12:02:15 CEST 2019)
(GPL source distribution)
Java Runtime: OpenJDK Runtime Environment
JVM: OpenJDK 64-Bit Server VM
Java Version: 11.0.3+12-b304.10
Operating System: Linux
Default Encoding: UTF-8
Language: it
Country: IT
--></g></svg>