<?xml version="1.0" encoding="UTF-8" standalone="no"?><svg xmlns="http://www.w3.org/2000/svg" xmlns:xlink="http://www.w3.org/1999/xlink" contentScriptType="application/ecmascript" contentStyleType="text/css" height="342.6px" preserveAspectRatio="none" style="width:993px;height:342px;" version="1.1" viewBox="0 0 993 342" width="993.6px" zoomAndPan="magnify"><defs><filter height="300%" id="fldoul81dsb0w" width="300%" x="-1" y="-1"><feGaussianBlur result="blurOut" stdDeviation="1.2"/><feColorMatrix in="blurOut" result="blurOut2" type="matrix" values="0 0 0 0 0 0 0 0 0 0 0 0 0 0 0 0 0 0 .4 0"/><feOffset dx="2.4" dy="2.4" in="blurOut2" result="blurOut3"/><feBlend in="SourceGraphic" in2="blurOut3" mode="normal"/></filter></defs><g><text fill="#000000" font-family="sans-serif" font-size="10.8" lengthAdjust="spacingAndGlyphs" text-decoration="underline" textLength="177" x="409.5" y="11.5451">DOMOTIX &gt; MODEL's Class Diagram</text><text fill="#000000" font-family="sans-serif" font-size="10.8" lengthAdjust="spacingAndGlyphs" textLength="0" x="499.2" y="26.2546"/><!--MD5=[0a790ac5fdecc1ec79658b6b98c9068e]
cluster src.domotix.model--><polygon fill="#FFFFFF" filter="url(#fldoul81dsb0w)" points="8.4,39.019,84.6,39.019,88.8,54.0598,980.4,54.0598,980.4,335.419,8.4,335.419,8.4,39.019" style="stroke: #000000; stroke-width: 0.8999999999999999;"/><line style="stroke: #000000; stroke-width: 0.8999999999999999;" x1="8.4" x2="88.8" y1="54.0598" y2="54.0598"/><text fill="#000000" font-family="sans-serif" font-size="8.4" font-weight="bold" lengthAdjust="spacingAndGlyphs" textLength="72.6" x="10.8" y="49.1986">src.domotix.model</text><!--MD5=[f07117731684c6860360b82cb7260692]
cluster src.domotix.model.util--><polygon fill="#FFFFFF" filter="url(#fldoul81dsb0w)" points="601.8,274.219,619.2,274.219,623.4,289.2598,696.6,289.2598,696.6,325.819,601.8,325.819,601.8,274.219" style="stroke: #000000; stroke-width: 0.8999999999999999;"/><line style="stroke: #000000; stroke-width: 0.8999999999999999;" x1="601.8" x2="623.4" y1="289.2598" y2="289.2598"/><text fill="#000000" font-family="sans-serif" font-size="8.4" font-weight="bold" lengthAdjust="spacingAndGlyphs" textLength="13.8" x="604.2" y="284.3986">util</text><!--MD5=[216a9c20675abb02ba7e2944fe4b9ef0]
cluster src.domotix.model.gestioneerrori--><polygon fill="#FFFFFF" filter="url(#fldoul81dsb0w)" points="759,57.019,819.6,57.019,823.8,72.0598,975.6,72.0598,975.6,171.619,759,171.619,759,57.019" style="stroke: #000000; stroke-width: 0.8999999999999999;"/><line style="stroke: #000000; stroke-width: 0.8999999999999999;" x1="759" x2="823.8" y1="72.0598" y2="72.0598"/><text fill="#000000" font-family="sans-serif" font-size="8.4" font-weight="bold" lengthAdjust="spacingAndGlyphs" textLength="57" x="761.4" y="67.1986">gestioneerrori</text><!--MD5=[93ef5217795d11f1e60750ff284ef631]
cluster src.domotix.model.bean--><polygon fill="#FFFFFF" filter="url(#fldoul81dsb0w)" points="156.6,256.219,180,256.219,184.2,271.2598,441,271.2598,441,330.619,156.6,330.619,156.6,256.219" style="stroke: #000000; stroke-width: 0.8999999999999999;"/><line style="stroke: #000000; stroke-width: 0.8999999999999999;" x1="156.6" x2="184.2" y1="271.2598" y2="271.2598"/><text fill="#000000" font-family="sans-serif" font-size="8.4" font-weight="bold" lengthAdjust="spacingAndGlyphs" textLength="19.8" x="159" y="266.3986">bean</text><!--MD5=[45d783cd9aaab7322b74d5415c833713]
cluster src.domotix.model.bean.device--><polygon fill="#FFFFFF" filter="url(#fldoul81dsb0w)" points="161.4,274.219,190.2,274.219,194.4,289.2598,345,289.2598,345,325.819,161.4,325.819,161.4,274.219" style="stroke: #000000; stroke-width: 0.8999999999999999;"/><line style="stroke: #000000; stroke-width: 0.8999999999999999;" x1="161.4" x2="194.4" y1="289.2598" y2="289.2598"/><text fill="#000000" font-family="sans-serif" font-size="8.4" font-weight="bold" lengthAdjust="spacingAndGlyphs" textLength="25.2" x="163.8" y="284.3986">device</text><!--MD5=[7c26a10356d02adb4927a4807e9e1ce5]
class src.domotix.model.ElencoAttuatori--><rect fill="#FEFECE" filter="url(#fldoul81dsb0w)" height="82.7348" id="src.domotix.model.ElencoAttuatori" style="stroke: #A80036; stroke-width: 0.8999999999999999;" width="85.2" x="554.4" y="79.519"/><ellipse cx="571.5" cy="89.119" fill="#ADD1B2" rx="6.6" ry="6.6" style="stroke: #A80036; stroke-width: 0.6;"/><path d="M571.4812,92.8221 Q570.4313,92.8221 569.7469,92.3815 Q569.0719,91.9315 568.7344,91.1253 Q568.4063,90.3096 568.4063,89.2315 Q568.4063,88.0128 568.8,87.1409 Q569.1938,86.269 569.9625,85.8003 Q570.7312,85.3315 571.8562,85.3315 Q572.3906,85.3315 572.7937,85.444 Q573.1969,85.5471 573.6094,85.7534 L573.1219,86.9628 Q572.7469,86.7753 572.4187,86.7003 Q572.1,86.6253 571.8094,86.6253 Q571.1062,86.6253 570.6844,86.944 Q570.2625,87.2628 570.0844,87.8346 Q569.9063,88.4065 569.9063,89.1659 Q569.9063,90.3753 570.3375,90.9565 Q570.7688,91.5284 571.725,91.5284 Q572.0813,91.5284 572.4563,91.4346 Q572.8313,91.3409 573.3281,91.1159 L573.3281,92.4471 Q572.8875,92.6346 572.4094,92.7284 Q571.9406,92.8221 571.4812,92.8221 Z "/><text fill="#000000" font-family="sans-serif" font-size="7.2" lengthAdjust="spacingAndGlyphs" textLength="48" x="581.7" y="91.9126">ElencoAttuatori</text><line style="stroke: #A80036; stroke-width: 0.8999999999999999;" x1="555" x2="639" y1="98.719" y2="98.719"/><rect fill="none" height="3.6" style="stroke: #C82930; stroke-width: 0.6;" width="3.6" x="559.2" y="103.519"/><text fill="#000000" font-family="sans-serif" font-size="6.6" lengthAdjust="spacingAndGlyphs" text-decoration="underline" textLength="69.6" x="566.4" y="108.1744">instance : ElencoAttuatori</text><line style="stroke: #A80036; stroke-width: 0.8999999999999999;" x1="555" x2="639" y1="112.5081" y2="112.5081"/><ellipse cx="561" cy="119.1081" fill="#84BE84" rx="1.8" ry="1.8" style="stroke: #038048; stroke-width: 0.6;"/><text fill="#000000" font-family="sans-serif" font-size="6.6" lengthAdjust="spacingAndGlyphs" textLength="50.4" x="566.4" y="121.9635">elaboraAggiunta()</text><ellipse cx="561" cy="128.0973" fill="#84BE84" rx="1.8" ry="1.8" style="stroke: #038048; stroke-width: 0.6;"/><text fill="#000000" font-family="sans-serif" font-size="6.6" lengthAdjust="spacingAndGlyphs" textLength="40.2" x="566.4" y="130.9526">getDispositivi()</text><ellipse cx="561" cy="137.0864" fill="#84BE84" rx="1.8" ry="1.8" style="stroke: #038048; stroke-width: 0.6;"/><text fill="#000000" font-family="sans-serif" font-size="6.6" lengthAdjust="spacingAndGlyphs" textLength="42.6" x="566.4" y="139.9418">getDispositivo()</text><ellipse cx="561" cy="146.0755" fill="#84BE84" rx="1.8" ry="1.8" style="stroke: #038048; stroke-width: 0.6;"/><text fill="#000000" font-family="sans-serif" font-size="6.6" lengthAdjust="spacingAndGlyphs" text-decoration="underline" textLength="36.6" x="566.4" y="148.9309">getInstance()</text><rect fill="#F24D5C" height="3.6" style="stroke: #C82930; stroke-width: 0.6;" width="3.6" x="559.2" y="153.2647"/><text fill="#000000" font-family="sans-serif" font-size="6.6" lengthAdjust="spacingAndGlyphs" textLength="46.2" x="566.4" y="157.92">ElencoAttuatori()</text><!--MD5=[535b96484ab6dbcb18bf1f7368a160a8]
class src.domotix.model.ElencoCategorieAttuatori--><rect fill="#FEFECE" filter="url(#fldoul81dsb0w)" height="118.6913" id="src.domotix.model.ElencoCategorieAttuatori" style="stroke: #A80036; stroke-width: 0.8999999999999999;" width="152.4" x="224.4" y="61.519"/><ellipse cx="259.05" cy="71.119" fill="#ADD1B2" rx="6.6" ry="6.6" style="stroke: #A80036; stroke-width: 0.6;"/><path d="M259.0313,74.8221 Q257.9813,74.8221 257.2969,74.3815 Q256.6219,73.9315 256.2844,73.1253 Q255.9562,72.3096 255.9562,71.2315 Q255.9562,70.0128 256.35,69.1409 Q256.7438,68.269 257.5125,67.8003 Q258.2813,67.3315 259.4063,67.3315 Q259.9406,67.3315 260.3438,67.444 Q260.7469,67.5471 261.1594,67.7534 L260.6719,68.9628 Q260.2969,68.7753 259.9688,68.7003 Q259.65,68.6253 259.3594,68.6253 Q258.6563,68.6253 258.2344,68.944 Q257.8125,69.2628 257.6344,69.8346 Q257.4563,70.4065 257.4563,71.1659 Q257.4563,72.3753 257.8875,72.9565 Q258.3187,73.5284 259.275,73.5284 Q259.6312,73.5284 260.0062,73.4346 Q260.3812,73.3409 260.8781,73.1159 L260.8781,74.4471 Q260.4375,74.6346 259.9594,74.7284 Q259.4906,74.8221 259.0313,74.8221 Z "/><text fill="#000000" font-family="sans-serif" font-size="7.2" lengthAdjust="spacingAndGlyphs" textLength="78" x="271.35" y="73.9126">ElencoCategorieAttuatori</text><line style="stroke: #A80036; stroke-width: 0.8999999999999999;" x1="225" x2="376.2" y1="80.719" y2="80.719"/><rect fill="none" height="3.6" style="stroke: #C82930; stroke-width: 0.6;" width="3.6" x="229.2" y="85.519"/><text fill="#000000" font-family="sans-serif" font-size="6.6" lengthAdjust="spacingAndGlyphs" textLength="136.8" x="236.4" y="90.1744">categorie : HashMap&lt;String, CategoriaAttuatore&gt;</text><rect fill="none" height="3.6" style="stroke: #C82930; stroke-width: 0.6;" width="3.6" x="229.2" y="94.5081"/><text fill="#000000" font-family="sans-serif" font-size="6.6" lengthAdjust="spacingAndGlyphs" text-decoration="underline" textLength="96.6" x="236.4" y="99.1635">instance : ElencoCategorieAttuatori</text><line style="stroke: #A80036; stroke-width: 0.8999999999999999;" x1="225" x2="376.2" y1="103.4973" y2="103.4973"/><ellipse cx="231" cy="110.0973" fill="#84BE84" rx="1.8" ry="1.8" style="stroke: #038048; stroke-width: 0.6;"/><text fill="#000000" font-family="sans-serif" font-size="6.6" lengthAdjust="spacingAndGlyphs" textLength="14.4" x="236.4" y="112.9526">add()</text><ellipse cx="231" cy="119.0864" fill="#84BE84" rx="1.8" ry="1.8" style="stroke: #038048; stroke-width: 0.6;"/><text fill="#000000" font-family="sans-serif" font-size="6.6" lengthAdjust="spacingAndGlyphs" textLength="27" x="236.4" y="121.9418">contains()</text><ellipse cx="231" cy="128.0755" fill="#84BE84" rx="1.8" ry="1.8" style="stroke: #038048; stroke-width: 0.6;"/><text fill="#000000" font-family="sans-serif" font-size="6.6" lengthAdjust="spacingAndGlyphs" textLength="39.6" x="236.4" y="130.9309">getCategoria()</text><ellipse cx="231" cy="137.0647" fill="#84BE84" rx="1.8" ry="1.8" style="stroke: #038048; stroke-width: 0.6;"/><text fill="#000000" font-family="sans-serif" font-size="6.6" lengthAdjust="spacingAndGlyphs" textLength="39.6" x="236.4" y="139.92">getCategorie()</text><ellipse cx="231" cy="146.0538" fill="#84BE84" rx="1.8" ry="1.8" style="stroke: #038048; stroke-width: 0.6;"/><text fill="#000000" font-family="sans-serif" font-size="6.6" lengthAdjust="spacingAndGlyphs" text-decoration="underline" textLength="36.6" x="236.4" y="148.9092">getInstance()</text><ellipse cx="231" cy="155.0429" fill="#84BE84" rx="1.8" ry="1.8" style="stroke: #038048; stroke-width: 0.6;"/><text fill="#000000" font-family="sans-serif" font-size="6.6" lengthAdjust="spacingAndGlyphs" textLength="25.8" x="236.4" y="157.8983">remove()</text><ellipse cx="231" cy="164.0321" fill="#84BE84" rx="1.8" ry="1.8" style="stroke: #038048; stroke-width: 0.6;"/><text fill="#000000" font-family="sans-serif" font-size="6.6" lengthAdjust="spacingAndGlyphs" textLength="25.8" x="236.4" y="166.8874">remove()</text><rect fill="#F24D5C" height="3.6" style="stroke: #C82930; stroke-width: 0.6;" width="3.6" x="229.2" y="171.2212"/><text fill="#000000" font-family="sans-serif" font-size="6.6" lengthAdjust="spacingAndGlyphs" textLength="73.2" x="236.4" y="175.8766">ElencoCategorieAttuatori()</text><!--MD5=[e935c5c922d25a9dbc177ea01dacaf0d]
class src.domotix.model.ElencoCategorieSensori--><rect fill="#FEFECE" filter="url(#fldoul81dsb0w)" height="118.6913" id="src.domotix.model.ElencoCategorieSensori" style="stroke: #A80036; stroke-width: 0.8999999999999999;" width="149.4" x="53.7" y="61.519"/><ellipse cx="89.25" cy="71.119" fill="#ADD1B2" rx="6.6" ry="6.6" style="stroke: #A80036; stroke-width: 0.6;"/><path d="M89.2313,74.8221 Q88.1812,74.8221 87.4969,74.3815 Q86.8219,73.9315 86.4844,73.1253 Q86.1563,72.3096 86.1563,71.2315 Q86.1563,70.0128 86.55,69.1409 Q86.9438,68.269 87.7125,67.8003 Q88.4813,67.3315 89.6063,67.3315 Q90.1406,67.3315 90.5438,67.444 Q90.9469,67.5471 91.3594,67.7534 L90.8719,68.9628 Q90.4969,68.7753 90.1688,68.7003 Q89.85,68.6253 89.5594,68.6253 Q88.8563,68.6253 88.4344,68.944 Q88.0125,69.2628 87.8344,69.8346 Q87.6563,70.4065 87.6563,71.1659 Q87.6563,72.3753 88.0875,72.9565 Q88.5188,73.5284 89.475,73.5284 Q89.8313,73.5284 90.2063,73.4346 Q90.5813,73.3409 91.0781,73.1159 L91.0781,74.4471 Q90.6375,74.6346 90.1594,74.7284 Q89.6906,74.8221 89.2313,74.8221 Z "/><text fill="#000000" font-family="sans-serif" font-size="7.2" lengthAdjust="spacingAndGlyphs" textLength="73.2" x="101.55" y="73.9126">ElencoCategorieSensori</text><line style="stroke: #A80036; stroke-width: 0.8999999999999999;" x1="54.3" x2="202.5" y1="80.719" y2="80.719"/><rect fill="none" height="3.6" style="stroke: #C82930; stroke-width: 0.6;" width="3.6" x="58.5" y="85.519"/><text fill="#000000" font-family="sans-serif" font-size="6.6" lengthAdjust="spacingAndGlyphs" textLength="133.8" x="65.7" y="90.1744">categorie : HashMap&lt;String, CategoriaSensore&gt;</text><rect fill="none" height="3.6" style="stroke: #C82930; stroke-width: 0.6;" width="3.6" x="58.5" y="94.5081"/><text fill="#000000" font-family="sans-serif" font-size="6.6" lengthAdjust="spacingAndGlyphs" text-decoration="underline" textLength="93.6" x="65.7" y="99.1635">instance : ElencoCategorieSensori</text><line style="stroke: #A80036; stroke-width: 0.8999999999999999;" x1="54.3" x2="202.5" y1="103.4973" y2="103.4973"/><ellipse cx="60.3" cy="110.0973" fill="#84BE84" rx="1.8" ry="1.8" style="stroke: #038048; stroke-width: 0.6;"/><text fill="#000000" font-family="sans-serif" font-size="6.6" lengthAdjust="spacingAndGlyphs" textLength="14.4" x="65.7" y="112.9526">add()</text><ellipse cx="60.3" cy="119.0864" fill="#84BE84" rx="1.8" ry="1.8" style="stroke: #038048; stroke-width: 0.6;"/><text fill="#000000" font-family="sans-serif" font-size="6.6" lengthAdjust="spacingAndGlyphs" textLength="27" x="65.7" y="121.9418">contains()</text><ellipse cx="60.3" cy="128.0755" fill="#84BE84" rx="1.8" ry="1.8" style="stroke: #038048; stroke-width: 0.6;"/><text fill="#000000" font-family="sans-serif" font-size="6.6" lengthAdjust="spacingAndGlyphs" textLength="39.6" x="65.7" y="130.9309">getCategoria()</text><ellipse cx="60.3" cy="137.0647" fill="#84BE84" rx="1.8" ry="1.8" style="stroke: #038048; stroke-width: 0.6;"/><text fill="#000000" font-family="sans-serif" font-size="6.6" lengthAdjust="spacingAndGlyphs" textLength="39.6" x="65.7" y="139.92">getCategorie()</text><ellipse cx="60.3" cy="146.0538" fill="#84BE84" rx="1.8" ry="1.8" style="stroke: #038048; stroke-width: 0.6;"/><text fill="#000000" font-family="sans-serif" font-size="6.6" lengthAdjust="spacingAndGlyphs" text-decoration="underline" textLength="36.6" x="65.7" y="148.9092">getInstance()</text><ellipse cx="60.3" cy="155.0429" fill="#84BE84" rx="1.8" ry="1.8" style="stroke: #038048; stroke-width: 0.6;"/><text fill="#000000" font-family="sans-serif" font-size="6.6" lengthAdjust="spacingAndGlyphs" textLength="25.8" x="65.7" y="157.8983">remove()</text><ellipse cx="60.3" cy="164.0321" fill="#84BE84" rx="1.8" ry="1.8" style="stroke: #038048; stroke-width: 0.6;"/><text fill="#000000" font-family="sans-serif" font-size="6.6" lengthAdjust="spacingAndGlyphs" textLength="25.8" x="65.7" y="166.8874">remove()</text><rect fill="#F24D5C" height="3.6" style="stroke: #C82930; stroke-width: 0.6;" width="3.6" x="58.5" y="171.2212"/><text fill="#000000" font-family="sans-serif" font-size="6.6" lengthAdjust="spacingAndGlyphs" textLength="70.2" x="65.7" y="175.8766">ElencoCategorieSensori()</text><!--MD5=[8216fbdf062926a8e46fb80986d95232]
class src.domotix.model.ElencoSensori--><rect fill="#FEFECE" filter="url(#fldoul81dsb0w)" height="82.7348" id="src.domotix.model.ElencoSensori" style="stroke: #A80036; stroke-width: 0.8999999999999999;" width="82.2" x="660.9" y="79.519"/><ellipse cx="678.81" cy="89.119" fill="#ADD1B2" rx="6.6" ry="6.6" style="stroke: #A80036; stroke-width: 0.6;"/><path d="M678.7912,92.8221 Q677.7412,92.8221 677.0569,92.3815 Q676.3819,91.9315 676.0444,91.1253 Q675.7163,90.3096 675.7163,89.2315 Q675.7163,88.0128 676.11,87.1409 Q676.5038,86.269 677.2725,85.8003 Q678.0412,85.3315 679.1662,85.3315 Q679.7006,85.3315 680.1037,85.444 Q680.5069,85.5471 680.9194,85.7534 L680.4319,86.9628 Q680.0569,86.7753 679.7287,86.7003 Q679.41,86.6253 679.1194,86.6253 Q678.4162,86.6253 677.9944,86.944 Q677.5725,87.2628 677.3944,87.8346 Q677.2163,88.4065 677.2163,89.1659 Q677.2163,90.3753 677.6475,90.9565 Q678.0787,91.5284 679.035,91.5284 Q679.3912,91.5284 679.7662,91.4346 Q680.1412,91.3409 680.6381,91.1159 L680.6381,92.4471 Q680.1975,92.6346 679.7194,92.7284 Q679.2506,92.8221 678.7912,92.8221 Z "/><text fill="#000000" font-family="sans-serif" font-size="7.2" lengthAdjust="spacingAndGlyphs" textLength="43.2" x="689.19" y="91.9126">ElencoSensori</text><line style="stroke: #A80036; stroke-width: 0.8999999999999999;" x1="661.5" x2="742.5" y1="98.719" y2="98.719"/><rect fill="none" height="3.6" style="stroke: #C82930; stroke-width: 0.6;" width="3.6" x="665.7" y="103.519"/><text fill="#000000" font-family="sans-serif" font-size="6.6" lengthAdjust="spacingAndGlyphs" text-decoration="underline" textLength="66.6" x="672.9" y="108.1744">instance : ElencoSensori</text><line style="stroke: #A80036; stroke-width: 0.8999999999999999;" x1="661.5" x2="742.5" y1="112.5081" y2="112.5081"/><ellipse cx="667.5" cy="119.1081" fill="#84BE84" rx="1.8" ry="1.8" style="stroke: #038048; stroke-width: 0.6;"/><text fill="#000000" font-family="sans-serif" font-size="6.6" lengthAdjust="spacingAndGlyphs" textLength="50.4" x="672.9" y="121.9635">elaboraAggiunta()</text><ellipse cx="667.5" cy="128.0973" fill="#84BE84" rx="1.8" ry="1.8" style="stroke: #038048; stroke-width: 0.6;"/><text fill="#000000" font-family="sans-serif" font-size="6.6" lengthAdjust="spacingAndGlyphs" textLength="40.2" x="672.9" y="130.9526">getDispositivi()</text><ellipse cx="667.5" cy="137.0864" fill="#84BE84" rx="1.8" ry="1.8" style="stroke: #038048; stroke-width: 0.6;"/><text fill="#000000" font-family="sans-serif" font-size="6.6" lengthAdjust="spacingAndGlyphs" textLength="42.6" x="672.9" y="139.9418">getDispositivo()</text><ellipse cx="667.5" cy="146.0755" fill="#84BE84" rx="1.8" ry="1.8" style="stroke: #038048; stroke-width: 0.6;"/><text fill="#000000" font-family="sans-serif" font-size="6.6" lengthAdjust="spacingAndGlyphs" text-decoration="underline" textLength="36.6" x="672.9" y="148.9309">getInstance()</text><rect fill="#F24D5C" height="3.6" style="stroke: #C82930; stroke-width: 0.6;" width="3.6" x="665.7" y="153.2647"/><text fill="#000000" font-family="sans-serif" font-size="6.6" lengthAdjust="spacingAndGlyphs" textLength="43.2" x="672.9" y="157.92">ElencoSensori()</text><!--MD5=[da49177558a78120c4d786a1f64c4c58]
class src.domotix.model.ElencoUnitaImmobiliari--><rect fill="#FEFECE" filter="url(#fldoul81dsb0w)" height="127.6805" id="src.domotix.model.ElencoUnitaImmobiliari" style="stroke: #A80036; stroke-width: 0.8999999999999999;" width="135.6" x="397.8" y="57.019"/><ellipse cx="425.85" cy="66.619" fill="#ADD1B2" rx="6.6" ry="6.6" style="stroke: #A80036; stroke-width: 0.6;"/><path d="M425.8313,70.3221 Q424.7813,70.3221 424.0969,69.8815 Q423.4219,69.4315 423.0844,68.6253 Q422.7562,67.8096 422.7562,66.7315 Q422.7562,65.5128 423.15,64.6409 Q423.5438,63.769 424.3125,63.3003 Q425.0813,62.8315 426.2063,62.8315 Q426.7406,62.8315 427.1438,62.944 Q427.5469,63.0471 427.9594,63.2534 L427.4719,64.4628 Q427.0969,64.2753 426.7688,64.2003 Q426.45,64.1253 426.1594,64.1253 Q425.4563,64.1253 425.0344,64.444 Q424.6125,64.7628 424.4344,65.3346 Q424.2562,65.9065 424.2562,66.6659 Q424.2562,67.8753 424.6875,68.4565 Q425.1188,69.0284 426.075,69.0284 Q426.4313,69.0284 426.8063,68.9346 Q427.1813,68.8409 427.6781,68.6159 L427.6781,69.9471 Q427.2375,70.1346 426.7594,70.2284 Q426.2906,70.3221 425.8313,70.3221 Z "/><text fill="#000000" font-family="sans-serif" font-size="7.2" lengthAdjust="spacingAndGlyphs" textLength="74.4" x="438.15" y="69.4126">ElencoUnitaImmobiliari</text><line style="stroke: #A80036; stroke-width: 0.8999999999999999;" x1="398.4" x2="532.8" y1="76.219" y2="76.219"/><rect fill="none" height="3.6" style="stroke: #C82930; stroke-width: 0.6;" width="3.6" x="402.6" y="81.019"/><text fill="#000000" font-family="sans-serif" font-size="6.6" lengthAdjust="spacingAndGlyphs" text-decoration="underline" textLength="92.4" x="409.8" y="85.6744">instance : ElencoUnitaImmobiliari</text><rect fill="none" height="3.6" style="stroke: #C82930; stroke-width: 0.6;" width="3.6" x="402.6" y="90.0081"/><text fill="#000000" font-family="sans-serif" font-size="6.6" lengthAdjust="spacingAndGlyphs" textLength="120" x="409.8" y="94.6635">unita : HashMap&lt;String, UnitaImmobiliare&gt;</text><line style="stroke: #A80036; stroke-width: 0.8999999999999999;" x1="398.4" x2="532.8" y1="98.9973" y2="98.9973"/><ellipse cx="404.4" cy="105.5973" fill="#84BE84" rx="1.8" ry="1.8" style="stroke: #038048; stroke-width: 0.6;"/><text fill="#000000" font-family="sans-serif" font-size="6.6" lengthAdjust="spacingAndGlyphs" textLength="14.4" x="409.8" y="108.4526">add()</text><ellipse cx="404.4" cy="114.5864" fill="#84BE84" rx="1.8" ry="1.8" style="stroke: #038048; stroke-width: 0.6;"/><text fill="#000000" font-family="sans-serif" font-size="6.6" lengthAdjust="spacingAndGlyphs" textLength="27" x="409.8" y="117.4418">contains()</text><ellipse cx="404.4" cy="123.5755" fill="#84BE84" rx="1.8" ry="1.8" style="stroke: #038048; stroke-width: 0.6;"/><text fill="#000000" font-family="sans-serif" font-size="6.6" lengthAdjust="spacingAndGlyphs" text-decoration="underline" textLength="36.6" x="409.8" y="126.4309">getInstance()</text><ellipse cx="404.4" cy="132.5647" fill="#84BE84" rx="1.8" ry="1.8" style="stroke: #038048; stroke-width: 0.6;"/><text fill="#000000" font-family="sans-serif" font-size="6.6" lengthAdjust="spacingAndGlyphs" textLength="27.6" x="409.8" y="135.42">getUnita()</text><ellipse cx="404.4" cy="141.5538" fill="#84BE84" rx="1.8" ry="1.8" style="stroke: #038048; stroke-width: 0.6;"/><text fill="#000000" font-family="sans-serif" font-size="6.6" lengthAdjust="spacingAndGlyphs" textLength="27.6" x="409.8" y="144.4092">getUnita()</text><ellipse cx="404.4" cy="150.5429" fill="#84BE84" rx="1.8" ry="1.8" style="stroke: #038048; stroke-width: 0.6;"/><text fill="#000000" font-family="sans-serif" font-size="6.6" lengthAdjust="spacingAndGlyphs" textLength="25.8" x="409.8" y="153.3983">remove()</text><ellipse cx="404.4" cy="159.5321" fill="#84BE84" rx="1.8" ry="1.8" style="stroke: #038048; stroke-width: 0.6;"/><text fill="#000000" font-family="sans-serif" font-size="6.6" lengthAdjust="spacingAndGlyphs" textLength="25.8" x="409.8" y="162.3874">remove()</text><ellipse cx="404.4" cy="168.5212" fill="#84BE84" rx="1.8" ry="1.8" style="stroke: #038048; stroke-width: 0.6;"/><text fill="#000000" font-family="sans-serif" font-size="6.6" lengthAdjust="spacingAndGlyphs" textLength="25.2" x="409.8" y="171.3766">toString()</text><rect fill="#F24D5C" height="3.6" style="stroke: #C82930; stroke-width: 0.6;" width="3.6" x="402.6" y="175.7103"/><text fill="#000000" font-family="sans-serif" font-size="6.6" lengthAdjust="spacingAndGlyphs" textLength="69" x="409.8" y="180.3657">ElencoUnitaImmobiliari()</text><!--MD5=[f026e8bbc4cdf0765818bf3378b7b221]
class src.domotix.model.util.SommarioDispositivi--><rect fill="#FEFECE" filter="url(#fldoul81dsb0w)" height="28.8" id="src.domotix.model.util.SommarioDispositivi" style="stroke: #A80036; stroke-width: 0.8999999999999999;" width="84.6" x="606.9" y="292.219"/><ellipse cx="615.9" cy="301.819" fill="#ADD1B2" rx="6.6" ry="6.6" style="stroke: #A80036; stroke-width: 0.6;"/><path d="M615.8813,305.5221 Q614.8313,305.5221 614.1469,305.0815 Q613.4719,304.6315 613.1344,303.8253 Q612.8063,303.0096 612.8063,301.9315 Q612.8063,300.7128 613.2,299.8409 Q613.5938,298.969 614.3625,298.5003 Q615.1313,298.0315 616.2563,298.0315 Q616.7906,298.0315 617.1938,298.144 Q617.5969,298.2471 618.0094,298.4534 L617.5219,299.6628 Q617.1469,299.4753 616.8188,299.4003 Q616.5,299.3253 616.2094,299.3253 Q615.5063,299.3253 615.0844,299.644 Q614.6625,299.9628 614.4844,300.5346 Q614.3063,301.1065 614.3063,301.8659 Q614.3063,303.0753 614.7375,303.6565 Q615.1687,304.2284 616.125,304.2284 Q616.4812,304.2284 616.8562,304.1346 Q617.2312,304.0409 617.7281,303.8159 L617.7281,305.1471 Q617.2875,305.3346 616.8094,305.4284 Q616.3406,305.5221 615.8813,305.5221 Z "/><text fill="#000000" font-family="sans-serif" font-size="7.2" lengthAdjust="spacingAndGlyphs" textLength="65.4" x="624.3" y="304.6126">SommarioDispositivi</text><line style="stroke: #A80036; stroke-width: 0.8999999999999999;" x1="607.5" x2="690.9" y1="311.419" y2="311.419"/><line style="stroke: #A80036; stroke-width: 0.8999999999999999;" x1="607.5" x2="690.9" y1="316.219" y2="316.219"/><polygon fill="#FFFFFF" filter="url(#fldoul81dsb0w)" points="13.2,103.519,24,103.519,28.2,118.5598,32.4,118.5598,32.4,138.4005,13.2,138.4005,13.2,103.519" style="stroke: #000000; stroke-width: 0.8999999999999999;"/><line style="stroke: #000000; stroke-width: 0.8999999999999999;" x1="13.2" x2="28.2" y1="118.5598" y2="118.5598"/><text fill="#000000" font-family="sans-serif" font-size="8.4" font-weight="bold" lengthAdjust="spacingAndGlyphs" textLength="7.2" x="15.6" y="113.6986">io</text><!--MD5=[2bab098457974428bb9cba96115d2257]
class src.domotix.model.gestioneerrori.LogErrori--><rect fill="#FEFECE" filter="url(#fldoul81dsb0w)" height="91.7239" id="src.domotix.model.gestioneerrori.LogErrori" style="stroke: #A80036; stroke-width: 0.8999999999999999;" width="82.8" x="888" y="75.019"/><ellipse cx="912.66" cy="84.619" fill="#ADD1B2" rx="6.6" ry="6.6" style="stroke: #A80036; stroke-width: 0.6;"/><path d="M912.6412,88.3221 Q911.5913,88.3221 910.9069,87.8815 Q910.2319,87.4315 909.8944,86.6253 Q909.5663,85.8096 909.5663,84.7315 Q909.5663,83.5128 909.96,82.6409 Q910.3537,81.769 911.1225,81.3003 Q911.8912,80.8315 913.0162,80.8315 Q913.5506,80.8315 913.9537,80.944 Q914.3569,81.0471 914.7694,81.2534 L914.2819,82.4628 Q913.9069,82.2753 913.5787,82.2003 Q913.26,82.1253 912.9694,82.1253 Q912.2662,82.1253 911.8444,82.444 Q911.4225,82.7628 911.2444,83.3346 Q911.0663,83.9065 911.0663,84.6659 Q911.0663,85.8753 911.4975,86.4565 Q911.9287,87.0284 912.885,87.0284 Q913.2412,87.0284 913.6162,86.9346 Q913.9912,86.8409 914.4881,86.6159 L914.4881,87.9471 Q914.0475,88.1346 913.5694,88.2284 Q913.1006,88.3221 912.6412,88.3221 Z "/><text fill="#000000" font-family="sans-serif" font-size="7.2" lengthAdjust="spacingAndGlyphs" textLength="28.8" x="924.54" y="87.4126">LogErrori</text><line style="stroke: #A80036; stroke-width: 0.8999999999999999;" x1="888.6" x2="970.2" y1="94.219" y2="94.219"/><rect fill="none" height="3.6" style="stroke: #C82930; stroke-width: 0.6;" width="3.6" x="892.8" y="99.019"/><text fill="#000000" font-family="sans-serif" font-size="6.6" lengthAdjust="spacingAndGlyphs" textLength="67.2" x="900" y="103.6744">errori : ArrayList&lt;String&gt;</text><rect fill="none" height="3.6" style="stroke: #C82930; stroke-width: 0.6;" width="3.6" x="892.8" y="108.0081"/><text fill="#000000" font-family="sans-serif" font-size="6.6" lengthAdjust="spacingAndGlyphs" text-decoration="underline" textLength="52.8" x="900" y="112.6635">instance : LogErrori</text><line style="stroke: #A80036; stroke-width: 0.8999999999999999;" x1="888.6" x2="970.2" y1="116.9973" y2="116.9973"/><ellipse cx="894.6" cy="123.5973" fill="#84BE84" rx="1.8" ry="1.8" style="stroke: #038048; stroke-width: 0.6;"/><text fill="#000000" font-family="sans-serif" font-size="6.6" lengthAdjust="spacingAndGlyphs" textLength="29.4" x="900" y="126.4526">LogErrori()</text><ellipse cx="894.6" cy="132.5864" fill="#84BE84" rx="1.8" ry="1.8" style="stroke: #038048; stroke-width: 0.6;"/><text fill="#000000" font-family="sans-serif" font-size="6.6" lengthAdjust="spacingAndGlyphs" textLength="17.4" x="900" y="135.4418">clear()</text><ellipse cx="894.6" cy="141.5755" fill="#84BE84" rx="1.8" ry="1.8" style="stroke: #038048; stroke-width: 0.6;"/><text fill="#000000" font-family="sans-serif" font-size="6.6" lengthAdjust="spacingAndGlyphs" text-decoration="underline" textLength="36.6" x="900" y="144.4309">getInstance()</text><ellipse cx="894.6" cy="150.5647" fill="#84BE84" rx="1.8" ry="1.8" style="stroke: #038048; stroke-width: 0.6;"/><text fill="#000000" font-family="sans-serif" font-size="6.6" lengthAdjust="spacingAndGlyphs" textLength="21" x="900" y="153.42">popAll()</text><ellipse cx="894.6" cy="159.5538" fill="#84BE84" rx="1.8" ry="1.8" style="stroke: #038048; stroke-width: 0.6;"/><text fill="#000000" font-family="sans-serif" font-size="6.6" lengthAdjust="spacingAndGlyphs" textLength="12.6" x="900" y="162.4092">put()</text><!--MD5=[e1aef0964c9b4c5631b0ab81c7a9970f]
class src.domotix.model.gestioneerrori.StoreIstanzeErrori--><rect fill="#FEFECE" filter="url(#fldoul81dsb0w)" height="91.7239" id="src.domotix.model.gestioneerrori.StoreIstanzeErrori" style="stroke: #A80036; stroke-width: 0.8999999999999999;" width="102.6" x="764.1" y="75.019"/><ellipse cx="785.79" cy="84.619" fill="#ADD1B2" rx="6.6" ry="6.6" style="stroke: #A80036; stroke-width: 0.6;"/><path d="M785.7713,88.3221 Q784.7213,88.3221 784.0369,87.8815 Q783.3619,87.4315 783.0244,86.6253 Q782.6963,85.8096 782.6963,84.7315 Q782.6963,83.5128 783.09,82.6409 Q783.4838,81.769 784.2525,81.3003 Q785.0213,80.8315 786.1463,80.8315 Q786.6806,80.8315 787.0838,80.944 Q787.4869,81.0471 787.8994,81.2534 L787.4119,82.4628 Q787.0369,82.2753 786.7088,82.2003 Q786.39,82.1253 786.0994,82.1253 Q785.3963,82.1253 784.9744,82.444 Q784.5525,82.7628 784.3744,83.3346 Q784.1963,83.9065 784.1963,84.6659 Q784.1963,85.8753 784.6275,86.4565 Q785.0588,87.0284 786.015,87.0284 Q786.3713,87.0284 786.7463,86.9346 Q787.1213,86.8409 787.6181,86.6159 L787.6181,87.9471 Q787.1775,88.1346 786.6994,88.2284 Q786.2306,88.3221 785.7713,88.3221 Z "/><text fill="#000000" font-family="sans-serif" font-size="7.2" lengthAdjust="spacingAndGlyphs" textLength="55.2" x="797.01" y="87.4126">StoreIstanzeErrori</text><line style="stroke: #A80036; stroke-width: 0.8999999999999999;" x1="764.7" x2="866.1" y1="94.219" y2="94.219"/><rect fill="none" height="3.6" style="stroke: #C82930; stroke-width: 0.6;" width="3.6" x="768.9" y="99.019"/><text fill="#000000" font-family="sans-serif" font-size="6.6" lengthAdjust="spacingAndGlyphs" textLength="87" x="776.1" y="103.6744">entita : HashMap&lt;String, Class&gt;</text><rect fill="none" height="3.6" style="stroke: #C82930; stroke-width: 0.6;" width="3.6" x="768.9" y="108.0081"/><text fill="#000000" font-family="sans-serif" font-size="6.6" lengthAdjust="spacingAndGlyphs" text-decoration="underline" textLength="78" x="776.1" y="112.6635">instance : StoreIstanzeErrori</text><line style="stroke: #A80036; stroke-width: 0.8999999999999999;" x1="764.7" x2="866.1" y1="116.9973" y2="116.9973"/><ellipse cx="770.7" cy="123.5973" fill="#84BE84" rx="1.8" ry="1.8" style="stroke: #038048; stroke-width: 0.6;"/><text fill="#000000" font-family="sans-serif" font-size="6.6" lengthAdjust="spacingAndGlyphs" textLength="54.6" x="776.1" y="126.4526">StoreIstanzeErrori()</text><ellipse cx="770.7" cy="132.5864" fill="#84BE84" rx="1.8" ry="1.8" style="stroke: #038048; stroke-width: 0.6;"/><text fill="#000000" font-family="sans-serif" font-size="6.6" lengthAdjust="spacingAndGlyphs" textLength="17.4" x="776.1" y="135.4418">clear()</text><ellipse cx="770.7" cy="141.5755" fill="#84BE84" rx="1.8" ry="1.8" style="stroke: #038048; stroke-width: 0.6;"/><text fill="#000000" font-family="sans-serif" font-size="6.6" lengthAdjust="spacingAndGlyphs" text-decoration="underline" textLength="36.6" x="776.1" y="144.4309">getInstance()</text><ellipse cx="770.7" cy="150.5647" fill="#84BE84" rx="1.8" ry="1.8" style="stroke: #038048; stroke-width: 0.6;"/><text fill="#000000" font-family="sans-serif" font-size="6.6" lengthAdjust="spacingAndGlyphs" textLength="21" x="776.1" y="153.42">popAll()</text><ellipse cx="770.7" cy="159.5538" fill="#84BE84" rx="1.8" ry="1.8" style="stroke: #038048; stroke-width: 0.6;"/><text fill="#000000" font-family="sans-serif" font-size="6.6" lengthAdjust="spacingAndGlyphs" textLength="12.6" x="776.1" y="162.4092">put()</text><!--MD5=[fee1f461644b36a0574e21f0c156ea59]
class src.domotix.model.bean.UnitaImmobiliare--><rect fill="#FEFECE" filter="url(#fldoul81dsb0w)" height="28.8" id="src.domotix.model.bean.UnitaImmobiliare" style="stroke: #A80036; stroke-width: 0.8999999999999999;" width="75" x="360.9" y="292.219"/><ellipse cx="369.9" cy="301.819" fill="#ADD1B2" rx="6.6" ry="6.6" style="stroke: #A80036; stroke-width: 0.6;"/><path d="M369.8812,305.5221 Q368.8313,305.5221 368.1469,305.0815 Q367.4719,304.6315 367.1344,303.8253 Q366.8063,303.0096 366.8063,301.9315 Q366.8063,300.7128 367.2,299.8409 Q367.5938,298.969 368.3625,298.5003 Q369.1312,298.0315 370.2562,298.0315 Q370.7906,298.0315 371.1937,298.144 Q371.5969,298.2471 372.0094,298.4534 L371.5219,299.6628 Q371.1469,299.4753 370.8187,299.4003 Q370.5,299.3253 370.2094,299.3253 Q369.5062,299.3253 369.0844,299.644 Q368.6625,299.9628 368.4844,300.5346 Q368.3063,301.1065 368.3063,301.8659 Q368.3063,303.0753 368.7375,303.6565 Q369.1688,304.2284 370.125,304.2284 Q370.4813,304.2284 370.8563,304.1346 Q371.2313,304.0409 371.7281,303.8159 L371.7281,305.1471 Q371.2875,305.3346 370.8094,305.4284 Q370.3406,305.5221 369.8812,305.5221 Z "/><text fill="#000000" font-family="sans-serif" font-size="7.2" lengthAdjust="spacingAndGlyphs" textLength="55.8" x="378.3" y="304.6126">UnitaImmobiliare</text><line style="stroke: #A80036; stroke-width: 0.8999999999999999;" x1="361.5" x2="435.3" y1="311.419" y2="311.419"/><line style="stroke: #A80036; stroke-width: 0.8999999999999999;" x1="361.5" x2="435.3" y1="316.219" y2="316.219"/><!--MD5=[6560fd6f3318f918a0970b00832c4e2e]
class src.domotix.model.bean.device.CategoriaAttuatore--><rect fill="#FEFECE" filter="url(#fldoul81dsb0w)" height="28.8" id="src.domotix.model.bean.device.CategoriaAttuatore" style="stroke: #A80036; stroke-width: 0.8999999999999999;" width="78.6" x="261.3" y="292.219"/><ellipse cx="270.3" cy="301.819" fill="#ADD1B2" rx="6.6" ry="6.6" style="stroke: #A80036; stroke-width: 0.6;"/><path d="M270.2813,305.5221 Q269.2313,305.5221 268.5469,305.0815 Q267.8719,304.6315 267.5344,303.8253 Q267.2063,303.0096 267.2063,301.9315 Q267.2063,300.7128 267.6,299.8409 Q267.9938,298.969 268.7625,298.5003 Q269.5313,298.0315 270.6563,298.0315 Q271.1906,298.0315 271.5938,298.144 Q271.9969,298.2471 272.4094,298.4534 L271.9219,299.6628 Q271.5469,299.4753 271.2188,299.4003 Q270.9,299.3253 270.6094,299.3253 Q269.9063,299.3253 269.4844,299.644 Q269.0625,299.9628 268.8844,300.5346 Q268.7063,301.1065 268.7063,301.8659 Q268.7063,303.0753 269.1375,303.6565 Q269.5687,304.2284 270.525,304.2284 Q270.8812,304.2284 271.2562,304.1346 Q271.6312,304.0409 272.1281,303.8159 L272.1281,305.1471 Q271.6875,305.3346 271.2094,305.4284 Q270.7406,305.5221 270.2813,305.5221 Z "/><text fill="#000000" font-family="sans-serif" font-size="7.2" lengthAdjust="spacingAndGlyphs" textLength="59.4" x="278.7" y="304.6126">CategoriaAttuatore</text><line style="stroke: #A80036; stroke-width: 0.8999999999999999;" x1="261.9" x2="339.3" y1="311.419" y2="311.419"/><line style="stroke: #A80036; stroke-width: 0.8999999999999999;" x1="261.9" x2="339.3" y1="316.219" y2="316.219"/><!--MD5=[707552fc0b7e96869f010eaeac4db4bf]
class src.domotix.model.bean.device.CategoriaSensore--><rect fill="#FEFECE" filter="url(#fldoul81dsb0w)" height="28.8" id="src.domotix.model.bean.device.CategoriaSensore" style="stroke: #A80036; stroke-width: 0.8999999999999999;" width="73.8" x="166.5" y="292.219"/><ellipse cx="175.5" cy="301.819" fill="#ADD1B2" rx="6.6" ry="6.6" style="stroke: #A80036; stroke-width: 0.6;"/><path d="M175.4813,305.5221 Q174.4313,305.5221 173.7469,305.0815 Q173.0719,304.6315 172.7344,303.8253 Q172.4063,303.0096 172.4063,301.9315 Q172.4063,300.7128 172.8,299.8409 Q173.1938,298.969 173.9625,298.5003 Q174.7313,298.0315 175.8563,298.0315 Q176.3906,298.0315 176.7938,298.144 Q177.1969,298.2471 177.6094,298.4534 L177.1219,299.6628 Q176.7469,299.4753 176.4188,299.4003 Q176.1,299.3253 175.8094,299.3253 Q175.1063,299.3253 174.6844,299.644 Q174.2625,299.9628 174.0844,300.5346 Q173.9063,301.1065 173.9063,301.8659 Q173.9063,303.0753 174.3375,303.6565 Q174.7687,304.2284 175.725,304.2284 Q176.0812,304.2284 176.4562,304.1346 Q176.8312,304.0409 177.3281,303.8159 L177.3281,305.1471 Q176.8875,305.3346 176.4094,305.4284 Q175.9406,305.5221 175.4813,305.5221 Z "/><text fill="#000000" font-family="sans-serif" font-size="7.2" lengthAdjust="spacingAndGlyphs" textLength="54.6" x="183.9" y="304.6126">CategoriaSensore</text><line style="stroke: #A80036; stroke-width: 0.8999999999999999;" x1="167.1" x2="239.7" y1="311.419" y2="311.419"/><line style="stroke: #A80036; stroke-width: 0.8999999999999999;" x1="167.1" x2="239.7" y1="316.219" y2="316.219"/><!--MD5=[ce1f3a0b44d3344f945826b076ffc3cf]
link src.domotix.model.ElencoAttuatori to src.domotix.model.util.SommarioDispositivi--><path d="M608.6497,162.3626 C618.821,198.5468 633.2678,249.9408 641.8907,280.6166 " fill="none" id="src.domotix.model.ElencoAttuatori-&gt;src.domotix.model.util.SommarioDispositivi" style="stroke: #A80036; stroke-width: 0.6;"/><polygon fill="none" points="645.9445,279.5173,645.1486,292.2062,637.8579,281.7905,645.9445,279.5173" style="stroke: #A80036; stroke-width: 0.6;"/><!--MD5=[3cd964a3c1097d11d9d1557838753124]
link src.domotix.model.ElencoSensori to src.domotix.model.util.SommarioDispositivi--><path d="M690.2164,162.3626 C679.9281,198.5468 665.3153,249.9408 656.5933,280.6166 " fill="none" id="src.domotix.model.ElencoSensori-&gt;src.domotix.model.util.SommarioDispositivi" style="stroke: #A80036; stroke-width: 0.6;"/><polygon fill="none" points="660.6198,281.8124,653.298,292.2062,652.54,279.515,660.6198,281.8124" style="stroke: #A80036; stroke-width: 0.6;"/><!--MD5=[9f554375b2c6b33ae1f18104887cfc5e]
link src.domotix.model.ElencoUnitaImmobiliari to src.domotix.model.bean.UnitaImmobiliare--><path d="M440.0235,191.5967 C440.0235,191.5967 414.5542,261.9786 406.3352,284.6909 " fill="none" id="src.domotix.model.ElencoUnitaImmobiliari-src.domotix.model.bean.UnitaImmobiliare" style="stroke: #A80036; stroke-width: 0.6;"/><polygon fill="#A80036" points="403.6499,292.1115,407.7442,287.8504,404.6707,289.2905,403.2306,286.2171,403.6499,292.1115" style="stroke: #A80036; stroke-width: 0.6;"/><line style="stroke: #A80036; stroke-width: 0.6;" x1="404.6707" x2="406.3041" y1="289.2905" y2="284.777"/><polygon fill="#FFFFFF" points="442.4736,184.8264,438.9918,187.3949,440.0235,191.5967,443.5053,189.0282,442.4736,184.8264" style="stroke: #A80036; stroke-width: 0.6;"/><text fill="#000000" font-family="sans-serif" font-size="7.8" lengthAdjust="spacingAndGlyphs" textLength="18" x="429.6" y="230.3572">unita</text><text fill="#000000" font-family="sans-serif" font-size="7.8" lengthAdjust="spacingAndGlyphs" textLength="4.2" x="436.5787" y="197.8193">*</text><text fill="#000000" font-family="sans-serif" font-size="7.8" lengthAdjust="spacingAndGlyphs" textLength="4.2" x="400.2964" y="285.0371">1</text><!--MD5=[f70417355f38043970d75f4275e381a9]
link src.domotix.model.ElencoCategorieAttuatori to src.domotix.model.bean.device.CategoriaAttuatore--><path d="M300.6,187.6419 C300.6,187.6419 300.6,260.6066 300.6,284.272 " fill="none" id="src.domotix.model.ElencoCategorieAttuatori-src.domotix.model.bean.device.CategoriaAttuatore" style="stroke: #A80036; stroke-width: 0.6;"/><polygon fill="#A80036" points="300.6,292.1366,303,286.7366,300.6,289.1366,298.2,286.7366,300.6,292.1366" style="stroke: #A80036; stroke-width: 0.6;"/><line style="stroke: #A80036; stroke-width: 0.6;" x1="300.6" x2="300.6001" y1="289.1366" y2="284.3365"/><polygon fill="#FFFFFF" points="300.6,180.4419,298.2,184.0419,300.6,187.6419,303,184.0419,300.6,180.4419" style="stroke: #A80036; stroke-width: 0.6;"/><text fill="#000000" font-family="sans-serif" font-size="7.8" lengthAdjust="spacingAndGlyphs" textLength="32.4" x="301.2" y="230.3572">categorie</text><text fill="#000000" font-family="sans-serif" font-size="7.8" lengthAdjust="spacingAndGlyphs" textLength="4.2" x="296.2523" y="193.3426">*</text><text fill="#000000" font-family="sans-serif" font-size="7.8" lengthAdjust="spacingAndGlyphs" textLength="4.2" x="295.8356" y="285.0689">1</text><!--MD5=[17ded89276fa7981fb115441657ec0b0]
link src.domotix.model.ElencoCategorieSensori to src.domotix.model.bean.device.CategoriaSensore--><path d="M155.1363,187.1179 C155.1363,187.1179 185.0008,261.0626 194.6042,284.8408 " fill="none" id="src.domotix.model.ElencoCategorieSensori-src.domotix.model.bean.device.CategoriaSensore" style="stroke: #A80036; stroke-width: 0.6;"/><polygon fill="#A80036" points="197.5508,292.1366,197.7539,286.2308,196.4274,289.3549,193.3032,288.0283,197.5508,292.1366" style="stroke: #A80036; stroke-width: 0.6;"/><line style="stroke: #A80036; stroke-width: 0.6;" x1="196.4274" x2="194.6298" y1="289.3549" y2="284.9041"/><polygon fill="#FFFFFF" points="152.44,180.4419,151.5628,184.6787,155.1363,187.1179,156.0135,182.8811,152.44,180.4419" style="stroke: #A80036; stroke-width: 0.6;"/><text fill="#000000" font-family="sans-serif" font-size="7.8" lengthAdjust="spacingAndGlyphs" textLength="32.4" x="174" y="230.3572">categorie</text><text fill="#000000" font-family="sans-serif" font-size="7.8" lengthAdjust="spacingAndGlyphs" textLength="4.2" x="149.7826" y="193.3426">*</text><text fill="#000000" font-family="sans-serif" font-size="7.8" lengthAdjust="spacingAndGlyphs" textLength="4.2" x="191.2145" y="285.0689">1</text><!--MD5=[3e53c1f77f5471ef8e4a3ea9b790787f]
@startuml

title __DOMOTIX > MODEL's Class Diagram__\n

namespace src.domotix.model {
    class src.domotix.model.ElencoAttuatori {
        {static} - instance : ElencoAttuatori
        + elaboraAggiunta()
        + getDispositivi()
        + getDispositivo()
        {static} + getInstance()
        - ElencoAttuatori()
    }

    class src.domotix.model.ElencoCategorieAttuatori {
        - categorie : HashMap<String, CategoriaAttuatore>
        {static} - instance : ElencoCategorieAttuatori
        + add()
        + contains()
        + getCategoria()
        + getCategorie()
        {static} + getInstance()
        + remove()
        + remove()
        - ElencoCategorieAttuatori()
    }

    class src.domotix.model.ElencoCategorieSensori {
        - categorie : HashMap<String, CategoriaSensore>
        {static} - instance : ElencoCategorieSensori
        + add()
        + contains()
        + getCategoria()
        + getCategorie()
        {static} + getInstance()
        + remove()
        + remove()
        - ElencoCategorieSensori()
    }

    class src.domotix.model.ElencoSensori {
        {static} - instance : ElencoSensori
        + elaboraAggiunta()
        + getDispositivi()
        + getDispositivo()
        {static} + getInstance()
        - ElencoSensori()
    }

    class src.domotix.model.ElencoUnitaImmobiliari {
        {static} - instance : ElencoUnitaImmobiliari
        - unita : HashMap<String, UnitaImmobiliare>
        + add()
        + contains()
        {static} + getInstance()
        + getUnita()
        + getUnita()
        + remove()
        + remove()
        + toString()
        - ElencoUnitaImmobiliari()
    }

    namespace util {
    }

    namespace io {
    }

    namespace gestioneerrori {
        class src.domotix.model.gestioneerrori.LogErrori {
            - errori : ArrayList<String>
            {static} - instance : LogErrori
            + LogErrori()
            + clear()
            {static} + getInstance()
            + popAll()
            + put()
        }

        class src.domotix.model.gestioneerrori.StoreIstanzeErrori {
            - entita : HashMap<String, Class>
            {static} - instance : StoreIstanzeErrori
            + StoreIstanzeErrori()
            + clear()
            {static} + getInstance()
            + popAll()
            + put()
        }
    }

    namespace bean {
        namespace device {
        }
    }
}


src.domotix.model.ElencoAttuatori - -|> src.domotix.model.util.SommarioDispositivi
src.domotix.model.ElencoSensori - -|> src.domotix.model.util.SommarioDispositivi
src.domotix.model.ElencoUnitaImmobiliari "*" o- -> "1" src.domotix.model.bean.UnitaImmobiliare : unita
src.domotix.model.ElencoCategorieAttuatori "*" o- -> "1" src.domotix.model.bean.device.CategoriaAttuatore : categorie
src.domotix.model.ElencoCategorieSensori "*" o- -> "1" src.domotix.model.bean.device.CategoriaSensore : categorie


@enduml

PlantUML version 1.2019.11(Sun Sep 22 12:02:15 CEST 2019)
(GPL source distribution)
Java Runtime: OpenJDK Runtime Environment
JVM: OpenJDK 64-Bit Server VM
Java Version: 11.0.3+12-b304.10
Operating System: Linux
Default Encoding: UTF-8
Language: it
Country: IT
--></g></svg>