<?xml version="1.0" encoding="UTF-8" standalone="no"?><svg xmlns="http://www.w3.org/2000/svg" xmlns:xlink="http://www.w3.org/1999/xlink" contentScriptType="application/ecmascript" contentStyleType="text/css" height="805px" preserveAspectRatio="none" style="width:933px;height:805px;" version="1.1" viewBox="0 0 933 805" width="933px" zoomAndPan="magnify"><defs><filter height="300%" id="f1cbjvgthy21dr" width="300%" x="-1" y="-1"><feGaussianBlur result="blurOut" stdDeviation="2.0"/><feColorMatrix in="blurOut" result="blurOut2" type="matrix" values="0 0 0 0 0 0 0 0 0 0 0 0 0 0 0 0 0 0 .4 0"/><feOffset dx="4.0" dy="4.0" in="blurOut2" result="blurOut3"/><feBlend in="SourceGraphic" in2="blurOut3" mode="normal"/></filter></defs><g><text fill="#000000" font-family="sans-serif" font-size="18" lengthAdjust="spacingAndGlyphs" text-decoration="underline" textLength="351" x="293" y="19.2419">DOMOTIX &gt; MODEL &gt; UTIL's Class Diagram</text><text fill="#000000" font-family="sans-serif" font-size="18" lengthAdjust="spacingAndGlyphs" textLength="0" x="470.5" y="43.7577"/><!--MD5=[0a790ac5fdecc1ec79658b6b98c9068e]
cluster src.domotix.model--><polygon fill="#FFFFFF" filter="url(#f1cbjvgthy21dr)" points="14,65.0317,141,65.0317,148,90.0996,911,90.0996,911,793.0317,14,793.0317,14,65.0317" style="stroke: #000000; stroke-width: 1.5;"/><line style="stroke: #000000; stroke-width: 1.5;" x1="14" x2="148" y1="90.0996" y2="90.0996"/><text fill="#000000" font-family="sans-serif" font-size="14" font-weight="bold" lengthAdjust="spacingAndGlyphs" textLength="121" x="18" y="81.9976">src.domotix.model</text><!--MD5=[f07117731684c6860360b82cb7260692]
cluster src.domotix.model.util--><polygon fill="#FFFFFF" filter="url(#f1cbjvgthy21dr)" points="22,95.0317,51,95.0317,58,120.0996,777,120.0996,777,785.0317,22,785.0317,22,95.0317" style="stroke: #000000; stroke-width: 1.5;"/><line style="stroke: #000000; stroke-width: 1.5;" x1="22" x2="58" y1="120.0996" y2="120.0996"/><text fill="#000000" font-family="sans-serif" font-size="14" font-weight="bold" lengthAdjust="spacingAndGlyphs" textLength="23" x="26" y="111.9976">util</text><!--MD5=[93ef5217795d11f1e60750ff284ef631]
cluster src.domotix.model.bean--><polygon fill="#FFFFFF" filter="url(#f1cbjvgthy21dr)" points="785,412.0317,824,412.0317,831,437.0996,903,437.0996,903,536.0317,785,536.0317,785,412.0317" style="stroke: #000000; stroke-width: 1.5;"/><line style="stroke: #000000; stroke-width: 1.5;" x1="785" x2="831" y1="437.0996" y2="437.0996"/><text fill="#000000" font-family="sans-serif" font-size="14" font-weight="bold" lengthAdjust="spacingAndGlyphs" textLength="33" x="789" y="428.9976">bean</text><!--MD5=[45d783cd9aaab7322b74d5415c833713]
cluster src.domotix.model.bean.device--><polygon fill="#FFFFFF" filter="url(#f1cbjvgthy21dr)" points="793,442.0317,841,442.0317,848,467.0996,895,467.0996,895,528.0317,793,528.0317,793,442.0317" style="stroke: #000000; stroke-width: 1.5;"/><line style="stroke: #000000; stroke-width: 1.5;" x1="793" x2="848" y1="467.0996" y2="467.0996"/><text fill="#000000" font-family="sans-serif" font-size="14" font-weight="bold" lengthAdjust="spacingAndGlyphs" textLength="42" x="797" y="458.9976">device</text><!--MD5=[ad67a99d7a5cdfc63d38a667f47c3406]
class src.domotix.model.util.Costanti--><rect fill="#FEFECE" filter="url(#f1cbjvgthy21dr)" height="167.8551" id="src.domotix.model.util.Costanti" style="stroke: #A80036; stroke-width: 1.5;" width="272" x="133" y="125.0317"/><ellipse cx="243.25" cy="141.0317" fill="#ADD1B2" rx="11" ry="11" style="stroke: #A80036; stroke-width: 1.0;"/><path d="M243.2188,147.2036 Q241.4688,147.2036 240.3281,146.4692 Q239.2031,145.7192 238.6406,144.3754 Q238.0938,143.0161 238.0938,141.2192 Q238.0938,139.1879 238.75,137.7348 Q239.4063,136.2817 240.6875,135.5004 Q241.9688,134.7192 243.8438,134.7192 Q244.7344,134.7192 245.4063,134.9067 Q246.0781,135.0786 246.7656,135.4223 L245.9531,137.4379 Q245.3281,137.1254 244.7813,137.0004 Q244.25,136.8754 243.7656,136.8754 Q242.5938,136.8754 241.8906,137.4067 Q241.1875,137.9379 240.8906,138.8911 Q240.5938,139.8442 240.5938,141.1098 Q240.5938,143.1254 241.3125,144.0942 Q242.0313,145.0473 243.625,145.0473 Q244.2188,145.0473 244.8438,144.8911 Q245.4688,144.7348 246.2969,144.3598 L246.2969,146.5786 Q245.5625,146.8911 244.7656,147.0473 Q243.9844,147.2036 243.2188,147.2036 Z "/><text fill="#000000" font-family="sans-serif" font-size="12" lengthAdjust="spacingAndGlyphs" textLength="43" x="263.75" y="145.6877">Costanti</text><line style="stroke: #A80036; stroke-width: 1.5;" x1="134" x2="404" y1="157.0317" y2="157.0317"/><ellipse cx="144" cy="168.0317" fill="none" rx="3" ry="3" style="stroke: #038048; stroke-width: 1.0;"/><text fill="#000000" font-family="sans-serif" font-size="11" lengthAdjust="spacingAndGlyphs" text-decoration="underline" textLength="184" x="153" y="172.7906">PERCORSO_CARTELLA_LIBRERIA : String</text><ellipse cx="144" cy="183.0136" fill="none" rx="3" ry="3" style="stroke: #038048; stroke-width: 1.0;"/><text fill="#000000" font-family="sans-serif" font-size="11" lengthAdjust="spacingAndGlyphs" text-decoration="underline" textLength="246" x="153" y="187.7725">PERCORSO_CARTELLA_LIBRERIA_IMPORTATA : String</text><ellipse cx="144" cy="197.9955" fill="none" rx="3" ry="3" style="stroke: #038048; stroke-width: 1.0;"/><text fill="#000000" font-family="sans-serif" font-size="11" lengthAdjust="spacingAndGlyphs" text-decoration="underline" textLength="223" x="153" y="202.7544">NOME_CARTELLA_CATEGORIE_SENSORI : String</text><ellipse cx="144" cy="212.9774" fill="none" rx="3" ry="3" style="stroke: #038048; stroke-width: 1.0;"/><text fill="#000000" font-family="sans-serif" font-size="11" lengthAdjust="spacingAndGlyphs" text-decoration="underline" textLength="237" x="153" y="217.7363">NOME_CARTELLA_CATEGORIE_ATTUATORI : String</text><ellipse cx="144" cy="227.9592" fill="none" rx="3" ry="3" style="stroke: #038048; stroke-width: 1.0;"/><text fill="#000000" font-family="sans-serif" font-size="11" lengthAdjust="spacingAndGlyphs" text-decoration="underline" textLength="192" x="153" y="232.7182">NOME_CARTELLA_UNITA_IMMOB : String</text><ellipse cx="144" cy="242.9411" fill="none" rx="3" ry="3" style="stroke: #038048; stroke-width: 1.0;"/><text fill="#000000" font-family="sans-serif" font-size="11" lengthAdjust="spacingAndGlyphs" text-decoration="underline" textLength="163" x="153" y="247.7">NOME_CARTELLA_SENSORI : String</text><ellipse cx="144" cy="257.923" fill="none" rx="3" ry="3" style="stroke: #038048; stroke-width: 1.0;"/><text fill="#000000" font-family="sans-serif" font-size="11" lengthAdjust="spacingAndGlyphs" text-decoration="underline" textLength="177" x="153" y="262.6819">NOME_CARTELLA_ATTUATORI : String</text><ellipse cx="144" cy="272.9049" fill="none" rx="3" ry="3" style="stroke: #038048; stroke-width: 1.0;"/><text fill="#000000" font-family="sans-serif" font-size="11" lengthAdjust="spacingAndGlyphs" text-decoration="underline" textLength="237" x="153" y="277.6638">NOME_CARTELLA_AZIONI_PROGRAMMATE : String</text><line style="stroke: #A80036; stroke-width: 1.5;" x1="134" x2="404" y1="284.8868" y2="284.8868"/><path d="M30.5,643.0317 L30.5,776.9738 L507.5,776.9738 L507.5,653.0317 L497.5,643.0317 L30.5,643.0317 " fill="#FBFB77" filter="url(#f1cbjvgthy21dr)" style="stroke: #A80036; stroke-width: 1.0;"/><path d="M497.5,643.0317 L497.5,653.0317 L507.5,653.0317 L497.5,643.0317 " fill="#FBFB77" style="stroke: #A80036; stroke-width: 1.0;"/><text fill="#000000" font-family="sans-serif" font-size="13" lengthAdjust="spacingAndGlyphs" textLength="262" x="36.5" y="661.9287">Le costanti riguardanti i percorsi delle cartelle</text><text fill="#000000" font-family="sans-serif" font-size="13" lengthAdjust="spacingAndGlyphs" textLength="265" x="36.5" y="679.6347">sono state ristrutturate in modo da consentire</text><text fill="#000000" font-family="sans-serif" font-size="13" lengthAdjust="spacingAndGlyphs" textLength="266" x="36.5" y="697.3407">alla classe PercorsiFile la costruzione completa</text><text fill="#000000" font-family="sans-serif" font-size="13" lengthAdjust="spacingAndGlyphs" textLength="328" x="36.5" y="715.0468">sulle tre basi a disposizione: PERCORSO_CARTELLA_DATI,</text><text fill="#000000" font-family="sans-serif" font-size="13" lengthAdjust="spacingAndGlyphs" textLength="456" x="36.5" y="732.7528">PERCORSO_CARTELLA_LIBRERIA, PERCORSO_CARTELLA_LIBRERIA_IMPORTATA.</text><text fill="#000000" font-family="sans-serif" font-size="13" lengthAdjust="spacingAndGlyphs" textLength="354" x="36.5" y="750.4588">In questo senso, le costanti qui riportate come "nomi cartelle"</text><text fill="#000000" font-family="sans-serif" font-size="13" lengthAdjust="spacingAndGlyphs" textLength="262" x="36.5" y="768.1648">sostituiscono le precedenti "percorsi cartella".</text><!--MD5=[cdb04a4472d6bf6857b902bc5c6d5618]
class src.domotix.model.util.ElencoDispositivi--><rect fill="#FEFECE" filter="url(#f1cbjvgthy21dr)" height="48" id="src.domotix.model.util.ElencoDispositivi" style="stroke: #A80036; stroke-width: 1.5;" width="120" x="472" y="185.0317"/><ellipse cx="487" cy="201.0317" fill="#ADD1B2" rx="11" ry="11" style="stroke: #A80036; stroke-width: 1.0;"/><path d="M486.9688,207.2036 Q485.2188,207.2036 484.0781,206.4692 Q482.9531,205.7192 482.3906,204.3754 Q481.8438,203.0161 481.8438,201.2192 Q481.8438,199.1879 482.5,197.7348 Q483.1563,196.2817 484.4375,195.5004 Q485.7188,194.7192 487.5938,194.7192 Q488.4844,194.7192 489.1563,194.9067 Q489.8281,195.0786 490.5156,195.4223 L489.7031,197.4379 Q489.0781,197.1254 488.5313,197.0004 Q488,196.8754 487.5156,196.8754 Q486.3438,196.8754 485.6406,197.4067 Q484.9375,197.9379 484.6406,198.8911 Q484.3438,199.8442 484.3438,201.1098 Q484.3438,203.1254 485.0625,204.0942 Q485.7813,205.0473 487.375,205.0473 Q487.9688,205.0473 488.5938,204.8911 Q489.2188,204.7348 490.0469,204.3598 L490.0469,206.5786 Q489.3125,206.8911 488.5156,207.0473 Q487.7344,207.2036 486.9688,207.2036 Z "/><text fill="#000000" font-family="sans-serif" font-size="12" lengthAdjust="spacingAndGlyphs" textLength="88" x="501" y="205.6877">ElencoDispositivi</text><line style="stroke: #A80036; stroke-width: 1.5;" x1="473" x2="591" y1="217.0317" y2="217.0317"/><line style="stroke: #A80036; stroke-width: 1.5;" x1="473" x2="591" y1="225.0317" y2="225.0317"/><!--MD5=[dcc848768224420ac6dbf25ae47135f8]
class src.domotix.model.util.ObservableList--><rect fill="#FEFECE" filter="url(#f1cbjvgthy21dr)" height="48" id="src.domotix.model.util.ObservableList" style="stroke: #A80036; stroke-width: 1.5;" width="101" x="542.5" y="686.0317"/><ellipse cx="557.5" cy="702.0317" fill="#B4A7E5" rx="11" ry="11" style="stroke: #A80036; stroke-width: 1.0;"/><path d="M553.5313,708.0317 L553.5313,706.3286 L555.8906,706.0629 L555.8906,697.8598 L553.5313,697.5942 L553.5313,695.8911 L560.6719,695.8911 L560.6719,697.5942 L558.25,697.8598 L558.25,706.0629 L560.6719,706.3286 L560.6719,708.0317 L553.5313,708.0317 Z "/><text fill="#000000" font-family="sans-serif" font-size="12" font-style="italic" lengthAdjust="spacingAndGlyphs" textLength="69" x="571.5" y="706.6877">ObservableList</text><line style="stroke: #A80036; stroke-width: 1.5;" x1="543.5" x2="642.5" y1="718.0317" y2="718.0317"/><line style="stroke: #A80036; stroke-width: 1.5;" x1="543.5" x2="642.5" y1="726.0317" y2="726.0317"/><!--MD5=[c835a16e21403edc9006a215435716b9]
class src.domotix.model.util.ObserverList--><rect fill="#FEFECE" filter="url(#f1cbjvgthy21dr)" height="48" id="src.domotix.model.util.ObserverList" style="stroke: #A80036; stroke-width: 1.5;" width="90" x="679" y="686.0317"/><ellipse cx="694" cy="702.0317" fill="#B4A7E5" rx="11" ry="11" style="stroke: #A80036; stroke-width: 1.0;"/><path d="M690.0313,708.0317 L690.0313,706.3286 L692.3906,706.0629 L692.3906,697.8598 L690.0313,697.5942 L690.0313,695.8911 L697.1719,695.8911 L697.1719,697.5942 L694.75,697.8598 L694.75,706.0629 L697.1719,706.3286 L697.1719,708.0317 L690.0313,708.0317 Z "/><text fill="#000000" font-family="sans-serif" font-size="12" font-style="italic" lengthAdjust="spacingAndGlyphs" textLength="58" x="708" y="706.6877">ObserverList</text><line style="stroke: #A80036; stroke-width: 1.5;" x1="680" x2="768" y1="718.0317" y2="718.0317"/><line style="stroke: #A80036; stroke-width: 1.5;" x1="680" x2="768" y1="726.0317" y2="726.0317"/><!--MD5=[f026e8bbc4cdf0765818bf3378b7b221]
class src.domotix.model.util.SommarioDispositivi--><rect fill="#FEFECE" filter="url(#f1cbjvgthy21dr)" height="48" id="src.domotix.model.util.SommarioDispositivi" style="stroke: #A80036; stroke-width: 1.5;" width="141" x="627.5" y="185.0317"/><ellipse cx="642.5" cy="201.0317" fill="#ADD1B2" rx="11" ry="11" style="stroke: #A80036; stroke-width: 1.0;"/><path d="M642.4688,207.2036 Q640.7188,207.2036 639.5781,206.4692 Q638.4531,205.7192 637.8906,204.3754 Q637.3438,203.0161 637.3438,201.2192 Q637.3438,199.1879 638,197.7348 Q638.6563,196.2817 639.9375,195.5004 Q641.2188,194.7192 643.0938,194.7192 Q643.9844,194.7192 644.6563,194.9067 Q645.3281,195.0786 646.0156,195.4223 L645.2031,197.4379 Q644.5781,197.1254 644.0313,197.0004 Q643.5,196.8754 643.0156,196.8754 Q641.8438,196.8754 641.1406,197.4067 Q640.4375,197.9379 640.1406,198.8911 Q639.8438,199.8442 639.8438,201.1098 Q639.8438,203.1254 640.5625,204.0942 Q641.2813,205.0473 642.875,205.0473 Q643.4688,205.0473 644.0938,204.8911 Q644.7188,204.7348 645.5469,204.3598 L645.5469,206.5786 Q644.8125,206.8911 644.0156,207.0473 Q643.2344,207.2036 642.4688,207.2036 Z "/><text fill="#000000" font-family="sans-serif" font-size="12" lengthAdjust="spacingAndGlyphs" textLength="109" x="656.5" y="205.6877">SommarioDispositivi</text><line style="stroke: #A80036; stroke-width: 1.5;" x1="628.5" x2="767.5" y1="217.0317" y2="217.0317"/><line style="stroke: #A80036; stroke-width: 1.5;" x1="628.5" x2="767.5" y1="225.0317" y2="225.0317"/><!--MD5=[f67fb4e3905c8432ac91b9b41799d1a0]
class src.domotix.model.bean.device.Dispositivo--><rect fill="#FEFECE" filter="url(#f1cbjvgthy21dr)" height="48" id="src.domotix.model.bean.device.Dispositivo" style="stroke: #A80036; stroke-width: 1.5;" width="85" x="801.5" y="472.0317"/><ellipse cx="816.5" cy="488.0317" fill="#A9DCDF" rx="11" ry="11" style="stroke: #A80036; stroke-width: 1.0;"/><path d="M811.6719,493.2817 L815.0156,481.0942 L818.1563,481.0942 L821.5313,493.2817 L819.0625,493.2817 L818.3281,490.2661 L814.8125,490.2661 L814.0625,493.2817 L811.6719,493.2817 Z M816.0781,485.2348 L815.3281,488.2348 L817.8438,488.2348 L817.125,485.2348 Q816.9844,484.6567 816.8594,484.1098 Q816.7344,483.5473 816.5938,482.9692 Q816.4844,483.5473 816.3438,484.1098 Q816.2031,484.6567 816.0781,485.2348 Z "/><text fill="#000000" font-family="sans-serif" font-size="12" font-style="italic" lengthAdjust="spacingAndGlyphs" textLength="53" x="830.5" y="492.6877">Dispositivo</text><line style="stroke: #A80036; stroke-width: 1.5;" x1="802.5" x2="885.5" y1="504.0317" y2="504.0317"/><line style="stroke: #A80036; stroke-width: 1.5;" x1="802.5" x2="885.5" y1="512.0317" y2="512.0317"/><!--MD5=[9288d0047cd9687b2ebd1a122a24b4d1]
link src.domotix.model.util.Costanti to src.domotix.model.util.GMN9310--><path d="M269,293.2259 C269,316.0402 269,340.7322 269,363.5317 C269,363.5317 269,363.5317 269,581.5317 C269,601.4983 269,623.21 269,643.0061 " fill="none" id="src.domotix.model.util.Costanti-src.domotix.model.util.GMN9310" style="stroke: #A80036; stroke-width: 1.0; stroke-dasharray: 7.0,7.0;"/><!--MD5=[ef8f86d58e9373d1ef66aa0ce637b6f6]
link src.domotix.model.util.ElencoDispositivi to src.domotix.model.util.ObservableList--><path d="M539.6479,233.1018 C548.5361,263.2576 562,316.6712 562,363.5317 C562,363.5317 562,363.5317 562,581.5317 C562,610.4313 569.5013,641.993 577.124,666.6046 " fill="none" id="src.domotix.model.util.ElencoDispositivi-&gt;src.domotix.model.util.ObservableList" style="stroke: #A80036; stroke-width: 1.0; stroke-dasharray: 7.0,7.0;"/><polygon fill="none" points="583.8442,664.6294,583.5305,685.8168,570.5632,669.0582,583.8442,664.6294" style="stroke: #A80036; stroke-width: 1.0;"/><!--MD5=[68da0f5f016ac79ea1833994c05252b4]
link src.domotix.model.util.SommarioDispositivi to src.domotix.model.util.ObserverList--><path d="M691.3718,233.1712 C683.6687,263.3978 672,316.8836 672,363.5317 C672,363.5317 672,363.5317 672,581.5317 C672,611.9156 684.647,643.5836 697.4668,667.8794 " fill="none" id="src.domotix.model.util.SommarioDispositivi-&gt;src.domotix.model.util.ObserverList" style="stroke: #A80036; stroke-width: 1.0; stroke-dasharray: 7.0,7.0;"/><polygon fill="none" points="703.7518,664.7713,707.5469,685.6183,691.5798,671.688,703.7518,664.7713" style="stroke: #A80036; stroke-width: 1.0;"/><!--MD5=[efa6025492d523550858f7107db04730]
link src.domotix.model.util.ElencoDispositivi to src.domotix.model.bean.device.Dispositivo--><path d="M559.7502,242.2673 C559.7502,242.2673 592.4169,277.9247 610,293.0317 C681.3412,354.3264 717.9903,346.0293 785,412.0317 C799.6099,426.422 813.0063,444.8474 823.3283,460.7728 " fill="none" id="src.domotix.model.util.ElencoDispositivi-src.domotix.model.bean.device.Dispositivo" style="stroke: #A80036; stroke-width: 1.0;"/><polygon fill="#A80036" points="830.2743,471.8337,828.8754,462.0847,827.6152,467.5994,822.1005,466.3392,830.2743,471.8337" style="stroke: #A80036; stroke-width: 1.0;"/><line style="stroke: #A80036; stroke-width: 1.0;" x1="827.6152" x2="823.3608" y1="467.5994" y2="460.8245"/><polygon fill="#FFFFFF" points="551.8754,233.2126,552.7946,240.3649,559.7502,242.2673,558.831,235.115,551.8754,233.2126" style="stroke: #A80036; stroke-width: 1.0;"/><text fill="#000000" font-family="sans-serif" font-size="13" lengthAdjust="spacingAndGlyphs" textLength="38" x="737" y="368.9287">elenco</text><text fill="#000000" font-family="sans-serif" font-size="13" lengthAdjust="spacingAndGlyphs" textLength="7" x="548.6622" y="254.7487">*</text><text fill="#000000" font-family="sans-serif" font-size="13" lengthAdjust="spacingAndGlyphs" textLength="7" x="818.6449" y="460.038">1</text><!--MD5=[b4d333c79e3c4e8e28289dc94a1764de]
link src.domotix.model.util.SommarioDispositivi to src.domotix.model.bean.device.Dispositivo--><path d="M722.7443,243.0159 C722.7443,243.0159 771.2775,314.5977 791,354.0317 C808.3014,388.6248 823.2075,430.3069 832.7652,459.5328 " fill="none" id="src.domotix.model.util.SommarioDispositivi-src.domotix.model.bean.device.Dispositivo" style="stroke: #A80036; stroke-width: 1.0;"/><polygon fill="#A80036" points="836.7696,472.0143,837.8289,462.2226,835.2421,467.2533,830.2114,464.6665,836.7696,472.0143" style="stroke: #A80036; stroke-width: 1.0;"/><line style="stroke: #A80036; stroke-width: 1.0;" x1="835.2421" x2="832.7981" y1="467.2533" y2="459.6357"/><polygon fill="#FFFFFF" points="715.8051,233.2257,716.0113,240.4338,722.7443,243.0159,722.5381,235.8077,715.8051,233.2257" style="stroke: #A80036; stroke-width: 1.0;"/><text fill="#000000" font-family="sans-serif" font-size="13" lengthAdjust="spacingAndGlyphs" textLength="38" x="800" y="368.9287">elenco</text><text fill="#000000" font-family="sans-serif" font-size="13" lengthAdjust="spacingAndGlyphs" textLength="7" x="712.1132" y="254.7648">*</text><text fill="#000000" font-family="sans-serif" font-size="13" lengthAdjust="spacingAndGlyphs" textLength="7" x="835.7671" y="460.2671">1</text><!--MD5=[5900e741cf236f589c4c47f46eaa636b]
@startuml

title __DOMOTIX > MODEL > UTIL's Class Diagram__\n

namespace src.domotix.model {
    namespace util {
        class src.domotix.model.util.Costanti {
            {static} + PERCORSO_CARTELLA_LIBRERIA : String
            {static} + PERCORSO_CARTELLA_LIBRERIA_IMPORTATA : String
            {static} + NOME_CARTELLA_CATEGORIE_SENSORI : String
            {static} + NOME_CARTELLA_CATEGORIE_ATTUATORI : String
            {static} + NOME_CARTELLA_UNITA_IMMOB : String
            {static} + NOME_CARTELLA_SENSORI : String
            {static} + NOME_CARTELLA_ATTUATORI : String
            {static} + NOME_CARTELLA_AZIONI_PROGRAMMATE : String
        }

        note bottom of Costanti
            Le costanti riguardanti i percorsi delle cartelle
            sono state ristrutturate in modo da consentire
            alla classe PercorsiFile la costruzione completa
            sulle tre basi a disposizione: PERCORSO_CARTELLA_DATI,
            PERCORSO_CARTELLA_LIBRERIA, PERCORSO_CARTELLA_LIBRERIA_IMPORTATA.
            In questo senso, le costanti qui riportate come "nomi cartelle"
            sostituiscono le precedenti "percorsi cartella".
        end note

        class src.domotix.model.util.ElencoDispositivi {
        }

        interface src.domotix.model.util.ObservableList {
        }

        interface src.domotix.model.util.ObserverList {
        }

        class src.domotix.model.util.SommarioDispositivi {
        }
    }

    namespace bean {
        namespace device {
            abstract class Dispositivo {
            }
        }
    }
}



src.domotix.model.util.ElencoDispositivi ..|> src.domotix.model.util.ObservableList
src.domotix.model.util.SommarioDispositivi ..|> src.domotix.model.util.ObserverList
src.domotix.model.util.ElencoDispositivi "*" o- -> "1" src.domotix.model.bean.device.Dispositivo : elenco
src.domotix.model.util.SommarioDispositivi "*" o- -> "1" src.domotix.model.bean.device.Dispositivo : elenco

@enduml

PlantUML version 1.2019.11(Sun Sep 22 12:02:15 CEST 2019)
(GPL source distribution)
Java Runtime: OpenJDK Runtime Environment
JVM: OpenJDK 64-Bit Server VM
Java Version: 11.0.3+12-b304.10
Operating System: Linux
Default Encoding: UTF-8
Language: it
Country: IT
--></g></svg>