<?xml version="1.0" encoding="UTF-8" standalone="no"?><svg xmlns="http://www.w3.org/2000/svg" xmlns:xlink="http://www.w3.org/1999/xlink" contentScriptType="application/ecmascript" contentStyleType="text/css" height="644px" preserveAspectRatio="none" style="width:810px;height:644px;" version="1.1" viewBox="0 0 810 644" width="810px" zoomAndPan="magnify"><defs><filter height="300%" id="f135iucdwfudu6" width="300%" x="-1" y="-1"><feGaussianBlur result="blurOut" stdDeviation="2.0"/><feColorMatrix in="blurOut" result="blurOut2" type="matrix" values="0 0 0 0 0 0 0 0 0 0 0 0 0 0 0 0 0 0 .4 0"/><feOffset dx="4.0" dy="4.0" in="blurOut2" result="blurOut3"/><feBlend in="SourceGraphic" in2="blurOut3" mode="normal"/></filter></defs><g><text fill="#000000" font-family="sans-serif" font-size="18" lengthAdjust="spacingAndGlyphs" text-decoration="underline" textLength="351" x="231.5" y="19.2419">DOMOTIX &gt; MODEL &gt; UTIL's Class Diagram</text><text fill="#000000" font-family="sans-serif" font-size="18" lengthAdjust="spacingAndGlyphs" textLength="0" x="409" y="43.7577"/><!--MD5=[0a790ac5fdecc1ec79658b6b98c9068e]
cluster src.domotix.model--><polygon fill="#FFFFFF" filter="url(#f135iucdwfudu6)" points="14,65.0317,141,65.0317,148,90.0996,788,90.0996,788,632.0317,14,632.0317,14,65.0317" style="stroke: #000000; stroke-width: 1.5;"/><line style="stroke: #000000; stroke-width: 1.5;" x1="14" x2="148" y1="90.0996" y2="90.0996"/><text fill="#000000" font-family="sans-serif" font-size="14" font-weight="bold" lengthAdjust="spacingAndGlyphs" textLength="121" x="18" y="81.9976">src.domotix.model</text><!--MD5=[f07117731684c6860360b82cb7260692]
cluster src.domotix.model.util--><polygon fill="#FFFFFF" filter="url(#f135iucdwfudu6)" points="22,95.0317,51,95.0317,58,120.0996,654,120.0996,654,624.0317,22,624.0317,22,95.0317" style="stroke: #000000; stroke-width: 1.5;"/><line style="stroke: #000000; stroke-width: 1.5;" x1="22" x2="58" y1="120.0996" y2="120.0996"/><text fill="#000000" font-family="sans-serif" font-size="14" font-weight="bold" lengthAdjust="spacingAndGlyphs" textLength="23" x="26" y="111.9976">util</text><!--MD5=[93ef5217795d11f1e60750ff284ef631]
cluster src.domotix.model.bean--><polygon fill="#FFFFFF" filter="url(#f135iucdwfudu6)" points="662,337.0317,701,337.0317,708,362.0996,780,362.0996,780,461.0317,662,461.0317,662,337.0317" style="stroke: #000000; stroke-width: 1.5;"/><line style="stroke: #000000; stroke-width: 1.5;" x1="662" x2="708" y1="362.0996" y2="362.0996"/><text fill="#000000" font-family="sans-serif" font-size="14" font-weight="bold" lengthAdjust="spacingAndGlyphs" textLength="33" x="666" y="353.9976">bean</text><!--MD5=[45d783cd9aaab7322b74d5415c833713]
cluster src.domotix.model.bean.device--><polygon fill="#FFFFFF" filter="url(#f135iucdwfudu6)" points="670,367.0317,718,367.0317,725,392.0996,772,392.0996,772,453.0317,670,453.0317,670,367.0317" style="stroke: #000000; stroke-width: 1.5;"/><line style="stroke: #000000; stroke-width: 1.5;" x1="670" x2="725" y1="392.0996" y2="392.0996"/><text fill="#000000" font-family="sans-serif" font-size="14" font-weight="bold" lengthAdjust="spacingAndGlyphs" textLength="42" x="674" y="383.9976">device</text><!--MD5=[ad67a99d7a5cdfc63d38a667f47c3406]
class src.domotix.model.util.Costanti--><rect fill="#FEFECE" filter="url(#f135iucdwfudu6)" height="92.9457" id="src.domotix.model.util.Costanti" style="stroke: #A80036; stroke-width: 1.5;" width="284" x="362" y="125.0317"/><ellipse cx="478.25" cy="141.0317" fill="#ADD1B2" rx="11" ry="11" style="stroke: #A80036; stroke-width: 1.0;"/><path d="M478.2188,147.2036 Q476.4688,147.2036 475.3281,146.4692 Q474.2031,145.7192 473.6406,144.3754 Q473.0938,143.0161 473.0938,141.2192 Q473.0938,139.1879 473.75,137.7348 Q474.4063,136.2817 475.6875,135.5004 Q476.9688,134.7192 478.8438,134.7192 Q479.7344,134.7192 480.4063,134.9067 Q481.0781,135.0786 481.7656,135.4223 L480.9531,137.4379 Q480.3281,137.1254 479.7813,137.0004 Q479.25,136.8754 478.7656,136.8754 Q477.5938,136.8754 476.8906,137.4067 Q476.1875,137.9379 475.8906,138.8911 Q475.5938,139.8442 475.5938,141.1098 Q475.5938,143.1254 476.3125,144.0942 Q477.0313,145.0473 478.625,145.0473 Q479.2188,145.0473 479.8438,144.8911 Q480.4688,144.7348 481.2969,144.3598 L481.2969,146.5786 Q480.5625,146.8911 479.7656,147.0473 Q478.9844,147.2036 478.2188,147.2036 Z "/><text fill="#000000" font-family="sans-serif" font-size="12" lengthAdjust="spacingAndGlyphs" textLength="43" x="498.75" y="145.6877">Costanti</text><line style="stroke: #A80036; stroke-width: 1.5;" x1="363" x2="645" y1="157.0317" y2="157.0317"/><ellipse cx="373" cy="168.0317" fill="none" rx="3" ry="3" style="stroke: #038048; stroke-width: 1.0;"/><text fill="#000000" font-family="sans-serif" font-size="11" lengthAdjust="spacingAndGlyphs" text-decoration="underline" textLength="258" x="382" y="172.7906">PERCORSO_CARTELLA_AZIONI_PROGRAMMATE : String</text><ellipse cx="373" cy="183.0136" fill="none" rx="3" ry="3" style="stroke: #038048; stroke-width: 1.0;"/><text fill="#000000" font-family="sans-serif" font-size="11" lengthAdjust="spacingAndGlyphs" text-decoration="underline" textLength="245" x="382" y="187.7725">NODO_XML_INFO_SENSORIALE_TEMPORALE : String</text><ellipse cx="373" cy="197.9955" fill="none" rx="3" ry="3" style="stroke: #038048; stroke-width: 1.0;"/><text fill="#000000" font-family="sans-serif" font-size="11" lengthAdjust="spacingAndGlyphs" text-decoration="underline" textLength="166" x="382" y="202.7544">NODO_XML_AZIONE_START : String</text><line style="stroke: #A80036; stroke-width: 1.5;" x1="363" x2="645" y1="209.9774" y2="209.9774"/><!--MD5=[cdb04a4472d6bf6857b902bc5c6d5618]
class src.domotix.model.util.ElencoDispositivi--><rect fill="#FEFECE" filter="url(#f135iucdwfudu6)" height="48" id="src.domotix.model.util.ElencoDispositivi" style="stroke: #A80036; stroke-width: 1.5;" width="120" x="30" y="147.5317"/><ellipse cx="45" cy="163.5317" fill="#ADD1B2" rx="11" ry="11" style="stroke: #A80036; stroke-width: 1.0;"/><path d="M44.9688,169.7036 Q43.2188,169.7036 42.0781,168.9692 Q40.9531,168.2192 40.3906,166.8754 Q39.8438,165.5161 39.8438,163.7192 Q39.8438,161.6879 40.5,160.2348 Q41.1563,158.7817 42.4375,158.0004 Q43.7188,157.2192 45.5938,157.2192 Q46.4844,157.2192 47.1563,157.4067 Q47.8281,157.5786 48.5156,157.9223 L47.7031,159.9379 Q47.0781,159.6254 46.5313,159.5004 Q46,159.3754 45.5156,159.3754 Q44.3438,159.3754 43.6406,159.9067 Q42.9375,160.4379 42.6406,161.3911 Q42.3438,162.3442 42.3438,163.6098 Q42.3438,165.6254 43.0625,166.5942 Q43.7813,167.5473 45.375,167.5473 Q45.9688,167.5473 46.5938,167.3911 Q47.2188,167.2348 48.0469,166.8598 L48.0469,169.0786 Q47.3125,169.3911 46.5156,169.5473 Q45.7344,169.7036 44.9688,169.7036 Z "/><text fill="#000000" font-family="sans-serif" font-size="12" lengthAdjust="spacingAndGlyphs" textLength="88" x="59" y="168.1877">ElencoDispositivi</text><line style="stroke: #A80036; stroke-width: 1.5;" x1="31" x2="149" y1="179.5317" y2="179.5317"/><line style="stroke: #A80036; stroke-width: 1.5;" x1="31" x2="149" y1="187.5317" y2="187.5317"/><!--MD5=[dcc848768224420ac6dbf25ae47135f8]
class src.domotix.model.util.ObservableList--><rect fill="#FEFECE" filter="url(#f135iucdwfudu6)" height="48" id="src.domotix.model.util.ObservableList" style="stroke: #A80036; stroke-width: 1.5;" width="101" x="39.5" y="568.0317"/><ellipse cx="54.5" cy="584.0317" fill="#B4A7E5" rx="11" ry="11" style="stroke: #A80036; stroke-width: 1.0;"/><path d="M50.5313,590.0317 L50.5313,588.3286 L52.8906,588.0629 L52.8906,579.8598 L50.5313,579.5942 L50.5313,577.8911 L57.6719,577.8911 L57.6719,579.5942 L55.25,579.8598 L55.25,588.0629 L57.6719,588.3286 L57.6719,590.0317 L50.5313,590.0317 Z "/><text fill="#000000" font-family="sans-serif" font-size="12" font-style="italic" lengthAdjust="spacingAndGlyphs" textLength="69" x="68.5" y="588.6877">ObservableList</text><line style="stroke: #A80036; stroke-width: 1.5;" x1="40.5" x2="139.5" y1="600.0317" y2="600.0317"/><line style="stroke: #A80036; stroke-width: 1.5;" x1="40.5" x2="139.5" y1="608.0317" y2="608.0317"/><!--MD5=[c835a16e21403edc9006a215435716b9]
class src.domotix.model.util.ObserverList--><rect fill="#FEFECE" filter="url(#f135iucdwfudu6)" height="48" id="src.domotix.model.util.ObserverList" style="stroke: #A80036; stroke-width: 1.5;" width="90" x="211" y="568.0317"/><ellipse cx="226" cy="584.0317" fill="#B4A7E5" rx="11" ry="11" style="stroke: #A80036; stroke-width: 1.0;"/><path d="M222.0313,590.0317 L222.0313,588.3286 L224.3906,588.0629 L224.3906,579.8598 L222.0313,579.5942 L222.0313,577.8911 L229.1719,577.8911 L229.1719,579.5942 L226.75,579.8598 L226.75,588.0629 L229.1719,588.3286 L229.1719,590.0317 L222.0313,590.0317 Z "/><text fill="#000000" font-family="sans-serif" font-size="12" font-style="italic" lengthAdjust="spacingAndGlyphs" textLength="58" x="240" y="588.6877">ObserverList</text><line style="stroke: #A80036; stroke-width: 1.5;" x1="212" x2="300" y1="600.0317" y2="600.0317"/><line style="stroke: #A80036; stroke-width: 1.5;" x1="212" x2="300" y1="608.0317" y2="608.0317"/><!--MD5=[f026e8bbc4cdf0765818bf3378b7b221]
class src.domotix.model.util.SommarioDispositivi--><rect fill="#FEFECE" filter="url(#f135iucdwfudu6)" height="48" id="src.domotix.model.util.SommarioDispositivi" style="stroke: #A80036; stroke-width: 1.5;" width="141" x="185.5" y="147.5317"/><ellipse cx="200.5" cy="163.5317" fill="#ADD1B2" rx="11" ry="11" style="stroke: #A80036; stroke-width: 1.0;"/><path d="M200.4688,169.7036 Q198.7188,169.7036 197.5781,168.9692 Q196.4531,168.2192 195.8906,166.8754 Q195.3438,165.5161 195.3438,163.7192 Q195.3438,161.6879 196,160.2348 Q196.6563,158.7817 197.9375,158.0004 Q199.2188,157.2192 201.0938,157.2192 Q201.9844,157.2192 202.6563,157.4067 Q203.3281,157.5786 204.0156,157.9223 L203.2031,159.9379 Q202.5781,159.6254 202.0313,159.5004 Q201.5,159.3754 201.0156,159.3754 Q199.8438,159.3754 199.1406,159.9067 Q198.4375,160.4379 198.1406,161.3911 Q197.8438,162.3442 197.8438,163.6098 Q197.8438,165.6254 198.5625,166.5942 Q199.2813,167.5473 200.875,167.5473 Q201.4688,167.5473 202.0938,167.3911 Q202.7188,167.2348 203.5469,166.8598 L203.5469,169.0786 Q202.8125,169.3911 202.0156,169.5473 Q201.2344,169.7036 200.4688,169.7036 Z "/><text fill="#000000" font-family="sans-serif" font-size="12" lengthAdjust="spacingAndGlyphs" textLength="109" x="214.5" y="168.1877">SommarioDispositivi</text><line style="stroke: #A80036; stroke-width: 1.5;" x1="186.5" x2="325.5" y1="179.5317" y2="179.5317"/><line style="stroke: #A80036; stroke-width: 1.5;" x1="186.5" x2="325.5" y1="187.5317" y2="187.5317"/><!--MD5=[f67fb4e3905c8432ac91b9b41799d1a0]
class src.domotix.model.bean.device.Dispositivo--><rect fill="#FEFECE" filter="url(#f135iucdwfudu6)" height="48" id="src.domotix.model.bean.device.Dispositivo" style="stroke: #A80036; stroke-width: 1.5;" width="85" x="678.5" y="397.0317"/><ellipse cx="693.5" cy="413.0317" fill="#A9DCDF" rx="11" ry="11" style="stroke: #A80036; stroke-width: 1.0;"/><path d="M688.6719,418.2817 L692.0156,406.0942 L695.1563,406.0942 L698.5313,418.2817 L696.0625,418.2817 L695.3281,415.2661 L691.8125,415.2661 L691.0625,418.2817 L688.6719,418.2817 Z M693.0781,410.2348 L692.3281,413.2348 L694.8438,413.2348 L694.125,410.2348 Q693.9844,409.6567 693.8594,409.1098 Q693.7344,408.5473 693.5938,407.9692 Q693.4844,408.5473 693.3438,409.1098 Q693.2031,409.6567 693.0781,410.2348 Z "/><text fill="#000000" font-family="sans-serif" font-size="12" font-style="italic" lengthAdjust="spacingAndGlyphs" textLength="53" x="707.5" y="417.6877">Dispositivo</text><line style="stroke: #A80036; stroke-width: 1.5;" x1="679.5" x2="762.5" y1="429.0317" y2="429.0317"/><line style="stroke: #A80036; stroke-width: 1.5;" x1="679.5" x2="762.5" y1="437.0317" y2="437.0317"/><!--MD5=[ef8f86d58e9373d1ef66aa0ce637b6f6]
link src.domotix.model.util.ElencoDispositivi to src.domotix.model.util.ObservableList--><path d="M90,195.7323 C90,219.3922 90,256.4379 90,288.5317 C90,288.5317 90,288.5317 90,506.5317 C90,519.7496 90,534.1169 90,547.2348 " fill="none" id="src.domotix.model.util.ElencoDispositivi-&gt;src.domotix.model.util.ObservableList" style="stroke: #A80036; stroke-width: 1.0; stroke-dasharray: 7.0,7.0;"/><polygon fill="none" points="97.0001,547.7081,90,567.7081,83.0001,547.708,97.0001,547.7081" style="stroke: #A80036; stroke-width: 1.0;"/><!--MD5=[68da0f5f016ac79ea1833994c05252b4]
link src.domotix.model.util.SommarioDispositivi to src.domotix.model.util.ObserverList--><path d="M256,195.7323 C256,219.3922 256,256.4379 256,288.5317 C256,288.5317 256,288.5317 256,506.5317 C256,519.7496 256,534.1169 256,547.2348 " fill="none" id="src.domotix.model.util.SommarioDispositivi-&gt;src.domotix.model.util.ObserverList" style="stroke: #A80036; stroke-width: 1.0; stroke-dasharray: 7.0,7.0;"/><polygon fill="none" points="263.0001,547.7081,256,567.7081,249.0001,547.708,263.0001,547.7081" style="stroke: #A80036; stroke-width: 1.0;"/><!--MD5=[efa6025492d523550858f7107db04730]
link src.domotix.model.util.ElencoDispositivi to src.domotix.model.bean.device.Dispositivo--><path d="M135.6344,201.8081 C135.6344,201.8081 157.5066,213.7552 168,218.0317 C194.1419,228.6855 638.6603,321.152 662,337.0317 C679.5476,348.9706 693.5373,367.9806 703.4819,384.8988 " fill="none" id="src.domotix.model.util.ElencoDispositivi-src.domotix.model.bean.device.Dispositivo" style="stroke: #A80036; stroke-width: 1.0;"/><polygon fill="#A80036" points="710.0012,396.7172,709.1565,386.9046,707.5861,392.3391,702.1516,390.7688,710.0012,396.7172" style="stroke: #A80036; stroke-width: 1.0;"/><line style="stroke: #A80036; stroke-width: 1.0;" x1="707.5861" x2="703.722" y1="392.3391" y2="385.3341"/><polygon fill="#FFFFFF" points="125.3286,195.6607,128.4323,202.1697,135.6344,201.8081,132.5306,195.2992,125.3286,195.6607" style="stroke: #A80036; stroke-width: 1.0;"/><text fill="#000000" font-family="sans-serif" font-size="13" lengthAdjust="spacingAndGlyphs" textLength="38" x="508" y="293.9287">elenco</text><text fill="#000000" font-family="sans-serif" font-size="13" lengthAdjust="spacingAndGlyphs" textLength="7" x="126.0868" y="217.5971">*</text><text fill="#000000" font-family="sans-serif" font-size="13" lengthAdjust="spacingAndGlyphs" textLength="7" x="699.2859" y="385.2959">1</text><!--MD5=[b4d333c79e3c4e8e28289dc94a1764de]
link src.domotix.model.util.SommarioDispositivi to src.domotix.model.bean.device.Dispositivo--><path d="M307.2618,201.176 C307.2618,201.176 332.7252,213.528 345,218.0317 C401.8879,238.9043 420.796,228.0417 478,248.0317 C563.7565,277.9994 592.7842,278.1979 662,337.0317 C677.8435,350.4987 691.5011,369.1395 701.6741,385.4403 " fill="none" id="src.domotix.model.util.SommarioDispositivi-src.domotix.model.bean.device.Dispositivo" style="stroke: #A80036; stroke-width: 1.0;"/><polygon fill="#A80036" points="708.4472,396.7888,707.2695,387.0106,705.8847,392.4953,700.4,391.1105,708.4472,396.7888" style="stroke: #A80036; stroke-width: 1.0;"/><line style="stroke: #A80036; stroke-width: 1.0;" x1="705.8847" x2="701.7848" y1="392.4953" y2="385.6258"/><polygon fill="#FFFFFF" points="296.6363,195.5993,300.0901,201.9295,307.2618,201.176,303.8079,194.8458,296.6363,195.5993" style="stroke: #A80036; stroke-width: 1.0;"/><text fill="#000000" font-family="sans-serif" font-size="13" lengthAdjust="spacingAndGlyphs" textLength="38" x="608" y="293.9287">elenco</text><text fill="#000000" font-family="sans-serif" font-size="13" lengthAdjust="spacingAndGlyphs" textLength="7" x="298.6883" y="217.5207">*</text><text fill="#000000" font-family="sans-serif" font-size="13" lengthAdjust="spacingAndGlyphs" textLength="7" x="706.1274" y="385.3859">1</text><!--MD5=[b819ade5984c6b17d0bdb611a5bd5094]
@startuml

title __DOMOTIX > MODEL > UTIL's Class Diagram__\n

namespace src.domotix.model {
    namespace util {
        class src.domotix.model.util.Costanti {
            {static} + PERCORSO_CARTELLA_AZIONI_PROGRAMMATE : String
            {static} + NODO_XML_INFO_SENSORIALE_TEMPORALE : String
            {static} + NODO_XML_AZIONE_START : String
        }

        class src.domotix.model.util.ElencoDispositivi {
        }

        interface src.domotix.model.util.ObservableList {
        }

        interface src.domotix.model.util.ObserverList {
        }

        class src.domotix.model.util.SommarioDispositivi {
        }
    }

    namespace bean {
        namespace device {
            abstract class Dispositivo {
            }
        }
    }
}



src.domotix.model.util.ElencoDispositivi ..|> src.domotix.model.util.ObservableList
src.domotix.model.util.SommarioDispositivi ..|> src.domotix.model.util.ObserverList
src.domotix.model.util.ElencoDispositivi "*" o- -> "1" src.domotix.model.bean.device.Dispositivo : elenco
src.domotix.model.util.SommarioDispositivi "*" o- -> "1" src.domotix.model.bean.device.Dispositivo : elenco

@enduml

PlantUML version 1.2019.11(Sun Sep 22 12:02:15 CEST 2019)
(GPL source distribution)
Java Runtime: OpenJDK Runtime Environment
JVM: OpenJDK 64-Bit Server VM
Java Version: 11.0.3+12-b304.10
Operating System: Linux
Default Encoding: UTF-8
Language: it
Country: IT
--></g></svg>