<?xml version="1.0" encoding="UTF-8" standalone="no"?><svg xmlns="http://www.w3.org/2000/svg" xmlns:xlink="http://www.w3.org/1999/xlink" contentScriptType="application/ecmascript" contentStyleType="text/css" height="719.2px" preserveAspectRatio="none" style="width:633px;height:719px;" version="1.1" viewBox="0 0 633 719" width="633.6px" zoomAndPan="magnify"><defs><filter height="300%" id="f1nskvigomavxr" width="300%" x="-1" y="-1"><feGaussianBlur result="blurOut" stdDeviation="1.6"/><feColorMatrix in="blurOut" result="blurOut2" type="matrix" values="0 0 0 0 0 0 0 0 0 0 0 0 0 0 0 0 0 0 .4 0"/><feOffset dx="3.2" dy="3.2" in="blurOut2" result="blurOut3"/><feBlend in="SourceGraphic" in2="blurOut3" mode="normal"/></filter></defs><g><text fill="#000000" font-family="sans-serif" font-size="14.4" lengthAdjust="spacingAndGlyphs" text-decoration="underline" textLength="280.8" x="178" y="15.3935">DOMOTIX &gt; MODEL &gt; UTIL's Class Diagram</text><text fill="#000000" font-family="sans-serif" font-size="14.4" lengthAdjust="spacingAndGlyphs" textLength="0" x="320" y="35.0062"/><!--MD5=[0a790ac5fdecc1ec79658b6b98c9068e]
cluster src.domotix.model--><polygon fill="#FFFFFF" filter="url(#f1nskvigomavxr)" points="11.2,52.0254,112.8,52.0254,118.4,72.0797,616,72.0797,616,709.6254,11.2,709.6254,11.2,52.0254" style="stroke: #000000; stroke-width: 1.2000000000000002;"/><line style="stroke: #000000; stroke-width: 1.2000000000000002;" x1="11.2" x2="118.4" y1="72.0797" y2="72.0797"/><text fill="#000000" font-family="sans-serif" font-size="11.2" font-weight="bold" lengthAdjust="spacingAndGlyphs" textLength="96.8" x="14.4" y="65.5981">src.domotix.model</text><!--MD5=[f07117731684c6860360b82cb7260692]
cluster src.domotix.model.util--><polygon fill="#FFFFFF" filter="url(#f1nskvigomavxr)" points="17.6,76.0254,40.8,76.0254,46.4,96.0797,508.8,96.0797,508.8,703.2254,17.6,703.2254,17.6,76.0254" style="stroke: #000000; stroke-width: 1.2000000000000002;"/><line style="stroke: #000000; stroke-width: 1.2000000000000002;" x1="17.6" x2="46.4" y1="96.0797" y2="96.0797"/><text fill="#000000" font-family="sans-serif" font-size="11.2" font-weight="bold" lengthAdjust="spacingAndGlyphs" textLength="18.4" x="20.8" y="89.5981">util</text><!--MD5=[93ef5217795d11f1e60750ff284ef631]
cluster src.domotix.model.bean--><polygon fill="#FFFFFF" filter="url(#f1nskvigomavxr)" points="515.2,473.6254,546.4,473.6254,552,493.6797,609.6,493.6797,609.6,572.8254,515.2,572.8254,515.2,473.6254" style="stroke: #000000; stroke-width: 1.2000000000000002;"/><line style="stroke: #000000; stroke-width: 1.2000000000000002;" x1="515.2" x2="552" y1="493.6797" y2="493.6797"/><text fill="#000000" font-family="sans-serif" font-size="11.2" font-weight="bold" lengthAdjust="spacingAndGlyphs" textLength="26.4" x="518.4" y="487.1981">bean</text><!--MD5=[45d783cd9aaab7322b74d5415c833713]
cluster src.domotix.model.bean.device--><polygon fill="#FFFFFF" filter="url(#f1nskvigomavxr)" points="521.6,497.6254,560,497.6254,565.6,517.6797,603.2,517.6797,603.2,566.4254,521.6,566.4254,521.6,497.6254" style="stroke: #000000; stroke-width: 1.2000000000000002;"/><line style="stroke: #000000; stroke-width: 1.2000000000000002;" x1="521.6" x2="565.6" y1="517.6797" y2="517.6797"/><text fill="#000000" font-family="sans-serif" font-size="11.2" font-weight="bold" lengthAdjust="spacingAndGlyphs" textLength="33.6" x="524.8" y="511.1981">device</text><!--MD5=[ad67a99d7a5cdfc63d38a667f47c3406]
class src.domotix.model.util.Costanti--><rect fill="#FEFECE" filter="url(#f1nskvigomavxr)" height="278.1102" id="src.domotix.model.util.Costanti" style="stroke: #A80036; stroke-width: 1.2000000000000002;" width="212.8" x="289.6" y="100.0254"/><ellipse cx="375.4" cy="112.8254" fill="#ADD1B2" rx="8.8" ry="8.8" style="stroke: #A80036; stroke-width: 0.8;"/><path d="M375.375,117.7629 Q373.975,117.7629 373.0625,117.1754 Q372.1625,116.5754 371.7125,115.5004 Q371.275,114.4129 371.275,112.9754 Q371.275,111.3504 371.8,110.1879 Q372.325,109.0254 373.35,108.4004 Q374.375,107.7754 375.875,107.7754 Q376.5875,107.7754 377.125,107.9254 Q377.6625,108.0629 378.2125,108.3379 L377.5625,109.9504 Q377.0625,109.7004 376.625,109.6004 Q376.2,109.5004 375.8125,109.5004 Q374.875,109.5004 374.3125,109.9254 Q373.75,110.3504 373.5125,111.1129 Q373.275,111.8754 373.275,112.8879 Q373.275,114.5004 373.85,115.2754 Q374.425,116.0379 375.7,116.0379 Q376.175,116.0379 376.675,115.9129 Q377.175,115.7879 377.8375,115.4879 L377.8375,117.2629 Q377.25,117.5129 376.6125,117.6379 Q375.9875,117.7629 375.375,117.7629 Z "/><text fill="#000000" font-family="sans-serif" font-size="9.6" lengthAdjust="spacingAndGlyphs" textLength="34.4" x="391.8" y="116.5502">Costanti</text><line style="stroke: #A80036; stroke-width: 1.2000000000000002;" x1="290.4" x2="501.6" y1="125.6254" y2="125.6254"/><ellipse cx="298.4" cy="134.4254" fill="none" rx="2.4" ry="2.4" style="stroke: #038048; stroke-width: 0.8;"/><text fill="#000000" font-family="sans-serif" font-size="8.8" lengthAdjust="spacingAndGlyphs" text-decoration="underline" textLength="127.2" x="305.6" y="138.2325">NOME_CARTELLA_REGOLE : String</text><ellipse cx="298.4" cy="146.4109" fill="none" rx="2.4" ry="2.4" style="stroke: #038048; stroke-width: 0.8;"/><text fill="#000000" font-family="sans-serif" font-size="8.8" lengthAdjust="spacingAndGlyphs" text-decoration="underline" textLength="106.4" x="305.6" y="150.218">NODO_XML_REGOLA : String</text><ellipse cx="298.4" cy="158.3964" fill="none" rx="2.4" ry="2.4" style="stroke: #038048; stroke-width: 0.8;"/><text fill="#000000" font-family="sans-serif" font-size="8.8" lengthAdjust="spacingAndGlyphs" text-decoration="underline" textLength="118.4" x="305.6" y="162.2035">NODO_XML_REGOLA_ID : String</text><ellipse cx="298.4" cy="170.3819" fill="none" rx="2.4" ry="2.4" style="stroke: #038048; stroke-width: 0.8;"/><text fill="#000000" font-family="sans-serif" font-size="8.8" lengthAdjust="spacingAndGlyphs" text-decoration="underline" textLength="136" x="305.6" y="174.189">NODO_XML_REGOLA_STATO : String</text><ellipse cx="298.4" cy="182.3674" fill="none" rx="2.4" ry="2.4" style="stroke: #038048; stroke-width: 0.8;"/><text fill="#000000" font-family="sans-serif" font-size="8.8" lengthAdjust="spacingAndGlyphs" text-decoration="underline" textLength="132.8" x="305.6" y="186.1745">NODO_XML_ANTECEDENTE : String</text><ellipse cx="298.4" cy="194.3529" fill="none" rx="2.4" ry="2.4" style="stroke: #038048; stroke-width: 0.8;"/><text fill="#000000" font-family="sans-serif" font-size="8.8" lengthAdjust="spacingAndGlyphs" text-decoration="underline" textLength="177.6" x="305.6" y="198.16">NODO_XML_ANTECEDENTE_OPLOGICO : String</text><ellipse cx="298.4" cy="206.3384" fill="none" rx="2.4" ry="2.4" style="stroke: #038048; stroke-width: 0.8;"/><text fill="#000000" font-family="sans-serif" font-size="8.8" lengthAdjust="spacingAndGlyphs" text-decoration="underline" textLength="125.6" x="305.6" y="210.1455">NODO_XML_CONDIZIONE : String</text><ellipse cx="298.4" cy="218.3239" fill="none" rx="2.4" ry="2.4" style="stroke: #038048; stroke-width: 0.8;"/><text fill="#000000" font-family="sans-serif" font-size="8.8" lengthAdjust="spacingAndGlyphs" text-decoration="underline" textLength="172" x="305.6" y="222.1311">NODO_XML_CONDIZIONE_POSIZIONE : String</text><ellipse cx="298.4" cy="230.3094" fill="none" rx="2.4" ry="2.4" style="stroke: #038048; stroke-width: 0.8;"/><text fill="#000000" font-family="sans-serif" font-size="8.8" lengthAdjust="spacingAndGlyphs" text-decoration="underline" textLength="164.8" x="305.6" y="234.1166">NODO_XML_CONDIZIONE_SINISTRA : String</text><ellipse cx="298.4" cy="242.2949" fill="none" rx="2.4" ry="2.4" style="stroke: #038048; stroke-width: 0.8;"/><text fill="#000000" font-family="sans-serif" font-size="8.8" lengthAdjust="spacingAndGlyphs" text-decoration="underline" textLength="160" x="305.6" y="246.1021">NODO_XML_CONDIZIONE_DESTRA : String</text><ellipse cx="298.4" cy="254.2805" fill="none" rx="2.4" ry="2.4" style="stroke: #038048; stroke-width: 0.8;"/><text fill="#000000" font-family="sans-serif" font-size="8.8" lengthAdjust="spacingAndGlyphs" text-decoration="underline" textLength="176" x="305.6" y="258.0876">NODO_XML_CONDIZIONE_OPERATORE : String</text><ellipse cx="298.4" cy="266.266" fill="none" rx="2.4" ry="2.4" style="stroke: #038048; stroke-width: 0.8;"/><text fill="#000000" font-family="sans-serif" font-size="8.8" lengthAdjust="spacingAndGlyphs" text-decoration="underline" textLength="145.6" x="305.6" y="270.0731">NODO_XML_INFO_SENSORIALE : String</text><ellipse cx="298.4" cy="278.2515" fill="none" rx="2.4" ry="2.4" style="stroke: #038048; stroke-width: 0.8;"/><text fill="#000000" font-family="sans-serif" font-size="8.8" lengthAdjust="spacingAndGlyphs" text-decoration="underline" textLength="185.6" x="305.6" y="282.0586">NODO_XML_INFO_SENSORIALE_SENSORE : String</text><ellipse cx="298.4" cy="290.237" fill="none" rx="2.4" ry="2.4" style="stroke: #038048; stroke-width: 0.8;"/><text fill="#000000" font-family="sans-serif" font-size="8.8" lengthAdjust="spacingAndGlyphs" text-decoration="underline" textLength="192" x="305.6" y="294.0441">NODO_XML_INFO_SENSORIALE_INFO_RILEV : String</text><ellipse cx="298.4" cy="302.2225" fill="none" rx="2.4" ry="2.4" style="stroke: #038048; stroke-width: 0.8;"/><text fill="#000000" font-family="sans-serif" font-size="8.8" lengthAdjust="spacingAndGlyphs" text-decoration="underline" textLength="191.2" x="305.6" y="306.0296">NODO_XML_INFO_SENSORIALE_COSTANTE : String</text><ellipse cx="298.4" cy="314.208" fill="none" rx="2.4" ry="2.4" style="stroke: #038048; stroke-width: 0.8;"/><text fill="#000000" font-family="sans-serif" font-size="8.8" lengthAdjust="spacingAndGlyphs" text-decoration="underline" textLength="135.2" x="305.6" y="318.0151">NODO_XML_CONSEGUENTE : String</text><ellipse cx="298.4" cy="326.1935" fill="none" rx="2.4" ry="2.4" style="stroke: #038048; stroke-width: 0.8;"/><text fill="#000000" font-family="sans-serif" font-size="8.8" lengthAdjust="spacingAndGlyphs" text-decoration="underline" textLength="104.8" x="305.6" y="330.0006">NODO_XML_AZIONE : String</text><ellipse cx="298.4" cy="338.179" fill="none" rx="2.4" ry="2.4" style="stroke: #038048; stroke-width: 0.8;"/><text fill="#000000" font-family="sans-serif" font-size="8.8" lengthAdjust="spacingAndGlyphs" text-decoration="underline" textLength="156" x="305.6" y="341.9862">NODO_XML_AZIONE_ATTUATORE : String</text><ellipse cx="298.4" cy="350.1645" fill="none" rx="2.4" ry="2.4" style="stroke: #038048; stroke-width: 0.8;"/><text fill="#000000" font-family="sans-serif" font-size="8.8" lengthAdjust="spacingAndGlyphs" text-decoration="underline" textLength="150.4" x="305.6" y="353.9717">NODO_XML_AZIONE_MODALITA : String</text><ellipse cx="298.4" cy="362.15" fill="none" rx="2.4" ry="2.4" style="stroke: #038048; stroke-width: 0.8;"/><text fill="#000000" font-family="sans-serif" font-size="8.8" lengthAdjust="spacingAndGlyphs" text-decoration="underline" textLength="156.8" x="305.6" y="365.9572">NODO_XML_AZIONE_PARAMETRO : String</text><line style="stroke: #A80036; stroke-width: 1.2000000000000002;" x1="290.4" x2="501.6" y1="371.7356" y2="371.7356"/><!--MD5=[cdb04a4472d6bf6857b902bc5c6d5618]
class src.domotix.model.util.ElencoDispositivi--><rect fill="#FEFECE" filter="url(#f1nskvigomavxr)" height="38.4" id="src.domotix.model.util.ElencoDispositivi" style="stroke: #A80036; stroke-width: 1.2000000000000002;" width="96" x="24" y="220.0254"/><ellipse cx="36" cy="232.8254" fill="#ADD1B2" rx="8.8" ry="8.8" style="stroke: #A80036; stroke-width: 0.8;"/><path d="M35.975,237.7629 Q34.575,237.7629 33.6625,237.1754 Q32.7625,236.5754 32.3125,235.5004 Q31.875,234.4129 31.875,232.9754 Q31.875,231.3504 32.4,230.1879 Q32.925,229.0254 33.95,228.4004 Q34.975,227.7754 36.475,227.7754 Q37.1875,227.7754 37.725,227.9254 Q38.2625,228.0629 38.8125,228.3379 L38.1625,229.9504 Q37.6625,229.7004 37.225,229.6004 Q36.8,229.5004 36.4125,229.5004 Q35.475,229.5004 34.9125,229.9254 Q34.35,230.3504 34.1125,231.1129 Q33.875,231.8754 33.875,232.8879 Q33.875,234.5004 34.45,235.2754 Q35.025,236.0379 36.3,236.0379 Q36.775,236.0379 37.275,235.9129 Q37.775,235.7879 38.4375,235.4879 L38.4375,237.2629 Q37.85,237.5129 37.2125,237.6379 Q36.5875,237.7629 35.975,237.7629 Z "/><text fill="#000000" font-family="sans-serif" font-size="9.6" lengthAdjust="spacingAndGlyphs" textLength="70.4" x="47.2" y="236.5502">ElencoDispositivi</text><line style="stroke: #A80036; stroke-width: 1.2000000000000002;" x1="24.8" x2="119.2" y1="245.6254" y2="245.6254"/><line style="stroke: #A80036; stroke-width: 1.2000000000000002;" x1="24.8" x2="119.2" y1="252.0254" y2="252.0254"/><!--MD5=[dcc848768224420ac6dbf25ae47135f8]
class src.domotix.model.util.ObservableList--><rect fill="#FEFECE" filter="url(#f1nskvigomavxr)" height="38.4" id="src.domotix.model.util.ObservableList" style="stroke: #A80036; stroke-width: 1.2000000000000002;" width="80.8" x="31.6" y="658.4254"/><ellipse cx="43.6" cy="671.2254" fill="#B4A7E5" rx="8.8" ry="8.8" style="stroke: #A80036; stroke-width: 0.8;"/><path d="M40.425,676.0254 L40.425,674.6629 L42.3125,674.4504 L42.3125,667.8879 L40.425,667.6754 L40.425,666.3129 L46.1375,666.3129 L46.1375,667.6754 L44.2,667.8879 L44.2,674.4504 L46.1375,674.6629 L46.1375,676.0254 L40.425,676.0254 Z "/><text fill="#000000" font-family="sans-serif" font-size="9.6" font-style="italic" lengthAdjust="spacingAndGlyphs" textLength="55.2" x="54.8" y="674.9502">ObservableList</text><line style="stroke: #A80036; stroke-width: 1.2000000000000002;" x1="32.4" x2="111.6" y1="684.0254" y2="684.0254"/><line style="stroke: #A80036; stroke-width: 1.2000000000000002;" x1="32.4" x2="111.6" y1="690.4254" y2="690.4254"/><!--MD5=[c835a16e21403edc9006a215435716b9]
class src.domotix.model.util.ObserverList--><rect fill="#FEFECE" filter="url(#f1nskvigomavxr)" height="38.4" id="src.domotix.model.util.ObserverList" style="stroke: #A80036; stroke-width: 1.2000000000000002;" width="72" x="168.8" y="658.4254"/><ellipse cx="180.8" cy="671.2254" fill="#B4A7E5" rx="8.8" ry="8.8" style="stroke: #A80036; stroke-width: 0.8;"/><path d="M177.625,676.0254 L177.625,674.6629 L179.5125,674.4504 L179.5125,667.8879 L177.625,667.6754 L177.625,666.3129 L183.3375,666.3129 L183.3375,667.6754 L181.4,667.8879 L181.4,674.4504 L183.3375,674.6629 L183.3375,676.0254 L177.625,676.0254 Z "/><text fill="#000000" font-family="sans-serif" font-size="9.6" font-style="italic" lengthAdjust="spacingAndGlyphs" textLength="46.4" x="192" y="674.9502">ObserverList</text><line style="stroke: #A80036; stroke-width: 1.2000000000000002;" x1="169.6" x2="240" y1="684.0254" y2="684.0254"/><line style="stroke: #A80036; stroke-width: 1.2000000000000002;" x1="169.6" x2="240" y1="690.4254" y2="690.4254"/><!--MD5=[f026e8bbc4cdf0765818bf3378b7b221]
class src.domotix.model.util.SommarioDispositivi--><rect fill="#FEFECE" filter="url(#f1nskvigomavxr)" height="38.4" id="src.domotix.model.util.SommarioDispositivi" style="stroke: #A80036; stroke-width: 1.2000000000000002;" width="112.8" x="148.4" y="220.0254"/><ellipse cx="160.4" cy="232.8254" fill="#ADD1B2" rx="8.8" ry="8.8" style="stroke: #A80036; stroke-width: 0.8;"/><path d="M160.375,237.7629 Q158.975,237.7629 158.0625,237.1754 Q157.1625,236.5754 156.7125,235.5004 Q156.275,234.4129 156.275,232.9754 Q156.275,231.3504 156.8,230.1879 Q157.325,229.0254 158.35,228.4004 Q159.375,227.7754 160.875,227.7754 Q161.5875,227.7754 162.125,227.9254 Q162.6625,228.0629 163.2125,228.3379 L162.5625,229.9504 Q162.0625,229.7004 161.625,229.6004 Q161.2,229.5004 160.8125,229.5004 Q159.875,229.5004 159.3125,229.9254 Q158.75,230.3504 158.5125,231.1129 Q158.275,231.8754 158.275,232.8879 Q158.275,234.5004 158.85,235.2754 Q159.425,236.0379 160.7,236.0379 Q161.175,236.0379 161.675,235.9129 Q162.175,235.7879 162.8375,235.4879 L162.8375,237.2629 Q162.25,237.5129 161.6125,237.6379 Q160.9875,237.7629 160.375,237.7629 Z "/><text fill="#000000" font-family="sans-serif" font-size="9.6" lengthAdjust="spacingAndGlyphs" textLength="87.2" x="171.6" y="236.5502">SommarioDispositivi</text><line style="stroke: #A80036; stroke-width: 1.2000000000000002;" x1="149.2" x2="260.4" y1="245.6254" y2="245.6254"/><line style="stroke: #A80036; stroke-width: 1.2000000000000002;" x1="149.2" x2="260.4" y1="252.0254" y2="252.0254"/><!--MD5=[f67fb4e3905c8432ac91b9b41799d1a0]
class src.domotix.model.bean.device.Dispositivo--><rect fill="#FEFECE" filter="url(#f1nskvigomavxr)" height="38.4" id="src.domotix.model.bean.device.Dispositivo" style="stroke: #A80036; stroke-width: 1.2000000000000002;" width="68" x="528.4" y="521.6254"/><ellipse cx="540.4" cy="534.4254" fill="#A9DCDF" rx="8.8" ry="8.8" style="stroke: #A80036; stroke-width: 0.8;"/><path d="M536.5375,538.6254 L539.2125,528.8754 L541.725,528.8754 L544.425,538.6254 L542.45,538.6254 L541.8625,536.2129 L539.05,536.2129 L538.45,538.6254 L536.5375,538.6254 Z M540.0625,532.1879 L539.4625,534.5879 L541.475,534.5879 L540.9,532.1879 Q540.7875,531.7254 540.6875,531.2879 Q540.5875,530.8379 540.475,530.3754 Q540.3875,530.8379 540.275,531.2879 Q540.1625,531.7254 540.0625,532.1879 Z "/><text fill="#000000" font-family="sans-serif" font-size="9.6" font-style="italic" lengthAdjust="spacingAndGlyphs" textLength="42.4" x="551.6" y="538.1502">Dispositivo</text><line style="stroke: #A80036; stroke-width: 1.2000000000000002;" x1="529.2" x2="595.6" y1="547.2254" y2="547.2254"/><line style="stroke: #A80036; stroke-width: 1.2000000000000002;" x1="529.2" x2="595.6" y1="553.6254" y2="553.6254"/><!--MD5=[ef8f86d58e9373d1ef66aa0ce637b6f6]
link src.domotix.model.util.ElencoDispositivi to src.domotix.model.util.ObservableList--><path d="M72,258.6591 C72,293.8121 72,370.3046 72,434.8254 C72,434.8254 72,434.8254 72,609.2254 C72,619.7997 72,631.2935 72,641.7878 " fill="none" id="src.domotix.model.util.ElencoDispositivi-&gt;src.domotix.model.util.ObservableList" style="stroke: #A80036; stroke-width: 0.8; stroke-dasharray: 7.0,7.0;"/><polygon fill="none" points="77.6001,642.1665,72,658.1665,66.4001,642.1664,77.6001,642.1665" style="stroke: #A80036; stroke-width: 0.8;"/><!--MD5=[68da0f5f016ac79ea1833994c05252b4]
link src.domotix.model.util.SommarioDispositivi to src.domotix.model.util.ObserverList--><path d="M204.8,258.6591 C204.8,293.8121 204.8,370.3046 204.8,434.8254 C204.8,434.8254 204.8,434.8254 204.8,609.2254 C204.8,619.7997 204.8,631.2935 204.8,641.7878 " fill="none" id="src.domotix.model.util.SommarioDispositivi-&gt;src.domotix.model.util.ObserverList" style="stroke: #A80036; stroke-width: 0.8; stroke-dasharray: 7.0,7.0;"/><polygon fill="none" points="210.4001,642.1665,204.8,658.1665,199.2001,642.1664,210.4001,642.1665" style="stroke: #A80036; stroke-width: 0.8;"/><!--MD5=[efa6025492d523550858f7107db04730]
link src.domotix.model.util.ElencoDispositivi to src.domotix.model.bean.device.Dispositivo--><path d="M77.1733,268.0276 C77.1733,268.0276 100.908,350.3766 134.4,378.4254 C151.1182,392.4265 497.2235,461.2814 515.2,473.6254 C529.1969,483.2366 540.3858,498.4489 548.3502,511.9707 " fill="none" id="src.domotix.model.util.ElencoDispositivi-src.domotix.model.bean.device.Dispositivo" style="stroke: #A80036; stroke-width: 0.8;"/><polygon fill="#A80036" points="553.5736,521.4137,552.8887,513.5644,551.6375,517.9135,547.2884,516.6622,553.5736,521.4137" style="stroke: #A80036; stroke-width: 0.8;"/><line style="stroke: #A80036; stroke-width: 0.8;" x1="551.6375" x2="548.5396" y1="517.9135" y2="512.3132"/><polygon fill="#FFFFFF" points="75.1658,258.6398,73.0403,264.0029,77.1733,268.0276,79.2988,262.6646,75.1658,258.6398" style="stroke: #A80036; stroke-width: 0.8;"/><text fill="#000000" font-family="sans-serif" font-size="10.4" lengthAdjust="spacingAndGlyphs" textLength="30.4" x="390.4" y="439.143">elenco</text><text fill="#000000" font-family="sans-serif" font-size="10.4" lengthAdjust="spacingAndGlyphs" textLength="5.6" x="69.6504" y="275.8848">*</text><text fill="#000000" font-family="sans-serif" font-size="10.4" lengthAdjust="spacingAndGlyphs" textLength="5.6" x="544.9943" y="512.2869">1</text><!--MD5=[b4d333c79e3c4e8e28289dc94a1764de]
link src.domotix.model.util.SommarioDispositivi to src.domotix.model.bean.device.Dispositivo--><path d="M211.7115,267.7325 C211.7115,267.7325 240.6672,350.5657 276,378.4254 C311.6199,406.5114 332.6506,386.704 375.2,402.4254 C440.68,426.6193 462.4655,427.8864 515.2,473.6254 C527.7666,484.525 538.6831,499.4487 546.8432,512.4642 " fill="none" id="src.domotix.model.util.SommarioDispositivi-src.domotix.model.bean.device.Dispositivo" style="stroke: #A80036; stroke-width: 0.8;"/><polygon fill="#A80036" points="552.2819,521.5194,551.3179,513.6995,550.2224,518.0903,545.8315,516.9948,552.2819,521.5194" style="stroke: #A80036; stroke-width: 0.8;"/><line style="stroke: #A80036; stroke-width: 0.8;" x1="550.2224" x2="546.927" y1="518.0903" y2="512.6039"/><polygon fill="#FFFFFF" points="209.1565,258.4787,207.3494,263.9573,211.7115,267.7325,213.5186,262.2539,209.1565,258.4787" style="stroke: #A80036; stroke-width: 0.8;"/><text fill="#000000" font-family="sans-serif" font-size="10.4" lengthAdjust="spacingAndGlyphs" textLength="30.4" x="473.6" y="439.143">elenco</text><text fill="#000000" font-family="sans-serif" font-size="10.4" lengthAdjust="spacingAndGlyphs" textLength="5.6" x="203.9359" y="276.0157">*</text><text fill="#000000" font-family="sans-serif" font-size="10.4" lengthAdjust="spacingAndGlyphs" textLength="5.6" x="550.3152" y="512.0969">1</text><!--MD5=[e100ade22b7675ff7197fef38e0e4fca]
@startuml

title __DOMOTIX > MODEL > UTIL's Class Diagram__\n

namespace src.domotix.model {
    namespace util {
        class src.domotix.model.util.Costanti {
            {static} + NOME_CARTELLA_REGOLE : String
            {static} + NODO_XML_REGOLA : String
            {static} + NODO_XML_REGOLA_ID : String
            {static} + NODO_XML_REGOLA_STATO : String
            {static} + NODO_XML_ANTECEDENTE : String
            {static} + NODO_XML_ANTECEDENTE_OPLOGICO : String
            {static} + NODO_XML_CONDIZIONE : String
            {static} + NODO_XML_CONDIZIONE_POSIZIONE : String
            {static} + NODO_XML_CONDIZIONE_SINISTRA : String
            {static} + NODO_XML_CONDIZIONE_DESTRA : String
            {static} + NODO_XML_CONDIZIONE_OPERATORE : String
            {static} + NODO_XML_INFO_SENSORIALE : String
            {static} + NODO_XML_INFO_SENSORIALE_SENSORE : String
            {static} + NODO_XML_INFO_SENSORIALE_INFO_RILEV : String
            {static} + NODO_XML_INFO_SENSORIALE_COSTANTE : String
            {static} + NODO_XML_CONSEGUENTE : String
            {static} + NODO_XML_AZIONE : String
            {static} + NODO_XML_AZIONE_ATTUATORE : String
            {static} + NODO_XML_AZIONE_MODALITA : String
            {static} + NODO_XML_AZIONE_PARAMETRO : String
        }

        class src.domotix.model.util.ElencoDispositivi {
        }

        interface src.domotix.model.util.ObservableList {
        }

        interface src.domotix.model.util.ObserverList {
        }

        class src.domotix.model.util.SommarioDispositivi {
        }
    }

    namespace bean {
        namespace device {
            abstract class Dispositivo {
            }
        }
    }
}



src.domotix.model.util.ElencoDispositivi ..|> src.domotix.model.util.ObservableList
src.domotix.model.util.SommarioDispositivi ..|> src.domotix.model.util.ObserverList
src.domotix.model.util.ElencoDispositivi "*" o- -> "1" src.domotix.model.bean.device.Dispositivo : elenco
src.domotix.model.util.SommarioDispositivi "*" o- -> "1" src.domotix.model.bean.device.Dispositivo : elenco

@enduml

PlantUML version 1.2019.11(Sun Sep 22 12:02:15 CEST 2019)
(GPL source distribution)
Java Runtime: OpenJDK Runtime Environment
JVM: OpenJDK 64-Bit Server VM
Java Version: 11.0.3+12-b304.10
Operating System: Linux
Default Encoding: UTF-8
Language: it
Country: IT
--></g></svg>