<?xml version="1.0" encoding="UTF-8" standalone="no"?><svg xmlns="http://www.w3.org/2000/svg" xmlns:xlink="http://www.w3.org/1999/xlink" contentScriptType="application/ecmascript" contentStyleType="text/css" height="352.8px" preserveAspectRatio="none" style="width:983px;height:352px;" version="1.1" viewBox="0 0 983 352" width="983.2px" zoomAndPan="magnify"><defs><filter height="300%" id="fpauaucl2nfef" width="300%" x="-1" y="-1"><feGaussianBlur result="blurOut" stdDeviation="1.6"/><feColorMatrix in="blurOut" result="blurOut2" type="matrix" values="0 0 0 0 0 0 0 0 0 0 0 0 0 0 0 0 0 0 .4 0"/><feOffset dx="3.2" dy="3.2" in="blurOut2" result="blurOut3"/><feBlend in="SourceGraphic" in2="blurOut3" mode="normal"/></filter></defs><g><text fill="#000000" font-family="sans-serif" font-size="14.4" lengthAdjust="spacingAndGlyphs" text-decoration="underline" textLength="236" x="375.2" y="15.3935">DOMOTIX &gt; MODEL's Class Diagram</text><text fill="#000000" font-family="sans-serif" font-size="14.4" lengthAdjust="spacingAndGlyphs" textLength="0" x="494.8" y="35.0062"/><!--MD5=[0a790ac5fdecc1ec79658b6b98c9068e]
cluster src.domotix.model--><polygon fill="#FFFFFF" filter="url(#fpauaucl2nfef)" points="11.2,52.0254,112.8,52.0254,118.4,72.0797,965.6,72.0797,965.6,343.2254,11.2,343.2254,11.2,52.0254" style="stroke: #000000; stroke-width: 1.2000000000000002;"/><line style="stroke: #000000; stroke-width: 1.2000000000000002;" x1="11.2" x2="118.4" y1="72.0797" y2="72.0797"/><text fill="#000000" font-family="sans-serif" font-size="11.2" font-weight="bold" lengthAdjust="spacingAndGlyphs" textLength="96.8" x="14.4" y="65.5981">src.domotix.model</text><!--MD5=[f07117731684c6860360b82cb7260692]
cluster src.domotix.model.util--><polygon fill="#FFFFFF" filter="url(#fpauaucl2nfef)" points="571.2,261.6254,594.4,261.6254,600,281.6797,697.6,281.6797,697.6,330.4254,571.2,330.4254,571.2,261.6254" style="stroke: #000000; stroke-width: 1.2000000000000002;"/><line style="stroke: #000000; stroke-width: 1.2000000000000002;" x1="571.2" x2="600" y1="281.6797" y2="281.6797"/><text fill="#000000" font-family="sans-serif" font-size="11.2" font-weight="bold" lengthAdjust="spacingAndGlyphs" textLength="18.4" x="574.4" y="275.1981">util</text><!--MD5=[216a9c20675abb02ba7e2944fe4b9ef0]
cluster src.domotix.model.gestioneerrori--><polygon fill="#FFFFFF" filter="url(#fpauaucl2nfef)" points="755.2,76.0254,836,76.0254,841.6,96.0797,959.2,96.0797,959.2,144.8254,755.2,144.8254,755.2,76.0254" style="stroke: #000000; stroke-width: 1.2000000000000002;"/><line style="stroke: #000000; stroke-width: 1.2000000000000002;" x1="755.2" x2="841.6" y1="96.0797" y2="96.0797"/><text fill="#000000" font-family="sans-serif" font-size="11.2" font-weight="bold" lengthAdjust="spacingAndGlyphs" textLength="76" x="758.4" y="89.5981">gestioneerrori</text><!--MD5=[93ef5217795d11f1e60750ff284ef631]
cluster src.domotix.model.bean--><polygon fill="#FFFFFF" filter="url(#fpauaucl2nfef)" points="95.2,237.6254,126.4,237.6254,132,257.6797,474.4,257.6797,474.4,336.8254,95.2,336.8254,95.2,237.6254" style="stroke: #000000; stroke-width: 1.2000000000000002;"/><line style="stroke: #000000; stroke-width: 1.2000000000000002;" x1="95.2" x2="132" y1="257.6797" y2="257.6797"/><text fill="#000000" font-family="sans-serif" font-size="11.2" font-weight="bold" lengthAdjust="spacingAndGlyphs" textLength="26.4" x="98.4" y="251.1981">bean</text><!--MD5=[45d783cd9aaab7322b74d5415c833713]
cluster src.domotix.model.bean.device--><polygon fill="#FFFFFF" filter="url(#fpauaucl2nfef)" points="101.6,261.6254,140,261.6254,145.6,281.6797,346.4,281.6797,346.4,330.4254,101.6,330.4254,101.6,261.6254" style="stroke: #000000; stroke-width: 1.2000000000000002;"/><line style="stroke: #000000; stroke-width: 1.2000000000000002;" x1="101.6" x2="145.6" y1="281.6797" y2="281.6797"/><text fill="#000000" font-family="sans-serif" font-size="11.2" font-weight="bold" lengthAdjust="spacingAndGlyphs" textLength="33.6" x="104.8" y="275.1981">device</text><!--MD5=[7c26a10356d02adb4927a4807e9e1ce5]
class src.domotix.model.ElencoAttuatori--><rect fill="#FEFECE" filter="url(#fpauaucl2nfef)" height="38.4" id="src.domotix.model.ElencoAttuatori" style="stroke: #A80036; stroke-width: 1.2000000000000002;" width="89.6" x="532.8" y="100.0254"/><ellipse cx="544.8" cy="112.8254" fill="#ADD1B2" rx="8.8" ry="8.8" style="stroke: #A80036; stroke-width: 0.8;"/><path d="M544.775,117.7629 Q543.375,117.7629 542.4625,117.1754 Q541.5625,116.5754 541.1125,115.5004 Q540.675,114.4129 540.675,112.9754 Q540.675,111.3504 541.2,110.1879 Q541.725,109.0254 542.75,108.4004 Q543.775,107.7754 545.275,107.7754 Q545.9875,107.7754 546.525,107.9254 Q547.0625,108.0629 547.6125,108.3379 L546.9625,109.9504 Q546.4625,109.7004 546.025,109.6004 Q545.6,109.5004 545.2125,109.5004 Q544.275,109.5004 543.7125,109.9254 Q543.15,110.3504 542.9125,111.1129 Q542.675,111.8754 542.675,112.8879 Q542.675,114.5004 543.25,115.2754 Q543.825,116.0379 545.1,116.0379 Q545.575,116.0379 546.075,115.9129 Q546.575,115.7879 547.2375,115.4879 L547.2375,117.2629 Q546.65,117.5129 546.0125,117.6379 Q545.3875,117.7629 544.775,117.7629 Z "/><text fill="#000000" font-family="sans-serif" font-size="9.6" lengthAdjust="spacingAndGlyphs" textLength="64" x="556" y="116.5502">ElencoAttuatori</text><line style="stroke: #A80036; stroke-width: 1.2000000000000002;" x1="533.6" x2="621.6" y1="125.6254" y2="125.6254"/><line style="stroke: #A80036; stroke-width: 1.2000000000000002;" x1="533.6" x2="621.6" y1="132.0254" y2="132.0254"/><!--MD5=[535b96484ab6dbcb18bf1f7368a160a8]
class src.domotix.model.ElencoCategorieAttuatori--><rect fill="#FEFECE" filter="url(#fpauaucl2nfef)" height="38.4" id="src.domotix.model.ElencoCategorieAttuatori" style="stroke: #A80036; stroke-width: 1.2000000000000002;" width="129.6" x="222.4" y="100.0254"/><ellipse cx="234.4" cy="112.8254" fill="#ADD1B2" rx="8.8" ry="8.8" style="stroke: #A80036; stroke-width: 0.8;"/><path d="M234.375,117.7629 Q232.975,117.7629 232.0625,117.1754 Q231.1625,116.5754 230.7125,115.5004 Q230.275,114.4129 230.275,112.9754 Q230.275,111.3504 230.8,110.1879 Q231.325,109.0254 232.35,108.4004 Q233.375,107.7754 234.875,107.7754 Q235.5875,107.7754 236.125,107.9254 Q236.6625,108.0629 237.2125,108.3379 L236.5625,109.9504 Q236.0625,109.7004 235.625,109.6004 Q235.2,109.5004 234.8125,109.5004 Q233.875,109.5004 233.3125,109.9254 Q232.75,110.3504 232.5125,111.1129 Q232.275,111.8754 232.275,112.8879 Q232.275,114.5004 232.85,115.2754 Q233.425,116.0379 234.7,116.0379 Q235.175,116.0379 235.675,115.9129 Q236.175,115.7879 236.8375,115.4879 L236.8375,117.2629 Q236.25,117.5129 235.6125,117.6379 Q234.9875,117.7629 234.375,117.7629 Z "/><text fill="#000000" font-family="sans-serif" font-size="9.6" lengthAdjust="spacingAndGlyphs" textLength="104" x="245.6" y="116.5502">ElencoCategorieAttuatori</text><line style="stroke: #A80036; stroke-width: 1.2000000000000002;" x1="223.2" x2="351.2" y1="125.6254" y2="125.6254"/><line style="stroke: #A80036; stroke-width: 1.2000000000000002;" x1="223.2" x2="351.2" y1="132.0254" y2="132.0254"/><!--MD5=[e935c5c922d25a9dbc177ea01dacaf0d]
class src.domotix.model.ElencoCategorieSensori--><rect fill="#FEFECE" filter="url(#fpauaucl2nfef)" height="38.4" id="src.domotix.model.ElencoCategorieSensori" style="stroke: #A80036; stroke-width: 1.2000000000000002;" width="123.2" x="71.2" y="100.0254"/><ellipse cx="83.2" cy="112.8254" fill="#ADD1B2" rx="8.8" ry="8.8" style="stroke: #A80036; stroke-width: 0.8;"/><path d="M83.175,117.7629 Q81.775,117.7629 80.8625,117.1754 Q79.9625,116.5754 79.5125,115.5004 Q79.075,114.4129 79.075,112.9754 Q79.075,111.3504 79.6,110.1879 Q80.125,109.0254 81.15,108.4004 Q82.175,107.7754 83.675,107.7754 Q84.3875,107.7754 84.925,107.9254 Q85.4625,108.0629 86.0125,108.3379 L85.3625,109.9504 Q84.8625,109.7004 84.425,109.6004 Q84,109.5004 83.6125,109.5004 Q82.675,109.5004 82.1125,109.9254 Q81.55,110.3504 81.3125,111.1129 Q81.075,111.8754 81.075,112.8879 Q81.075,114.5004 81.65,115.2754 Q82.225,116.0379 83.5,116.0379 Q83.975,116.0379 84.475,115.9129 Q84.975,115.7879 85.6375,115.4879 L85.6375,117.2629 Q85.05,117.5129 84.4125,117.6379 Q83.7875,117.7629 83.175,117.7629 Z "/><text fill="#000000" font-family="sans-serif" font-size="9.6" lengthAdjust="spacingAndGlyphs" textLength="97.6" x="94.4" y="116.5502">ElencoCategorieSensori</text><line style="stroke: #A80036; stroke-width: 1.2000000000000002;" x1="72" x2="193.6" y1="125.6254" y2="125.6254"/><line style="stroke: #A80036; stroke-width: 1.2000000000000002;" x1="72" x2="193.6" y1="132.0254" y2="132.0254"/><!--MD5=[8216fbdf062926a8e46fb80986d95232]
class src.domotix.model.ElencoSensori--><rect fill="#FEFECE" filter="url(#fpauaucl2nfef)" height="38.4" id="src.domotix.model.ElencoSensori" style="stroke: #A80036; stroke-width: 1.2000000000000002;" width="83.2" x="650.4" y="100.0254"/><ellipse cx="662.4" cy="112.8254" fill="#ADD1B2" rx="8.8" ry="8.8" style="stroke: #A80036; stroke-width: 0.8;"/><path d="M662.375,117.7629 Q660.975,117.7629 660.0625,117.1754 Q659.1625,116.5754 658.7125,115.5004 Q658.275,114.4129 658.275,112.9754 Q658.275,111.3504 658.8,110.1879 Q659.325,109.0254 660.35,108.4004 Q661.375,107.7754 662.875,107.7754 Q663.5875,107.7754 664.125,107.9254 Q664.6625,108.0629 665.2125,108.3379 L664.5625,109.9504 Q664.0625,109.7004 663.625,109.6004 Q663.2,109.5004 662.8125,109.5004 Q661.875,109.5004 661.3125,109.9254 Q660.75,110.3504 660.5125,111.1129 Q660.275,111.8754 660.275,112.8879 Q660.275,114.5004 660.85,115.2754 Q661.425,116.0379 662.7,116.0379 Q663.175,116.0379 663.675,115.9129 Q664.175,115.7879 664.8375,115.4879 L664.8375,117.2629 Q664.25,117.5129 663.6125,117.6379 Q662.9875,117.7629 662.375,117.7629 Z "/><text fill="#000000" font-family="sans-serif" font-size="9.6" lengthAdjust="spacingAndGlyphs" textLength="57.6" x="673.6" y="116.5502">ElencoSensori</text><line style="stroke: #A80036; stroke-width: 1.2000000000000002;" x1="651.2" x2="732.8" y1="125.6254" y2="125.6254"/><line style="stroke: #A80036; stroke-width: 1.2000000000000002;" x1="651.2" x2="732.8" y1="132.0254" y2="132.0254"/><!--MD5=[da49177558a78120c4d786a1f64c4c58]
class src.domotix.model.ElencoUnitaImmobiliari--><rect fill="#FEFECE" filter="url(#fpauaucl2nfef)" height="38.4" id="src.domotix.model.ElencoUnitaImmobiliari" style="stroke: #A80036; stroke-width: 1.2000000000000002;" width="124.8" x="380" y="100.0254"/><ellipse cx="392" cy="112.8254" fill="#ADD1B2" rx="8.8" ry="8.8" style="stroke: #A80036; stroke-width: 0.8;"/><path d="M391.975,117.7629 Q390.575,117.7629 389.6625,117.1754 Q388.7625,116.5754 388.3125,115.5004 Q387.875,114.4129 387.875,112.9754 Q387.875,111.3504 388.4,110.1879 Q388.925,109.0254 389.95,108.4004 Q390.975,107.7754 392.475,107.7754 Q393.1875,107.7754 393.725,107.9254 Q394.2625,108.0629 394.8125,108.3379 L394.1625,109.9504 Q393.6625,109.7004 393.225,109.6004 Q392.8,109.5004 392.4125,109.5004 Q391.475,109.5004 390.9125,109.9254 Q390.35,110.3504 390.1125,111.1129 Q389.875,111.8754 389.875,112.8879 Q389.875,114.5004 390.45,115.2754 Q391.025,116.0379 392.3,116.0379 Q392.775,116.0379 393.275,115.9129 Q393.775,115.7879 394.4375,115.4879 L394.4375,117.2629 Q393.85,117.5129 393.2125,117.6379 Q392.5875,117.7629 391.975,117.7629 Z "/><text fill="#000000" font-family="sans-serif" font-size="9.6" lengthAdjust="spacingAndGlyphs" textLength="99.2" x="403.2" y="116.5502">ElencoUnitaImmobiliari</text><line style="stroke: #A80036; stroke-width: 1.2000000000000002;" x1="380.8" x2="504" y1="125.6254" y2="125.6254"/><line style="stroke: #A80036; stroke-width: 1.2000000000000002;" x1="380.8" x2="504" y1="132.0254" y2="132.0254"/><!--MD5=[f026e8bbc4cdf0765818bf3378b7b221]
class src.domotix.model.util.SommarioDispositivi--><rect fill="#FEFECE" filter="url(#fpauaucl2nfef)" height="38.4" id="src.domotix.model.util.SommarioDispositivi" style="stroke: #A80036; stroke-width: 1.2000000000000002;" width="112.8" x="578" y="285.6254"/><ellipse cx="590" cy="298.4254" fill="#ADD1B2" rx="8.8" ry="8.8" style="stroke: #A80036; stroke-width: 0.8;"/><path d="M589.975,303.3629 Q588.575,303.3629 587.6625,302.7754 Q586.7625,302.1754 586.3125,301.1004 Q585.875,300.0129 585.875,298.5754 Q585.875,296.9504 586.4,295.7879 Q586.925,294.6254 587.95,294.0004 Q588.975,293.3754 590.475,293.3754 Q591.1875,293.3754 591.725,293.5254 Q592.2625,293.6629 592.8125,293.9379 L592.1625,295.5504 Q591.6625,295.3004 591.225,295.2004 Q590.8,295.1004 590.4125,295.1004 Q589.475,295.1004 588.9125,295.5254 Q588.35,295.9504 588.1125,296.7129 Q587.875,297.4754 587.875,298.4879 Q587.875,300.1004 588.45,300.8754 Q589.025,301.6379 590.3,301.6379 Q590.775,301.6379 591.275,301.5129 Q591.775,301.3879 592.4375,301.0879 L592.4375,302.8629 Q591.85,303.1129 591.2125,303.2379 Q590.5875,303.3629 589.975,303.3629 Z "/><text fill="#000000" font-family="sans-serif" font-size="9.6" lengthAdjust="spacingAndGlyphs" textLength="87.2" x="601.2" y="302.1502">SommarioDispositivi</text><line style="stroke: #A80036; stroke-width: 1.2000000000000002;" x1="578.8" x2="690" y1="311.2254" y2="311.2254"/><line style="stroke: #A80036; stroke-width: 1.2000000000000002;" x1="578.8" x2="690" y1="317.6254" y2="317.6254"/><polygon fill="#FFFFFF" filter="url(#fpauaucl2nfef)" points="17.6,96.0254,32,96.0254,37.6,116.0797,43.2,116.0797,43.2,142.534,17.6,142.534,17.6,96.0254" style="stroke: #000000; stroke-width: 1.2000000000000002;"/><line style="stroke: #000000; stroke-width: 1.2000000000000002;" x1="17.6" x2="37.6" y1="116.0797" y2="116.0797"/><text fill="#000000" font-family="sans-serif" font-size="11.2" font-weight="bold" lengthAdjust="spacingAndGlyphs" textLength="9.6" x="20.8" y="109.5981">io</text><!--MD5=[2bab098457974428bb9cba96115d2257]
class src.domotix.model.gestioneerrori.LogErrori--><rect fill="#FEFECE" filter="url(#fpauaucl2nfef)" height="38.4" id="src.domotix.model.gestioneerrori.LogErrori" style="stroke: #A80036; stroke-width: 1.2000000000000002;" width="64" x="888.8" y="100.0254"/><ellipse cx="900.8" cy="112.8254" fill="#ADD1B2" rx="8.8" ry="8.8" style="stroke: #A80036; stroke-width: 0.8;"/><path d="M900.775,117.7629 Q899.375,117.7629 898.4625,117.1754 Q897.5625,116.5754 897.1125,115.5004 Q896.675,114.4129 896.675,112.9754 Q896.675,111.3504 897.2,110.1879 Q897.725,109.0254 898.75,108.4004 Q899.775,107.7754 901.275,107.7754 Q901.9875,107.7754 902.525,107.9254 Q903.0625,108.0629 903.6125,108.3379 L902.9625,109.9504 Q902.4625,109.7004 902.025,109.6004 Q901.6,109.5004 901.2125,109.5004 Q900.275,109.5004 899.7125,109.9254 Q899.15,110.3504 898.9125,111.1129 Q898.675,111.8754 898.675,112.8879 Q898.675,114.5004 899.25,115.2754 Q899.825,116.0379 901.1,116.0379 Q901.575,116.0379 902.075,115.9129 Q902.575,115.7879 903.2375,115.4879 L903.2375,117.2629 Q902.65,117.5129 902.0125,117.6379 Q901.3875,117.7629 900.775,117.7629 Z "/><text fill="#000000" font-family="sans-serif" font-size="9.6" lengthAdjust="spacingAndGlyphs" textLength="38.4" x="912" y="116.5502">LogErrori</text><line style="stroke: #A80036; stroke-width: 1.2000000000000002;" x1="889.6" x2="952" y1="125.6254" y2="125.6254"/><line style="stroke: #A80036; stroke-width: 1.2000000000000002;" x1="889.6" x2="952" y1="132.0254" y2="132.0254"/><!--MD5=[e1aef0964c9b4c5631b0ab81c7a9970f]
class src.domotix.model.gestioneerrori.StoreIstanzeErrori--><rect fill="#FEFECE" filter="url(#fpauaucl2nfef)" height="38.4" id="src.domotix.model.gestioneerrori.StoreIstanzeErrori" style="stroke: #A80036; stroke-width: 1.2000000000000002;" width="99.2" x="761.6" y="100.0254"/><ellipse cx="773.6" cy="112.8254" fill="#ADD1B2" rx="8.8" ry="8.8" style="stroke: #A80036; stroke-width: 0.8;"/><path d="M773.575,117.7629 Q772.175,117.7629 771.2625,117.1754 Q770.3625,116.5754 769.9125,115.5004 Q769.475,114.4129 769.475,112.9754 Q769.475,111.3504 770,110.1879 Q770.525,109.0254 771.55,108.4004 Q772.575,107.7754 774.075,107.7754 Q774.7875,107.7754 775.325,107.9254 Q775.8625,108.0629 776.4125,108.3379 L775.7625,109.9504 Q775.2625,109.7004 774.825,109.6004 Q774.4,109.5004 774.0125,109.5004 Q773.075,109.5004 772.5125,109.9254 Q771.95,110.3504 771.7125,111.1129 Q771.475,111.8754 771.475,112.8879 Q771.475,114.5004 772.05,115.2754 Q772.625,116.0379 773.9,116.0379 Q774.375,116.0379 774.875,115.9129 Q775.375,115.7879 776.0375,115.4879 L776.0375,117.2629 Q775.45,117.5129 774.8125,117.6379 Q774.1875,117.7629 773.575,117.7629 Z "/><text fill="#000000" font-family="sans-serif" font-size="9.6" lengthAdjust="spacingAndGlyphs" textLength="73.6" x="784.8" y="116.5502">StoreIstanzeErrori</text><line style="stroke: #A80036; stroke-width: 1.2000000000000002;" x1="762.4" x2="860" y1="125.6254" y2="125.6254"/><line style="stroke: #A80036; stroke-width: 1.2000000000000002;" x1="762.4" x2="860" y1="132.0254" y2="132.0254"/><!--MD5=[fee1f461644b36a0574e21f0c156ea59]
class src.domotix.model.bean.UnitaImmobiliare--><rect fill="#FEFECE" filter="url(#fpauaucl2nfef)" height="38.4" id="src.domotix.model.bean.UnitaImmobiliare" style="stroke: #A80036; stroke-width: 1.2000000000000002;" width="100" x="367.6" y="285.6254"/><ellipse cx="379.6" cy="298.4254" fill="#ADD1B2" rx="8.8" ry="8.8" style="stroke: #A80036; stroke-width: 0.8;"/><path d="M379.575,303.3629 Q378.175,303.3629 377.2625,302.7754 Q376.3625,302.1754 375.9125,301.1004 Q375.475,300.0129 375.475,298.5754 Q375.475,296.9504 376,295.7879 Q376.525,294.6254 377.55,294.0004 Q378.575,293.3754 380.075,293.3754 Q380.7875,293.3754 381.325,293.5254 Q381.8625,293.6629 382.4125,293.9379 L381.7625,295.5504 Q381.2625,295.3004 380.825,295.2004 Q380.4,295.1004 380.0125,295.1004 Q379.075,295.1004 378.5125,295.5254 Q377.95,295.9504 377.7125,296.7129 Q377.475,297.4754 377.475,298.4879 Q377.475,300.1004 378.05,300.8754 Q378.625,301.6379 379.9,301.6379 Q380.375,301.6379 380.875,301.5129 Q381.375,301.3879 382.0375,301.0879 L382.0375,302.8629 Q381.45,303.1129 380.8125,303.2379 Q380.1875,303.3629 379.575,303.3629 Z "/><text fill="#000000" font-family="sans-serif" font-size="9.6" lengthAdjust="spacingAndGlyphs" textLength="74.4" x="390.8" y="302.1502">UnitaImmobiliare</text><line style="stroke: #A80036; stroke-width: 1.2000000000000002;" x1="368.4" x2="466.8" y1="311.2254" y2="311.2254"/><line style="stroke: #A80036; stroke-width: 1.2000000000000002;" x1="368.4" x2="466.8" y1="317.6254" y2="317.6254"/><!--MD5=[6560fd6f3318f918a0970b00832c4e2e]
class src.domotix.model.bean.device.CategoriaAttuatore--><rect fill="#FEFECE" filter="url(#fpauaucl2nfef)" height="38.4" id="src.domotix.model.bean.device.CategoriaAttuatore" style="stroke: #A80036; stroke-width: 1.2000000000000002;" width="104.8" x="234.8" y="285.6254"/><ellipse cx="246.8" cy="298.4254" fill="#ADD1B2" rx="8.8" ry="8.8" style="stroke: #A80036; stroke-width: 0.8;"/><path d="M246.775,303.3629 Q245.375,303.3629 244.4625,302.7754 Q243.5625,302.1754 243.1125,301.1004 Q242.675,300.0129 242.675,298.5754 Q242.675,296.9504 243.2,295.7879 Q243.725,294.6254 244.75,294.0004 Q245.775,293.3754 247.275,293.3754 Q247.9875,293.3754 248.525,293.5254 Q249.0625,293.6629 249.6125,293.9379 L248.9625,295.5504 Q248.4625,295.3004 248.025,295.2004 Q247.6,295.1004 247.2125,295.1004 Q246.275,295.1004 245.7125,295.5254 Q245.15,295.9504 244.9125,296.7129 Q244.675,297.4754 244.675,298.4879 Q244.675,300.1004 245.25,300.8754 Q245.825,301.6379 247.1,301.6379 Q247.575,301.6379 248.075,301.5129 Q248.575,301.3879 249.2375,301.0879 L249.2375,302.8629 Q248.65,303.1129 248.0125,303.2379 Q247.3875,303.3629 246.775,303.3629 Z "/><text fill="#000000" font-family="sans-serif" font-size="9.6" lengthAdjust="spacingAndGlyphs" textLength="79.2" x="258" y="302.1502">CategoriaAttuatore</text><line style="stroke: #A80036; stroke-width: 1.2000000000000002;" x1="235.6" x2="338.8" y1="311.2254" y2="311.2254"/><line style="stroke: #A80036; stroke-width: 1.2000000000000002;" x1="235.6" x2="338.8" y1="317.6254" y2="317.6254"/><!--MD5=[707552fc0b7e96869f010eaeac4db4bf]
class src.domotix.model.bean.device.CategoriaSensore--><rect fill="#FEFECE" filter="url(#fpauaucl2nfef)" height="38.4" id="src.domotix.model.bean.device.CategoriaSensore" style="stroke: #A80036; stroke-width: 1.2000000000000002;" width="98.4" x="108.4" y="285.6254"/><ellipse cx="120.4" cy="298.4254" fill="#ADD1B2" rx="8.8" ry="8.8" style="stroke: #A80036; stroke-width: 0.8;"/><path d="M120.375,303.3629 Q118.975,303.3629 118.0625,302.7754 Q117.1625,302.1754 116.7125,301.1004 Q116.275,300.0129 116.275,298.5754 Q116.275,296.9504 116.8,295.7879 Q117.325,294.6254 118.35,294.0004 Q119.375,293.3754 120.875,293.3754 Q121.5875,293.3754 122.125,293.5254 Q122.6625,293.6629 123.2125,293.9379 L122.5625,295.5504 Q122.0625,295.3004 121.625,295.2004 Q121.2,295.1004 120.8125,295.1004 Q119.875,295.1004 119.3125,295.5254 Q118.75,295.9504 118.5125,296.7129 Q118.275,297.4754 118.275,298.4879 Q118.275,300.1004 118.85,300.8754 Q119.425,301.6379 120.7,301.6379 Q121.175,301.6379 121.675,301.5129 Q122.175,301.3879 122.8375,301.0879 L122.8375,302.8629 Q122.25,303.1129 121.6125,303.2379 Q120.9875,303.3629 120.375,303.3629 Z "/><text fill="#000000" font-family="sans-serif" font-size="9.6" lengthAdjust="spacingAndGlyphs" textLength="72.8" x="131.6" y="302.1502">CategoriaSensore</text><line style="stroke: #A80036; stroke-width: 1.2000000000000002;" x1="109.2" x2="206" y1="311.2254" y2="311.2254"/><line style="stroke: #A80036; stroke-width: 1.2000000000000002;" x1="109.2" x2="206" y1="317.6254" y2="317.6254"/><!--MD5=[ce1f3a0b44d3344f945826b076ffc3cf]
link src.domotix.model.ElencoAttuatori to src.domotix.model.util.SommarioDispositivi--><path d="M583.5713,138.737 C593.1201,169.9389 611.9566,231.489 623.8238,270.2666 " fill="none" id="src.domotix.model.ElencoAttuatori-&gt;src.domotix.model.util.SommarioDispositivi" style="stroke: #A80036; stroke-width: 0.8;"/><polygon fill="none" points="629.1814,268.6368,628.5088,285.5751,618.4717,271.9143,629.1814,268.6368" style="stroke: #A80036; stroke-width: 0.8;"/><!--MD5=[3cd964a3c1097d11d9d1557838753124]
link src.domotix.model.ElencoSensori to src.domotix.model.util.SommarioDispositivi--><path d="M685.9446,138.737 C676.2613,169.9389 657.1595,231.489 645.1251,270.2666 " fill="none" id="src.domotix.model.ElencoSensori-&gt;src.domotix.model.util.SommarioDispositivi" style="stroke: #A80036; stroke-width: 0.8;"/><polygon fill="none" points="650.465,271.9539,640.3742,285.5751,639.7683,268.6342,650.465,271.9539" style="stroke: #A80036; stroke-width: 0.8;"/><!--MD5=[9f554375b2c6b33ae1f18104887cfc5e]
link src.domotix.model.ElencoUnitaImmobiliari to src.domotix.model.bean.UnitaImmobiliare--><path d="M438.5213,148.2525 C438.5213,148.2525 426.1698,240.6905 421.5578,275.2052 " fill="none" id="src.domotix.model.ElencoUnitaImmobiliari-src.domotix.model.bean.UnitaImmobiliare" style="stroke: #A80036; stroke-width: 0.8;"/><polygon fill="#A80036" points="420.1722,285.5751,424.2977,278.8624,420.702,281.6104,417.9541,278.0147,420.1722,285.5751" style="stroke: #A80036; stroke-width: 0.8;"/><line style="stroke: #A80036; stroke-width: 0.8;" x1="420.702" x2="421.5497" y1="281.6104" y2="275.2668"/><polygon fill="#FFFFFF" points="439.7928,138.737,435.9852,143.0709,438.5213,148.2525,442.3288,143.9186,439.7928,138.737" style="stroke: #A80036; stroke-width: 0.8;"/><text fill="#000000" font-family="sans-serif" font-size="10.4" lengthAdjust="spacingAndGlyphs" textLength="24" x="432.8" y="203.143">unita</text><text fill="#000000" font-family="sans-serif" font-size="10.4" lengthAdjust="spacingAndGlyphs" textLength="5.6" x="432.9424" y="156.0045">*</text><text fill="#000000" font-family="sans-serif" font-size="10.4" lengthAdjust="spacingAndGlyphs" textLength="5.6" x="414.511" y="276.1676">1</text><!--MD5=[f70417355f38043970d75f4275e381a9]
link src.domotix.model.ElencoCategorieAttuatori to src.domotix.model.bean.device.CategoriaAttuatore--><path d="M287.2,148.337 C287.2,148.337 287.2,240.445 287.2,274.9808 " fill="none" id="src.domotix.model.ElencoCategorieAttuatori-src.domotix.model.bean.device.CategoriaAttuatore" style="stroke: #A80036; stroke-width: 0.8;"/><polygon fill="#A80036" points="287.2,285.5751,290.4,278.3751,287.2,281.5751,284,278.3751,287.2,285.5751" style="stroke: #A80036; stroke-width: 0.8;"/><line style="stroke: #A80036; stroke-width: 0.8;" x1="287.2" x2="287.2001" y1="281.5751" y2="275.1751"/><polygon fill="#FFFFFF" points="287.2,138.737,284,143.537,287.2,148.337,290.4,143.537,287.2,138.737" style="stroke: #A80036; stroke-width: 0.8;"/><text fill="#000000" font-family="sans-serif" font-size="10.4" lengthAdjust="spacingAndGlyphs" textLength="43.2" x="288" y="203.143">categorie</text><text fill="#000000" font-family="sans-serif" font-size="10.4" lengthAdjust="spacingAndGlyphs" textLength="5.6" x="280.9525" y="156.0045">*</text><text fill="#000000" font-family="sans-serif" font-size="10.4" lengthAdjust="spacingAndGlyphs" textLength="5.6" x="280.8475" y="276.1676">1</text><!--MD5=[17ded89276fa7981fb115441657ec0b0]
link src.domotix.model.ElencoCategorieSensori to src.domotix.model.bean.device.CategoriaSensore--><path d="M136.6787,148.2525 C136.6787,148.2525 149.0302,240.6905 153.6422,275.2052 " fill="none" id="src.domotix.model.ElencoCategorieSensori-src.domotix.model.bean.device.CategoriaSensore" style="stroke: #A80036; stroke-width: 0.8;"/><polygon fill="#A80036" points="155.0278,285.5751,157.2459,278.0147,154.498,281.6104,150.9023,278.8624,155.0278,285.5751" style="stroke: #A80036; stroke-width: 0.8;"/><line style="stroke: #A80036; stroke-width: 0.8;" x1="154.498" x2="153.6503" y1="281.6104" y2="275.2668"/><polygon fill="#FFFFFF" points="135.4072,138.737,132.8712,143.9186,136.6787,148.2525,139.2148,143.0709,135.4072,138.737" style="stroke: #A80036; stroke-width: 0.8;"/><text fill="#000000" font-family="sans-serif" font-size="10.4" lengthAdjust="spacingAndGlyphs" textLength="43.2" x="144.8" y="203.143">categorie</text><text fill="#000000" font-family="sans-serif" font-size="10.4" lengthAdjust="spacingAndGlyphs" textLength="5.6" x="129.7626" y="156.0045">*</text><text fill="#000000" font-family="sans-serif" font-size="10.4" lengthAdjust="spacingAndGlyphs" textLength="5.6" x="147.984" y="276.1676">1</text><!--MD5=[4198e06b1b662a89877ff1eb800990b6]
@startuml

title __DOMOTIX > MODEL's Class Diagram__\n

namespace src.domotix.model {
    class src.domotix.model.ElencoAttuatori {
    }

    class src.domotix.model.ElencoCategorieAttuatori {
    }

    class src.domotix.model.ElencoCategorieSensori {
    }

    class src.domotix.model.ElencoSensori {
    }

    class src.domotix.model.ElencoUnitaImmobiliari {
    }

    namespace util {
    }

    namespace io {
    }

    namespace gestioneerrori {
        class src.domotix.model.gestioneerrori.LogErrori {
        }

        class src.domotix.model.gestioneerrori.StoreIstanzeErrori {
        }
    }

    namespace bean {
        namespace device {
        }
    }
}


src.domotix.model.ElencoAttuatori - -|> src.domotix.model.util.SommarioDispositivi
src.domotix.model.ElencoSensori - -|> src.domotix.model.util.SommarioDispositivi
src.domotix.model.ElencoUnitaImmobiliari "*" o- -> "1" src.domotix.model.bean.UnitaImmobiliare : unita
src.domotix.model.ElencoCategorieAttuatori "*" o- -> "1" src.domotix.model.bean.device.CategoriaAttuatore : categorie
src.domotix.model.ElencoCategorieSensori "*" o- -> "1" src.domotix.model.bean.device.CategoriaSensore : categorie


@enduml

PlantUML version 1.2019.11(Sun Sep 22 12:02:15 CEST 2019)
(GPL source distribution)
Java Runtime: OpenJDK Runtime Environment
JVM: OpenJDK 64-Bit Server VM
Java Version: 11.0.3+12-b304.10
Operating System: Linux
Default Encoding: UTF-8
Language: it
Country: IT
--></g></svg>