<?xml version="1.0" encoding="UTF-8" standalone="no"?><svg xmlns="http://www.w3.org/2000/svg" xmlns:xlink="http://www.w3.org/1999/xlink" contentScriptType="application/ecmascript" contentStyleType="text/css" height="586px" preserveAspectRatio="none" style="width:1462px;height:586px;" version="1.1" viewBox="0 0 1462 586" width="1462px" zoomAndPan="magnify"><defs><filter height="300%" id="fjuhqmoglbm73" width="300%" x="-1" y="-1"><feGaussianBlur result="blurOut" stdDeviation="2.0"/><feColorMatrix in="blurOut" result="blurOut2" type="matrix" values="0 0 0 0 0 0 0 0 0 0 0 0 0 0 0 0 0 0 .4 0"/><feOffset dx="4.0" dy="4.0" in="blurOut2" result="blurOut3"/><feBlend in="SourceGraphic" in2="blurOut3" mode="normal"/></filter></defs><g><text fill="#000000" font-family="sans-serif" font-size="18" lengthAdjust="spacingAndGlyphs" text-decoration="underline" textLength="295" x="585.5" y="19.2419">DOMOTIX &gt; MODEL's Class Diagram</text><text fill="#000000" font-family="sans-serif" font-size="18" lengthAdjust="spacingAndGlyphs" textLength="0" x="735" y="43.7577"/><!--MD5=[0a790ac5fdecc1ec79658b6b98c9068e]
cluster src.domotix.model--><polygon fill="#FFFFFF" filter="url(#fjuhqmoglbm73)" points="14,65.0317,141,65.0317,148,90.0996,1440,90.0996,1440,574.0317,14,574.0317,14,65.0317" style="stroke: #000000; stroke-width: 1.5;"/><line style="stroke: #000000; stroke-width: 1.5;" x1="14" x2="148" y1="90.0996" y2="90.0996"/><text fill="#000000" font-family="sans-serif" font-size="14" font-weight="bold" lengthAdjust="spacingAndGlyphs" textLength="121" x="18" y="81.9976">src.domotix.model</text><!--MD5=[f07117731684c6860360b82cb7260692]
cluster src.domotix.model.util--><polygon fill="#FFFFFF" filter="url(#fjuhqmoglbm73)" points="943,472.0317,972,472.0317,979,497.0996,1101,497.0996,1101,558.0317,943,558.0317,943,472.0317" style="stroke: #000000; stroke-width: 1.5;"/><line style="stroke: #000000; stroke-width: 1.5;" x1="943" x2="979" y1="497.0996" y2="497.0996"/><text fill="#000000" font-family="sans-serif" font-size="14" font-weight="bold" lengthAdjust="spacingAndGlyphs" textLength="23" x="947" y="488.9976">util</text><!--MD5=[216a9c20675abb02ba7e2944fe4b9ef0]
cluster src.domotix.model.gestioneerrori--><polygon fill="#FFFFFF" filter="url(#fjuhqmoglbm73)" points="1177,155.0317,1278,155.0317,1285,180.0996,1432,180.0996,1432,241.0317,1177,241.0317,1177,155.0317" style="stroke: #000000; stroke-width: 1.5;"/><line style="stroke: #000000; stroke-width: 1.5;" x1="1177" x2="1285" y1="180.0996" y2="180.0996"/><text fill="#000000" font-family="sans-serif" font-size="14" font-weight="bold" lengthAdjust="spacingAndGlyphs" textLength="95" x="1181" y="171.9976">gestioneerrori</text><!--MD5=[93ef5217795d11f1e60750ff284ef631]
cluster src.domotix.model.bean--><polygon fill="#FFFFFF" filter="url(#fjuhqmoglbm73)" points="227,442.0317,266,442.0317,273,467.0996,803,467.0996,803,566.0317,227,566.0317,227,442.0317" style="stroke: #000000; stroke-width: 1.5;"/><line style="stroke: #000000; stroke-width: 1.5;" x1="227" x2="273" y1="467.0996" y2="467.0996"/><text fill="#000000" font-family="sans-serif" font-size="14" font-weight="bold" lengthAdjust="spacingAndGlyphs" textLength="33" x="231" y="458.9976">bean</text><!--MD5=[45d783cd9aaab7322b74d5415c833713]
cluster src.domotix.model.bean.device--><polygon fill="#FFFFFF" filter="url(#fjuhqmoglbm73)" points="337,472.0317,385,472.0317,392,497.0996,643,497.0996,643,558.0317,337,558.0317,337,472.0317" style="stroke: #000000; stroke-width: 1.5;"/><line style="stroke: #000000; stroke-width: 1.5;" x1="337" x2="392" y1="497.0996" y2="497.0996"/><text fill="#000000" font-family="sans-serif" font-size="14" font-weight="bold" lengthAdjust="spacingAndGlyphs" textLength="42" x="341" y="488.9976">device</text><!--MD5=[68c0acc818b83a12ff14a5d5d8cc9060]
cluster src.domotix.model.bean.regola--><polygon fill="#FFFFFF" filter="url(#fjuhqmoglbm73)" points="235,472.0317,283,472.0317,290,497.0996,319,497.0996,319,558.0317,235,558.0317,235,472.0317" style="stroke: #000000; stroke-width: 1.5;"/><line style="stroke: #000000; stroke-width: 1.5;" x1="235" x2="290" y1="497.0996" y2="497.0996"/><text fill="#000000" font-family="sans-serif" font-size="14" font-weight="bold" lengthAdjust="spacingAndGlyphs" textLength="42" x="239" y="488.9976">regola</text><!--MD5=[7c26a10356d02adb4927a4807e9e1ce5]
class src.domotix.model.ElencoAttuatori--><rect fill="#FEFECE" filter="url(#fjuhqmoglbm73)" height="48" id="src.domotix.model.ElencoAttuatori" style="stroke: #A80036; stroke-width: 1.5;" width="112" x="1038" y="185.0317"/><ellipse cx="1053" cy="201.0317" fill="#ADD1B2" rx="11" ry="11" style="stroke: #A80036; stroke-width: 1.0;"/><path d="M1052.9688,207.2036 Q1051.2188,207.2036 1050.0781,206.4692 Q1048.9531,205.7192 1048.3906,204.3754 Q1047.8438,203.0161 1047.8438,201.2192 Q1047.8438,199.1879 1048.5,197.7348 Q1049.1563,196.2817 1050.4375,195.5004 Q1051.7188,194.7192 1053.5938,194.7192 Q1054.4844,194.7192 1055.1563,194.9067 Q1055.8281,195.0786 1056.5156,195.4223 L1055.7031,197.4379 Q1055.0781,197.1254 1054.5313,197.0004 Q1054,196.8754 1053.5156,196.8754 Q1052.3438,196.8754 1051.6406,197.4067 Q1050.9375,197.9379 1050.6406,198.8911 Q1050.3438,199.8442 1050.3438,201.1098 Q1050.3438,203.1254 1051.0625,204.0942 Q1051.7813,205.0473 1053.375,205.0473 Q1053.9688,205.0473 1054.5938,204.8911 Q1055.2188,204.7348 1056.0469,204.3598 L1056.0469,206.5786 Q1055.3125,206.8911 1054.5156,207.0473 Q1053.7344,207.2036 1052.9688,207.2036 Z "/><text fill="#000000" font-family="sans-serif" font-size="12" lengthAdjust="spacingAndGlyphs" textLength="80" x="1067" y="205.6877">ElencoAttuatori</text><line style="stroke: #A80036; stroke-width: 1.5;" x1="1039" x2="1149" y1="217.0317" y2="217.0317"/><line style="stroke: #A80036; stroke-width: 1.5;" x1="1039" x2="1149" y1="225.0317" y2="225.0317"/><!--MD5=[535b96484ab6dbcb18bf1f7368a160a8]
class src.domotix.model.ElencoCategorieAttuatori--><rect fill="#FEFECE" filter="url(#fjuhqmoglbm73)" height="48" id="src.domotix.model.ElencoCategorieAttuatori" style="stroke: #A80036; stroke-width: 1.5;" width="162" x="511" y="185.0317"/><ellipse cx="526" cy="201.0317" fill="#ADD1B2" rx="11" ry="11" style="stroke: #A80036; stroke-width: 1.0;"/><path d="M525.9688,207.2036 Q524.2188,207.2036 523.0781,206.4692 Q521.9531,205.7192 521.3906,204.3754 Q520.8438,203.0161 520.8438,201.2192 Q520.8438,199.1879 521.5,197.7348 Q522.1563,196.2817 523.4375,195.5004 Q524.7188,194.7192 526.5938,194.7192 Q527.4844,194.7192 528.1563,194.9067 Q528.8281,195.0786 529.5156,195.4223 L528.7031,197.4379 Q528.0781,197.1254 527.5313,197.0004 Q527,196.8754 526.5156,196.8754 Q525.3438,196.8754 524.6406,197.4067 Q523.9375,197.9379 523.6406,198.8911 Q523.3438,199.8442 523.3438,201.1098 Q523.3438,203.1254 524.0625,204.0942 Q524.7813,205.0473 526.375,205.0473 Q526.9688,205.0473 527.5938,204.8911 Q528.2188,204.7348 529.0469,204.3598 L529.0469,206.5786 Q528.3125,206.8911 527.5156,207.0473 Q526.7344,207.2036 525.9688,207.2036 Z "/><text fill="#000000" font-family="sans-serif" font-size="12" lengthAdjust="spacingAndGlyphs" textLength="130" x="540" y="205.6877">ElencoCategorieAttuatori</text><line style="stroke: #A80036; stroke-width: 1.5;" x1="512" x2="672" y1="217.0317" y2="217.0317"/><line style="stroke: #A80036; stroke-width: 1.5;" x1="512" x2="672" y1="225.0317" y2="225.0317"/><!--MD5=[e935c5c922d25a9dbc177ea01dacaf0d]
class src.domotix.model.ElencoCategorieSensori--><rect fill="#FEFECE" filter="url(#fjuhqmoglbm73)" height="48" id="src.domotix.model.ElencoCategorieSensori" style="stroke: #A80036; stroke-width: 1.5;" width="154" x="322" y="185.0317"/><ellipse cx="337" cy="201.0317" fill="#ADD1B2" rx="11" ry="11" style="stroke: #A80036; stroke-width: 1.0;"/><path d="M336.9688,207.2036 Q335.2188,207.2036 334.0781,206.4692 Q332.9531,205.7192 332.3906,204.3754 Q331.8438,203.0161 331.8438,201.2192 Q331.8438,199.1879 332.5,197.7348 Q333.1563,196.2817 334.4375,195.5004 Q335.7188,194.7192 337.5938,194.7192 Q338.4844,194.7192 339.1563,194.9067 Q339.8281,195.0786 340.5156,195.4223 L339.7031,197.4379 Q339.0781,197.1254 338.5313,197.0004 Q338,196.8754 337.5156,196.8754 Q336.3438,196.8754 335.6406,197.4067 Q334.9375,197.9379 334.6406,198.8911 Q334.3438,199.8442 334.3438,201.1098 Q334.3438,203.1254 335.0625,204.0942 Q335.7813,205.0473 337.375,205.0473 Q337.9688,205.0473 338.5938,204.8911 Q339.2188,204.7348 340.0469,204.3598 L340.0469,206.5786 Q339.3125,206.8911 338.5156,207.0473 Q337.7344,207.2036 336.9688,207.2036 Z "/><text fill="#000000" font-family="sans-serif" font-size="12" lengthAdjust="spacingAndGlyphs" textLength="122" x="351" y="205.6877">ElencoCategorieSensori</text><line style="stroke: #A80036; stroke-width: 1.5;" x1="323" x2="475" y1="217.0317" y2="217.0317"/><line style="stroke: #A80036; stroke-width: 1.5;" x1="323" x2="475" y1="225.0317" y2="225.0317"/><!--MD5=[8216fbdf062926a8e46fb80986d95232]
class src.domotix.model.ElencoSensori--><rect fill="#FEFECE" filter="url(#fjuhqmoglbm73)" height="48" id="src.domotix.model.ElencoSensori" style="stroke: #A80036; stroke-width: 1.5;" width="104" x="899" y="185.0317"/><ellipse cx="914" cy="201.0317" fill="#ADD1B2" rx="11" ry="11" style="stroke: #A80036; stroke-width: 1.0;"/><path d="M913.9688,207.2036 Q912.2188,207.2036 911.0781,206.4692 Q909.9531,205.7192 909.3906,204.3754 Q908.8438,203.0161 908.8438,201.2192 Q908.8438,199.1879 909.5,197.7348 Q910.1563,196.2817 911.4375,195.5004 Q912.7188,194.7192 914.5938,194.7192 Q915.4844,194.7192 916.1563,194.9067 Q916.8281,195.0786 917.5156,195.4223 L916.7031,197.4379 Q916.0781,197.1254 915.5313,197.0004 Q915,196.8754 914.5156,196.8754 Q913.3438,196.8754 912.6406,197.4067 Q911.9375,197.9379 911.6406,198.8911 Q911.3438,199.8442 911.3438,201.1098 Q911.3438,203.1254 912.0625,204.0942 Q912.7813,205.0473 914.375,205.0473 Q914.9688,205.0473 915.5938,204.8911 Q916.2188,204.7348 917.0469,204.3598 L917.0469,206.5786 Q916.3125,206.8911 915.5156,207.0473 Q914.7344,207.2036 913.9688,207.2036 Z "/><text fill="#000000" font-family="sans-serif" font-size="12" lengthAdjust="spacingAndGlyphs" textLength="72" x="928" y="205.6877">ElencoSensori</text><line style="stroke: #A80036; stroke-width: 1.5;" x1="900" x2="1002" y1="217.0317" y2="217.0317"/><line style="stroke: #A80036; stroke-width: 1.5;" x1="900" x2="1002" y1="225.0317" y2="225.0317"/><!--MD5=[da49177558a78120c4d786a1f64c4c58]
class src.domotix.model.ElencoUnitaImmobiliari--><rect fill="#FEFECE" filter="url(#fjuhqmoglbm73)" height="48" id="src.domotix.model.ElencoUnitaImmobiliari" style="stroke: #A80036; stroke-width: 1.5;" width="156" x="708" y="185.0317"/><ellipse cx="723" cy="201.0317" fill="#ADD1B2" rx="11" ry="11" style="stroke: #A80036; stroke-width: 1.0;"/><path d="M722.9688,207.2036 Q721.2188,207.2036 720.0781,206.4692 Q718.9531,205.7192 718.3906,204.3754 Q717.8438,203.0161 717.8438,201.2192 Q717.8438,199.1879 718.5,197.7348 Q719.1563,196.2817 720.4375,195.5004 Q721.7188,194.7192 723.5938,194.7192 Q724.4844,194.7192 725.1563,194.9067 Q725.8281,195.0786 726.5156,195.4223 L725.7031,197.4379 Q725.0781,197.1254 724.5313,197.0004 Q724,196.8754 723.5156,196.8754 Q722.3438,196.8754 721.6406,197.4067 Q720.9375,197.9379 720.6406,198.8911 Q720.3438,199.8442 720.3438,201.1098 Q720.3438,203.1254 721.0625,204.0942 Q721.7813,205.0473 723.375,205.0473 Q723.9688,205.0473 724.5938,204.8911 Q725.2188,204.7348 726.0469,204.3598 L726.0469,206.5786 Q725.3125,206.8911 724.5156,207.0473 Q723.7344,207.2036 722.9688,207.2036 Z "/><text fill="#000000" font-family="sans-serif" font-size="12" lengthAdjust="spacingAndGlyphs" textLength="124" x="737" y="205.6877">ElencoUnitaImmobiliari</text><line style="stroke: #A80036; stroke-width: 1.5;" x1="709" x2="863" y1="217.0317" y2="217.0317"/><line style="stroke: #A80036; stroke-width: 1.5;" x1="709" x2="863" y1="225.0317" y2="225.0317"/><!--MD5=[668335eaa7b770ef535ec4ea911ca1ab]
class src.domotix.model.ElencoAzioniProgramate--><rect fill="#FEFECE" filter="url(#fjuhqmoglbm73)" height="227.7827" id="src.domotix.model.ElencoAzioniProgramate" style="stroke: #A80036; stroke-width: 1.5;" width="197" x="89.5" y="95.0317"/><ellipse cx="121.15" cy="111.0317" fill="#ADD1B2" rx="11" ry="11" style="stroke: #A80036; stroke-width: 1.0;"/><path d="M121.1188,117.2036 Q119.3688,117.2036 118.2281,116.4692 Q117.1031,115.7192 116.5406,114.3754 Q115.9938,113.0161 115.9938,111.2192 Q115.9938,109.1879 116.65,107.7348 Q117.3063,106.2817 118.5875,105.5004 Q119.8688,104.7192 121.7438,104.7192 Q122.6344,104.7192 123.3063,104.9067 Q123.9781,105.0786 124.6656,105.4223 L123.8531,107.4379 Q123.2281,107.1254 122.6813,107.0004 Q122.15,106.8754 121.6656,106.8754 Q120.4938,106.8754 119.7906,107.4067 Q119.0875,107.9379 118.7906,108.8911 Q118.4938,109.8442 118.4938,111.1098 Q118.4938,113.1254 119.2125,114.0942 Q119.9313,115.0473 121.525,115.0473 Q122.1188,115.0473 122.7438,114.8911 Q123.3688,114.7348 124.1969,114.3598 L124.1969,116.5786 Q123.4625,116.8911 122.6656,117.0473 Q121.8844,117.2036 121.1188,117.2036 Z "/><text fill="#000000" font-family="sans-serif" font-size="12" lengthAdjust="spacingAndGlyphs" textLength="128" x="138.85" y="115.6877">ElencoAzioniProgramate</text><line style="stroke: #A80036; stroke-width: 1.5;" x1="90.5" x2="285.5" y1="127.0317" y2="127.0317"/><rect fill="none" height="6" style="stroke: #C82930; stroke-width: 1.0;" width="6" x="97.5" y="135.0317"/><text fill="#000000" font-family="sans-serif" font-size="11" lengthAdjust="spacingAndGlyphs" text-decoration="underline" textLength="171" x="109.5" y="142.7906">instance : ElencoAzioniProgrammate</text><rect fill="none" height="6" style="stroke: #C82930; stroke-width: 1.0;" width="6" x="97.5" y="150.0136"/><text fill="#000000" font-family="sans-serif" font-size="11" lengthAdjust="spacingAndGlyphs" textLength="154" x="109.5" y="157.7725">azioni : HashMap&lt;String, Azione&gt;</text><line style="stroke: #A80036; stroke-width: 1.5;" x1="90.5" x2="285.5" y1="164.9955" y2="164.9955"/><ellipse cx="100.5" cy="175.9955" fill="#84BE84" rx="3" ry="3" style="stroke: #038048; stroke-width: 1.0;"/><text fill="#000000" font-family="sans-serif" font-size="11" lengthAdjust="spacingAndGlyphs" text-decoration="underline" textLength="61" x="109.5" y="180.7544">getInstance()</text><rect fill="#F24D5C" height="6" style="stroke: #C82930; stroke-width: 1.0;" width="6" x="97.5" y="187.9774"/><text fill="#000000" font-family="sans-serif" font-size="11" lengthAdjust="spacingAndGlyphs" textLength="132" x="109.5" y="195.7363">ElencoAzioniProgrammate()</text><ellipse cx="100.5" cy="205.9592" fill="#84BE84" rx="3" ry="3" style="stroke: #038048; stroke-width: 1.0;"/><text fill="#000000" font-family="sans-serif" font-size="11" lengthAdjust="spacingAndGlyphs" textLength="24" x="109.5" y="210.7182">add()</text><ellipse cx="100.5" cy="220.9411" fill="#84BE84" rx="3" ry="3" style="stroke: #038048; stroke-width: 1.0;"/><text fill="#000000" font-family="sans-serif" font-size="11" lengthAdjust="spacingAndGlyphs" textLength="43" x="109.5" y="225.7">remove()</text><ellipse cx="100.5" cy="235.923" fill="#84BE84" rx="3" ry="3" style="stroke: #038048; stroke-width: 1.0;"/><text fill="#000000" font-family="sans-serif" font-size="11" lengthAdjust="spacingAndGlyphs" textLength="45" x="109.5" y="240.6819">contains()</text><ellipse cx="100.5" cy="250.9049" fill="#84BE84" rx="3" ry="3" style="stroke: #038048; stroke-width: 1.0;"/><text fill="#000000" font-family="sans-serif" font-size="11" lengthAdjust="spacingAndGlyphs" textLength="53" x="109.5" y="255.6638">getAzione()</text><ellipse cx="100.5" cy="265.8868" fill="#84BE84" rx="3" ry="3" style="stroke: #038048; stroke-width: 1.0;"/><text fill="#000000" font-family="sans-serif" font-size="11" lengthAdjust="spacingAndGlyphs" textLength="94" x="109.5" y="270.6457">getCoppieIdAzione()</text><ellipse cx="100.5" cy="280.8687" fill="#84BE84" rx="3" ry="3" style="stroke: #038048; stroke-width: 1.0;"/><text fill="#000000" font-family="sans-serif" font-size="11" lengthAdjust="spacingAndGlyphs" textLength="49" x="109.5" y="285.6276">getAzioni()</text><ellipse cx="100.5" cy="295.8506" fill="#84BE84" rx="3" ry="3" style="stroke: #038048; stroke-width: 1.0;"/><text fill="#000000" font-family="sans-serif" font-size="11" lengthAdjust="spacingAndGlyphs" textLength="58" x="109.5" y="300.6095">getIdAzioni()</text><ellipse cx="100.5" cy="310.8325" fill="#84BE84" rx="3" ry="3" style="stroke: #038048; stroke-width: 1.0;"/><text fill="#000000" font-family="sans-serif" font-size="11" lengthAdjust="spacingAndGlyphs" textLength="43" x="109.5" y="315.5914">isEmpty()</text><!--MD5=[f026e8bbc4cdf0765818bf3378b7b221]
class src.domotix.model.util.SommarioDispositivi--><rect fill="#FEFECE" filter="url(#fjuhqmoglbm73)" height="48" id="src.domotix.model.util.SommarioDispositivi" style="stroke: #A80036; stroke-width: 1.5;" width="141" x="951.5" y="502.0317"/><ellipse cx="966.5" cy="518.0317" fill="#ADD1B2" rx="11" ry="11" style="stroke: #A80036; stroke-width: 1.0;"/><path d="M966.4688,524.2036 Q964.7188,524.2036 963.5781,523.4692 Q962.4531,522.7192 961.8906,521.3754 Q961.3438,520.0161 961.3438,518.2192 Q961.3438,516.1879 962,514.7348 Q962.6563,513.2817 963.9375,512.5004 Q965.2188,511.7192 967.0938,511.7192 Q967.9844,511.7192 968.6563,511.9067 Q969.3281,512.0786 970.0156,512.4223 L969.2031,514.4379 Q968.5781,514.1254 968.0313,514.0004 Q967.5,513.8754 967.0156,513.8754 Q965.8438,513.8754 965.1406,514.4067 Q964.4375,514.9379 964.1406,515.8911 Q963.8438,516.8442 963.8438,518.1098 Q963.8438,520.1254 964.5625,521.0942 Q965.2813,522.0473 966.875,522.0473 Q967.4688,522.0473 968.0938,521.8911 Q968.7188,521.7348 969.5469,521.3598 L969.5469,523.5786 Q968.8125,523.8911 968.0156,524.0473 Q967.2344,524.2036 966.4688,524.2036 Z "/><text fill="#000000" font-family="sans-serif" font-size="12" lengthAdjust="spacingAndGlyphs" textLength="109" x="980.5" y="522.6877">SommarioDispositivi</text><line style="stroke: #A80036; stroke-width: 1.5;" x1="952.5" x2="1091.5" y1="534.0317" y2="534.0317"/><line style="stroke: #A80036; stroke-width: 1.5;" x1="952.5" x2="1091.5" y1="542.0317" y2="542.0317"/><polygon fill="#FFFFFF" filter="url(#fjuhqmoglbm73)" points="22,180.0317,40,180.0317,47,205.0996,54,205.0996,54,238.1675,22,238.1675,22,180.0317" style="stroke: #000000; stroke-width: 1.5;"/><line style="stroke: #000000; stroke-width: 1.5;" x1="22" x2="47" y1="205.0996" y2="205.0996"/><text fill="#000000" font-family="sans-serif" font-size="14" font-weight="bold" lengthAdjust="spacingAndGlyphs" textLength="12" x="26" y="196.9976">io</text><!--MD5=[2bab098457974428bb9cba96115d2257]
class src.domotix.model.gestioneerrori.LogErrori--><rect fill="#FEFECE" filter="url(#fjuhqmoglbm73)" height="48" id="src.domotix.model.gestioneerrori.LogErrori" style="stroke: #A80036; stroke-width: 1.5;" width="80" x="1344" y="185.0317"/><ellipse cx="1359" cy="201.0317" fill="#ADD1B2" rx="11" ry="11" style="stroke: #A80036; stroke-width: 1.0;"/><path d="M1358.9688,207.2036 Q1357.2188,207.2036 1356.0781,206.4692 Q1354.9531,205.7192 1354.3906,204.3754 Q1353.8438,203.0161 1353.8438,201.2192 Q1353.8438,199.1879 1354.5,197.7348 Q1355.1563,196.2817 1356.4375,195.5004 Q1357.7188,194.7192 1359.5938,194.7192 Q1360.4844,194.7192 1361.1563,194.9067 Q1361.8281,195.0786 1362.5156,195.4223 L1361.7031,197.4379 Q1361.0781,197.1254 1360.5313,197.0004 Q1360,196.8754 1359.5156,196.8754 Q1358.3438,196.8754 1357.6406,197.4067 Q1356.9375,197.9379 1356.6406,198.8911 Q1356.3438,199.8442 1356.3438,201.1098 Q1356.3438,203.1254 1357.0625,204.0942 Q1357.7813,205.0473 1359.375,205.0473 Q1359.9688,205.0473 1360.5938,204.8911 Q1361.2188,204.7348 1362.0469,204.3598 L1362.0469,206.5786 Q1361.3125,206.8911 1360.5156,207.0473 Q1359.7344,207.2036 1358.9688,207.2036 Z "/><text fill="#000000" font-family="sans-serif" font-size="12" lengthAdjust="spacingAndGlyphs" textLength="48" x="1373" y="205.6877">LogErrori</text><line style="stroke: #A80036; stroke-width: 1.5;" x1="1345" x2="1423" y1="217.0317" y2="217.0317"/><line style="stroke: #A80036; stroke-width: 1.5;" x1="1345" x2="1423" y1="225.0317" y2="225.0317"/><!--MD5=[e1aef0964c9b4c5631b0ab81c7a9970f]
class src.domotix.model.gestioneerrori.StoreIstanzeErrori--><rect fill="#FEFECE" filter="url(#fjuhqmoglbm73)" height="48" id="src.domotix.model.gestioneerrori.StoreIstanzeErrori" style="stroke: #A80036; stroke-width: 1.5;" width="124" x="1185" y="185.0317"/><ellipse cx="1200" cy="201.0317" fill="#ADD1B2" rx="11" ry="11" style="stroke: #A80036; stroke-width: 1.0;"/><path d="M1199.9688,207.2036 Q1198.2188,207.2036 1197.0781,206.4692 Q1195.9531,205.7192 1195.3906,204.3754 Q1194.8438,203.0161 1194.8438,201.2192 Q1194.8438,199.1879 1195.5,197.7348 Q1196.1563,196.2817 1197.4375,195.5004 Q1198.7188,194.7192 1200.5938,194.7192 Q1201.4844,194.7192 1202.1563,194.9067 Q1202.8281,195.0786 1203.5156,195.4223 L1202.7031,197.4379 Q1202.0781,197.1254 1201.5313,197.0004 Q1201,196.8754 1200.5156,196.8754 Q1199.3438,196.8754 1198.6406,197.4067 Q1197.9375,197.9379 1197.6406,198.8911 Q1197.3438,199.8442 1197.3438,201.1098 Q1197.3438,203.1254 1198.0625,204.0942 Q1198.7813,205.0473 1200.375,205.0473 Q1200.9688,205.0473 1201.5938,204.8911 Q1202.2188,204.7348 1203.0469,204.3598 L1203.0469,206.5786 Q1202.3125,206.8911 1201.5156,207.0473 Q1200.7344,207.2036 1199.9688,207.2036 Z "/><text fill="#000000" font-family="sans-serif" font-size="12" lengthAdjust="spacingAndGlyphs" textLength="92" x="1214" y="205.6877">StoreIstanzeErrori</text><line style="stroke: #A80036; stroke-width: 1.5;" x1="1186" x2="1308" y1="217.0317" y2="217.0317"/><line style="stroke: #A80036; stroke-width: 1.5;" x1="1186" x2="1308" y1="225.0317" y2="225.0317"/><!--MD5=[fee1f461644b36a0574e21f0c156ea59]
class src.domotix.model.bean.UnitaImmobiliare--><rect fill="#FEFECE" filter="url(#fjuhqmoglbm73)" height="48" id="src.domotix.model.bean.UnitaImmobiliare" style="stroke: #A80036; stroke-width: 1.5;" width="125" x="669.5" y="502.0317"/><ellipse cx="684.5" cy="518.0317" fill="#ADD1B2" rx="11" ry="11" style="stroke: #A80036; stroke-width: 1.0;"/><path d="M684.4688,524.2036 Q682.7188,524.2036 681.5781,523.4692 Q680.4531,522.7192 679.8906,521.3754 Q679.3438,520.0161 679.3438,518.2192 Q679.3438,516.1879 680,514.7348 Q680.6563,513.2817 681.9375,512.5004 Q683.2188,511.7192 685.0938,511.7192 Q685.9844,511.7192 686.6563,511.9067 Q687.3281,512.0786 688.0156,512.4223 L687.2031,514.4379 Q686.5781,514.1254 686.0313,514.0004 Q685.5,513.8754 685.0156,513.8754 Q683.8438,513.8754 683.1406,514.4067 Q682.4375,514.9379 682.1406,515.8911 Q681.8438,516.8442 681.8438,518.1098 Q681.8438,520.1254 682.5625,521.0942 Q683.2813,522.0473 684.875,522.0473 Q685.4688,522.0473 686.0938,521.8911 Q686.7188,521.7348 687.5469,521.3598 L687.5469,523.5786 Q686.8125,523.8911 686.0156,524.0473 Q685.2344,524.2036 684.4688,524.2036 Z "/><text fill="#000000" font-family="sans-serif" font-size="12" lengthAdjust="spacingAndGlyphs" textLength="93" x="698.5" y="522.6877">UnitaImmobiliare</text><line style="stroke: #A80036; stroke-width: 1.5;" x1="670.5" x2="793.5" y1="534.0317" y2="534.0317"/><line style="stroke: #A80036; stroke-width: 1.5;" x1="670.5" x2="793.5" y1="542.0317" y2="542.0317"/><!--MD5=[6560fd6f3318f918a0970b00832c4e2e]
class src.domotix.model.bean.device.CategoriaAttuatore--><rect fill="#FEFECE" filter="url(#fjuhqmoglbm73)" height="48" id="src.domotix.model.bean.device.CategoriaAttuatore" style="stroke: #A80036; stroke-width: 1.5;" width="131" x="503.5" y="502.0317"/><ellipse cx="518.5" cy="518.0317" fill="#ADD1B2" rx="11" ry="11" style="stroke: #A80036; stroke-width: 1.0;"/><path d="M518.4688,524.2036 Q516.7188,524.2036 515.5781,523.4692 Q514.4531,522.7192 513.8906,521.3754 Q513.3438,520.0161 513.3438,518.2192 Q513.3438,516.1879 514,514.7348 Q514.6563,513.2817 515.9375,512.5004 Q517.2188,511.7192 519.0938,511.7192 Q519.9844,511.7192 520.6563,511.9067 Q521.3281,512.0786 522.0156,512.4223 L521.2031,514.4379 Q520.5781,514.1254 520.0313,514.0004 Q519.5,513.8754 519.0156,513.8754 Q517.8438,513.8754 517.1406,514.4067 Q516.4375,514.9379 516.1406,515.8911 Q515.8438,516.8442 515.8438,518.1098 Q515.8438,520.1254 516.5625,521.0942 Q517.2813,522.0473 518.875,522.0473 Q519.4688,522.0473 520.0938,521.8911 Q520.7188,521.7348 521.5469,521.3598 L521.5469,523.5786 Q520.8125,523.8911 520.0156,524.0473 Q519.2344,524.2036 518.4688,524.2036 Z "/><text fill="#000000" font-family="sans-serif" font-size="12" lengthAdjust="spacingAndGlyphs" textLength="99" x="532.5" y="522.6877">CategoriaAttuatore</text><line style="stroke: #A80036; stroke-width: 1.5;" x1="504.5" x2="633.5" y1="534.0317" y2="534.0317"/><line style="stroke: #A80036; stroke-width: 1.5;" x1="504.5" x2="633.5" y1="542.0317" y2="542.0317"/><!--MD5=[707552fc0b7e96869f010eaeac4db4bf]
class src.domotix.model.bean.device.CategoriaSensore--><rect fill="#FEFECE" filter="url(#fjuhqmoglbm73)" height="48" id="src.domotix.model.bean.device.CategoriaSensore" style="stroke: #A80036; stroke-width: 1.5;" width="123" x="345.5" y="502.0317"/><ellipse cx="360.5" cy="518.0317" fill="#ADD1B2" rx="11" ry="11" style="stroke: #A80036; stroke-width: 1.0;"/><path d="M360.4688,524.2036 Q358.7188,524.2036 357.5781,523.4692 Q356.4531,522.7192 355.8906,521.3754 Q355.3438,520.0161 355.3438,518.2192 Q355.3438,516.1879 356,514.7348 Q356.6563,513.2817 357.9375,512.5004 Q359.2188,511.7192 361.0938,511.7192 Q361.9844,511.7192 362.6563,511.9067 Q363.3281,512.0786 364.0156,512.4223 L363.2031,514.4379 Q362.5781,514.1254 362.0313,514.0004 Q361.5,513.8754 361.0156,513.8754 Q359.8438,513.8754 359.1406,514.4067 Q358.4375,514.9379 358.1406,515.8911 Q357.8438,516.8442 357.8438,518.1098 Q357.8438,520.1254 358.5625,521.0942 Q359.2813,522.0473 360.875,522.0473 Q361.4688,522.0473 362.0938,521.8911 Q362.7188,521.7348 363.5469,521.3598 L363.5469,523.5786 Q362.8125,523.8911 362.0156,524.0473 Q361.2344,524.2036 360.4688,524.2036 Z "/><text fill="#000000" font-family="sans-serif" font-size="12" lengthAdjust="spacingAndGlyphs" textLength="91" x="374.5" y="522.6877">CategoriaSensore</text><line style="stroke: #A80036; stroke-width: 1.5;" x1="346.5" x2="467.5" y1="534.0317" y2="534.0317"/><line style="stroke: #A80036; stroke-width: 1.5;" x1="346.5" x2="467.5" y1="542.0317" y2="542.0317"/><!--MD5=[09cc04e20de61a477b69879a6560b761]
class src.domotix.model.bean.regola.Azione--><rect fill="#FEFECE" filter="url(#fjuhqmoglbm73)" height="48" id="src.domotix.model.bean.regola.Azione" style="stroke: #A80036; stroke-width: 1.5;" width="67" x="243.5" y="502.0317"/><ellipse cx="258.5" cy="518.0317" fill="#ADD1B2" rx="11" ry="11" style="stroke: #A80036; stroke-width: 1.0;"/><path d="M258.4688,524.2036 Q256.7188,524.2036 255.5781,523.4692 Q254.4531,522.7192 253.8906,521.3754 Q253.3438,520.0161 253.3438,518.2192 Q253.3438,516.1879 254,514.7348 Q254.6563,513.2817 255.9375,512.5004 Q257.2188,511.7192 259.0938,511.7192 Q259.9844,511.7192 260.6563,511.9067 Q261.3281,512.0786 262.0156,512.4223 L261.2031,514.4379 Q260.5781,514.1254 260.0313,514.0004 Q259.5,513.8754 259.0156,513.8754 Q257.8438,513.8754 257.1406,514.4067 Q256.4375,514.9379 256.1406,515.8911 Q255.8438,516.8442 255.8438,518.1098 Q255.8438,520.1254 256.5625,521.0942 Q257.2813,522.0473 258.875,522.0473 Q259.4688,522.0473 260.0938,521.8911 Q260.7188,521.7348 261.5469,521.3598 L261.5469,523.5786 Q260.8125,523.8911 260.0156,524.0473 Q259.2344,524.2036 258.4688,524.2036 Z "/><text fill="#000000" font-family="sans-serif" font-size="12" lengthAdjust="spacingAndGlyphs" textLength="35" x="272.5" y="522.6877">Azione</text><line style="stroke: #A80036; stroke-width: 1.5;" x1="244.5" x2="309.5" y1="534.0317" y2="534.0317"/><line style="stroke: #A80036; stroke-width: 1.5;" x1="244.5" x2="309.5" y1="542.0317" y2="542.0317"/><!--MD5=[ce1f3a0b44d3344f945826b076ffc3cf]
link src.domotix.model.ElencoAttuatori to src.domotix.model.util.SommarioDispositivi--><path d="M1088.5292,233.1184 C1076.4474,286.3117 1047.3423,414.4552 1031.942,482.2591 " fill="none" id="src.domotix.model.ElencoAttuatori-&gt;src.domotix.model.util.SommarioDispositivi" style="stroke: #A80036; stroke-width: 1.0;"/><polygon fill="none" points="1038.7185,484.0288,1027.4625,501.9817,1025.0662,480.9279,1038.7185,484.0288" style="stroke: #A80036; stroke-width: 1.0;"/><!--MD5=[3cd964a3c1097d11d9d1557838753124]
link src.domotix.model.ElencoSensori to src.domotix.model.util.SommarioDispositivi--><path d="M956.3948,233.1184 C968.3088,286.3117 997.0097,414.4552 1012.196,482.2591 " fill="none" id="src.domotix.model.ElencoSensori-&gt;src.domotix.model.util.SommarioDispositivi" style="stroke: #A80036; stroke-width: 1.0;"/><polygon fill="none" points="1019.0729,480.9352,1016.6134,501.9817,1005.4114,483.9951,1019.0729,480.9352" style="stroke: #A80036; stroke-width: 1.0;"/><!--MD5=[9f554375b2c6b33ae1f18104887cfc5e]
link src.domotix.model.ElencoUnitaImmobiliari to src.domotix.model.bean.UnitaImmobiliare--><path d="M779.8817,244.948 C779.8817,244.948 748.7343,427.7952 738.3326,488.8569 " fill="none" id="src.domotix.model.ElencoUnitaImmobiliari-src.domotix.model.bean.UnitaImmobiliare" style="stroke: #A80036; stroke-width: 1.0;"/><polygon fill="#A80036" points="736.0969,501.9817,741.5515,493.7812,736.9366,497.0527,733.6651,492.4378,736.0969,501.9817" style="stroke: #A80036; stroke-width: 1.0;"/><line style="stroke: #A80036; stroke-width: 1.0;" x1="736.9366" x2="738.28" y1="497.0527" y2="489.1663"/><polygon fill="#FFFFFF" points="781.8969,233.1184,776.9461,238.3614,779.8817,244.948,784.8325,239.7049,781.8969,233.1184" style="stroke: #A80036; stroke-width: 1.0;"/><text fill="#000000" font-family="sans-serif" font-size="13" lengthAdjust="spacingAndGlyphs" textLength="30" x="757" y="398.9287">unita</text><text fill="#000000" font-family="sans-serif" font-size="13" lengthAdjust="spacingAndGlyphs" textLength="7" x="773.0436" y="255.0445">*</text><text fill="#000000" font-family="sans-serif" font-size="13" lengthAdjust="spacingAndGlyphs" textLength="7" x="729.2573" y="490.2258">1</text><!--MD5=[f70417355f38043970d75f4275e381a9]
link src.domotix.model.ElencoCategorieAttuatori to src.domotix.model.bean.device.CategoriaAttuatore--><path d="M589.3839,245.0869 C589.3839,245.0869 576.1147,427.9722 571.6951,488.8868 " fill="none" id="src.domotix.model.ElencoCategorieAttuatori-src.domotix.model.bean.device.CategoriaAttuatore" style="stroke: #A80036; stroke-width: 1.0;"/><polygon fill="#A80036" points="570.745,501.9817,575.3859,493.2948,571.1069,496.9948,567.4068,492.7158,570.745,501.9817" style="stroke: #A80036; stroke-width: 1.0;"/><line style="stroke: #A80036; stroke-width: 1.0;" x1="571.1069" x2="571.6858" y1="496.9948" y2="489.0157"/><polygon fill="#FFFFFF" points="590.2524,233.1184,585.8286,238.8132,589.3839,245.0869,593.8077,239.3922,590.2524,233.1184" style="stroke: #A80036; stroke-width: 1.0;"/><text fill="#000000" font-family="sans-serif" font-size="13" lengthAdjust="spacingAndGlyphs" textLength="54" x="580" y="398.9287">categorie</text><text fill="#000000" font-family="sans-serif" font-size="13" lengthAdjust="spacingAndGlyphs" textLength="7" x="581.9733" y="255.0445">*</text><text fill="#000000" font-family="sans-serif" font-size="13" lengthAdjust="spacingAndGlyphs" textLength="7" x="563.2733" y="490.2258">1</text><!--MD5=[17ded89276fa7981fb115441657ec0b0]
link src.domotix.model.ElencoCategorieSensori to src.domotix.model.bean.device.CategoriaSensore--><path d="M399.9108,245.1146 C399.9108,245.1146 404.5253,427.9722 406.0626,488.8868 " fill="none" id="src.domotix.model.ElencoCategorieSensori-src.domotix.model.bean.device.CategoriaSensore" style="stroke: #A80036; stroke-width: 1.0;"/><polygon fill="#A80036" points="406.3931,501.9817,410.1647,492.8836,406.2669,496.9833,402.1673,493.0855,406.3931,501.9817" style="stroke: #A80036; stroke-width: 1.0;"/><line style="stroke: #A80036; stroke-width: 1.0;" x1="406.2669" x2="406.0649" y1="496.9833" y2="488.9858"/><polygon fill="#FFFFFF" points="399.6079,233.1184,395.7606,239.2174,399.9108,245.1146,403.7581,239.0155,399.6079,233.1184" style="stroke: #A80036; stroke-width: 1.0;"/><text fill="#000000" font-family="sans-serif" font-size="13" lengthAdjust="spacingAndGlyphs" textLength="54" x="404" y="398.9287">categorie</text><text fill="#000000" font-family="sans-serif" font-size="13" lengthAdjust="spacingAndGlyphs" textLength="7" x="391.903" y="255.0445">*</text><text fill="#000000" font-family="sans-serif" font-size="13" lengthAdjust="spacingAndGlyphs" textLength="7" x="398.2894" y="490.2258">1</text><!--MD5=[c9ebf24055630f73f414ff7cd71fcbe9]
link src.domotix.model.ElencoAzioniProgramate to src.domotix.model.bean.regola.Azione--><path d="M223.3748,335.0292 C223.3748,335.0292 256.0866,451.5424 266.6296,489.0946 " fill="none" id="src.domotix.model.ElencoAzioniProgramate-src.domotix.model.bean.regola.Azione" style="stroke: #A80036; stroke-width: 1.0;"/><polygon fill="#A80036" points="270.21,501.8471,271.6282,492.1009,268.8584,497.0332,263.9261,494.2634,270.21,501.8471" style="stroke: #A80036; stroke-width: 1.0;"/><line style="stroke: #A80036; stroke-width: 1.0;" x1="268.8584" x2="266.696" y1="497.0332" y2="489.331"/><polygon fill="#FFFFFF" points="220.131,323.476,217.9018,330.3339,223.3748,335.0292,225.604,328.1713,220.131,323.476" style="stroke: #A80036; stroke-width: 1.0;"/><text fill="#000000" font-family="sans-serif" font-size="13" lengthAdjust="spacingAndGlyphs" textLength="34" x="243" y="398.9287">azioni</text><text fill="#000000" font-family="sans-serif" font-size="13" lengthAdjust="spacingAndGlyphs" textLength="7" x="214.8757" y="344.8931">*</text><text fill="#000000" font-family="sans-serif" font-size="13" lengthAdjust="spacingAndGlyphs" textLength="7" x="260.4446" y="490.055">1</text><!--MD5=[ad865f81d8d9952a1dcead24495b0a1a]
@startuml

title __DOMOTIX > MODEL's Class Diagram__\n

namespace src.domotix.model {
    class src.domotix.model.ElencoAttuatori {
    }

    class src.domotix.model.ElencoCategorieAttuatori {
    }

    class src.domotix.model.ElencoCategorieSensori {
    }

    class src.domotix.model.ElencoSensori {
    }

    class src.domotix.model.ElencoUnitaImmobiliari {
    }

    class src.domotix.model.ElencoAzioniProgramate {
        {static} - instance : ElencoAzioniProgrammate
        - azioni : HashMap<String, Azione>
        {static} + getInstance()
        - ElencoAzioniProgrammate()
        + add()
        + remove()
        + contains()
        + getAzione()
        + getCoppieIdAzione()
        + getAzioni()
        + getIdAzioni()
        + isEmpty()
    }

    namespace util {
    }

    namespace io {
    }

    namespace gestioneerrori {
        class src.domotix.model.gestioneerrori.LogErrori {
        }

        class src.domotix.model.gestioneerrori.StoreIstanzeErrori {
        }
    }

    namespace bean {
        namespace device {
        }
        namespace regola {
        }
    }
}


src.domotix.model.ElencoAttuatori - -|> src.domotix.model.util.SommarioDispositivi
src.domotix.model.ElencoSensori - -|> src.domotix.model.util.SommarioDispositivi
src.domotix.model.ElencoUnitaImmobiliari "*" o- -> "1" src.domotix.model.bean.UnitaImmobiliare : unita
src.domotix.model.ElencoCategorieAttuatori "*" o- -> "1" src.domotix.model.bean.device.CategoriaAttuatore : categorie
src.domotix.model.ElencoCategorieSensori "*" o- -> "1" src.domotix.model.bean.device.CategoriaSensore : categorie
src.domotix.model.ElencoAzioniProgramate "*" o- -> "1" src.domotix.model.bean.regola.Azione : azioni


@enduml

PlantUML version 1.2019.11(Sun Sep 22 12:02:15 CEST 2019)
(GPL source distribution)
Java Runtime: OpenJDK Runtime Environment
JVM: OpenJDK 64-Bit Server VM
Java Version: 11.0.3+12-b304.10
Operating System: Linux
Default Encoding: UTF-8
Language: it
Country: IT
--></g></svg>