<?xml version="1.0" encoding="UTF-8" standalone="no"?><svg xmlns="http://www.w3.org/2000/svg" xmlns:xlink="http://www.w3.org/1999/xlink" contentScriptType="application/ecmascript" contentStyleType="text/css" height="441px" preserveAspectRatio="none" style="width:1424px;height:441px;" version="1.1" viewBox="0 0 1424 441" width="1424px" zoomAndPan="magnify"><defs><filter height="300%" id="f48n6xes8zgnb" width="300%" x="-1" y="-1"><feGaussianBlur result="blurOut" stdDeviation="2.0"/><feColorMatrix in="blurOut" result="blurOut2" type="matrix" values="0 0 0 0 0 0 0 0 0 0 0 0 0 0 0 0 0 0 .4 0"/><feOffset dx="4.0" dy="4.0" in="blurOut2" result="blurOut3"/><feBlend in="SourceGraphic" in2="blurOut3" mode="normal"/></filter></defs><g><text fill="#000000" font-family="sans-serif" font-size="18" lengthAdjust="spacingAndGlyphs" text-decoration="underline" textLength="295" x="566.5" y="19.2419">DOMOTIX &gt; MODEL's Class Diagram</text><text fill="#000000" font-family="sans-serif" font-size="18" lengthAdjust="spacingAndGlyphs" textLength="0" x="716" y="43.7577"/><!--MD5=[0a790ac5fdecc1ec79658b6b98c9068e]
cluster src.domotix.model--><polygon fill="#FFFFFF" filter="url(#f48n6xes8zgnb)" points="14,65.0317,141,65.0317,148,90.0996,1402,90.0996,1402,429.0317,14,429.0317,14,65.0317" style="stroke: #000000; stroke-width: 1.5;"/><line style="stroke: #000000; stroke-width: 1.5;" x1="14" x2="148" y1="90.0996" y2="90.0996"/><text fill="#000000" font-family="sans-serif" font-size="14" font-weight="bold" lengthAdjust="spacingAndGlyphs" textLength="121" x="18" y="81.9976">src.domotix.model</text><!--MD5=[f07117731684c6860360b82cb7260692]
cluster src.domotix.model.util--><polygon fill="#FFFFFF" filter="url(#f48n6xes8zgnb)" points="905,327.0317,934,327.0317,941,352.0996,1063,352.0996,1063,413.0317,905,413.0317,905,327.0317" style="stroke: #000000; stroke-width: 1.5;"/><line style="stroke: #000000; stroke-width: 1.5;" x1="905" x2="941" y1="352.0996" y2="352.0996"/><text fill="#000000" font-family="sans-serif" font-size="14" font-weight="bold" lengthAdjust="spacingAndGlyphs" textLength="23" x="909" y="343.9976">util</text><!--MD5=[216a9c20675abb02ba7e2944fe4b9ef0]
cluster src.domotix.model.gestioneerrori--><polygon fill="#FFFFFF" filter="url(#f48n6xes8zgnb)" points="1139,95.0317,1240,95.0317,1247,120.0996,1394,120.0996,1394,181.0317,1139,181.0317,1139,95.0317" style="stroke: #000000; stroke-width: 1.5;"/><line style="stroke: #000000; stroke-width: 1.5;" x1="1139" x2="1247" y1="120.0996" y2="120.0996"/><text fill="#000000" font-family="sans-serif" font-size="14" font-weight="bold" lengthAdjust="spacingAndGlyphs" textLength="95" x="1143" y="111.9976">gestioneerrori</text><!--MD5=[93ef5217795d11f1e60750ff284ef631]
cluster src.domotix.model.bean--><polygon fill="#FFFFFF" filter="url(#f48n6xes8zgnb)" points="189,297.0317,228,297.0317,235,322.0996,765,322.0996,765,421.0317,189,421.0317,189,297.0317" style="stroke: #000000; stroke-width: 1.5;"/><line style="stroke: #000000; stroke-width: 1.5;" x1="189" x2="235" y1="322.0996" y2="322.0996"/><text fill="#000000" font-family="sans-serif" font-size="14" font-weight="bold" lengthAdjust="spacingAndGlyphs" textLength="33" x="193" y="313.9976">bean</text><!--MD5=[45d783cd9aaab7322b74d5415c833713]
cluster src.domotix.model.bean.device--><polygon fill="#FFFFFF" filter="url(#f48n6xes8zgnb)" points="299,327.0317,347,327.0317,354,352.0996,605,352.0996,605,413.0317,299,413.0317,299,327.0317" style="stroke: #000000; stroke-width: 1.5;"/><line style="stroke: #000000; stroke-width: 1.5;" x1="299" x2="354" y1="352.0996" y2="352.0996"/><text fill="#000000" font-family="sans-serif" font-size="14" font-weight="bold" lengthAdjust="spacingAndGlyphs" textLength="42" x="303" y="343.9976">device</text><!--MD5=[68c0acc818b83a12ff14a5d5d8cc9060]
cluster src.domotix.model.bean.regola--><polygon fill="#FFFFFF" filter="url(#f48n6xes8zgnb)" points="197,327.0317,245,327.0317,252,352.0996,281,352.0996,281,413.0317,197,413.0317,197,327.0317" style="stroke: #000000; stroke-width: 1.5;"/><line style="stroke: #000000; stroke-width: 1.5;" x1="197" x2="252" y1="352.0996" y2="352.0996"/><text fill="#000000" font-family="sans-serif" font-size="14" font-weight="bold" lengthAdjust="spacingAndGlyphs" textLength="42" x="201" y="343.9976">regola</text><!--MD5=[7c26a10356d02adb4927a4807e9e1ce5]
class src.domotix.model.ElencoAttuatori--><rect fill="#FEFECE" filter="url(#f48n6xes8zgnb)" height="48" id="src.domotix.model.ElencoAttuatori" style="stroke: #A80036; stroke-width: 1.5;" width="112" x="1000" y="125.0317"/><ellipse cx="1015" cy="141.0317" fill="#ADD1B2" rx="11" ry="11" style="stroke: #A80036; stroke-width: 1.0;"/><path d="M1014.9688,147.2036 Q1013.2188,147.2036 1012.0781,146.4692 Q1010.9531,145.7192 1010.3906,144.3754 Q1009.8438,143.0161 1009.8438,141.2192 Q1009.8438,139.1879 1010.5,137.7348 Q1011.1563,136.2817 1012.4375,135.5004 Q1013.7188,134.7192 1015.5938,134.7192 Q1016.4844,134.7192 1017.1563,134.9067 Q1017.8281,135.0786 1018.5156,135.4223 L1017.7031,137.4379 Q1017.0781,137.1254 1016.5313,137.0004 Q1016,136.8754 1015.5156,136.8754 Q1014.3438,136.8754 1013.6406,137.4067 Q1012.9375,137.9379 1012.6406,138.8911 Q1012.3438,139.8442 1012.3438,141.1098 Q1012.3438,143.1254 1013.0625,144.0942 Q1013.7813,145.0473 1015.375,145.0473 Q1015.9688,145.0473 1016.5938,144.8911 Q1017.2188,144.7348 1018.0469,144.3598 L1018.0469,146.5786 Q1017.3125,146.8911 1016.5156,147.0473 Q1015.7344,147.2036 1014.9688,147.2036 Z "/><text fill="#000000" font-family="sans-serif" font-size="12" lengthAdjust="spacingAndGlyphs" textLength="80" x="1029" y="145.6877">ElencoAttuatori</text><line style="stroke: #A80036; stroke-width: 1.5;" x1="1001" x2="1111" y1="157.0317" y2="157.0317"/><line style="stroke: #A80036; stroke-width: 1.5;" x1="1001" x2="1111" y1="165.0317" y2="165.0317"/><!--MD5=[535b96484ab6dbcb18bf1f7368a160a8]
class src.domotix.model.ElencoCategorieAttuatori--><rect fill="#FEFECE" filter="url(#f48n6xes8zgnb)" height="48" id="src.domotix.model.ElencoCategorieAttuatori" style="stroke: #A80036; stroke-width: 1.5;" width="162" x="473" y="125.0317"/><ellipse cx="488" cy="141.0317" fill="#ADD1B2" rx="11" ry="11" style="stroke: #A80036; stroke-width: 1.0;"/><path d="M487.9688,147.2036 Q486.2188,147.2036 485.0781,146.4692 Q483.9531,145.7192 483.3906,144.3754 Q482.8438,143.0161 482.8438,141.2192 Q482.8438,139.1879 483.5,137.7348 Q484.1563,136.2817 485.4375,135.5004 Q486.7188,134.7192 488.5938,134.7192 Q489.4844,134.7192 490.1563,134.9067 Q490.8281,135.0786 491.5156,135.4223 L490.7031,137.4379 Q490.0781,137.1254 489.5313,137.0004 Q489,136.8754 488.5156,136.8754 Q487.3438,136.8754 486.6406,137.4067 Q485.9375,137.9379 485.6406,138.8911 Q485.3438,139.8442 485.3438,141.1098 Q485.3438,143.1254 486.0625,144.0942 Q486.7813,145.0473 488.375,145.0473 Q488.9688,145.0473 489.5938,144.8911 Q490.2188,144.7348 491.0469,144.3598 L491.0469,146.5786 Q490.3125,146.8911 489.5156,147.0473 Q488.7344,147.2036 487.9688,147.2036 Z "/><text fill="#000000" font-family="sans-serif" font-size="12" lengthAdjust="spacingAndGlyphs" textLength="130" x="502" y="145.6877">ElencoCategorieAttuatori</text><line style="stroke: #A80036; stroke-width: 1.5;" x1="474" x2="634" y1="157.0317" y2="157.0317"/><line style="stroke: #A80036; stroke-width: 1.5;" x1="474" x2="634" y1="165.0317" y2="165.0317"/><!--MD5=[e935c5c922d25a9dbc177ea01dacaf0d]
class src.domotix.model.ElencoCategorieSensori--><rect fill="#FEFECE" filter="url(#f48n6xes8zgnb)" height="48" id="src.domotix.model.ElencoCategorieSensori" style="stroke: #A80036; stroke-width: 1.5;" width="154" x="284" y="125.0317"/><ellipse cx="299" cy="141.0317" fill="#ADD1B2" rx="11" ry="11" style="stroke: #A80036; stroke-width: 1.0;"/><path d="M298.9688,147.2036 Q297.2188,147.2036 296.0781,146.4692 Q294.9531,145.7192 294.3906,144.3754 Q293.8438,143.0161 293.8438,141.2192 Q293.8438,139.1879 294.5,137.7348 Q295.1563,136.2817 296.4375,135.5004 Q297.7188,134.7192 299.5938,134.7192 Q300.4844,134.7192 301.1563,134.9067 Q301.8281,135.0786 302.5156,135.4223 L301.7031,137.4379 Q301.0781,137.1254 300.5313,137.0004 Q300,136.8754 299.5156,136.8754 Q298.3438,136.8754 297.6406,137.4067 Q296.9375,137.9379 296.6406,138.8911 Q296.3438,139.8442 296.3438,141.1098 Q296.3438,143.1254 297.0625,144.0942 Q297.7813,145.0473 299.375,145.0473 Q299.9688,145.0473 300.5938,144.8911 Q301.2188,144.7348 302.0469,144.3598 L302.0469,146.5786 Q301.3125,146.8911 300.5156,147.0473 Q299.7344,147.2036 298.9688,147.2036 Z "/><text fill="#000000" font-family="sans-serif" font-size="12" lengthAdjust="spacingAndGlyphs" textLength="122" x="313" y="145.6877">ElencoCategorieSensori</text><line style="stroke: #A80036; stroke-width: 1.5;" x1="285" x2="437" y1="157.0317" y2="157.0317"/><line style="stroke: #A80036; stroke-width: 1.5;" x1="285" x2="437" y1="165.0317" y2="165.0317"/><!--MD5=[8216fbdf062926a8e46fb80986d95232]
class src.domotix.model.ElencoSensori--><rect fill="#FEFECE" filter="url(#f48n6xes8zgnb)" height="48" id="src.domotix.model.ElencoSensori" style="stroke: #A80036; stroke-width: 1.5;" width="104" x="861" y="125.0317"/><ellipse cx="876" cy="141.0317" fill="#ADD1B2" rx="11" ry="11" style="stroke: #A80036; stroke-width: 1.0;"/><path d="M875.9688,147.2036 Q874.2188,147.2036 873.0781,146.4692 Q871.9531,145.7192 871.3906,144.3754 Q870.8438,143.0161 870.8438,141.2192 Q870.8438,139.1879 871.5,137.7348 Q872.1563,136.2817 873.4375,135.5004 Q874.7188,134.7192 876.5938,134.7192 Q877.4844,134.7192 878.1563,134.9067 Q878.8281,135.0786 879.5156,135.4223 L878.7031,137.4379 Q878.0781,137.1254 877.5313,137.0004 Q877,136.8754 876.5156,136.8754 Q875.3438,136.8754 874.6406,137.4067 Q873.9375,137.9379 873.6406,138.8911 Q873.3438,139.8442 873.3438,141.1098 Q873.3438,143.1254 874.0625,144.0942 Q874.7813,145.0473 876.375,145.0473 Q876.9688,145.0473 877.5938,144.8911 Q878.2188,144.7348 879.0469,144.3598 L879.0469,146.5786 Q878.3125,146.8911 877.5156,147.0473 Q876.7344,147.2036 875.9688,147.2036 Z "/><text fill="#000000" font-family="sans-serif" font-size="12" lengthAdjust="spacingAndGlyphs" textLength="72" x="890" y="145.6877">ElencoSensori</text><line style="stroke: #A80036; stroke-width: 1.5;" x1="862" x2="964" y1="157.0317" y2="157.0317"/><line style="stroke: #A80036; stroke-width: 1.5;" x1="862" x2="964" y1="165.0317" y2="165.0317"/><!--MD5=[da49177558a78120c4d786a1f64c4c58]
class src.domotix.model.ElencoUnitaImmobiliari--><rect fill="#FEFECE" filter="url(#f48n6xes8zgnb)" height="48" id="src.domotix.model.ElencoUnitaImmobiliari" style="stroke: #A80036; stroke-width: 1.5;" width="156" x="670" y="125.0317"/><ellipse cx="685" cy="141.0317" fill="#ADD1B2" rx="11" ry="11" style="stroke: #A80036; stroke-width: 1.0;"/><path d="M684.9688,147.2036 Q683.2188,147.2036 682.0781,146.4692 Q680.9531,145.7192 680.3906,144.3754 Q679.8438,143.0161 679.8438,141.2192 Q679.8438,139.1879 680.5,137.7348 Q681.1563,136.2817 682.4375,135.5004 Q683.7188,134.7192 685.5938,134.7192 Q686.4844,134.7192 687.1563,134.9067 Q687.8281,135.0786 688.5156,135.4223 L687.7031,137.4379 Q687.0781,137.1254 686.5313,137.0004 Q686,136.8754 685.5156,136.8754 Q684.3438,136.8754 683.6406,137.4067 Q682.9375,137.9379 682.6406,138.8911 Q682.3438,139.8442 682.3438,141.1098 Q682.3438,143.1254 683.0625,144.0942 Q683.7813,145.0473 685.375,145.0473 Q685.9688,145.0473 686.5938,144.8911 Q687.2188,144.7348 688.0469,144.3598 L688.0469,146.5786 Q687.3125,146.8911 686.5156,147.0473 Q685.7344,147.2036 684.9688,147.2036 Z "/><text fill="#000000" font-family="sans-serif" font-size="12" lengthAdjust="spacingAndGlyphs" textLength="124" x="699" y="145.6877">ElencoUnitaImmobiliari</text><line style="stroke: #A80036; stroke-width: 1.5;" x1="671" x2="825" y1="157.0317" y2="157.0317"/><line style="stroke: #A80036; stroke-width: 1.5;" x1="671" x2="825" y1="165.0317" y2="165.0317"/><!--MD5=[668335eaa7b770ef535ec4ea911ca1ab]
class src.domotix.model.ElencoAzioniProgramate--><rect fill="#FEFECE" filter="url(#f48n6xes8zgnb)" height="48" id="src.domotix.model.ElencoAzioniProgramate" style="stroke: #A80036; stroke-width: 1.5;" width="160" x="89" y="125.0317"/><ellipse cx="104" cy="141.0317" fill="#ADD1B2" rx="11" ry="11" style="stroke: #A80036; stroke-width: 1.0;"/><path d="M103.9688,147.2036 Q102.2188,147.2036 101.0781,146.4692 Q99.9531,145.7192 99.3906,144.3754 Q98.8438,143.0161 98.8438,141.2192 Q98.8438,139.1879 99.5,137.7348 Q100.1563,136.2817 101.4375,135.5004 Q102.7188,134.7192 104.5938,134.7192 Q105.4844,134.7192 106.1563,134.9067 Q106.8281,135.0786 107.5156,135.4223 L106.7031,137.4379 Q106.0781,137.1254 105.5313,137.0004 Q105,136.8754 104.5156,136.8754 Q103.3438,136.8754 102.6406,137.4067 Q101.9375,137.9379 101.6406,138.8911 Q101.3438,139.8442 101.3438,141.1098 Q101.3438,143.1254 102.0625,144.0942 Q102.7813,145.0473 104.375,145.0473 Q104.9688,145.0473 105.5938,144.8911 Q106.2188,144.7348 107.0469,144.3598 L107.0469,146.5786 Q106.3125,146.8911 105.5156,147.0473 Q104.7344,147.2036 103.9688,147.2036 Z "/><text fill="#000000" font-family="sans-serif" font-size="12" lengthAdjust="spacingAndGlyphs" textLength="128" x="118" y="145.6877">ElencoAzioniProgramate</text><line style="stroke: #A80036; stroke-width: 1.5;" x1="90" x2="248" y1="157.0317" y2="157.0317"/><line style="stroke: #A80036; stroke-width: 1.5;" x1="90" x2="248" y1="165.0317" y2="165.0317"/><!--MD5=[f026e8bbc4cdf0765818bf3378b7b221]
class src.domotix.model.util.SommarioDispositivi--><rect fill="#FEFECE" filter="url(#f48n6xes8zgnb)" height="48" id="src.domotix.model.util.SommarioDispositivi" style="stroke: #A80036; stroke-width: 1.5;" width="141" x="913.5" y="357.0317"/><ellipse cx="928.5" cy="373.0317" fill="#ADD1B2" rx="11" ry="11" style="stroke: #A80036; stroke-width: 1.0;"/><path d="M928.4688,379.2036 Q926.7188,379.2036 925.5781,378.4692 Q924.4531,377.7192 923.8906,376.3754 Q923.3438,375.0161 923.3438,373.2192 Q923.3438,371.1879 924,369.7348 Q924.6563,368.2817 925.9375,367.5004 Q927.2188,366.7192 929.0938,366.7192 Q929.9844,366.7192 930.6563,366.9067 Q931.3281,367.0786 932.0156,367.4223 L931.2031,369.4379 Q930.5781,369.1254 930.0313,369.0004 Q929.5,368.8754 929.0156,368.8754 Q927.8438,368.8754 927.1406,369.4067 Q926.4375,369.9379 926.1406,370.8911 Q925.8438,371.8442 925.8438,373.1098 Q925.8438,375.1254 926.5625,376.0942 Q927.2813,377.0473 928.875,377.0473 Q929.4688,377.0473 930.0938,376.8911 Q930.7188,376.7348 931.5469,376.3598 L931.5469,378.5786 Q930.8125,378.8911 930.0156,379.0473 Q929.2344,379.2036 928.4688,379.2036 Z "/><text fill="#000000" font-family="sans-serif" font-size="12" lengthAdjust="spacingAndGlyphs" textLength="109" x="942.5" y="377.6877">SommarioDispositivi</text><line style="stroke: #A80036; stroke-width: 1.5;" x1="914.5" x2="1053.5" y1="389.0317" y2="389.0317"/><line style="stroke: #A80036; stroke-width: 1.5;" x1="914.5" x2="1053.5" y1="397.0317" y2="397.0317"/><polygon fill="#FFFFFF" filter="url(#f48n6xes8zgnb)" points="22,120.0317,40,120.0317,47,145.0996,54,145.0996,54,178.1675,22,178.1675,22,120.0317" style="stroke: #000000; stroke-width: 1.5;"/><line style="stroke: #000000; stroke-width: 1.5;" x1="22" x2="47" y1="145.0996" y2="145.0996"/><text fill="#000000" font-family="sans-serif" font-size="14" font-weight="bold" lengthAdjust="spacingAndGlyphs" textLength="12" x="26" y="136.9976">io</text><!--MD5=[2bab098457974428bb9cba96115d2257]
class src.domotix.model.gestioneerrori.LogErrori--><rect fill="#FEFECE" filter="url(#f48n6xes8zgnb)" height="48" id="src.domotix.model.gestioneerrori.LogErrori" style="stroke: #A80036; stroke-width: 1.5;" width="80" x="1306" y="125.0317"/><ellipse cx="1321" cy="141.0317" fill="#ADD1B2" rx="11" ry="11" style="stroke: #A80036; stroke-width: 1.0;"/><path d="M1320.9688,147.2036 Q1319.2188,147.2036 1318.0781,146.4692 Q1316.9531,145.7192 1316.3906,144.3754 Q1315.8438,143.0161 1315.8438,141.2192 Q1315.8438,139.1879 1316.5,137.7348 Q1317.1563,136.2817 1318.4375,135.5004 Q1319.7188,134.7192 1321.5938,134.7192 Q1322.4844,134.7192 1323.1563,134.9067 Q1323.8281,135.0786 1324.5156,135.4223 L1323.7031,137.4379 Q1323.0781,137.1254 1322.5313,137.0004 Q1322,136.8754 1321.5156,136.8754 Q1320.3438,136.8754 1319.6406,137.4067 Q1318.9375,137.9379 1318.6406,138.8911 Q1318.3438,139.8442 1318.3438,141.1098 Q1318.3438,143.1254 1319.0625,144.0942 Q1319.7813,145.0473 1321.375,145.0473 Q1321.9688,145.0473 1322.5938,144.8911 Q1323.2188,144.7348 1324.0469,144.3598 L1324.0469,146.5786 Q1323.3125,146.8911 1322.5156,147.0473 Q1321.7344,147.2036 1320.9688,147.2036 Z "/><text fill="#000000" font-family="sans-serif" font-size="12" lengthAdjust="spacingAndGlyphs" textLength="48" x="1335" y="145.6877">LogErrori</text><line style="stroke: #A80036; stroke-width: 1.5;" x1="1307" x2="1385" y1="157.0317" y2="157.0317"/><line style="stroke: #A80036; stroke-width: 1.5;" x1="1307" x2="1385" y1="165.0317" y2="165.0317"/><!--MD5=[e1aef0964c9b4c5631b0ab81c7a9970f]
class src.domotix.model.gestioneerrori.StoreIstanzeErrori--><rect fill="#FEFECE" filter="url(#f48n6xes8zgnb)" height="48" id="src.domotix.model.gestioneerrori.StoreIstanzeErrori" style="stroke: #A80036; stroke-width: 1.5;" width="124" x="1147" y="125.0317"/><ellipse cx="1162" cy="141.0317" fill="#ADD1B2" rx="11" ry="11" style="stroke: #A80036; stroke-width: 1.0;"/><path d="M1161.9688,147.2036 Q1160.2188,147.2036 1159.0781,146.4692 Q1157.9531,145.7192 1157.3906,144.3754 Q1156.8438,143.0161 1156.8438,141.2192 Q1156.8438,139.1879 1157.5,137.7348 Q1158.1563,136.2817 1159.4375,135.5004 Q1160.7188,134.7192 1162.5938,134.7192 Q1163.4844,134.7192 1164.1563,134.9067 Q1164.8281,135.0786 1165.5156,135.4223 L1164.7031,137.4379 Q1164.0781,137.1254 1163.5313,137.0004 Q1163,136.8754 1162.5156,136.8754 Q1161.3438,136.8754 1160.6406,137.4067 Q1159.9375,137.9379 1159.6406,138.8911 Q1159.3438,139.8442 1159.3438,141.1098 Q1159.3438,143.1254 1160.0625,144.0942 Q1160.7813,145.0473 1162.375,145.0473 Q1162.9688,145.0473 1163.5938,144.8911 Q1164.2188,144.7348 1165.0469,144.3598 L1165.0469,146.5786 Q1164.3125,146.8911 1163.5156,147.0473 Q1162.7344,147.2036 1161.9688,147.2036 Z "/><text fill="#000000" font-family="sans-serif" font-size="12" lengthAdjust="spacingAndGlyphs" textLength="92" x="1176" y="145.6877">StoreIstanzeErrori</text><line style="stroke: #A80036; stroke-width: 1.5;" x1="1148" x2="1270" y1="157.0317" y2="157.0317"/><line style="stroke: #A80036; stroke-width: 1.5;" x1="1148" x2="1270" y1="165.0317" y2="165.0317"/><!--MD5=[fee1f461644b36a0574e21f0c156ea59]
class src.domotix.model.bean.UnitaImmobiliare--><rect fill="#FEFECE" filter="url(#f48n6xes8zgnb)" height="48" id="src.domotix.model.bean.UnitaImmobiliare" style="stroke: #A80036; stroke-width: 1.5;" width="125" x="631.5" y="357.0317"/><ellipse cx="646.5" cy="373.0317" fill="#ADD1B2" rx="11" ry="11" style="stroke: #A80036; stroke-width: 1.0;"/><path d="M646.4688,379.2036 Q644.7188,379.2036 643.5781,378.4692 Q642.4531,377.7192 641.8906,376.3754 Q641.3438,375.0161 641.3438,373.2192 Q641.3438,371.1879 642,369.7348 Q642.6563,368.2817 643.9375,367.5004 Q645.2188,366.7192 647.0938,366.7192 Q647.9844,366.7192 648.6563,366.9067 Q649.3281,367.0786 650.0156,367.4223 L649.2031,369.4379 Q648.5781,369.1254 648.0313,369.0004 Q647.5,368.8754 647.0156,368.8754 Q645.8438,368.8754 645.1406,369.4067 Q644.4375,369.9379 644.1406,370.8911 Q643.8438,371.8442 643.8438,373.1098 Q643.8438,375.1254 644.5625,376.0942 Q645.2813,377.0473 646.875,377.0473 Q647.4688,377.0473 648.0938,376.8911 Q648.7188,376.7348 649.5469,376.3598 L649.5469,378.5786 Q648.8125,378.8911 648.0156,379.0473 Q647.2344,379.2036 646.4688,379.2036 Z "/><text fill="#000000" font-family="sans-serif" font-size="12" lengthAdjust="spacingAndGlyphs" textLength="93" x="660.5" y="377.6877">UnitaImmobiliare</text><line style="stroke: #A80036; stroke-width: 1.5;" x1="632.5" x2="755.5" y1="389.0317" y2="389.0317"/><line style="stroke: #A80036; stroke-width: 1.5;" x1="632.5" x2="755.5" y1="397.0317" y2="397.0317"/><!--MD5=[6560fd6f3318f918a0970b00832c4e2e]
class src.domotix.model.bean.device.CategoriaAttuatore--><rect fill="#FEFECE" filter="url(#f48n6xes8zgnb)" height="48" id="src.domotix.model.bean.device.CategoriaAttuatore" style="stroke: #A80036; stroke-width: 1.5;" width="131" x="465.5" y="357.0317"/><ellipse cx="480.5" cy="373.0317" fill="#ADD1B2" rx="11" ry="11" style="stroke: #A80036; stroke-width: 1.0;"/><path d="M480.4688,379.2036 Q478.7188,379.2036 477.5781,378.4692 Q476.4531,377.7192 475.8906,376.3754 Q475.3438,375.0161 475.3438,373.2192 Q475.3438,371.1879 476,369.7348 Q476.6563,368.2817 477.9375,367.5004 Q479.2188,366.7192 481.0938,366.7192 Q481.9844,366.7192 482.6563,366.9067 Q483.3281,367.0786 484.0156,367.4223 L483.2031,369.4379 Q482.5781,369.1254 482.0313,369.0004 Q481.5,368.8754 481.0156,368.8754 Q479.8438,368.8754 479.1406,369.4067 Q478.4375,369.9379 478.1406,370.8911 Q477.8438,371.8442 477.8438,373.1098 Q477.8438,375.1254 478.5625,376.0942 Q479.2813,377.0473 480.875,377.0473 Q481.4688,377.0473 482.0938,376.8911 Q482.7188,376.7348 483.5469,376.3598 L483.5469,378.5786 Q482.8125,378.8911 482.0156,379.0473 Q481.2344,379.2036 480.4688,379.2036 Z "/><text fill="#000000" font-family="sans-serif" font-size="12" lengthAdjust="spacingAndGlyphs" textLength="99" x="494.5" y="377.6877">CategoriaAttuatore</text><line style="stroke: #A80036; stroke-width: 1.5;" x1="466.5" x2="595.5" y1="389.0317" y2="389.0317"/><line style="stroke: #A80036; stroke-width: 1.5;" x1="466.5" x2="595.5" y1="397.0317" y2="397.0317"/><!--MD5=[707552fc0b7e96869f010eaeac4db4bf]
class src.domotix.model.bean.device.CategoriaSensore--><rect fill="#FEFECE" filter="url(#f48n6xes8zgnb)" height="48" id="src.domotix.model.bean.device.CategoriaSensore" style="stroke: #A80036; stroke-width: 1.5;" width="123" x="307.5" y="357.0317"/><ellipse cx="322.5" cy="373.0317" fill="#ADD1B2" rx="11" ry="11" style="stroke: #A80036; stroke-width: 1.0;"/><path d="M322.4688,379.2036 Q320.7188,379.2036 319.5781,378.4692 Q318.4531,377.7192 317.8906,376.3754 Q317.3438,375.0161 317.3438,373.2192 Q317.3438,371.1879 318,369.7348 Q318.6563,368.2817 319.9375,367.5004 Q321.2188,366.7192 323.0938,366.7192 Q323.9844,366.7192 324.6563,366.9067 Q325.3281,367.0786 326.0156,367.4223 L325.2031,369.4379 Q324.5781,369.1254 324.0313,369.0004 Q323.5,368.8754 323.0156,368.8754 Q321.8438,368.8754 321.1406,369.4067 Q320.4375,369.9379 320.1406,370.8911 Q319.8438,371.8442 319.8438,373.1098 Q319.8438,375.1254 320.5625,376.0942 Q321.2813,377.0473 322.875,377.0473 Q323.4688,377.0473 324.0938,376.8911 Q324.7188,376.7348 325.5469,376.3598 L325.5469,378.5786 Q324.8125,378.8911 324.0156,379.0473 Q323.2344,379.2036 322.4688,379.2036 Z "/><text fill="#000000" font-family="sans-serif" font-size="12" lengthAdjust="spacingAndGlyphs" textLength="91" x="336.5" y="377.6877">CategoriaSensore</text><line style="stroke: #A80036; stroke-width: 1.5;" x1="308.5" x2="429.5" y1="389.0317" y2="389.0317"/><line style="stroke: #A80036; stroke-width: 1.5;" x1="308.5" x2="429.5" y1="397.0317" y2="397.0317"/><!--MD5=[09cc04e20de61a477b69879a6560b761]
class src.domotix.model.bean.regola.Azione--><rect fill="#FEFECE" filter="url(#f48n6xes8zgnb)" height="48" id="src.domotix.model.bean.regola.Azione" style="stroke: #A80036; stroke-width: 1.5;" width="67" x="205.5" y="357.0317"/><ellipse cx="220.5" cy="373.0317" fill="#ADD1B2" rx="11" ry="11" style="stroke: #A80036; stroke-width: 1.0;"/><path d="M220.4688,379.2036 Q218.7188,379.2036 217.5781,378.4692 Q216.4531,377.7192 215.8906,376.3754 Q215.3438,375.0161 215.3438,373.2192 Q215.3438,371.1879 216,369.7348 Q216.6563,368.2817 217.9375,367.5004 Q219.2188,366.7192 221.0938,366.7192 Q221.9844,366.7192 222.6563,366.9067 Q223.3281,367.0786 224.0156,367.4223 L223.2031,369.4379 Q222.5781,369.1254 222.0313,369.0004 Q221.5,368.8754 221.0156,368.8754 Q219.8438,368.8754 219.1406,369.4067 Q218.4375,369.9379 218.1406,370.8911 Q217.8438,371.8442 217.8438,373.1098 Q217.8438,375.1254 218.5625,376.0942 Q219.2813,377.0473 220.875,377.0473 Q221.4688,377.0473 222.0938,376.8911 Q222.7188,376.7348 223.5469,376.3598 L223.5469,378.5786 Q222.8125,378.8911 222.0156,379.0473 Q221.2344,379.2036 220.4688,379.2036 Z "/><text fill="#000000" font-family="sans-serif" font-size="12" lengthAdjust="spacingAndGlyphs" textLength="35" x="234.5" y="377.6877">Azione</text><line style="stroke: #A80036; stroke-width: 1.5;" x1="206.5" x2="271.5" y1="389.0317" y2="389.0317"/><line style="stroke: #A80036; stroke-width: 1.5;" x1="206.5" x2="271.5" y1="397.0317" y2="397.0317"/><!--MD5=[ce1f3a0b44d3344f945826b076ffc3cf]
link src.domotix.model.ElencoAttuatori to src.domotix.model.util.SommarioDispositivi--><path d="M1048.4308,173.4213 C1036.3266,212.4236 1012.4494,289.3613 997.4064,337.8333 " fill="none" id="src.domotix.model.ElencoAttuatori-&gt;src.domotix.model.util.SommarioDispositivi" style="stroke: #A80036; stroke-width: 1.0;"/><polygon fill="none" points="1004.0813,339.9424,991.4678,356.9689,990.7104,335.7928,1004.0813,339.9424" style="stroke: #A80036; stroke-width: 1.0;"/><!--MD5=[3cd964a3c1097d11d9d1557838753124]
link src.domotix.model.ElencoSensori to src.domotix.model.util.SommarioDispositivi--><path d="M920.4641,173.4213 C932.4001,212.4236 955.9457,289.3613 970.7798,337.8333 " fill="none" id="src.domotix.model.ElencoSensori-&gt;src.domotix.model.util.SommarioDispositivi" style="stroke: #A80036; stroke-width: 1.0;"/><polygon fill="none" points="977.4767,335.796,976.636,356.9689,964.0896,339.8929,977.4767,335.796" style="stroke: #A80036; stroke-width: 1.0;"/><!--MD5=[9f554375b2c6b33ae1f18104887cfc5e]
link src.domotix.model.ElencoUnitaImmobiliari to src.domotix.model.bean.UnitaImmobiliare--><path d="M739.6027,185.1089 C739.6027,185.1089 712.6198,301.0355 702.5596,344.2569 " fill="none" id="src.domotix.model.ElencoUnitaImmobiliari-src.domotix.model.bean.UnitaImmobiliare" style="stroke: #A80036; stroke-width: 1.0;"/><polygon fill="#A80036" points="699.6008,356.9689,705.537,349.11,700.7343,352.0991,697.7453,347.2964,699.6008,356.9689" style="stroke: #A80036; stroke-width: 1.0;"/><line style="stroke: #A80036; stroke-width: 1.0;" x1="700.7343" x2="702.548" y1="352.0991" y2="344.3074"/><polygon fill="#FFFFFF" points="742.3231,173.4213,737.067,178.3583,739.6027,185.1089,744.8587,180.1719,742.3231,173.4213" style="stroke: #A80036; stroke-width: 1.0;"/><text fill="#000000" font-family="sans-serif" font-size="13" lengthAdjust="spacingAndGlyphs" textLength="30" x="728" y="253.9287">unita</text><text fill="#000000" font-family="sans-serif" font-size="13" lengthAdjust="spacingAndGlyphs" textLength="7" x="733.2009" y="195.0057">*</text><text fill="#000000" font-family="sans-serif" font-size="13" lengthAdjust="spacingAndGlyphs" textLength="7" x="693.1654" y="345.2095">1</text><!--MD5=[f70417355f38043970d75f4275e381a9]
link src.domotix.model.ElencoCategorieAttuatori to src.domotix.model.bean.device.CategoriaAttuatore--><path d="M550.3981,185.3627 C550.3981,185.3627 538.9477,300.8631 534.6706,344.0065 " fill="none" id="src.domotix.model.ElencoCategorieAttuatori-src.domotix.model.bean.device.CategoriaAttuatore" style="stroke: #A80036; stroke-width: 1.0;"/><polygon fill="#A80036" points="533.3855,356.9689,538.2539,348.4074,533.8788,351.9933,530.2929,347.6182,533.3855,356.9689" style="stroke: #A80036; stroke-width: 1.0;"/><line style="stroke: #A80036; stroke-width: 1.0;" x1="533.8788" x2="534.6681" y1="351.9933" y2="344.0323"/><polygon fill="#FFFFFF" points="551.5821,173.4213,547.0096,178.9973,550.3981,185.3627,554.9706,179.7867,551.5821,173.4213" style="stroke: #A80036; stroke-width: 1.0;"/><text fill="#000000" font-family="sans-serif" font-size="13" lengthAdjust="spacingAndGlyphs" textLength="54" x="546" y="253.9287">categorie</text><text fill="#000000" font-family="sans-serif" font-size="13" lengthAdjust="spacingAndGlyphs" textLength="7" x="543.2136" y="195.0057">*</text><text fill="#000000" font-family="sans-serif" font-size="13" lengthAdjust="spacingAndGlyphs" textLength="7" x="526.086" y="345.2095">1</text><!--MD5=[17ded89276fa7981fb115441657ec0b0]
link src.domotix.model.ElencoCategorieSensori to src.domotix.model.bean.device.CategoriaSensore--><path d="M362.2547,185.4142 C362.2547,185.4142 366.225,300.5563 367.7136,343.726 " fill="none" id="src.domotix.model.ElencoCategorieSensori-src.domotix.model.bean.device.CategoriaSensore" style="stroke: #A80036; stroke-width: 1.0;"/><polygon fill="#A80036" points="368.1702,356.9689,371.8576,347.8364,367.9978,351.9719,363.8623,348.1121,368.1702,356.9689" style="stroke: #A80036; stroke-width: 1.0;"/><line style="stroke: #A80036; stroke-width: 1.0;" x1="367.9978" x2="367.7221" y1="351.9719" y2="343.9766"/><polygon fill="#FFFFFF" points="361.841,173.4213,358.0502,179.5556,362.2547,185.4142,366.0455,179.2798,361.841,173.4213" style="stroke: #A80036; stroke-width: 1.0;"/><text fill="#000000" font-family="sans-serif" font-size="13" lengthAdjust="spacingAndGlyphs" textLength="54" x="365" y="253.9287">categorie</text><text fill="#000000" font-family="sans-serif" font-size="13" lengthAdjust="spacingAndGlyphs" textLength="7" x="354.2261" y="195.0057">*</text><text fill="#000000" font-family="sans-serif" font-size="13" lengthAdjust="spacingAndGlyphs" textLength="7" x="360.0066" y="345.2095">1</text><!--MD5=[c9ebf24055630f73f414ff7cd71fcbe9]
link src.domotix.model.ElencoAzioniProgramate to src.domotix.model.bean.regola.Azione--><path d="M179.8252,184.9097 C179.8252,184.9097 214.9159,301.2099 227.9799,344.5079 " fill="none" id="src.domotix.model.ElencoAzioniProgramate-src.domotix.model.bean.regola.Azione" style="stroke: #A80036; stroke-width: 1.0;"/><polygon fill="#A80036" points="231.7397,356.9689,232.9693,347.1971,230.2954,352.1821,225.3104,349.5081,231.7397,356.9689" style="stroke: #A80036; stroke-width: 1.0;"/><line style="stroke: #A80036; stroke-width: 1.0;" x1="230.2954" x2="227.9844" y1="352.1821" y2="344.523"/><polygon fill="#FFFFFF" points="176.3589,173.4213,174.2626,180.321,179.8252,184.9097,181.9215,178.0101,176.3589,173.4213" style="stroke: #A80036; stroke-width: 1.0;"/><text fill="#000000" font-family="sans-serif" font-size="13" lengthAdjust="spacingAndGlyphs" textLength="34" x="202" y="253.9287">azioni</text><text fill="#000000" font-family="sans-serif" font-size="13" lengthAdjust="spacingAndGlyphs" textLength="7" x="170.2513" y="195.0057">*</text><text fill="#000000" font-family="sans-serif" font-size="13" lengthAdjust="spacingAndGlyphs" textLength="7" x="221.8479" y="345.2095">1</text><!--MD5=[da5f87f9fdd2936e29b06725aa29a18d]
@startuml

title __DOMOTIX > MODEL's Class Diagram__\n

namespace src.domotix.model {
    class src.domotix.model.ElencoAttuatori {
    }

    class src.domotix.model.ElencoCategorieAttuatori {
    }

    class src.domotix.model.ElencoCategorieSensori {
    }

    class src.domotix.model.ElencoSensori {
    }

    class src.domotix.model.ElencoUnitaImmobiliari {
    }

    class src.domotix.model.ElencoAzioniProgramate {
    }

    namespace util {
    }

    namespace io {
    }

    namespace gestioneerrori {
        class src.domotix.model.gestioneerrori.LogErrori {
        }

        class src.domotix.model.gestioneerrori.StoreIstanzeErrori {
        }
    }

    namespace bean {
        namespace device {
        }
        namespace regola {
        }
    }
}


src.domotix.model.ElencoAttuatori - -|> src.domotix.model.util.SommarioDispositivi
src.domotix.model.ElencoSensori - -|> src.domotix.model.util.SommarioDispositivi
src.domotix.model.ElencoUnitaImmobiliari "*" o- -> "1" src.domotix.model.bean.UnitaImmobiliare : unita
src.domotix.model.ElencoCategorieAttuatori "*" o- -> "1" src.domotix.model.bean.device.CategoriaAttuatore : categorie
src.domotix.model.ElencoCategorieSensori "*" o- -> "1" src.domotix.model.bean.device.CategoriaSensore : categorie
src.domotix.model.ElencoAzioniProgramate "*" o- -> "1" src.domotix.model.bean.regola.Azione : azioni


@enduml

PlantUML version 1.2019.11(Sun Sep 22 12:02:15 CEST 2019)
(GPL source distribution)
Java Runtime: OpenJDK Runtime Environment
JVM: OpenJDK 64-Bit Server VM
Java Version: 11.0.3+12-b304.10
Operating System: Linux
Default Encoding: UTF-8
Language: it
Country: IT
--></g></svg>