<?xml version="1.0" encoding="UTF-8" standalone="no"?><svg xmlns="http://www.w3.org/2000/svg" xmlns:xlink="http://www.w3.org/1999/xlink" contentScriptType="application/ecmascript" contentStyleType="text/css" height="441px" preserveAspectRatio="none" style="width:1229px;height:441px;" version="1.1" viewBox="0 0 1229 441" width="1229px" zoomAndPan="magnify"><defs><filter height="300%" id="fpauaucl2nfef" width="300%" x="-1" y="-1"><feGaussianBlur result="blurOut" stdDeviation="2.0"/><feColorMatrix in="blurOut" result="blurOut2" type="matrix" values="0 0 0 0 0 0 0 0 0 0 0 0 0 0 0 0 0 0 .4 0"/><feOffset dx="4.0" dy="4.0" in="blurOut2" result="blurOut3"/><feBlend in="SourceGraphic" in2="blurOut3" mode="normal"/></filter></defs><g><text fill="#000000" font-family="sans-serif" font-size="18" lengthAdjust="spacingAndGlyphs" text-decoration="underline" textLength="295" x="469" y="19.2419">DOMOTIX &gt; MODEL's Class Diagram</text><text fill="#000000" font-family="sans-serif" font-size="18" lengthAdjust="spacingAndGlyphs" textLength="0" x="618.5" y="43.7577"/><!--MD5=[0a790ac5fdecc1ec79658b6b98c9068e]
cluster src.domotix.model--><polygon fill="#FFFFFF" filter="url(#fpauaucl2nfef)" points="14,65.0317,141,65.0317,148,90.0996,1207,90.0996,1207,429.0317,14,429.0317,14,65.0317" style="stroke: #000000; stroke-width: 1.5;"/><line style="stroke: #000000; stroke-width: 1.5;" x1="14" x2="148" y1="90.0996" y2="90.0996"/><text fill="#000000" font-family="sans-serif" font-size="14" font-weight="bold" lengthAdjust="spacingAndGlyphs" textLength="121" x="18" y="81.9976">src.domotix.model</text><!--MD5=[f07117731684c6860360b82cb7260692]
cluster src.domotix.model.util--><polygon fill="#FFFFFF" filter="url(#fpauaucl2nfef)" points="714,327.0317,743,327.0317,750,352.0996,872,352.0996,872,413.0317,714,413.0317,714,327.0317" style="stroke: #000000; stroke-width: 1.5;"/><line style="stroke: #000000; stroke-width: 1.5;" x1="714" x2="750" y1="352.0996" y2="352.0996"/><text fill="#000000" font-family="sans-serif" font-size="14" font-weight="bold" lengthAdjust="spacingAndGlyphs" textLength="23" x="718" y="343.9976">util</text><!--MD5=[216a9c20675abb02ba7e2944fe4b9ef0]
cluster src.domotix.model.gestioneerrori--><polygon fill="#FFFFFF" filter="url(#fpauaucl2nfef)" points="944,95.0317,1045,95.0317,1052,120.0996,1199,120.0996,1199,181.0317,944,181.0317,944,95.0317" style="stroke: #000000; stroke-width: 1.5;"/><line style="stroke: #000000; stroke-width: 1.5;" x1="944" x2="1052" y1="120.0996" y2="120.0996"/><text fill="#000000" font-family="sans-serif" font-size="14" font-weight="bold" lengthAdjust="spacingAndGlyphs" textLength="95" x="948" y="111.9976">gestioneerrori</text><!--MD5=[93ef5217795d11f1e60750ff284ef631]
cluster src.domotix.model.bean--><polygon fill="#FFFFFF" filter="url(#fpauaucl2nfef)" points="119,297.0317,158,297.0317,165,322.0996,593,322.0996,593,421.0317,119,421.0317,119,297.0317" style="stroke: #000000; stroke-width: 1.5;"/><line style="stroke: #000000; stroke-width: 1.5;" x1="119" x2="165" y1="322.0996" y2="322.0996"/><text fill="#000000" font-family="sans-serif" font-size="14" font-weight="bold" lengthAdjust="spacingAndGlyphs" textLength="33" x="123" y="313.9976">bean</text><!--MD5=[45d783cd9aaab7322b74d5415c833713]
cluster src.domotix.model.bean.device--><polygon fill="#FFFFFF" filter="url(#fpauaucl2nfef)" points="127,327.0317,175,327.0317,182,352.0996,433,352.0996,433,413.0317,127,413.0317,127,327.0317" style="stroke: #000000; stroke-width: 1.5;"/><line style="stroke: #000000; stroke-width: 1.5;" x1="127" x2="182" y1="352.0996" y2="352.0996"/><text fill="#000000" font-family="sans-serif" font-size="14" font-weight="bold" lengthAdjust="spacingAndGlyphs" textLength="42" x="131" y="343.9976">device</text><!--MD5=[7c26a10356d02adb4927a4807e9e1ce5]
class src.domotix.model.ElencoAttuatori--><rect fill="#FEFECE" filter="url(#fpauaucl2nfef)" height="48" id="src.domotix.model.ElencoAttuatori" style="stroke: #A80036; stroke-width: 1.5;" width="112" x="666" y="125.0317"/><ellipse cx="681" cy="141.0317" fill="#ADD1B2" rx="11" ry="11" style="stroke: #A80036; stroke-width: 1.0;"/><path d="M680.9688,147.2036 Q679.2188,147.2036 678.0781,146.4692 Q676.9531,145.7192 676.3906,144.3754 Q675.8438,143.0161 675.8438,141.2192 Q675.8438,139.1879 676.5,137.7348 Q677.1563,136.2817 678.4375,135.5004 Q679.7188,134.7192 681.5938,134.7192 Q682.4844,134.7192 683.1563,134.9067 Q683.8281,135.0786 684.5156,135.4223 L683.7031,137.4379 Q683.0781,137.1254 682.5313,137.0004 Q682,136.8754 681.5156,136.8754 Q680.3438,136.8754 679.6406,137.4067 Q678.9375,137.9379 678.6406,138.8911 Q678.3438,139.8442 678.3438,141.1098 Q678.3438,143.1254 679.0625,144.0942 Q679.7813,145.0473 681.375,145.0473 Q681.9688,145.0473 682.5938,144.8911 Q683.2188,144.7348 684.0469,144.3598 L684.0469,146.5786 Q683.3125,146.8911 682.5156,147.0473 Q681.7344,147.2036 680.9688,147.2036 Z "/><text fill="#000000" font-family="sans-serif" font-size="12" lengthAdjust="spacingAndGlyphs" textLength="80" x="695" y="145.6877">ElencoAttuatori</text><line style="stroke: #A80036; stroke-width: 1.5;" x1="667" x2="777" y1="157.0317" y2="157.0317"/><line style="stroke: #A80036; stroke-width: 1.5;" x1="667" x2="777" y1="165.0317" y2="165.0317"/><!--MD5=[535b96484ab6dbcb18bf1f7368a160a8]
class src.domotix.model.ElencoCategorieAttuatori--><rect fill="#FEFECE" filter="url(#fpauaucl2nfef)" height="48" id="src.domotix.model.ElencoCategorieAttuatori" style="stroke: #A80036; stroke-width: 1.5;" width="162" x="278" y="125.0317"/><ellipse cx="293" cy="141.0317" fill="#ADD1B2" rx="11" ry="11" style="stroke: #A80036; stroke-width: 1.0;"/><path d="M292.9688,147.2036 Q291.2188,147.2036 290.0781,146.4692 Q288.9531,145.7192 288.3906,144.3754 Q287.8438,143.0161 287.8438,141.2192 Q287.8438,139.1879 288.5,137.7348 Q289.1563,136.2817 290.4375,135.5004 Q291.7188,134.7192 293.5938,134.7192 Q294.4844,134.7192 295.1563,134.9067 Q295.8281,135.0786 296.5156,135.4223 L295.7031,137.4379 Q295.0781,137.1254 294.5313,137.0004 Q294,136.8754 293.5156,136.8754 Q292.3438,136.8754 291.6406,137.4067 Q290.9375,137.9379 290.6406,138.8911 Q290.3438,139.8442 290.3438,141.1098 Q290.3438,143.1254 291.0625,144.0942 Q291.7813,145.0473 293.375,145.0473 Q293.9688,145.0473 294.5938,144.8911 Q295.2188,144.7348 296.0469,144.3598 L296.0469,146.5786 Q295.3125,146.8911 294.5156,147.0473 Q293.7344,147.2036 292.9688,147.2036 Z "/><text fill="#000000" font-family="sans-serif" font-size="12" lengthAdjust="spacingAndGlyphs" textLength="130" x="307" y="145.6877">ElencoCategorieAttuatori</text><line style="stroke: #A80036; stroke-width: 1.5;" x1="279" x2="439" y1="157.0317" y2="157.0317"/><line style="stroke: #A80036; stroke-width: 1.5;" x1="279" x2="439" y1="165.0317" y2="165.0317"/><!--MD5=[e935c5c922d25a9dbc177ea01dacaf0d]
class src.domotix.model.ElencoCategorieSensori--><rect fill="#FEFECE" filter="url(#fpauaucl2nfef)" height="48" id="src.domotix.model.ElencoCategorieSensori" style="stroke: #A80036; stroke-width: 1.5;" width="154" x="89" y="125.0317"/><ellipse cx="104" cy="141.0317" fill="#ADD1B2" rx="11" ry="11" style="stroke: #A80036; stroke-width: 1.0;"/><path d="M103.9688,147.2036 Q102.2188,147.2036 101.0781,146.4692 Q99.9531,145.7192 99.3906,144.3754 Q98.8438,143.0161 98.8438,141.2192 Q98.8438,139.1879 99.5,137.7348 Q100.1563,136.2817 101.4375,135.5004 Q102.7188,134.7192 104.5938,134.7192 Q105.4844,134.7192 106.1563,134.9067 Q106.8281,135.0786 107.5156,135.4223 L106.7031,137.4379 Q106.0781,137.1254 105.5313,137.0004 Q105,136.8754 104.5156,136.8754 Q103.3438,136.8754 102.6406,137.4067 Q101.9375,137.9379 101.6406,138.8911 Q101.3438,139.8442 101.3438,141.1098 Q101.3438,143.1254 102.0625,144.0942 Q102.7813,145.0473 104.375,145.0473 Q104.9688,145.0473 105.5938,144.8911 Q106.2188,144.7348 107.0469,144.3598 L107.0469,146.5786 Q106.3125,146.8911 105.5156,147.0473 Q104.7344,147.2036 103.9688,147.2036 Z "/><text fill="#000000" font-family="sans-serif" font-size="12" lengthAdjust="spacingAndGlyphs" textLength="122" x="118" y="145.6877">ElencoCategorieSensori</text><line style="stroke: #A80036; stroke-width: 1.5;" x1="90" x2="242" y1="157.0317" y2="157.0317"/><line style="stroke: #A80036; stroke-width: 1.5;" x1="90" x2="242" y1="165.0317" y2="165.0317"/><!--MD5=[8216fbdf062926a8e46fb80986d95232]
class src.domotix.model.ElencoSensori--><rect fill="#FEFECE" filter="url(#fpauaucl2nfef)" height="48" id="src.domotix.model.ElencoSensori" style="stroke: #A80036; stroke-width: 1.5;" width="104" x="813" y="125.0317"/><ellipse cx="828" cy="141.0317" fill="#ADD1B2" rx="11" ry="11" style="stroke: #A80036; stroke-width: 1.0;"/><path d="M827.9688,147.2036 Q826.2188,147.2036 825.0781,146.4692 Q823.9531,145.7192 823.3906,144.3754 Q822.8438,143.0161 822.8438,141.2192 Q822.8438,139.1879 823.5,137.7348 Q824.1563,136.2817 825.4375,135.5004 Q826.7188,134.7192 828.5938,134.7192 Q829.4844,134.7192 830.1563,134.9067 Q830.8281,135.0786 831.5156,135.4223 L830.7031,137.4379 Q830.0781,137.1254 829.5313,137.0004 Q829,136.8754 828.5156,136.8754 Q827.3438,136.8754 826.6406,137.4067 Q825.9375,137.9379 825.6406,138.8911 Q825.3438,139.8442 825.3438,141.1098 Q825.3438,143.1254 826.0625,144.0942 Q826.7813,145.0473 828.375,145.0473 Q828.9688,145.0473 829.5938,144.8911 Q830.2188,144.7348 831.0469,144.3598 L831.0469,146.5786 Q830.3125,146.8911 829.5156,147.0473 Q828.7344,147.2036 827.9688,147.2036 Z "/><text fill="#000000" font-family="sans-serif" font-size="12" lengthAdjust="spacingAndGlyphs" textLength="72" x="842" y="145.6877">ElencoSensori</text><line style="stroke: #A80036; stroke-width: 1.5;" x1="814" x2="916" y1="157.0317" y2="157.0317"/><line style="stroke: #A80036; stroke-width: 1.5;" x1="814" x2="916" y1="165.0317" y2="165.0317"/><!--MD5=[da49177558a78120c4d786a1f64c4c58]
class src.domotix.model.ElencoUnitaImmobiliari--><rect fill="#FEFECE" filter="url(#fpauaucl2nfef)" height="48" id="src.domotix.model.ElencoUnitaImmobiliari" style="stroke: #A80036; stroke-width: 1.5;" width="156" x="475" y="125.0317"/><ellipse cx="490" cy="141.0317" fill="#ADD1B2" rx="11" ry="11" style="stroke: #A80036; stroke-width: 1.0;"/><path d="M489.9688,147.2036 Q488.2188,147.2036 487.0781,146.4692 Q485.9531,145.7192 485.3906,144.3754 Q484.8438,143.0161 484.8438,141.2192 Q484.8438,139.1879 485.5,137.7348 Q486.1563,136.2817 487.4375,135.5004 Q488.7188,134.7192 490.5938,134.7192 Q491.4844,134.7192 492.1563,134.9067 Q492.8281,135.0786 493.5156,135.4223 L492.7031,137.4379 Q492.0781,137.1254 491.5313,137.0004 Q491,136.8754 490.5156,136.8754 Q489.3438,136.8754 488.6406,137.4067 Q487.9375,137.9379 487.6406,138.8911 Q487.3438,139.8442 487.3438,141.1098 Q487.3438,143.1254 488.0625,144.0942 Q488.7813,145.0473 490.375,145.0473 Q490.9688,145.0473 491.5938,144.8911 Q492.2188,144.7348 493.0469,144.3598 L493.0469,146.5786 Q492.3125,146.8911 491.5156,147.0473 Q490.7344,147.2036 489.9688,147.2036 Z "/><text fill="#000000" font-family="sans-serif" font-size="12" lengthAdjust="spacingAndGlyphs" textLength="124" x="504" y="145.6877">ElencoUnitaImmobiliari</text><line style="stroke: #A80036; stroke-width: 1.5;" x1="476" x2="630" y1="157.0317" y2="157.0317"/><line style="stroke: #A80036; stroke-width: 1.5;" x1="476" x2="630" y1="165.0317" y2="165.0317"/><!--MD5=[f026e8bbc4cdf0765818bf3378b7b221]
class src.domotix.model.util.SommarioDispositivi--><rect fill="#FEFECE" filter="url(#fpauaucl2nfef)" height="48" id="src.domotix.model.util.SommarioDispositivi" style="stroke: #A80036; stroke-width: 1.5;" width="141" x="722.5" y="357.0317"/><ellipse cx="737.5" cy="373.0317" fill="#ADD1B2" rx="11" ry="11" style="stroke: #A80036; stroke-width: 1.0;"/><path d="M737.4688,379.2036 Q735.7188,379.2036 734.5781,378.4692 Q733.4531,377.7192 732.8906,376.3754 Q732.3438,375.0161 732.3438,373.2192 Q732.3438,371.1879 733,369.7348 Q733.6563,368.2817 734.9375,367.5004 Q736.2188,366.7192 738.0938,366.7192 Q738.9844,366.7192 739.6563,366.9067 Q740.3281,367.0786 741.0156,367.4223 L740.2031,369.4379 Q739.5781,369.1254 739.0313,369.0004 Q738.5,368.8754 738.0156,368.8754 Q736.8438,368.8754 736.1406,369.4067 Q735.4375,369.9379 735.1406,370.8911 Q734.8438,371.8442 734.8438,373.1098 Q734.8438,375.1254 735.5625,376.0942 Q736.2813,377.0473 737.875,377.0473 Q738.4688,377.0473 739.0938,376.8911 Q739.7188,376.7348 740.5469,376.3598 L740.5469,378.5786 Q739.8125,378.8911 739.0156,379.0473 Q738.2344,379.2036 737.4688,379.2036 Z "/><text fill="#000000" font-family="sans-serif" font-size="12" lengthAdjust="spacingAndGlyphs" textLength="109" x="751.5" y="377.6877">SommarioDispositivi</text><line style="stroke: #A80036; stroke-width: 1.5;" x1="723.5" x2="862.5" y1="389.0317" y2="389.0317"/><line style="stroke: #A80036; stroke-width: 1.5;" x1="723.5" x2="862.5" y1="397.0317" y2="397.0317"/><polygon fill="#FFFFFF" filter="url(#fpauaucl2nfef)" points="22,120.0317,40,120.0317,47,145.0996,54,145.0996,54,178.1675,22,178.1675,22,120.0317" style="stroke: #000000; stroke-width: 1.5;"/><line style="stroke: #000000; stroke-width: 1.5;" x1="22" x2="47" y1="145.0996" y2="145.0996"/><text fill="#000000" font-family="sans-serif" font-size="14" font-weight="bold" lengthAdjust="spacingAndGlyphs" textLength="12" x="26" y="136.9976">io</text><!--MD5=[2bab098457974428bb9cba96115d2257]
class src.domotix.model.gestioneerrori.LogErrori--><rect fill="#FEFECE" filter="url(#fpauaucl2nfef)" height="48" id="src.domotix.model.gestioneerrori.LogErrori" style="stroke: #A80036; stroke-width: 1.5;" width="80" x="1111" y="125.0317"/><ellipse cx="1126" cy="141.0317" fill="#ADD1B2" rx="11" ry="11" style="stroke: #A80036; stroke-width: 1.0;"/><path d="M1125.9688,147.2036 Q1124.2188,147.2036 1123.0781,146.4692 Q1121.9531,145.7192 1121.3906,144.3754 Q1120.8438,143.0161 1120.8438,141.2192 Q1120.8438,139.1879 1121.5,137.7348 Q1122.1563,136.2817 1123.4375,135.5004 Q1124.7188,134.7192 1126.5938,134.7192 Q1127.4844,134.7192 1128.1563,134.9067 Q1128.8281,135.0786 1129.5156,135.4223 L1128.7031,137.4379 Q1128.0781,137.1254 1127.5313,137.0004 Q1127,136.8754 1126.5156,136.8754 Q1125.3438,136.8754 1124.6406,137.4067 Q1123.9375,137.9379 1123.6406,138.8911 Q1123.3438,139.8442 1123.3438,141.1098 Q1123.3438,143.1254 1124.0625,144.0942 Q1124.7813,145.0473 1126.375,145.0473 Q1126.9688,145.0473 1127.5938,144.8911 Q1128.2188,144.7348 1129.0469,144.3598 L1129.0469,146.5786 Q1128.3125,146.8911 1127.5156,147.0473 Q1126.7344,147.2036 1125.9688,147.2036 Z "/><text fill="#000000" font-family="sans-serif" font-size="12" lengthAdjust="spacingAndGlyphs" textLength="48" x="1140" y="145.6877">LogErrori</text><line style="stroke: #A80036; stroke-width: 1.5;" x1="1112" x2="1190" y1="157.0317" y2="157.0317"/><line style="stroke: #A80036; stroke-width: 1.5;" x1="1112" x2="1190" y1="165.0317" y2="165.0317"/><!--MD5=[e1aef0964c9b4c5631b0ab81c7a9970f]
class src.domotix.model.gestioneerrori.StoreIstanzeErrori--><rect fill="#FEFECE" filter="url(#fpauaucl2nfef)" height="48" id="src.domotix.model.gestioneerrori.StoreIstanzeErrori" style="stroke: #A80036; stroke-width: 1.5;" width="124" x="952" y="125.0317"/><ellipse cx="967" cy="141.0317" fill="#ADD1B2" rx="11" ry="11" style="stroke: #A80036; stroke-width: 1.0;"/><path d="M966.9688,147.2036 Q965.2188,147.2036 964.0781,146.4692 Q962.9531,145.7192 962.3906,144.3754 Q961.8438,143.0161 961.8438,141.2192 Q961.8438,139.1879 962.5,137.7348 Q963.1563,136.2817 964.4375,135.5004 Q965.7188,134.7192 967.5938,134.7192 Q968.4844,134.7192 969.1563,134.9067 Q969.8281,135.0786 970.5156,135.4223 L969.7031,137.4379 Q969.0781,137.1254 968.5313,137.0004 Q968,136.8754 967.5156,136.8754 Q966.3438,136.8754 965.6406,137.4067 Q964.9375,137.9379 964.6406,138.8911 Q964.3438,139.8442 964.3438,141.1098 Q964.3438,143.1254 965.0625,144.0942 Q965.7813,145.0473 967.375,145.0473 Q967.9688,145.0473 968.5938,144.8911 Q969.2188,144.7348 970.0469,144.3598 L970.0469,146.5786 Q969.3125,146.8911 968.5156,147.0473 Q967.7344,147.2036 966.9688,147.2036 Z "/><text fill="#000000" font-family="sans-serif" font-size="12" lengthAdjust="spacingAndGlyphs" textLength="92" x="981" y="145.6877">StoreIstanzeErrori</text><line style="stroke: #A80036; stroke-width: 1.5;" x1="953" x2="1075" y1="157.0317" y2="157.0317"/><line style="stroke: #A80036; stroke-width: 1.5;" x1="953" x2="1075" y1="165.0317" y2="165.0317"/><!--MD5=[fee1f461644b36a0574e21f0c156ea59]
class src.domotix.model.bean.UnitaImmobiliare--><rect fill="#FEFECE" filter="url(#fpauaucl2nfef)" height="48" id="src.domotix.model.bean.UnitaImmobiliare" style="stroke: #A80036; stroke-width: 1.5;" width="125" x="459.5" y="357.0317"/><ellipse cx="474.5" cy="373.0317" fill="#ADD1B2" rx="11" ry="11" style="stroke: #A80036; stroke-width: 1.0;"/><path d="M474.4688,379.2036 Q472.7188,379.2036 471.5781,378.4692 Q470.4531,377.7192 469.8906,376.3754 Q469.3438,375.0161 469.3438,373.2192 Q469.3438,371.1879 470,369.7348 Q470.6563,368.2817 471.9375,367.5004 Q473.2188,366.7192 475.0938,366.7192 Q475.9844,366.7192 476.6563,366.9067 Q477.3281,367.0786 478.0156,367.4223 L477.2031,369.4379 Q476.5781,369.1254 476.0313,369.0004 Q475.5,368.8754 475.0156,368.8754 Q473.8438,368.8754 473.1406,369.4067 Q472.4375,369.9379 472.1406,370.8911 Q471.8438,371.8442 471.8438,373.1098 Q471.8438,375.1254 472.5625,376.0942 Q473.2813,377.0473 474.875,377.0473 Q475.4688,377.0473 476.0938,376.8911 Q476.7188,376.7348 477.5469,376.3598 L477.5469,378.5786 Q476.8125,378.8911 476.0156,379.0473 Q475.2344,379.2036 474.4688,379.2036 Z "/><text fill="#000000" font-family="sans-serif" font-size="12" lengthAdjust="spacingAndGlyphs" textLength="93" x="488.5" y="377.6877">UnitaImmobiliare</text><line style="stroke: #A80036; stroke-width: 1.5;" x1="460.5" x2="583.5" y1="389.0317" y2="389.0317"/><line style="stroke: #A80036; stroke-width: 1.5;" x1="460.5" x2="583.5" y1="397.0317" y2="397.0317"/><!--MD5=[6560fd6f3318f918a0970b00832c4e2e]
class src.domotix.model.bean.device.CategoriaAttuatore--><rect fill="#FEFECE" filter="url(#fpauaucl2nfef)" height="48" id="src.domotix.model.bean.device.CategoriaAttuatore" style="stroke: #A80036; stroke-width: 1.5;" width="131" x="293.5" y="357.0317"/><ellipse cx="308.5" cy="373.0317" fill="#ADD1B2" rx="11" ry="11" style="stroke: #A80036; stroke-width: 1.0;"/><path d="M308.4688,379.2036 Q306.7188,379.2036 305.5781,378.4692 Q304.4531,377.7192 303.8906,376.3754 Q303.3438,375.0161 303.3438,373.2192 Q303.3438,371.1879 304,369.7348 Q304.6563,368.2817 305.9375,367.5004 Q307.2188,366.7192 309.0938,366.7192 Q309.9844,366.7192 310.6563,366.9067 Q311.3281,367.0786 312.0156,367.4223 L311.2031,369.4379 Q310.5781,369.1254 310.0313,369.0004 Q309.5,368.8754 309.0156,368.8754 Q307.8438,368.8754 307.1406,369.4067 Q306.4375,369.9379 306.1406,370.8911 Q305.8438,371.8442 305.8438,373.1098 Q305.8438,375.1254 306.5625,376.0942 Q307.2813,377.0473 308.875,377.0473 Q309.4688,377.0473 310.0938,376.8911 Q310.7188,376.7348 311.5469,376.3598 L311.5469,378.5786 Q310.8125,378.8911 310.0156,379.0473 Q309.2344,379.2036 308.4688,379.2036 Z "/><text fill="#000000" font-family="sans-serif" font-size="12" lengthAdjust="spacingAndGlyphs" textLength="99" x="322.5" y="377.6877">CategoriaAttuatore</text><line style="stroke: #A80036; stroke-width: 1.5;" x1="294.5" x2="423.5" y1="389.0317" y2="389.0317"/><line style="stroke: #A80036; stroke-width: 1.5;" x1="294.5" x2="423.5" y1="397.0317" y2="397.0317"/><!--MD5=[707552fc0b7e96869f010eaeac4db4bf]
class src.domotix.model.bean.device.CategoriaSensore--><rect fill="#FEFECE" filter="url(#fpauaucl2nfef)" height="48" id="src.domotix.model.bean.device.CategoriaSensore" style="stroke: #A80036; stroke-width: 1.5;" width="123" x="135.5" y="357.0317"/><ellipse cx="150.5" cy="373.0317" fill="#ADD1B2" rx="11" ry="11" style="stroke: #A80036; stroke-width: 1.0;"/><path d="M150.4688,379.2036 Q148.7188,379.2036 147.5781,378.4692 Q146.4531,377.7192 145.8906,376.3754 Q145.3438,375.0161 145.3438,373.2192 Q145.3438,371.1879 146,369.7348 Q146.6563,368.2817 147.9375,367.5004 Q149.2188,366.7192 151.0938,366.7192 Q151.9844,366.7192 152.6563,366.9067 Q153.3281,367.0786 154.0156,367.4223 L153.2031,369.4379 Q152.5781,369.1254 152.0313,369.0004 Q151.5,368.8754 151.0156,368.8754 Q149.8438,368.8754 149.1406,369.4067 Q148.4375,369.9379 148.1406,370.8911 Q147.8438,371.8442 147.8438,373.1098 Q147.8438,375.1254 148.5625,376.0942 Q149.2813,377.0473 150.875,377.0473 Q151.4688,377.0473 152.0938,376.8911 Q152.7188,376.7348 153.5469,376.3598 L153.5469,378.5786 Q152.8125,378.8911 152.0156,379.0473 Q151.2344,379.2036 150.4688,379.2036 Z "/><text fill="#000000" font-family="sans-serif" font-size="12" lengthAdjust="spacingAndGlyphs" textLength="91" x="164.5" y="377.6877">CategoriaSensore</text><line style="stroke: #A80036; stroke-width: 1.5;" x1="136.5" x2="257.5" y1="389.0317" y2="389.0317"/><line style="stroke: #A80036; stroke-width: 1.5;" x1="136.5" x2="257.5" y1="397.0317" y2="397.0317"/><!--MD5=[ce1f3a0b44d3344f945826b076ffc3cf]
link src.domotix.model.ElencoAttuatori to src.domotix.model.util.SommarioDispositivi--><path d="M729.4641,173.4213 C741.4001,212.4236 764.9457,289.3613 779.7798,337.8333 " fill="none" id="src.domotix.model.ElencoAttuatori-&gt;src.domotix.model.util.SommarioDispositivi" style="stroke: #A80036; stroke-width: 1.0;"/><polygon fill="none" points="786.4767,335.796,785.636,356.9689,773.0896,339.8929,786.4767,335.796" style="stroke: #A80036; stroke-width: 1.0;"/><!--MD5=[3cd964a3c1097d11d9d1557838753124]
link src.domotix.model.ElencoSensori to src.domotix.model.util.SommarioDispositivi--><path d="M857.4308,173.4213 C845.3266,212.4236 821.4494,289.3613 806.4064,337.8333 " fill="none" id="src.domotix.model.ElencoSensori-&gt;src.domotix.model.util.SommarioDispositivi" style="stroke: #A80036; stroke-width: 1.0;"/><polygon fill="none" points="813.0813,339.9424,800.4678,356.9689,799.7104,335.7928,813.0813,339.9424" style="stroke: #A80036; stroke-width: 1.0;"/><!--MD5=[9f554375b2c6b33ae1f18104887cfc5e]
link src.domotix.model.ElencoUnitaImmobiliari to src.domotix.model.bean.UnitaImmobiliare--><path d="M548.1516,185.3156 C548.1516,185.3156 532.7122,300.8631 526.9473,344.0065 " fill="none" id="src.domotix.model.ElencoUnitaImmobiliari-src.domotix.model.bean.UnitaImmobiliare" style="stroke: #A80036; stroke-width: 1.0;"/><polygon fill="#A80036" points="525.2153,356.9689,530.3721,348.578,525.8775,352.0129,522.4426,347.5184,525.2153,356.9689" style="stroke: #A80036; stroke-width: 1.0;"/><line style="stroke: #A80036; stroke-width: 1.0;" x1="525.8775" x2="526.9372" y1="352.0129" y2="344.0834"/><polygon fill="#FFFFFF" points="549.741,173.4213,544.9815,178.8386,548.1516,185.3156,552.9111,179.8982,549.741,173.4213" style="stroke: #A80036; stroke-width: 1.0;"/><text fill="#000000" font-family="sans-serif" font-size="13" lengthAdjust="spacingAndGlyphs" textLength="30" x="541" y="253.9287">unita</text><text fill="#000000" font-family="sans-serif" font-size="13" lengthAdjust="spacingAndGlyphs" textLength="7" x="541.178" y="195.0057">*</text><text fill="#000000" font-family="sans-serif" font-size="13" lengthAdjust="spacingAndGlyphs" textLength="7" x="518.1388" y="345.2095">1</text><!--MD5=[f70417355f38043970d75f4275e381a9]
link src.domotix.model.ElencoCategorieAttuatori to src.domotix.model.bean.device.CategoriaAttuatore--><path d="M359,185.4213 C359,185.4213 359,300.5563 359,343.726 " fill="none" id="src.domotix.model.ElencoCategorieAttuatori-src.domotix.model.bean.device.CategoriaAttuatore" style="stroke: #A80036; stroke-width: 1.0;"/><polygon fill="#A80036" points="359,356.9689,363,347.9689,359,351.9689,355,347.9689,359,356.9689" style="stroke: #A80036; stroke-width: 1.0;"/><line style="stroke: #A80036; stroke-width: 1.0;" x1="359" x2="359.0001" y1="351.9689" y2="343.9689"/><polygon fill="#FFFFFF" points="359,173.4213,355,179.4213,359,185.4213,363,179.4213,359,173.4213" style="stroke: #A80036; stroke-width: 1.0;"/><text fill="#000000" font-family="sans-serif" font-size="13" lengthAdjust="spacingAndGlyphs" textLength="54" x="360" y="253.9287">categorie</text><text fill="#000000" font-family="sans-serif" font-size="13" lengthAdjust="spacingAndGlyphs" textLength="7" x="351.1906" y="195.0057">*</text><text fill="#000000" font-family="sans-serif" font-size="13" lengthAdjust="spacingAndGlyphs" textLength="7" x="351.0594" y="345.2095">1</text><!--MD5=[17ded89276fa7981fb115441657ec0b0]
link src.domotix.model.ElencoCategorieSensori to src.domotix.model.bean.device.CategoriaSensore--><path d="M170.8484,185.3156 C170.8484,185.3156 186.2878,300.8631 192.0527,344.0065 " fill="none" id="src.domotix.model.ElencoCategorieSensori-src.domotix.model.bean.device.CategoriaSensore" style="stroke: #A80036; stroke-width: 1.0;"/><polygon fill="#A80036" points="193.7847,356.9689,196.5574,347.5184,193.1225,352.0129,188.6279,348.578,193.7847,356.9689" style="stroke: #A80036; stroke-width: 1.0;"/><line style="stroke: #A80036; stroke-width: 1.0;" x1="193.1225" x2="192.0629" y1="352.0129" y2="344.0834"/><polygon fill="#FFFFFF" points="169.259,173.4213,166.0889,179.8982,170.8484,185.3156,174.0185,178.8386,169.259,173.4213" style="stroke: #A80036; stroke-width: 1.0;"/><text fill="#000000" font-family="sans-serif" font-size="13" lengthAdjust="spacingAndGlyphs" textLength="54" x="181" y="253.9287">categorie</text><text fill="#000000" font-family="sans-serif" font-size="13" lengthAdjust="spacingAndGlyphs" textLength="7" x="162.2033" y="195.0057">*</text><text fill="#000000" font-family="sans-serif" font-size="13" lengthAdjust="spacingAndGlyphs" textLength="7" x="184.98" y="345.2095">1</text><!--MD5=[4198e06b1b662a89877ff1eb800990b6]
@startuml

title __DOMOTIX > MODEL's Class Diagram__\n

namespace src.domotix.model {
    class src.domotix.model.ElencoAttuatori {
    }

    class src.domotix.model.ElencoCategorieAttuatori {
    }

    class src.domotix.model.ElencoCategorieSensori {
    }

    class src.domotix.model.ElencoSensori {
    }

    class src.domotix.model.ElencoUnitaImmobiliari {
    }

    namespace util {
    }

    namespace io {
    }

    namespace gestioneerrori {
        class src.domotix.model.gestioneerrori.LogErrori {
        }

        class src.domotix.model.gestioneerrori.StoreIstanzeErrori {
        }
    }

    namespace bean {
        namespace device {
        }
    }
}


src.domotix.model.ElencoAttuatori - -|> src.domotix.model.util.SommarioDispositivi
src.domotix.model.ElencoSensori - -|> src.domotix.model.util.SommarioDispositivi
src.domotix.model.ElencoUnitaImmobiliari "*" o- -> "1" src.domotix.model.bean.UnitaImmobiliare : unita
src.domotix.model.ElencoCategorieAttuatori "*" o- -> "1" src.domotix.model.bean.device.CategoriaAttuatore : categorie
src.domotix.model.ElencoCategorieSensori "*" o- -> "1" src.domotix.model.bean.device.CategoriaSensore : categorie


@enduml

PlantUML version 1.2019.11(Sun Sep 22 12:02:15 CEST 2019)
(GPL source distribution)
Java Runtime: OpenJDK Runtime Environment
JVM: OpenJDK 64-Bit Server VM
Java Version: 11.0.3+12-b304.10
Operating System: Linux
Default Encoding: UTF-8
Language: it
Country: IT
--></g></svg>