<?xml version="1.0" encoding="UTF-8" standalone="no"?><svg xmlns="http://www.w3.org/2000/svg" xmlns:xlink="http://www.w3.org/1999/xlink" contentScriptType="application/ecmascript" contentStyleType="text/css" height="5784px" preserveAspectRatio="none" style="width:1373px;height:5784px;" version="1.1" viewBox="0 0 1373 5784" width="1373px" zoomAndPan="magnify"><defs><filter height="300%" id="ffcfvzotdkcmf" width="300%" x="-1" y="-1"><feGaussianBlur result="blurOut" stdDeviation="2.0"/><feColorMatrix in="blurOut" result="blurOut2" type="matrix" values="0 0 0 0 0 0 0 0 0 0 0 0 0 0 0 0 0 0 .4 0"/><feOffset dx="4.0" dy="4.0" in="blurOut2" result="blurOut3"/><feBlend in="SourceGraphic" in2="blurOut3" mode="normal"/></filter></defs><g><text fill="#000000" font-family="sans-serif" font-size="18" lengthAdjust="spacingAndGlyphs" text-decoration="underline" textLength="358" x="509.5" y="19.2419">DOMOTIX &gt; MODEL &gt; BEAN's Class Diagram</text><text fill="#000000" font-family="sans-serif" font-size="18" lengthAdjust="spacingAndGlyphs" textLength="0" x="690.5" y="43.7577"/><!--MD5=[0a790ac5fdecc1ec79658b6b98c9068e]
cluster src.domotix.model--><polygon fill="#FFFFFF" filter="url(#ffcfvzotdkcmf)" points="14,65.0317,141,65.0317,148,90.0996,1351,90.0996,1351,5772.0317,14,5772.0317,14,65.0317" style="stroke: #000000; stroke-width: 1.5;"/><line style="stroke: #000000; stroke-width: 1.5;" x1="14" x2="148" y1="90.0996" y2="90.0996"/><text fill="#000000" font-family="sans-serif" font-size="14" font-weight="bold" lengthAdjust="spacingAndGlyphs" textLength="121" x="18" y="81.9976">src.domotix.model</text><!--MD5=[f07117731684c6860360b82cb7260692]
cluster src.domotix.model.util--><polygon fill="#FFFFFF" filter="url(#ffcfvzotdkcmf)" points="1207,865.0317,1236,865.0317,1243,890.0996,1343,890.0996,1343,951.0317,1207,951.0317,1207,865.0317" style="stroke: #000000; stroke-width: 1.5;"/><line style="stroke: #000000; stroke-width: 1.5;" x1="1207" x2="1243" y1="890.0996" y2="890.0996"/><text fill="#000000" font-family="sans-serif" font-size="14" font-weight="bold" lengthAdjust="spacingAndGlyphs" textLength="23" x="1211" y="881.9976">util</text><!--MD5=[93ef5217795d11f1e60750ff284ef631]
cluster src.domotix.model.bean--><polygon fill="#FFFFFF" filter="url(#ffcfvzotdkcmf)" points="22,95.0317,61,95.0317,68,120.0996,1199,120.0996,1199,5764.0317,22,5764.0317,22,95.0317" style="stroke: #000000; stroke-width: 1.5;"/><line style="stroke: #000000; stroke-width: 1.5;" x1="22" x2="68" y1="120.0996" y2="120.0996"/><text fill="#000000" font-family="sans-serif" font-size="14" font-weight="bold" lengthAdjust="spacingAndGlyphs" textLength="33" x="26" y="111.9976">bean</text><!--MD5=[45d783cd9aaab7322b74d5415c833713]
cluster src.domotix.model.bean.device--><polygon fill="#FFFFFF" filter="url(#ffcfvzotdkcmf)" points="576,3379.0317,624,3379.0317,631,3404.0996,1162,3404.0996,1162,5756.0317,576,5756.0317,576,3379.0317" style="stroke: #000000; stroke-width: 1.5;"/><line style="stroke: #000000; stroke-width: 1.5;" x1="576" x2="631" y1="3404.0996" y2="3404.0996"/><text fill="#000000" font-family="sans-serif" font-size="14" font-weight="bold" lengthAdjust="spacingAndGlyphs" textLength="42" x="580" y="3395.9976">device</text><!--MD5=[3468160ab84e6ddfb507a70473f3b859]
cluster src.domotix.model.bean.system--><polygon fill="#FFFFFF" filter="url(#ffcfvzotdkcmf)" points="971,125.0317,1023,125.0317,1030,150.0996,1191,150.0996,1191,2004.0317,971,2004.0317,971,125.0317" style="stroke: #000000; stroke-width: 1.5;"/><line style="stroke: #000000; stroke-width: 1.5;" x1="971" x2="1030" y1="150.0996" y2="150.0996"/><text fill="#000000" font-family="sans-serif" font-size="14" font-weight="bold" lengthAdjust="spacingAndGlyphs" textLength="46" x="975" y="141.9976">system</text><!--MD5=[edbd006087bfb908516708eb1865b8b5]
cluster src.domotix.model.bean.regole--><polygon fill="#FFFFFF" filter="url(#ffcfvzotdkcmf)" points="30,1357.0317,78,1357.0317,85,1382.0996,568,1382.0996,568,3760.0317,30,3760.0317,30,1357.0317" style="stroke: #000000; stroke-width: 1.5;"/><line style="stroke: #000000; stroke-width: 1.5;" x1="30" x2="85" y1="1382.0996" y2="1382.0996"/><text fill="#000000" font-family="sans-serif" font-size="14" font-weight="bold" lengthAdjust="spacingAndGlyphs" textLength="42" x="34" y="1373.9976">regole</text><!--MD5=[cdb04a4472d6bf6857b902bc5c6d5618]
class src.domotix.model.util.ElencoDispositivi--><rect fill="#FEFECE" filter="url(#ffcfvzotdkcmf)" height="48" id="src.domotix.model.util.ElencoDispositivi" style="stroke: #A80036; stroke-width: 1.5;" width="120" x="1215" y="895.0317"/><ellipse cx="1230" cy="911.0317" fill="#ADD1B2" rx="11" ry="11" style="stroke: #A80036; stroke-width: 1.0;"/><path d="M1229.9688,917.2036 Q1228.2188,917.2036 1227.0781,916.4692 Q1225.9531,915.7192 1225.3906,914.3754 Q1224.8438,913.0161 1224.8438,911.2192 Q1224.8438,909.1879 1225.5,907.7348 Q1226.1563,906.2817 1227.4375,905.5004 Q1228.7188,904.7192 1230.5938,904.7192 Q1231.4844,904.7192 1232.1563,904.9067 Q1232.8281,905.0786 1233.5156,905.4223 L1232.7031,907.4379 Q1232.0781,907.1254 1231.5313,907.0004 Q1231,906.8754 1230.5156,906.8754 Q1229.3438,906.8754 1228.6406,907.4067 Q1227.9375,907.9379 1227.6406,908.8911 Q1227.3438,909.8442 1227.3438,911.1098 Q1227.3438,913.1254 1228.0625,914.0942 Q1228.7813,915.0473 1230.375,915.0473 Q1230.9688,915.0473 1231.5938,914.8911 Q1232.2188,914.7348 1233.0469,914.3598 L1233.0469,916.5786 Q1232.3125,916.8911 1231.5156,917.0473 Q1230.7344,917.2036 1229.9688,917.2036 Z "/><text fill="#000000" font-family="sans-serif" font-size="12" lengthAdjust="spacingAndGlyphs" textLength="88" x="1244" y="915.6877">ElencoDispositivi</text><line style="stroke: #A80036; stroke-width: 1.5;" x1="1216" x2="1334" y1="927.0317" y2="927.0317"/><line style="stroke: #A80036; stroke-width: 1.5;" x1="1216" x2="1334" y1="935.0317" y2="935.0317"/><!--MD5=[fee1f461644b36a0574e21f0c156ea59]
class src.domotix.model.bean.UnitaImmobiliare--><rect fill="#FEFECE" filter="url(#ffcfvzotdkcmf)" height="48" id="src.domotix.model.bean.UnitaImmobiliare" style="stroke: #A80036; stroke-width: 1.5;" width="125" x="536.5" y="1066.0317"/><ellipse cx="551.5" cy="1082.0317" fill="#ADD1B2" rx="11" ry="11" style="stroke: #A80036; stroke-width: 1.0;"/><path d="M551.4688,1088.2036 Q549.7188,1088.2036 548.5781,1087.4692 Q547.4531,1086.7192 546.8906,1085.3754 Q546.3438,1084.0161 546.3438,1082.2192 Q546.3438,1080.1879 547,1078.7348 Q547.6563,1077.2817 548.9375,1076.5004 Q550.2188,1075.7192 552.0938,1075.7192 Q552.9844,1075.7192 553.6563,1075.9067 Q554.3281,1076.0786 555.0156,1076.4223 L554.2031,1078.4379 Q553.5781,1078.1254 553.0313,1078.0004 Q552.5,1077.8754 552.0156,1077.8754 Q550.8438,1077.8754 550.1406,1078.4067 Q549.4375,1078.9379 549.1406,1079.8911 Q548.8438,1080.8442 548.8438,1082.1098 Q548.8438,1084.1254 549.5625,1085.0942 Q550.2813,1086.0473 551.875,1086.0473 Q552.4688,1086.0473 553.0938,1085.8911 Q553.7188,1085.7348 554.5469,1085.3598 L554.5469,1087.5786 Q553.8125,1087.8911 553.0156,1088.0473 Q552.2344,1088.2036 551.4688,1088.2036 Z "/><text fill="#000000" font-family="sans-serif" font-size="12" lengthAdjust="spacingAndGlyphs" textLength="93" x="565.5" y="1086.6877">UnitaImmobiliare</text><line style="stroke: #A80036; stroke-width: 1.5;" x1="537.5" x2="660.5" y1="1098.0317" y2="1098.0317"/><line style="stroke: #A80036; stroke-width: 1.5;" x1="537.5" x2="660.5" y1="1106.0317" y2="1106.0317"/><!--MD5=[f15b2bcca013f9e6a1e866af89054078]
class src.domotix.model.bean.device.Attuatore--><rect fill="#FEFECE" filter="url(#ffcfvzotdkcmf)" height="48" id="src.domotix.model.bean.device.Attuatore" style="stroke: #A80036; stroke-width: 1.5;" width="81" x="887.5" y="4017.0317"/><ellipse cx="902.5" cy="4033.0317" fill="#ADD1B2" rx="11" ry="11" style="stroke: #A80036; stroke-width: 1.0;"/><path d="M902.4688,4039.2036 Q900.7188,4039.2036 899.5781,4038.4692 Q898.4531,4037.7192 897.8906,4036.3754 Q897.3438,4035.0161 897.3438,4033.2192 Q897.3438,4031.1879 898,4029.7348 Q898.6563,4028.2817 899.9375,4027.5004 Q901.2188,4026.7192 903.0938,4026.7192 Q903.9844,4026.7192 904.6563,4026.9067 Q905.3281,4027.0786 906.0156,4027.4223 L905.2031,4029.4379 Q904.5781,4029.1254 904.0313,4029.0004 Q903.5,4028.8754 903.0156,4028.8754 Q901.8438,4028.8754 901.1406,4029.4067 Q900.4375,4029.9379 900.1406,4030.8911 Q899.8438,4031.8442 899.8438,4033.1098 Q899.8438,4035.1254 900.5625,4036.0942 Q901.2813,4037.0473 902.875,4037.0473 Q903.4688,4037.0473 904.0938,4036.8911 Q904.7188,4036.7348 905.5469,4036.3598 L905.5469,4038.5786 Q904.8125,4038.8911 904.0156,4039.0473 Q903.2344,4039.2036 902.4688,4039.2036 Z "/><text fill="#000000" font-family="sans-serif" font-size="12" lengthAdjust="spacingAndGlyphs" textLength="49" x="916.5" y="4037.6877">Attuatore</text><line style="stroke: #A80036; stroke-width: 1.5;" x1="888.5" x2="967.5" y1="4049.0317" y2="4049.0317"/><line style="stroke: #A80036; stroke-width: 1.5;" x1="888.5" x2="967.5" y1="4057.0317" y2="4057.0317"/><!--MD5=[6560fd6f3318f918a0970b00832c4e2e]
class src.domotix.model.bean.device.CategoriaAttuatore--><rect fill="#FEFECE" filter="url(#ffcfvzotdkcmf)" height="48" id="src.domotix.model.bean.device.CategoriaAttuatore" style="stroke: #A80036; stroke-width: 1.5;" width="131" x="898.5" y="4578.0317"/><ellipse cx="913.5" cy="4594.0317" fill="#ADD1B2" rx="11" ry="11" style="stroke: #A80036; stroke-width: 1.0;"/><path d="M913.4688,4600.2036 Q911.7188,4600.2036 910.5781,4599.4692 Q909.4531,4598.7192 908.8906,4597.3754 Q908.3438,4596.0161 908.3438,4594.2192 Q908.3438,4592.1879 909,4590.7348 Q909.6563,4589.2817 910.9375,4588.5004 Q912.2188,4587.7192 914.0938,4587.7192 Q914.9844,4587.7192 915.6563,4587.9067 Q916.3281,4588.0786 917.0156,4588.4223 L916.2031,4590.4379 Q915.5781,4590.1254 915.0313,4590.0004 Q914.5,4589.8754 914.0156,4589.8754 Q912.8438,4589.8754 912.1406,4590.4067 Q911.4375,4590.9379 911.1406,4591.8911 Q910.8438,4592.8442 910.8438,4594.1098 Q910.8438,4596.1254 911.5625,4597.0942 Q912.2813,4598.0473 913.875,4598.0473 Q914.4688,4598.0473 915.0938,4597.8911 Q915.7188,4597.7348 916.5469,4597.3598 L916.5469,4599.5786 Q915.8125,4599.8911 915.0156,4600.0473 Q914.2344,4600.2036 913.4688,4600.2036 Z "/><text fill="#000000" font-family="sans-serif" font-size="12" lengthAdjust="spacingAndGlyphs" textLength="99" x="927.5" y="4598.6877">CategoriaAttuatore</text><line style="stroke: #A80036; stroke-width: 1.5;" x1="899.5" x2="1028.5" y1="4610.0317" y2="4610.0317"/><line style="stroke: #A80036; stroke-width: 1.5;" x1="899.5" x2="1028.5" y1="4618.0317" y2="4618.0317"/><!--MD5=[707552fc0b7e96869f010eaeac4db4bf]
class src.domotix.model.bean.device.CategoriaSensore--><rect fill="#FEFECE" filter="url(#ffcfvzotdkcmf)" height="48" id="src.domotix.model.bean.device.CategoriaSensore" style="stroke: #A80036; stroke-width: 1.5;" width="123" x="584.5" y="4578.0317"/><ellipse cx="599.5" cy="4594.0317" fill="#ADD1B2" rx="11" ry="11" style="stroke: #A80036; stroke-width: 1.0;"/><path d="M599.4688,4600.2036 Q597.7188,4600.2036 596.5781,4599.4692 Q595.4531,4598.7192 594.8906,4597.3754 Q594.3438,4596.0161 594.3438,4594.2192 Q594.3438,4592.1879 595,4590.7348 Q595.6563,4589.2817 596.9375,4588.5004 Q598.2188,4587.7192 600.0938,4587.7192 Q600.9844,4587.7192 601.6563,4587.9067 Q602.3281,4588.0786 603.0156,4588.4223 L602.2031,4590.4379 Q601.5781,4590.1254 601.0313,4590.0004 Q600.5,4589.8754 600.0156,4589.8754 Q598.8438,4589.8754 598.1406,4590.4067 Q597.4375,4590.9379 597.1406,4591.8911 Q596.8438,4592.8442 596.8438,4594.1098 Q596.8438,4596.1254 597.5625,4597.0942 Q598.2813,4598.0473 599.875,4598.0473 Q600.4688,4598.0473 601.0938,4597.8911 Q601.7188,4597.7348 602.5469,4597.3598 L602.5469,4599.5786 Q601.8125,4599.8911 601.0156,4600.0473 Q600.2344,4600.2036 599.4688,4600.2036 Z "/><text fill="#000000" font-family="sans-serif" font-size="12" lengthAdjust="spacingAndGlyphs" textLength="91" x="613.5" y="4598.6877">CategoriaSensore</text><line style="stroke: #A80036; stroke-width: 1.5;" x1="585.5" x2="706.5" y1="4610.0317" y2="4610.0317"/><line style="stroke: #A80036; stroke-width: 1.5;" x1="585.5" x2="706.5" y1="4618.0317" y2="4618.0317"/><!--MD5=[f67fb4e3905c8432ac91b9b41799d1a0]
class src.domotix.model.bean.device.Dispositivo--><rect fill="#FEFECE" filter="url(#ffcfvzotdkcmf)" height="48" id="src.domotix.model.bean.device.Dispositivo" style="stroke: #A80036; stroke-width: 1.5;" width="85" x="743.5" y="3409.0317"/><ellipse cx="758.5" cy="3425.0317" fill="#A9DCDF" rx="11" ry="11" style="stroke: #A80036; stroke-width: 1.0;"/><path d="M753.6719,3430.2817 L757.0156,3418.0942 L760.1563,3418.0942 L763.5313,3430.2817 L761.0625,3430.2817 L760.3281,3427.2661 L756.8125,3427.2661 L756.0625,3430.2817 L753.6719,3430.2817 Z M758.0781,3422.2348 L757.3281,3425.2348 L759.8438,3425.2348 L759.125,3422.2348 Q758.9844,3421.6567 758.8594,3421.1098 Q758.7344,3420.5473 758.5938,3419.9692 Q758.4844,3420.5473 758.3438,3421.1098 Q758.2031,3421.6567 758.0781,3422.2348 Z "/><text fill="#000000" font-family="sans-serif" font-size="12" font-style="italic" lengthAdjust="spacingAndGlyphs" textLength="53" x="772.5" y="3429.6877">Dispositivo</text><line style="stroke: #A80036; stroke-width: 1.5;" x1="744.5" x2="827.5" y1="3441.0317" y2="3441.0317"/><line style="stroke: #A80036; stroke-width: 1.5;" x1="744.5" x2="827.5" y1="3449.0317" y2="3449.0317"/><!--MD5=[098b8cd9292e6924955ae174473b7640]
class src.domotix.model.bean.device.Modalita--><rect fill="#FEFECE" filter="url(#ffcfvzotdkcmf)" height="48" id="src.domotix.model.bean.device.Modalita" style="stroke: #A80036; stroke-width: 1.5;" width="78" x="1056" y="5139.0317"/><ellipse cx="1071" cy="5155.0317" fill="#ADD1B2" rx="11" ry="11" style="stroke: #A80036; stroke-width: 1.0;"/><path d="M1070.9688,5161.2036 Q1069.2188,5161.2036 1068.0781,5160.4692 Q1066.9531,5159.7192 1066.3906,5158.3754 Q1065.8438,5157.0161 1065.8438,5155.2192 Q1065.8438,5153.1879 1066.5,5151.7348 Q1067.1563,5150.2817 1068.4375,5149.5004 Q1069.7188,5148.7192 1071.5938,5148.7192 Q1072.4844,5148.7192 1073.1563,5148.9067 Q1073.8281,5149.0786 1074.5156,5149.4223 L1073.7031,5151.4379 Q1073.0781,5151.1254 1072.5313,5151.0004 Q1072,5150.8754 1071.5156,5150.8754 Q1070.3438,5150.8754 1069.6406,5151.4067 Q1068.9375,5151.9379 1068.6406,5152.8911 Q1068.3438,5153.8442 1068.3438,5155.1098 Q1068.3438,5157.1254 1069.0625,5158.0942 Q1069.7813,5159.0473 1071.375,5159.0473 Q1071.9688,5159.0473 1072.5938,5158.8911 Q1073.2188,5158.7348 1074.0469,5158.3598 L1074.0469,5160.5786 Q1073.3125,5160.8911 1072.5156,5161.0473 Q1071.7344,5161.2036 1070.9688,5161.2036 Z "/><text fill="#000000" font-family="sans-serif" font-size="12" lengthAdjust="spacingAndGlyphs" textLength="46" x="1085" y="5159.6877">Modalita</text><line style="stroke: #A80036; stroke-width: 1.5;" x1="1057" x2="1133" y1="5171.0317" y2="5171.0317"/><line style="stroke: #A80036; stroke-width: 1.5;" x1="1057" x2="1133" y1="5179.0317" y2="5179.0317"/><!--MD5=[2f2b8af6bdee906a8d0b4f2e9b386879]
class src.domotix.model.bean.device.Parametro--><rect fill="#FEFECE" filter="url(#ffcfvzotdkcmf)" height="48" id="src.domotix.model.bean.device.Parametro" style="stroke: #A80036; stroke-width: 1.5;" width="87" x="1046.5" y="5700.0317"/><ellipse cx="1061.5" cy="5716.0317" fill="#ADD1B2" rx="11" ry="11" style="stroke: #A80036; stroke-width: 1.0;"/><path d="M1061.4688,5722.2036 Q1059.7188,5722.2036 1058.5781,5721.4692 Q1057.4531,5720.7192 1056.8906,5719.3754 Q1056.3438,5718.0161 1056.3438,5716.2192 Q1056.3438,5714.1879 1057,5712.7348 Q1057.6563,5711.2817 1058.9375,5710.5004 Q1060.2188,5709.7192 1062.0938,5709.7192 Q1062.9844,5709.7192 1063.6563,5709.9067 Q1064.3281,5710.0786 1065.0156,5710.4223 L1064.2031,5712.4379 Q1063.5781,5712.1254 1063.0313,5712.0004 Q1062.5,5711.8754 1062.0156,5711.8754 Q1060.8438,5711.8754 1060.1406,5712.4067 Q1059.4375,5712.9379 1059.1406,5713.8911 Q1058.8438,5714.8442 1058.8438,5716.1098 Q1058.8438,5718.1254 1059.5625,5719.0942 Q1060.2813,5720.0473 1061.875,5720.0473 Q1062.4688,5720.0473 1063.0938,5719.8911 Q1063.7188,5719.7348 1064.5469,5719.3598 L1064.5469,5721.5786 Q1063.8125,5721.8911 1063.0156,5722.0473 Q1062.2344,5722.2036 1061.4688,5722.2036 Z "/><text fill="#000000" font-family="sans-serif" font-size="12" lengthAdjust="spacingAndGlyphs" textLength="55" x="1075.5" y="5720.6877">Parametro</text><line style="stroke: #A80036; stroke-width: 1.5;" x1="1047.5" x2="1132.5" y1="5732.0317" y2="5732.0317"/><line style="stroke: #A80036; stroke-width: 1.5;" x1="1047.5" x2="1132.5" y1="5740.0317" y2="5740.0317"/><!--MD5=[a33aefc4eb48dd85e95cc5b4f6bc0087]
class src.domotix.model.bean.device.Sensore--><rect fill="#FEFECE" filter="url(#ffcfvzotdkcmf)" height="48" id="src.domotix.model.bean.device.Sensore" style="stroke: #A80036; stroke-width: 1.5;" width="73" x="716.5" y="4017.0317"/><ellipse cx="731.5" cy="4033.0317" fill="#ADD1B2" rx="11" ry="11" style="stroke: #A80036; stroke-width: 1.0;"/><path d="M731.4688,4039.2036 Q729.7188,4039.2036 728.5781,4038.4692 Q727.4531,4037.7192 726.8906,4036.3754 Q726.3438,4035.0161 726.3438,4033.2192 Q726.3438,4031.1879 727,4029.7348 Q727.6563,4028.2817 728.9375,4027.5004 Q730.2188,4026.7192 732.0938,4026.7192 Q732.9844,4026.7192 733.6563,4026.9067 Q734.3281,4027.0786 735.0156,4027.4223 L734.2031,4029.4379 Q733.5781,4029.1254 733.0313,4029.0004 Q732.5,4028.8754 732.0156,4028.8754 Q730.8438,4028.8754 730.1406,4029.4067 Q729.4375,4029.9379 729.1406,4030.8911 Q728.8438,4031.8442 728.8438,4033.1098 Q728.8438,4035.1254 729.5625,4036.0942 Q730.2813,4037.0473 731.875,4037.0473 Q732.4688,4037.0473 733.0938,4036.8911 Q733.7188,4036.7348 734.5469,4036.3598 L734.5469,4038.5786 Q733.8125,4038.8911 733.0156,4039.0473 Q732.2344,4039.2036 731.4688,4039.2036 Z "/><text fill="#000000" font-family="sans-serif" font-size="12" lengthAdjust="spacingAndGlyphs" textLength="41" x="745.5" y="4037.6877">Sensore</text><line style="stroke: #A80036; stroke-width: 1.5;" x1="717.5" x2="788.5" y1="4049.0317" y2="4049.0317"/><line style="stroke: #A80036; stroke-width: 1.5;" x1="717.5" x2="788.5" y1="4057.0317" y2="4057.0317"/><!--MD5=[724752331bdbf81a6fab7ef9f317d455]
class src.domotix.model.bean.device.InfoRilevabile--><rect fill="#FEFECE" filter="url(#ffcfvzotdkcmf)" height="48" id="src.domotix.model.bean.device.InfoRilevabile" style="stroke: #A80036; stroke-width: 1.5;" width="104" x="594" y="5139.0317"/><ellipse cx="609" cy="5155.0317" fill="#ADD1B2" rx="11" ry="11" style="stroke: #A80036; stroke-width: 1.0;"/><path d="M608.9688,5161.2036 Q607.2188,5161.2036 606.0781,5160.4692 Q604.9531,5159.7192 604.3906,5158.3754 Q603.8438,5157.0161 603.8438,5155.2192 Q603.8438,5153.1879 604.5,5151.7348 Q605.1563,5150.2817 606.4375,5149.5004 Q607.7188,5148.7192 609.5938,5148.7192 Q610.4844,5148.7192 611.1563,5148.9067 Q611.8281,5149.0786 612.5156,5149.4223 L611.7031,5151.4379 Q611.0781,5151.1254 610.5313,5151.0004 Q610,5150.8754 609.5156,5150.8754 Q608.3438,5150.8754 607.6406,5151.4067 Q606.9375,5151.9379 606.6406,5152.8911 Q606.3438,5153.8442 606.3438,5155.1098 Q606.3438,5157.1254 607.0625,5158.0942 Q607.7813,5159.0473 609.375,5159.0473 Q609.9688,5159.0473 610.5938,5158.8911 Q611.2188,5158.7348 612.0469,5158.3598 L612.0469,5160.5786 Q611.3125,5160.8911 610.5156,5161.0473 Q609.7344,5161.2036 608.9688,5161.2036 Z "/><text fill="#000000" font-family="sans-serif" font-size="12" lengthAdjust="spacingAndGlyphs" textLength="72" x="623" y="5159.6877">InfoRilevabile</text><line style="stroke: #A80036; stroke-width: 1.5;" x1="595" x2="697" y1="5171.0317" y2="5171.0317"/><line style="stroke: #A80036; stroke-width: 1.5;" x1="595" x2="697" y1="5179.0317" y2="5179.0317"/><!--MD5=[da58128ed534831270a485d9d5c63108]
class src.domotix.model.bean.device.SensoreOrologio--><rect fill="#FEFECE" filter="url(#ffcfvzotdkcmf)" height="48" id="src.domotix.model.bean.device.SensoreOrologio" style="stroke: #A80036; stroke-width: 1.5;" width="120" x="743" y="4578.0317"/><ellipse cx="758" cy="4594.0317" fill="#ADD1B2" rx="11" ry="11" style="stroke: #A80036; stroke-width: 1.0;"/><path d="M757.9688,4600.2036 Q756.2188,4600.2036 755.0781,4599.4692 Q753.9531,4598.7192 753.3906,4597.3754 Q752.8438,4596.0161 752.8438,4594.2192 Q752.8438,4592.1879 753.5,4590.7348 Q754.1563,4589.2817 755.4375,4588.5004 Q756.7188,4587.7192 758.5938,4587.7192 Q759.4844,4587.7192 760.1563,4587.9067 Q760.8281,4588.0786 761.5156,4588.4223 L760.7031,4590.4379 Q760.0781,4590.1254 759.5313,4590.0004 Q759,4589.8754 758.5156,4589.8754 Q757.3438,4589.8754 756.6406,4590.4067 Q755.9375,4590.9379 755.6406,4591.8911 Q755.3438,4592.8442 755.3438,4594.1098 Q755.3438,4596.1254 756.0625,4597.0942 Q756.7813,4598.0473 758.375,4598.0473 Q758.9688,4598.0473 759.5938,4597.8911 Q760.2188,4597.7348 761.0469,4597.3598 L761.0469,4599.5786 Q760.3125,4599.8911 759.5156,4600.0473 Q758.7344,4600.2036 757.9688,4600.2036 Z "/><text fill="#000000" font-family="sans-serif" font-size="12" lengthAdjust="spacingAndGlyphs" textLength="88" x="772" y="4598.6877">SensoreOrologio</text><line style="stroke: #A80036; stroke-width: 1.5;" x1="744" x2="862" y1="4610.0317" y2="4610.0317"/><line style="stroke: #A80036; stroke-width: 1.5;" x1="744" x2="862" y1="4618.0317" y2="4618.0317"/><!--MD5=[d25077ff8158bcbf8143a353f4989af9]
class src.domotix.model.bean.system.Artefatto--><rect fill="#FEFECE" filter="url(#ffcfvzotdkcmf)" height="48" id="src.domotix.model.bean.system.Artefatto" style="stroke: #A80036; stroke-width: 1.5;" width="78" x="1033" y="1948.0317"/><ellipse cx="1048" cy="1964.0317" fill="#ADD1B2" rx="11" ry="11" style="stroke: #A80036; stroke-width: 1.0;"/><path d="M1047.9688,1970.2036 Q1046.2188,1970.2036 1045.0781,1969.4692 Q1043.9531,1968.7192 1043.3906,1967.3754 Q1042.8438,1966.0161 1042.8438,1964.2192 Q1042.8438,1962.1879 1043.5,1960.7348 Q1044.1563,1959.2817 1045.4375,1958.5004 Q1046.7188,1957.7192 1048.5938,1957.7192 Q1049.4844,1957.7192 1050.1563,1957.9067 Q1050.8281,1958.0786 1051.5156,1958.4223 L1050.7031,1960.4379 Q1050.0781,1960.1254 1049.5313,1960.0004 Q1049,1959.8754 1048.5156,1959.8754 Q1047.3438,1959.8754 1046.6406,1960.4067 Q1045.9375,1960.9379 1045.6406,1961.8911 Q1045.3438,1962.8442 1045.3438,1964.1098 Q1045.3438,1966.1254 1046.0625,1967.0942 Q1046.7813,1968.0473 1048.375,1968.0473 Q1048.9688,1968.0473 1049.5938,1967.8911 Q1050.2188,1967.7348 1051.0469,1967.3598 L1051.0469,1969.5786 Q1050.3125,1969.8911 1049.5156,1970.0473 Q1048.7344,1970.2036 1047.9688,1970.2036 Z "/><text fill="#000000" font-family="sans-serif" font-size="12" lengthAdjust="spacingAndGlyphs" textLength="46" x="1062" y="1968.6877">Artefatto</text><line style="stroke: #A80036; stroke-width: 1.5;" x1="1034" x2="1110" y1="1980.0317" y2="1980.0317"/><line style="stroke: #A80036; stroke-width: 1.5;" x1="1034" x2="1110" y1="1988.0317" y2="1988.0317"/><!--MD5=[1960ccb858a929d44c6d95e6e82165e4]
class src.domotix.model.bean.system.Azionabile--><rect fill="#FEFECE" filter="url(#ffcfvzotdkcmf)" height="48" id="src.domotix.model.bean.system.Azionabile" style="stroke: #A80036; stroke-width: 1.5;" width="81" x="979.5" y="155.0317"/><ellipse cx="994.5" cy="171.0317" fill="#B4A7E5" rx="11" ry="11" style="stroke: #A80036; stroke-width: 1.0;"/><path d="M990.5313,177.0317 L990.5313,175.3286 L992.8906,175.0629 L992.8906,166.8598 L990.5313,166.5942 L990.5313,164.8911 L997.6719,164.8911 L997.6719,166.5942 L995.25,166.8598 L995.25,175.0629 L997.6719,175.3286 L997.6719,177.0317 L990.5313,177.0317 Z "/><text fill="#000000" font-family="sans-serif" font-size="12" font-style="italic" lengthAdjust="spacingAndGlyphs" textLength="49" x="1008.5" y="175.6877">Azionabile</text><line style="stroke: #A80036; stroke-width: 1.5;" x1="980.5" x2="1059.5" y1="187.0317" y2="187.0317"/><line style="stroke: #A80036; stroke-width: 1.5;" x1="980.5" x2="1059.5" y1="195.0317" y2="195.0317"/><!--MD5=[1d1e18ba677a170174020d96588c0192]
class src.domotix.model.bean.system.Osservabile--><rect fill="#FEFECE" filter="url(#ffcfvzotdkcmf)" height="48" id="src.domotix.model.bean.system.Osservabile" style="stroke: #A80036; stroke-width: 1.5;" width="87" x="1095.5" y="155.0317"/><ellipse cx="1110.5" cy="171.0317" fill="#B4A7E5" rx="11" ry="11" style="stroke: #A80036; stroke-width: 1.0;"/><path d="M1106.5313,177.0317 L1106.5313,175.3286 L1108.8906,175.0629 L1108.8906,166.8598 L1106.5313,166.5942 L1106.5313,164.8911 L1113.6719,164.8911 L1113.6719,166.5942 L1111.25,166.8598 L1111.25,175.0629 L1113.6719,175.3286 L1113.6719,177.0317 L1106.5313,177.0317 Z "/><text fill="#000000" font-family="sans-serif" font-size="12" font-style="italic" lengthAdjust="spacingAndGlyphs" textLength="55" x="1124.5" y="175.6877">Osservabile</text><line style="stroke: #A80036; stroke-width: 1.5;" x1="1096.5" x2="1181.5" y1="187.0317" y2="187.0317"/><line style="stroke: #A80036; stroke-width: 1.5;" x1="1096.5" x2="1181.5" y1="195.0317" y2="195.0317"/><!--MD5=[485b0d69987451920f3bb6ff527aa837]
class src.domotix.model.bean.system.Sistema--><rect fill="#FEFECE" filter="url(#ffcfvzotdkcmf)" height="48" id="src.domotix.model.bean.system.Sistema" style="stroke: #A80036; stroke-width: 1.5;" width="70" x="1088" y="698.0317"/><ellipse cx="1103" cy="714.0317" fill="#A9DCDF" rx="11" ry="11" style="stroke: #A80036; stroke-width: 1.0;"/><path d="M1098.1719,719.2817 L1101.5156,707.0942 L1104.6563,707.0942 L1108.0313,719.2817 L1105.5625,719.2817 L1104.8281,716.2661 L1101.3125,716.2661 L1100.5625,719.2817 L1098.1719,719.2817 Z M1102.5781,711.2348 L1101.8281,714.2348 L1104.3438,714.2348 L1103.625,711.2348 Q1103.4844,710.6567 1103.3594,710.1098 Q1103.2344,709.5473 1103.0938,708.9692 Q1102.9844,709.5473 1102.8438,710.1098 Q1102.7031,710.6567 1102.5781,711.2348 Z "/><text fill="#000000" font-family="sans-serif" font-size="12" font-style="italic" lengthAdjust="spacingAndGlyphs" textLength="38" x="1117" y="718.6877">Sistema</text><line style="stroke: #A80036; stroke-width: 1.5;" x1="1089" x2="1157" y1="730.0317" y2="730.0317"/><line style="stroke: #A80036; stroke-width: 1.5;" x1="1089" x2="1157" y1="738.0317" y2="738.0317"/><!--MD5=[a47866ca4adc24b804ad8aee3114826f]
class src.domotix.model.bean.system.Stanza--><rect fill="#FEFECE" filter="url(#ffcfvzotdkcmf)" height="48" id="src.domotix.model.bean.system.Stanza" style="stroke: #A80036; stroke-width: 1.5;" width="66" x="991" y="1387.0317"/><ellipse cx="1006" cy="1403.0317" fill="#ADD1B2" rx="11" ry="11" style="stroke: #A80036; stroke-width: 1.0;"/><path d="M1005.9688,1409.2036 Q1004.2188,1409.2036 1003.0781,1408.4692 Q1001.9531,1407.7192 1001.3906,1406.3754 Q1000.8438,1405.0161 1000.8438,1403.2192 Q1000.8438,1401.1879 1001.5,1399.7348 Q1002.1563,1398.2817 1003.4375,1397.5004 Q1004.7188,1396.7192 1006.5938,1396.7192 Q1007.4844,1396.7192 1008.1563,1396.9067 Q1008.8281,1397.0786 1009.5156,1397.4223 L1008.7031,1399.4379 Q1008.0781,1399.1254 1007.5313,1399.0004 Q1007,1398.8754 1006.5156,1398.8754 Q1005.3438,1398.8754 1004.6406,1399.4067 Q1003.9375,1399.9379 1003.6406,1400.8911 Q1003.3438,1401.8442 1003.3438,1403.1098 Q1003.3438,1405.1254 1004.0625,1406.0942 Q1004.7813,1407.0473 1006.375,1407.0473 Q1006.9688,1407.0473 1007.5938,1406.8911 Q1008.2188,1406.7348 1009.0469,1406.3598 L1009.0469,1408.5786 Q1008.3125,1408.8911 1007.5156,1409.0473 Q1006.7344,1409.2036 1005.9688,1409.2036 Z "/><text fill="#000000" font-family="sans-serif" font-size="12" lengthAdjust="spacingAndGlyphs" textLength="34" x="1020" y="1407.6877">Stanza</text><line style="stroke: #A80036; stroke-width: 1.5;" x1="992" x2="1056" y1="1419.0317" y2="1419.0317"/><line style="stroke: #A80036; stroke-width: 1.5;" x1="992" x2="1056" y1="1427.0317" y2="1427.0317"/><!--MD5=[12ef0598dc9032c758fb0c8db15c9414]
class src.domotix.model.bean.regole.Regola--><rect fill="#FEFECE" filter="url(#ffcfvzotdkcmf)" height="48" id="src.domotix.model.bean.regole.Regola" style="stroke: #A80036; stroke-width: 1.5;" width="68" x="264" y="1387.0317"/><ellipse cx="279" cy="1403.0317" fill="#ADD1B2" rx="11" ry="11" style="stroke: #A80036; stroke-width: 1.0;"/><path d="M278.9688,1409.2036 Q277.2188,1409.2036 276.0781,1408.4692 Q274.9531,1407.7192 274.3906,1406.3754 Q273.8438,1405.0161 273.8438,1403.2192 Q273.8438,1401.1879 274.5,1399.7348 Q275.1563,1398.2817 276.4375,1397.5004 Q277.7188,1396.7192 279.5938,1396.7192 Q280.4844,1396.7192 281.1563,1396.9067 Q281.8281,1397.0786 282.5156,1397.4223 L281.7031,1399.4379 Q281.0781,1399.1254 280.5313,1399.0004 Q280,1398.8754 279.5156,1398.8754 Q278.3438,1398.8754 277.6406,1399.4067 Q276.9375,1399.9379 276.6406,1400.8911 Q276.3438,1401.8442 276.3438,1403.1098 Q276.3438,1405.1254 277.0625,1406.0942 Q277.7813,1407.0473 279.375,1407.0473 Q279.9688,1407.0473 280.5938,1406.8911 Q281.2188,1406.7348 282.0469,1406.3598 L282.0469,1408.5786 Q281.3125,1408.8911 280.5156,1409.0473 Q279.7344,1409.2036 278.9688,1409.2036 Z "/><text fill="#000000" font-family="sans-serif" font-size="12" lengthAdjust="spacingAndGlyphs" textLength="36" x="293" y="1407.6877">Regola</text><line style="stroke: #A80036; stroke-width: 1.5;" x1="265" x2="331" y1="1419.0317" y2="1419.0317"/><line style="stroke: #A80036; stroke-width: 1.5;" x1="265" x2="331" y1="1427.0317" y2="1427.0317"/><!--MD5=[61a68b4fe7490eacf9397839e9df1735]
class src.domotix.model.bean.regole.StatoRegola--><rect fill="#FEFECE" filter="url(#ffcfvzotdkcmf)" height="48" id="src.domotix.model.bean.regole.StatoRegola" style="stroke: #A80036; stroke-width: 1.5;" width="95" x="174.5" y="1948.0317"/><ellipse cx="189.5" cy="1964.0317" fill="#EB937F" rx="11" ry="11" style="stroke: #A80036; stroke-width: 1.0;"/><path d="M185.8594,1970.0317 L185.8594,1957.8911 L193.5156,1957.8911 L193.5156,1960.0161 L188.2344,1960.0161 L188.2344,1962.6723 L193.25,1962.6723 L193.25,1964.7973 L188.2344,1964.7973 L188.2344,1967.9067 L193.5156,1967.9067 L193.5156,1970.0317 L185.8594,1970.0317 Z "/><text fill="#000000" font-family="sans-serif" font-size="12" lengthAdjust="spacingAndGlyphs" textLength="63" x="203.5" y="1968.6877">StatoRegola</text><line style="stroke: #A80036; stroke-width: 1.5;" x1="175.5" x2="268.5" y1="1980.0317" y2="1980.0317"/><line style="stroke: #A80036; stroke-width: 1.5;" x1="175.5" x2="268.5" y1="1988.0317" y2="1988.0317"/><!--MD5=[895b14fb02ba1af8e90019806478d6bb]
class src.domotix.model.bean.regole.Antecedente--><rect fill="#FEFECE" filter="url(#ffcfvzotdkcmf)" height="48" id="src.domotix.model.bean.regole.Antecedente" style="stroke: #A80036; stroke-width: 1.5;" width="97" x="304.5" y="1948.0317"/><ellipse cx="319.5" cy="1964.0317" fill="#ADD1B2" rx="11" ry="11" style="stroke: #A80036; stroke-width: 1.0;"/><path d="M319.4688,1970.2036 Q317.7188,1970.2036 316.5781,1969.4692 Q315.4531,1968.7192 314.8906,1967.3754 Q314.3438,1966.0161 314.3438,1964.2192 Q314.3438,1962.1879 315,1960.7348 Q315.6563,1959.2817 316.9375,1958.5004 Q318.2188,1957.7192 320.0938,1957.7192 Q320.9844,1957.7192 321.6563,1957.9067 Q322.3281,1958.0786 323.0156,1958.4223 L322.2031,1960.4379 Q321.5781,1960.1254 321.0313,1960.0004 Q320.5,1959.8754 320.0156,1959.8754 Q318.8438,1959.8754 318.1406,1960.4067 Q317.4375,1960.9379 317.1406,1961.8911 Q316.8438,1962.8442 316.8438,1964.1098 Q316.8438,1966.1254 317.5625,1967.0942 Q318.2813,1968.0473 319.875,1968.0473 Q320.4688,1968.0473 321.0938,1967.8911 Q321.7188,1967.7348 322.5469,1967.3598 L322.5469,1969.5786 Q321.8125,1969.8911 321.0156,1970.0473 Q320.2344,1970.2036 319.4688,1970.2036 Z "/><text fill="#000000" font-family="sans-serif" font-size="12" lengthAdjust="spacingAndGlyphs" textLength="65" x="333.5" y="1968.6877">Antecedente</text><line style="stroke: #A80036; stroke-width: 1.5;" x1="305.5" x2="400.5" y1="1980.0317" y2="1980.0317"/><line style="stroke: #A80036; stroke-width: 1.5;" x1="305.5" x2="400.5" y1="1988.0317" y2="1988.0317"/><!--MD5=[9205570e5169291d7f3e512f0ebf78d8]
class src.domotix.model.bean.regole.Condizione--><rect fill="#FEFECE" filter="url(#ffcfvzotdkcmf)" height="48" id="src.domotix.model.bean.regole.Condizione" style="stroke: #A80036; stroke-width: 1.5;" width="91" x="307.5" y="2509.0317"/><ellipse cx="322.5" cy="2525.0317" fill="#ADD1B2" rx="11" ry="11" style="stroke: #A80036; stroke-width: 1.0;"/><path d="M322.4688,2531.2036 Q320.7188,2531.2036 319.5781,2530.4692 Q318.4531,2529.7192 317.8906,2528.3754 Q317.3438,2527.0161 317.3438,2525.2192 Q317.3438,2523.1879 318,2521.7348 Q318.6563,2520.2817 319.9375,2519.5004 Q321.2188,2518.7192 323.0938,2518.7192 Q323.9844,2518.7192 324.6563,2518.9067 Q325.3281,2519.0786 326.0156,2519.4223 L325.2031,2521.4379 Q324.5781,2521.1254 324.0313,2521.0004 Q323.5,2520.8754 323.0156,2520.8754 Q321.8438,2520.8754 321.1406,2521.4067 Q320.4375,2521.9379 320.1406,2522.8911 Q319.8438,2523.8442 319.8438,2525.1098 Q319.8438,2527.1254 320.5625,2528.0942 Q321.2813,2529.0473 322.875,2529.0473 Q323.4688,2529.0473 324.0938,2528.8911 Q324.7188,2528.7348 325.5469,2528.3598 L325.5469,2530.5786 Q324.8125,2530.8911 324.0156,2531.0473 Q323.2344,2531.2036 322.4688,2531.2036 Z "/><text fill="#000000" font-family="sans-serif" font-size="12" lengthAdjust="spacingAndGlyphs" textLength="59" x="336.5" y="2529.6877">Condizione</text><line style="stroke: #A80036; stroke-width: 1.5;" x1="308.5" x2="397.5" y1="2541.0317" y2="2541.0317"/><line style="stroke: #A80036; stroke-width: 1.5;" x1="308.5" x2="397.5" y1="2549.0317" y2="2549.0317"/><!--MD5=[55fc91ed711fd342659b35aa5c525a9e]
class src.domotix.model.bean.regole.InfoSensoriale--><rect fill="#FEFECE" filter="url(#ffcfvzotdkcmf)" height="48" id="src.domotix.model.bean.regole.InfoSensoriale" style="stroke: #A80036; stroke-width: 1.5;" width="99" x="325.5" y="3088.0317"/><ellipse cx="340.5" cy="3104.0317" fill="#B4A7E5" rx="11" ry="11" style="stroke: #A80036; stroke-width: 1.0;"/><path d="M336.5313,3110.0317 L336.5313,3108.3286 L338.8906,3108.0629 L338.8906,3099.8598 L336.5313,3099.5942 L336.5313,3097.8911 L343.6719,3097.8911 L343.6719,3099.5942 L341.25,3099.8598 L341.25,3108.0629 L343.6719,3108.3286 L343.6719,3110.0317 L336.5313,3110.0317 Z "/><text fill="#000000" font-family="sans-serif" font-size="12" font-style="italic" lengthAdjust="spacingAndGlyphs" textLength="67" x="354.5" y="3108.6877">InfoSensoriale</text><line style="stroke: #A80036; stroke-width: 1.5;" x1="326.5" x2="423.5" y1="3120.0317" y2="3120.0317"/><line style="stroke: #A80036; stroke-width: 1.5;" x1="326.5" x2="423.5" y1="3128.0317" y2="3128.0317"/><!--MD5=[255dd12d897339fbb501add113f2bb18]
class src.domotix.model.bean.regole.InfoCostante--><rect fill="#FEFECE" filter="url(#ffcfvzotdkcmf)" height="48" id="src.domotix.model.bean.regole.InfoCostante" style="stroke: #A80036; stroke-width: 1.5;" width="100" x="460" y="3704.0317"/><ellipse cx="475" cy="3720.0317" fill="#ADD1B2" rx="11" ry="11" style="stroke: #A80036; stroke-width: 1.0;"/><path d="M474.9688,3726.2036 Q473.2188,3726.2036 472.0781,3725.4692 Q470.9531,3724.7192 470.3906,3723.3754 Q469.8438,3722.0161 469.8438,3720.2192 Q469.8438,3718.1879 470.5,3716.7348 Q471.1563,3715.2817 472.4375,3714.5004 Q473.7188,3713.7192 475.5938,3713.7192 Q476.4844,3713.7192 477.1563,3713.9067 Q477.8281,3714.0786 478.5156,3714.4223 L477.7031,3716.4379 Q477.0781,3716.1254 476.5313,3716.0004 Q476,3715.8754 475.5156,3715.8754 Q474.3438,3715.8754 473.6406,3716.4067 Q472.9375,3716.9379 472.6406,3717.8911 Q472.3438,3718.8442 472.3438,3720.1098 Q472.3438,3722.1254 473.0625,3723.0942 Q473.7813,3724.0473 475.375,3724.0473 Q475.9688,3724.0473 476.5938,3723.8911 Q477.2188,3723.7348 478.0469,3723.3598 L478.0469,3725.5786 Q477.3125,3725.8911 476.5156,3726.0473 Q475.7344,3726.2036 474.9688,3726.2036 Z "/><text fill="#000000" font-family="sans-serif" font-size="12" lengthAdjust="spacingAndGlyphs" textLength="68" x="489" y="3724.6877">InfoCostante</text><line style="stroke: #A80036; stroke-width: 1.5;" x1="461" x2="559" y1="3736.0317" y2="3736.0317"/><line style="stroke: #A80036; stroke-width: 1.5;" x1="461" x2="559" y1="3744.0317" y2="3744.0317"/><!--MD5=[aed7db1a71c688c940b60524cae413bd]
class src.domotix.model.bean.regole.InfoTemporale--><rect fill="#FEFECE" filter="url(#ffcfvzotdkcmf)" height="48" id="src.domotix.model.bean.regole.InfoTemporale" style="stroke: #A80036; stroke-width: 1.5;" width="110" x="180" y="3704.0317"/><ellipse cx="195" cy="3720.0317" fill="#ADD1B2" rx="11" ry="11" style="stroke: #A80036; stroke-width: 1.0;"/><path d="M194.9688,3726.2036 Q193.2188,3726.2036 192.0781,3725.4692 Q190.9531,3724.7192 190.3906,3723.3754 Q189.8438,3722.0161 189.8438,3720.2192 Q189.8438,3718.1879 190.5,3716.7348 Q191.1563,3715.2817 192.4375,3714.5004 Q193.7188,3713.7192 195.5938,3713.7192 Q196.4844,3713.7192 197.1563,3713.9067 Q197.8281,3714.0786 198.5156,3714.4223 L197.7031,3716.4379 Q197.0781,3716.1254 196.5313,3716.0004 Q196,3715.8754 195.5156,3715.8754 Q194.3438,3715.8754 193.6406,3716.4067 Q192.9375,3716.9379 192.6406,3717.8911 Q192.3438,3718.8442 192.3438,3720.1098 Q192.3438,3722.1254 193.0625,3723.0942 Q193.7813,3724.0473 195.375,3724.0473 Q195.9688,3724.0473 196.5938,3723.8911 Q197.2188,3723.7348 198.0469,3723.3598 L198.0469,3725.5786 Q197.3125,3725.8911 196.5156,3726.0473 Q195.7344,3726.2036 194.9688,3726.2036 Z "/><text fill="#000000" font-family="sans-serif" font-size="12" lengthAdjust="spacingAndGlyphs" textLength="78" x="209" y="3724.6877">InfoTemporale</text><line style="stroke: #A80036; stroke-width: 1.5;" x1="181" x2="289" y1="3736.0317" y2="3736.0317"/><line style="stroke: #A80036; stroke-width: 1.5;" x1="181" x2="289" y1="3744.0317" y2="3744.0317"/><!--MD5=[decc1a756b1084eff48a4cc3aebe0c1a]
class src.domotix.model.bean.regole.InfoVariabile--><rect fill="#FEFECE" filter="url(#ffcfvzotdkcmf)" height="48" id="src.domotix.model.bean.regole.InfoVariabile" style="stroke: #A80036; stroke-width: 1.5;" width="99" x="325.5" y="3704.0317"/><ellipse cx="340.5" cy="3720.0317" fill="#ADD1B2" rx="11" ry="11" style="stroke: #A80036; stroke-width: 1.0;"/><path d="M340.4688,3726.2036 Q338.7188,3726.2036 337.5781,3725.4692 Q336.4531,3724.7192 335.8906,3723.3754 Q335.3438,3722.0161 335.3438,3720.2192 Q335.3438,3718.1879 336,3716.7348 Q336.6563,3715.2817 337.9375,3714.5004 Q339.2188,3713.7192 341.0938,3713.7192 Q341.9844,3713.7192 342.6563,3713.9067 Q343.3281,3714.0786 344.0156,3714.4223 L343.2031,3716.4379 Q342.5781,3716.1254 342.0313,3716.0004 Q341.5,3715.8754 341.0156,3715.8754 Q339.8438,3715.8754 339.1406,3716.4067 Q338.4375,3716.9379 338.1406,3717.8911 Q337.8438,3718.8442 337.8438,3720.1098 Q337.8438,3722.1254 338.5625,3723.0942 Q339.2813,3724.0473 340.875,3724.0473 Q341.4688,3724.0473 342.0938,3723.8911 Q342.7188,3723.7348 343.5469,3723.3598 L343.5469,3725.5786 Q342.8125,3725.8911 342.0156,3726.0473 Q341.2344,3726.2036 340.4688,3726.2036 Z "/><text fill="#000000" font-family="sans-serif" font-size="12" lengthAdjust="spacingAndGlyphs" textLength="67" x="354.5" y="3724.6877">InfoVariabile</text><line style="stroke: #A80036; stroke-width: 1.5;" x1="326.5" x2="423.5" y1="3736.0317" y2="3736.0317"/><line style="stroke: #A80036; stroke-width: 1.5;" x1="326.5" x2="423.5" y1="3744.0317" y2="3744.0317"/><!--MD5=[9274dee16f656d4f339b140a594e1525]
class src.domotix.model.bean.regole.Conseguente--><rect fill="#FEFECE" filter="url(#ffcfvzotdkcmf)" height="48" id="src.domotix.model.bean.regole.Conseguente" style="stroke: #A80036; stroke-width: 1.5;" width="101" x="38.5" y="1948.0317"/><ellipse cx="53.5" cy="1964.0317" fill="#ADD1B2" rx="11" ry="11" style="stroke: #A80036; stroke-width: 1.0;"/><path d="M53.4688,1970.2036 Q51.7188,1970.2036 50.5781,1969.4692 Q49.4531,1968.7192 48.8906,1967.3754 Q48.3438,1966.0161 48.3438,1964.2192 Q48.3438,1962.1879 49,1960.7348 Q49.6563,1959.2817 50.9375,1958.5004 Q52.2188,1957.7192 54.0938,1957.7192 Q54.9844,1957.7192 55.6563,1957.9067 Q56.3281,1958.0786 57.0156,1958.4223 L56.2031,1960.4379 Q55.5781,1960.1254 55.0313,1960.0004 Q54.5,1959.8754 54.0156,1959.8754 Q52.8438,1959.8754 52.1406,1960.4067 Q51.4375,1960.9379 51.1406,1961.8911 Q50.8438,1962.8442 50.8438,1964.1098 Q50.8438,1966.1254 51.5625,1967.0942 Q52.2813,1968.0473 53.875,1968.0473 Q54.4688,1968.0473 55.0938,1967.8911 Q55.7188,1967.7348 56.5469,1967.3598 L56.5469,1969.5786 Q55.8125,1969.8911 55.0156,1970.0473 Q54.2344,1970.2036 53.4688,1970.2036 Z "/><text fill="#000000" font-family="sans-serif" font-size="12" lengthAdjust="spacingAndGlyphs" textLength="69" x="67.5" y="1968.6877">Conseguente</text><line style="stroke: #A80036; stroke-width: 1.5;" x1="39.5" x2="138.5" y1="1980.0317" y2="1980.0317"/><line style="stroke: #A80036; stroke-width: 1.5;" x1="39.5" x2="138.5" y1="1988.0317" y2="1988.0317"/><!--MD5=[ddb7829e335cb6ce0cd707ae5aa0061b]
class src.domotix.model.bean.regole.Azione--><rect fill="#FEFECE" filter="url(#ffcfvzotdkcmf)" height="48" id="src.domotix.model.bean.regole.Azione" style="stroke: #A80036; stroke-width: 1.5;" width="67" x="492.5" y="1387.0317"/><ellipse cx="507.5" cy="1403.0317" fill="#ADD1B2" rx="11" ry="11" style="stroke: #A80036; stroke-width: 1.0;"/><path d="M507.4688,1409.2036 Q505.7188,1409.2036 504.5781,1408.4692 Q503.4531,1407.7192 502.8906,1406.3754 Q502.3438,1405.0161 502.3438,1403.2192 Q502.3438,1401.1879 503,1399.7348 Q503.6563,1398.2817 504.9375,1397.5004 Q506.2188,1396.7192 508.0938,1396.7192 Q508.9844,1396.7192 509.6563,1396.9067 Q510.3281,1397.0786 511.0156,1397.4223 L510.2031,1399.4379 Q509.5781,1399.1254 509.0313,1399.0004 Q508.5,1398.8754 508.0156,1398.8754 Q506.8438,1398.8754 506.1406,1399.4067 Q505.4375,1399.9379 505.1406,1400.8911 Q504.8438,1401.8442 504.8438,1403.1098 Q504.8438,1405.1254 505.5625,1406.0942 Q506.2813,1407.0473 507.875,1407.0473 Q508.4688,1407.0473 509.0938,1406.8911 Q509.7188,1406.7348 510.5469,1406.3598 L510.5469,1408.5786 Q509.8125,1408.8911 509.0156,1409.0473 Q508.2344,1409.2036 507.4688,1409.2036 Z "/><text fill="#000000" font-family="sans-serif" font-size="12" lengthAdjust="spacingAndGlyphs" textLength="35" x="521.5" y="1407.6877">Azione</text><line style="stroke: #A80036; stroke-width: 1.5;" x1="493.5" x2="558.5" y1="1419.0317" y2="1419.0317"/><line style="stroke: #A80036; stroke-width: 1.5;" x1="493.5" x2="558.5" y1="1427.0317" y2="1427.0317"/><!--MD5=[4eb1754fda324e93b2d075fe3c95f285]
reverse link src.domotix.model.bean.device.Dispositivo to src.domotix.model.bean.device.Attuatore--><path d="M814.1205,3474.5878 C820.7847,3488.0268 826,3503.3832 826,3518.5317 C826,3518.5317 826,3518.5317 826,3955.5317 C826,3989.152 858.9493,4012.1748 887.3938,4025.7859 " fill="none" id="src.domotix.model.bean.device.Dispositivo&lt;-src.domotix.model.bean.device.Attuatore" style="stroke: #A80036; stroke-width: 1.0;"/><polygon fill="none" points="807.9663,3477.9267,804.1274,3457.0876,820.1238,3470.9844,807.9663,3477.9267" style="stroke: #A80036; stroke-width: 1.0;"/><!--MD5=[102e82d6661947bf550db27e929a70b9]
reverse link src.domotix.model.bean.device.Attuatore to src.domotix.model.bean.device.CategoriaAttuatore--><path d="M935.5028,4078.1518 C937.9262,4093.115 940,4110.5799 940,4126.5317 C940,4126.5317 940,4126.5317 940,4516.5317 C940,4537.8078 946.9741,4560.9909 953.4034,4577.8424 " fill="none" id="src.domotix.model.bean.device.Attuatore&lt;-src.domotix.model.bean.device.CategoriaAttuatore" style="stroke: #A80036; stroke-width: 1.0;"/><polygon fill="#FFFFFF" points="933.2285,4065.2286,930.329,4071.8311,935.3085,4077.047,938.2079,4070.4445,933.2285,4065.2286" style="stroke: #A80036; stroke-width: 1.0;"/><text fill="#000000" font-family="sans-serif" font-size="13" lengthAdjust="spacingAndGlyphs" textLength="54" x="941" y="4326.9287">categoria</text><text fill="#000000" font-family="sans-serif" font-size="13" lengthAdjust="spacingAndGlyphs" textLength="7" x="926.6282" y="4086.7684">*</text><text fill="#000000" font-family="sans-serif" font-size="13" lengthAdjust="spacingAndGlyphs" textLength="7" x="942.6149" y="4566.049">1</text><!--MD5=[b103615178525ba4af6f3c450d9df3cc]
reverse link src.domotix.model.bean.device.Attuatore to src.domotix.model.bean.device.Modalita--><path d="M981.1706,4056.4262 C1031.6925,4072.6813 1100,4099.6326 1100,4126.5317 C1100,4126.5317 1100,4126.5317 1100,5077.5317 C1100,5098.1998 1098.5259,5121.6303 1097.1785,5138.7302 " fill="none" id="src.domotix.model.bean.device.Attuatore&lt;-src.domotix.model.bean.device.Modalita" style="stroke: #A80036; stroke-width: 1.0;"/><polygon fill="#FFFFFF" points="968.7616,4052.5305,973.288,4058.144,980.2107,4056.1248,975.6842,4050.5113,968.7616,4052.5305" style="stroke: #A80036; stroke-width: 1.0;"/><text fill="#000000" font-family="sans-serif" font-size="13" lengthAdjust="spacingAndGlyphs" textLength="52" x="1101" y="4607.4287">modoOp</text><text fill="#000000" font-family="sans-serif" font-size="13" lengthAdjust="spacingAndGlyphs" textLength="7" x="976.3691" y="4050.0036">*</text><text fill="#000000" font-family="sans-serif" font-size="13" lengthAdjust="spacingAndGlyphs" textLength="7" x="1089.8399" y="5127.3123">1</text><!--MD5=[c1a1e2523dce294a44a14372269a1bfb]
reverse link src.domotix.model.bean.device.CategoriaAttuatore to src.domotix.model.bean.device.Modalita--><path d="M978.3395,4638.604 C983.0019,4653.5367 987,4671.1251 987,4687.5317 C987,4687.5317 987,4687.5317 987,5077.5317 C987,5113.762 1024.8241,5137.0545 1055.704,5150.0335 " fill="none" id="src.domotix.model.bean.device.CategoriaAttuatore&lt;-src.domotix.model.bean.device.Modalita" style="stroke: #A80036; stroke-width: 1.0;"/><polygon fill="#FFFFFF" points="974.1551,4626.2614,972.2933,4633.228,978.008,4637.626,979.8698,4630.6594,974.1551,4626.2614" style="stroke: #A80036; stroke-width: 1.0;"/><text fill="#000000" font-family="sans-serif" font-size="13" lengthAdjust="spacingAndGlyphs" textLength="51" x="988" y="4887.9287">modalita</text><text fill="#000000" font-family="sans-serif" font-size="13" lengthAdjust="spacingAndGlyphs" textLength="7" x="968.6941" y="4647.8088">*</text><text fill="#000000" font-family="sans-serif" font-size="13" lengthAdjust="spacingAndGlyphs" textLength="7" x="1041.081" y="5143.164">1</text><!--MD5=[20a034426e7b291dca6ca21f32d51147]
reverse link src.domotix.model.bean.device.Modalita to src.domotix.model.bean.device.Parametro--><path d="M1091.843,5200.7422 C1090.8465,5215.6202 1090,5232.8692 1090,5248.5317 C1090,5248.5317 1090,5248.5317 1090,5638.5317 C1090,5659.1645 1090,5682.5981 1090,5699.7081 " fill="none" id="src.domotix.model.bean.device.Modalita&lt;-src.domotix.model.bean.device.Parametro" style="stroke: #A80036; stroke-width: 1.0;"/><polygon fill="#FFFFFF" points="1092.8215,5187.3332,1088.3954,5193.0261,1091.948,5199.3014,1096.3741,5193.6084,1092.8215,5187.3332" style="stroke: #A80036; stroke-width: 1.0;"/><text fill="#000000" font-family="sans-serif" font-size="13" lengthAdjust="spacingAndGlyphs" textLength="62" x="1091" y="5448.9287">parametro</text><text fill="#000000" font-family="sans-serif" font-size="13" lengthAdjust="spacingAndGlyphs" textLength="7" x="1084.5083" y="5208.8972">*</text><text fill="#000000" font-family="sans-serif" font-size="13" lengthAdjust="spacingAndGlyphs" textLength="7" x="1082.1031" y="5688.2845">1</text><!--MD5=[2a33e928248dee71e2f4ea147089d0c5]
reverse link src.domotix.model.bean.device.Dispositivo to src.domotix.model.bean.device.Sensore--><path d="M786,3477.8286 C786,3490.9465 786,3505.3138 786,3518.5317 C786,3518.5317 786,3518.5317 786,3955.5317 C786,3977.3298 776.5491,4000.2836 767.7626,4016.9134 " fill="none" id="src.domotix.model.bean.device.Dispositivo&lt;-src.domotix.model.bean.device.Sensore" style="stroke: #A80036; stroke-width: 1.0;"/><polygon fill="none" points="779.0001,3477.3554,786,3457.3553,793.0001,3477.3553,779.0001,3477.3554" style="stroke: #A80036; stroke-width: 1.0;"/><!--MD5=[bf0cc25bc104e4bdb12fc726d6e34307]
reverse link src.domotix.model.bean.device.Sensore to src.domotix.model.bean.device.CategoriaSensore--><path d="M704.8624,4064.6767 C683.0247,4079.0714 662,4099.8568 662,4126.5317 C662,4126.5317 662,4126.5317 662,4516.5317 C662,4537.5227 657.283,4560.9255 652.9713,4577.9325 " fill="none" id="src.domotix.model.bean.device.Sensore&lt;-src.domotix.model.bean.device.CategoriaSensore" style="stroke: #A80036; stroke-width: 1.0;"/><polygon fill="#FFFFFF" points="716.2491,4057.7344,709.0439,4057.4425,706.0033,4063.9812,713.2085,4064.2731,716.2491,4057.7344" style="stroke: #A80036; stroke-width: 1.0;"/><text fill="#000000" font-family="sans-serif" font-size="13" lengthAdjust="spacingAndGlyphs" textLength="54" x="663" y="4326.9287">categoria</text><text fill="#000000" font-family="sans-serif" font-size="13" lengthAdjust="spacingAndGlyphs" textLength="7" x="701.5763" y="4056.2623">*</text><text fill="#000000" font-family="sans-serif" font-size="13" lengthAdjust="spacingAndGlyphs" textLength="7" x="646.9042" y="4566.1633">1</text><!--MD5=[ce6d45991a67ee3d6f62f638d91260ec]
reverse link src.domotix.model.bean.device.CategoriaSensore to src.domotix.model.bean.device.InfoRilevabile--><path d="M646,4639.7699 C646,4654.6517 646,4671.8959 646,4687.5317 C646,4687.5317 646,4687.5317 646,5077.5317 C646,5098.1645 646,5121.5981 646,5138.7081 " fill="none" id="src.domotix.model.bean.device.CategoriaSensore&lt;-src.domotix.model.bean.device.InfoRilevabile" style="stroke: #A80036; stroke-width: 1.0;"/><polygon fill="#FFFFFF" points="646,4626.3553,642,4632.3553,646,4638.3553,650,4632.3553,646,4626.3553" style="stroke: #A80036; stroke-width: 1.0;"/><text fill="#000000" font-family="sans-serif" font-size="13" lengthAdjust="spacingAndGlyphs" textLength="132" x="647" y="4887.9287">informazione rilevabile</text><text fill="#000000" font-family="sans-serif" font-size="13" lengthAdjust="spacingAndGlyphs" textLength="7" x="638.1906" y="4647.9244">*</text><text fill="#000000" font-family="sans-serif" font-size="13" lengthAdjust="spacingAndGlyphs" textLength="7" x="638.1031" y="5127.2845">1</text><!--MD5=[76aa0825bdce4c882bdb99255cbf2a5b]
reverse link src.domotix.model.bean.device.Sensore to src.domotix.model.bean.device.SensoreOrologio--><path d="M765.7725,4084.5021 C768.7146,4097.8629 771,4112.6946 771,4126.5317 C771,4126.5317 771,4126.5317 771,4516.5317 C771,4538.2453 780.1646,4561.2051 788.6847,4577.8586 " fill="none" id="src.domotix.model.bean.device.Sensore&lt;-src.domotix.model.bean.device.SensoreOrologio" style="stroke: #A80036; stroke-width: 1.0;"/><polygon fill="none" points="758.9763,4086.1792,760.8427,4065.0719,772.5463,4082.7362,758.9763,4086.1792" style="stroke: #A80036; stroke-width: 1.0;"/><!--MD5=[5b1292d52ce45964c54ec0842ce36133]
reverse link src.domotix.model.bean.system.Sistema to src.domotix.model.bean.system.Artefatto--><path d="M1112.389,766.1499 C1109.4262,781.9453 1107,799.944 1107,816.5317 C1107,816.5317 1107,816.5317 1107,1886.5317 C1107,1908.5056 1096.9763,1931.4471 1087.6573,1948.0274 " fill="none" id="src.domotix.model.bean.system.Sistema&lt;-src.domotix.model.bean.system.Artefatto" style="stroke: #A80036; stroke-width: 1.0;"/><polygon fill="none" points="1105.5969,764.4341,1116.5844,746.3157,1119.2939,767.3314,1105.5969,764.4341" style="stroke: #A80036; stroke-width: 1.0;"/><!--MD5=[7c71bcd0d9af6187bfc5156a92a22afe]
reverse link src.domotix.model.bean.system.Azionabile to src.domotix.model.bean.system.Sistema--><path d="M1046.2235,221.2943 C1052.2861,234.6311 1057,249.7527 1057,264.5317 C1057,264.5317 1057,264.5317 1057,636.5317 C1057,660.9091 1074.0197,682.5763 1090.7734,697.9997 " fill="none" id="src.domotix.model.bean.system.Azionabile&lt;-src.domotix.model.bean.system.Sistema" style="stroke: #A80036; stroke-width: 1.0; stroke-dasharray: 7.0,7.0;"/><polygon fill="none" points="1039.8648,224.2415,1036.7679,203.2793,1052.261,217.735,1039.8648,224.2415" style="stroke: #A80036; stroke-width: 1.0;"/><!--MD5=[9f5c42090f22c091b7e8436411bbe7e7]
reverse link src.domotix.model.bean.system.Osservabile to src.domotix.model.bean.system.Sistema--><path d="M1133.2768,223.2757 C1131.9917,236.5202 1131,251.0942 1131,264.5317 C1131,264.5317 1131,264.5317 1131,636.5317 C1131,657.2546 1128.6415,680.6804 1126.4856,697.7645 " fill="none" id="src.domotix.model.bean.system.Osservabile&lt;-src.domotix.model.bean.system.Sistema" style="stroke: #A80036; stroke-width: 1.0; stroke-dasharray: 7.0,7.0;"/><polygon fill="none" points="1126.3315,222.3953,1135.5144,203.2989,1140.2445,223.9538,1126.3315,222.3953" style="stroke: #A80036; stroke-width: 1.0;"/><!--MD5=[d139adad5b3f7c261696a6bb18f0943e]
reverse link src.domotix.model.bean.system.Sistema to src.domotix.model.util.ElencoDispositivi--><path d="M1149.7459,756.6957 C1180.3763,796.3944 1229.7574,860.395 1256.4474,894.9865 " fill="none" id="src.domotix.model.bean.system.Sistema&lt;-src.domotix.model.util.ElencoDispositivi" style="stroke: #A80036; stroke-width: 1.0;"/><polygon fill="#FFFFFF" points="1141.6382,746.1878,1142.1365,753.3817,1148.9687,755.6885,1148.4704,748.4947,1141.6382,746.1878" style="stroke: #A80036; stroke-width: 1.0;"/><text fill="#000000" font-family="sans-serif" font-size="13" lengthAdjust="spacingAndGlyphs" textLength="49" x="1203" y="821.9287">attuatori</text><text fill="#000000" font-family="sans-serif" font-size="13" lengthAdjust="spacingAndGlyphs" textLength="7" x="1138.3281" y="768.1308">1</text><text fill="#000000" font-family="sans-serif" font-size="13" lengthAdjust="spacingAndGlyphs" textLength="7" x="1243.5208" y="883.2319">1</text><!--MD5=[d139adad5b3f7c261696a6bb18f0943e]
reverse link src.domotix.model.bean.system.Sistema to src.domotix.model.util.ElencoDispositivi--><path d="M1170.4154,739.0238 C1201.0938,752.5802 1239.0842,774.7076 1260,807.0317 C1277.0522,833.3848 1278.6485,870.5465 1277.4478,894.7119 " fill="none" id="src.domotix.model.bean.system.Sistema&lt;-src.domotix.model.util.ElencoDispositivi-1" style="stroke: #A80036; stroke-width: 1.0;"/><polygon fill="#FFFFFF" points="1158.2151,733.9044,1162.2,739.9144,1169.2804,738.5476,1165.2955,732.5376,1158.2151,733.9044" style="stroke: #A80036; stroke-width: 1.0;"/><text fill="#000000" font-family="sans-serif" font-size="13" lengthAdjust="spacingAndGlyphs" textLength="42" x="1269" y="821.9287">sensori</text><text fill="#000000" font-family="sans-serif" font-size="13" lengthAdjust="spacingAndGlyphs" textLength="7" x="1166.2001" y="731.5698">1</text><text fill="#000000" font-family="sans-serif" font-size="13" lengthAdjust="spacingAndGlyphs" textLength="7" x="1270.1782" y="883.2893">1</text><!--MD5=[6e4c5b84e8cca32dd54b6640582df7cc]
reverse link src.domotix.model.bean.system.Sistema to src.domotix.model.bean.system.Stanza--><path d="M1073.2613,760.5096 C1058.8884,775.9776 1047,795.2148 1047,816.5317 C1047,816.5317 1047,816.5317 1047,1317.5317 C1047,1341.6035 1039.7227,1368.1785 1033.355,1386.8242 " fill="none" id="src.domotix.model.bean.system.Sistema&lt;-src.domotix.model.bean.system.Stanza" style="stroke: #A80036; stroke-width: 1.0;"/><polygon fill="none" points="1068.8048,755.0871,1088.1141,746.3605,1078.4613,765.2238,1068.8048,755.0871" style="stroke: #A80036; stroke-width: 1.0;"/><!--MD5=[dc8a684b6d868a797bb73250e158eb2c]
reverse link src.domotix.model.bean.system.Stanza to src.domotix.model.bean.system.Artefatto--><path d="M1024,1448.7699 C1024,1463.6517 1024,1480.8959 1024,1496.5317 C1024,1496.5317 1024,1496.5317 1024,1886.5317 C1024,1909.3425 1037.1514,1931.6991 1049.6863,1947.8271 " fill="none" id="src.domotix.model.bean.system.Stanza&lt;-src.domotix.model.bean.system.Artefatto" style="stroke: #A80036; stroke-width: 1.0;"/><polygon fill="#FFFFFF" points="1024,1435.3553,1020,1441.3553,1024,1447.3553,1028,1441.3553,1024,1435.3553" style="stroke: #A80036; stroke-width: 1.0;"/><text fill="#000000" font-family="sans-serif" font-size="13" lengthAdjust="spacingAndGlyphs" textLength="45" x="1025" y="1696.9287">artefatti</text><text fill="#000000" font-family="sans-serif" font-size="13" lengthAdjust="spacingAndGlyphs" textLength="7" x="1016.1906" y="1456.9244">1</text><text fill="#000000" font-family="sans-serif" font-size="13" lengthAdjust="spacingAndGlyphs" textLength="7" x="1035.7489" y="1936.0296">*</text><!--MD5=[ca6139883065fdf371dce2e3ac7ffbd3]
reverse link src.domotix.model.bean.UnitaImmobiliare to src.domotix.model.bean.system.Stanza--><path d="M674.4632,1108.768 C728.5907,1124.4891 792,1148.644 792,1175.5317 C792,1175.5317 792,1175.5317 792,1317.5317 C792,1359.8718 926.61,1391.9596 990.7601,1404.8474 " fill="none" id="src.domotix.model.bean.UnitaImmobiliare&lt;-src.domotix.model.bean.system.Stanza" style="stroke: #A80036; stroke-width: 1.0;"/><polygon fill="#FFFFFF" points="661.6616,1105.1526,666.3485,1110.6328,673.2098,1108.4142,668.5229,1102.934,661.6616,1105.1526" style="stroke: #A80036; stroke-width: 1.0;"/><text fill="#000000" font-family="sans-serif" font-size="13" lengthAdjust="spacingAndGlyphs" textLength="38" x="793" y="1251.9287">stanze</text><text fill="#000000" font-family="sans-serif" font-size="13" lengthAdjust="spacingAndGlyphs" textLength="7" x="669.3115" y="1102.856">*</text><text fill="#000000" font-family="sans-serif" font-size="13" lengthAdjust="spacingAndGlyphs" textLength="7" x="976.1825" y="1398.7886">1</text><!--MD5=[dc38bcd378fca4de10a991932674c7dd]
reverse link src.domotix.model.bean.UnitaImmobiliare to src.domotix.model.bean.regole.Regola--><path d="M523.5368,1108.768 C469.4093,1124.4891 406,1148.644 406,1175.5317 C406,1175.5317 406,1175.5317 406,1317.5317 C406,1357.2124 363.8125,1383.8156 332.1719,1398.188 " fill="none" id="src.domotix.model.bean.UnitaImmobiliare&lt;-src.domotix.model.bean.regole.Regola" style="stroke: #A80036; stroke-width: 1.0;"/><polygon fill="#FFFFFF" points="536.3384,1105.1526,529.4771,1102.934,524.7902,1108.4142,531.6515,1110.6328,536.3384,1105.1526" style="stroke: #A80036; stroke-width: 1.0;"/><text fill="#000000" font-family="sans-serif" font-size="13" lengthAdjust="spacingAndGlyphs" textLength="37" x="407" y="1251.9287">regole</text><text fill="#000000" font-family="sans-serif" font-size="13" lengthAdjust="spacingAndGlyphs" textLength="7" x="521.6885" y="1102.856">*</text><text fill="#000000" font-family="sans-serif" font-size="13" lengthAdjust="spacingAndGlyphs" textLength="7" x="339.9417" y="1390.7557">1</text><!--MD5=[e2c664f300b6c20b20137bc129906289]
reverse link src.domotix.model.bean.regole.Antecedente to src.domotix.model.bean.regole.Condizione--><path d="M353,2009.7699 C353,2024.6517 353,2041.8959 353,2057.5317 C353,2057.5317 353,2057.5317 353,2447.5317 C353,2468.1645 353,2491.5981 353,2508.7081 " fill="none" id="src.domotix.model.bean.regole.Antecedente&lt;-src.domotix.model.bean.regole.Condizione" style="stroke: #A80036; stroke-width: 1.0;"/><polygon fill="#FFFFFF" points="353,1996.3553,349,2002.3553,353,2008.3553,357,2002.3553,353,1996.3553" style="stroke: #A80036; stroke-width: 1.0;"/><text fill="#000000" font-family="sans-serif" font-size="13" lengthAdjust="spacingAndGlyphs" textLength="63" x="354" y="2257.9287">condizione</text><!--MD5=[51890888f6b8faa59722cd823e8fd3c3]
reverse link src.domotix.model.bean.regole.Antecedente to src.domotix.model.bean.regole.Antecedente--><path d="M415.27,1962.3245 C427.6628,1963.417 436.5,1966.6528 436.5,1972.0317 C436.5,1979.2036 420.7894,1982.5654 401.8876,1982.1171 " fill="none" id="src.domotix.model.bean.regole.Antecedente&lt;-src.domotix.model.bean.regole.Antecedente" style="stroke: #A80036; stroke-width: 1.0;"/><polygon fill="#FFFFFF" points="401.8876,1961.9463,407.7722,1966.1142,413.8828,1962.2853,407.9982,1958.1174,401.8876,1961.9463" style="stroke: #A80036; stroke-width: 1.0;"/><text fill="#000000" font-family="sans-serif" font-size="13" lengthAdjust="spacingAndGlyphs" textLength="128" x="442.5" y="1977.4287">prossimoAntecedente</text><!--MD5=[d30f2b9b78db66dc000b924918f2398d]
reverse link src.domotix.model.bean.regole.Azione to src.domotix.model.bean.device.Attuatore--><path d="M572.9334,1413.1058 C665.9952,1418.5035 865,1437.0052 865,1496.5317 C865,1496.5317 865,1496.5317 865,3955.5317 C865,3979.5013 881.246,4001.175 897.2382,4016.7034 " fill="none" id="src.domotix.model.bean.regole.Azione&lt;-src.domotix.model.bean.device.Attuatore" style="stroke: #A80036; stroke-width: 1.0;"/><polygon fill="#FFFFFF" points="559.744,1412.3877,565.5177,1416.708,571.7263,1413.04,565.9526,1408.7198,559.744,1412.3877" style="stroke: #A80036; stroke-width: 1.0;"/><text fill="#000000" font-family="sans-serif" font-size="13" lengthAdjust="spacingAndGlyphs" textLength="53" x="866" y="2694.9287">attuatore</text><!--MD5=[8bdf218b9bb0b093b4c931db0063b16d]
reverse link src.domotix.model.bean.regole.Azione to src.domotix.model.bean.device.Modalita--><path d="M572.4902,1415.4896 C683.1473,1426.7246 953,1458.0662 953,1496.5317 C953,1496.5317 953,1496.5317 953,1691.5317 C953,2412.7358 1089,2587.3276 1089,3308.5317 C1089,3308.5317 1089,3308.5317 1089,3611.5317 C1089,4078.1404 1190,4189.923 1190,4656.5317 C1190,4656.5317 1190,4656.5317 1190,5077.5317 C1190,5109.2622 1160.3574,5132.2221 1134.1886,5146.309 " fill="none" id="src.domotix.model.bean.regole.Azione&lt;-src.domotix.model.bean.device.Modalita" style="stroke: #A80036; stroke-width: 1.0;"/><polygon fill="#FFFFFF" points="559.506,1414.1896,565.0776,1418.7675,571.4463,1415.3851,565.8747,1410.8073,559.506,1414.1896" style="stroke: #A80036; stroke-width: 1.0;"/><text fill="#000000" font-family="sans-serif" font-size="13" lengthAdjust="spacingAndGlyphs" textLength="51" x="1089" y="3273.9287">modalita</text><!--MD5=[b586ba70748c6c112b5dc4bc7372992e]
reverse link src.domotix.model.bean.regole.Condizione to src.domotix.model.bean.regole.InfoSensoriale--><path d="M326.1397,2568.3374 C317.4452,2583.059 310,2600.8325 310,2618.5317 C310,2618.5317 310,2618.5317 310,3026.5317 C310,3050.7718 326.7618,3072.4412 343.2617,3087.9 " fill="none" id="src.domotix.model.bean.regole.Condizione&lt;-src.domotix.model.bean.regole.InfoSensoriale" style="stroke: #A80036; stroke-width: 1.0;"/><polygon fill="#FFFFFF" points="333.2619,2557.2451,326.6542,2560.1327,326.7783,2567.3428,333.386,2564.4551,333.2619,2557.2451" style="stroke: #A80036; stroke-width: 1.0;"/><text fill="#000000" font-family="sans-serif" font-size="13" lengthAdjust="spacingAndGlyphs" textLength="37" x="311" y="2836.9287">destra</text><!--MD5=[b586ba70748c6c112b5dc4bc7372992e]
reverse link src.domotix.model.bean.regole.Condizione to src.domotix.model.bean.regole.InfoSensoriale--><path d="M394.5647,2566.3746 C407.7644,2580.7076 419,2598.7251 419,2618.5317 C419,2618.5317 419,2618.5317 419,3026.5317 C419,3049.0686 406.764,3071.6129 395.1971,3087.8895 " fill="none" id="src.domotix.model.bean.regole.Condizione&lt;-src.domotix.model.bean.regole.InfoSensoriale-1" style="stroke: #A80036; stroke-width: 1.0;"/><polygon fill="#FFFFFF" points="385.2266,2557.0637,386.6511,2564.1327,393.7242,2565.5366,392.2997,2558.4676,385.2266,2557.0637" style="stroke: #A80036; stroke-width: 1.0;"/><text fill="#000000" font-family="sans-serif" font-size="13" lengthAdjust="spacingAndGlyphs" textLength="42" x="420" y="2836.9287">sinistra</text><!--MD5=[6796e42f379f03bad3cb9f64459d629a]
reverse link src.domotix.model.bean.regole.InfoSensoriale to src.domotix.model.bean.regole.InfoCostante--><path d="M436.2658,3149.0564 C450.2059,3162.1406 461,3178.437 461,3197.5317 C461,3197.5317 461,3197.5317 461,3642.5317 C461,3665.4573 474.4254,3687.8085 487.2214,3703.9054 " fill="none" id="src.domotix.model.bean.regole.InfoSensoriale&lt;-src.domotix.model.bean.regole.InfoCostante" style="stroke: #A80036; stroke-width: 1.0; stroke-dasharray: 7.0,7.0;"/><polygon fill="none" points="431.4305,3154.1492,420.2666,3136.1389,440.2252,3143.2563,431.4305,3154.1492" style="stroke: #A80036; stroke-width: 1.0;"/><!--MD5=[cc925838b619e85434640d326e999d3e]
reverse link src.domotix.model.bean.regole.InfoSensoriale to src.domotix.model.bean.regole.InfoVariabile--><path d="M375,3156.8286 C375,3169.9465 375,3184.3138 375,3197.5317 C375,3197.5317 375,3197.5317 375,3642.5317 C375,3663.1645 375,3686.5981 375,3703.7081 " fill="none" id="src.domotix.model.bean.regole.InfoSensoriale&lt;-src.domotix.model.bean.regole.InfoVariabile" style="stroke: #A80036; stroke-width: 1.0; stroke-dasharray: 7.0,7.0;"/><polygon fill="none" points="368.0001,3156.3554,375,3136.3553,382.0001,3156.3553,368.0001,3156.3554" style="stroke: #A80036; stroke-width: 1.0;"/><!--MD5=[3aa6f6c251c5c22790fb9cf610deba4b]
reverse link src.domotix.model.bean.regole.InfoSensoriale to src.domotix.model.bean.regole.InfoTemporale--><path d="M311.7033,3148.5376 C297.2256,3161.6238 286,3178.0514 286,3197.5317 C286,3197.5317 286,3197.5317 286,3642.5317 C286,3665.5193 272.2345,3687.6989 259.0066,3703.7054 " fill="none" id="src.domotix.model.bean.regole.InfoSensoriale&lt;-src.domotix.model.bean.regole.InfoTemporale" style="stroke: #A80036; stroke-width: 1.0; stroke-dasharray: 7.0,7.0;"/><polygon fill="none" points="307.5556,3142.8952,327.6336,3136.122,316.1618,3153.9377,307.5556,3142.8952" style="stroke: #A80036; stroke-width: 1.0;"/><!--MD5=[c5ba7e40b14be205045538f86379b522]
reverse link src.domotix.model.bean.regole.InfoVariabile to src.domotix.model.bean.device.Sensore--><path d="M436.5028,3757.5675 C476.7813,3777.8962 522,3803.0519 522,3813.5317 C522,3813.5317 522,3813.5317 522,3955.5317 C522,3996.4774 651.2616,4024.0081 716.3974,4035.2817 " fill="none" id="src.domotix.model.bean.regole.InfoVariabile&lt;-src.domotix.model.bean.device.Sensore" style="stroke: #A80036; stroke-width: 1.0;"/><polygon fill="#FFFFFF" points="424.7675,3751.7073,428.3483,3757.9665,435.5033,3757.0685,431.9225,3750.8093,424.7675,3751.7073" style="stroke: #A80036; stroke-width: 1.0;"/><text fill="#000000" font-family="sans-serif" font-size="13" lengthAdjust="spacingAndGlyphs" textLength="46" x="523" y="3889.9287">sensore</text><!--MD5=[41acdba9ad2a0c8e507f4268755dc92c]
reverse link src.domotix.model.bean.regole.Regola to src.domotix.model.bean.regole.Antecedente--><path d="M330.014,1445.8311 C340.2587,1460.4083 349,1478.2135 349,1496.5317 C349,1496.5317 349,1496.5317 349,1886.5317 C349,1907.1871 350.1793,1930.6187 351.2572,1947.7222 " fill="none" id="src.domotix.model.bean.regole.Regola&lt;-src.domotix.model.bean.regole.Antecedente" style="stroke: #A80036; stroke-width: 1.0;"/><polygon fill="#FFFFFF" points="322.0066,1435.358,322.4732,1442.554,329.2952,1444.8909,328.8285,1437.6949,322.0066,1435.358" style="stroke: #A80036; stroke-width: 1.0;"/><text fill="#000000" font-family="sans-serif" font-size="13" lengthAdjust="spacingAndGlyphs" textLength="73" x="350" y="1696.9287">antecedente</text><!--MD5=[5d76e9f4e83e4f93d31fa720aef16a98]
reverse link src.domotix.model.bean.regole.Regola to src.domotix.model.bean.regole.Conseguente--><path d="M251.0406,1420.5994 C189.9679,1434.4174 91,1462.1185 91,1496.5317 C91,1496.5317 91,1496.5317 91,1886.5317 C91,1907.1702 90.4104,1930.6032 89.8714,1947.7116 " fill="none" id="src.domotix.model.bean.regole.Regola&lt;-src.domotix.model.bean.regole.Conseguente" style="stroke: #A80036; stroke-width: 1.0;"/><polygon fill="#FFFFFF" points="263.8182,1417.7847,257.0982,1415.1691,252.0992,1420.3663,258.8192,1422.9818,263.8182,1417.7847" style="stroke: #A80036; stroke-width: 1.0;"/><text fill="#000000" font-family="sans-serif" font-size="13" lengthAdjust="spacingAndGlyphs" textLength="76" x="92" y="1696.9287">conseguente</text><!--MD5=[8fd56f3a7602873362b2fb56cf6226f8]
reverse link src.domotix.model.bean.regole.Regola to src.domotix.model.bean.regole.StatoRegola--><path d="M265.986,1445.8311 C255.7413,1460.4083 247,1478.2135 247,1496.5317 C247,1496.5317 247,1496.5317 247,1886.5317 C247,1907.8738 239.7353,1931.0517 233.0381,1947.8845 " fill="none" id="src.domotix.model.bean.regole.Regola&lt;-src.domotix.model.bean.regole.StatoRegola" style="stroke: #A80036; stroke-width: 1.0;"/><polygon fill="#FFFFFF" points="273.9934,1435.358,267.1715,1437.6949,266.7048,1444.8909,273.5268,1442.554,273.9934,1435.358" style="stroke: #A80036; stroke-width: 1.0;"/><text fill="#000000" font-family="sans-serif" font-size="13" lengthAdjust="spacingAndGlyphs" textLength="28" x="248" y="1696.9287">stato</text><!--MD5=[025224cdcd97fb77ee26a7dc2a070511]
@startuml

title __DOMOTIX > MODEL > BEAN's Class Diagram__\n

namespace src.domotix.model {
    namespace util {
    }

    namespace bean {
        class src.domotix.model.bean.UnitaImmobiliare {
        }

        namespace device {
            class src.domotix.model.bean.device.Attuatore {
            }

            class src.domotix.model.bean.device.CategoriaAttuatore {
            }

            class src.domotix.model.bean.device.CategoriaSensore {
            }

            abstract class src.domotix.model.bean.device.Dispositivo {
            }

            class src.domotix.model.bean.device.Modalita {
            }

            class src.domotix.model.bean.device.Parametro {
            }

            class src.domotix.model.bean.device.Sensore {
            }

            class src.domotix.model.bean.device.InfoRilevabile {
            }

            class src.domotix.model.bean.device.SensoreOrologio {
            }
        }

        namespace system {
            class src.domotix.model.bean.system.Artefatto {
              }

              interface src.domotix.model.bean.system.Azionabile {
              }

              interface src.domotix.model.bean.system.Osservabile {
              }

              abstract class src.domotix.model.bean.system.Sistema {
              }

              class src.domotix.model.bean.system.Stanza {
              }
        }

        namespace regole {
            class src.domotix.model.bean.regole.Regola {
            }

            enum src.domotix.model.bean.regole.StatoRegola {
            }

            class src.domotix.model.bean.regole.Antecedente {
            }

            class src.domotix.model.bean.regole.Condizione {
            }

            interface src.domotix.model.bean.regole.InfoSensoriale {
            }

            class src.domotix.model.bean.regole.InfoCostante {
            }

            class src.domotix.model.bean.regole.InfoTemporale {
            }

            class src.domotix.model.bean.regole.InfoVariabile {
            }

            class src.domotix.model.bean.regole.Conseguente {
            }

            class src.domotix.model.bean.regole.Azione {
            }
        }
    }
}

src.domotix.model.bean.device.Attuatore -up-|> src.domotix.model.bean.device.Dispositivo
src.domotix.model.bean.device.Attuatore "*" o- - "1" src.domotix.model.bean.device.CategoriaAttuatore : categoria
src.domotix.model.bean.device.Attuatore "*" o- - "1" src.domotix.model.bean.device.Modalita : modoOp
src.domotix.model.bean.device.CategoriaAttuatore "*" o- - "1" src.domotix.model.bean.device.Modalita : modalita
src.domotix.model.bean.device.Modalita "*" o- - "1" src.domotix.model.bean.device.Parametro : parametro
src.domotix.model.bean.device.Sensore -up-|> src.domotix.model.bean.device.Dispositivo
src.domotix.model.bean.device.Sensore "*" o- - "1" src.domotix.model.bean.device.CategoriaSensore : categoria
src.domotix.model.bean.device.CategoriaSensore "*" o- - "1" src.domotix.model.bean.device.InfoRilevabile : informazione rilevabile
src.domotix.model.bean.device.SensoreOrologio -up-|> src.domotix.model.bean.device.Sensore

src.domotix.model.bean.system.Artefatto -up-|> src.domotix.model.bean.system.Sistema
src.domotix.model.bean.system.Sistema .up.|> src.domotix.model.bean.system.Azionabile
src.domotix.model.bean.system.Sistema .up.|> src.domotix.model.bean.system.Osservabile
src.domotix.model.bean.system.Sistema "1" o- - "1" src.domotix.model.util.ElencoDispositivi : attuatori
src.domotix.model.bean.system.Sistema "1" o- - "1" src.domotix.model.util.ElencoDispositivi : sensori
src.domotix.model.bean.system.Stanza -up-|> src.domotix.model.bean.system.Sistema
src.domotix.model.bean.system.Stanza "1" o- - "*" src.domotix.model.bean.system.Artefatto : artefatti
src.domotix.model.bean.UnitaImmobiliare "*" o- - "1" src.domotix.model.bean.system.Stanza : stanze
src.domotix.model.bean.UnitaImmobiliare "*" o- - "1" src.domotix.model.bean.regole.Regola : regole

src.domotix.model.bean.regole.Antecedente o- - src.domotix.model.bean.regole.Condizione : condizione
src.domotix.model.bean.regole.Antecedente o- - src.domotix.model.bean.regole.Antecedente : prossimoAntecedente
src.domotix.model.bean.regole.Azione o- - src.domotix.model.bean.device.Attuatore : attuatore
src.domotix.model.bean.regole.Azione o- - src.domotix.model.bean.device.Modalita : modalita
src.domotix.model.bean.regole.Condizione o- - src.domotix.model.bean.regole.InfoSensoriale : destra
src.domotix.model.bean.regole.Condizione o- - src.domotix.model.bean.regole.InfoSensoriale : sinistra
src.domotix.model.bean.regole.InfoCostante .up.|> src.domotix.model.bean.regole.InfoSensoriale
src.domotix.model.bean.regole.InfoVariabile .up.|> src.domotix.model.bean.regole.InfoSensoriale
src.domotix.model.bean.regole.InfoTemporale .up.|> src.domotix.model.bean.regole.InfoSensoriale
src.domotix.model.bean.regole.InfoVariabile o- - src.domotix.model.bean.device.Sensore : sensore
src.domotix.model.bean.regole.Regola o- - src.domotix.model.bean.regole.Antecedente : antecedente
src.domotix.model.bean.regole.Regola o- - src.domotix.model.bean.regole.Conseguente : conseguente
src.domotix.model.bean.regole.Regola o- - src.domotix.model.bean.regole.StatoRegola : stato

@enduml

PlantUML version 1.2019.11(Sun Sep 22 12:02:15 CEST 2019)
(GPL source distribution)
Java Runtime: OpenJDK Runtime Environment
JVM: OpenJDK 64-Bit Server VM
Java Version: 11.0.3+12-b304.10
Operating System: Linux
Default Encoding: UTF-8
Language: it
Country: IT
--></g></svg>