<?xml version="1.0" encoding="UTF-8" standalone="no"?><svg xmlns="http://www.w3.org/2000/svg" xmlns:xlink="http://www.w3.org/1999/xlink" contentScriptType="application/ecmascript" contentStyleType="text/css" height="1667px" preserveAspectRatio="none" style="width:1332px;height:1667px;" version="1.1" viewBox="0 0 1332 1667" width="1332px" zoomAndPan="magnify"><defs><filter height="300%" id="fibhy3e5tq51h" width="300%" x="-1" y="-1"><feGaussianBlur result="blurOut" stdDeviation="2.0"/><feColorMatrix in="blurOut" result="blurOut2" type="matrix" values="0 0 0 0 0 0 0 0 0 0 0 0 0 0 0 0 0 0 .4 0"/><feOffset dx="4.0" dy="4.0" in="blurOut2" result="blurOut3"/><feBlend in="SourceGraphic" in2="blurOut3" mode="normal"/></filter></defs><g><text fill="#000000" font-family="sans-serif" font-size="18" lengthAdjust="spacingAndGlyphs" text-decoration="underline" textLength="333" x="501.5" y="19.2419">DOMOTIX &gt; MODEL &gt; IO's Class Diagram</text><text fill="#000000" font-family="sans-serif" font-size="18" lengthAdjust="spacingAndGlyphs" textLength="0" x="670" y="43.7577"/><!--MD5=[0a790ac5fdecc1ec79658b6b98c9068e]
cluster src.domotix.model--><polygon fill="#FFFFFF" filter="url(#fibhy3e5tq51h)" points="14,65.0317,141,65.0317,148,90.0996,1310,90.0996,1310,1655.0317,14,1655.0317,14,65.0317" style="stroke: #000000; stroke-width: 1.5;"/><line style="stroke: #000000; stroke-width: 1.5;" x1="14" x2="148" y1="90.0996" y2="90.0996"/><text fill="#000000" font-family="sans-serif" font-size="14" font-weight="bold" lengthAdjust="spacingAndGlyphs" textLength="121" x="18" y="81.9976">src.domotix.model</text><!--MD5=[f07117731684c6860360b82cb7260692]
cluster src.domotix.model.util--><polygon fill="#FFFFFF" filter="url(#fibhy3e5tq51h)" points="1212,1035.0317,1241,1035.0317,1248,1060.0996,1302,1060.0996,1302,1121.0317,1212,1121.0317,1212,1035.0317" style="stroke: #000000; stroke-width: 1.5;"/><line style="stroke: #000000; stroke-width: 1.5;" x1="1212" x2="1248" y1="1060.0996" y2="1060.0996"/><text fill="#000000" font-family="sans-serif" font-size="14" font-weight="bold" lengthAdjust="spacingAndGlyphs" textLength="23" x="1216" y="1051.9976">util</text><!--MD5=[0e0938f83e9bbe27eae79b87f83bd155]
cluster src.domotix.controller.io--><polygon fill="#FFFFFF" filter="url(#fibhy3e5tq51h)" points="22,95.0317,40,95.0317,47,120.0996,1204,120.0996,1204,1647.0317,22,1647.0317,22,95.0317" style="stroke: #000000; stroke-width: 1.5;"/><line style="stroke: #000000; stroke-width: 1.5;" x1="22" x2="47" y1="120.0996" y2="120.0996"/><text fill="#000000" font-family="sans-serif" font-size="14" font-weight="bold" lengthAdjust="spacingAndGlyphs" textLength="12" x="26" y="111.9976">io</text><!--MD5=[b3b98c39e50125fa9b02f9c479450a88]
cluster src.domotix.controller.io.datilocali--><polygon fill="#FFFFFF" filter="url(#fibhy3e5tq51h)" points="437,125.0317,504,125.0317,511,150.0996,1196,150.0996,1196,1632.0317,437,1632.0317,437,125.0317" style="stroke: #000000; stroke-width: 1.5;"/><line style="stroke: #000000; stroke-width: 1.5;" x1="437" x2="511" y1="150.0996" y2="150.0996"/><text fill="#000000" font-family="sans-serif" font-size="14" font-weight="bold" lengthAdjust="spacingAndGlyphs" textLength="61" x="441" y="141.9976">datilocali</text><!--MD5=[ad67a99d7a5cdfc63d38a667f47c3406]
class src.domotix.model.util.Costanti--><rect fill="#FEFECE" filter="url(#fibhy3e5tq51h)" height="48" id="src.domotix.model.util.Costanti" style="stroke: #A80036; stroke-width: 1.5;" width="75" x="1219.5" y="1065.0317"/><ellipse cx="1234.5" cy="1081.0317" fill="#ADD1B2" rx="11" ry="11" style="stroke: #A80036; stroke-width: 1.0;"/><path d="M1234.4688,1087.2036 Q1232.7188,1087.2036 1231.5781,1086.4692 Q1230.4531,1085.7192 1229.8906,1084.3754 Q1229.3438,1083.0161 1229.3438,1081.2192 Q1229.3438,1079.1879 1230,1077.7348 Q1230.6563,1076.2817 1231.9375,1075.5004 Q1233.2188,1074.7192 1235.0938,1074.7192 Q1235.9844,1074.7192 1236.6563,1074.9067 Q1237.3281,1075.0786 1238.0156,1075.4223 L1237.2031,1077.4379 Q1236.5781,1077.1254 1236.0313,1077.0004 Q1235.5,1076.8754 1235.0156,1076.8754 Q1233.8438,1076.8754 1233.1406,1077.4067 Q1232.4375,1077.9379 1232.1406,1078.8911 Q1231.8438,1079.8442 1231.8438,1081.1098 Q1231.8438,1083.1254 1232.5625,1084.0942 Q1233.2813,1085.0473 1234.875,1085.0473 Q1235.4688,1085.0473 1236.0938,1084.8911 Q1236.7188,1084.7348 1237.5469,1084.3598 L1237.5469,1086.5786 Q1236.8125,1086.8911 1236.0156,1087.0473 Q1235.2344,1087.2036 1234.4688,1087.2036 Z "/><text fill="#000000" font-family="sans-serif" font-size="12" lengthAdjust="spacingAndGlyphs" textLength="43" x="1248.5" y="1085.6877">Costanti</text><line style="stroke: #A80036; stroke-width: 1.5;" x1="1220.5" x2="1293.5" y1="1097.0317" y2="1097.0317"/><line style="stroke: #A80036; stroke-width: 1.5;" x1="1220.5" x2="1293.5" y1="1105.0317" y2="1105.0317"/><!--MD5=[d084a961775bfe2114d151dc3a855707]
class src.domotix.controller.io.LetturaDatiSalvati--><rect fill="#FEFECE" filter="url(#fibhy3e5tq51h)" height="77.9638" id="src.domotix.controller.io.LetturaDatiSalvati" style="stroke: #A80036; stroke-width: 1.5;" width="165" x="263.5" y="1236.0317"/><ellipse cx="300.55" cy="1252.0317" fill="#B4A7E5" rx="11" ry="11" style="stroke: #A80036; stroke-width: 1.0;"/><path d="M296.5813,1258.0317 L296.5813,1256.3286 L298.9406,1256.0629 L298.9406,1247.8598 L296.5813,1247.5942 L296.5813,1245.8911 L303.7219,1245.8911 L303.7219,1247.5942 L301.3,1247.8598 L301.3,1256.0629 L303.7219,1256.3286 L303.7219,1258.0317 L296.5813,1258.0317 Z "/><text fill="#000000" font-family="sans-serif" font-size="12" font-style="italic" lengthAdjust="spacingAndGlyphs" textLength="84" x="319.45" y="1256.6877">LetturaDatiSalvati</text><line style="stroke: #A80036; stroke-width: 1.5;" x1="264.5" x2="427.5" y1="1268.0317" y2="1268.0317"/><line style="stroke: #A80036; stroke-width: 1.5;" x1="264.5" x2="427.5" y1="1276.0317" y2="1276.0317"/><ellipse cx="274.5" cy="1287.0317" fill="#84BE84" rx="3" ry="3" style="stroke: #038048; stroke-width: 1.0;"/><text fill="#000000" font-family="sans-serif" font-size="11" font-style="italic" lengthAdjust="spacingAndGlyphs" textLength="139" x="283.5" y="1291.7906">getNomiInformazioniRilevabili()</text><ellipse cx="274.5" cy="1302.0136" fill="#84BE84" rx="3" ry="3" style="stroke: #038048; stroke-width: 1.0;"/><text fill="#000000" font-family="sans-serif" font-size="11" font-style="italic" lengthAdjust="spacingAndGlyphs" textLength="86" x="283.5" y="1306.7725">leggiInfoRilevabile()</text><!--MD5=[492e264704659ecf5a7eed6cb7a6d774]
class src.domotix.controller.io.LetturaDatiSalvatiAdapter--><rect fill="#FEFECE" filter="url(#fibhy3e5tq51h)" height="77.9638" id="src.domotix.controller.io.LetturaDatiSalvatiAdapter" style="stroke: #A80036; stroke-width: 1.5;" width="171" x="246.5" y="1561.0317"/><ellipse cx="270.05" cy="1577.0317" fill="#A9DCDF" rx="11" ry="11" style="stroke: #A80036; stroke-width: 1.0;"/><path d="M265.2219,1582.2817 L268.5656,1570.0942 L271.7063,1570.0942 L275.0813,1582.2817 L272.6125,1582.2817 L271.8781,1579.2661 L268.3625,1579.2661 L267.6125,1582.2817 L265.2219,1582.2817 Z M269.6281,1574.2348 L268.8781,1577.2348 L271.3938,1577.2348 L270.675,1574.2348 Q270.5344,1573.6567 270.4094,1573.1098 Q270.2844,1572.5473 270.1438,1571.9692 Q270.0344,1572.5473 269.8938,1573.1098 Q269.7531,1573.6567 269.6281,1574.2348 Z "/><text fill="#000000" font-family="sans-serif" font-size="12" font-style="italic" lengthAdjust="spacingAndGlyphs" textLength="120" x="285.95" y="1581.6877">LetturaDatiSalvatiAdapter</text><line style="stroke: #A80036; stroke-width: 1.5;" x1="247.5" x2="416.5" y1="1593.0317" y2="1593.0317"/><line style="stroke: #A80036; stroke-width: 1.5;" x1="247.5" x2="416.5" y1="1601.0317" y2="1601.0317"/><ellipse cx="257.5" cy="1612.0317" fill="#84BE84" rx="3" ry="3" style="stroke: #038048; stroke-width: 1.0;"/><text fill="#000000" font-family="sans-serif" font-size="11" lengthAdjust="spacingAndGlyphs" textLength="145" x="266.5" y="1616.7906">getNomiInformazioniRilevabili()</text><ellipse cx="257.5" cy="1627.0136" fill="#84BE84" rx="3" ry="3" style="stroke: #038048; stroke-width: 1.0;"/><text fill="#000000" font-family="sans-serif" font-size="11" lengthAdjust="spacingAndGlyphs" textLength="89" x="266.5" y="1631.7725">leggiInfoRilevabile()</text><!--MD5=[415aac25e8dc6b4aeedfb49a1cffb41b]
class src.domotix.controller.io.RimozioneDatiSalvati--><rect fill="#FEFECE" filter="url(#fibhy3e5tq51h)" height="77.9638" id="src.domotix.controller.io.RimozioneDatiSalvati" style="stroke: #A80036; stroke-width: 1.5;" width="139" x="74.5" y="495.0317"/><ellipse cx="91.75" cy="511.0317" fill="#B4A7E5" rx="11" ry="11" style="stroke: #A80036; stroke-width: 1.0;"/><path d="M87.7813,517.0317 L87.7813,515.3286 L90.1406,515.0629 L90.1406,506.8598 L87.7813,506.5942 L87.7813,504.8911 L94.9219,504.8911 L94.9219,506.5942 L92.5,506.8598 L92.5,515.0629 L94.9219,515.3286 L94.9219,517.0317 L87.7813,517.0317 Z "/><text fill="#000000" font-family="sans-serif" font-size="12" font-style="italic" lengthAdjust="spacingAndGlyphs" textLength="102" x="106.25" y="515.6877">RimozioneDatiSalvati</text><line style="stroke: #A80036; stroke-width: 1.5;" x1="75.5" x2="212.5" y1="527.0317" y2="527.0317"/><line style="stroke: #A80036; stroke-width: 1.5;" x1="75.5" x2="212.5" y1="535.0317" y2="535.0317"/><ellipse cx="85.5" cy="546.0317" fill="#84BE84" rx="3" ry="3" style="stroke: #038048; stroke-width: 1.0;"/><text fill="#000000" font-family="sans-serif" font-size="11" font-style="italic" lengthAdjust="spacingAndGlyphs" textLength="99" x="94.5" y="550.7906">rimuoviInfoRilevabile()</text><ellipse cx="85.5" cy="561.0136" fill="#84BE84" rx="3" ry="3" style="stroke: #038048; stroke-width: 1.0;"/><text fill="#000000" font-family="sans-serif" font-size="11" font-style="italic" lengthAdjust="spacingAndGlyphs" textLength="113" x="94.5" y="565.7725">sincronizzaInfoRilevabile()</text><!--MD5=[f1e8cc9efc36320e9bd6761a86c64951]
class src.domotix.controller.io.RimozioneDatiSalvatiAdapter--><rect fill="#FEFECE" filter="url(#fibhy3e5tq51h)" height="77.9638" id="src.domotix.controller.io.RimozioneDatiSalvatiAdapter" style="stroke: #A80036; stroke-width: 1.5;" width="184" x="30" y="838.0317"/><ellipse cx="45" cy="854.0317" fill="#ADD1B2" rx="11" ry="11" style="stroke: #A80036; stroke-width: 1.0;"/><path d="M44.9688,860.2036 Q43.2188,860.2036 42.0781,859.4692 Q40.9531,858.7192 40.3906,857.3754 Q39.8438,856.0161 39.8438,854.2192 Q39.8438,852.1879 40.5,850.7348 Q41.1563,849.2817 42.4375,848.5004 Q43.7188,847.7192 45.5938,847.7192 Q46.4844,847.7192 47.1563,847.9067 Q47.8281,848.0786 48.5156,848.4223 L47.7031,850.4379 Q47.0781,850.1254 46.5313,850.0004 Q46,849.8754 45.5156,849.8754 Q44.3438,849.8754 43.6406,850.4067 Q42.9375,850.9379 42.6406,851.8911 Q42.3438,852.8442 42.3438,854.1098 Q42.3438,856.1254 43.0625,857.0942 Q43.7813,858.0473 45.375,858.0473 Q45.9688,858.0473 46.5938,857.8911 Q47.2188,857.7348 48.0469,857.3598 L48.0469,859.5786 Q47.3125,859.8911 46.5156,860.0473 Q45.7344,860.2036 44.9688,860.2036 Z "/><text fill="#000000" font-family="sans-serif" font-size="12" lengthAdjust="spacingAndGlyphs" textLength="152" x="59" y="858.6877">RimozioneDatiSalvatiAdapter</text><line style="stroke: #A80036; stroke-width: 1.5;" x1="31" x2="213" y1="870.0317" y2="870.0317"/><line style="stroke: #A80036; stroke-width: 1.5;" x1="31" x2="213" y1="878.0317" y2="878.0317"/><ellipse cx="41" cy="889.0317" fill="#84BE84" rx="3" ry="3" style="stroke: #038048; stroke-width: 1.0;"/><text fill="#000000" font-family="sans-serif" font-size="11" lengthAdjust="spacingAndGlyphs" textLength="102" x="50" y="893.7906">rimuoviInfoRilevabile()</text><ellipse cx="41" cy="904.0136" fill="#84BE84" rx="3" ry="3" style="stroke: #038048; stroke-width: 1.0;"/><text fill="#000000" font-family="sans-serif" font-size="11" lengthAdjust="spacingAndGlyphs" textLength="119" x="50" y="908.7725">sincronizzaInfoRilevabile()</text><!--MD5=[952dd37d8f2ecdc17c68bbd86891d4af]
class src.domotix.controller.io.ScritturaDatiSalvati--><rect fill="#FEFECE" filter="url(#fibhy3e5tq51h)" height="62.9819" id="src.domotix.controller.io.ScritturaDatiSalvati" style="stroke: #A80036; stroke-width: 1.5;" width="124" x="104" y="1243.5317"/><ellipse cx="119" cy="1259.5317" fill="#B4A7E5" rx="11" ry="11" style="stroke: #A80036; stroke-width: 1.0;"/><path d="M115.0313,1265.5317 L115.0313,1263.8286 L117.3906,1263.5629 L117.3906,1255.3598 L115.0313,1255.0942 L115.0313,1253.3911 L122.1719,1253.3911 L122.1719,1255.0942 L119.75,1255.3598 L119.75,1263.5629 L122.1719,1263.8286 L122.1719,1265.5317 L115.0313,1265.5317 Z "/><text fill="#000000" font-family="sans-serif" font-size="12" font-style="italic" lengthAdjust="spacingAndGlyphs" textLength="92" x="133" y="1264.1877">ScritturaDatiSalvati</text><line style="stroke: #A80036; stroke-width: 1.5;" x1="105" x2="227" y1="1275.5317" y2="1275.5317"/><line style="stroke: #A80036; stroke-width: 1.5;" x1="105" x2="227" y1="1283.5317" y2="1283.5317"/><ellipse cx="115" cy="1294.5317" fill="#84BE84" rx="3" ry="3" style="stroke: #038048; stroke-width: 1.0;"/><text fill="#000000" font-family="sans-serif" font-size="11" font-style="italic" lengthAdjust="spacingAndGlyphs" textLength="29" x="124" y="1299.2906">salva()</text><!--MD5=[3e79194b14d23c99114aa2a59c965e35]
class src.domotix.controller.io.ScritturaDatiSalvatiAdapter--><rect fill="#FEFECE" filter="url(#fibhy3e5tq51h)" height="62.9819" id="src.domotix.controller.io.ScritturaDatiSalvatiAdapter" style="stroke: #A80036; stroke-width: 1.5;" width="171" x="30.5" y="1568.5317"/><ellipse cx="45.5" cy="1584.5317" fill="#ADD1B2" rx="11" ry="11" style="stroke: #A80036; stroke-width: 1.0;"/><path d="M45.4688,1590.7036 Q43.7188,1590.7036 42.5781,1589.9692 Q41.4531,1589.2192 40.8906,1587.8754 Q40.3438,1586.5161 40.3438,1584.7192 Q40.3438,1582.6879 41,1581.2348 Q41.6563,1579.7817 42.9375,1579.0004 Q44.2188,1578.2192 46.0938,1578.2192 Q46.9844,1578.2192 47.6563,1578.4067 Q48.3281,1578.5786 49.0156,1578.9223 L48.2031,1580.9379 Q47.5781,1580.6254 47.0313,1580.5004 Q46.5,1580.3754 46.0156,1580.3754 Q44.8438,1580.3754 44.1406,1580.9067 Q43.4375,1581.4379 43.1406,1582.3911 Q42.8438,1583.3442 42.8438,1584.6098 Q42.8438,1586.6254 43.5625,1587.5942 Q44.2813,1588.5473 45.875,1588.5473 Q46.4688,1588.5473 47.0938,1588.3911 Q47.7188,1588.2348 48.5469,1587.8598 L48.5469,1590.0786 Q47.8125,1590.3911 47.0156,1590.5473 Q46.2344,1590.7036 45.4688,1590.7036 Z "/><text fill="#000000" font-family="sans-serif" font-size="12" lengthAdjust="spacingAndGlyphs" textLength="139" x="59.5" y="1589.1877">ScritturaDatiSalvatiAdapter</text><line style="stroke: #A80036; stroke-width: 1.5;" x1="31.5" x2="200.5" y1="1600.5317" y2="1600.5317"/><line style="stroke: #A80036; stroke-width: 1.5;" x1="31.5" x2="200.5" y1="1608.5317" y2="1608.5317"/><ellipse cx="41.5" cy="1619.5317" fill="#84BE84" rx="3" ry="3" style="stroke: #038048; stroke-width: 1.0;"/><text fill="#000000" font-family="sans-serif" font-size="11" lengthAdjust="spacingAndGlyphs" textLength="30" x="50.5" y="1624.2906">salva()</text><!--MD5=[7cb92b89c4da1800bdb46c58989a247c]
class src.domotix.controller.io.datilocali.LettoriXML--><rect fill="#FEFECE" filter="url(#fibhy3e5tq51h)" height="77.9638" id="src.domotix.controller.io.datilocali.LettoriXML" style="stroke: #A80036; stroke-width: 1.5;" width="147" x="799.5" y="838.0317"/><ellipse cx="840.6" cy="854.0317" fill="#EB937F" rx="11" ry="11" style="stroke: #A80036; stroke-width: 1.0;"/><path d="M836.9594,860.0317 L836.9594,847.8911 L844.6156,847.8911 L844.6156,850.0161 L839.3344,850.0161 L839.3344,852.6723 L844.35,852.6723 L844.35,854.7973 L839.3344,854.7973 L839.3344,857.9067 L844.6156,857.9067 L844.6156,860.0317 L836.9594,860.0317 Z "/><text fill="#000000" font-family="sans-serif" font-size="12" lengthAdjust="spacingAndGlyphs" textLength="57" x="860.4" y="858.6877">LettoriXML</text><line style="stroke: #A80036; stroke-width: 1.5;" x1="800.5" x2="945.5" y1="870.0317" y2="870.0317"/><text fill="#000000" font-family="sans-serif" font-size="11" lengthAdjust="spacingAndGlyphs" textLength="118" x="805.5" y="885.7906">PARAMETRO_MODALITA</text><text fill="#000000" font-family="sans-serif" font-size="11" lengthAdjust="spacingAndGlyphs" textLength="135" x="805.5" y="900.7725">INFORMAZIONE_RILEVABILE</text><line style="stroke: #A80036; stroke-width: 1.5;" x1="800.5" x2="945.5" y1="907.9955" y2="907.9955"/><!--MD5=[569170b181b16d088a52c3646d3acbed]
class src.domotix.controller.io.datilocali.LettoriXML.IstanziatoreXML--><rect fill="#FEFECE" filter="url(#fibhy3e5tq51h)" height="48" id="src.domotix.controller.io.datilocali.LettoriXML.IstanziatoreXML" style="stroke: #A80036; stroke-width: 1.5;" width="161" x="772.5" y="1576.0317"/><ellipse cx="787.5" cy="1592.0317" fill="#B4A7E5" rx="11" ry="11" style="stroke: #A80036; stroke-width: 1.0;"/><path d="M783.5313,1598.0317 L783.5313,1596.3286 L785.8906,1596.0629 L785.8906,1587.8598 L783.5313,1587.5942 L783.5313,1585.8911 L790.6719,1585.8911 L790.6719,1587.5942 L788.25,1587.8598 L788.25,1596.0629 L790.6719,1596.3286 L790.6719,1598.0317 L783.5313,1598.0317 Z "/><text fill="#000000" font-family="sans-serif" font-size="12" font-style="italic" lengthAdjust="spacingAndGlyphs" textLength="129" x="801.5" y="1596.6877">LettoriXML.IstanziatoreXML</text><line style="stroke: #A80036; stroke-width: 1.5;" x1="773.5" x2="932.5" y1="1608.0317" y2="1608.0317"/><line style="stroke: #A80036; stroke-width: 1.5;" x1="773.5" x2="932.5" y1="1616.0317" y2="1616.0317"/><!--MD5=[5521be3ddad16e555c2255b635a48428]
class src.domotix.controller.io.datilocali.LetturaDatiLocali--><rect fill="#FEFECE" filter="url(#fibhy3e5tq51h)" height="77.9638" id="src.domotix.controller.io.datilocali.LetturaDatiLocali" style="stroke: #A80036; stroke-width: 1.5;" width="171" x="787.5" y="162.5317"/><ellipse cx="825.45" cy="178.5317" fill="#ADD1B2" rx="11" ry="11" style="stroke: #A80036; stroke-width: 1.0;"/><path d="M825.4188,184.7036 Q823.6688,184.7036 822.5281,183.9692 Q821.4031,183.2192 820.8406,181.8754 Q820.2938,180.5161 820.2938,178.7192 Q820.2938,176.6879 820.95,175.2348 Q821.6063,173.7817 822.8875,173.0004 Q824.1688,172.2192 826.0438,172.2192 Q826.9344,172.2192 827.6063,172.4067 Q828.2781,172.5786 828.9656,172.9223 L828.1531,174.9379 Q827.5281,174.6254 826.9813,174.5004 Q826.45,174.3754 825.9656,174.3754 Q824.7938,174.3754 824.0906,174.9067 Q823.3875,175.4379 823.0906,176.3911 Q822.7938,177.3442 822.7938,178.6098 Q822.7938,180.6254 823.5125,181.5942 Q824.2313,182.5473 825.825,182.5473 Q826.4188,182.5473 827.0438,182.3911 Q827.6688,182.2348 828.4969,181.8598 L828.4969,184.0786 Q827.7625,184.3911 826.9656,184.5473 Q826.1844,184.7036 825.4188,184.7036 Z "/><text fill="#000000" font-family="sans-serif" font-size="12" lengthAdjust="spacingAndGlyphs" textLength="88" x="844.55" y="183.1877">LetturaDatiLocali</text><line style="stroke: #A80036; stroke-width: 1.5;" x1="788.5" x2="957.5" y1="194.5317" y2="194.5317"/><line style="stroke: #A80036; stroke-width: 1.5;" x1="788.5" x2="957.5" y1="202.5317" y2="202.5317"/><ellipse cx="798.5" cy="213.5317" fill="#84BE84" rx="3" ry="3" style="stroke: #038048; stroke-width: 1.0;"/><text fill="#000000" font-family="sans-serif" font-size="11" lengthAdjust="spacingAndGlyphs" textLength="145" x="807.5" y="218.2906">getNomiInformazioniRilevabili()</text><ellipse cx="798.5" cy="228.5136" fill="#84BE84" rx="3" ry="3" style="stroke: #038048; stroke-width: 1.0;"/><text fill="#000000" font-family="sans-serif" font-size="11" lengthAdjust="spacingAndGlyphs" textLength="89" x="807.5" y="233.2725">leggiInfoRilevabile()</text><!--MD5=[4120e6f3832d8bd1d3ba6b281ebe2af5]
class src.domotix.controller.io.datilocali.PercorsiFile--><rect fill="#FEFECE" filter="url(#fibhy3e5tq51h)" height="92.9457" id="src.domotix.controller.io.datilocali.PercorsiFile" style="stroke: #A80036; stroke-width: 1.5;" width="195" x="993.5" y="155.0317"/><ellipse cx="1057.25" cy="171.0317" fill="#ADD1B2" rx="11" ry="11" style="stroke: #A80036; stroke-width: 1.0;"/><path d="M1057.2188,177.2036 Q1055.4688,177.2036 1054.3281,176.4692 Q1053.2031,175.7192 1052.6406,174.3754 Q1052.0938,173.0161 1052.0938,171.2192 Q1052.0938,169.1879 1052.75,167.7348 Q1053.4063,166.2817 1054.6875,165.5004 Q1055.9688,164.7192 1057.8438,164.7192 Q1058.7344,164.7192 1059.4063,164.9067 Q1060.0781,165.0786 1060.7656,165.4223 L1059.9531,167.4379 Q1059.3281,167.1254 1058.7813,167.0004 Q1058.25,166.8754 1057.7656,166.8754 Q1056.5938,166.8754 1055.8906,167.4067 Q1055.1875,167.9379 1054.8906,168.8911 Q1054.5938,169.8442 1054.5938,171.1098 Q1054.5938,173.1254 1055.3125,174.0942 Q1056.0313,175.0473 1057.625,175.0473 Q1058.2188,175.0473 1058.8438,174.8911 Q1059.4688,174.7348 1060.2969,174.3598 L1060.2969,176.5786 Q1059.5625,176.8911 1058.7656,177.0473 Q1057.9844,177.2036 1057.2188,177.2036 Z "/><text fill="#000000" font-family="sans-serif" font-size="12" lengthAdjust="spacingAndGlyphs" textLength="59" x="1077.75" y="175.6877">PercorsiFile</text><line style="stroke: #A80036; stroke-width: 1.5;" x1="994.5" x2="1187.5" y1="187.0317" y2="187.0317"/><line style="stroke: #A80036; stroke-width: 1.5;" x1="994.5" x2="1187.5" y1="195.0317" y2="195.0317"/><ellipse cx="1004.5" cy="206.0317" fill="#84BE84" rx="3" ry="3" style="stroke: #038048; stroke-width: 1.0;"/><text fill="#000000" font-family="sans-serif" font-size="11" lengthAdjust="spacingAndGlyphs" textLength="162" x="1013.5" y="210.7906">getCartellaInformazioneRilevabile()</text><ellipse cx="1004.5" cy="221.0136" fill="#84BE84" rx="3" ry="3" style="stroke: #038048; stroke-width: 1.0;"/><text fill="#000000" font-family="sans-serif" font-size="11" lengthAdjust="spacingAndGlyphs" textLength="145" x="1013.5" y="225.7725">getNomiInformazioniRilevabili()</text><ellipse cx="1004.5" cy="235.9955" fill="#84BE84" rx="3" ry="3" style="stroke: #038048; stroke-width: 1.0;"/><text fill="#000000" font-family="sans-serif" font-size="11" lengthAdjust="spacingAndGlyphs" textLength="169" x="1013.5" y="240.7544">getPercorsoInformazioneRilevabile()</text><!--MD5=[05c3508e760620c3531814317eb30249]
class src.domotix.controller.io.datilocali.RimozioneDatiLocali--><rect fill="#FEFECE" filter="url(#fibhy3e5tq51h)" height="77.9638" id="src.domotix.controller.io.datilocali.RimozioneDatiLocali" style="stroke: #A80036; stroke-width: 1.5;" width="145" x="445.5" y="162.5317"/><ellipse cx="463.2" cy="178.5317" fill="#ADD1B2" rx="11" ry="11" style="stroke: #A80036; stroke-width: 1.0;"/><path d="M463.1688,184.7036 Q461.4188,184.7036 460.2781,183.9692 Q459.1531,183.2192 458.5906,181.8754 Q458.0438,180.5161 458.0438,178.7192 Q458.0438,176.6879 458.7,175.2348 Q459.3563,173.7817 460.6375,173.0004 Q461.9188,172.2192 463.7938,172.2192 Q464.6844,172.2192 465.3563,172.4067 Q466.0281,172.5786 466.7156,172.9223 L465.9031,174.9379 Q465.2781,174.6254 464.7313,174.5004 Q464.2,174.3754 463.7156,174.3754 Q462.5438,174.3754 461.8406,174.9067 Q461.1375,175.4379 460.8406,176.3911 Q460.5438,177.3442 460.5438,178.6098 Q460.5438,180.6254 461.2625,181.5942 Q461.9813,182.5473 463.575,182.5473 Q464.1688,182.5473 464.7938,182.3911 Q465.4188,182.2348 466.2469,181.8598 L466.2469,184.0786 Q465.5125,184.3911 464.7156,184.5473 Q463.9344,184.7036 463.1688,184.7036 Z "/><text fill="#000000" font-family="sans-serif" font-size="12" lengthAdjust="spacingAndGlyphs" textLength="107" x="477.8" y="183.1877">RimozioneDatiLocali</text><line style="stroke: #A80036; stroke-width: 1.5;" x1="446.5" x2="589.5" y1="194.5317" y2="194.5317"/><line style="stroke: #A80036; stroke-width: 1.5;" x1="446.5" x2="589.5" y1="202.5317" y2="202.5317"/><ellipse cx="456.5" cy="213.5317" fill="#84BE84" rx="3" ry="3" style="stroke: #038048; stroke-width: 1.0;"/><text fill="#000000" font-family="sans-serif" font-size="11" lengthAdjust="spacingAndGlyphs" textLength="102" x="465.5" y="218.2906">rimuoviInfoRilevabile()</text><ellipse cx="456.5" cy="228.5136" fill="#84BE84" rx="3" ry="3" style="stroke: #038048; stroke-width: 1.0;"/><text fill="#000000" font-family="sans-serif" font-size="11" lengthAdjust="spacingAndGlyphs" textLength="119" x="465.5" y="233.2725">sincronizzaInfoRilevabile()</text><!--MD5=[d127a817b6a1027acfbc5542c3046cf4]
class src.domotix.controller.io.datilocali.ScrittoriXML--><rect fill="#FEFECE" filter="url(#fibhy3e5tq51h)" height="77.9638" id="src.domotix.controller.io.datilocali.ScrittoriXML" style="stroke: #A80036; stroke-width: 1.5;" width="147" x="566.5" y="838.0317"/><ellipse cx="604.9" cy="854.0317" fill="#EB937F" rx="11" ry="11" style="stroke: #A80036; stroke-width: 1.0;"/><path d="M601.2594,860.0317 L601.2594,847.8911 L608.9156,847.8911 L608.9156,850.0161 L603.6344,850.0161 L603.6344,852.6723 L608.65,852.6723 L608.65,854.7973 L603.6344,854.7973 L603.6344,857.9067 L608.9156,857.9067 L608.9156,860.0317 L601.2594,860.0317 Z "/><text fill="#000000" font-family="sans-serif" font-size="12" lengthAdjust="spacingAndGlyphs" textLength="63" x="624.1" y="858.6877">ScrittoriXML</text><line style="stroke: #A80036; stroke-width: 1.5;" x1="567.5" x2="712.5" y1="870.0317" y2="870.0317"/><text fill="#000000" font-family="sans-serif" font-size="11" lengthAdjust="spacingAndGlyphs" textLength="118" x="572.5" y="885.7906">PARAMETRO_MODALITA</text><text fill="#000000" font-family="sans-serif" font-size="11" lengthAdjust="spacingAndGlyphs" textLength="135" x="572.5" y="900.7725">INFORMAZIONE_RILEVABILE</text><line style="stroke: #A80036; stroke-width: 1.5;" x1="567.5" x2="712.5" y1="907.9955" y2="907.9955"/><!--MD5=[16ec218946a16255a109ec629ca4cd02]
class src.domotix.controller.io.datilocali.ScrittoriXML.CompilatoreXML--><rect fill="#FEFECE" filter="url(#fibhy3e5tq51h)" height="48" id="src.domotix.controller.io.datilocali.ScrittoriXML.CompilatoreXML" style="stroke: #A80036; stroke-width: 1.5;" width="173" x="503.5" y="1576.0317"/><ellipse cx="518.5" cy="1592.0317" fill="#B4A7E5" rx="11" ry="11" style="stroke: #A80036; stroke-width: 1.0;"/><path d="M514.5313,1598.0317 L514.5313,1596.3286 L516.8906,1596.0629 L516.8906,1587.8598 L514.5313,1587.5942 L514.5313,1585.8911 L521.6719,1585.8911 L521.6719,1587.5942 L519.25,1587.8598 L519.25,1596.0629 L521.6719,1596.3286 L521.6719,1598.0317 L514.5313,1598.0317 Z "/><text fill="#000000" font-family="sans-serif" font-size="12" font-style="italic" lengthAdjust="spacingAndGlyphs" textLength="141" x="532.5" y="1596.6877">ScrittoriXML.CompilatoreXML</text><line style="stroke: #A80036; stroke-width: 1.5;" x1="504.5" x2="675.5" y1="1608.0317" y2="1608.0317"/><line style="stroke: #A80036; stroke-width: 1.5;" x1="504.5" x2="675.5" y1="1616.0317" y2="1616.0317"/><!--MD5=[ea2791d413a2bc4f7f9c03a3b28ff5c1]
class src.domotix.controller.io.datilocali.ScritturaDatiLocali--><rect fill="#FEFECE" filter="url(#fibhy3e5tq51h)" height="62.9819" id="src.domotix.controller.io.datilocali.ScritturaDatiLocali" style="stroke: #A80036; stroke-width: 1.5;" width="126" x="626" y="170.0317"/><ellipse cx="641" cy="186.0317" fill="#ADD1B2" rx="11" ry="11" style="stroke: #A80036; stroke-width: 1.0;"/><path d="M640.9688,192.2036 Q639.2188,192.2036 638.0781,191.4692 Q636.9531,190.7192 636.3906,189.3754 Q635.8438,188.0161 635.8438,186.2192 Q635.8438,184.1879 636.5,182.7348 Q637.1563,181.2817 638.4375,180.5004 Q639.7188,179.7192 641.5938,179.7192 Q642.4844,179.7192 643.1563,179.9067 Q643.8281,180.0786 644.5156,180.4223 L643.7031,182.4379 Q643.0781,182.1254 642.5313,182.0004 Q642,181.8754 641.5156,181.8754 Q640.3438,181.8754 639.6406,182.4067 Q638.9375,182.9379 638.6406,183.8911 Q638.3438,184.8442 638.3438,186.1098 Q638.3438,188.1254 639.0625,189.0942 Q639.7813,190.0473 641.375,190.0473 Q641.9688,190.0473 642.5938,189.8911 Q643.2188,189.7348 644.0469,189.3598 L644.0469,191.5786 Q643.3125,191.8911 642.5156,192.0473 Q641.7344,192.2036 640.9688,192.2036 Z "/><text fill="#000000" font-family="sans-serif" font-size="12" lengthAdjust="spacingAndGlyphs" textLength="94" x="655" y="190.6877">ScritturaDatiLocali</text><line style="stroke: #A80036; stroke-width: 1.5;" x1="627" x2="751" y1="202.0317" y2="202.0317"/><line style="stroke: #A80036; stroke-width: 1.5;" x1="627" x2="751" y1="210.0317" y2="210.0317"/><ellipse cx="637" cy="221.0317" fill="#84BE84" rx="3" ry="3" style="stroke: #038048; stroke-width: 1.0;"/><text fill="#000000" font-family="sans-serif" font-size="11" lengthAdjust="spacingAndGlyphs" textLength="30" x="646" y="225.7906">salva()</text><!--MD5=[df2a065fc0ba4807e03bbdbc96e43ead]
reverse link src.domotix.controller.io.LetturaDatiSalvati to src.domotix.controller.io.LetturaDatiSalvatiAdapter--><path d="M340.4888,1334.4368 C339.619,1347.9346 339,1362.2173 339,1375.5317 C339,1375.5317 339,1375.5317 339,1499.5317 C339,1519.8203 337.5627,1542.3573 335.9907,1560.9393 " fill="none" id="src.domotix.controller.io.LetturaDatiSalvati&lt;-src.domotix.controller.io.LetturaDatiSalvatiAdapter" style="stroke: #A80036; stroke-width: 1.0; stroke-dasharray: 7.0,7.0;"/><polygon fill="none" points="333.5358,1333.5458,342.0093,1314.1241,347.4968,1334.5909,333.5358,1333.5458" style="stroke: #A80036; stroke-width: 1.0;"/><!--MD5=[ef6d32a324ba1b47d7f11289a71a469b]
reverse link src.domotix.controller.io.RimozioneDatiSalvati to src.domotix.controller.io.RimozioneDatiSalvatiAdapter--><path d="M135.8703,593.2213 C134.2314,609.4941 133,627.1665 133,643.5317 C133,643.5317 133,643.5317 133,776.5317 C133,796.8922 130.7415,819.4358 128.2712,838.0037 " fill="none" id="src.domotix.controller.io.RimozioneDatiSalvati&lt;-src.domotix.controller.io.RimozioneDatiSalvatiAdapter" style="stroke: #A80036; stroke-width: 1.0; stroke-dasharray: 7.0,7.0;"/><polygon fill="none" points="128.9304,592.2945,138.1457,573.2137,142.8408,593.8766,128.9304,592.2945" style="stroke: #A80036; stroke-width: 1.0;"/><!--MD5=[f9f49fdf40af743590fe76ef3d587f89]
reverse link src.domotix.controller.io.ScritturaDatiSalvati to src.domotix.controller.io.ScritturaDatiSalvatiAdapter--><path d="M122.9849,1322.783 C112.8849,1338.4778 105,1356.7462 105,1375.5317 C105,1375.5317 105,1375.5317 105,1499.5317 C105,1522.7005 107.9246,1548.6963 110.7577,1568.4439 " fill="none" id="src.domotix.controller.io.ScritturaDatiSalvati&lt;-src.domotix.controller.io.ScritturaDatiSalvatiAdapter" style="stroke: #A80036; stroke-width: 1.0; stroke-dasharray: 7.0,7.0;"/><polygon fill="none" points="117.3583,1318.6183,134.7852,1306.5641,128.6791,1326.8549,117.3583,1318.6183" style="stroke: #A80036; stroke-width: 1.0;"/><!--MD5=[249d9c64dfc136e9fabbce150137b114]
reverse link src.domotix.controller.io.LetturaDatiSalvatiAdapter to src.domotix.controller.io.datilocali.LetturaDatiLocali--><path d="M227.3684,1558.2887 C153.6415,1527.2586 68,1487.1967 68,1468.5317 C68,1344.5317 68,1344.5317 68,1344.5317 C68,1295.6504 69.424,1282.0167 86,1236.0317 C106.0591,1180.3838 124.5175,1172.8758 153,1121.0317 C159.1735,1109.7946 254.4248,928.0089 259,916.0317 C276.7714,869.5083 287,857.3338 287,807.5317 C287,309.5317 287,309.5317 287,309.5317 C287,201.3318 665.8761,277.4501 770,248.0317 C777.3635,245.9513 784.8739,243.4255 792.3155,240.6384 " fill="none" id="src.domotix.controller.io.LetturaDatiSalvatiAdapter&lt;-src.domotix.controller.io.datilocali.LetturaDatiLocali" style="stroke: #A80036; stroke-width: 1.0;"/><polygon fill="none" points="230.5146,1552.0161,246.2868,1566.1667,225.1326,1564.9403,230.5146,1552.0161" style="stroke: #A80036; stroke-width: 1.0;"/><!--MD5=[599eccf4fe4139cefd778dd86f76467f]
reverse link src.domotix.controller.io.RimozioneDatiSalvatiAdapter to src.domotix.controller.io.datilocali.RimozioneDatiLocali--><path d="M54.9734,822.3506 C45.0069,808.8297 38,793.345 38,776.5317 C38,309.5317 38,309.5317 38,309.5317 C38,268.2915 311.1733,227.81 445.3591,210.4128 " fill="none" id="src.domotix.controller.io.RimozioneDatiSalvatiAdapter&lt;-src.domotix.controller.io.datilocali.RimozioneDatiLocali" style="stroke: #A80036; stroke-width: 1.0;"/><polygon fill="none" points="60.5608,818.111,68.3259,837.8266,49.9608,827.2566,60.5608,818.111" style="stroke: #A80036; stroke-width: 1.0;"/><!--MD5=[8cfdc55c4fb778630f14fc0e0d137b96]
reverse link src.domotix.controller.io.ScritturaDatiSalvatiAdapter to src.domotix.controller.io.datilocali.ScritturaDatiLocali--><path d="M55.1302,1554.005 C41.5057,1538.6253 31,1520.0982 31,1499.5317 C31,1344.5317 31,1344.5317 31,1344.5317 C31,1294.5001 44.2578,1283.1789 61,1236.0317 C93.6333,1144.134 101.5621,1120.236 149,1035.0317 C180.244,978.9136 206.6783,975.4782 231,916.0317 C249.5381,870.7213 250,856.4877 250,807.5317 C250,309.5317 250,309.5317 250,309.5317 C250,228.8108 531.0862,272.5292 608,248.0317 C619.4332,244.3902 631.0247,238.9685 641.7276,233.1001 " fill="none" id="src.domotix.controller.io.ScritturaDatiSalvatiAdapter&lt;-src.domotix.controller.io.datilocali.ScritturaDatiLocali" style="stroke: #A80036; stroke-width: 1.0;"/><polygon fill="none" points="60.2612,1549.2351,69.5208,1568.2945,50.3966,1559.1694,60.2612,1549.2351" style="stroke: #A80036; stroke-width: 1.0;"/><!--MD5=[812ca175ab5b7914a5167a8f7cf6a395]
reverse link src.domotix.controller.io.datilocali.LettoriXML to src.domotix.controller.io.datilocali.LettoriXML.IstanziatoreXML--><path d="M804.0799,925.157 C787.7644,942.1412 775,962.9609 775,986.5317 C775,986.5317 775,986.5317 775,1499.5317 C775,1530.4526 798.3276,1557.6105 819.4683,1575.8736 " fill="none" id="src.domotix.controller.io.datilocali.LettoriXML&lt;-src.domotix.controller.io.datilocali.LettoriXML.IstanziatoreXML" style="stroke: #A80036; stroke-width: 1.0;"/><polygon fill="#FFFFFF" points="813.4509,916.1228,806.3551,917.4074,804.8118,924.4514,811.9075,923.1668,813.4509,916.1228" style="stroke: #A80036; stroke-width: 1.0;"/><text fill="#000000" font-family="sans-serif" font-size="13" lengthAdjust="spacingAndGlyphs" textLength="67" x="776" y="1280.4287">istanziatore</text><text fill="#000000" font-family="sans-serif" font-size="13" lengthAdjust="spacingAndGlyphs" textLength="7" x="796.0084" y="937.9635">1</text><text fill="#000000" font-family="sans-serif" font-size="13" lengthAdjust="spacingAndGlyphs" textLength="7" x="802.516" y="1564.0886">1</text><!--MD5=[812ca175ab5b7914a5167a8f7cf6a395]
reverse link src.domotix.controller.io.datilocali.LettoriXML to src.domotix.controller.io.datilocali.LettoriXML.IstanziatoreXML--><path d="M901.427,930.0378 C908.4463,947.526 914,967.4059 914,986.5317 C914,986.5317 914,986.5317 914,1499.5317 C914,1528.9227 894.6992,1557.0476 877.811,1576.0313 " fill="none" id="src.domotix.controller.io.datilocali.LettoriXML&lt;-src.domotix.controller.io.datilocali.LettoriXML.IstanziatoreXML-1" style="stroke: #A80036; stroke-width: 1.0;"/><ellipse cx="898.6215" cy="923.6146" fill="#FFFFFF" rx="8" ry="8" style="stroke: #A80036; stroke-width: 1.0;"/><line style="stroke: #A80036; stroke-width: 1.0;" x1="901.8237" x2="895.4194" y1="930.9458" y2="916.2834"/><line style="stroke: #A80036; stroke-width: 1.0;" x1="891.2903" x2="905.9527" y1="926.8167" y2="920.4125"/><text fill="#000000" font-family="sans-serif" font-size="13" lengthAdjust="spacingAndGlyphs" textLength="50" x="915" y="1280.4287">contiene</text><polygon fill="#000000" points="935.5,1290.2377,938.5,1296.2377,941.5,1290.2377,935.5,1290.2377" style="stroke: #000000; stroke-width: 1.0;"/><!--MD5=[6848a619d974eb63c06b8d1c41977ac7]
reverse link src.domotix.controller.io.datilocali.ScrittoriXML to src.domotix.controller.io.datilocali.ScrittoriXML.CompilatoreXML--><path d="M559.4854,923.4157 C527.8715,944.453 499,968.5797 499,986.5317 C499,986.5317 499,986.5317 499,1499.5317 C499,1531.7784 525.0617,1558.2935 549.2909,1575.9764 " fill="none" id="src.domotix.controller.io.datilocali.ScrittoriXML&lt;-src.domotix.controller.io.datilocali.ScrittoriXML.CompilatoreXML" style="stroke: #A80036; stroke-width: 1.0;"/><polygon fill="#FFFFFF" points="570.7392,916.1186,563.5287,916.0267,560.6706,922.6473,567.8811,922.7391,570.7392,916.1186" style="stroke: #A80036; stroke-width: 1.0;"/><text fill="#000000" font-family="sans-serif" font-size="13" lengthAdjust="spacingAndGlyphs" textLength="69" x="500" y="1280.4287">compilatore</text><text fill="#000000" font-family="sans-serif" font-size="13" lengthAdjust="spacingAndGlyphs" textLength="7" x="551.6882" y="937.9587">1</text><text fill="#000000" font-family="sans-serif" font-size="13" lengthAdjust="spacingAndGlyphs" textLength="7" x="530.4097" y="1564.219">1</text><!--MD5=[6848a619d974eb63c06b8d1c41977ac7]
reverse link src.domotix.controller.io.datilocali.ScrittoriXML to src.domotix.controller.io.datilocali.ScrittoriXML.CompilatoreXML--><path d="M640,931.2503 C640,948.8809 640,968.5379 640,986.5317 C640,986.5317 640,986.5317 640,1499.5317 C640,1527.7893 623.9592,1556.2783 610.0488,1575.6712 " fill="none" id="src.domotix.controller.io.datilocali.ScrittoriXML&lt;-src.domotix.controller.io.datilocali.ScrittoriXML.CompilatoreXML-1" style="stroke: #A80036; stroke-width: 1.0;"/><ellipse cx="640.0001" cy="924.0541" fill="#FFFFFF" rx="8" ry="8" style="stroke: #A80036; stroke-width: 1.0;"/><line style="stroke: #A80036; stroke-width: 1.0;" x1="640.0002" x2="640" y1="932.0541" y2="916.0541"/><line style="stroke: #A80036; stroke-width: 1.0;" x1="632.0001" x2="648.0001" y1="924.0542" y2="924.054"/><text fill="#000000" font-family="sans-serif" font-size="13" lengthAdjust="spacingAndGlyphs" textLength="50" x="641" y="1280.4287">contiene</text><polygon fill="#000000" points="661.5,1290.2377,664.5,1296.2377,667.5,1290.2377,661.5,1290.2377" style="stroke: #000000; stroke-width: 1.0;"/><!--MD5=[9da9683d7951a0dc8042b41c80576e0b]
link src.domotix.controller.io.datilocali.PercorsiFile to src.domotix.model.util.Costanti--><path d="M1188.733,225.121 C1228.8189,241.1662 1266,267.4035 1266,309.5317 C1266,309.5317 1266,309.5317 1266,986.5317 C1266,1013.3271 1262.9101,1043.9122 1260.3513,1064.6465 " fill="none" id="src.domotix.controller.io.datilocali.PercorsiFile-src.domotix.model.util.Costanti" style="stroke: #A80036; stroke-width: 1.0;"/><text fill="#000000" font-family="sans-serif" font-size="13" lengthAdjust="spacingAndGlyphs" textLength="21" x="1267" y="648.9287">usa</text><polygon fill="#000000" points="1273,658.7377,1276,664.7377,1279,658.7377,1273,658.7377" style="stroke: #000000; stroke-width: 1.0;"/><!--MD5=[ce50eb7e7fddfc0fb7a3ea5c2482298f]
link src.domotix.controller.io.datilocali.LettoriXML to src.domotix.model.util.Costanti--><path d="M943.3395,916.146 C1019.2043,958.0806 1132.117,1019.6707 1154,1027.0317 C1175.3304,1034.2068 1184.0041,1024.7054 1204,1035.0317 C1217.6557,1042.0838 1229.8998,1053.9693 1239.1702,1064.797 " fill="none" id="src.domotix.controller.io.datilocali.LettoriXML-src.domotix.model.util.Costanti" style="stroke: #A80036; stroke-width: 1.0;"/><text fill="#000000" font-family="sans-serif" font-size="13" lengthAdjust="spacingAndGlyphs" textLength="21" x="1091" y="991.9287">usa</text><polygon fill="#000000" points="1115,985.3847,1121,988.3847,1115,991.3847,1115,985.3847" style="stroke: #000000; stroke-width: 1.0;"/><!--MD5=[5927320e2336bb2e9200714641bb4f8a]
link src.domotix.controller.io.datilocali.ScrittoriXML to src.domotix.model.util.Costanti--><path d="M713.7505,904.5793 C810.6997,939.4965 987.0166,998.5611 1143,1027.0317 C1169.8989,1031.9414 1179.5303,1022.8297 1204,1035.0317 C1217.8716,1041.9489 1230.2158,1053.9623 1239.4936,1064.9042 " fill="none" id="src.domotix.controller.io.datilocali.ScrittoriXML-src.domotix.model.util.Costanti" style="stroke: #A80036; stroke-width: 1.0;"/><text fill="#000000" font-family="sans-serif" font-size="13" lengthAdjust="spacingAndGlyphs" textLength="21" x="1003" y="991.9287">usa</text><polygon fill="#000000" points="1027,985.3847,1033,988.3847,1027,991.3847,1027,985.3847" style="stroke: #000000; stroke-width: 1.0;"/><!--MD5=[978a7177ae5bb8ad356d8ffd5397a23c]
link src.domotix.controller.io.datilocali.LetturaDatiLocali to src.domotix.model.util.Costanti--><path d="M957.5831,240.5376 C963.7855,243.1452 969.9714,245.6704 976,248.0317 C1056.2859,279.4782 1160,223.3069 1160,309.5317 C1160,309.5317 1160,309.5317 1160,643.5317 C1160,807.7801 1223.7277,998.4538 1247.8745,1064.806 " fill="none" id="src.domotix.controller.io.datilocali.LetturaDatiLocali-src.domotix.model.util.Costanti" style="stroke: #A80036; stroke-width: 1.0;"/><text fill="#000000" font-family="sans-serif" font-size="13" lengthAdjust="spacingAndGlyphs" textLength="21" x="1161" y="648.9287">usa</text><polygon fill="#000000" points="1167,658.7377,1170,664.7377,1173,658.7377,1167,658.7377" style="stroke: #000000; stroke-width: 1.0;"/><!--MD5=[3a48a07f53862d3f60e39bb887c20cd0]
link src.domotix.controller.io.datilocali.LetturaDatiLocali to src.domotix.controller.io.datilocali.LettoriXML--><path d="M873,240.7762 C873,261.2662 873,286.7504 873,309.5317 C873,309.5317 873,309.5317 873,776.5317 C873,796.7713 873,819.3036 873,837.8953 " fill="none" id="src.domotix.controller.io.datilocali.LetturaDatiLocali-src.domotix.controller.io.datilocali.LettoriXML" style="stroke: #A80036; stroke-width: 1.0;"/><text fill="#000000" font-family="sans-serif" font-size="13" lengthAdjust="spacingAndGlyphs" textLength="21" x="874" y="539.4287">usa</text><polygon fill="#000000" points="880,549.2377,883,555.2377,886,549.2377,880,549.2377" style="stroke: #000000; stroke-width: 1.0;"/><!--MD5=[4b6f2b3e4012649ce5a64dd21a8b6471]
link src.domotix.controller.io.datilocali.ScritturaDatiLocali to src.domotix.controller.io.datilocali.ScrittoriXML--><path d="M677.6703,233.2222 C671.0557,254.5128 664,283.3574 664,309.5317 C664,309.5317 664,309.5317 664,776.5317 C664,797.161 659.1569,819.5368 653.8218,837.9271 " fill="none" id="src.domotix.controller.io.datilocali.ScritturaDatiLocali-src.domotix.controller.io.datilocali.ScrittoriXML" style="stroke: #A80036; stroke-width: 1.0;"/><text fill="#000000" font-family="sans-serif" font-size="13" lengthAdjust="spacingAndGlyphs" textLength="21" x="665" y="539.4287">usa</text><polygon fill="#000000" points="671,549.2377,674,555.2377,677,549.2377,671,549.2377" style="stroke: #000000; stroke-width: 1.0;"/><!--MD5=[be9348009515a663721198633d5d1b21]
link src.domotix.controller.io.datilocali.LettoriXML to src.domotix.controller.io.LetturaDatiSalvati--><path d="M799.1361,898.1567 C777.2653,904.1844 753.2244,910.5885 731,916.0317 C658.7977,933.7155 404,912.1954 404,986.5317 C404,986.5317 404,986.5317 404,1174.5317 C404,1196.6913 393.2914,1218.3629 381.0769,1235.8746 " fill="none" id="src.domotix.controller.io.datilocali.LettoriXML-src.domotix.controller.io.LetturaDatiSalvati" style="stroke: #A80036; stroke-width: 1.0;"/><!--MD5=[90e2d3e3d6d879942c673f162e5cb166]
link src.domotix.controller.io.datilocali.ScrittoriXML to src.domotix.controller.io.ScritturaDatiSalvati--><path d="M566.4217,914.8493 C565.2779,915.2569 564.1369,915.6514 563,916.0317 C492.7083,939.5418 237,912.4126 237,986.5317 C237,986.5317 237,986.5317 237,1174.5317 C237,1200.808 220.6096,1225.0348 203.579,1243.1157 " fill="none" id="src.domotix.controller.io.datilocali.ScrittoriXML-src.domotix.controller.io.ScritturaDatiSalvati" style="stroke: #A80036; stroke-width: 1.0;"/><!--MD5=[c9fdf421f6766328411853832e70fbd5]
link src.domotix.controller.io.datilocali.RimozioneDatiLocali to src.domotix.controller.io.RimozioneDatiSalvati--><path d="M445.4785,209.7533 C345.6242,223.1275 178,253.8684 178,309.5317 C178,309.5317 178,309.5317 178,433.5317 C178,454.5298 171.2577,476.7559 163.7779,494.9524 " fill="none" id="src.domotix.controller.io.datilocali.RimozioneDatiLocali-src.domotix.controller.io.RimozioneDatiSalvati" style="stroke: #A80036; stroke-width: 1.0;"/><!--MD5=[6b4cbb3e000dc989eca994e0db9833e4]
@startuml

title __DOMOTIX > MODEL > IO's Class Diagram__\n

namespace src.domotix.model {
    namespace util {
    }

    namespace io {
        interface src.domotix.controller.io.LetturaDatiSalvati {
            {abstract} + getNomiInformazioniRilevabili()
            {abstract} + leggiInfoRilevabile()
        }

        abstract class src.domotix.controller.io.LetturaDatiSalvatiAdapter {
            + getNomiInformazioniRilevabili()
            + leggiInfoRilevabile()
        }

        interface src.domotix.controller.io.RimozioneDatiSalvati {
            {abstract} + rimuoviInfoRilevabile()
            {abstract} + sincronizzaInfoRilevabile()
        }

        class src.domotix.controller.io.RimozioneDatiSalvatiAdapter {
            + rimuoviInfoRilevabile()
            + sincronizzaInfoRilevabile()
        }

        interface src.domotix.controller.io.ScritturaDatiSalvati {
            {abstract} + salva()
        }

        class src.domotix.controller.io.ScritturaDatiSalvatiAdapter {
            + salva()
        }

        namespace datilocali {
            enum src.domotix.controller.io.datilocali.LettoriXML {
                PARAMETRO_MODALITA
                INFORMAZIONE_RILEVABILE
            }

            interface src.domotix.controller.io.datilocali.LettoriXML.IstanziatoreXML {
            }

            class src.domotix.controller.io.datilocali.LetturaDatiLocali {
                + getNomiInformazioniRilevabili()
                + leggiInfoRilevabile()
            }

            class src.domotix.controller.io.datilocali.PercorsiFile {
                + getCartellaInformazioneRilevabile()
                + getNomiInformazioniRilevabili()
                + getPercorsoInformazioneRilevabile()
            }

            class src.domotix.controller.io.datilocali.RimozioneDatiLocali {
                + rimuoviInfoRilevabile()
                + sincronizzaInfoRilevabile()
            }

            enum src.domotix.controller.io.datilocali.ScrittoriXML {
                PARAMETRO_MODALITA
                INFORMAZIONE_RILEVABILE
            }

            interface src.domotix.controller.io.datilocali.ScrittoriXML.CompilatoreXML {
            }

            class src.domotix.controller.io.datilocali.ScritturaDatiLocali {
                + salva()
            }
        }
    }
}
  

src.domotix.controller.io.LetturaDatiSalvatiAdapter .up.|> src.domotix.controller.io.LetturaDatiSalvati
src.domotix.controller.io.RimozioneDatiSalvatiAdapter .up.|> src.domotix.controller.io.RimozioneDatiSalvati
src.domotix.controller.io.ScritturaDatiSalvatiAdapter .up.|> src.domotix.controller.io.ScritturaDatiSalvati

src.domotix.controller.io.datilocali.LetturaDatiLocali -up-|> src.domotix.controller.io.LetturaDatiSalvatiAdapter
src.domotix.controller.io.datilocali.RimozioneDatiLocali -up-|> src.domotix.controller.io.RimozioneDatiSalvatiAdapter
src.domotix.controller.io.datilocali.ScritturaDatiLocali -up-|> src.domotix.controller.io.ScritturaDatiSalvatiAdapter

src.domotix.controller.io.datilocali.LettoriXML "1" o- - "1" src.domotix.controller.io.datilocali.LettoriXML.IstanziatoreXML : istanziatore
src.domotix.controller.io.datilocali.LettoriXML +-down- src.domotix.controller.io.datilocali.LettoriXML.IstanziatoreXML : contiene >
src.domotix.controller.io.datilocali.ScrittoriXML "1" o- - "1" src.domotix.controller.io.datilocali.ScrittoriXML.CompilatoreXML : compilatore
src.domotix.controller.io.datilocali.ScrittoriXML +-down- src.domotix.controller.io.datilocali.ScrittoriXML.CompilatoreXML : contiene >

src.domotix.controller.io.datilocali.PercorsiFile - - src.domotix.model.util.Costanti : usa >
src.domotix.controller.io.datilocali.LettoriXML - - src.domotix.model.util.Costanti : usa >
src.domotix.controller.io.datilocali.ScrittoriXML - - src.domotix.model.util.Costanti : usa >
src.domotix.controller.io.datilocali.LetturaDatiLocali - - src.domotix.model.util.Costanti : usa >
src.domotix.controller.io.datilocali.LetturaDatiLocali - - src.domotix.controller.io.datilocali.LettoriXML : usa >
src.domotix.controller.io.datilocali.ScritturaDatiLocali - - src.domotix.controller.io.datilocali.ScrittoriXML : usa >

src.domotix.controller.io.datilocali.LettoriXML - - src.domotix.controller.io.LetturaDatiSalvati
src.domotix.controller.io.datilocali.ScrittoriXML - - src.domotix.controller.io.ScritturaDatiSalvati
src.domotix.controller.io.datilocali.RimozioneDatiLocali - - src.domotix.controller.io.RimozioneDatiSalvati

@enduml

PlantUML version 1.2019.11(Sun Sep 22 12:02:15 CEST 2019)
(GPL source distribution)
Java Runtime: OpenJDK Runtime Environment
JVM: OpenJDK 64-Bit Server VM
Java Version: 11.0.3+12-b304.10
Operating System: Linux
Default Encoding: UTF-8
Language: it
Country: IT
--></g></svg>