<?xml version="1.0" encoding="UTF-8" standalone="no"?><svg xmlns="http://www.w3.org/2000/svg" xmlns:xlink="http://www.w3.org/1999/xlink" contentScriptType="application/ecmascript" contentStyleType="text/css" height="719px" preserveAspectRatio="none" style="width:834px;height:719px;" version="1.1" viewBox="0 0 834 719" width="834px" zoomAndPan="magnify"><defs><filter height="300%" id="f1ohagn51choet" width="300%" x="-1" y="-1"><feGaussianBlur result="blurOut" stdDeviation="2.0"/><feColorMatrix in="blurOut" result="blurOut2" type="matrix" values="0 0 0 0 0 0 0 0 0 0 0 0 0 0 0 0 0 0 .4 0"/><feOffset dx="4.0" dy="4.0" in="blurOut2" result="blurOut3"/><feBlend in="SourceGraphic" in2="blurOut3" mode="normal"/></filter></defs><g><text fill="#000000" font-family="sans-serif" font-size="18" lengthAdjust="spacingAndGlyphs" text-decoration="underline" textLength="351" x="243.5" y="19.2419">DOMOTIX &gt; MODEL &gt; UTIL's Class Diagram</text><text fill="#000000" font-family="sans-serif" font-size="18" lengthAdjust="spacingAndGlyphs" textLength="0" x="421" y="43.7577"/><!--MD5=[0a790ac5fdecc1ec79658b6b98c9068e]
cluster src.domotix.model--><polygon fill="#FFFFFF" filter="url(#f1ohagn51choet)" points="14,65.0317,141,65.0317,148,90.0996,812,90.0996,812,707.0317,14,707.0317,14,65.0317" style="stroke: #000000; stroke-width: 1.5;"/><line style="stroke: #000000; stroke-width: 1.5;" x1="14" x2="148" y1="90.0996" y2="90.0996"/><text fill="#000000" font-family="sans-serif" font-size="14" font-weight="bold" lengthAdjust="spacingAndGlyphs" textLength="121" x="18" y="81.9976">src.domotix.model</text><!--MD5=[f07117731684c6860360b82cb7260692]
cluster src.domotix.model.util--><polygon fill="#FFFFFF" filter="url(#f1ohagn51choet)" points="22,95.0317,51,95.0317,58,120.0996,678,120.0996,678,699.0317,22,699.0317,22,95.0317" style="stroke: #000000; stroke-width: 1.5;"/><line style="stroke: #000000; stroke-width: 1.5;" x1="22" x2="58" y1="120.0996" y2="120.0996"/><text fill="#000000" font-family="sans-serif" font-size="14" font-weight="bold" lengthAdjust="spacingAndGlyphs" textLength="23" x="26" y="111.9976">util</text><!--MD5=[93ef5217795d11f1e60750ff284ef631]
cluster src.domotix.model.bean--><polygon fill="#FFFFFF" filter="url(#f1ohagn51choet)" points="686,412.0317,725,412.0317,732,437.0996,804,437.0996,804,536.0317,686,536.0317,686,412.0317" style="stroke: #000000; stroke-width: 1.5;"/><line style="stroke: #000000; stroke-width: 1.5;" x1="686" x2="732" y1="437.0996" y2="437.0996"/><text fill="#000000" font-family="sans-serif" font-size="14" font-weight="bold" lengthAdjust="spacingAndGlyphs" textLength="33" x="690" y="428.9976">bean</text><!--MD5=[45d783cd9aaab7322b74d5415c833713]
cluster src.domotix.model.bean.device--><polygon fill="#FFFFFF" filter="url(#f1ohagn51choet)" points="694,442.0317,742,442.0317,749,467.0996,796,467.0996,796,528.0317,694,528.0317,694,442.0317" style="stroke: #000000; stroke-width: 1.5;"/><line style="stroke: #000000; stroke-width: 1.5;" x1="694" x2="749" y1="467.0996" y2="467.0996"/><text fill="#000000" font-family="sans-serif" font-size="14" font-weight="bold" lengthAdjust="spacingAndGlyphs" textLength="42" x="698" y="458.9976">device</text><!--MD5=[ad67a99d7a5cdfc63d38a667f47c3406]
class src.domotix.model.util.Costanti--><rect fill="#FEFECE" filter="url(#f1ohagn51choet)" height="167.8551" id="src.domotix.model.util.Costanti" style="stroke: #A80036; stroke-width: 1.5;" width="308" x="362" y="125.0317"/><ellipse cx="490.25" cy="141.0317" fill="#ADD1B2" rx="11" ry="11" style="stroke: #A80036; stroke-width: 1.0;"/><path d="M490.2188,147.2036 Q488.4688,147.2036 487.3281,146.4692 Q486.2031,145.7192 485.6406,144.3754 Q485.0938,143.0161 485.0938,141.2192 Q485.0938,139.1879 485.75,137.7348 Q486.4063,136.2817 487.6875,135.5004 Q488.9688,134.7192 490.8438,134.7192 Q491.7344,134.7192 492.4063,134.9067 Q493.0781,135.0786 493.7656,135.4223 L492.9531,137.4379 Q492.3281,137.1254 491.7813,137.0004 Q491.25,136.8754 490.7656,136.8754 Q489.5938,136.8754 488.8906,137.4067 Q488.1875,137.9379 487.8906,138.8911 Q487.5938,139.8442 487.5938,141.1098 Q487.5938,143.1254 488.3125,144.0942 Q489.0313,145.0473 490.625,145.0473 Q491.2188,145.0473 491.8438,144.8911 Q492.4688,144.7348 493.2969,144.3598 L493.2969,146.5786 Q492.5625,146.8911 491.7656,147.0473 Q490.9844,147.2036 490.2188,147.2036 Z "/><text fill="#000000" font-family="sans-serif" font-size="12" lengthAdjust="spacingAndGlyphs" textLength="43" x="510.75" y="145.6877">Costanti</text><line style="stroke: #A80036; stroke-width: 1.5;" x1="363" x2="669" y1="157.0317" y2="157.0317"/><ellipse cx="373" cy="168.0317" fill="none" rx="3" ry="3" style="stroke: #038048; stroke-width: 1.0;"/><text fill="#000000" font-family="sans-serif" font-size="11" lengthAdjust="spacingAndGlyphs" text-decoration="underline" textLength="202" x="382" y="172.7906">NOME_CARTELLA_INFO_RILEVABILE : String</text><ellipse cx="373" cy="183.0136" fill="none" rx="3" ry="3" style="stroke: #038048; stroke-width: 1.0;"/><text fill="#000000" font-family="sans-serif" font-size="11" lengthAdjust="spacingAndGlyphs" text-decoration="underline" textLength="211" x="382" y="187.7725">NODO_XML_MODALITA_PARAMETRO : String</text><ellipse cx="373" cy="197.9955" fill="none" rx="3" ry="3" style="stroke: #038048; stroke-width: 1.0;"/><text fill="#000000" font-family="sans-serif" font-size="11" lengthAdjust="spacingAndGlyphs" text-decoration="underline" textLength="246" x="382" y="202.7544">NODO_XML_MODALITA_PARAMETRO_NOME : String</text><ellipse cx="373" cy="212.9774" fill="none" rx="3" ry="3" style="stroke: #038048; stroke-width: 1.0;"/><text fill="#000000" font-family="sans-serif" font-size="11" lengthAdjust="spacingAndGlyphs" text-decoration="underline" textLength="253" x="382" y="217.7363">NODO_XML_MODALITA_PARAMETRO_VALORE : String</text><ellipse cx="373" cy="227.9592" fill="none" rx="3" ry="3" style="stroke: #038048; stroke-width: 1.0;"/><text fill="#000000" font-family="sans-serif" font-size="11" lengthAdjust="spacingAndGlyphs" text-decoration="underline" textLength="282" x="382" y="232.7182">NODO_XML_CATEGORIA_SENSORE_INFORILEVABILE : String</text><ellipse cx="373" cy="242.9411" fill="none" rx="3" ry="3" style="stroke: #038048; stroke-width: 1.0;"/><text fill="#000000" font-family="sans-serif" font-size="11" lengthAdjust="spacingAndGlyphs" text-decoration="underline" textLength="171" x="382" y="247.7">NODO_XML_INFORILEVABILE : String</text><ellipse cx="373" cy="257.923" fill="none" rx="3" ry="3" style="stroke: #038048; stroke-width: 1.0;"/><text fill="#000000" font-family="sans-serif" font-size="11" lengthAdjust="spacingAndGlyphs" text-decoration="underline" textLength="206" x="382" y="262.6819">NODO_XML_INFORILEVABILE_NOME : String</text><ellipse cx="373" cy="272.9049" fill="none" rx="3" ry="3" style="stroke: #038048; stroke-width: 1.0;"/><text fill="#000000" font-family="sans-serif" font-size="11" lengthAdjust="spacingAndGlyphs" text-decoration="underline" textLength="228" x="382" y="277.6638">NODO_XML_INFORILEVABILE_NUMERICA : String</text><line style="stroke: #A80036; stroke-width: 1.5;" x1="363" x2="669" y1="284.8868" y2="284.8868"/><!--MD5=[cdb04a4472d6bf6857b902bc5c6d5618]
class src.domotix.model.util.ElencoDispositivi--><rect fill="#FEFECE" filter="url(#f1ohagn51choet)" height="48" id="src.domotix.model.util.ElencoDispositivi" style="stroke: #A80036; stroke-width: 1.5;" width="120" x="30" y="185.0317"/><ellipse cx="45" cy="201.0317" fill="#ADD1B2" rx="11" ry="11" style="stroke: #A80036; stroke-width: 1.0;"/><path d="M44.9688,207.2036 Q43.2188,207.2036 42.0781,206.4692 Q40.9531,205.7192 40.3906,204.3754 Q39.8438,203.0161 39.8438,201.2192 Q39.8438,199.1879 40.5,197.7348 Q41.1563,196.2817 42.4375,195.5004 Q43.7188,194.7192 45.5938,194.7192 Q46.4844,194.7192 47.1563,194.9067 Q47.8281,195.0786 48.5156,195.4223 L47.7031,197.4379 Q47.0781,197.1254 46.5313,197.0004 Q46,196.8754 45.5156,196.8754 Q44.3438,196.8754 43.6406,197.4067 Q42.9375,197.9379 42.6406,198.8911 Q42.3438,199.8442 42.3438,201.1098 Q42.3438,203.1254 43.0625,204.0942 Q43.7813,205.0473 45.375,205.0473 Q45.9688,205.0473 46.5938,204.8911 Q47.2188,204.7348 48.0469,204.3598 L48.0469,206.5786 Q47.3125,206.8911 46.5156,207.0473 Q45.7344,207.2036 44.9688,207.2036 Z "/><text fill="#000000" font-family="sans-serif" font-size="12" lengthAdjust="spacingAndGlyphs" textLength="88" x="59" y="205.6877">ElencoDispositivi</text><line style="stroke: #A80036; stroke-width: 1.5;" x1="31" x2="149" y1="217.0317" y2="217.0317"/><line style="stroke: #A80036; stroke-width: 1.5;" x1="31" x2="149" y1="225.0317" y2="225.0317"/><!--MD5=[dcc848768224420ac6dbf25ae47135f8]
class src.domotix.model.util.ObservableList--><rect fill="#FEFECE" filter="url(#f1ohagn51choet)" height="48" id="src.domotix.model.util.ObservableList" style="stroke: #A80036; stroke-width: 1.5;" width="101" x="39.5" y="643.0317"/><ellipse cx="54.5" cy="659.0317" fill="#B4A7E5" rx="11" ry="11" style="stroke: #A80036; stroke-width: 1.0;"/><path d="M50.5313,665.0317 L50.5313,663.3286 L52.8906,663.0629 L52.8906,654.8598 L50.5313,654.5942 L50.5313,652.8911 L57.6719,652.8911 L57.6719,654.5942 L55.25,654.8598 L55.25,663.0629 L57.6719,663.3286 L57.6719,665.0317 L50.5313,665.0317 Z "/><text fill="#000000" font-family="sans-serif" font-size="12" font-style="italic" lengthAdjust="spacingAndGlyphs" textLength="69" x="68.5" y="663.6877">ObservableList</text><line style="stroke: #A80036; stroke-width: 1.5;" x1="40.5" x2="139.5" y1="675.0317" y2="675.0317"/><line style="stroke: #A80036; stroke-width: 1.5;" x1="40.5" x2="139.5" y1="683.0317" y2="683.0317"/><!--MD5=[c835a16e21403edc9006a215435716b9]
class src.domotix.model.util.ObserverList--><rect fill="#FEFECE" filter="url(#f1ohagn51choet)" height="48" id="src.domotix.model.util.ObserverList" style="stroke: #A80036; stroke-width: 1.5;" width="90" x="211" y="643.0317"/><ellipse cx="226" cy="659.0317" fill="#B4A7E5" rx="11" ry="11" style="stroke: #A80036; stroke-width: 1.0;"/><path d="M222.0313,665.0317 L222.0313,663.3286 L224.3906,663.0629 L224.3906,654.8598 L222.0313,654.5942 L222.0313,652.8911 L229.1719,652.8911 L229.1719,654.5942 L226.75,654.8598 L226.75,663.0629 L229.1719,663.3286 L229.1719,665.0317 L222.0313,665.0317 Z "/><text fill="#000000" font-family="sans-serif" font-size="12" font-style="italic" lengthAdjust="spacingAndGlyphs" textLength="58" x="240" y="663.6877">ObserverList</text><line style="stroke: #A80036; stroke-width: 1.5;" x1="212" x2="300" y1="675.0317" y2="675.0317"/><line style="stroke: #A80036; stroke-width: 1.5;" x1="212" x2="300" y1="683.0317" y2="683.0317"/><!--MD5=[f026e8bbc4cdf0765818bf3378b7b221]
class src.domotix.model.util.SommarioDispositivi--><rect fill="#FEFECE" filter="url(#f1ohagn51choet)" height="48" id="src.domotix.model.util.SommarioDispositivi" style="stroke: #A80036; stroke-width: 1.5;" width="141" x="185.5" y="185.0317"/><ellipse cx="200.5" cy="201.0317" fill="#ADD1B2" rx="11" ry="11" style="stroke: #A80036; stroke-width: 1.0;"/><path d="M200.4688,207.2036 Q198.7188,207.2036 197.5781,206.4692 Q196.4531,205.7192 195.8906,204.3754 Q195.3438,203.0161 195.3438,201.2192 Q195.3438,199.1879 196,197.7348 Q196.6563,196.2817 197.9375,195.5004 Q199.2188,194.7192 201.0938,194.7192 Q201.9844,194.7192 202.6563,194.9067 Q203.3281,195.0786 204.0156,195.4223 L203.2031,197.4379 Q202.5781,197.1254 202.0313,197.0004 Q201.5,196.8754 201.0156,196.8754 Q199.8438,196.8754 199.1406,197.4067 Q198.4375,197.9379 198.1406,198.8911 Q197.8438,199.8442 197.8438,201.1098 Q197.8438,203.1254 198.5625,204.0942 Q199.2813,205.0473 200.875,205.0473 Q201.4688,205.0473 202.0938,204.8911 Q202.7188,204.7348 203.5469,204.3598 L203.5469,206.5786 Q202.8125,206.8911 202.0156,207.0473 Q201.2344,207.2036 200.4688,207.2036 Z "/><text fill="#000000" font-family="sans-serif" font-size="12" lengthAdjust="spacingAndGlyphs" textLength="109" x="214.5" y="205.6877">SommarioDispositivi</text><line style="stroke: #A80036; stroke-width: 1.5;" x1="186.5" x2="325.5" y1="217.0317" y2="217.0317"/><line style="stroke: #A80036; stroke-width: 1.5;" x1="186.5" x2="325.5" y1="225.0317" y2="225.0317"/><!--MD5=[f67fb4e3905c8432ac91b9b41799d1a0]
class src.domotix.model.bean.device.Dispositivo--><rect fill="#FEFECE" filter="url(#f1ohagn51choet)" height="48" id="src.domotix.model.bean.device.Dispositivo" style="stroke: #A80036; stroke-width: 1.5;" width="85" x="702.5" y="472.0317"/><ellipse cx="717.5" cy="488.0317" fill="#A9DCDF" rx="11" ry="11" style="stroke: #A80036; stroke-width: 1.0;"/><path d="M712.6719,493.2817 L716.0156,481.0942 L719.1563,481.0942 L722.5313,493.2817 L720.0625,493.2817 L719.3281,490.2661 L715.8125,490.2661 L715.0625,493.2817 L712.6719,493.2817 Z M717.0781,485.2348 L716.3281,488.2348 L718.8438,488.2348 L718.125,485.2348 Q717.9844,484.6567 717.8594,484.1098 Q717.7344,483.5473 717.5938,482.9692 Q717.4844,483.5473 717.3438,484.1098 Q717.2031,484.6567 717.0781,485.2348 Z "/><text fill="#000000" font-family="sans-serif" font-size="12" font-style="italic" lengthAdjust="spacingAndGlyphs" textLength="53" x="731.5" y="492.6877">Dispositivo</text><line style="stroke: #A80036; stroke-width: 1.5;" x1="703.5" x2="786.5" y1="504.0317" y2="504.0317"/><line style="stroke: #A80036; stroke-width: 1.5;" x1="703.5" x2="786.5" y1="512.0317" y2="512.0317"/><!--MD5=[ef8f86d58e9373d1ef66aa0ce637b6f6]
link src.domotix.model.util.ElencoDispositivi to src.domotix.model.util.ObservableList--><path d="M90,233.1169 C90,263.5116 90,317.3963 90,363.5317 C90,363.5317 90,363.5317 90,581.5317 C90,594.7496 90,609.1169 90,622.2348 " fill="none" id="src.domotix.model.util.ElencoDispositivi-&gt;src.domotix.model.util.ObservableList" style="stroke: #A80036; stroke-width: 1.0; stroke-dasharray: 7.0,7.0;"/><polygon fill="none" points="97.0001,622.7081,90,642.7081,83.0001,622.708,97.0001,622.7081" style="stroke: #A80036; stroke-width: 1.0;"/><!--MD5=[68da0f5f016ac79ea1833994c05252b4]
link src.domotix.model.util.SommarioDispositivi to src.domotix.model.util.ObserverList--><path d="M256,233.1169 C256,263.5116 256,317.3963 256,363.5317 C256,363.5317 256,363.5317 256,581.5317 C256,594.7496 256,609.1169 256,622.2348 " fill="none" id="src.domotix.model.util.SommarioDispositivi-&gt;src.domotix.model.util.ObserverList" style="stroke: #A80036; stroke-width: 1.0; stroke-dasharray: 7.0,7.0;"/><polygon fill="none" points="263.0001,622.7081,256,642.7081,249.0001,622.708,263.0001,622.7081" style="stroke: #A80036; stroke-width: 1.0;"/><!--MD5=[efa6025492d523550858f7107db04730]
link src.domotix.model.util.ElencoDispositivi to src.domotix.model.bean.device.Dispositivo--><path d="M113.6261,242.9162 C113.6261,242.9162 146.8829,280.8252 168,293.0317 C193.5639,307.8086 661.4997,395.5513 686,412.0317 C703.6104,423.8776 717.6046,442.8812 727.5358,459.819 " fill="none" id="src.domotix.model.util.ElencoDispositivi-src.domotix.model.bean.device.Dispositivo" style="stroke: #A80036; stroke-width: 1.0;"/><polygon fill="#A80036" points="734.0429,471.6555,733.2124,461.8417,731.6342,467.2739,726.2019,465.6957,734.0429,471.6555" style="stroke: #A80036; stroke-width: 1.0;"/><line style="stroke: #A80036; stroke-width: 1.0;" x1="731.6342" x2="727.7801" y1="467.2739" y2="460.2634"/><polygon fill="#FFFFFF" points="106.3185,233.3979,106.7995,240.5929,113.6261,242.9162,113.1451,235.7212,106.3185,233.3979" style="stroke: #A80036; stroke-width: 1.0;"/><text fill="#000000" font-family="sans-serif" font-size="13" lengthAdjust="spacingAndGlyphs" textLength="38" x="524" y="368.9287">elenco</text><text fill="#000000" font-family="sans-serif" font-size="13" lengthAdjust="spacingAndGlyphs" textLength="7" x="102.2828" y="254.9768">*</text><text fill="#000000" font-family="sans-serif" font-size="13" lengthAdjust="spacingAndGlyphs" textLength="7" x="723.3383" y="460.2184">1</text><!--MD5=[b4d333c79e3c4e8e28289dc94a1764de]
link src.domotix.model.util.SommarioDispositivi to src.domotix.model.bean.device.Dispositivo--><path d="M282.8901,242.1051 C282.8901,242.1051 321.5301,280.8052 345,293.0317 C403.3646,323.4363 427.4314,302.6347 490,323.0317 C580.96,352.6841 612.3578,350.9595 686,412.0317 C702.0058,425.3054 715.6777,443.9291 725.8183,460.2686 " fill="none" id="src.domotix.model.util.SommarioDispositivi-src.domotix.model.bean.device.Dispositivo" style="stroke: #A80036; stroke-width: 1.0;"/><polygon fill="#A80036" points="732.5609,471.6533,731.4162,461.8712,730.0129,467.3512,724.5329,465.9479,732.5609,471.6533" style="stroke: #A80036; stroke-width: 1.0;"/><line style="stroke: #A80036; stroke-width: 1.0;" x1="730.0129" x2="725.9363" y1="467.3512" y2="460.4678"/><polygon fill="#FFFFFF" points="274.9325,233.1231,275.9173,240.2666,282.8901,242.1051,281.9053,234.9615,274.9325,233.1231" style="stroke: #A80036; stroke-width: 1.0;"/><text fill="#000000" font-family="sans-serif" font-size="13" lengthAdjust="spacingAndGlyphs" textLength="38" x="631" y="368.9287">elenco</text><text fill="#000000" font-family="sans-serif" font-size="13" lengthAdjust="spacingAndGlyphs" textLength="7" x="271.6942" y="255.0503">*</text><text fill="#000000" font-family="sans-serif" font-size="13" lengthAdjust="spacingAndGlyphs" textLength="7" x="730.2703" y="460.2157">1</text><!--MD5=[6f7df7dd0e0a726c67459970ae7d0cd3]
@startuml

title __DOMOTIX > MODEL > UTIL's Class Diagram__\n

namespace src.domotix.model {
    namespace util {
        class src.domotix.model.util.Costanti {
            {static} + NOME_CARTELLA_INFO_RILEVABILE : String
            {static} + NODO_XML_MODALITA_PARAMETRO : String
            {static} + NODO_XML_MODALITA_PARAMETRO_NOME : String
            {static} + NODO_XML_MODALITA_PARAMETRO_VALORE : String
            {static} + NODO_XML_CATEGORIA_SENSORE_INFORILEVABILE : String
            {static} + NODO_XML_INFORILEVABILE : String
            {static} + NODO_XML_INFORILEVABILE_NOME : String
            {static} + NODO_XML_INFORILEVABILE_NUMERICA : String
        }

        class src.domotix.model.util.ElencoDispositivi {
        }

        interface src.domotix.model.util.ObservableList {
        }

        interface src.domotix.model.util.ObserverList {
        }

        class src.domotix.model.util.SommarioDispositivi {
        }
    }

    namespace bean {
        namespace device {
            abstract class Dispositivo {
            }
        }
    }
}



src.domotix.model.util.ElencoDispositivi ..|> src.domotix.model.util.ObservableList
src.domotix.model.util.SommarioDispositivi ..|> src.domotix.model.util.ObserverList
src.domotix.model.util.ElencoDispositivi "*" o- -> "1" src.domotix.model.bean.device.Dispositivo : elenco
src.domotix.model.util.SommarioDispositivi "*" o- -> "1" src.domotix.model.bean.device.Dispositivo : elenco

@enduml

PlantUML version 1.2019.11(Sun Sep 22 12:02:15 CEST 2019)
(GPL source distribution)
Java Runtime: OpenJDK Runtime Environment
JVM: OpenJDK 64-Bit Server VM
Java Version: 11.0.3+12-b304.10
Operating System: Linux
Default Encoding: UTF-8
Language: it
Country: IT
--></g></svg>