<?xml version="1.0" encoding="UTF-8" standalone="no"?><svg xmlns="http://www.w3.org/2000/svg" xmlns:xlink="http://www.w3.org/1999/xlink" contentScriptType="application/ecmascript" contentStyleType="text/css" height="1378px" preserveAspectRatio="none" style="width:1011px;height:1378px;" version="1.1" viewBox="0 0 1011 1378" width="1011px" zoomAndPan="magnify"><defs><filter height="300%" id="f1e64343jw9s5q" width="300%" x="-1" y="-1"><feGaussianBlur result="blurOut" stdDeviation="2.0"/><feColorMatrix in="blurOut" result="blurOut2" type="matrix" values="0 0 0 0 0 0 0 0 0 0 0 0 0 0 0 0 0 0 .4 0"/><feOffset dx="4.0" dy="4.0" in="blurOut2" result="blurOut3"/><feBlend in="SourceGraphic" in2="blurOut3" mode="normal"/></filter></defs><g><text fill="#000000" font-family="sans-serif" font-size="18" lengthAdjust="spacingAndGlyphs" text-decoration="underline" textLength="351" x="332" y="19.2419">DOMOTIX &gt; MODEL &gt; UTIL's Class Diagram</text><text fill="#000000" font-family="sans-serif" font-size="18" lengthAdjust="spacingAndGlyphs" textLength="0" x="509.5" y="43.7577"/><!--MD5=[0a790ac5fdecc1ec79658b6b98c9068e]
cluster src.domotix.model--><polygon fill="#FFFFFF" filter="url(#f1e64343jw9s5q)" points="14,65.0317,141,65.0317,148,90.0996,989,90.0996,989,1366.0317,14,1366.0317,14,65.0317" style="stroke: #000000; stroke-width: 1.5;"/><line style="stroke: #000000; stroke-width: 1.5;" x1="14" x2="148" y1="90.0996" y2="90.0996"/><text fill="#000000" font-family="sans-serif" font-size="14" font-weight="bold" lengthAdjust="spacingAndGlyphs" textLength="121" x="18" y="81.9976">src.domotix.model</text><!--MD5=[f07117731684c6860360b82cb7260692]
cluster src.domotix.model.util--><polygon fill="#FFFFFF" filter="url(#f1e64343jw9s5q)" points="22,95.0317,51,95.0317,58,120.0996,855,120.0996,855,1358.0317,22,1358.0317,22,95.0317" style="stroke: #000000; stroke-width: 1.5;"/><line style="stroke: #000000; stroke-width: 1.5;" x1="22" x2="58" y1="120.0996" y2="120.0996"/><text fill="#000000" font-family="sans-serif" font-size="14" font-weight="bold" lengthAdjust="spacingAndGlyphs" textLength="23" x="26" y="111.9976">util</text><!--MD5=[93ef5217795d11f1e60750ff284ef631]
cluster src.domotix.model.bean--><polygon fill="#FFFFFF" filter="url(#f1e64343jw9s5q)" points="863,981.0317,902,981.0317,909,1006.0996,981,1006.0996,981,1105.0317,863,1105.0317,863,981.0317" style="stroke: #000000; stroke-width: 1.5;"/><line style="stroke: #000000; stroke-width: 1.5;" x1="863" x2="909" y1="1006.0996" y2="1006.0996"/><text fill="#000000" font-family="sans-serif" font-size="14" font-weight="bold" lengthAdjust="spacingAndGlyphs" textLength="33" x="867" y="997.9976">bean</text><!--MD5=[45d783cd9aaab7322b74d5415c833713]
cluster src.domotix.model.bean.device--><polygon fill="#FFFFFF" filter="url(#f1e64343jw9s5q)" points="871,1011.0317,919,1011.0317,926,1036.0996,973,1036.0996,973,1097.0317,871,1097.0317,871,1011.0317" style="stroke: #000000; stroke-width: 1.5;"/><line style="stroke: #000000; stroke-width: 1.5;" x1="871" x2="926" y1="1036.0996" y2="1036.0996"/><text fill="#000000" font-family="sans-serif" font-size="14" font-weight="bold" lengthAdjust="spacingAndGlyphs" textLength="42" x="875" y="1027.9976">device</text><!--MD5=[ad67a99d7a5cdfc63d38a667f47c3406]
class src.domotix.model.util.Costanti--><rect fill="#FEFECE" filter="url(#f1e64343jw9s5q)" height="737.1668" id="src.domotix.model.util.Costanti" style="stroke: #A80036; stroke-width: 1.5;" width="311" x="535.5" y="125.0317"/><ellipse cx="665.25" cy="141.0317" fill="#ADD1B2" rx="11" ry="11" style="stroke: #A80036; stroke-width: 1.0;"/><path d="M665.2188,147.2036 Q663.4688,147.2036 662.3281,146.4692 Q661.2031,145.7192 660.6406,144.3754 Q660.0938,143.0161 660.0938,141.2192 Q660.0938,139.1879 660.75,137.7348 Q661.4063,136.2817 662.6875,135.5004 Q663.9688,134.7192 665.8438,134.7192 Q666.7344,134.7192 667.4063,134.9067 Q668.0781,135.0786 668.7656,135.4223 L667.9531,137.4379 Q667.3281,137.1254 666.7813,137.0004 Q666.25,136.8754 665.7656,136.8754 Q664.5938,136.8754 663.8906,137.4067 Q663.1875,137.9379 662.8906,138.8911 Q662.5938,139.8442 662.5938,141.1098 Q662.5938,143.1254 663.3125,144.0942 Q664.0313,145.0473 665.625,145.0473 Q666.2188,145.0473 666.8438,144.8911 Q667.4688,144.7348 668.2969,144.3598 L668.2969,146.5786 Q667.5625,146.8911 666.7656,147.0473 Q665.9844,147.2036 665.2188,147.2036 Z "/><text fill="#000000" font-family="sans-serif" font-size="12" lengthAdjust="spacingAndGlyphs" textLength="43" x="685.75" y="145.6877">Costanti</text><line style="stroke: #A80036; stroke-width: 1.5;" x1="536.5" x2="845.5" y1="157.0317" y2="157.0317"/><ellipse cx="546.5" cy="168.0317" fill="none" rx="3" ry="3" style="stroke: #038048; stroke-width: 1.0;"/><text fill="#000000" font-family="sans-serif" font-size="11" lengthAdjust="spacingAndGlyphs" text-decoration="underline" textLength="150" x="555.5" y="172.7906">NODO_XML_ARTEFATTO : String</text><ellipse cx="546.5" cy="183.0136" fill="none" rx="3" ry="3" style="stroke: #038048; stroke-width: 1.0;"/><text fill="#000000" font-family="sans-serif" font-size="11" lengthAdjust="spacingAndGlyphs" text-decoration="underline" textLength="214" x="555.5" y="187.7725">NODO_XML_ARTEFATTO_ATTUATORE : String</text><ellipse cx="546.5" cy="197.9955" fill="none" rx="3" ry="3" style="stroke: #038048; stroke-width: 1.0;"/><text fill="#000000" font-family="sans-serif" font-size="11" lengthAdjust="spacingAndGlyphs" text-decoration="underline" textLength="185" x="555.5" y="202.7544">NODO_XML_ARTEFATTO_NOME : String</text><ellipse cx="546.5" cy="212.9774" fill="none" rx="3" ry="3" style="stroke: #038048; stroke-width: 1.0;"/><text fill="#000000" font-family="sans-serif" font-size="11" lengthAdjust="spacingAndGlyphs" text-decoration="underline" textLength="200" x="555.5" y="217.7363">NODO_XML_ARTEFATTO_SENSORE : String</text><ellipse cx="546.5" cy="227.9592" fill="none" rx="3" ry="3" style="stroke: #038048; stroke-width: 1.0;"/><text fill="#000000" font-family="sans-serif" font-size="11" lengthAdjust="spacingAndGlyphs" text-decoration="underline" textLength="226" x="555.5" y="232.7182">NODO_XML_ARTEFATTO_UNITA_IMMOB : String</text><ellipse cx="546.5" cy="242.9411" fill="none" rx="3" ry="3" style="stroke: #038048; stroke-width: 1.0;"/><text fill="#000000" font-family="sans-serif" font-size="11" lengthAdjust="spacingAndGlyphs" text-decoration="underline" textLength="153" x="555.5" y="247.7">NODO_XML_ATTUATORE : String</text><ellipse cx="546.5" cy="257.923" fill="none" rx="3" ry="3" style="stroke: #038048; stroke-width: 1.0;"/><text fill="#000000" font-family="sans-serif" font-size="11" lengthAdjust="spacingAndGlyphs" text-decoration="underline" textLength="214" x="555.5" y="262.6819">NODO_XML_ATTUATORE_CATEGORIA : String</text><ellipse cx="546.5" cy="272.9049" fill="none" rx="3" ry="3" style="stroke: #038048; stroke-width: 1.0;"/><text fill="#000000" font-family="sans-serif" font-size="11" lengthAdjust="spacingAndGlyphs" text-decoration="underline" textLength="210" x="555.5" y="277.6638">NODO_XML_ATTUATORE_MODALITA : String</text><ellipse cx="546.5" cy="287.8868" fill="none" rx="3" ry="3" style="stroke: #038048; stroke-width: 1.0;"/><text fill="#000000" font-family="sans-serif" font-size="11" lengthAdjust="spacingAndGlyphs" text-decoration="underline" textLength="188" x="555.5" y="292.6457">NODO_XML_ATTUATORE_NOME : String</text><ellipse cx="546.5" cy="302.8687" fill="none" rx="3" ry="3" style="stroke: #038048; stroke-width: 1.0;"/><text fill="#000000" font-family="sans-serif" font-size="11" lengthAdjust="spacingAndGlyphs" text-decoration="underline" textLength="190" x="555.5" y="307.6276">NODO_XML_ATTUATORE_STATO : String</text><ellipse cx="546.5" cy="317.8506" fill="none" rx="3" ry="3" style="stroke: #038048; stroke-width: 1.0;"/><text fill="#000000" font-family="sans-serif" font-size="11" lengthAdjust="spacingAndGlyphs" text-decoration="underline" textLength="214" x="555.5" y="322.6095">NODO_XML_CATEGORIA_ATTUATORE : String</text><ellipse cx="546.5" cy="332.8325" fill="none" rx="3" ry="3" style="stroke: #038048; stroke-width: 1.0;"/><text fill="#000000" font-family="sans-serif" font-size="11" lengthAdjust="spacingAndGlyphs" text-decoration="underline" textLength="271" x="555.5" y="337.5914">NODO_XML_CATEGORIA_ATTUATORE_MODALITA : String</text><ellipse cx="546.5" cy="347.8143" fill="none" rx="3" ry="3" style="stroke: #038048; stroke-width: 1.0;"/><text fill="#000000" font-family="sans-serif" font-size="11" lengthAdjust="spacingAndGlyphs" text-decoration="underline" textLength="249" x="555.5" y="352.5733">NODO_XML_CATEGORIA_ATTUATORE_NOME : String</text><ellipse cx="546.5" cy="362.7962" fill="none" rx="3" ry="3" style="stroke: #038048; stroke-width: 1.0;"/><text fill="#000000" font-family="sans-serif" font-size="11" lengthAdjust="spacingAndGlyphs" text-decoration="underline" textLength="285" x="555.5" y="367.5551">NODO_XML_CATEGORIA_ATTUATORE_TESTOLIBERO : String</text><ellipse cx="546.5" cy="377.7781" fill="none" rx="3" ry="3" style="stroke: #038048; stroke-width: 1.0;"/><text fill="#000000" font-family="sans-serif" font-size="11" lengthAdjust="spacingAndGlyphs" text-decoration="underline" textLength="200" x="555.5" y="382.537">NODO_XML_CATEGORIA_SENSORE : String</text><ellipse cx="546.5" cy="392.76" fill="none" rx="3" ry="3" style="stroke: #038048; stroke-width: 1.0;"/><text fill="#000000" font-family="sans-serif" font-size="11" lengthAdjust="spacingAndGlyphs" text-decoration="underline" textLength="282" x="555.5" y="397.5189">NODO_XML_CATEGORIA_SENSORE_INFORILEVABILE : String</text><ellipse cx="546.5" cy="407.7419" fill="none" rx="3" ry="3" style="stroke: #038048; stroke-width: 1.0;"/><text fill="#000000" font-family="sans-serif" font-size="11" lengthAdjust="spacingAndGlyphs" text-decoration="underline" textLength="235" x="555.5" y="412.5008">NODO_XML_CATEGORIA_SENSORE_NOME : String</text><ellipse cx="546.5" cy="422.7238" fill="none" rx="3" ry="3" style="stroke: #038048; stroke-width: 1.0;"/><text fill="#000000" font-family="sans-serif" font-size="11" lengthAdjust="spacingAndGlyphs" text-decoration="underline" textLength="271" x="555.5" y="427.4827">NODO_XML_CATEGORIA_SENSORE_TESTOLIBERO : String</text><ellipse cx="546.5" cy="437.7057" fill="none" rx="3" ry="3" style="stroke: #038048; stroke-width: 1.0;"/><text fill="#000000" font-family="sans-serif" font-size="11" lengthAdjust="spacingAndGlyphs" text-decoration="underline" textLength="146" x="555.5" y="442.4646">NODO_XML_MODALITA : String</text><ellipse cx="546.5" cy="452.6876" fill="none" rx="3" ry="3" style="stroke: #038048; stroke-width: 1.0;"/><text fill="#000000" font-family="sans-serif" font-size="11" lengthAdjust="spacingAndGlyphs" text-decoration="underline" textLength="181" x="555.5" y="457.4465">NODO_XML_MODALITA_NOME : String</text><ellipse cx="546.5" cy="467.6694" fill="none" rx="3" ry="3" style="stroke: #038048; stroke-width: 1.0;"/><text fill="#000000" font-family="sans-serif" font-size="11" lengthAdjust="spacingAndGlyphs" text-decoration="underline" textLength="139" x="555.5" y="472.4284">NODO_XML_SENSORE : String</text><ellipse cx="546.5" cy="482.6513" fill="none" rx="3" ry="3" style="stroke: #038048; stroke-width: 1.0;"/><text fill="#000000" font-family="sans-serif" font-size="11" lengthAdjust="spacingAndGlyphs" text-decoration="underline" textLength="200" x="555.5" y="487.4102">NODO_XML_SENSORE_CATEGORIA : String</text><ellipse cx="546.5" cy="497.6332" fill="none" rx="3" ry="3" style="stroke: #038048; stroke-width: 1.0;"/><text fill="#000000" font-family="sans-serif" font-size="11" lengthAdjust="spacingAndGlyphs" text-decoration="underline" textLength="174" x="555.5" y="502.3921">NODO_XML_SENSORE_NOME : String</text><ellipse cx="546.5" cy="512.6151" fill="none" rx="3" ry="3" style="stroke: #038048; stroke-width: 1.0;"/><text fill="#000000" font-family="sans-serif" font-size="11" lengthAdjust="spacingAndGlyphs" text-decoration="underline" textLength="176" x="555.5" y="517.374">NODO_XML_SENSORE_STATO : String</text><ellipse cx="546.5" cy="527.597" fill="none" rx="3" ry="3" style="stroke: #038048; stroke-width: 1.0;"/><text fill="#000000" font-family="sans-serif" font-size="11" lengthAdjust="spacingAndGlyphs" text-decoration="underline" textLength="181" x="555.5" y="532.3559">NODO_XML_SENSORE_VALORE : String</text><ellipse cx="546.5" cy="542.5789" fill="none" rx="3" ry="3" style="stroke: #038048; stroke-width: 1.0;"/><text fill="#000000" font-family="sans-serif" font-size="11" lengthAdjust="spacingAndGlyphs" text-decoration="underline" textLength="133" x="555.5" y="547.3378">NODO_XML_STANZA : String</text><ellipse cx="546.5" cy="557.5608" fill="none" rx="3" ry="3" style="stroke: #038048; stroke-width: 1.0;"/><text fill="#000000" font-family="sans-serif" font-size="11" lengthAdjust="spacingAndGlyphs" text-decoration="underline" textLength="194" x="555.5" y="562.3197">NODO_XML_STANZA_ARTEFATTO : String</text><ellipse cx="546.5" cy="572.5427" fill="none" rx="3" ry="3" style="stroke: #038048; stroke-width: 1.0;"/><text fill="#000000" font-family="sans-serif" font-size="11" lengthAdjust="spacingAndGlyphs" text-decoration="underline" textLength="197" x="555.5" y="577.3016">NODO_XML_STANZA_ATTUATORE : String</text><ellipse cx="546.5" cy="587.5246" fill="none" rx="3" ry="3" style="stroke: #038048; stroke-width: 1.0;"/><text fill="#000000" font-family="sans-serif" font-size="11" lengthAdjust="spacingAndGlyphs" text-decoration="underline" textLength="168" x="555.5" y="592.2835">NODO_XML_STANZA_NOME : String</text><ellipse cx="546.5" cy="602.5064" fill="none" rx="3" ry="3" style="stroke: #038048; stroke-width: 1.0;"/><text fill="#000000" font-family="sans-serif" font-size="11" lengthAdjust="spacingAndGlyphs" text-decoration="underline" textLength="183" x="555.5" y="607.2654">NODO_XML_STANZA_SENSORE : String</text><ellipse cx="546.5" cy="617.4883" fill="none" rx="3" ry="3" style="stroke: #038048; stroke-width: 1.0;"/><text fill="#000000" font-family="sans-serif" font-size="11" lengthAdjust="spacingAndGlyphs" text-decoration="underline" textLength="209" x="555.5" y="622.2472">NODO_XML_STANZA_UNITA_IMMOB : String</text><ellipse cx="546.5" cy="632.4702" fill="none" rx="3" ry="3" style="stroke: #038048; stroke-width: 1.0;"/><text fill="#000000" font-family="sans-serif" font-size="11" lengthAdjust="spacingAndGlyphs" text-decoration="underline" textLength="165" x="555.5" y="637.2291">NODO_XML_UNITA_IMMOB : String</text><ellipse cx="546.5" cy="647.4521" fill="none" rx="3" ry="3" style="stroke: #038048; stroke-width: 1.0;"/><text fill="#000000" font-family="sans-serif" font-size="11" lengthAdjust="spacingAndGlyphs" text-decoration="underline" textLength="200" x="555.5" y="652.211">NODO_XML_UNITA_IMMOB_NOME : String</text><ellipse cx="546.5" cy="662.434" fill="none" rx="3" ry="3" style="stroke: #038048; stroke-width: 1.0;"/><text fill="#000000" font-family="sans-serif" font-size="11" lengthAdjust="spacingAndGlyphs" text-decoration="underline" textLength="209" x="555.5" y="667.1929">NODO_XML_UNITA_IMMOB_STANZA : String</text><ellipse cx="546.5" cy="677.4159" fill="none" rx="3" ry="3" style="stroke: #038048; stroke-width: 1.0;"/><text fill="#000000" font-family="sans-serif" font-size="11" lengthAdjust="spacingAndGlyphs" text-decoration="underline" textLength="172" x="555.5" y="682.1748">NOME_CARTELLA_ARTEFATTI : String</text><ellipse cx="546.5" cy="692.3978" fill="none" rx="3" ry="3" style="stroke: #038048; stroke-width: 1.0;"/><text fill="#000000" font-family="sans-serif" font-size="11" lengthAdjust="spacingAndGlyphs" text-decoration="underline" textLength="173" x="555.5" y="697.1567">NOME_CARTELLA_MODALITA : String</text><ellipse cx="546.5" cy="707.3797" fill="none" rx="3" ry="3" style="stroke: #038048; stroke-width: 1.0;"/><text fill="#000000" font-family="sans-serif" font-size="11" lengthAdjust="spacingAndGlyphs" text-decoration="underline" textLength="159" x="555.5" y="712.1386">NOME_CARTELLA_STANZE : String</text><ellipse cx="546.5" cy="722.3615" fill="none" rx="3" ry="3" style="stroke: #038048; stroke-width: 1.0;"/><text fill="#000000" font-family="sans-serif" font-size="11" lengthAdjust="spacingAndGlyphs" text-decoration="underline" textLength="160" x="555.5" y="727.1205">PERCORSO_CARTELLA_APP : String</text><ellipse cx="546.5" cy="737.3434" fill="none" rx="3" ry="3" style="stroke: #038048; stroke-width: 1.0;"/><text fill="#000000" font-family="sans-serif" font-size="11" lengthAdjust="spacingAndGlyphs" text-decoration="underline" textLength="198" x="555.5" y="742.1023">PERCORSO_CARTELLA_ATTUATORI : String</text><ellipse cx="546.5" cy="752.3253" fill="none" rx="3" ry="3" style="stroke: #038048; stroke-width: 1.0;"/><text fill="#000000" font-family="sans-serif" font-size="11" lengthAdjust="spacingAndGlyphs" text-decoration="underline" textLength="258" x="555.5" y="757.0842">PERCORSO_CARTELLA_CATEGORIE_ATTUATORI : String</text><ellipse cx="546.5" cy="767.3072" fill="none" rx="3" ry="3" style="stroke: #038048; stroke-width: 1.0;"/><text fill="#000000" font-family="sans-serif" font-size="11" lengthAdjust="spacingAndGlyphs" text-decoration="underline" textLength="244" x="555.5" y="772.0661">PERCORSO_CARTELLA_CATEGORIE_SENSORI : String</text><ellipse cx="546.5" cy="782.2891" fill="none" rx="3" ry="3" style="stroke: #038048; stroke-width: 1.0;"/><text fill="#000000" font-family="sans-serif" font-size="11" lengthAdjust="spacingAndGlyphs" text-decoration="underline" textLength="165" x="555.5" y="787.048">PERCORSO_CARTELLA_DATI : String</text><ellipse cx="546.5" cy="797.271" fill="none" rx="3" ry="3" style="stroke: #038048; stroke-width: 1.0;"/><text fill="#000000" font-family="sans-serif" font-size="11" lengthAdjust="spacingAndGlyphs" text-decoration="underline" textLength="184" x="555.5" y="802.0299">PERCORSO_CARTELLA_SENSORI : String</text><ellipse cx="546.5" cy="812.2529" fill="none" rx="3" ry="3" style="stroke: #038048; stroke-width: 1.0;"/><text fill="#000000" font-family="sans-serif" font-size="11" lengthAdjust="spacingAndGlyphs" text-decoration="underline" textLength="213" x="555.5" y="817.0118">PERCORSO_CARTELLA_UNITA_IMMOB : String</text><ellipse cx="546.5" cy="827.2348" fill="none" rx="3" ry="3" style="stroke: #038048; stroke-width: 1.0;"/><text fill="#000000" font-family="sans-serif" font-size="11" lengthAdjust="spacingAndGlyphs" text-decoration="underline" textLength="169" x="555.5" y="831.9937">PERCORSO_RADICE_UTENTE : String</text><line style="stroke: #A80036; stroke-width: 1.5;" x1="536.5" x2="845.5" y1="839.2166" y2="839.2166"/><rect fill="#F24D5C" height="6" style="stroke: #C82930; stroke-width: 1.0;" width="6" x="543.5" y="847.2166"/><text fill="#000000" font-family="sans-serif" font-size="11" lengthAdjust="spacingAndGlyphs" textLength="43" x="555.5" y="854.9756">Costanti()</text><!--MD5=[cdb04a4472d6bf6857b902bc5c6d5618]
class src.domotix.model.util.ElencoDispositivi--><rect fill="#FEFECE" filter="url(#f1e64343jw9s5q)" height="317.674" id="src.domotix.model.util.ElencoDispositivi" style="stroke: #A80036; stroke-width: 1.5;" width="258" x="30" y="334.5317"/><ellipse cx="110.75" cy="350.5317" fill="#ADD1B2" rx="11" ry="11" style="stroke: #A80036; stroke-width: 1.0;"/><path d="M110.7188,356.7036 Q108.9688,356.7036 107.8281,355.9692 Q106.7031,355.2192 106.1406,353.8754 Q105.5938,352.5161 105.5938,350.7192 Q105.5938,348.6879 106.25,347.2348 Q106.9063,345.7817 108.1875,345.0004 Q109.4688,344.2192 111.3438,344.2192 Q112.2344,344.2192 112.9063,344.4067 Q113.5781,344.5786 114.2656,344.9223 L113.4531,346.9379 Q112.8281,346.6254 112.2813,346.5004 Q111.75,346.3754 111.2656,346.3754 Q110.0938,346.3754 109.3906,346.9067 Q108.6875,347.4379 108.3906,348.3911 Q108.0938,349.3442 108.0938,350.6098 Q108.0938,352.6254 108.8125,353.5942 Q109.5313,354.5473 111.125,354.5473 Q111.7188,354.5473 112.3438,354.3911 Q112.9688,354.2348 113.7969,353.8598 L113.7969,356.0786 Q113.0625,356.3911 112.2656,356.5473 Q111.4844,356.7036 110.7188,356.7036 Z "/><text fill="#000000" font-family="sans-serif" font-size="12" lengthAdjust="spacingAndGlyphs" textLength="88" x="131.25" y="355.1877">ElencoDispositivi</text><line style="stroke: #A80036; stroke-width: 1.5;" x1="31" x2="287" y1="366.5317" y2="366.5317"/><rect fill="none" height="6" style="stroke: #C82930; stroke-width: 1.0;" width="6" x="38" y="374.5317"/><text fill="#000000" font-family="sans-serif" font-size="11" lengthAdjust="spacingAndGlyphs" textLength="151" x="50" y="382.2906">elenco : Map&lt;String, Dispositivo&gt;</text><rect fill="none" height="6" style="stroke: #C82930; stroke-width: 1.0;" width="6" x="38" y="389.5136"/><text fill="#000000" font-family="sans-serif" font-size="11" lengthAdjust="spacingAndGlyphs" textLength="232" x="50" y="397.2725">osservatori : ArrayList&lt;ObserverList&lt;Dispositivo&gt;&gt;</text><line style="stroke: #A80036; stroke-width: 1.5;" x1="31" x2="287" y1="404.4955" y2="404.4955"/><ellipse cx="41" cy="415.4955" fill="#84BE84" rx="3" ry="3" style="stroke: #038048; stroke-width: 1.0;"/><text fill="#000000" font-family="sans-serif" font-size="11" lengthAdjust="spacingAndGlyphs" textLength="83" x="50" y="420.2544">ElencoDispositivi()</text><ellipse cx="41" cy="430.4774" fill="#84BE84" rx="3" ry="3" style="stroke: #038048; stroke-width: 1.0;"/><text fill="#000000" font-family="sans-serif" font-size="11" lengthAdjust="spacingAndGlyphs" textLength="83" x="50" y="435.2363">ElencoDispositivi()</text><ellipse cx="41" cy="445.4592" fill="#84BE84" rx="3" ry="3" style="stroke: #038048; stroke-width: 1.0;"/><text fill="#000000" font-family="sans-serif" font-size="11" lengthAdjust="spacingAndGlyphs" textLength="24" x="50" y="450.2182">add()</text><ellipse cx="41" cy="460.4411" fill="#84BE84" rx="3" ry="3" style="stroke: #038048; stroke-width: 1.0;"/><text fill="#000000" font-family="sans-serif" font-size="11" lengthAdjust="spacingAndGlyphs" textLength="24" x="50" y="465.2">add()</text><ellipse cx="41" cy="475.423" fill="#84BE84" rx="3" ry="3" style="stroke: #038048; stroke-width: 1.0;"/><text fill="#000000" font-family="sans-serif" font-size="11" lengthAdjust="spacingAndGlyphs" textLength="104" x="50" y="480.1819">aggiungiOsservatore()</text><ellipse cx="41" cy="490.4049" fill="#84BE84" rx="3" ry="3" style="stroke: #038048; stroke-width: 1.0;"/><text fill="#000000" font-family="sans-serif" font-size="11" lengthAdjust="spacingAndGlyphs" textLength="45" x="50" y="495.1638">contains()</text><ellipse cx="41" cy="505.3868" fill="#84BE84" rx="3" ry="3" style="stroke: #038048; stroke-width: 1.0;"/><text fill="#000000" font-family="sans-serif" font-size="11" lengthAdjust="spacingAndGlyphs" textLength="67" x="50" y="510.1457">getDispositivi()</text><ellipse cx="41" cy="520.3687" fill="#84BE84" rx="3" ry="3" style="stroke: #038048; stroke-width: 1.0;"/><text fill="#000000" font-family="sans-serif" font-size="11" lengthAdjust="spacingAndGlyphs" textLength="71" x="50" y="525.1276">getDispositivo()</text><ellipse cx="41" cy="535.3506" fill="#84BE84" rx="3" ry="3" style="stroke: #038048; stroke-width: 1.0;"/><text fill="#000000" font-family="sans-serif" font-size="11" lengthAdjust="spacingAndGlyphs" textLength="75" x="50" y="540.1095">getOsservatori()</text><ellipse cx="41" cy="550.3325" fill="#84BE84" rx="3" ry="3" style="stroke: #038048; stroke-width: 1.0;"/><text fill="#000000" font-family="sans-serif" font-size="11" lengthAdjust="spacingAndGlyphs" textLength="85" x="50" y="555.0914">informaAggiunta()</text><ellipse cx="41" cy="565.3143" fill="#84BE84" rx="3" ry="3" style="stroke: #038048; stroke-width: 1.0;"/><text fill="#000000" font-family="sans-serif" font-size="11" lengthAdjust="spacingAndGlyphs" textLength="92" x="50" y="570.0733">informaRimozione()</text><ellipse cx="41" cy="580.2962" fill="#84BE84" rx="3" ry="3" style="stroke: #038048; stroke-width: 1.0;"/><text fill="#000000" font-family="sans-serif" font-size="11" lengthAdjust="spacingAndGlyphs" textLength="43" x="50" y="585.0551">remove()</text><ellipse cx="41" cy="595.2781" fill="#84BE84" rx="3" ry="3" style="stroke: #038048; stroke-width: 1.0;"/><text fill="#000000" font-family="sans-serif" font-size="11" lengthAdjust="spacingAndGlyphs" textLength="43" x="50" y="600.037">remove()</text><ellipse cx="41" cy="610.26" fill="#84BE84" rx="3" ry="3" style="stroke: #038048; stroke-width: 1.0;"/><text fill="#000000" font-family="sans-serif" font-size="11" lengthAdjust="spacingAndGlyphs" textLength="99" x="50" y="615.0189">rimuoviOsservatore()</text><ellipse cx="41" cy="625.2419" fill="#84BE84" rx="3" ry="3" style="stroke: #038048; stroke-width: 1.0;"/><text fill="#000000" font-family="sans-serif" font-size="11" lengthAdjust="spacingAndGlyphs" textLength="91" x="50" y="630.0008">svuotaOsservatori()</text><ellipse cx="41" cy="640.2238" fill="#84BE84" rx="3" ry="3" style="stroke: #038048; stroke-width: 1.0;"/><text fill="#000000" font-family="sans-serif" font-size="11" lengthAdjust="spacingAndGlyphs" textLength="42" x="50" y="644.9827">toString()</text><!--MD5=[dcc848768224420ac6dbf25ae47135f8]
class src.domotix.model.util.ObservableList--><rect fill="#FEFECE" filter="url(#f1e64343jw9s5q)" height="137.8913" id="src.domotix.model.util.ObservableList" style="stroke: #A80036; stroke-width: 1.5;" width="125" x="96.5" y="1212.0317"/><ellipse cx="122.3" cy="1228.0317" fill="#B4A7E5" rx="11" ry="11" style="stroke: #A80036; stroke-width: 1.0;"/><path d="M118.3313,1234.0317 L118.3313,1232.3286 L120.6906,1232.0629 L120.6906,1223.8598 L118.3313,1223.5942 L118.3313,1221.8911 L125.4719,1221.8911 L125.4719,1223.5942 L123.05,1223.8598 L123.05,1232.0629 L125.4719,1232.3286 L125.4719,1234.0317 L118.3313,1234.0317 Z "/><text fill="#000000" font-family="sans-serif" font-size="12" font-style="italic" lengthAdjust="spacingAndGlyphs" textLength="69" x="138.7" y="1232.6877">ObservableList</text><line style="stroke: #A80036; stroke-width: 1.5;" x1="97.5" x2="220.5" y1="1244.0317" y2="1244.0317"/><line style="stroke: #A80036; stroke-width: 1.5;" x1="97.5" x2="220.5" y1="1252.0317" y2="1252.0317"/><ellipse cx="107.5" cy="1263.0317" fill="#84BE84" rx="3" ry="3" style="stroke: #038048; stroke-width: 1.0;"/><text fill="#000000" font-family="sans-serif" font-size="11" font-style="italic" lengthAdjust="spacingAndGlyphs" textLength="99" x="116.5" y="1267.7906">aggiungiOsservatore()</text><ellipse cx="107.5" cy="1278.0136" fill="#84BE84" rx="3" ry="3" style="stroke: #038048; stroke-width: 1.0;"/><text fill="#000000" font-family="sans-serif" font-size="11" font-style="italic" lengthAdjust="spacingAndGlyphs" textLength="70" x="116.5" y="1282.7725">getOsservatori()</text><ellipse cx="107.5" cy="1292.9955" fill="#84BE84" rx="3" ry="3" style="stroke: #038048; stroke-width: 1.0;"/><text fill="#000000" font-family="sans-serif" font-size="11" font-style="italic" lengthAdjust="spacingAndGlyphs" textLength="83" x="116.5" y="1297.7544">informaAggiunta()</text><ellipse cx="107.5" cy="1307.9774" fill="#84BE84" rx="3" ry="3" style="stroke: #038048; stroke-width: 1.0;"/><text fill="#000000" font-family="sans-serif" font-size="11" font-style="italic" lengthAdjust="spacingAndGlyphs" textLength="88" x="116.5" y="1312.7363">informaRimozione()</text><ellipse cx="107.5" cy="1322.9592" fill="#84BE84" rx="3" ry="3" style="stroke: #038048; stroke-width: 1.0;"/><text fill="#000000" font-family="sans-serif" font-size="11" font-style="italic" lengthAdjust="spacingAndGlyphs" textLength="93" x="116.5" y="1327.7182">rimuoviOsservatore()</text><ellipse cx="107.5" cy="1337.9411" fill="#84BE84" rx="3" ry="3" style="stroke: #038048; stroke-width: 1.0;"/><text fill="#000000" font-family="sans-serif" font-size="11" font-style="italic" lengthAdjust="spacingAndGlyphs" textLength="86" x="116.5" y="1342.7">svuotaOsservatori()</text><!--MD5=[c835a16e21403edc9006a215435716b9]
class src.domotix.model.util.ObserverList--><rect fill="#FEFECE" filter="url(#f1e64343jw9s5q)" height="77.9638" id="src.domotix.model.util.ObserverList" style="stroke: #A80036; stroke-width: 1.5;" width="113" x="355.5" y="1242.0317"/><ellipse cx="380.85" cy="1258.0317" fill="#B4A7E5" rx="11" ry="11" style="stroke: #A80036; stroke-width: 1.0;"/><path d="M376.8813,1264.0317 L376.8813,1262.3286 L379.2406,1262.0629 L379.2406,1253.8598 L376.8813,1253.5942 L376.8813,1251.8911 L384.0219,1251.8911 L384.0219,1253.5942 L381.6,1253.8598 L381.6,1262.0629 L384.0219,1262.3286 L384.0219,1264.0317 L376.8813,1264.0317 Z "/><text fill="#000000" font-family="sans-serif" font-size="12" font-style="italic" lengthAdjust="spacingAndGlyphs" textLength="58" x="397.15" y="1262.6877">ObserverList</text><line style="stroke: #A80036; stroke-width: 1.5;" x1="356.5" x2="467.5" y1="1274.0317" y2="1274.0317"/><line style="stroke: #A80036; stroke-width: 1.5;" x1="356.5" x2="467.5" y1="1282.0317" y2="1282.0317"/><ellipse cx="366.5" cy="1293.0317" fill="#84BE84" rx="3" ry="3" style="stroke: #038048; stroke-width: 1.0;"/><text fill="#000000" font-family="sans-serif" font-size="11" font-style="italic" lengthAdjust="spacingAndGlyphs" textLength="82" x="375.5" y="1297.7906">elaboraAggiunta()</text><ellipse cx="366.5" cy="1308.0136" fill="#84BE84" rx="3" ry="3" style="stroke: #038048; stroke-width: 1.0;"/><text fill="#000000" font-family="sans-serif" font-size="11" font-style="italic" lengthAdjust="spacingAndGlyphs" textLength="87" x="375.5" y="1312.7725">elaboraRimozione()</text><!--MD5=[f026e8bbc4cdf0765818bf3378b7b221]
class src.domotix.model.util.SommarioDispositivi--><rect fill="#FEFECE" filter="url(#f1e64343jw9s5q)" height="167.8551" id="src.domotix.model.util.SommarioDispositivi" style="stroke: #A80036; stroke-width: 1.5;" width="177" x="323.5" y="409.5317"/><ellipse cx="354.7" cy="425.5317" fill="#ADD1B2" rx="11" ry="11" style="stroke: #A80036; stroke-width: 1.0;"/><path d="M354.6688,431.7036 Q352.9188,431.7036 351.7781,430.9692 Q350.6531,430.2192 350.0906,428.8754 Q349.5438,427.5161 349.5438,425.7192 Q349.5438,423.6879 350.2,422.2348 Q350.8563,420.7817 352.1375,420.0004 Q353.4188,419.2192 355.2938,419.2192 Q356.1844,419.2192 356.8563,419.4067 Q357.5281,419.5786 358.2156,419.9223 L357.4031,421.9379 Q356.7781,421.6254 356.2313,421.5004 Q355.7,421.3754 355.2156,421.3754 Q354.0438,421.3754 353.3406,421.9067 Q352.6375,422.4379 352.3406,423.3911 Q352.0438,424.3442 352.0438,425.6098 Q352.0438,427.6254 352.7625,428.5942 Q353.4813,429.5473 355.075,429.5473 Q355.6688,429.5473 356.2938,429.3911 Q356.9188,429.2348 357.7469,428.8598 L357.7469,431.0786 Q357.0125,431.3911 356.2156,431.5473 Q355.4344,431.7036 354.6688,431.7036 Z "/><text fill="#000000" font-family="sans-serif" font-size="12" lengthAdjust="spacingAndGlyphs" textLength="109" x="372.3" y="430.1877">SommarioDispositivi</text><line style="stroke: #A80036; stroke-width: 1.5;" x1="324.5" x2="499.5" y1="441.5317" y2="441.5317"/><rect fill="none" height="6" style="stroke: #C82930; stroke-width: 1.0;" width="6" x="331.5" y="449.5317"/><text fill="#000000" font-family="sans-serif" font-size="11" lengthAdjust="spacingAndGlyphs" textLength="151" x="343.5" y="457.2906">elenco : Map&lt;String, Dispositivo&gt;</text><line style="stroke: #A80036; stroke-width: 1.5;" x1="324.5" x2="499.5" y1="464.5136" y2="464.5136"/><ellipse cx="334.5" cy="475.5136" fill="#84BE84" rx="3" ry="3" style="stroke: #038048; stroke-width: 1.0;"/><text fill="#000000" font-family="sans-serif" font-size="11" lengthAdjust="spacingAndGlyphs" textLength="102" x="343.5" y="480.2725">SommarioDispositivi()</text><ellipse cx="334.5" cy="490.4955" fill="#84BE84" rx="3" ry="3" style="stroke: #038048; stroke-width: 1.0;"/><text fill="#000000" font-family="sans-serif" font-size="11" lengthAdjust="spacingAndGlyphs" textLength="45" x="343.5" y="495.2544">contains()</text><ellipse cx="334.5" cy="505.4774" fill="#84BE84" rx="3" ry="3" style="stroke: #038048; stroke-width: 1.0;"/><text fill="#000000" font-family="sans-serif" font-size="11" lengthAdjust="spacingAndGlyphs" textLength="84" x="343.5" y="510.2363">elaboraAggiunta()</text><ellipse cx="334.5" cy="520.4592" fill="#84BE84" rx="3" ry="3" style="stroke: #038048; stroke-width: 1.0;"/><text fill="#000000" font-family="sans-serif" font-size="11" lengthAdjust="spacingAndGlyphs" textLength="91" x="343.5" y="525.2182">elaboraRimozione()</text><ellipse cx="334.5" cy="535.4411" fill="#84BE84" rx="3" ry="3" style="stroke: #038048; stroke-width: 1.0;"/><text fill="#000000" font-family="sans-serif" font-size="11" lengthAdjust="spacingAndGlyphs" textLength="67" x="343.5" y="540.2">getDispositivi()</text><ellipse cx="334.5" cy="550.423" fill="#84BE84" rx="3" ry="3" style="stroke: #038048; stroke-width: 1.0;"/><text fill="#000000" font-family="sans-serif" font-size="11" lengthAdjust="spacingAndGlyphs" textLength="71" x="343.5" y="555.1819">getDispositivo()</text><ellipse cx="334.5" cy="565.4049" fill="#84BE84" rx="3" ry="3" style="stroke: #038048; stroke-width: 1.0;"/><text fill="#000000" font-family="sans-serif" font-size="11" lengthAdjust="spacingAndGlyphs" textLength="42" x="343.5" y="570.1638">toString()</text><!--MD5=[f67fb4e3905c8432ac91b9b41799d1a0]
class src.domotix.model.bean.device.Dispositivo--><rect fill="#FEFECE" filter="url(#f1e64343jw9s5q)" height="48" id="src.domotix.model.bean.device.Dispositivo" style="stroke: #A80036; stroke-width: 1.5;" width="85" x="879.5" y="1041.0317"/><ellipse cx="894.5" cy="1057.0317" fill="#A9DCDF" rx="11" ry="11" style="stroke: #A80036; stroke-width: 1.0;"/><path d="M889.6719,1062.2817 L893.0156,1050.0942 L896.1563,1050.0942 L899.5313,1062.2817 L897.0625,1062.2817 L896.3281,1059.2661 L892.8125,1059.2661 L892.0625,1062.2817 L889.6719,1062.2817 Z M894.0781,1054.2348 L893.3281,1057.2348 L895.8438,1057.2348 L895.125,1054.2348 Q894.9844,1053.6567 894.8594,1053.1098 Q894.7344,1052.5473 894.5938,1051.9692 Q894.4844,1052.5473 894.3438,1053.1098 Q894.2031,1053.6567 894.0781,1054.2348 Z "/><text fill="#000000" font-family="sans-serif" font-size="12" font-style="italic" lengthAdjust="spacingAndGlyphs" textLength="53" x="908.5" y="1061.6877">Dispositivo</text><line style="stroke: #A80036; stroke-width: 1.5;" x1="880.5" x2="963.5" y1="1073.0317" y2="1073.0317"/><line style="stroke: #A80036; stroke-width: 1.5;" x1="880.5" x2="963.5" y1="1081.0317" y2="1081.0317"/><!--MD5=[ef8f86d58e9373d1ef66aa0ce637b6f6]
link src.domotix.model.util.ElencoDispositivi to src.domotix.model.util.ObservableList--><path d="M159,652.5393 C159,735.9148 159,839.7396 159,932.5317 C159,932.5317 159,932.5317 159,1150.5317 C159,1163.7714 159,1177.7668 159,1191.4828 " fill="none" id="src.domotix.model.util.ElencoDispositivi-&gt;src.domotix.model.util.ObservableList" style="stroke: #A80036; stroke-width: 1.0; stroke-dasharray: 7.0,7.0;"/><polygon fill="none" points="166.0001,1191.9505,159,1211.9505,152.0001,1191.9505,166.0001,1191.9505" style="stroke: #A80036; stroke-width: 1.0;"/><!--MD5=[68da0f5f016ac79ea1833994c05252b4]
link src.domotix.model.util.SommarioDispositivi to src.domotix.model.util.ObserverList--><path d="M412,577.6909 C412,666.0611 412,809.0629 412,932.5317 C412,932.5317 412,932.5317 412,1150.5317 C412,1173.796 412,1199.3931 412,1221.7087 " fill="none" id="src.domotix.model.util.SommarioDispositivi-&gt;src.domotix.model.util.ObserverList" style="stroke: #A80036; stroke-width: 1.0; stroke-dasharray: 7.0,7.0;"/><polygon fill="none" points="419.0001,1221.9153,412,1241.9153,405.0001,1221.9153,419.0001,1221.9153" style="stroke: #A80036; stroke-width: 1.0;"/><!--MD5=[efa6025492d523550858f7107db04730]
link src.domotix.model.util.ElencoDispositivi to src.domotix.model.bean.device.Dispositivo--><path d="M190.0415,664.2222 C190.0415,664.2222 247.1513,812.3783 306,862.0317 C330.1843,882.4372 836.6099,963.5724 863,981.0317 C880.8203,992.8214 894.8902,1011.9934 904.8137,1029.0465 " fill="none" id="src.domotix.model.util.ElencoDispositivi-src.domotix.model.bean.device.Dispositivo" style="stroke: #A80036; stroke-width: 1.0;"/><polygon fill="#A80036" points="911.301,1040.9535,910.5075,1031.1366,908.9088,1036.5629,903.4826,1034.9642,911.301,1040.9535" style="stroke: #A80036; stroke-width: 1.0;"/><line style="stroke: #A80036; stroke-width: 1.0;" x1="908.9088" x2="905.0814" y1="1036.5629" y2="1029.5379"/><polygon fill="#FFFFFF" points="186.6785,652.7031,184.5203,659.5837,190.0415,664.2222,192.1997,657.3416,186.6785,652.7031" style="stroke: #A80036; stroke-width: 1.0;"/><text fill="#000000" font-family="sans-serif" font-size="13" lengthAdjust="spacingAndGlyphs" textLength="38" x="684" y="937.9287">elenco</text><text fill="#000000" font-family="sans-serif" font-size="13" lengthAdjust="spacingAndGlyphs" textLength="7" x="180.7741" y="674.2211">*</text><text fill="#000000" font-family="sans-serif" font-size="13" lengthAdjust="spacingAndGlyphs" textLength="7" x="900.485" y="1029.19">1</text><!--MD5=[b4d333c79e3c4e8e28289dc94a1764de]
link src.domotix.model.util.SommarioDispositivi to src.domotix.model.bean.device.Dispositivo--><path d="M413.4984,589.8171 C413.4984,589.8171 443.7272,792.508 518,862.0317 C563.823,904.9247 596.2271,872.8809 656,892.0317 C751.3678,922.5868 785.2743,917.8861 863,981.0317 C879.2502,994.2336 893.0113,1013.0095 903.1453,1029.4628 " fill="none" id="src.domotix.model.util.SommarioDispositivi-src.domotix.model.bean.device.Dispositivo" style="stroke: #A80036; stroke-width: 1.0;"/><polygon fill="#A80036" points="909.8672,1040.92,908.763,1031.1332,907.337,1036.6074,901.8629,1035.1815,909.8672,1040.92" style="stroke: #A80036; stroke-width: 1.0;"/><line style="stroke: #A80036; stroke-width: 1.0;" x1="907.337" x2="903.2887" y1="1036.6074" y2="1029.7073"/><polygon fill="#FFFFFF" points="412.632,577.8484,409.0756,584.1215,413.4984,589.8171,417.0547,583.5439,412.632,577.8484" style="stroke: #A80036; stroke-width: 1.0;"/><text fill="#000000" font-family="sans-serif" font-size="13" lengthAdjust="spacingAndGlyphs" textLength="38" x="807" y="937.9287">elenco</text><text fill="#000000" font-family="sans-serif" font-size="13" lengthAdjust="spacingAndGlyphs" textLength="7" x="405.4035" y="599.1756">*</text><text fill="#000000" font-family="sans-serif" font-size="13" lengthAdjust="spacingAndGlyphs" textLength="7" x="907.5471" y="1029.1475">1</text><!--MD5=[8c3e9335d527cc4cb127aa8465abeaf8]
@startuml

title __DOMOTIX > MODEL > UTIL's Class Diagram__\n

namespace src.domotix.model {
    namespace util {
        class src.domotix.model.util.Costanti {
            {static} + NODO_XML_ARTEFATTO : String
            {static} + NODO_XML_ARTEFATTO_ATTUATORE : String
            {static} + NODO_XML_ARTEFATTO_NOME : String
            {static} + NODO_XML_ARTEFATTO_SENSORE : String
            {static} + NODO_XML_ARTEFATTO_UNITA_IMMOB : String
            {static} + NODO_XML_ATTUATORE : String
            {static} + NODO_XML_ATTUATORE_CATEGORIA : String
            {static} + NODO_XML_ATTUATORE_MODALITA : String
            {static} + NODO_XML_ATTUATORE_NOME : String
            {static} + NODO_XML_ATTUATORE_STATO : String
            {static} + NODO_XML_CATEGORIA_ATTUATORE : String
            {static} + NODO_XML_CATEGORIA_ATTUATORE_MODALITA : String
            {static} + NODO_XML_CATEGORIA_ATTUATORE_NOME : String
            {static} + NODO_XML_CATEGORIA_ATTUATORE_TESTOLIBERO : String
            {static} + NODO_XML_CATEGORIA_SENSORE : String
            {static} + NODO_XML_CATEGORIA_SENSORE_INFORILEVABILE : String
            {static} + NODO_XML_CATEGORIA_SENSORE_NOME : String
            {static} + NODO_XML_CATEGORIA_SENSORE_TESTOLIBERO : String
            {static} + NODO_XML_MODALITA : String
            {static} + NODO_XML_MODALITA_NOME : String
            {static} + NODO_XML_SENSORE : String
            {static} + NODO_XML_SENSORE_CATEGORIA : String
            {static} + NODO_XML_SENSORE_NOME : String
            {static} + NODO_XML_SENSORE_STATO : String
            {static} + NODO_XML_SENSORE_VALORE : String
            {static} + NODO_XML_STANZA : String
            {static} + NODO_XML_STANZA_ARTEFATTO : String
            {static} + NODO_XML_STANZA_ATTUATORE : String
            {static} + NODO_XML_STANZA_NOME : String
            {static} + NODO_XML_STANZA_SENSORE : String
            {static} + NODO_XML_STANZA_UNITA_IMMOB : String
            {static} + NODO_XML_UNITA_IMMOB : String
            {static} + NODO_XML_UNITA_IMMOB_NOME : String
            {static} + NODO_XML_UNITA_IMMOB_STANZA : String
            {static} + NOME_CARTELLA_ARTEFATTI : String
            {static} + NOME_CARTELLA_MODALITA : String
            {static} + NOME_CARTELLA_STANZE : String
            {static} + PERCORSO_CARTELLA_APP : String
            {static} + PERCORSO_CARTELLA_ATTUATORI : String
            {static} + PERCORSO_CARTELLA_CATEGORIE_ATTUATORI : String
            {static} + PERCORSO_CARTELLA_CATEGORIE_SENSORI : String
            {static} + PERCORSO_CARTELLA_DATI : String
            {static} + PERCORSO_CARTELLA_SENSORI : String
            {static} + PERCORSO_CARTELLA_UNITA_IMMOB : String
            {static} + PERCORSO_RADICE_UTENTE : String
            - Costanti()
        }

        class src.domotix.model.util.ElencoDispositivi {
            - elenco : Map<String, Dispositivo>
            - osservatori : ArrayList<ObserverList<Dispositivo>>
            + ElencoDispositivi()
            + ElencoDispositivi()
            + add()
            + add()
            + aggiungiOsservatore()
            + contains()
            + getDispositivi()
            + getDispositivo()
            + getOsservatori()
            + informaAggiunta()
            + informaRimozione()
            + remove()
            + remove()
            + rimuoviOsservatore()
            + svuotaOsservatori()
            + toString()
        }

        interface src.domotix.model.util.ObservableList {
            {abstract} + aggiungiOsservatore()
            {abstract} + getOsservatori()
            {abstract} + informaAggiunta()
            {abstract} + informaRimozione()
            {abstract} + rimuoviOsservatore()
            {abstract} + svuotaOsservatori()
        }

        interface src.domotix.model.util.ObserverList {
            {abstract} + elaboraAggiunta()
            {abstract} + elaboraRimozione()
        }

        class src.domotix.model.util.SommarioDispositivi {
            - elenco : Map<String, Dispositivo>
            + SommarioDispositivi()
            + contains()
            + elaboraAggiunta()
            + elaboraRimozione()
            + getDispositivi()
            + getDispositivo()
            + toString()
        }
    }

    namespace bean {
        namespace device {
            abstract class Dispositivo {
            }
        }
    }
}



src.domotix.model.util.ElencoDispositivi ..|> src.domotix.model.util.ObservableList
src.domotix.model.util.SommarioDispositivi ..|> src.domotix.model.util.ObserverList
src.domotix.model.util.ElencoDispositivi "*" o- -> "1" src.domotix.model.bean.device.Dispositivo : elenco
src.domotix.model.util.SommarioDispositivi "*" o- -> "1" src.domotix.model.bean.device.Dispositivo : elenco

@enduml

PlantUML version 1.2019.11(Sun Sep 22 12:02:15 CEST 2019)
(GPL source distribution)
Java Runtime: OpenJDK Runtime Environment
JVM: OpenJDK 64-Bit Server VM
Java Version: 11.0.3+12-b304.10
Operating System: Linux
Default Encoding: UTF-8
Language: it
Country: IT
--></g></svg>