<?xml version="1.0" encoding="UTF-8" standalone="no"?><svg xmlns="http://www.w3.org/2000/svg" xmlns:xlink="http://www.w3.org/1999/xlink" contentScriptType="application/ecmascript" contentStyleType="text/css" height="324.6px" preserveAspectRatio="none" style="width:769px;height:324px;" version="1.1" viewBox="0 0 769 324" width="769.2px" zoomAndPan="magnify"><defs><filter height="300%" id="f1a6wz9msaywqy" width="300%" x="-1" y="-1"><feGaussianBlur result="blurOut" stdDeviation="1.2"/><feColorMatrix in="blurOut" result="blurOut2" type="matrix" values="0 0 0 0 0 0 0 0 0 0 0 0 0 0 0 0 0 0 .4 0"/><feOffset dx="2.4" dy="2.4" in="blurOut2" result="blurOut3"/><feBlend in="SourceGraphic" in2="blurOut3" mode="normal"/></filter></defs><g><text fill="#000000" font-family="sans-serif" font-size="10.8" lengthAdjust="spacingAndGlyphs" text-decoration="underline" textLength="145.2" x="313.2" y="11.5451">DOMOTIX's Package Diagram</text><text fill="#000000" font-family="sans-serif" font-size="10.8" lengthAdjust="spacingAndGlyphs" textLength="0" x="387" y="26.2546"/><!--MD5=[c60679dfbe80eab0cae5e3add7b10464]
cluster src--><polygon fill="#FFFFFF" filter="url(#f1a6wz9msaywqy)" points="8.4,39.019,23.4,39.019,27.6,54.0598,756,54.0598,756,317.419,8.4,317.419,8.4,39.019" style="stroke: #000000; stroke-width: 0.8999999999999999;"/><line style="stroke: #000000; stroke-width: 0.8999999999999999;" x1="8.4" x2="27.6" y1="54.0598" y2="54.0598"/><text fill="#000000" font-family="sans-serif" font-size="8.4" font-weight="bold" lengthAdjust="spacingAndGlyphs" textLength="11.4" x="10.8" y="49.1986">src</text><!--MD5=[bb38664712876dc0f9c80197a3e7dfd4]
cluster src.domotix--><polygon fill="#FFFFFF" filter="url(#f1a6wz9msaywqy)" points="13.2,57.019,49.8,57.019,54,72.0598,751.2,72.0598,751.2,312.619,13.2,312.619,13.2,57.019" style="stroke: #000000; stroke-width: 0.8999999999999999;"/><line style="stroke: #000000; stroke-width: 0.8999999999999999;" x1="13.2" x2="54" y1="72.0598" y2="72.0598"/><text fill="#000000" font-family="sans-serif" font-size="8.4" font-weight="bold" lengthAdjust="spacingAndGlyphs" textLength="33" x="15.6" y="67.1986">domotix</text><!--MD5=[e3c3ae39643e55df7c1a0329eec479c9]
cluster src.domotix.controller--><polygon fill="#FFFFFF" filter="url(#f1a6wz9msaywqy)" points="187.2,75.019,230.4,75.019,234.6,90.0598,244.2,90.0598,244.2,132.619,187.2,132.619,187.2,75.019" style="stroke: #000000; stroke-width: 0.8999999999999999;"/><line style="stroke: #000000; stroke-width: 0.8999999999999999;" x1="187.2" x2="234.6" y1="90.0598" y2="90.0598"/><text fill="#000000" font-family="sans-serif" font-size="8.4" font-weight="bold" lengthAdjust="spacingAndGlyphs" textLength="39.6" x="189.6" y="85.1986">controller</text><!--MD5=[0a790ac5fdecc1ec79658b6b98c9068e]
cluster src.domotix.model--><polygon fill="#FFFFFF" filter="url(#f1a6wz9msaywqy)" points="18,137.419,46.2,137.419,50.4,152.4598,354,152.4598,354,293.419,18,293.419,18,137.419" style="stroke: #000000; stroke-width: 0.8999999999999999;"/><line style="stroke: #000000; stroke-width: 0.8999999999999999;" x1="18" x2="50.4" y1="152.4598" y2="152.4598"/><text fill="#000000" font-family="sans-serif" font-size="8.4" font-weight="bold" lengthAdjust="spacingAndGlyphs" textLength="24.6" x="20.4" y="147.5986">model</text><!--MD5=[93ef5217795d11f1e60750ff284ef631]
cluster src.domotix.model.bean--><polygon fill="#FFFFFF" filter="url(#f1a6wz9msaywqy)" points="220.8,155.419,244.2,155.419,248.4,170.4598,349.2,170.4598,349.2,213.019,220.8,213.019,220.8,155.419" style="stroke: #000000; stroke-width: 0.8999999999999999;"/><line style="stroke: #000000; stroke-width: 0.8999999999999999;" x1="220.8" x2="248.4" y1="170.4598" y2="170.4598"/><text fill="#000000" font-family="sans-serif" font-size="8.4" font-weight="bold" lengthAdjust="spacingAndGlyphs" textLength="19.8" x="223.2" y="165.5986">bean</text><!--MD5=[0e0938f83e9bbe27eae79b87f83bd155]
cluster src.domotix.model.io--><polygon fill="#FFFFFF" filter="url(#f1a6wz9msaywqy)" points="129.6,155.419,140.4,155.419,144.6,170.4598,209.4,170.4598,209.4,213.019,129.6,213.019,129.6,155.419" style="stroke: #000000; stroke-width: 0.8999999999999999;"/><line style="stroke: #000000; stroke-width: 0.8999999999999999;" x1="129.6" x2="144.6" y1="170.4598" y2="170.4598"/><text fill="#000000" font-family="sans-serif" font-size="8.4" font-weight="bold" lengthAdjust="spacingAndGlyphs" textLength="7.2" x="132" y="165.5986">io</text><!--MD5=[8e0e0f0c97ec05372c8c81240809cf06]
cluster src.domotix.view--><polygon fill="#FFFFFF" filter="url(#f1a6wz9msaywqy)" points="361.2,137.419,382.8,137.419,387,152.4598,746.4,152.4598,746.4,307.819,361.2,307.819,361.2,137.419" style="stroke: #000000; stroke-width: 0.8999999999999999;"/><line style="stroke: #000000; stroke-width: 0.8999999999999999;" x1="361.2" x2="387" y1="152.4598" y2="152.4598"/><text fill="#000000" font-family="sans-serif" font-size="8.4" font-weight="bold" lengthAdjust="spacingAndGlyphs" textLength="18" x="363.6" y="147.5986">view</text><!--MD5=[a270aa123fc17553ce95095edea6af5c]
cluster src.domotix.view.menus--><polygon fill="#FFFFFF" filter="url(#f1a6wz9msaywqy)" points="370.8,155.419,401.4,155.419,405.6,170.4598,741.6,170.4598,741.6,303.019,370.8,303.019,370.8,155.419" style="stroke: #000000; stroke-width: 0.8999999999999999;"/><line style="stroke: #000000; stroke-width: 0.8999999999999999;" x1="370.8" x2="405.6" y1="170.4598" y2="170.4598"/><text fill="#000000" font-family="sans-serif" font-size="8.4" font-weight="bold" lengthAdjust="spacingAndGlyphs" textLength="27" x="373.2" y="165.5986">menus</text><!--MD5=[171676647ca269d82cf939774b48600f]
cluster src.domotix.view.menus.menuCategorie--><polygon fill="#FFFFFF" filter="url(#f1a6wz9msaywqy)" points="375.6,235.819,441,235.819,445.2,250.8598,516.6,250.8598,516.6,293.419,375.6,293.419,375.6,235.819" style="stroke: #000000; stroke-width: 0.8999999999999999;"/><line style="stroke: #000000; stroke-width: 0.8999999999999999;" x1="375.6" x2="445.2" y1="250.8598" y2="250.8598"/><text fill="#000000" font-family="sans-serif" font-size="8.4" font-weight="bold" lengthAdjust="spacingAndGlyphs" textLength="61.8" x="378" y="245.9986">menuCategorie</text><!--MD5=[00517f9916d116c0c4ccaffe7c1b1d29]
cluster src.domotix.view.menus.menuUnita--><polygon fill="#FFFFFF" filter="url(#f1a6wz9msaywqy)" points="528,217.819,577.2,217.819,581.4,232.8598,736.8,232.8598,736.8,298.219,528,298.219,528,217.819" style="stroke: #000000; stroke-width: 0.8999999999999999;"/><line style="stroke: #000000; stroke-width: 0.8999999999999999;" x1="528" x2="581.4" y1="232.8598" y2="232.8598"/><text fill="#000000" font-family="sans-serif" font-size="8.4" font-weight="bold" lengthAdjust="spacingAndGlyphs" textLength="45.6" x="530.4" y="227.9986">menuUnita</text><!--MD5=[0b88bf459b025cc91fe46fa2e5935608]
cluster src.domotix.view.menus.menuUnita.gestioneStanza--><polygon fill="#FFFFFF" filter="url(#f1a6wz9msaywqy)" points="638.4,235.819,702.6,235.819,706.8,250.8598,732,250.8598,732,293.419,638.4,293.419,638.4,235.819" style="stroke: #000000; stroke-width: 0.8999999999999999;"/><line style="stroke: #000000; stroke-width: 0.8999999999999999;" x1="638.4" x2="706.8" y1="250.8598" y2="250.8598"/><text fill="#000000" font-family="sans-serif" font-size="8.4" font-weight="bold" lengthAdjust="spacingAndGlyphs" textLength="60.6" x="640.8" y="245.9986">gestioneStanza</text><polygon fill="#FFFFFF" filter="url(#f1a6wz9msaywqy)" points="192.3,93.019,209.7,93.019,213.9,108.0598,218.1,108.0598,218.1,127.9005,192.3,127.9005,192.3,93.019" style="stroke: #000000; stroke-width: 0.8999999999999999;"/><line style="stroke: #000000; stroke-width: 0.8999999999999999;" x1="192.3" x2="213.9" y1="108.0598" y2="108.0598"/><text fill="#000000" font-family="sans-serif" font-size="8.4" font-weight="bold" lengthAdjust="spacingAndGlyphs" textLength="13.8" x="194.7" y="103.1986">util</text><polygon fill="#FFFFFF" filter="url(#f1a6wz9msaywqy)" points="286.2,173.419,315,173.419,319.2,188.4598,323.4,188.4598,323.4,208.3005,286.2,208.3005,286.2,173.419" style="stroke: #000000; stroke-width: 0.8999999999999999;"/><line style="stroke: #000000; stroke-width: 0.8999999999999999;" x1="286.2" x2="319.2" y1="188.4598" y2="188.4598"/><text fill="#000000" font-family="sans-serif" font-size="8.4" font-weight="bold" lengthAdjust="spacingAndGlyphs" textLength="25.2" x="288.6" y="183.5986">device</text><polygon fill="#FFFFFF" filter="url(#f1a6wz9msaywqy)" points="225.6,173.419,256.8,173.419,261,188.4598,265.2,188.4598,265.2,208.3005,225.6,208.3005,225.6,173.419" style="stroke: #000000; stroke-width: 0.8999999999999999;"/><line style="stroke: #000000; stroke-width: 0.8999999999999999;" x1="225.6" x2="261" y1="188.4598" y2="188.4598"/><text fill="#000000" font-family="sans-serif" font-size="8.4" font-weight="bold" lengthAdjust="spacingAndGlyphs" textLength="27.6" x="228" y="183.5986">system</text><polygon fill="#FFFFFF" filter="url(#f1a6wz9msaywqy)" points="23.1,173.419,83.7,173.419,87.9,188.4598,92.1,188.4598,92.1,208.3005,23.1,208.3005,23.1,173.419" style="stroke: #000000; stroke-width: 0.8999999999999999;"/><line style="stroke: #000000; stroke-width: 0.8999999999999999;" x1="23.1" x2="87.9" y1="188.4598" y2="188.4598"/><text fill="#000000" font-family="sans-serif" font-size="8.4" font-weight="bold" lengthAdjust="spacingAndGlyphs" textLength="57" x="25.5" y="183.5986">gestioneerrori</text><polygon fill="#FFFFFF" filter="url(#f1a6wz9msaywqy)" points="134.7,173.419,174.9,173.419,179.1,188.4598,183.3,188.4598,183.3,208.3005,134.7,208.3005,134.7,173.419" style="stroke: #000000; stroke-width: 0.8999999999999999;"/><line style="stroke: #000000; stroke-width: 0.8999999999999999;" x1="134.7" x2="179.1" y1="188.4598" y2="188.4598"/><text fill="#000000" font-family="sans-serif" font-size="8.4" font-weight="bold" lengthAdjust="spacingAndGlyphs" textLength="36.6" x="137.1" y="183.5986">datilocali</text><polygon fill="#FFFFFF" filter="url(#f1a6wz9msaywqy)" points="257.1,253.819,274.5,253.819,278.7,268.8598,282.9,268.8598,282.9,288.7005,257.1,288.7005,257.1,253.819" style="stroke: #000000; stroke-width: 0.8999999999999999;"/><line style="stroke: #000000; stroke-width: 0.8999999999999999;" x1="257.1" x2="278.7" y1="268.8598" y2="268.8598"/><text fill="#000000" font-family="sans-serif" font-size="8.4" font-weight="bold" lengthAdjust="spacingAndGlyphs" textLength="13.8" x="259.5" y="263.9986">util</text><polygon fill="#FFFFFF" filter="url(#f1a6wz9msaywqy)" points="529.5,173.419,596.1,173.419,600.3,188.4598,604.5,188.4598,604.5,208.3005,529.5,208.3005,529.5,173.419" style="stroke: #000000; stroke-width: 0.8999999999999999;"/><line style="stroke: #000000; stroke-width: 0.8999999999999999;" x1="529.5" x2="600.3" y1="188.4598" y2="188.4598"/><text fill="#000000" font-family="sans-serif" font-size="8.4" font-weight="bold" lengthAdjust="spacingAndGlyphs" textLength="63" x="531.9" y="183.5986">menuPrincipale</text><polygon fill="#FFFFFF" filter="url(#f1a6wz9msaywqy)" points="441.9,253.819,482.1,253.819,486.3,268.8598,490.5,268.8598,490.5,288.7005,441.9,288.7005,441.9,253.819" style="stroke: #000000; stroke-width: 0.8999999999999999;"/><line style="stroke: #000000; stroke-width: 0.8999999999999999;" x1="441.9" x2="486.3" y1="268.8598" y2="268.8598"/><text fill="#000000" font-family="sans-serif" font-size="8.4" font-weight="bold" lengthAdjust="spacingAndGlyphs" textLength="36.6" x="444.3" y="263.9986">attuatori</text><polygon fill="#FFFFFF" filter="url(#f1a6wz9msaywqy)" points="380.7,253.819,412.5,253.819,416.7,268.8598,420.9,268.8598,420.9,288.7005,380.7,288.7005,380.7,253.819" style="stroke: #000000; stroke-width: 0.8999999999999999;"/><line style="stroke: #000000; stroke-width: 0.8999999999999999;" x1="380.7" x2="416.7" y1="268.8598" y2="268.8598"/><text fill="#000000" font-family="sans-serif" font-size="8.4" font-weight="bold" lengthAdjust="spacingAndGlyphs" textLength="28.2" x="383.1" y="263.9986">sensori</text><polygon fill="#FFFFFF" filter="url(#f1a6wz9msaywqy)" points="532.8,253.819,592.8,253.819,597,268.8598,601.2,268.8598,601.2,288.7005,532.8,288.7005,532.8,253.819" style="stroke: #000000; stroke-width: 0.8999999999999999;"/><line style="stroke: #000000; stroke-width: 0.8999999999999999;" x1="532.8" x2="597" y1="268.8598" y2="268.8598"/><text fill="#000000" font-family="sans-serif" font-size="8.4" font-weight="bold" lengthAdjust="spacingAndGlyphs" textLength="56.4" x="535.2" y="263.9986">gestioneUnita</text><polygon fill="#FFFFFF" filter="url(#f1a6wz9msaywqy)" points="643.5,253.819,718.5,253.819,722.7,268.8598,726.9,268.8598,726.9,288.7005,643.5,288.7005,643.5,253.819" style="stroke: #000000; stroke-width: 0.8999999999999999;"/><line style="stroke: #000000; stroke-width: 0.8999999999999999;" x1="643.5" x2="722.7" y1="268.8598" y2="268.8598"/><text fill="#000000" font-family="sans-serif" font-size="8.4" font-weight="bold" lengthAdjust="spacingAndGlyphs" textLength="71.4" x="645.9" y="263.9986">gestioneArtefatto</text><!--MD5=[8ddc12df180846b066779e03296326e1]
link src.domotix.controller to src.domotix.model--><path d="M228.6,132.619 C223.778,135.7929 200.0294,135.126 176.3856,134.5991 C164.5637,134.3357 152.768,134.1072 143.3775,134.4114 C138.6822,134.5634 134.5882,134.8486 131.3928,135.3292 C129.7951,135.5694 128.4221,135.8585 127.3109,136.2043 C126.7553,136.3771 126.2652,136.5641 125.8451,136.7663 C125.6351,136.8673 125.4426,136.9722 125.2683,137.0809 C125.1811,137.1353 125.0984,137.1907 125.0203,137.247 C124.9813,137.2752 124.9434,137.3036 124.9067,137.3323 " fill="none" id="src.domotix.controller-&gt;src.domotix.model" style="stroke: #A80036; stroke-width: 0.6;"/><polygon fill="#A80036" points="124.9067,137.3323,130.6401,135.9012,127.2715,135.4862,127.6865,132.1176,124.9067,137.3323" style="stroke: #A80036; stroke-width: 0.6;"/><!--MD5=[d8ea914a3852d2ecfa8eda5b9f3abd2a]
link src.domotix.controller to src.domotix.view--><path d="M244.3835,110.8983 C244.7334,110.9337 245.1,110.9711 245.4825,111.0105 C248.5427,111.3256 252.6249,111.7679 257.42,112.3406 C267.0101,113.4861 279.4522,115.1531 292.2745,117.3672 C317.9192,121.7953 345.0852,128.4115 354,137.419 C356.0387,139.4789 357.7619,141.8059 359.2159,144.3071 C359.5794,144.9325 359.9261,145.5687 360.2566,146.2143 C360.4219,146.5371 360.5832,146.8623 360.7405,147.1897 C360.8192,147.3534 360.8969,147.5176 360.9736,147.6823 C361.0119,147.7647 361.05,147.8472 361.0879,147.9299 " fill="none" id="src.domotix.controller-src.domotix.view" style="stroke: #A80036; stroke-width: 0.6;"/><!--MD5=[c8650f81a4f0beba5d311d4b4b69ec04]
link src.domotix.view.menus.menuPrincipale to src.domotix.view.menus.menuUnita--><path d="M602.8887,208.2262 C604.6191,209.6347 606.271,211.1365 607.8033,212.7344 C608.5694,213.5333 609.3056,214.3563 610.0068,215.2036 C610.3574,215.6273 610.6992,216.057 611.0316,216.4929 C611.1978,216.7109 611.3617,216.9303 611.5231,217.1513 C611.6038,217.2619 611.6839,217.3727 611.7634,217.484 C611.8031,217.5397 611.8427,217.5954 611.8822,217.6512 C611.9019,217.6791 611.9216,217.7071 611.9412,217.7351 C611.951,217.749 611.9608,217.763 611.9706,217.777 " fill="none" id="src.domotix.view.menus.menuPrincipale-&gt;src.domotix.view.menus.menuUnita" style="stroke: #A80036; stroke-width: 0.6;"/><polygon fill="#A80036" points="611.9706,217.777,610.8391,211.9771,610.2498,215.3196,606.9072,214.7304,611.9706,217.777" style="stroke: #A80036; stroke-width: 0.6;"/><!--MD5=[f49858eb874a8bc6cb6f933a28e90376]
link src.domotix.view.menus.menuPrincipale to src.domotix.view.menus.menuCategorie--><path d="M534.9524,208.2599 C529.5688,211.7228 525.1052,215.1182 523.2,217.819 C519.9214,222.4668 517.5534,227.8693 515.8492,233.4174 C515.6362,234.111 515.4336,234.8067 515.2408,235.5036 C515.2167,235.5907 515.1928,235.6779 515.169,235.765 " fill="none" id="src.domotix.view.menus.menuPrincipale-&gt;src.domotix.view.menus.menuCategorie" style="stroke: #A80036; stroke-width: 0.6;"/><polygon fill="#A80036" points="515.169,235.765,518.9063,231.1875,515.959,232.8709,514.2757,229.9236,515.169,235.765" style="stroke: #A80036; stroke-width: 0.6;"/><!--MD5=[73f1edb30235104fd0d83b9c02f707ff]
link src.domotix.model.bean to src.domotix.model.util--><path d="M334.2,213.019 C320.3849,231.8662 299.6987,249.2689 285.5659,260.0412 " fill="none" id="src.domotix.model.bean-&gt;src.domotix.model.util" style="stroke: #A80036; stroke-width: 0.6;"/><polygon fill="#A80036" points="283.0064,261.9743,288.7619,260.6348,285.4003,260.1662,285.8689,256.8046,283.0064,261.9743" style="stroke: #A80036; stroke-width: 0.6;"/><!--MD5=[3dc8bad246f78919e50cb7723d960ba5]
link src.domotix.model.io to src.domotix.model.util--><path d="M209.4389,201.6878 C209.4559,201.722 209.4729,201.7561 209.4899,201.7903 C209.558,201.9271 209.6266,202.0644 209.6957,202.2022 C209.834,202.4777 209.9745,202.755 210.117,203.0338 C210.6872,204.149 211.2906,205.2871 211.9218,206.4234 C213.1842,208.696 214.558,210.961 216,213.019 C227.4194,229.3163 243.1336,245.7423 254.6663,256.9684 " fill="none" id="src.domotix.model.io-&gt;src.domotix.model.util" style="stroke: #A80036; stroke-width: 0.6;"/><polygon fill="#A80036" points="256.9146,259.1426,254.7013,253.6635,254.7581,257.0571,251.3645,257.1139,256.9146,259.1426" style="stroke: #A80036; stroke-width: 0.6;"/><!--MD5=[bb13c868da954616692daf8ad8c06f46]
@startuml

title __DOMOTIX's Package Diagram__\n

namespace src {
    namespace domotix {
        namespace controller {
            namespace util {
            }
        }
        namespace model {
            namespace bean {
                namespace device {
                }
                namespace system {
                }
            }
            namespace gestioneerrori {
            }
            namespace io {
                namespace datilocali {
                }
            }
            namespace util {
            }
        }
        namespace view {
            namespace menus {
                namespace menuPrincipale {
                }
                namespace menuCategorie {
                    namespace attuatori {
                    }
                    namespace sensori {
                    }
                }
                namespace menuUnita {
                    namespace gestioneUnita {
                    }
                    namespace gestioneStanza {
                        namespace gestioneArtefatto {
                        }
                    }
                }
            }
        }
    }
}

src.domotix.controller - -> src.domotix.model
src.domotix.controller - - src.domotix.view
src.domotix.view.menus.menuPrincipale - -> src.domotix.view.menus.menuUnita
src.domotix.view.menus.menuPrincipale - -> src.domotix.view.menus.menuCategorie
src.domotix.model.bean - -> src.domotix.model.util
src.domotix.model.io - -> src.domotix.model.util

@enduml

PlantUML version 1.2019.11(Sun Sep 22 12:02:15 CEST 2019)
(GPL source distribution)
Java Runtime: OpenJDK Runtime Environment
JVM: OpenJDK 64-Bit Server VM
Java Version: 11.0.3+12-b304.10
Operating System: Linux
Default Encoding: UTF-8
Language: it
Country: IT
--></g></svg>