<?xml version="1.0" encoding="UTF-8" standalone="no"?><svg xmlns="http://www.w3.org/2000/svg" xmlns:xlink="http://www.w3.org/1999/xlink" contentScriptType="application/ecmascript" contentStyleType="text/css" height="541px" preserveAspectRatio="none" style="width:1379px;height:541px;" version="1.1" viewBox="0 0 1379 541" width="1379px" zoomAndPan="magnify"><defs><filter height="300%" id="fcsr9sef3alun" width="300%" x="-1" y="-1"><feGaussianBlur result="blurOut" stdDeviation="2.0"/><feColorMatrix in="blurOut" result="blurOut2" type="matrix" values="0 0 0 0 0 0 0 0 0 0 0 0 0 0 0 0 0 0 .4 0"/><feOffset dx="4.0" dy="4.0" in="blurOut2" result="blurOut3"/><feBlend in="SourceGraphic" in2="blurOut3" mode="normal"/></filter></defs><g><text fill="#000000" font-family="sans-serif" font-size="18" lengthAdjust="spacingAndGlyphs" text-decoration="underline" textLength="242" x="570.5" y="19.2419">DOMOTIX's Package Diagram</text><text fill="#000000" font-family="sans-serif" font-size="18" lengthAdjust="spacingAndGlyphs" textLength="0" x="693.5" y="43.7577"/><!--MD5=[c60679dfbe80eab0cae5e3add7b10464]
cluster src--><polygon fill="#FFFFFF" filter="url(#fcsr9sef3alun)" points="14,65.0317,39,65.0317,46,90.0996,1357,90.0996,1357,529.0317,14,529.0317,14,65.0317" style="stroke: #000000; stroke-width: 1.5;"/><line style="stroke: #000000; stroke-width: 1.5;" x1="14" x2="46" y1="90.0996" y2="90.0996"/><text fill="#000000" font-family="sans-serif" font-size="14" font-weight="bold" lengthAdjust="spacingAndGlyphs" textLength="19" x="18" y="81.9976">src</text><!--MD5=[bb38664712876dc0f9c80197a3e7dfd4]
cluster src.domotix--><polygon fill="#FFFFFF" filter="url(#fcsr9sef3alun)" points="22,95.0317,83,95.0317,90,120.0996,1349,120.0996,1349,521.0317,22,521.0317,22,95.0317" style="stroke: #000000; stroke-width: 1.5;"/><line style="stroke: #000000; stroke-width: 1.5;" x1="22" x2="90" y1="120.0996" y2="120.0996"/><text fill="#000000" font-family="sans-serif" font-size="14" font-weight="bold" lengthAdjust="spacingAndGlyphs" textLength="55" x="26" y="111.9976">domotix</text><!--MD5=[e3c3ae39643e55df7c1a0329eec479c9]
cluster src.domotix.controller--><polygon fill="#FFFFFF" filter="url(#fcsr9sef3alun)" points="361,125.0317,433,125.0317,440,150.0996,456,150.0996,456,221.0317,361,221.0317,361,125.0317" style="stroke: #000000; stroke-width: 1.5;"/><line style="stroke: #000000; stroke-width: 1.5;" x1="361" x2="440" y1="150.0996" y2="150.0996"/><text fill="#000000" font-family="sans-serif" font-size="14" font-weight="bold" lengthAdjust="spacingAndGlyphs" textLength="66" x="365" y="141.9976">controller</text><!--MD5=[0a790ac5fdecc1ec79658b6b98c9068e]
cluster src.domotix.model--><polygon fill="#FFFFFF" filter="url(#fcsr9sef3alun)" points="30,229.0317,77,229.0317,84,254.0996,687,254.0996,687,489.0317,30,489.0317,30,229.0317" style="stroke: #000000; stroke-width: 1.5;"/><line style="stroke: #000000; stroke-width: 1.5;" x1="30" x2="84" y1="254.0996" y2="254.0996"/><text fill="#000000" font-family="sans-serif" font-size="14" font-weight="bold" lengthAdjust="spacingAndGlyphs" textLength="41" x="34" y="245.9976">model</text><!--MD5=[93ef5217795d11f1e60750ff284ef631]
cluster src.domotix.model.bean--><polygon fill="#FFFFFF" filter="url(#fcsr9sef3alun)" points="368,259.0317,407,259.0317,414,284.0996,679,284.0996,679,355.0317,368,355.0317,368,259.0317" style="stroke: #000000; stroke-width: 1.5;"/><line style="stroke: #000000; stroke-width: 1.5;" x1="368" x2="414" y1="284.0996" y2="284.0996"/><text fill="#000000" font-family="sans-serif" font-size="14" font-weight="bold" lengthAdjust="spacingAndGlyphs" textLength="33" x="372" y="275.9976">bean</text><!--MD5=[0e0938f83e9bbe27eae79b87f83bd155]
cluster src.domotix.controller.io--><polygon fill="#FFFFFF" filter="url(#fcsr9sef3alun)" points="216,259.0317,234,259.0317,241,284.0996,349,284.0996,349,355.0317,216,355.0317,216,259.0317" style="stroke: #000000; stroke-width: 1.5;"/><line style="stroke: #000000; stroke-width: 1.5;" x1="216" x2="241" y1="284.0996" y2="284.0996"/><text fill="#000000" font-family="sans-serif" font-size="14" font-weight="bold" lengthAdjust="spacingAndGlyphs" textLength="12" x="220" y="275.9976">io</text><!--MD5=[8e0e0f0c97ec05372c8c81240809cf06]
cluster src.domotix.view--><polygon fill="#FFFFFF" filter="url(#fcsr9sef3alun)" points="699,229.0317,735,229.0317,742,254.0996,1341,254.0996,1341,513.0317,699,513.0317,699,229.0317" style="stroke: #000000; stroke-width: 1.5;"/><line style="stroke: #000000; stroke-width: 1.5;" x1="699" x2="742" y1="254.0996" y2="254.0996"/><text fill="#000000" font-family="sans-serif" font-size="14" font-weight="bold" lengthAdjust="spacingAndGlyphs" textLength="30" x="703" y="245.9976">view</text><!--MD5=[a270aa123fc17553ce95095edea6af5c]
cluster src.domotix.view.menus--><polygon fill="#FFFFFF" filter="url(#fcsr9sef3alun)" points="715,259.0317,766,259.0317,773,284.0996,1333,284.0996,1333,505.0317,715,505.0317,715,259.0317" style="stroke: #000000; stroke-width: 1.5;"/><line style="stroke: #000000; stroke-width: 1.5;" x1="715" x2="773" y1="284.0996" y2="284.0996"/><text fill="#000000" font-family="sans-serif" font-size="14" font-weight="bold" lengthAdjust="spacingAndGlyphs" textLength="45" x="719" y="275.9976">menus</text><!--MD5=[171676647ca269d82cf939774b48600f]
cluster src.domotix.view.menus.menuCategorie--><polygon fill="#FFFFFF" filter="url(#fcsr9sef3alun)" points="723,393.0317,832,393.0317,839,418.0996,958,418.0996,958,489.0317,723,489.0317,723,393.0317" style="stroke: #000000; stroke-width: 1.5;"/><line style="stroke: #000000; stroke-width: 1.5;" x1="723" x2="839" y1="418.0996" y2="418.0996"/><text fill="#000000" font-family="sans-serif" font-size="14" font-weight="bold" lengthAdjust="spacingAndGlyphs" textLength="103" x="727" y="409.9976">menuCategorie</text><!--MD5=[00517f9916d116c0c4ccaffe7c1b1d29]
cluster src.domotix.view.menus.menuUnita--><polygon fill="#FFFFFF" filter="url(#fcsr9sef3alun)" points="977,363.0317,1059,363.0317,1066,388.0996,1325,388.0996,1325,497.0317,977,497.0317,977,363.0317" style="stroke: #000000; stroke-width: 1.5;"/><line style="stroke: #000000; stroke-width: 1.5;" x1="977" x2="1066" y1="388.0996" y2="388.0996"/><text fill="#000000" font-family="sans-serif" font-size="14" font-weight="bold" lengthAdjust="spacingAndGlyphs" textLength="76" x="981" y="379.9976">menuUnita</text><!--MD5=[0b88bf459b025cc91fe46fa2e5935608]
cluster src.domotix.view.menus.menuUnita.gestioneStanza--><polygon fill="#FFFFFF" filter="url(#fcsr9sef3alun)" points="1161,393.0317,1268,393.0317,1275,418.0996,1317,418.0996,1317,489.0317,1161,489.0317,1161,393.0317" style="stroke: #000000; stroke-width: 1.5;"/><line style="stroke: #000000; stroke-width: 1.5;" x1="1161" x2="1275" y1="418.0996" y2="418.0996"/><text fill="#000000" font-family="sans-serif" font-size="14" font-weight="bold" lengthAdjust="spacingAndGlyphs" textLength="101" x="1165" y="409.9976">gestioneStanza</text><polygon fill="#FFFFFF" filter="url(#fcsr9sef3alun)" points="369.5,155.0317,398.5,155.0317,405.5,180.0996,412.5,180.0996,412.5,213.1675,369.5,213.1675,369.5,155.0317" style="stroke: #000000; stroke-width: 1.5;"/><line style="stroke: #000000; stroke-width: 1.5;" x1="369.5" x2="405.5" y1="180.0996" y2="180.0996"/><text fill="#000000" font-family="sans-serif" font-size="14" font-weight="bold" lengthAdjust="spacingAndGlyphs" textLength="23" x="373.5" y="171.9976">util</text><polygon fill="#FFFFFF" filter="url(#fcsr9sef3alun)" points="574,289.0317,622,289.0317,629,314.0996,636,314.0996,636,347.1675,574,347.1675,574,289.0317" style="stroke: #000000; stroke-width: 1.5;"/><line style="stroke: #000000; stroke-width: 1.5;" x1="574" x2="629" y1="314.0996" y2="314.0996"/><text fill="#000000" font-family="sans-serif" font-size="14" font-weight="bold" lengthAdjust="spacingAndGlyphs" textLength="42" x="578" y="305.9976">device</text><polygon fill="#FFFFFF" filter="url(#fcsr9sef3alun)" points="477,289.0317,525,289.0317,532,314.0996,539,314.0996,539,347.1675,477,347.1675,477,289.0317" style="stroke: #000000; stroke-width: 1.5;"/><line style="stroke: #000000; stroke-width: 1.5;" x1="477" x2="532" y1="314.0996" y2="314.0996"/><text fill="#000000" font-family="sans-serif" font-size="14" font-weight="bold" lengthAdjust="spacingAndGlyphs" textLength="42" x="481" y="305.9976">regole</text><polygon fill="#FFFFFF" filter="url(#fcsr9sef3alun)" points="376,289.0317,428,289.0317,435,314.0996,442,314.0996,442,347.1675,376,347.1675,376,289.0317" style="stroke: #000000; stroke-width: 1.5;"/><line style="stroke: #000000; stroke-width: 1.5;" x1="376" x2="435" y1="314.0996" y2="314.0996"/><text fill="#000000" font-family="sans-serif" font-size="14" font-weight="bold" lengthAdjust="spacingAndGlyphs" textLength="46" x="380" y="305.9976">system</text><polygon fill="#FFFFFF" filter="url(#fcsr9sef3alun)" points="38.5,289.0317,139.5,289.0317,146.5,314.0996,153.5,314.0996,153.5,347.1675,38.5,347.1675,38.5,289.0317" style="stroke: #000000; stroke-width: 1.5;"/><line style="stroke: #000000; stroke-width: 1.5;" x1="38.5" x2="146.5" y1="314.0996" y2="314.0996"/><text fill="#000000" font-family="sans-serif" font-size="14" font-weight="bold" lengthAdjust="spacingAndGlyphs" textLength="95" x="42.5" y="305.9976">gestioneerrori</text><polygon fill="#FFFFFF" filter="url(#fcsr9sef3alun)" points="224.5,289.0317,291.5,289.0317,298.5,314.0996,305.5,314.0996,305.5,347.1675,224.5,347.1675,224.5,289.0317" style="stroke: #000000; stroke-width: 1.5;"/><line style="stroke: #000000; stroke-width: 1.5;" x1="224.5" x2="298.5" y1="314.0996" y2="314.0996"/><text fill="#000000" font-family="sans-serif" font-size="14" font-weight="bold" lengthAdjust="spacingAndGlyphs" textLength="61" x="228.5" y="305.9976">datilocali</text><polygon fill="#FFFFFF" filter="url(#fcsr9sef3alun)" points="477.5,423.0317,506.5,423.0317,513.5,448.0996,520.5,448.0996,520.5,481.1675,477.5,481.1675,477.5,423.0317" style="stroke: #000000; stroke-width: 1.5;"/><line style="stroke: #000000; stroke-width: 1.5;" x1="477.5" x2="513.5" y1="448.0996" y2="448.0996"/><text fill="#000000" font-family="sans-serif" font-size="14" font-weight="bold" lengthAdjust="spacingAndGlyphs" textLength="23" x="481.5" y="439.9976">util</text><polygon fill="#FFFFFF" filter="url(#fcsr9sef3alun)" points="979.5,289.0317,1090.5,289.0317,1097.5,314.0996,1104.5,314.0996,1104.5,347.1675,979.5,347.1675,979.5,289.0317" style="stroke: #000000; stroke-width: 1.5;"/><line style="stroke: #000000; stroke-width: 1.5;" x1="979.5" x2="1097.5" y1="314.0996" y2="314.0996"/><text fill="#000000" font-family="sans-serif" font-size="14" font-weight="bold" lengthAdjust="spacingAndGlyphs" textLength="105" x="983.5" y="305.9976">menuPrincipale</text><polygon fill="#FFFFFF" filter="url(#fcsr9sef3alun)" points="833.5,423.0317,900.5,423.0317,907.5,448.0996,914.5,448.0996,914.5,481.1675,833.5,481.1675,833.5,423.0317" style="stroke: #000000; stroke-width: 1.5;"/><line style="stroke: #000000; stroke-width: 1.5;" x1="833.5" x2="907.5" y1="448.0996" y2="448.0996"/><text fill="#000000" font-family="sans-serif" font-size="14" font-weight="bold" lengthAdjust="spacingAndGlyphs" textLength="61" x="837.5" y="439.9976">attuatori</text><polygon fill="#FFFFFF" filter="url(#fcsr9sef3alun)" points="731.5,423.0317,784.5,423.0317,791.5,448.0996,798.5,448.0996,798.5,481.1675,731.5,481.1675,731.5,423.0317" style="stroke: #000000; stroke-width: 1.5;"/><line style="stroke: #000000; stroke-width: 1.5;" x1="731.5" x2="791.5" y1="448.0996" y2="448.0996"/><text fill="#000000" font-family="sans-serif" font-size="14" font-weight="bold" lengthAdjust="spacingAndGlyphs" textLength="47" x="735.5" y="439.9976">sensori</text><polygon fill="#FFFFFF" filter="url(#fcsr9sef3alun)" points="985,423.0317,1085,423.0317,1092,448.0996,1099,448.0996,1099,481.1675,985,481.1675,985,423.0317" style="stroke: #000000; stroke-width: 1.5;"/><line style="stroke: #000000; stroke-width: 1.5;" x1="985" x2="1092" y1="448.0996" y2="448.0996"/><text fill="#000000" font-family="sans-serif" font-size="14" font-weight="bold" lengthAdjust="spacingAndGlyphs" textLength="94" x="989" y="439.9976">gestioneUnita</text><polygon fill="#FFFFFF" filter="url(#fcsr9sef3alun)" points="1169.5,423.0317,1294.5,423.0317,1301.5,448.0996,1308.5,448.0996,1308.5,481.1675,1169.5,481.1675,1169.5,423.0317" style="stroke: #000000; stroke-width: 1.5;"/><line style="stroke: #000000; stroke-width: 1.5;" x1="1169.5" x2="1301.5" y1="448.0996" y2="448.0996"/><text fill="#000000" font-family="sans-serif" font-size="14" font-weight="bold" lengthAdjust="spacingAndGlyphs" textLength="119" x="1173.5" y="439.9976">gestioneArtefatto</text><!--MD5=[8ddc12df180846b066779e03296326e1]
link src.domotix.controller to src.domotix.model--><path d="M430,221.0317 C419.6568,227.7642 368.8834,225.7973 318.3324,224.1306 C293.057,223.2973 267.8371,222.5391 247.7545,222.981 C237.7132,223.2019 228.9562,223.7228 222.1187,224.6844 C218.7,225.1652 215.7611,225.7561 213.3815,226.4748 C212.1917,226.8342 211.1418,227.2255 210.2415,227.6509 C209.7914,227.8636 209.3787,228.0848 209.0047,228.3149 C208.8177,228.4299 208.6404,228.5471 208.4729,228.6666 C208.3891,228.7263 208.3078,228.7866 208.229,228.8474 " fill="none" id="src.domotix.controller-&gt;src.domotix.model" style="stroke: #A80036; stroke-width: 1.0;"/><polygon fill="#A80036" points="208.229,228.8474,217.7974,226.5138,212.1868,225.7919,212.9086,220.1813,208.229,228.8474" style="stroke: #A80036; stroke-width: 1.0;"/><!--MD5=[d8ea914a3852d2ecfa8eda5b9f3abd2a]
link src.domotix.controller to src.domotix.view--><path d="M456.2889,184.4062 C457.605,184.4716 459.064,184.5463 460.6561,184.6309 C467.0242,184.9697 475.5195,185.4684 485.5005,186.1672 C505.4624,187.5647 531.3667,189.7625 558.08,193.0821 C611.5066,199.7213 668.169,210.8474 687,229.0317 C690.4746,232.387 693.4052,236.2061 695.872,240.3308 C696.4887,241.362 697.0765,242.4123 697.6365,243.4792 C697.9164,244.0127 698.1895,244.5503 698.4558,245.0918 C698.589,245.3625 698.7204,245.6342 698.8502,245.9068 " fill="none" id="src.domotix.controller-src.domotix.view" style="stroke: #A80036; stroke-width: 1.0;"/><!--MD5=[c8650f81a4f0beba5d311d4b4b69ec04]
link src.domotix.view.menus.menuPrincipale to src.domotix.view.menus.menuUnita--><path d="M1101.8145,347.0436 C1104.6985,349.3911 1107.4517,351.8942 1110.0055,354.5573 C1111.2823,355.8889 1112.5094,357.2605 1113.678,358.6727 C1114.2623,359.3788 1114.832,360.095 1115.386,360.8215 C1115.663,361.1848 1115.9361,361.5505 1116.2052,361.9189 C1116.3397,362.1031 1116.4732,362.2879 1116.6057,362.4734 C1116.6719,362.5661 1116.7379,362.659 1116.8036,362.7521 C1116.8365,362.7986 1116.8693,362.8451 1116.902,362.8918 C1116.9184,362.9151 1116.9347,362.9384 1116.9511,362.9617 " fill="none" id="src.domotix.view.menus.menuPrincipale-&gt;src.domotix.view.menus.menuUnita" style="stroke: #A80036; stroke-width: 1.0;"/><polygon fill="#A80036" points="1116.9511,362.9617,1115.0651,353.2951,1114.083,358.866,1108.5121,357.8839,1116.9511,362.9617" style="stroke: #A80036; stroke-width: 1.0;"/><!--MD5=[f49858eb874a8bc6cb6f933a28e90376]
link src.domotix.view.menus.menuPrincipale to src.domotix.view.menus.menuCategorie--><path d="M988.5874,347.0999 C979.6146,352.8713 972.1753,358.5304 969,363.0317 C963.5356,370.778 959.5889,379.7822 956.7487,389.0291 C956.3937,390.1849 956.056,391.3446 955.7347,392.506 C955.6946,392.6512 955.6547,392.7964 955.615,392.9417 " fill="none" id="src.domotix.view.menus.menuPrincipale-&gt;src.domotix.view.menus.menuCategorie" style="stroke: #A80036; stroke-width: 1.0;"/><polygon fill="#A80036" points="955.615,392.9417,961.8438,385.3126,956.9316,388.1181,954.1261,383.206,955.615,392.9417" style="stroke: #A80036; stroke-width: 1.0;"/><!--MD5=[73f1edb30235104fd0d83b9c02f707ff]
link src.domotix.model.bean to src.domotix.model.util--><path d="M654,355.0317 C617.5419,396.5032 559.0673,426.4005 525.3276,441.3056 " fill="none" id="src.domotix.model.bean-&gt;src.domotix.model.util" style="stroke: #A80036; stroke-width: 1.0;"/><polygon fill="#A80036" points="520.5347,443.3955,530.3833,443.4649,525.118,441.3971,527.1858,436.1317,520.5347,443.3955" style="stroke: #A80036; stroke-width: 1.0;"/><!--MD5=[3dc8bad246f78919e50cb7723d960ba5]
link src.domotix.controller.io to src.domotix.model.util--><path d="M349.0661,338.0601 C349.095,338.118 349.124,338.1759 349.153,338.2338 C349.2692,338.4655 349.3865,338.6977 349.505,338.9303 C350.453,340.7906 351.4759,342.6741 352.5715,344.5337 C354.7627,348.2531 357.2448,351.8773 360,355.0317 C392.6164,392.3731 442.5093,422.5787 472.8094,438.8665 " fill="none" id="src.domotix.model.io-&gt;src.domotix.model.util" style="stroke: #A80036; stroke-width: 1.0;"/><polygon fill="#A80036" points="477.4985,441.36,471.4305,433.6025,473.0839,439.0123,467.6741,440.6658,477.4985,441.36" style="stroke: #A80036; stroke-width: 1.0;"/><!--MD5=[2606342ed3225142a75c4f748697a6af]
@startuml

title __DOMOTIX's Package Diagram__\n

namespace src {
    namespace domotix {
        namespace controller {
            namespace util {
            }
        }
        namespace model {
            namespace bean {
                namespace device {
                }
                namespace regole {
                }
                namespace system {
                }
            }
            namespace gestioneerrori {
            }
            namespace io {
                namespace datilocali {
                }
            }
            namespace util {
            }
        }
        namespace view {
            namespace menus {
                namespace menuPrincipale {
                }
                namespace menuCategorie {
                    namespace attuatori {
                    }
                    namespace sensori {
                    }
                }
                namespace menuUnita {
                    namespace gestioneUnita {
                    }
                    namespace gestioneStanza {
                        namespace gestioneArtefatto {
                        }
                    }
                }
            }
        }
    }
}

src.domotix.controller - -> src.domotix.model
src.domotix.controller - - src.domotix.view
src.domotix.view.menus.menuPrincipale - -> src.domotix.view.menus.menuUnita
src.domotix.view.menus.menuPrincipale - -> src.domotix.view.menus.menuCategorie
src.domotix.model.bean - -> src.domotix.model.util
src.domotix.controller.io - -> src.domotix.model.util

@enduml

PlantUML version 1.2019.11(Sun Sep 22 12:02:15 CEST 2019)
(GPL source distribution)
Java Runtime: OpenJDK Runtime Environment
JVM: OpenJDK 64-Bit Server VM
Java Version: 11.0.3+12-b304.10
Operating System: Linux
Default Encoding: UTF-8
Language: it
Country: IT
--></g></svg>