<?xml version="1.0" encoding="UTF-8" standalone="no"?><svg xmlns="http://www.w3.org/2000/svg" xmlns:xlink="http://www.w3.org/1999/xlink" contentScriptType="application/ecmascript" contentStyleType="text/css" height="171.6px" preserveAspectRatio="none" style="width:389px;height:171px;" version="1.1" viewBox="0 0 389 171" width="389.4px" zoomAndPan="magnify"><defs><filter height="300%" id="f1gmq9j5n0wfmp" width="300%" x="-1" y="-1"><feGaussianBlur result="blurOut" stdDeviation="1.2"/><feColorMatrix in="blurOut" result="blurOut2" type="matrix" values="0 0 0 0 0 0 0 0 0 0 0 0 0 0 0 0 0 0 .4 0"/><feOffset dx="2.4" dy="2.4" in="blurOut2" result="blurOut3"/><feBlend in="SourceGraphic" in2="blurOut3" mode="normal"/></filter></defs><g><text fill="#000000" font-family="sans-serif" font-size="10.8" lengthAdjust="spacingAndGlyphs" text-decoration="underline" textLength="129" x="131.4" y="11.5451">DOMOTIX's Class Diagram</text><text fill="#000000" font-family="sans-serif" font-size="10.8" lengthAdjust="spacingAndGlyphs" textLength="0" x="197.1" y="26.2546"/><!--MD5=[c60679dfbe80eab0cae5e3add7b10464]
cluster src--><polygon fill="#FFFFFF" filter="url(#f1gmq9j5n0wfmp)" points="156,39.019,171,39.019,175.2,54.0598,212.4,54.0598,212.4,99.619,156,99.619,156,39.019" style="stroke: #000000; stroke-width: 0.8999999999999999;"/><line style="stroke: #000000; stroke-width: 0.8999999999999999;" x1="156" x2="175.2" y1="54.0598" y2="54.0598"/><text fill="#000000" font-family="sans-serif" font-size="8.4" font-weight="bold" lengthAdjust="spacingAndGlyphs" textLength="11.4" x="158.4" y="49.1986">src</text><!--MD5=[e3c3ae39643e55df7c1a0329eec479c9]
cluster src.domotix.controller--><polygon fill="#FFFFFF" filter="url(#f1gmq9j5n0wfmp)" points="8.4,112.819,99.6,112.819,103.8,127.8598,183.6,127.8598,183.6,164.419,8.4,164.419,8.4,112.819" style="stroke: #000000; stroke-width: 0.8999999999999999;"/><line style="stroke: #000000; stroke-width: 0.8999999999999999;" x1="8.4" x2="103.8" y1="127.8598" y2="127.8598"/><text fill="#000000" font-family="sans-serif" font-size="8.4" font-weight="bold" lengthAdjust="spacingAndGlyphs" textLength="87.6" x="10.8" y="122.9986">src.domotix.controller</text><!--MD5=[8e0e0f0c97ec05372c8c81240809cf06]
cluster src.domotix.view--><polygon fill="#FFFFFF" filter="url(#f1gmq9j5n0wfmp)" points="190.2,112.819,259.8,112.819,264,127.8598,265.8,127.8598,265.8,164.419,190.2,164.419,190.2,112.819" style="stroke: #000000; stroke-width: 0.8999999999999999;"/><line style="stroke: #000000; stroke-width: 0.8999999999999999;" x1="190.2" x2="264" y1="127.8598" y2="127.8598"/><text fill="#000000" font-family="sans-serif" font-size="8.4" font-weight="bold" lengthAdjust="spacingAndGlyphs" textLength="66" x="192.6" y="122.9986">src.domotix.view</text><!--MD5=[0a790ac5fdecc1ec79658b6b98c9068e]
cluster src.domotix.model--><polygon fill="#FFFFFF" filter="url(#f1gmq9j5n0wfmp)" points="271.8,112.819,348,112.819,352.2,127.8598,376.2,127.8598,376.2,164.419,271.8,164.419,271.8,112.819" style="stroke: #000000; stroke-width: 0.8999999999999999;"/><line style="stroke: #000000; stroke-width: 0.8999999999999999;" x1="271.8" x2="352.2" y1="127.8598" y2="127.8598"/><text fill="#000000" font-family="sans-serif" font-size="8.4" font-weight="bold" lengthAdjust="spacingAndGlyphs" textLength="72.6" x="274.2" y="122.9986">src.domotix.model</text><!--MD5=[0f1c019a56dea9df6ab0c42d716fb196]
class src.Domotix--><rect fill="#FEFECE" filter="url(#f1gmq9j5n0wfmp)" height="37.7891" id="src.Domotix" style="stroke: #A80036; stroke-width: 0.8999999999999999;" width="46.8" x="160.8" y="57.019"/><ellipse cx="169.8" cy="66.619" fill="#ADD1B2" rx="6.6" ry="6.6" style="stroke: #A80036; stroke-width: 0.6;"/><path d="M169.7813,70.3221 Q168.7313,70.3221 168.0469,69.8815 Q167.3719,69.4315 167.0344,68.6253 Q166.7062,67.8096 166.7062,66.7315 Q166.7062,65.5128 167.1,64.6409 Q167.4938,63.769 168.2625,63.3003 Q169.0313,62.8315 170.1563,62.8315 Q170.6906,62.8315 171.0938,62.944 Q171.4969,63.0471 171.9094,63.2534 L171.4219,64.4628 Q171.0469,64.2753 170.7188,64.2003 Q170.4,64.1253 170.1094,64.1253 Q169.4063,64.1253 168.9844,64.444 Q168.5625,64.7628 168.3844,65.3346 Q168.2062,65.9065 168.2062,66.6659 Q168.2062,67.8753 168.6375,68.4565 Q169.0688,69.0284 170.025,69.0284 Q170.3813,69.0284 170.7563,68.9346 Q171.1313,68.8409 171.6281,68.6159 L171.6281,69.9471 Q171.1875,70.1346 170.7094,70.2284 Q170.2406,70.3221 169.7813,70.3221 Z "/><text fill="#000000" font-family="sans-serif" font-size="7.2" lengthAdjust="spacingAndGlyphs" textLength="27.6" x="178.2" y="69.4126">Domotix</text><line style="stroke: #A80036; stroke-width: 0.8999999999999999;" x1="161.4" x2="207" y1="76.219" y2="76.219"/><line style="stroke: #A80036; stroke-width: 0.8999999999999999;" x1="161.4" x2="207" y1="81.019" y2="81.019"/><ellipse cx="167.4" cy="87.619" fill="#84BE84" rx="1.8" ry="1.8" style="stroke: #038048; stroke-width: 0.6;"/><text fill="#000000" font-family="sans-serif" font-size="6.6" lengthAdjust="spacingAndGlyphs" text-decoration="underline" textLength="18" x="172.8" y="90.4744">main()</text><!--MD5=[1ddd180088a80c3f21304f5ea42348e6]
class src.domotix.controller.OperazioniIniziali--><rect fill="#FEFECE" filter="url(#f1gmq9j5n0wfmp)" height="28.8" id="src.domotix.controller.OperazioniIniziali" style="stroke: #A80036; stroke-width: 0.8999999999999999;" width="73.8" x="104.7" y="130.819"/><ellipse cx="113.7" cy="140.419" fill="#ADD1B2" rx="6.6" ry="6.6" style="stroke: #A80036; stroke-width: 0.6;"/><path d="M113.6812,144.1221 Q112.6313,144.1221 111.9469,143.6815 Q111.2719,143.2315 110.9344,142.4253 Q110.6063,141.6096 110.6063,140.5315 Q110.6063,139.3128 111,138.4409 Q111.3938,137.569 112.1625,137.1003 Q112.9312,136.6315 114.0562,136.6315 Q114.5906,136.6315 114.9937,136.744 Q115.3969,136.8471 115.8094,137.0534 L115.3219,138.2628 Q114.9469,138.0753 114.6187,138.0003 Q114.3,137.9253 114.0094,137.9253 Q113.3062,137.9253 112.8844,138.244 Q112.4625,138.5628 112.2844,139.1346 Q112.1063,139.7065 112.1063,140.4659 Q112.1063,141.6753 112.5375,142.2565 Q112.9688,142.8284 113.925,142.8284 Q114.2813,142.8284 114.6563,142.7346 Q115.0313,142.6409 115.5281,142.4159 L115.5281,143.7471 Q115.0875,143.9346 114.6094,144.0284 Q114.1406,144.1221 113.6812,144.1221 Z "/><text fill="#000000" font-family="sans-serif" font-size="7.2" lengthAdjust="spacingAndGlyphs" textLength="54.6" x="122.1" y="143.2126">OperazioniIniziali</text><line style="stroke: #A80036; stroke-width: 0.8999999999999999;" x1="105.3" x2="177.9" y1="150.019" y2="150.019"/><line style="stroke: #A80036; stroke-width: 0.8999999999999999;" x1="105.3" x2="177.9" y1="154.819" y2="154.819"/><!--MD5=[0762cb38a47bd56911b261b0ac435b54]
class src.domotix.controller.OperazioniFinali--><rect fill="#FEFECE" filter="url(#f1gmq9j5n0wfmp)" height="28.8" id="src.domotix.controller.OperazioniFinali" style="stroke: #A80036; stroke-width: 0.8999999999999999;" width="70.2" x="13.5" y="130.819"/><ellipse cx="22.5" cy="140.419" fill="#ADD1B2" rx="6.6" ry="6.6" style="stroke: #A80036; stroke-width: 0.6;"/><path d="M22.4813,144.1221 Q21.4313,144.1221 20.7469,143.6815 Q20.0719,143.2315 19.7344,142.4253 Q19.4063,141.6096 19.4063,140.5315 Q19.4063,139.3128 19.8,138.4409 Q20.1937,137.569 20.9625,137.1003 Q21.7313,136.6315 22.8563,136.6315 Q23.3906,136.6315 23.7938,136.744 Q24.1969,136.8471 24.6094,137.0534 L24.1219,138.2628 Q23.7469,138.0753 23.4188,138.0003 Q23.1,137.9253 22.8094,137.9253 Q22.1063,137.9253 21.6844,138.244 Q21.2625,138.5628 21.0844,139.1346 Q20.9063,139.7065 20.9063,140.4659 Q20.9063,141.6753 21.3375,142.2565 Q21.7688,142.8284 22.725,142.8284 Q23.0813,142.8284 23.4563,142.7346 Q23.8313,142.6409 24.3281,142.4159 L24.3281,143.7471 Q23.8875,143.9346 23.4094,144.0284 Q22.9406,144.1221 22.4813,144.1221 Z "/><text fill="#000000" font-family="sans-serif" font-size="7.2" lengthAdjust="spacingAndGlyphs" textLength="51" x="30.9" y="143.2126">OperazioniFinali</text><line style="stroke: #A80036; stroke-width: 0.8999999999999999;" x1="14.1" x2="83.1" y1="150.019" y2="150.019"/><line style="stroke: #A80036; stroke-width: 0.8999999999999999;" x1="14.1" x2="83.1" y1="154.819" y2="154.819"/><!--MD5=[82b6d2c76bcd47fb598aa8d69dd4fdfa]
class src.domotix.view.MenuLogin--><rect fill="#FEFECE" filter="url(#f1gmq9j5n0wfmp)" height="28.8" id="src.domotix.view.MenuLogin" style="stroke: #A80036; stroke-width: 0.8999999999999999;" width="55.2" x="199.8" y="130.819"/><ellipse cx="208.8" cy="140.419" fill="#ADD1B2" rx="6.6" ry="6.6" style="stroke: #A80036; stroke-width: 0.6;"/><path d="M208.7813,144.1221 Q207.7313,144.1221 207.0469,143.6815 Q206.3719,143.2315 206.0344,142.4253 Q205.7062,141.6096 205.7062,140.5315 Q205.7062,139.3128 206.1,138.4409 Q206.4938,137.569 207.2625,137.1003 Q208.0313,136.6315 209.1563,136.6315 Q209.6906,136.6315 210.0938,136.744 Q210.4969,136.8471 210.9094,137.0534 L210.4219,138.2628 Q210.0469,138.0753 209.7188,138.0003 Q209.4,137.9253 209.1094,137.9253 Q208.4063,137.9253 207.9844,138.244 Q207.5625,138.5628 207.3844,139.1346 Q207.2062,139.7065 207.2062,140.4659 Q207.2062,141.6753 207.6375,142.2565 Q208.0688,142.8284 209.025,142.8284 Q209.3813,142.8284 209.7563,142.7346 Q210.1313,142.6409 210.6281,142.4159 L210.6281,143.7471 Q210.1875,143.9346 209.7094,144.0284 Q209.2406,144.1221 208.7813,144.1221 Z "/><text fill="#000000" font-family="sans-serif" font-size="7.2" lengthAdjust="spacingAndGlyphs" textLength="36" x="217.2" y="143.2126">MenuLogin</text><line style="stroke: #A80036; stroke-width: 0.8999999999999999;" x1="200.4" x2="254.4" y1="150.019" y2="150.019"/><line style="stroke: #A80036; stroke-width: 0.8999999999999999;" x1="200.4" x2="254.4" y1="154.819" y2="154.819"/><!--MD5=[13e6f612cc274e267b065d80a49bdf15]
class src.domotix.model.ElencoUnitaImmobiliare--><rect fill="#FEFECE" filter="url(#f1gmq9j5n0wfmp)" height="28.8" id="src.domotix.model.ElencoUnitaImmobiliare" style="stroke: #A80036; stroke-width: 0.8999999999999999;" width="95.4" x="276.3" y="130.819"/><ellipse cx="285.3" cy="140.419" fill="#ADD1B2" rx="6.6" ry="6.6" style="stroke: #A80036; stroke-width: 0.6;"/><path d="M285.2813,144.1221 Q284.2313,144.1221 283.5469,143.6815 Q282.8719,143.2315 282.5344,142.4253 Q282.2063,141.6096 282.2063,140.5315 Q282.2063,139.3128 282.6,138.4409 Q282.9938,137.569 283.7625,137.1003 Q284.5313,136.6315 285.6563,136.6315 Q286.1906,136.6315 286.5938,136.744 Q286.9969,136.8471 287.4094,137.0534 L286.9219,138.2628 Q286.5469,138.0753 286.2188,138.0003 Q285.9,137.9253 285.6094,137.9253 Q284.9063,137.9253 284.4844,138.244 Q284.0625,138.5628 283.8844,139.1346 Q283.7063,139.7065 283.7063,140.4659 Q283.7063,141.6753 284.1375,142.2565 Q284.5687,142.8284 285.525,142.8284 Q285.8812,142.8284 286.2562,142.7346 Q286.6312,142.6409 287.1281,142.4159 L287.1281,143.7471 Q286.6875,143.9346 286.2094,144.0284 Q285.7406,144.1221 285.2813,144.1221 Z "/><text fill="#000000" font-family="sans-serif" font-size="7.2" lengthAdjust="spacingAndGlyphs" textLength="76.2" x="293.7" y="143.2126">ElencoUnitaImmobiliare</text><line style="stroke: #A80036; stroke-width: 0.8999999999999999;" x1="276.9" x2="371.1" y1="150.019" y2="150.019"/><line style="stroke: #A80036; stroke-width: 0.8999999999999999;" x1="276.9" x2="371.1" y1="154.819" y2="154.819"/><!--MD5=[1a64e281eaa690c52e0e032ff5cd0509]
link src.Domotix to src.domotix.controller.OperazioniIniziali--><path d="M172.5593,94.8556 C166.2093,105.1855 158.4062,117.8794 152.2225,127.9388 " fill="none" id="src.Domotix-&gt;src.domotix.controller.OperazioniIniziali" style="stroke: #A80036; stroke-width: 0.6;"/><polygon fill="#A80036" points="150.5239,130.702,155.3963,127.3585,152.0949,128.1463,151.3072,124.8448,150.5239,130.702" style="stroke: #A80036; stroke-width: 0.6;"/><!--MD5=[faa11229f34e6d7cca369ac0e5f46f0f]
link src.Domotix to src.domotix.controller.OperazioniFinali--><path d="M160.7822,83.846 C142.2124,90.5245 115.8705,100.8838 94.2,112.819 C85.7166,117.4913 76.9227,123.4403 69.3476,128.9621 " fill="none" id="src.Domotix-&gt;src.domotix.controller.OperazioniFinali" style="stroke: #A80036; stroke-width: 0.6;"/><polygon fill="#A80036" points="66.8276,130.8159,72.5996,129.5492,69.2442,129.0382,69.7553,125.6828,66.8276,130.8159" style="stroke: #A80036; stroke-width: 0.6;"/><!--MD5=[8acf923566c982d5c47a007374f5bfa1]
link src.Domotix to src.domotix.view.MenuLogin--><path d="M196.0046,94.8556 C202.4441,105.1855 210.3571,117.8794 216.6279,127.9388 " fill="none" id="src.Domotix-&gt;src.domotix.view.MenuLogin" style="stroke: #A80036; stroke-width: 0.6;"/><polygon fill="#A80036" points="218.3504,130.702,217.5304,124.8499,216.7634,128.1562,213.4571,127.3892,218.3504,130.702" style="stroke: #A80036; stroke-width: 0.6;"/><!--MD5=[653581e314f29ca2825c6b401f7bad40]
link src.Domotix to src.domotix.model.ElencoUnitaImmobiliare--><path d="M207.7137,84.9116 C225.3247,91.8974 249.8525,102.1623 270.6,112.819 C280.1283,117.7131 290.2541,123.6544 299.0977,129.106 " fill="none" id="src.Domotix-&gt;src.domotix.model.ElencoUnitaImmobiliare" style="stroke: #A80036; stroke-width: 0.6;"/><polygon fill="#A80036" points="301.799,130.7804,298.4737,125.8955,299.2491,129.1998,295.9448,129.9753,301.799,130.7804" style="stroke: #A80036; stroke-width: 0.6;"/><!--MD5=[ef02d5e7036a9b87a005b5eb934b7fdb]
@startuml

title __DOMOTIX's Class Diagram__\n

    namespace src {
        class Domotix {
            {static} + main()
        }
    }
  
    src.Domotix - -> src.domotix.controller.OperazioniIniziali
    src.Domotix - -> src.domotix.controller.OperazioniFinali
    src.Domotix - -> src.domotix.view.MenuLogin
    src.Domotix - -> src.domotix.model.ElencoUnitaImmobiliare


@enduml

PlantUML version 1.2019.11(Sun Sep 22 12:02:15 CEST 2019)
(GPL source distribution)
Java Runtime: OpenJDK Runtime Environment
JVM: OpenJDK 64-Bit Server VM
Java Version: 11.0.3+12-b304.10
Operating System: Linux
Default Encoding: UTF-8
Language: it
Country: IT
--></g></svg>