<?xml version="1.0" encoding="UTF-8" standalone="no"?><svg xmlns="http://www.w3.org/2000/svg" xmlns:xlink="http://www.w3.org/1999/xlink" contentScriptType="application/ecmascript" contentStyleType="text/css" height="271px" preserveAspectRatio="none" style="width:995px;height:271px;" version="1.1" viewBox="0 0 995 271" width="995px" zoomAndPan="magnify"><defs><filter height="300%" id="fcm5mf7c80vbc" width="300%" x="-1" y="-1"><feGaussianBlur result="blurOut" stdDeviation="2.0"/><feColorMatrix in="blurOut" result="blurOut2" type="matrix" values="0 0 0 0 0 0 0 0 0 0 0 0 0 0 0 0 0 0 .4 0"/><feOffset dx="4.0" dy="4.0" in="blurOut2" result="blurOut3"/><feBlend in="SourceGraphic" in2="blurOut3" mode="normal"/></filter></defs><g><text fill="#000000" font-family="sans-serif" font-size="18" lengthAdjust="spacingAndGlyphs" text-decoration="underline" textLength="215" x="392" y="19.2419">DOMOTIX's Class Diagram</text><text fill="#000000" font-family="sans-serif" font-size="18" lengthAdjust="spacingAndGlyphs" textLength="0" x="501.5" y="43.7577"/><!--MD5=[c60679dfbe80eab0cae5e3add7b10464]
cluster src--><polygon fill="#FFFFFF" filter="url(#fcm5mf7c80vbc)" points="457,65.0317,482,65.0317,489,90.0996,551,90.0996,551,151.0317,457,151.0317,457,65.0317" style="stroke: #000000; stroke-width: 1.5;"/><line style="stroke: #000000; stroke-width: 1.5;" x1="457" x2="489" y1="90.0996" y2="90.0996"/><text fill="#000000" font-family="sans-serif" font-size="14" font-weight="bold" lengthAdjust="spacingAndGlyphs" textLength="19" x="461" y="81.9976">src</text><!--MD5=[e3c3ae39643e55df7c1a0329eec479c9]
cluster src.domotix.controller--><polygon fill="#FFFFFF" filter="url(#fcm5mf7c80vbc)" points="14,173.0317,166,173.0317,173,198.0996,652,198.0996,652,259.0317,14,259.0317,14,173.0317" style="stroke: #000000; stroke-width: 1.5;"/><line style="stroke: #000000; stroke-width: 1.5;" x1="14" x2="173" y1="198.0996" y2="198.0996"/><text fill="#000000" font-family="sans-serif" font-size="14" font-weight="bold" lengthAdjust="spacingAndGlyphs" textLength="146" x="18" y="189.9976">src.domotix.controller</text><!--MD5=[8e0e0f0c97ec05372c8c81240809cf06]
cluster src.domotix.view--><polygon fill="#FFFFFF" filter="url(#fcm5mf7c80vbc)" points="663,173.0317,779,173.0317,786,198.0996,789,198.0996,789,259.0317,663,259.0317,663,173.0317" style="stroke: #000000; stroke-width: 1.5;"/><line style="stroke: #000000; stroke-width: 1.5;" x1="663" x2="786" y1="198.0996" y2="198.0996"/><text fill="#000000" font-family="sans-serif" font-size="14" font-weight="bold" lengthAdjust="spacingAndGlyphs" textLength="110" x="667" y="189.9976">src.domotix.view</text><!--MD5=[0a790ac5fdecc1ec79658b6b98c9068e]
cluster src.domotix.model--><polygon fill="#FFFFFF" filter="url(#fcm5mf7c80vbc)" points="799,173.0317,926,173.0317,933,198.0996,973,198.0996,973,259.0317,799,259.0317,799,173.0317" style="stroke: #000000; stroke-width: 1.5;"/><line style="stroke: #000000; stroke-width: 1.5;" x1="799" x2="933" y1="198.0996" y2="198.0996"/><text fill="#000000" font-family="sans-serif" font-size="14" font-weight="bold" lengthAdjust="spacingAndGlyphs" textLength="121" x="803" y="189.9976">src.domotix.model</text><!--MD5=[0f1c019a56dea9df6ab0c42d716fb196]
class src.Domotix--><rect fill="#FEFECE" filter="url(#fcm5mf7c80vbc)" height="48" id="src.Domotix" style="stroke: #A80036; stroke-width: 1.5;" width="78" x="465" y="95.0317"/><ellipse cx="480" cy="111.0317" fill="#ADD1B2" rx="11" ry="11" style="stroke: #A80036; stroke-width: 1.0;"/><path d="M479.9688,117.2036 Q478.2188,117.2036 477.0781,116.4692 Q475.9531,115.7192 475.3906,114.3754 Q474.8438,113.0161 474.8438,111.2192 Q474.8438,109.1879 475.5,107.7348 Q476.1563,106.2817 477.4375,105.5004 Q478.7188,104.7192 480.5938,104.7192 Q481.4844,104.7192 482.1563,104.9067 Q482.8281,105.0786 483.5156,105.4223 L482.7031,107.4379 Q482.0781,107.1254 481.5313,107.0004 Q481,106.8754 480.5156,106.8754 Q479.3438,106.8754 478.6406,107.4067 Q477.9375,107.9379 477.6406,108.8911 Q477.3438,109.8442 477.3438,111.1098 Q477.3438,113.1254 478.0625,114.0942 Q478.7813,115.0473 480.375,115.0473 Q480.9688,115.0473 481.5938,114.8911 Q482.2188,114.7348 483.0469,114.3598 L483.0469,116.5786 Q482.3125,116.8911 481.5156,117.0473 Q480.7344,117.2036 479.9688,117.2036 Z "/><text fill="#000000" font-family="sans-serif" font-size="12" lengthAdjust="spacingAndGlyphs" textLength="46" x="494" y="115.6877">Domotix</text><line style="stroke: #A80036; stroke-width: 1.5;" x1="466" x2="542" y1="127.0317" y2="127.0317"/><line style="stroke: #A80036; stroke-width: 1.5;" x1="466" x2="542" y1="135.0317" y2="135.0317"/><!--MD5=[1ddd180088a80c3f21304f5ea42348e6]
class src.domotix.controller.OperazioniIniziali--><rect fill="#FEFECE" filter="url(#fcm5mf7c80vbc)" height="48" id="src.domotix.controller.OperazioniIniziali" style="stroke: #A80036; stroke-width: 1.5;" width="123" x="520.5" y="203.0317"/><ellipse cx="535.5" cy="219.0317" fill="#ADD1B2" rx="11" ry="11" style="stroke: #A80036; stroke-width: 1.0;"/><path d="M535.4688,225.2036 Q533.7188,225.2036 532.5781,224.4692 Q531.4531,223.7192 530.8906,222.3754 Q530.3438,221.0161 530.3438,219.2192 Q530.3438,217.1879 531,215.7348 Q531.6563,214.2817 532.9375,213.5004 Q534.2188,212.7192 536.0938,212.7192 Q536.9844,212.7192 537.6563,212.9067 Q538.3281,213.0786 539.0156,213.4223 L538.2031,215.4379 Q537.5781,215.1254 537.0313,215.0004 Q536.5,214.8754 536.0156,214.8754 Q534.8438,214.8754 534.1406,215.4067 Q533.4375,215.9379 533.1406,216.8911 Q532.8438,217.8442 532.8438,219.1098 Q532.8438,221.1254 533.5625,222.0942 Q534.2813,223.0473 535.875,223.0473 Q536.4688,223.0473 537.0938,222.8911 Q537.7188,222.7348 538.5469,222.3598 L538.5469,224.5786 Q537.8125,224.8911 537.0156,225.0473 Q536.2344,225.2036 535.4688,225.2036 Z "/><text fill="#000000" font-family="sans-serif" font-size="12" lengthAdjust="spacingAndGlyphs" textLength="91" x="549.5" y="223.6877">OperazioniIniziali</text><line style="stroke: #A80036; stroke-width: 1.5;" x1="521.5" x2="642.5" y1="235.0317" y2="235.0317"/><line style="stroke: #A80036; stroke-width: 1.5;" x1="521.5" x2="642.5" y1="243.0317" y2="243.0317"/><!--MD5=[0762cb38a47bd56911b261b0ac435b54]
class src.domotix.controller.OperazioniFinali--><rect fill="#FEFECE" filter="url(#fcm5mf7c80vbc)" height="48" id="src.domotix.controller.OperazioniFinali" style="stroke: #A80036; stroke-width: 1.5;" width="117" x="368.5" y="203.0317"/><ellipse cx="383.5" cy="219.0317" fill="#ADD1B2" rx="11" ry="11" style="stroke: #A80036; stroke-width: 1.0;"/><path d="M383.4688,225.2036 Q381.7188,225.2036 380.5781,224.4692 Q379.4531,223.7192 378.8906,222.3754 Q378.3438,221.0161 378.3438,219.2192 Q378.3438,217.1879 379,215.7348 Q379.6563,214.2817 380.9375,213.5004 Q382.2188,212.7192 384.0938,212.7192 Q384.9844,212.7192 385.6563,212.9067 Q386.3281,213.0786 387.0156,213.4223 L386.2031,215.4379 Q385.5781,215.1254 385.0313,215.0004 Q384.5,214.8754 384.0156,214.8754 Q382.8438,214.8754 382.1406,215.4067 Q381.4375,215.9379 381.1406,216.8911 Q380.8438,217.8442 380.8438,219.1098 Q380.8438,221.1254 381.5625,222.0942 Q382.2813,223.0473 383.875,223.0473 Q384.4688,223.0473 385.0938,222.8911 Q385.7188,222.7348 386.5469,222.3598 L386.5469,224.5786 Q385.8125,224.8911 385.0156,225.0473 Q384.2344,225.2036 383.4688,225.2036 Z "/><text fill="#000000" font-family="sans-serif" font-size="12" lengthAdjust="spacingAndGlyphs" textLength="85" x="397.5" y="223.6877">OperazioniFinali</text><line style="stroke: #A80036; stroke-width: 1.5;" x1="369.5" x2="484.5" y1="235.0317" y2="235.0317"/><line style="stroke: #A80036; stroke-width: 1.5;" x1="369.5" x2="484.5" y1="243.0317" y2="243.0317"/><!--MD5=[f810c510c7031853d87759381cafdb98]
class src.domotix.controller.TimerGestioneRegole--><rect fill="#FEFECE" filter="url(#fcm5mf7c80vbc)" height="48" id="src.domotix.controller.TimerGestioneRegole" style="stroke: #A80036; stroke-width: 1.5;" width="144" x="189" y="203.0317"/><ellipse cx="204" cy="219.0317" fill="#ADD1B2" rx="11" ry="11" style="stroke: #A80036; stroke-width: 1.0;"/><path d="M203.9688,225.2036 Q202.2188,225.2036 201.0781,224.4692 Q199.9531,223.7192 199.3906,222.3754 Q198.8438,221.0161 198.8438,219.2192 Q198.8438,217.1879 199.5,215.7348 Q200.1563,214.2817 201.4375,213.5004 Q202.7188,212.7192 204.5938,212.7192 Q205.4844,212.7192 206.1563,212.9067 Q206.8281,213.0786 207.5156,213.4223 L206.7031,215.4379 Q206.0781,215.1254 205.5313,215.0004 Q205,214.8754 204.5156,214.8754 Q203.3438,214.8754 202.6406,215.4067 Q201.9375,215.9379 201.6406,216.8911 Q201.3438,217.8442 201.3438,219.1098 Q201.3438,221.1254 202.0625,222.0942 Q202.7813,223.0473 204.375,223.0473 Q204.9688,223.0473 205.5938,222.8911 Q206.2188,222.7348 207.0469,222.3598 L207.0469,224.5786 Q206.3125,224.8911 205.5156,225.0473 Q204.7344,225.2036 203.9688,225.2036 Z "/><text fill="#000000" font-family="sans-serif" font-size="12" lengthAdjust="spacingAndGlyphs" textLength="112" x="218" y="223.6877">TimerGestioneRegole</text><line style="stroke: #A80036; stroke-width: 1.5;" x1="190" x2="332" y1="235.0317" y2="235.0317"/><line style="stroke: #A80036; stroke-width: 1.5;" x1="190" x2="332" y1="243.0317" y2="243.0317"/><!--MD5=[9dd4d893f06eeaae370558f9cea874e1]
class src.domotix.controller.TimerRinfrescoDati--><rect fill="#FEFECE" filter="url(#fcm5mf7c80vbc)" height="48" id="src.domotix.controller.TimerRinfrescoDati" style="stroke: #A80036; stroke-width: 1.5;" width="131" x="22.5" y="203.0317"/><ellipse cx="37.5" cy="219.0317" fill="#ADD1B2" rx="11" ry="11" style="stroke: #A80036; stroke-width: 1.0;"/><path d="M37.4688,225.2036 Q35.7188,225.2036 34.5781,224.4692 Q33.4531,223.7192 32.8906,222.3754 Q32.3438,221.0161 32.3438,219.2192 Q32.3438,217.1879 33,215.7348 Q33.6563,214.2817 34.9375,213.5004 Q36.2188,212.7192 38.0938,212.7192 Q38.9844,212.7192 39.6563,212.9067 Q40.3281,213.0786 41.0156,213.4223 L40.2031,215.4379 Q39.5781,215.1254 39.0313,215.0004 Q38.5,214.8754 38.0156,214.8754 Q36.8438,214.8754 36.1406,215.4067 Q35.4375,215.9379 35.1406,216.8911 Q34.8438,217.8442 34.8438,219.1098 Q34.8438,221.1254 35.5625,222.0942 Q36.2813,223.0473 37.875,223.0473 Q38.4688,223.0473 39.0938,222.8911 Q39.7188,222.7348 40.5469,222.3598 L40.5469,224.5786 Q39.8125,224.8911 39.0156,225.0473 Q38.2344,225.2036 37.4688,225.2036 Z "/><text fill="#000000" font-family="sans-serif" font-size="12" lengthAdjust="spacingAndGlyphs" textLength="99" x="51.5" y="223.6877">TimerRinfrescoDati</text><line style="stroke: #A80036; stroke-width: 1.5;" x1="23.5" x2="152.5" y1="235.0317" y2="235.0317"/><line style="stroke: #A80036; stroke-width: 1.5;" x1="23.5" x2="152.5" y1="243.0317" y2="243.0317"/><!--MD5=[82b6d2c76bcd47fb598aa8d69dd4fdfa]
class src.domotix.view.MenuLogin--><rect fill="#FEFECE" filter="url(#fcm5mf7c80vbc)" height="48" id="src.domotix.view.MenuLogin" style="stroke: #A80036; stroke-width: 1.5;" width="92" x="679" y="203.0317"/><ellipse cx="694" cy="219.0317" fill="#ADD1B2" rx="11" ry="11" style="stroke: #A80036; stroke-width: 1.0;"/><path d="M693.9688,225.2036 Q692.2188,225.2036 691.0781,224.4692 Q689.9531,223.7192 689.3906,222.3754 Q688.8438,221.0161 688.8438,219.2192 Q688.8438,217.1879 689.5,215.7348 Q690.1563,214.2817 691.4375,213.5004 Q692.7188,212.7192 694.5938,212.7192 Q695.4844,212.7192 696.1563,212.9067 Q696.8281,213.0786 697.5156,213.4223 L696.7031,215.4379 Q696.0781,215.1254 695.5313,215.0004 Q695,214.8754 694.5156,214.8754 Q693.3438,214.8754 692.6406,215.4067 Q691.9375,215.9379 691.6406,216.8911 Q691.3438,217.8442 691.3438,219.1098 Q691.3438,221.1254 692.0625,222.0942 Q692.7813,223.0473 694.375,223.0473 Q694.9688,223.0473 695.5938,222.8911 Q696.2188,222.7348 697.0469,222.3598 L697.0469,224.5786 Q696.3125,224.8911 695.5156,225.0473 Q694.7344,225.2036 693.9688,225.2036 Z "/><text fill="#000000" font-family="sans-serif" font-size="12" lengthAdjust="spacingAndGlyphs" textLength="60" x="708" y="223.6877">MenuLogin</text><line style="stroke: #A80036; stroke-width: 1.5;" x1="680" x2="770" y1="235.0317" y2="235.0317"/><line style="stroke: #A80036; stroke-width: 1.5;" x1="680" x2="770" y1="243.0317" y2="243.0317"/><!--MD5=[13e6f612cc274e267b065d80a49bdf15]
class src.domotix.model.ElencoUnitaImmobiliare--><rect fill="#FEFECE" filter="url(#fcm5mf7c80vbc)" height="48" id="src.domotix.model.ElencoUnitaImmobiliare" style="stroke: #A80036; stroke-width: 1.5;" width="159" x="806.5" y="203.0317"/><ellipse cx="821.5" cy="219.0317" fill="#ADD1B2" rx="11" ry="11" style="stroke: #A80036; stroke-width: 1.0;"/><path d="M821.4688,225.2036 Q819.7188,225.2036 818.5781,224.4692 Q817.4531,223.7192 816.8906,222.3754 Q816.3438,221.0161 816.3438,219.2192 Q816.3438,217.1879 817,215.7348 Q817.6563,214.2817 818.9375,213.5004 Q820.2188,212.7192 822.0938,212.7192 Q822.9844,212.7192 823.6563,212.9067 Q824.3281,213.0786 825.0156,213.4223 L824.2031,215.4379 Q823.5781,215.1254 823.0313,215.0004 Q822.5,214.8754 822.0156,214.8754 Q820.8438,214.8754 820.1406,215.4067 Q819.4375,215.9379 819.1406,216.8911 Q818.8438,217.8442 818.8438,219.1098 Q818.8438,221.1254 819.5625,222.0942 Q820.2813,223.0473 821.875,223.0473 Q822.4688,223.0473 823.0938,222.8911 Q823.7188,222.7348 824.5469,222.3598 L824.5469,224.5786 Q823.8125,224.8911 823.0156,225.0473 Q822.2344,225.2036 821.4688,225.2036 Z "/><text fill="#000000" font-family="sans-serif" font-size="12" lengthAdjust="spacingAndGlyphs" textLength="127" x="835.5" y="223.6877">ElencoUnitaImmobiliare</text><line style="stroke: #A80036; stroke-width: 1.5;" x1="807.5" x2="964.5" y1="235.0317" y2="235.0317"/><line style="stroke: #A80036; stroke-width: 1.5;" x1="807.5" x2="964.5" y1="243.0317" y2="243.0317"/><!--MD5=[1a64e281eaa690c52e0e032ff5cd0509]
link src.Domotix to src.domotix.controller.OperazioniIniziali--><path d="M521.5047,143.269 C533.3471,159.6662 549.0349,181.3877 561.4674,198.6019 " fill="none" id="src.Domotix-&gt;src.domotix.controller.OperazioniIniziali" style="stroke: #A80036; stroke-width: 1.0;"/><polygon fill="#A80036" points="564.5537,202.8753,562.5269,193.2372,561.6262,198.8219,556.0415,197.9213,564.5537,202.8753" style="stroke: #A80036; stroke-width: 1.0;"/><!--MD5=[faa11229f34e6d7cca369ac0e5f46f0f]
link src.Domotix to src.domotix.controller.OperazioniFinali--><path d="M486.7197,143.269 C475.0291,159.6662 459.5425,181.3877 447.2694,198.6019 " fill="none" id="src.Domotix-&gt;src.domotix.controller.OperazioniFinali" style="stroke: #A80036; stroke-width: 1.0;"/><polygon fill="#A80036" points="444.2226,202.8753,452.7044,197.8694,447.1253,198.8041,446.1906,193.2251,444.2226,202.8753" style="stroke: #A80036; stroke-width: 1.0;"/><!--MD5=[a956b6a18741f3c1b017a7325b612a5e]
link src.Domotix to src.domotix.controller.TimerGestioneRegole--><path d="M464.7847,130.4748 C433.3529,140.2119 388.466,155.4 351,173.0317 C334.4149,180.8367 316.9673,190.8458 301.896,200.1216 " fill="none" id="src.Domotix-&gt;src.domotix.controller.TimerGestioneRegole" style="stroke: #A80036; stroke-width: 1.0;"/><polygon fill="#A80036" points="297.2985,202.9735,307.0551,201.6284,301.5474,200.3378,302.838,194.8302,297.2985,202.9735" style="stroke: #A80036; stroke-width: 1.0;"/><!--MD5=[51795f69f07d8a263f8faf0789299b4a]
link src.Domotix to src.domotix.controller.TimerRinfrescoDati--><path d="M464.8292,120.2601 C401.3305,123.369 272.8666,134.3394 172,173.0317 C154.837,179.6154 137.4812,190.009 123.0366,199.9271 " fill="none" id="src.Domotix-&gt;src.domotix.controller.TimerRinfrescoDati" style="stroke: #A80036; stroke-width: 1.0;"/><polygon fill="#A80036" points="118.6507,202.9851,128.3211,201.1189,122.7522,200.1254,123.7457,194.5565,118.6507,202.9851" style="stroke: #A80036; stroke-width: 1.0;"/><!--MD5=[8acf923566c982d5c47a007374f5bfa1]
link src.Domotix to src.domotix.view.MenuLogin--><path d="M543.1523,128.3701 C575.7414,137.1117 622.6736,151.9941 660,173.0317 C672.8626,180.2812 685.6576,190.1764 696.4503,199.5167 " fill="none" id="src.Domotix-&gt;src.domotix.view.MenuLogin" style="stroke: #A80036; stroke-width: 1.0;"/><polygon fill="#A80036" points="700.3324,202.9269,696.2105,193.9821,696.5759,199.6271,690.9309,199.9925,700.3324,202.9269" style="stroke: #A80036; stroke-width: 1.0;"/><!--MD5=[653581e314f29ca2825c6b401f7bad40]
link src.Domotix to src.domotix.model.ElencoUnitaImmobiliare--><path d="M543.1318,121.724 C600.4827,126.664 709.9893,139.9017 797,173.0317 C814.9089,179.8506 833.2504,190.2846 848.594,200.1693 " fill="none" id="src.Domotix-&gt;src.domotix.model.ElencoUnitaImmobiliare" style="stroke: #A80036; stroke-width: 1.0;"/><polygon fill="#A80036" points="852.8393,202.9392,847.4876,194.6712,848.6518,200.207,843.1161,201.3712,852.8393,202.9392" style="stroke: #A80036; stroke-width: 1.0;"/><!--MD5=[ca47d4693de65621947fd58450a29301]
@startuml

title __DOMOTIX's Class Diagram__\n

    namespace src {
        class Domotix {
        }
    }
  
    src.Domotix - -> src.domotix.controller.OperazioniIniziali
    src.Domotix - -> src.domotix.controller.OperazioniFinali
    src.Domotix - -> src.domotix.controller.TimerGestioneRegole
    src.Domotix - -> src.domotix.controller.TimerRinfrescoDati
    src.Domotix - -> src.domotix.view.MenuLogin
    src.Domotix - -> src.domotix.model.ElencoUnitaImmobiliare


@enduml

PlantUML version 1.2019.11(Sun Sep 22 12:02:15 CEST 2019)
(GPL source distribution)
Java Runtime: OpenJDK Runtime Environment
JVM: OpenJDK 64-Bit Server VM
Java Version: 11.0.3+12-b304.10
Operating System: Linux
Default Encoding: UTF-8
Language: it
Country: IT
--></g></svg>