<?xml version="1.0" encoding="UTF-8" standalone="no"?><svg xmlns="http://www.w3.org/2000/svg" xmlns:xlink="http://www.w3.org/1999/xlink" contentScriptType="application/ecmascript" contentStyleType="text/css" height="271px" preserveAspectRatio="none" style="width:1196px;height:271px;" version="1.1" viewBox="0 0 1196 271" width="1196px" zoomAndPan="magnify"><defs><filter height="300%" id="f18tsrhxprigdv" width="300%" x="-1" y="-1"><feGaussianBlur result="blurOut" stdDeviation="2.0"/><feColorMatrix in="blurOut" result="blurOut2" type="matrix" values="0 0 0 0 0 0 0 0 0 0 0 0 0 0 0 0 0 0 .4 0"/><feOffset dx="4.0" dy="4.0" in="blurOut2" result="blurOut3"/><feBlend in="SourceGraphic" in2="blurOut3" mode="normal"/></filter></defs><g><text fill="#000000" font-family="sans-serif" font-size="18" lengthAdjust="spacingAndGlyphs" text-decoration="underline" textLength="215" x="492.5" y="19.2419">DOMOTIX's Class Diagram</text><text fill="#000000" font-family="sans-serif" font-size="18" lengthAdjust="spacingAndGlyphs" textLength="0" x="602" y="43.7577"/><!--MD5=[c60679dfbe80eab0cae5e3add7b10464]
cluster src--><polygon fill="#FFFFFF" filter="url(#f18tsrhxprigdv)" points="581,65.0317,606,65.0317,613,90.0996,675,90.0996,675,151.0317,581,151.0317,581,65.0317" style="stroke: #000000; stroke-width: 1.5;"/><line style="stroke: #000000; stroke-width: 1.5;" x1="581" x2="613" y1="90.0996" y2="90.0996"/><text fill="#000000" font-family="sans-serif" font-size="14" font-weight="bold" lengthAdjust="spacingAndGlyphs" textLength="19" x="585" y="81.9976">src</text><!--MD5=[e3c3ae39643e55df7c1a0329eec479c9]
cluster src.domotix.controller--><polygon fill="#FFFFFF" filter="url(#f18tsrhxprigdv)" points="14,173.0317,166,173.0317,173,198.0996,853,198.0996,853,259.0317,14,259.0317,14,173.0317" style="stroke: #000000; stroke-width: 1.5;"/><line style="stroke: #000000; stroke-width: 1.5;" x1="14" x2="173" y1="198.0996" y2="198.0996"/><text fill="#000000" font-family="sans-serif" font-size="14" font-weight="bold" lengthAdjust="spacingAndGlyphs" textLength="146" x="18" y="189.9976">src.domotix.controller</text><!--MD5=[8e0e0f0c97ec05372c8c81240809cf06]
cluster src.domotix.view--><polygon fill="#FFFFFF" filter="url(#f18tsrhxprigdv)" points="864,173.0317,980,173.0317,987,198.0996,990,198.0996,990,259.0317,864,259.0317,864,173.0317" style="stroke: #000000; stroke-width: 1.5;"/><line style="stroke: #000000; stroke-width: 1.5;" x1="864" x2="987" y1="198.0996" y2="198.0996"/><text fill="#000000" font-family="sans-serif" font-size="14" font-weight="bold" lengthAdjust="spacingAndGlyphs" textLength="110" x="868" y="189.9976">src.domotix.view</text><!--MD5=[0a790ac5fdecc1ec79658b6b98c9068e]
cluster src.domotix.model--><polygon fill="#FFFFFF" filter="url(#f18tsrhxprigdv)" points="1000,173.0317,1127,173.0317,1134,198.0996,1174,198.0996,1174,259.0317,1000,259.0317,1000,173.0317" style="stroke: #000000; stroke-width: 1.5;"/><line style="stroke: #000000; stroke-width: 1.5;" x1="1000" x2="1134" y1="198.0996" y2="198.0996"/><text fill="#000000" font-family="sans-serif" font-size="14" font-weight="bold" lengthAdjust="spacingAndGlyphs" textLength="121" x="1004" y="189.9976">src.domotix.model</text><!--MD5=[0f1c019a56dea9df6ab0c42d716fb196]
class src.Domotix--><rect fill="#FEFECE" filter="url(#f18tsrhxprigdv)" height="48" id="src.Domotix" style="stroke: #A80036; stroke-width: 1.5;" width="78" x="589" y="95.0317"/><ellipse cx="604" cy="111.0317" fill="#ADD1B2" rx="11" ry="11" style="stroke: #A80036; stroke-width: 1.0;"/><path d="M603.9688,117.2036 Q602.2188,117.2036 601.0781,116.4692 Q599.9531,115.7192 599.3906,114.3754 Q598.8438,113.0161 598.8438,111.2192 Q598.8438,109.1879 599.5,107.7348 Q600.1563,106.2817 601.4375,105.5004 Q602.7188,104.7192 604.5938,104.7192 Q605.4844,104.7192 606.1563,104.9067 Q606.8281,105.0786 607.5156,105.4223 L606.7031,107.4379 Q606.0781,107.1254 605.5313,107.0004 Q605,106.8754 604.5156,106.8754 Q603.3438,106.8754 602.6406,107.4067 Q601.9375,107.9379 601.6406,108.8911 Q601.3438,109.8442 601.3438,111.1098 Q601.3438,113.1254 602.0625,114.0942 Q602.7813,115.0473 604.375,115.0473 Q604.9688,115.0473 605.5938,114.8911 Q606.2188,114.7348 607.0469,114.3598 L607.0469,116.5786 Q606.3125,116.8911 605.5156,117.0473 Q604.7344,117.2036 603.9688,117.2036 Z "/><text fill="#000000" font-family="sans-serif" font-size="12" lengthAdjust="spacingAndGlyphs" textLength="46" x="618" y="115.6877">Domotix</text><line style="stroke: #A80036; stroke-width: 1.5;" x1="590" x2="666" y1="127.0317" y2="127.0317"/><line style="stroke: #A80036; stroke-width: 1.5;" x1="590" x2="666" y1="135.0317" y2="135.0317"/><!--MD5=[1ddd180088a80c3f21304f5ea42348e6]
class src.domotix.controller.OperazioniIniziali--><rect fill="#FEFECE" filter="url(#f18tsrhxprigdv)" height="48" id="src.domotix.controller.OperazioniIniziali" style="stroke: #A80036; stroke-width: 1.5;" width="123" x="721.5" y="203.0317"/><ellipse cx="736.5" cy="219.0317" fill="#ADD1B2" rx="11" ry="11" style="stroke: #A80036; stroke-width: 1.0;"/><path d="M736.4688,225.2036 Q734.7188,225.2036 733.5781,224.4692 Q732.4531,223.7192 731.8906,222.3754 Q731.3438,221.0161 731.3438,219.2192 Q731.3438,217.1879 732,215.7348 Q732.6563,214.2817 733.9375,213.5004 Q735.2188,212.7192 737.0938,212.7192 Q737.9844,212.7192 738.6563,212.9067 Q739.3281,213.0786 740.0156,213.4223 L739.2031,215.4379 Q738.5781,215.1254 738.0313,215.0004 Q737.5,214.8754 737.0156,214.8754 Q735.8438,214.8754 735.1406,215.4067 Q734.4375,215.9379 734.1406,216.8911 Q733.8438,217.8442 733.8438,219.1098 Q733.8438,221.1254 734.5625,222.0942 Q735.2813,223.0473 736.875,223.0473 Q737.4688,223.0473 738.0938,222.8911 Q738.7188,222.7348 739.5469,222.3598 L739.5469,224.5786 Q738.8125,224.8911 738.0156,225.0473 Q737.2344,225.2036 736.4688,225.2036 Z "/><text fill="#000000" font-family="sans-serif" font-size="12" lengthAdjust="spacingAndGlyphs" textLength="91" x="750.5" y="223.6877">OperazioniIniziali</text><line style="stroke: #A80036; stroke-width: 1.5;" x1="722.5" x2="843.5" y1="235.0317" y2="235.0317"/><line style="stroke: #A80036; stroke-width: 1.5;" x1="722.5" x2="843.5" y1="243.0317" y2="243.0317"/><!--MD5=[0762cb38a47bd56911b261b0ac435b54]
class src.domotix.controller.OperazioniFinali--><rect fill="#FEFECE" filter="url(#f18tsrhxprigdv)" height="48" id="src.domotix.controller.OperazioniFinali" style="stroke: #A80036; stroke-width: 1.5;" width="117" x="569.5" y="203.0317"/><ellipse cx="584.5" cy="219.0317" fill="#ADD1B2" rx="11" ry="11" style="stroke: #A80036; stroke-width: 1.0;"/><path d="M584.4688,225.2036 Q582.7188,225.2036 581.5781,224.4692 Q580.4531,223.7192 579.8906,222.3754 Q579.3438,221.0161 579.3438,219.2192 Q579.3438,217.1879 580,215.7348 Q580.6563,214.2817 581.9375,213.5004 Q583.2188,212.7192 585.0938,212.7192 Q585.9844,212.7192 586.6563,212.9067 Q587.3281,213.0786 588.0156,213.4223 L587.2031,215.4379 Q586.5781,215.1254 586.0313,215.0004 Q585.5,214.8754 585.0156,214.8754 Q583.8438,214.8754 583.1406,215.4067 Q582.4375,215.9379 582.1406,216.8911 Q581.8438,217.8442 581.8438,219.1098 Q581.8438,221.1254 582.5625,222.0942 Q583.2813,223.0473 584.875,223.0473 Q585.4688,223.0473 586.0938,222.8911 Q586.7188,222.7348 587.5469,222.3598 L587.5469,224.5786 Q586.8125,224.8911 586.0156,225.0473 Q585.2344,225.2036 584.4688,225.2036 Z "/><text fill="#000000" font-family="sans-serif" font-size="12" lengthAdjust="spacingAndGlyphs" textLength="85" x="598.5" y="223.6877">OperazioniFinali</text><line style="stroke: #A80036; stroke-width: 1.5;" x1="570.5" x2="685.5" y1="235.0317" y2="235.0317"/><line style="stroke: #A80036; stroke-width: 1.5;" x1="570.5" x2="685.5" y1="243.0317" y2="243.0317"/><!--MD5=[f810c510c7031853d87759381cafdb98]
class src.domotix.controller.TimerGestioneRegole--><rect fill="#FEFECE" filter="url(#f18tsrhxprigdv)" height="48" id="src.domotix.controller.TimerGestioneRegole" style="stroke: #A80036; stroke-width: 1.5;" width="144" x="390" y="203.0317"/><ellipse cx="405" cy="219.0317" fill="#ADD1B2" rx="11" ry="11" style="stroke: #A80036; stroke-width: 1.0;"/><path d="M404.9688,225.2036 Q403.2188,225.2036 402.0781,224.4692 Q400.9531,223.7192 400.3906,222.3754 Q399.8438,221.0161 399.8438,219.2192 Q399.8438,217.1879 400.5,215.7348 Q401.1563,214.2817 402.4375,213.5004 Q403.7188,212.7192 405.5938,212.7192 Q406.4844,212.7192 407.1563,212.9067 Q407.8281,213.0786 408.5156,213.4223 L407.7031,215.4379 Q407.0781,215.1254 406.5313,215.0004 Q406,214.8754 405.5156,214.8754 Q404.3438,214.8754 403.6406,215.4067 Q402.9375,215.9379 402.6406,216.8911 Q402.3438,217.8442 402.3438,219.1098 Q402.3438,221.1254 403.0625,222.0942 Q403.7813,223.0473 405.375,223.0473 Q405.9688,223.0473 406.5938,222.8911 Q407.2188,222.7348 408.0469,222.3598 L408.0469,224.5786 Q407.3125,224.8911 406.5156,225.0473 Q405.7344,225.2036 404.9688,225.2036 Z "/><text fill="#000000" font-family="sans-serif" font-size="12" lengthAdjust="spacingAndGlyphs" textLength="112" x="419" y="223.6877">TimerGestioneRegole</text><line style="stroke: #A80036; stroke-width: 1.5;" x1="391" x2="533" y1="235.0317" y2="235.0317"/><line style="stroke: #A80036; stroke-width: 1.5;" x1="391" x2="533" y1="243.0317" y2="243.0317"/><!--MD5=[9dd4d893f06eeaae370558f9cea874e1]
class src.domotix.controller.TimerRinfrescoDati--><rect fill="#FEFECE" filter="url(#f18tsrhxprigdv)" height="48" id="src.domotix.controller.TimerRinfrescoDati" style="stroke: #A80036; stroke-width: 1.5;" width="131" x="223.5" y="203.0317"/><ellipse cx="238.5" cy="219.0317" fill="#ADD1B2" rx="11" ry="11" style="stroke: #A80036; stroke-width: 1.0;"/><path d="M238.4688,225.2036 Q236.7188,225.2036 235.5781,224.4692 Q234.4531,223.7192 233.8906,222.3754 Q233.3438,221.0161 233.3438,219.2192 Q233.3438,217.1879 234,215.7348 Q234.6563,214.2817 235.9375,213.5004 Q237.2188,212.7192 239.0938,212.7192 Q239.9844,212.7192 240.6563,212.9067 Q241.3281,213.0786 242.0156,213.4223 L241.2031,215.4379 Q240.5781,215.1254 240.0313,215.0004 Q239.5,214.8754 239.0156,214.8754 Q237.8438,214.8754 237.1406,215.4067 Q236.4375,215.9379 236.1406,216.8911 Q235.8438,217.8442 235.8438,219.1098 Q235.8438,221.1254 236.5625,222.0942 Q237.2813,223.0473 238.875,223.0473 Q239.4688,223.0473 240.0938,222.8911 Q240.7188,222.7348 241.5469,222.3598 L241.5469,224.5786 Q240.8125,224.8911 240.0156,225.0473 Q239.2344,225.2036 238.4688,225.2036 Z "/><text fill="#000000" font-family="sans-serif" font-size="12" lengthAdjust="spacingAndGlyphs" textLength="99" x="252.5" y="223.6877">TimerRinfrescoDati</text><line style="stroke: #A80036; stroke-width: 1.5;" x1="224.5" x2="353.5" y1="235.0317" y2="235.0317"/><line style="stroke: #A80036; stroke-width: 1.5;" x1="224.5" x2="353.5" y1="243.0317" y2="243.0317"/><!--MD5=[73a1c6930679f2f68b4ce1ad561192c8]
class src.domotix.controller.TimerAzioniProgrammate--><rect fill="#FEFECE" filter="url(#f18tsrhxprigdv)" height="48" id="src.domotix.controller.TimerAzioniProgrammate" style="stroke: #A80036; stroke-width: 1.5;" width="167" x="21.5" y="203.0317"/><ellipse cx="36.5" cy="219.0317" fill="#ADD1B2" rx="11" ry="11" style="stroke: #A80036; stroke-width: 1.0;"/><path d="M36.4688,225.2036 Q34.7188,225.2036 33.5781,224.4692 Q32.4531,223.7192 31.8906,222.3754 Q31.3438,221.0161 31.3438,219.2192 Q31.3438,217.1879 32,215.7348 Q32.6563,214.2817 33.9375,213.5004 Q35.2188,212.7192 37.0938,212.7192 Q37.9844,212.7192 38.6563,212.9067 Q39.3281,213.0786 40.0156,213.4223 L39.2031,215.4379 Q38.5781,215.1254 38.0313,215.0004 Q37.5,214.8754 37.0156,214.8754 Q35.8438,214.8754 35.1406,215.4067 Q34.4375,215.9379 34.1406,216.8911 Q33.8438,217.8442 33.8438,219.1098 Q33.8438,221.1254 34.5625,222.0942 Q35.2813,223.0473 36.875,223.0473 Q37.4688,223.0473 38.0938,222.8911 Q38.7188,222.7348 39.5469,222.3598 L39.5469,224.5786 Q38.8125,224.8911 38.0156,225.0473 Q37.2344,225.2036 36.4688,225.2036 Z "/><text fill="#000000" font-family="sans-serif" font-size="12" lengthAdjust="spacingAndGlyphs" textLength="135" x="50.5" y="223.6877">TimerAzioniProgrammate</text><line style="stroke: #A80036; stroke-width: 1.5;" x1="22.5" x2="187.5" y1="235.0317" y2="235.0317"/><line style="stroke: #A80036; stroke-width: 1.5;" x1="22.5" x2="187.5" y1="243.0317" y2="243.0317"/><!--MD5=[82b6d2c76bcd47fb598aa8d69dd4fdfa]
class src.domotix.view.MenuLogin--><rect fill="#FEFECE" filter="url(#f18tsrhxprigdv)" height="48" id="src.domotix.view.MenuLogin" style="stroke: #A80036; stroke-width: 1.5;" width="92" x="880" y="203.0317"/><ellipse cx="895" cy="219.0317" fill="#ADD1B2" rx="11" ry="11" style="stroke: #A80036; stroke-width: 1.0;"/><path d="M894.9688,225.2036 Q893.2188,225.2036 892.0781,224.4692 Q890.9531,223.7192 890.3906,222.3754 Q889.8438,221.0161 889.8438,219.2192 Q889.8438,217.1879 890.5,215.7348 Q891.1563,214.2817 892.4375,213.5004 Q893.7188,212.7192 895.5938,212.7192 Q896.4844,212.7192 897.1563,212.9067 Q897.8281,213.0786 898.5156,213.4223 L897.7031,215.4379 Q897.0781,215.1254 896.5313,215.0004 Q896,214.8754 895.5156,214.8754 Q894.3438,214.8754 893.6406,215.4067 Q892.9375,215.9379 892.6406,216.8911 Q892.3438,217.8442 892.3438,219.1098 Q892.3438,221.1254 893.0625,222.0942 Q893.7813,223.0473 895.375,223.0473 Q895.9688,223.0473 896.5938,222.8911 Q897.2188,222.7348 898.0469,222.3598 L898.0469,224.5786 Q897.3125,224.8911 896.5156,225.0473 Q895.7344,225.2036 894.9688,225.2036 Z "/><text fill="#000000" font-family="sans-serif" font-size="12" lengthAdjust="spacingAndGlyphs" textLength="60" x="909" y="223.6877">MenuLogin</text><line style="stroke: #A80036; stroke-width: 1.5;" x1="881" x2="971" y1="235.0317" y2="235.0317"/><line style="stroke: #A80036; stroke-width: 1.5;" x1="881" x2="971" y1="243.0317" y2="243.0317"/><!--MD5=[13e6f612cc274e267b065d80a49bdf15]
class src.domotix.model.ElencoUnitaImmobiliare--><rect fill="#FEFECE" filter="url(#f18tsrhxprigdv)" height="48" id="src.domotix.model.ElencoUnitaImmobiliare" style="stroke: #A80036; stroke-width: 1.5;" width="159" x="1007.5" y="203.0317"/><ellipse cx="1022.5" cy="219.0317" fill="#ADD1B2" rx="11" ry="11" style="stroke: #A80036; stroke-width: 1.0;"/><path d="M1022.4688,225.2036 Q1020.7188,225.2036 1019.5781,224.4692 Q1018.4531,223.7192 1017.8906,222.3754 Q1017.3438,221.0161 1017.3438,219.2192 Q1017.3438,217.1879 1018,215.7348 Q1018.6563,214.2817 1019.9375,213.5004 Q1021.2188,212.7192 1023.0938,212.7192 Q1023.9844,212.7192 1024.6563,212.9067 Q1025.3281,213.0786 1026.0156,213.4223 L1025.2031,215.4379 Q1024.5781,215.1254 1024.0313,215.0004 Q1023.5,214.8754 1023.0156,214.8754 Q1021.8438,214.8754 1021.1406,215.4067 Q1020.4375,215.9379 1020.1406,216.8911 Q1019.8438,217.8442 1019.8438,219.1098 Q1019.8438,221.1254 1020.5625,222.0942 Q1021.2813,223.0473 1022.875,223.0473 Q1023.4688,223.0473 1024.0938,222.8911 Q1024.7188,222.7348 1025.5469,222.3598 L1025.5469,224.5786 Q1024.8125,224.8911 1024.0156,225.0473 Q1023.2344,225.2036 1022.4688,225.2036 Z "/><text fill="#000000" font-family="sans-serif" font-size="12" lengthAdjust="spacingAndGlyphs" textLength="127" x="1036.5" y="223.6877">ElencoUnitaImmobiliare</text><line style="stroke: #A80036; stroke-width: 1.5;" x1="1008.5" x2="1165.5" y1="235.0317" y2="235.0317"/><line style="stroke: #A80036; stroke-width: 1.5;" x1="1008.5" x2="1165.5" y1="243.0317" y2="243.0317"/><!--MD5=[1a64e281eaa690c52e0e032ff5cd0509]
link src.Domotix to src.domotix.controller.OperazioniIniziali--><path d="M662.785,143.269 C686.9163,160.083 719.0825,182.4956 744.0695,199.9059 " fill="none" id="src.Domotix-&gt;src.domotix.controller.OperazioniIniziali" style="stroke: #A80036; stroke-width: 1.0;"/><polygon fill="#A80036" points="748.3311,202.8753,743.2335,194.4483,744.2287,200.0169,738.6601,201.0121,748.3311,202.8753" style="stroke: #A80036; stroke-width: 1.0;"/><!--MD5=[faa11229f34e6d7cca369ac0e5f46f0f]
link src.Domotix to src.domotix.controller.OperazioniFinali--><path d="M628,143.269 C628,159.3882 628,180.6529 628,197.7228 " fill="none" id="src.Domotix-&gt;src.domotix.controller.OperazioniFinali" style="stroke: #A80036; stroke-width: 1.0;"/><polygon fill="#A80036" points="628,202.8753,632,193.8753,628,197.8753,624,193.8753,628,202.8753" style="stroke: #A80036; stroke-width: 1.0;"/><!--MD5=[a956b6a18741f3c1b017a7325b612a5e]
link src.Domotix to src.domotix.controller.TimerGestioneRegole--><path d="M590.7464,143.269 C564.7958,160.1525 530.1687,182.681 503.362,200.1215 " fill="none" id="src.Domotix-&gt;src.domotix.controller.TimerGestioneRegole" style="stroke: #A80036; stroke-width: 1.0;"/><polygon fill="#A80036" points="499.1293,202.8753,508.8546,201.3199,503.3203,200.1485,504.4917,194.6143,499.1293,202.8753" style="stroke: #A80036; stroke-width: 1.0;"/><!--MD5=[51795f69f07d8a263f8faf0789299b4a]
link src.Domotix to src.domotix.controller.TimerRinfrescoDati--><path d="M588.6877,122.8891 C537.4582,128.9069 445.8266,143.0951 373,173.0317 C356.2886,179.9012 339.2622,190.1271 324.9468,199.8381 " fill="none" id="src.Domotix-&gt;src.domotix.controller.TimerRinfrescoDati" style="stroke: #A80036; stroke-width: 1.0;"/><polygon fill="#A80036" points="320.5945,202.8311,330.2768,201.0275,324.7144,199.998,325.7439,194.4356,320.5945,202.8311" style="stroke: #A80036; stroke-width: 1.0;"/><!--MD5=[b8f5aa75516b7c86377cda0de3828a1b]
link src.Domotix to src.domotix.controller.TimerAzioniProgrammate--><path d="M588.741,122.2251 C498.1771,129.8864 276.9759,150.3644 206,173.0317 C185.5703,179.5563 164.4266,190.1687 146.7972,200.2662 " fill="none" id="src.Domotix-&gt;src.domotix.controller.TimerAzioniProgrammate" style="stroke: #A80036; stroke-width: 1.0;"/><polygon fill="#A80036" points="142.3935,202.8195,152.1858,201.7658,146.7191,200.3116,148.1733,194.8449,142.3935,202.8195" style="stroke: #A80036; stroke-width: 1.0;"/><!--MD5=[8acf923566c982d5c47a007374f5bfa1]
link src.Domotix to src.domotix.view.MenuLogin--><path d="M667.386,122.5506 C715.2818,128.0636 797.5767,141.5707 861,173.0317 C874.5781,179.7671 887.7831,189.8608 898.7048,199.5053 " fill="none" id="src.Domotix-&gt;src.domotix.view.MenuLogin" style="stroke: #A80036; stroke-width: 1.0;"/><polygon fill="#A80036" points="902.6217,203.0312,898.6086,194.037,898.9055,199.6861,893.2564,199.983,902.6217,203.0312" style="stroke: #A80036; stroke-width: 1.0;"/><!--MD5=[653581e314f29ca2825c6b401f7bad40]
link src.Domotix to src.domotix.model.ElencoUnitaImmobiliare--><path d="M667.058,122.7429 C749.2601,130.876 937.5226,151.2881 998,173.0317 C1016.1885,179.5711 1034.7125,190.0708 1050.1175,200.0807 " fill="none" id="src.Domotix-&gt;src.domotix.model.ElencoUnitaImmobiliare" style="stroke: #A80036; stroke-width: 1.0;"/><polygon fill="#A80036" points="1054.3769,202.8873,1049.0626,194.5952,1050.2018,200.1362,1044.6608,201.2754,1054.3769,202.8873" style="stroke: #A80036; stroke-width: 1.0;"/><!--MD5=[9dfa4c53f8592584770f4e17aac8c4ac]
@startuml

title __DOMOTIX's Class Diagram__\n

    namespace src {
        class Domotix {
        }
    }

    src.Domotix - -> src.domotix.controller.OperazioniIniziali
    src.Domotix - -> src.domotix.controller.OperazioniFinali
    src.Domotix - -> src.domotix.controller.TimerGestioneRegole
    src.Domotix - -> src.domotix.controller.TimerRinfrescoDati
    src.Domotix - -> src.domotix.controller.TimerAzioniProgrammate
    src.Domotix - -> src.domotix.view.MenuLogin
    src.Domotix - -> src.domotix.model.ElencoUnitaImmobiliare


@enduml

PlantUML version 1.2019.11(Sun Sep 22 12:02:15 CEST 2019)
(GPL source distribution)
Java Runtime: OpenJDK Runtime Environment
JVM: OpenJDK 64-Bit Server VM
Java Version: 11.0.3+12-b304.10
Operating System: Linux
Default Encoding: UTF-8
Language: it
Country: IT
--></g></svg>