<?xml version="1.0" encoding="UTF-8" standalone="no"?><svg xmlns="http://www.w3.org/2000/svg" xmlns:xlink="http://www.w3.org/1999/xlink" contentScriptType="application/ecmascript" contentStyleType="text/css" height="271px" preserveAspectRatio="none" style="width:649px;height:271px;" version="1.1" viewBox="0 0 649 271" width="649px" zoomAndPan="magnify"><defs><filter height="300%" id="f52mevobvkbad" width="300%" x="-1" y="-1"><feGaussianBlur result="blurOut" stdDeviation="2.0"/><feColorMatrix in="blurOut" result="blurOut2" type="matrix" values="0 0 0 0 0 0 0 0 0 0 0 0 0 0 0 0 0 0 .4 0"/><feOffset dx="4.0" dy="4.0" in="blurOut2" result="blurOut3"/><feBlend in="SourceGraphic" in2="blurOut3" mode="normal"/></filter></defs><g><text fill="#000000" font-family="sans-serif" font-size="18" lengthAdjust="spacingAndGlyphs" text-decoration="underline" textLength="215" x="219" y="19.2419">DOMOTIX's Class Diagram</text><text fill="#000000" font-family="sans-serif" font-size="18" lengthAdjust="spacingAndGlyphs" textLength="0" x="328.5" y="43.7577"/><!--MD5=[c60679dfbe80eab0cae5e3add7b10464]
cluster src--><polygon fill="#FFFFFF" filter="url(#f52mevobvkbad)" points="260,65.0317,285,65.0317,292,90.0996,354,90.0996,354,151.0317,260,151.0317,260,65.0317" style="stroke: #000000; stroke-width: 1.5;"/><line style="stroke: #000000; stroke-width: 1.5;" x1="260" x2="292" y1="90.0996" y2="90.0996"/><text fill="#000000" font-family="sans-serif" font-size="14" font-weight="bold" lengthAdjust="spacingAndGlyphs" textLength="19" x="264" y="81.9976">src</text><!--MD5=[e3c3ae39643e55df7c1a0329eec479c9]
cluster src.domotix.controller--><polygon fill="#FFFFFF" filter="url(#f52mevobvkbad)" points="14,173.0317,166,173.0317,173,198.0996,306,198.0996,306,259.0317,14,259.0317,14,173.0317" style="stroke: #000000; stroke-width: 1.5;"/><line style="stroke: #000000; stroke-width: 1.5;" x1="14" x2="173" y1="198.0996" y2="198.0996"/><text fill="#000000" font-family="sans-serif" font-size="14" font-weight="bold" lengthAdjust="spacingAndGlyphs" textLength="146" x="18" y="189.9976">src.domotix.controller</text><!--MD5=[8e0e0f0c97ec05372c8c81240809cf06]
cluster src.domotix.view--><polygon fill="#FFFFFF" filter="url(#f52mevobvkbad)" points="317,173.0317,433,173.0317,440,198.0996,443,198.0996,443,259.0317,317,259.0317,317,173.0317" style="stroke: #000000; stroke-width: 1.5;"/><line style="stroke: #000000; stroke-width: 1.5;" x1="317" x2="440" y1="198.0996" y2="198.0996"/><text fill="#000000" font-family="sans-serif" font-size="14" font-weight="bold" lengthAdjust="spacingAndGlyphs" textLength="110" x="321" y="189.9976">src.domotix.view</text><!--MD5=[0a790ac5fdecc1ec79658b6b98c9068e]
cluster src.domotix.model--><polygon fill="#FFFFFF" filter="url(#f52mevobvkbad)" points="453,173.0317,580,173.0317,587,198.0996,627,198.0996,627,259.0317,453,259.0317,453,173.0317" style="stroke: #000000; stroke-width: 1.5;"/><line style="stroke: #000000; stroke-width: 1.5;" x1="453" x2="587" y1="198.0996" y2="198.0996"/><text fill="#000000" font-family="sans-serif" font-size="14" font-weight="bold" lengthAdjust="spacingAndGlyphs" textLength="121" x="457" y="189.9976">src.domotix.model</text><!--MD5=[0f1c019a56dea9df6ab0c42d716fb196]
class src.Domotix--><rect fill="#FEFECE" filter="url(#f52mevobvkbad)" height="48" id="src.Domotix" style="stroke: #A80036; stroke-width: 1.5;" width="78" x="268" y="95.0317"/><ellipse cx="283" cy="111.0317" fill="#ADD1B2" rx="11" ry="11" style="stroke: #A80036; stroke-width: 1.0;"/><path d="M282.9688,117.2036 Q281.2188,117.2036 280.0781,116.4692 Q278.9531,115.7192 278.3906,114.3754 Q277.8438,113.0161 277.8438,111.2192 Q277.8438,109.1879 278.5,107.7348 Q279.1563,106.2817 280.4375,105.5004 Q281.7188,104.7192 283.5938,104.7192 Q284.4844,104.7192 285.1563,104.9067 Q285.8281,105.0786 286.5156,105.4223 L285.7031,107.4379 Q285.0781,107.1254 284.5313,107.0004 Q284,106.8754 283.5156,106.8754 Q282.3438,106.8754 281.6406,107.4067 Q280.9375,107.9379 280.6406,108.8911 Q280.3438,109.8442 280.3438,111.1098 Q280.3438,113.1254 281.0625,114.0942 Q281.7813,115.0473 283.375,115.0473 Q283.9688,115.0473 284.5938,114.8911 Q285.2188,114.7348 286.0469,114.3598 L286.0469,116.5786 Q285.3125,116.8911 284.5156,117.0473 Q283.7344,117.2036 282.9688,117.2036 Z "/><text fill="#000000" font-family="sans-serif" font-size="12" lengthAdjust="spacingAndGlyphs" textLength="46" x="297" y="115.6877">Domotix</text><line style="stroke: #A80036; stroke-width: 1.5;" x1="269" x2="345" y1="127.0317" y2="127.0317"/><line style="stroke: #A80036; stroke-width: 1.5;" x1="269" x2="345" y1="135.0317" y2="135.0317"/><!--MD5=[1ddd180088a80c3f21304f5ea42348e6]
class src.domotix.controller.OperazioniIniziali--><rect fill="#FEFECE" filter="url(#f52mevobvkbad)" height="48" id="src.domotix.controller.OperazioniIniziali" style="stroke: #A80036; stroke-width: 1.5;" width="123" x="174.5" y="203.0317"/><ellipse cx="189.5" cy="219.0317" fill="#ADD1B2" rx="11" ry="11" style="stroke: #A80036; stroke-width: 1.0;"/><path d="M189.4688,225.2036 Q187.7188,225.2036 186.5781,224.4692 Q185.4531,223.7192 184.8906,222.3754 Q184.3438,221.0161 184.3438,219.2192 Q184.3438,217.1879 185,215.7348 Q185.6563,214.2817 186.9375,213.5004 Q188.2188,212.7192 190.0938,212.7192 Q190.9844,212.7192 191.6563,212.9067 Q192.3281,213.0786 193.0156,213.4223 L192.2031,215.4379 Q191.5781,215.1254 191.0313,215.0004 Q190.5,214.8754 190.0156,214.8754 Q188.8438,214.8754 188.1406,215.4067 Q187.4375,215.9379 187.1406,216.8911 Q186.8438,217.8442 186.8438,219.1098 Q186.8438,221.1254 187.5625,222.0942 Q188.2813,223.0473 189.875,223.0473 Q190.4688,223.0473 191.0938,222.8911 Q191.7188,222.7348 192.5469,222.3598 L192.5469,224.5786 Q191.8125,224.8911 191.0156,225.0473 Q190.2344,225.2036 189.4688,225.2036 Z "/><text fill="#000000" font-family="sans-serif" font-size="12" lengthAdjust="spacingAndGlyphs" textLength="91" x="203.5" y="223.6877">OperazioniIniziali</text><line style="stroke: #A80036; stroke-width: 1.5;" x1="175.5" x2="296.5" y1="235.0317" y2="235.0317"/><line style="stroke: #A80036; stroke-width: 1.5;" x1="175.5" x2="296.5" y1="243.0317" y2="243.0317"/><!--MD5=[0762cb38a47bd56911b261b0ac435b54]
class src.domotix.controller.OperazioniFinali--><rect fill="#FEFECE" filter="url(#f52mevobvkbad)" height="48" id="src.domotix.controller.OperazioniFinali" style="stroke: #A80036; stroke-width: 1.5;" width="117" x="22.5" y="203.0317"/><ellipse cx="37.5" cy="219.0317" fill="#ADD1B2" rx="11" ry="11" style="stroke: #A80036; stroke-width: 1.0;"/><path d="M37.4688,225.2036 Q35.7188,225.2036 34.5781,224.4692 Q33.4531,223.7192 32.8906,222.3754 Q32.3438,221.0161 32.3438,219.2192 Q32.3438,217.1879 33,215.7348 Q33.6563,214.2817 34.9375,213.5004 Q36.2188,212.7192 38.0938,212.7192 Q38.9844,212.7192 39.6563,212.9067 Q40.3281,213.0786 41.0156,213.4223 L40.2031,215.4379 Q39.5781,215.1254 39.0313,215.0004 Q38.5,214.8754 38.0156,214.8754 Q36.8438,214.8754 36.1406,215.4067 Q35.4375,215.9379 35.1406,216.8911 Q34.8438,217.8442 34.8438,219.1098 Q34.8438,221.1254 35.5625,222.0942 Q36.2813,223.0473 37.875,223.0473 Q38.4688,223.0473 39.0938,222.8911 Q39.7188,222.7348 40.5469,222.3598 L40.5469,224.5786 Q39.8125,224.8911 39.0156,225.0473 Q38.2344,225.2036 37.4688,225.2036 Z "/><text fill="#000000" font-family="sans-serif" font-size="12" lengthAdjust="spacingAndGlyphs" textLength="85" x="51.5" y="223.6877">OperazioniFinali</text><line style="stroke: #A80036; stroke-width: 1.5;" x1="23.5" x2="138.5" y1="235.0317" y2="235.0317"/><line style="stroke: #A80036; stroke-width: 1.5;" x1="23.5" x2="138.5" y1="243.0317" y2="243.0317"/><!--MD5=[82b6d2c76bcd47fb598aa8d69dd4fdfa]
class src.domotix.view.MenuLogin--><rect fill="#FEFECE" filter="url(#f52mevobvkbad)" height="48" id="src.domotix.view.MenuLogin" style="stroke: #A80036; stroke-width: 1.5;" width="92" x="333" y="203.0317"/><ellipse cx="348" cy="219.0317" fill="#ADD1B2" rx="11" ry="11" style="stroke: #A80036; stroke-width: 1.0;"/><path d="M347.9688,225.2036 Q346.2188,225.2036 345.0781,224.4692 Q343.9531,223.7192 343.3906,222.3754 Q342.8438,221.0161 342.8438,219.2192 Q342.8438,217.1879 343.5,215.7348 Q344.1563,214.2817 345.4375,213.5004 Q346.7188,212.7192 348.5938,212.7192 Q349.4844,212.7192 350.1563,212.9067 Q350.8281,213.0786 351.5156,213.4223 L350.7031,215.4379 Q350.0781,215.1254 349.5313,215.0004 Q349,214.8754 348.5156,214.8754 Q347.3438,214.8754 346.6406,215.4067 Q345.9375,215.9379 345.6406,216.8911 Q345.3438,217.8442 345.3438,219.1098 Q345.3438,221.1254 346.0625,222.0942 Q346.7813,223.0473 348.375,223.0473 Q348.9688,223.0473 349.5938,222.8911 Q350.2188,222.7348 351.0469,222.3598 L351.0469,224.5786 Q350.3125,224.8911 349.5156,225.0473 Q348.7344,225.2036 347.9688,225.2036 Z "/><text fill="#000000" font-family="sans-serif" font-size="12" lengthAdjust="spacingAndGlyphs" textLength="60" x="362" y="223.6877">MenuLogin</text><line style="stroke: #A80036; stroke-width: 1.5;" x1="334" x2="424" y1="235.0317" y2="235.0317"/><line style="stroke: #A80036; stroke-width: 1.5;" x1="334" x2="424" y1="243.0317" y2="243.0317"/><!--MD5=[13e6f612cc274e267b065d80a49bdf15]
class src.domotix.model.ElencoUnitaImmobiliare--><rect fill="#FEFECE" filter="url(#f52mevobvkbad)" height="48" id="src.domotix.model.ElencoUnitaImmobiliare" style="stroke: #A80036; stroke-width: 1.5;" width="159" x="460.5" y="203.0317"/><ellipse cx="475.5" cy="219.0317" fill="#ADD1B2" rx="11" ry="11" style="stroke: #A80036; stroke-width: 1.0;"/><path d="M475.4688,225.2036 Q473.7188,225.2036 472.5781,224.4692 Q471.4531,223.7192 470.8906,222.3754 Q470.3438,221.0161 470.3438,219.2192 Q470.3438,217.1879 471,215.7348 Q471.6563,214.2817 472.9375,213.5004 Q474.2188,212.7192 476.0938,212.7192 Q476.9844,212.7192 477.6563,212.9067 Q478.3281,213.0786 479.0156,213.4223 L478.2031,215.4379 Q477.5781,215.1254 477.0313,215.0004 Q476.5,214.8754 476.0156,214.8754 Q474.8438,214.8754 474.1406,215.4067 Q473.4375,215.9379 473.1406,216.8911 Q472.8438,217.8442 472.8438,219.1098 Q472.8438,221.1254 473.5625,222.0942 Q474.2813,223.0473 475.875,223.0473 Q476.4688,223.0473 477.0938,222.8911 Q477.7188,222.7348 478.5469,222.3598 L478.5469,224.5786 Q477.8125,224.8911 477.0156,225.0473 Q476.2344,225.2036 475.4688,225.2036 Z "/><text fill="#000000" font-family="sans-serif" font-size="12" lengthAdjust="spacingAndGlyphs" textLength="127" x="489.5" y="223.6877">ElencoUnitaImmobiliare</text><line style="stroke: #A80036; stroke-width: 1.5;" x1="461.5" x2="618.5" y1="235.0317" y2="235.0317"/><line style="stroke: #A80036; stroke-width: 1.5;" x1="461.5" x2="618.5" y1="243.0317" y2="243.0317"/><!--MD5=[1a64e281eaa690c52e0e032ff5cd0509]
link src.Domotix to src.domotix.controller.OperazioniIniziali--><path d="M291.0662,143.269 C280.2866,159.6662 266.0067,181.3877 254.69,198.6019 " fill="none" id="src.Domotix-&gt;src.domotix.controller.OperazioniIniziali" style="stroke: #A80036; stroke-width: 1.0;"/><polygon fill="#A80036" points="251.8806,202.8753,260.1671,197.5523,254.6273,198.6973,253.4823,193.1575,251.8806,202.8753" style="stroke: #A80036; stroke-width: 1.0;"/><!--MD5=[faa11229f34e6d7cca369ac0e5f46f0f]
link src.Domotix to src.domotix.controller.OperazioniFinali--><path d="M267.8701,129.9091 C236.8643,139.2785 192.9348,154.248 157,173.0317 C142.5659,180.5766 127.7368,190.5333 115.0534,199.8401 " fill="none" id="src.Domotix-&gt;src.domotix.controller.OperazioniFinali" style="stroke: #A80036; stroke-width: 1.0;"/><polygon fill="#A80036" points="110.838,202.967,120.4495,200.8178,114.8538,199.9882,115.6834,194.3925,110.838,202.967" style="stroke: #A80036; stroke-width: 1.0;"/><!--MD5=[8acf923566c982d5c47a007374f5bfa1]
link src.Domotix to src.domotix.view.MenuLogin--><path d="M323.1582,143.269 C334.0896,159.6662 348.5707,181.3877 360.0468,198.6019 " fill="none" id="src.Domotix-&gt;src.domotix.view.MenuLogin" style="stroke: #A80036; stroke-width: 1.0;"/><polygon fill="#A80036" points="362.8957,202.8753,361.2315,193.1681,360.1222,198.7151,354.5752,197.6057,362.8957,202.8753" style="stroke: #A80036; stroke-width: 1.0;"/><!--MD5=[653581e314f29ca2825c6b401f7bad40]
link src.Domotix to src.domotix.model.ElencoUnitaImmobiliare--><path d="M346.0179,131.4548 C375.4612,141.3542 416.5343,156.295 451,173.0317 C467.2068,180.9018 484.2871,190.8309 499.1032,200.0221 " fill="none" id="src.Domotix-&gt;src.domotix.model.ElencoUnitaImmobiliare" style="stroke: #A80036; stroke-width: 1.0;"/><polygon fill="#A80036" points="503.6252,202.8478,498.1126,194.6862,499.385,200.1981,493.8731,201.4706,503.6252,202.8478" style="stroke: #A80036; stroke-width: 1.0;"/><!--MD5=[f5785670627c5cb8ae3ae6742120ed46]
@startuml

title __DOMOTIX's Class Diagram__\n

    namespace src {
        class Domotix {
        }
    }
  
    src.Domotix - -> src.domotix.controller.OperazioniIniziali
    src.Domotix - -> src.domotix.controller.OperazioniFinali
    src.Domotix - -> src.domotix.view.MenuLogin
    src.Domotix - -> src.domotix.model.ElencoUnitaImmobiliare


@enduml

PlantUML version 1.2019.11(Sun Sep 22 12:02:15 CEST 2019)
(GPL source distribution)
Java Runtime: OpenJDK Runtime Environment
JVM: OpenJDK 64-Bit Server VM
Java Version: 11.0.3+12-b304.10
Operating System: Linux
Default Encoding: UTF-8
Language: it
Country: IT
--></g></svg>