<?xml version="1.0" encoding="UTF-8" standalone="no"?><svg xmlns="http://www.w3.org/2000/svg" xmlns:xlink="http://www.w3.org/1999/xlink" contentScriptType="application/ecmascript" contentStyleType="text/css" height="404px" preserveAspectRatio="none" style="width:2537px;height:404px;" version="1.1" viewBox="0 0 2537 404" width="2537px" zoomAndPan="magnify"><defs><filter height="300%" id="fs8rmqcugegk3" width="300%" x="-1" y="-1"><feGaussianBlur result="blurOut" stdDeviation="2.0"/><feColorMatrix in="blurOut" result="blurOut2" type="matrix" values="0 0 0 0 0 0 0 0 0 0 0 0 0 0 0 0 0 0 .4 0"/><feOffset dx="4.0" dy="4.0" in="blurOut2" result="blurOut3"/><feBlend in="SourceGraphic" in2="blurOut3" mode="normal"/></filter></defs><g><!--MD5=[09c7011976e9249fa1fbce023e806e19]
cluster FileSystem\UserHome\.DOMOTIX--><polygon fill="#FFFFFF" filter="url(#fs8rmqcugegk3)" points="14,16,239,16,246,41.0679,2515,41.0679,2515,392,14,392,14,16" style="stroke: #000000; stroke-width: 1.5;"/><line style="stroke: #000000; stroke-width: 1.5;" x1="14" x2="246" y1="41.0679" y2="41.0679"/><text fill="#000000" font-family="sans-serif" font-size="14" font-weight="bold" lengthAdjust="spacingAndGlyphs" textLength="219" x="18" y="32.9659">FileSystem\UserHome\.DOMOTIX</text><!--MD5=[dfcb3881052c3482c8265b3ef49e2806]
cluster FileSystem\UserHome\.DOMOTIX.dati--><polygon fill="#FFFFFF" filter="url(#fs8rmqcugegk3)" points="22,46,54,46,61,71.0679,2507,71.0679,2507,384,22,384,22,46" style="stroke: #000000; stroke-width: 1.5;"/><line style="stroke: #000000; stroke-width: 1.5;" x1="22" x2="61" y1="71.0679" y2="71.0679"/><text fill="#000000" font-family="sans-serif" font-size="14" font-weight="bold" lengthAdjust="spacingAndGlyphs" textLength="26" x="26" y="62.9659">dati</text><!--MD5=[3e9a150c2adf4efbaf97a82f7b8d8696]
cluster FileSystem\UserHome\.DOMOTIX.dati.azioni_programmabili--><polygon fill="#FFFFFF" filter="url(#fs8rmqcugegk3)" points="2340,136,2488,136,2495,161.0679,2499,161.0679,2499,237,2340,237,2340,136" style="stroke: #000000; stroke-width: 1.5;"/><line style="stroke: #000000; stroke-width: 1.5;" x1="2340" x2="2495" y1="161.0679" y2="161.0679"/><text fill="#000000" font-family="sans-serif" font-size="14" font-weight="bold" lengthAdjust="spacingAndGlyphs" textLength="142" x="2344" y="152.9659">azioni_programmabili</text><!--MD5=[c9ad932b9681266f52934d27f55bb39e]
cluster FileSystem\UserHome\.DOMOTIX.dati.categorie_sensori--><polygon fill="#FFFFFF" filter="url(#fs8rmqcugegk3)" points="1874,76,1995,76,2002,101.0679,2332,101.0679,2332,253,1874,253,1874,76" style="stroke: #000000; stroke-width: 1.5;"/><line style="stroke: #000000; stroke-width: 1.5;" x1="1874" x2="2002" y1="101.0679" y2="101.0679"/><text fill="#000000" font-family="sans-serif" font-size="14" font-weight="bold" lengthAdjust="spacingAndGlyphs" textLength="115" x="1878" y="92.9659">categorie_sensori</text><!--MD5=[eb7dad9f1b8212980cc04fdeb9216f80]
cluster FileSystem\UserHome\.DOMOTIX.dati.categorie_sensori.catSens1--><polygon fill="#FFFFFF" filter="url(#fs8rmqcugegk3)" points="2058,106,2123,106,2130,131.0679,2324,131.0679,2324,245,2058,245,2058,106" style="stroke: #000000; stroke-width: 1.5;"/><line style="stroke: #000000; stroke-width: 1.5;" x1="2058" x2="2130" y1="131.0679" y2="131.0679"/><text fill="#000000" font-family="sans-serif" font-size="14" font-weight="bold" lengthAdjust="spacingAndGlyphs" textLength="59" x="2062" y="122.9659">catSens1</text><!--MD5=[ceb2d855b0006908d37f65a89a5f5d27]
cluster FileSystem\UserHome\.DOMOTIX.dati.categorie_sensori.catSens1.info_rilevabile--><polygon fill="#FFFFFF" filter="url(#fs8rmqcugegk3)" points="2170,136,2268,136,2275,161.0679,2316,161.0679,2316,237,2170,237,2170,136" style="stroke: #000000; stroke-width: 1.5;"/><line style="stroke: #000000; stroke-width: 1.5;" x1="2170" x2="2275" y1="161.0679" y2="161.0679"/><text fill="#000000" font-family="sans-serif" font-size="14" font-weight="bold" lengthAdjust="spacingAndGlyphs" textLength="92" x="2174" y="152.9659">info_rilevabile</text><!--MD5=[299ad2d5743f8da57b706c33daae2c01]
cluster catSens...--><polygon fill="#FFFFFF" filter="url(#fs8rmqcugegk3)" points="1882,106,1948,106,1955,131.0679,2050,131.0679,2050,245,1882,245,1882,106" style="stroke: #000000; stroke-width: 1.5;"/><line style="stroke: #000000; stroke-width: 1.5;" x1="1882" x2="1955" y1="131.0679" y2="131.0679"/><text fill="#000000" font-family="sans-serif" font-size="14" font-weight="bold" lengthAdjust="spacingAndGlyphs" textLength="60" x="1886" y="122.9659">catSens...</text><!--MD5=[3532c680e7618543de3d01c52ae50a34]
cluster catSens....info_rilevabile--><polygon fill="#FFFFFF" filter="url(#fs8rmqcugegk3)" points="1934,136,2032,136,2039,161.0679,2042,161.0679,2042,237,1934,237,1934,136" style="stroke: #000000; stroke-width: 1.5;"/><line style="stroke: #000000; stroke-width: 1.5;" x1="1934" x2="2039" y1="161.0679" y2="161.0679"/><text fill="#000000" font-family="sans-serif" font-size="14" font-weight="bold" lengthAdjust="spacingAndGlyphs" textLength="92" x="1938" y="152.9659">info_rilevabile</text><!--MD5=[db7886c006d2f5c46b334f955763fb29]
cluster FileSystem\UserHome\.DOMOTIX.dati.categorie_attuatori--><polygon fill="#FFFFFF" filter="url(#fs8rmqcugegk3)" points="1446,76,1581,76,1588,101.0679,1866,101.0679,1866,253,1446,253,1446,76" style="stroke: #000000; stroke-width: 1.5;"/><line style="stroke: #000000; stroke-width: 1.5;" x1="1446" x2="1588" y1="101.0679" y2="101.0679"/><text fill="#000000" font-family="sans-serif" font-size="14" font-weight="bold" lengthAdjust="spacingAndGlyphs" textLength="129" x="1450" y="92.9659">categorie_attuatori</text><!--MD5=[3574c8f44a4b51356f1d9dd858fa3bff]
cluster FileSystem\UserHome\.DOMOTIX.dati.categorie_attuatori.catAtt1--><polygon fill="#FFFFFF" filter="url(#fs8rmqcugegk3)" points="1597,106,1653,106,1660,131.0679,1858,131.0679,1858,245,1597,245,1597,106" style="stroke: #000000; stroke-width: 1.5;"/><line style="stroke: #000000; stroke-width: 1.5;" x1="1597" x2="1660" y1="131.0679" y2="131.0679"/><text fill="#000000" font-family="sans-serif" font-size="14" font-weight="bold" lengthAdjust="spacingAndGlyphs" textLength="50" x="1601" y="122.9659">catAtt1</text><!--MD5=[248f9d4856453a7e22bc1b8aa9648a7e]
cluster FileSystem\UserHome\.DOMOTIX.dati.categorie_attuatori.catAtt1.modalita--><polygon fill="#FFFFFF" filter="url(#fs8rmqcugegk3)" points="1700,136,1765,136,1772,161.0679,1850,161.0679,1850,237,1700,237,1700,136" style="stroke: #000000; stroke-width: 1.5;"/><line style="stroke: #000000; stroke-width: 1.5;" x1="1700" x2="1772" y1="161.0679" y2="161.0679"/><text fill="#000000" font-family="sans-serif" font-size="14" font-weight="bold" lengthAdjust="spacingAndGlyphs" textLength="59" x="1704" y="152.9659">modalita</text><!--MD5=[91901be6ccaf281265f1d47d80327b5d]
cluster catAtt...--><polygon fill="#FFFFFF" filter="url(#fs8rmqcugegk3)" points="1454,106,1511,106,1518,131.0679,1589,131.0679,1589,245,1454,245,1454,106" style="stroke: #000000; stroke-width: 1.5;"/><line style="stroke: #000000; stroke-width: 1.5;" x1="1454" x2="1518" y1="131.0679" y2="131.0679"/><text fill="#000000" font-family="sans-serif" font-size="14" font-weight="bold" lengthAdjust="spacingAndGlyphs" textLength="51" x="1458" y="122.9659">catAtt...</text><!--MD5=[e5ea987d181c750a40c8c1c3ed0bcf88]
cluster catAtt....modalita--><polygon fill="#FFFFFF" filter="url(#fs8rmqcugegk3)" points="1506,136,1571,136,1578,161.0679,1581,161.0679,1581,237,1506,237,1506,136" style="stroke: #000000; stroke-width: 1.5;"/><line style="stroke: #000000; stroke-width: 1.5;" x1="1506" x2="1578" y1="161.0679" y2="161.0679"/><text fill="#000000" font-family="sans-serif" font-size="14" font-weight="bold" lengthAdjust="spacingAndGlyphs" textLength="59" x="1510" y="152.9659">modalita</text><!--MD5=[4f67d68a44c1dd8a4347b0f9eceba487]
cluster FileSystem\UserHome\.DOMOTIX.dati.sensori--><polygon fill="#FFFFFF" filter="url(#fs8rmqcugegk3)" points="1262,136,1315,136,1322,161.0679,1436,161.0679,1436,360,1262,360,1262,136" style="stroke: #000000; stroke-width: 1.5;"/><line style="stroke: #000000; stroke-width: 1.5;" x1="1262" x2="1322" y1="161.0679" y2="161.0679"/><text fill="#000000" font-family="sans-serif" font-size="14" font-weight="bold" lengthAdjust="spacingAndGlyphs" textLength="47" x="1266" y="152.9659">sensori</text><!--MD5=[2f5e6fbe39e352f1ba665d177347697a]
cluster FileSystem\UserHome\.DOMOTIX.dati.attuatori--><polygon fill="#FFFFFF" filter="url(#fs8rmqcugegk3)" points="1088,136,1155,136,1162,161.0679,1243,161.0679,1243,360,1088,360,1088,136" style="stroke: #000000; stroke-width: 1.5;"/><line style="stroke: #000000; stroke-width: 1.5;" x1="1088" x2="1162" y1="161.0679" y2="161.0679"/><text fill="#000000" font-family="sans-serif" font-size="14" font-weight="bold" lengthAdjust="spacingAndGlyphs" textLength="61" x="1092" y="152.9659">attuatori</text><!--MD5=[1c6264558058331daeec56365a4f6c37]
cluster FileSystem\UserHome\.DOMOTIX.dati.unita_immob--><polygon fill="#FFFFFF" filter="url(#fs8rmqcugegk3)" points="30,76,123,76,130,101.0679,1080,101.0679,1080,376,30,376,30,76" style="stroke: #000000; stroke-width: 1.5;"/><line style="stroke: #000000; stroke-width: 1.5;" x1="30" x2="130" y1="101.0679" y2="101.0679"/><text fill="#000000" font-family="sans-serif" font-size="14" font-weight="bold" lengthAdjust="spacingAndGlyphs" textLength="87" x="34" y="92.9659">unita_immob</text><!--MD5=[d4e6d05d9b65640591355e1cd689bd3b]
cluster FileSystem\UserHome\.DOMOTIX.dati.unita_immob.unita1--><polygon fill="#FFFFFF" filter="url(#fs8rmqcugegk3)" points="415,106,465,106,472,131.0679,1072,131.0679,1072,368,415,368,415,106" style="stroke: #000000; stroke-width: 1.5;"/><line style="stroke: #000000; stroke-width: 1.5;" x1="415" x2="472" y1="131.0679" y2="131.0679"/><text fill="#000000" font-family="sans-serif" font-size="14" font-weight="bold" lengthAdjust="spacingAndGlyphs" textLength="44" x="419" y="122.9659">unita1</text><!--MD5=[ec84ec1d8c1bd0fdfea69c31680675c9]
cluster FileSystem\UserHome\.DOMOTIX.dati.unita_immob.unita1.stanze--><polygon fill="#FFFFFF" filter="url(#fs8rmqcugegk3)" points="870,136,919,136,926,161.0679,1064,161.0679,1064,360,870,360,870,136" style="stroke: #000000; stroke-width: 1.5;"/><line style="stroke: #000000; stroke-width: 1.5;" x1="870" x2="926" y1="161.0679" y2="161.0679"/><text fill="#000000" font-family="sans-serif" font-size="14" font-weight="bold" lengthAdjust="spacingAndGlyphs" textLength="43" x="874" y="152.9659">stanze</text><!--MD5=[f779d72527b0f0221ebbd1498c74e4d4]
cluster FileSystem\UserHome\.DOMOTIX.dati.unita_immob.unita1.artefatti--><polygon fill="#FFFFFF" filter="url(#fs8rmqcugegk3)" points="676,136,739,136,746,161.0679,851,161.0679,851,360,676,360,676,136" style="stroke: #000000; stroke-width: 1.5;"/><line style="stroke: #000000; stroke-width: 1.5;" x1="676" x2="746" y1="161.0679" y2="161.0679"/><text fill="#000000" font-family="sans-serif" font-size="14" font-weight="bold" lengthAdjust="spacingAndGlyphs" textLength="57" x="680" y="152.9659">artefatti</text><!--MD5=[37fc363f11c00780069e2a10f3c0ebf6]
cluster FileSystem\UserHome\.DOMOTIX.dati.unita_immob.unita1.regole--><polygon fill="#FFFFFF" filter="url(#fs8rmqcugegk3)" points="515,136,563,136,570,161.0679,657,161.0679,657,237,515,237,515,136" style="stroke: #000000; stroke-width: 1.5;"/><line style="stroke: #000000; stroke-width: 1.5;" x1="515" x2="570" y1="161.0679" y2="161.0679"/><text fill="#000000" font-family="sans-serif" font-size="14" font-weight="bold" lengthAdjust="spacingAndGlyphs" textLength="42" x="519" y="152.9659">regole</text><!--MD5=[1ddc696a0b89b24035389f3d7d46eebf]
cluster unita...--><polygon fill="#FFFFFF" filter="url(#fs8rmqcugegk3)" points="38,136,89,136,96,161.0679,397,161.0679,397,237,38,237,38,136" style="stroke: #000000; stroke-width: 1.5;"/><line style="stroke: #000000; stroke-width: 1.5;" x1="38" x2="96" y1="161.0679" y2="161.0679"/><text fill="#000000" font-family="sans-serif" font-size="14" font-weight="bold" lengthAdjust="spacingAndGlyphs" textLength="45" x="42" y="152.9659">unita...</text><!--MD5=[6d18984e9adbb75234121d7903a6a672]
class FileSystem\UserHome\.DOMOTIX.dati.azioni_programmabili.azione1--><rect fill="#FEFECE" filter="url(#fs8rmqcugegk3)" height="62.9819" id="FileSystem\UserHome\.DOMOTIX.dati.azioni_programmabili.azione1" style="stroke: #A80036; stroke-width: 1.5;" width="72" x="2419" y="166"/><ellipse cx="2434" cy="182" fill="#ADD1B2" rx="11" ry="11" style="stroke: #A80036; stroke-width: 1.0;"/><path d="M2433.9688,188.1719 Q2432.2188,188.1719 2431.0781,187.4375 Q2429.9531,186.6875 2429.3906,185.3438 Q2428.8438,183.9844 2428.8438,182.1875 Q2428.8438,180.1563 2429.5,178.7031 Q2430.1563,177.25 2431.4375,176.4688 Q2432.7188,175.6875 2434.5938,175.6875 Q2435.4844,175.6875 2436.1563,175.875 Q2436.8281,176.0469 2437.5156,176.3906 L2436.7031,178.4063 Q2436.0781,178.0938 2435.5313,177.9688 Q2435,177.8438 2434.5156,177.8438 Q2433.3438,177.8438 2432.6406,178.375 Q2431.9375,178.9063 2431.6406,179.8594 Q2431.3438,180.8125 2431.3438,182.0781 Q2431.3438,184.0938 2432.0625,185.0625 Q2432.7813,186.0156 2434.375,186.0156 Q2434.9688,186.0156 2435.5938,185.8594 Q2436.2188,185.7031 2437.0469,185.3281 L2437.0469,187.5469 Q2436.3125,187.8594 2435.5156,188.0156 Q2434.7344,188.1719 2433.9688,188.1719 Z "/><text fill="#000000" font-family="sans-serif" font-size="12" lengthAdjust="spacingAndGlyphs" textLength="40" x="2448" y="186.656">azione1</text><line style="stroke: #A80036; stroke-width: 1.5;" x1="2420" x2="2490" y1="198" y2="198"/><text fill="#000000" font-family="sans-serif" font-size="11" lengthAdjust="spacingAndGlyphs" textLength="20" x="2425" y="213.7589">XML</text><line style="stroke: #A80036; stroke-width: 1.5;" x1="2420" x2="2490" y1="220.9819" y2="220.9819"/><!--MD5=[ee7af5f06c0b72a2d0d7d1a45e281740]
class FileSystem\UserHome\.DOMOTIX.dati.azioni_programmabili.--><rect fill="#FEFECE" filter="url(#fs8rmqcugegk3)" height="62.9819" id="FileSystem\UserHome\.DOMOTIX.dati.azioni_programmabili." style="stroke: #A80036; stroke-width: 1.5;" width="35" x="2348.5" y="166"/><ellipse cx="2363.5" cy="182" fill="#ADD1B2" rx="11" ry="11" style="stroke: #A80036; stroke-width: 1.0;"/><path d="M2363.4688,188.1719 Q2361.7188,188.1719 2360.5781,187.4375 Q2359.4531,186.6875 2358.8906,185.3438 Q2358.3438,183.9844 2358.3438,182.1875 Q2358.3438,180.1563 2359,178.7031 Q2359.6563,177.25 2360.9375,176.4688 Q2362.2188,175.6875 2364.0938,175.6875 Q2364.9844,175.6875 2365.6563,175.875 Q2366.3281,176.0469 2367.0156,176.3906 L2366.2031,178.4063 Q2365.5781,178.0938 2365.0313,177.9688 Q2364.5,177.8438 2364.0156,177.8438 Q2362.8438,177.8438 2362.1406,178.375 Q2361.4375,178.9063 2361.1406,179.8594 Q2360.8438,180.8125 2360.8438,182.0781 Q2360.8438,184.0938 2361.5625,185.0625 Q2362.2813,186.0156 2363.875,186.0156 Q2364.4688,186.0156 2365.0938,185.8594 Q2365.7188,185.7031 2366.5469,185.3281 L2366.5469,187.5469 Q2365.8125,187.8594 2365.0156,188.0156 Q2364.2344,188.1719 2363.4688,188.1719 Z "/><text fill="#000000" font-family="sans-serif" font-size="12" lengthAdjust="spacingAndGlyphs" textLength="0" x="2380.5" y="186.656"/><line style="stroke: #A80036; stroke-width: 1.5;" x1="2349.5" x2="2382.5" y1="198" y2="198"/><text fill="#000000" font-family="sans-serif" font-size="11" lengthAdjust="spacingAndGlyphs" textLength="6" x="2354.5" y="213.7589">...</text><line style="stroke: #A80036; stroke-width: 1.5;" x1="2349.5" x2="2382.5" y1="220.9819" y2="220.9819"/><!--MD5=[b22ec789cc53725eaf879ec948d69af3]
class FileSystem\UserHome\.DOMOTIX.dati.categorie_sensori.catSens1.catSens1--><rect fill="#FEFECE" filter="url(#fs8rmqcugegk3)" height="62.9819" id="FileSystem\UserHome\.DOMOTIX.dati.categorie_sensori.catSens1.catSens1" style="stroke: #A80036; stroke-width: 1.5;" width="77" x="2066.5" y="166"/><ellipse cx="2081.5" cy="182" fill="#ADD1B2" rx="11" ry="11" style="stroke: #A80036; stroke-width: 1.0;"/><path d="M2081.4688,188.1719 Q2079.7188,188.1719 2078.5781,187.4375 Q2077.4531,186.6875 2076.8906,185.3438 Q2076.3438,183.9844 2076.3438,182.1875 Q2076.3438,180.1563 2077,178.7031 Q2077.6563,177.25 2078.9375,176.4688 Q2080.2188,175.6875 2082.0938,175.6875 Q2082.9844,175.6875 2083.6563,175.875 Q2084.3281,176.0469 2085.0156,176.3906 L2084.2031,178.4063 Q2083.5781,178.0938 2083.0313,177.9688 Q2082.5,177.8438 2082.0156,177.8438 Q2080.8438,177.8438 2080.1406,178.375 Q2079.4375,178.9063 2079.1406,179.8594 Q2078.8438,180.8125 2078.8438,182.0781 Q2078.8438,184.0938 2079.5625,185.0625 Q2080.2813,186.0156 2081.875,186.0156 Q2082.4688,186.0156 2083.0938,185.8594 Q2083.7188,185.7031 2084.5469,185.3281 L2084.5469,187.5469 Q2083.8125,187.8594 2083.0156,188.0156 Q2082.2344,188.1719 2081.4688,188.1719 Z "/><text fill="#000000" font-family="sans-serif" font-size="12" lengthAdjust="spacingAndGlyphs" textLength="45" x="2095.5" y="186.656">catSens1</text><line style="stroke: #A80036; stroke-width: 1.5;" x1="2067.5" x2="2142.5" y1="198" y2="198"/><text fill="#000000" font-family="sans-serif" font-size="11" lengthAdjust="spacingAndGlyphs" textLength="20" x="2072.5" y="213.7589">XML</text><line style="stroke: #A80036; stroke-width: 1.5;" x1="2067.5" x2="2142.5" y1="220.9819" y2="220.9819"/><!--MD5=[303ecea41642c83c4a1ec2d4cc8ddb26]
class FileSystem\UserHome\.DOMOTIX.dati.categorie_sensori.catSens1.info_rilevabile.info1--><rect fill="#FEFECE" filter="url(#fs8rmqcugegk3)" height="62.9819" id="FileSystem\UserHome\.DOMOTIX.dati.categorie_sensori.catSens1.info_rilevabile.info1" style="stroke: #A80036; stroke-width: 1.5;" width="59" x="2248.5" y="166"/><ellipse cx="2263.5" cy="182" fill="#ADD1B2" rx="11" ry="11" style="stroke: #A80036; stroke-width: 1.0;"/><path d="M2263.4688,188.1719 Q2261.7188,188.1719 2260.5781,187.4375 Q2259.4531,186.6875 2258.8906,185.3438 Q2258.3438,183.9844 2258.3438,182.1875 Q2258.3438,180.1563 2259,178.7031 Q2259.6563,177.25 2260.9375,176.4688 Q2262.2188,175.6875 2264.0938,175.6875 Q2264.9844,175.6875 2265.6563,175.875 Q2266.3281,176.0469 2267.0156,176.3906 L2266.2031,178.4063 Q2265.5781,178.0938 2265.0313,177.9688 Q2264.5,177.8438 2264.0156,177.8438 Q2262.8438,177.8438 2262.1406,178.375 Q2261.4375,178.9063 2261.1406,179.8594 Q2260.8438,180.8125 2260.8438,182.0781 Q2260.8438,184.0938 2261.5625,185.0625 Q2262.2813,186.0156 2263.875,186.0156 Q2264.4688,186.0156 2265.0938,185.8594 Q2265.7188,185.7031 2266.5469,185.3281 L2266.5469,187.5469 Q2265.8125,187.8594 2265.0156,188.0156 Q2264.2344,188.1719 2263.4688,188.1719 Z "/><text fill="#000000" font-family="sans-serif" font-size="12" lengthAdjust="spacingAndGlyphs" textLength="27" x="2277.5" y="186.656">info1</text><line style="stroke: #A80036; stroke-width: 1.5;" x1="2249.5" x2="2306.5" y1="198" y2="198"/><text fill="#000000" font-family="sans-serif" font-size="11" lengthAdjust="spacingAndGlyphs" textLength="20" x="2254.5" y="213.7589">XML</text><line style="stroke: #A80036; stroke-width: 1.5;" x1="2249.5" x2="2306.5" y1="220.9819" y2="220.9819"/><!--MD5=[c72fe4e0944e295812a2c20e89f0d4e3]
class FileSystem\UserHome\.DOMOTIX.dati.categorie_sensori.catSens1.info_rilevabile.--><rect fill="#FEFECE" filter="url(#fs8rmqcugegk3)" height="62.9819" id="FileSystem\UserHome\.DOMOTIX.dati.categorie_sensori.catSens1.info_rilevabile." style="stroke: #A80036; stroke-width: 1.5;" width="35" x="2178.5" y="166"/><ellipse cx="2193.5" cy="182" fill="#ADD1B2" rx="11" ry="11" style="stroke: #A80036; stroke-width: 1.0;"/><path d="M2193.4688,188.1719 Q2191.7188,188.1719 2190.5781,187.4375 Q2189.4531,186.6875 2188.8906,185.3438 Q2188.3438,183.9844 2188.3438,182.1875 Q2188.3438,180.1563 2189,178.7031 Q2189.6563,177.25 2190.9375,176.4688 Q2192.2188,175.6875 2194.0938,175.6875 Q2194.9844,175.6875 2195.6563,175.875 Q2196.3281,176.0469 2197.0156,176.3906 L2196.2031,178.4063 Q2195.5781,178.0938 2195.0313,177.9688 Q2194.5,177.8438 2194.0156,177.8438 Q2192.8438,177.8438 2192.1406,178.375 Q2191.4375,178.9063 2191.1406,179.8594 Q2190.8438,180.8125 2190.8438,182.0781 Q2190.8438,184.0938 2191.5625,185.0625 Q2192.2813,186.0156 2193.875,186.0156 Q2194.4688,186.0156 2195.0938,185.8594 Q2195.7188,185.7031 2196.5469,185.3281 L2196.5469,187.5469 Q2195.8125,187.8594 2195.0156,188.0156 Q2194.2344,188.1719 2193.4688,188.1719 Z "/><text fill="#000000" font-family="sans-serif" font-size="12" lengthAdjust="spacingAndGlyphs" textLength="0" x="2210.5" y="186.656"/><line style="stroke: #A80036; stroke-width: 1.5;" x1="2179.5" x2="2212.5" y1="198" y2="198"/><text fill="#000000" font-family="sans-serif" font-size="11" lengthAdjust="spacingAndGlyphs" textLength="6" x="2184.5" y="213.7589">...</text><line style="stroke: #A80036; stroke-width: 1.5;" x1="2179.5" x2="2212.5" y1="220.9819" y2="220.9819"/><!--MD5=[95967aded44cbe339f3923bc31b6408f]
class catSens....--><rect fill="#FEFECE" filter="url(#fs8rmqcugegk3)" height="62.9819" id="catSens...." style="stroke: #A80036; stroke-width: 1.5;" width="35" x="1890.5" y="166"/><ellipse cx="1905.5" cy="182" fill="#ADD1B2" rx="11" ry="11" style="stroke: #A80036; stroke-width: 1.0;"/><path d="M1905.4688,188.1719 Q1903.7188,188.1719 1902.5781,187.4375 Q1901.4531,186.6875 1900.8906,185.3438 Q1900.3438,183.9844 1900.3438,182.1875 Q1900.3438,180.1563 1901,178.7031 Q1901.6563,177.25 1902.9375,176.4688 Q1904.2188,175.6875 1906.0938,175.6875 Q1906.9844,175.6875 1907.6563,175.875 Q1908.3281,176.0469 1909.0156,176.3906 L1908.2031,178.4063 Q1907.5781,178.0938 1907.0313,177.9688 Q1906.5,177.8438 1906.0156,177.8438 Q1904.8438,177.8438 1904.1406,178.375 Q1903.4375,178.9063 1903.1406,179.8594 Q1902.8438,180.8125 1902.8438,182.0781 Q1902.8438,184.0938 1903.5625,185.0625 Q1904.2813,186.0156 1905.875,186.0156 Q1906.4688,186.0156 1907.0938,185.8594 Q1907.7188,185.7031 1908.5469,185.3281 L1908.5469,187.5469 Q1907.8125,187.8594 1907.0156,188.0156 Q1906.2344,188.1719 1905.4688,188.1719 Z "/><text fill="#000000" font-family="sans-serif" font-size="12" lengthAdjust="spacingAndGlyphs" textLength="0" x="1922.5" y="186.656"/><line style="stroke: #A80036; stroke-width: 1.5;" x1="1891.5" x2="1924.5" y1="198" y2="198"/><text fill="#000000" font-family="sans-serif" font-size="11" lengthAdjust="spacingAndGlyphs" textLength="6" x="1896.5" y="213.7589">...</text><line style="stroke: #A80036; stroke-width: 1.5;" x1="1891.5" x2="1924.5" y1="220.9819" y2="220.9819"/><!--MD5=[45c732598c91cad54cd72aed34a3dd10]
class catSens....info_rilevabile.--><rect fill="#FEFECE" filter="url(#fs8rmqcugegk3)" height="62.9819" id="catSens....info_rilevabile." style="stroke: #A80036; stroke-width: 1.5;" width="35" x="1978.5" y="166"/><ellipse cx="1993.5" cy="182" fill="#ADD1B2" rx="11" ry="11" style="stroke: #A80036; stroke-width: 1.0;"/><path d="M1993.4688,188.1719 Q1991.7188,188.1719 1990.5781,187.4375 Q1989.4531,186.6875 1988.8906,185.3438 Q1988.3438,183.9844 1988.3438,182.1875 Q1988.3438,180.1563 1989,178.7031 Q1989.6563,177.25 1990.9375,176.4688 Q1992.2188,175.6875 1994.0938,175.6875 Q1994.9844,175.6875 1995.6563,175.875 Q1996.3281,176.0469 1997.0156,176.3906 L1996.2031,178.4063 Q1995.5781,178.0938 1995.0313,177.9688 Q1994.5,177.8438 1994.0156,177.8438 Q1992.8438,177.8438 1992.1406,178.375 Q1991.4375,178.9063 1991.1406,179.8594 Q1990.8438,180.8125 1990.8438,182.0781 Q1990.8438,184.0938 1991.5625,185.0625 Q1992.2813,186.0156 1993.875,186.0156 Q1994.4688,186.0156 1995.0938,185.8594 Q1995.7188,185.7031 1996.5469,185.3281 L1996.5469,187.5469 Q1995.8125,187.8594 1995.0156,188.0156 Q1994.2344,188.1719 1993.4688,188.1719 Z "/><text fill="#000000" font-family="sans-serif" font-size="12" lengthAdjust="spacingAndGlyphs" textLength="0" x="2010.5" y="186.656"/><line style="stroke: #A80036; stroke-width: 1.5;" x1="1979.5" x2="2012.5" y1="198" y2="198"/><text fill="#000000" font-family="sans-serif" font-size="11" lengthAdjust="spacingAndGlyphs" textLength="6" x="1984.5" y="213.7589">...</text><line style="stroke: #A80036; stroke-width: 1.5;" x1="1979.5" x2="2012.5" y1="220.9819" y2="220.9819"/><!--MD5=[9a99cbd06cc99ce78119dce53ec05d0b]
class FileSystem\UserHome\.DOMOTIX.dati.categorie_attuatori.catAtt1.catAtt1--><rect fill="#FEFECE" filter="url(#fs8rmqcugegk3)" height="62.9819" id="FileSystem\UserHome\.DOMOTIX.dati.categorie_attuatori.catAtt1.catAtt1" style="stroke: #A80036; stroke-width: 1.5;" width="68" x="1605" y="166"/><ellipse cx="1620" cy="182" fill="#ADD1B2" rx="11" ry="11" style="stroke: #A80036; stroke-width: 1.0;"/><path d="M1619.9688,188.1719 Q1618.2188,188.1719 1617.0781,187.4375 Q1615.9531,186.6875 1615.3906,185.3438 Q1614.8438,183.9844 1614.8438,182.1875 Q1614.8438,180.1563 1615.5,178.7031 Q1616.1563,177.25 1617.4375,176.4688 Q1618.7188,175.6875 1620.5938,175.6875 Q1621.4844,175.6875 1622.1563,175.875 Q1622.8281,176.0469 1623.5156,176.3906 L1622.7031,178.4063 Q1622.0781,178.0938 1621.5313,177.9688 Q1621,177.8438 1620.5156,177.8438 Q1619.3438,177.8438 1618.6406,178.375 Q1617.9375,178.9063 1617.6406,179.8594 Q1617.3438,180.8125 1617.3438,182.0781 Q1617.3438,184.0938 1618.0625,185.0625 Q1618.7813,186.0156 1620.375,186.0156 Q1620.9688,186.0156 1621.5938,185.8594 Q1622.2188,185.7031 1623.0469,185.3281 L1623.0469,187.5469 Q1622.3125,187.8594 1621.5156,188.0156 Q1620.7344,188.1719 1619.9688,188.1719 Z "/><text fill="#000000" font-family="sans-serif" font-size="12" lengthAdjust="spacingAndGlyphs" textLength="36" x="1634" y="186.656">catAtt1</text><line style="stroke: #A80036; stroke-width: 1.5;" x1="1606" x2="1672" y1="198" y2="198"/><text fill="#000000" font-family="sans-serif" font-size="11" lengthAdjust="spacingAndGlyphs" textLength="20" x="1611" y="213.7589">XML</text><line style="stroke: #A80036; stroke-width: 1.5;" x1="1606" x2="1672" y1="220.9819" y2="220.9819"/><!--MD5=[d226ecf93e1204c0839a568fd8064891]
class FileSystem\UserHome\.DOMOTIX.dati.categorie_attuatori.catAtt1.modalita.mod1--><rect fill="#FEFECE" filter="url(#fs8rmqcugegk3)" height="62.9819" id="FileSystem\UserHome\.DOMOTIX.dati.categorie_attuatori.catAtt1.modalita.mod1" style="stroke: #A80036; stroke-width: 1.5;" width="63" x="1778.5" y="166"/><ellipse cx="1793.5" cy="182" fill="#ADD1B2" rx="11" ry="11" style="stroke: #A80036; stroke-width: 1.0;"/><path d="M1793.4688,188.1719 Q1791.7188,188.1719 1790.5781,187.4375 Q1789.4531,186.6875 1788.8906,185.3438 Q1788.3438,183.9844 1788.3438,182.1875 Q1788.3438,180.1563 1789,178.7031 Q1789.6563,177.25 1790.9375,176.4688 Q1792.2188,175.6875 1794.0938,175.6875 Q1794.9844,175.6875 1795.6563,175.875 Q1796.3281,176.0469 1797.0156,176.3906 L1796.2031,178.4063 Q1795.5781,178.0938 1795.0313,177.9688 Q1794.5,177.8438 1794.0156,177.8438 Q1792.8438,177.8438 1792.1406,178.375 Q1791.4375,178.9063 1791.1406,179.8594 Q1790.8438,180.8125 1790.8438,182.0781 Q1790.8438,184.0938 1791.5625,185.0625 Q1792.2813,186.0156 1793.875,186.0156 Q1794.4688,186.0156 1795.0938,185.8594 Q1795.7188,185.7031 1796.5469,185.3281 L1796.5469,187.5469 Q1795.8125,187.8594 1795.0156,188.0156 Q1794.2344,188.1719 1793.4688,188.1719 Z "/><text fill="#000000" font-family="sans-serif" font-size="12" lengthAdjust="spacingAndGlyphs" textLength="31" x="1807.5" y="186.656">mod1</text><line style="stroke: #A80036; stroke-width: 1.5;" x1="1779.5" x2="1840.5" y1="198" y2="198"/><text fill="#000000" font-family="sans-serif" font-size="11" lengthAdjust="spacingAndGlyphs" textLength="20" x="1784.5" y="213.7589">XML</text><line style="stroke: #A80036; stroke-width: 1.5;" x1="1779.5" x2="1840.5" y1="220.9819" y2="220.9819"/><!--MD5=[e9dd8f9d2a4993c6ff6f6a7f43aaea15]
class --><rect fill="#FEFECE" filter="url(#fs8rmqcugegk3)" height="62.9819" id="" style="stroke: #A80036; stroke-width: 1.5;" width="35" x="1708.5" y="166"/><ellipse cx="1723.5" cy="182" fill="#ADD1B2" rx="11" ry="11" style="stroke: #A80036; stroke-width: 1.0;"/><path d="M1723.4688,188.1719 Q1721.7188,188.1719 1720.5781,187.4375 Q1719.4531,186.6875 1718.8906,185.3438 Q1718.3438,183.9844 1718.3438,182.1875 Q1718.3438,180.1563 1719,178.7031 Q1719.6563,177.25 1720.9375,176.4688 Q1722.2188,175.6875 1724.0938,175.6875 Q1724.9844,175.6875 1725.6563,175.875 Q1726.3281,176.0469 1727.0156,176.3906 L1726.2031,178.4063 Q1725.5781,178.0938 1725.0313,177.9688 Q1724.5,177.8438 1724.0156,177.8438 Q1722.8438,177.8438 1722.1406,178.375 Q1721.4375,178.9063 1721.1406,179.8594 Q1720.8438,180.8125 1720.8438,182.0781 Q1720.8438,184.0938 1721.5625,185.0625 Q1722.2813,186.0156 1723.875,186.0156 Q1724.4688,186.0156 1725.0938,185.8594 Q1725.7188,185.7031 1726.5469,185.3281 L1726.5469,187.5469 Q1725.8125,187.8594 1725.0156,188.0156 Q1724.2344,188.1719 1723.4688,188.1719 Z "/><text fill="#000000" font-family="sans-serif" font-size="12" lengthAdjust="spacingAndGlyphs" textLength="0" x="1740.5" y="186.656"/><line style="stroke: #A80036; stroke-width: 1.5;" x1="1709.5" x2="1742.5" y1="198" y2="198"/><text fill="#000000" font-family="sans-serif" font-size="11" lengthAdjust="spacingAndGlyphs" textLength="6" x="1714.5" y="213.7589">...</text><line style="stroke: #A80036; stroke-width: 1.5;" x1="1709.5" x2="1742.5" y1="220.9819" y2="220.9819"/><!--MD5=[c21ea9303ffc5e4ee77676ea12ae062d]
class catAtt....--><rect fill="#FEFECE" filter="url(#fs8rmqcugegk3)" height="62.9819" id="catAtt...." style="stroke: #A80036; stroke-width: 1.5;" width="35" x="1462.5" y="166"/><ellipse cx="1477.5" cy="182" fill="#ADD1B2" rx="11" ry="11" style="stroke: #A80036; stroke-width: 1.0;"/><path d="M1477.4688,188.1719 Q1475.7188,188.1719 1474.5781,187.4375 Q1473.4531,186.6875 1472.8906,185.3438 Q1472.3438,183.9844 1472.3438,182.1875 Q1472.3438,180.1563 1473,178.7031 Q1473.6563,177.25 1474.9375,176.4688 Q1476.2188,175.6875 1478.0938,175.6875 Q1478.9844,175.6875 1479.6563,175.875 Q1480.3281,176.0469 1481.0156,176.3906 L1480.2031,178.4063 Q1479.5781,178.0938 1479.0313,177.9688 Q1478.5,177.8438 1478.0156,177.8438 Q1476.8438,177.8438 1476.1406,178.375 Q1475.4375,178.9063 1475.1406,179.8594 Q1474.8438,180.8125 1474.8438,182.0781 Q1474.8438,184.0938 1475.5625,185.0625 Q1476.2813,186.0156 1477.875,186.0156 Q1478.4688,186.0156 1479.0938,185.8594 Q1479.7188,185.7031 1480.5469,185.3281 L1480.5469,187.5469 Q1479.8125,187.8594 1479.0156,188.0156 Q1478.2344,188.1719 1477.4688,188.1719 Z "/><text fill="#000000" font-family="sans-serif" font-size="12" lengthAdjust="spacingAndGlyphs" textLength="0" x="1494.5" y="186.656"/><line style="stroke: #A80036; stroke-width: 1.5;" x1="1463.5" x2="1496.5" y1="198" y2="198"/><text fill="#000000" font-family="sans-serif" font-size="11" lengthAdjust="spacingAndGlyphs" textLength="6" x="1468.5" y="213.7589">...</text><line style="stroke: #A80036; stroke-width: 1.5;" x1="1463.5" x2="1496.5" y1="220.9819" y2="220.9819"/><!--MD5=[001d10a259945547ac7a94552615505d]
class catAtt....modalita.--><rect fill="#FEFECE" filter="url(#fs8rmqcugegk3)" height="62.9819" id="catAtt....modalita." style="stroke: #A80036; stroke-width: 1.5;" width="35" x="1533.5" y="166"/><ellipse cx="1548.5" cy="182" fill="#ADD1B2" rx="11" ry="11" style="stroke: #A80036; stroke-width: 1.0;"/><path d="M1548.4688,188.1719 Q1546.7188,188.1719 1545.5781,187.4375 Q1544.4531,186.6875 1543.8906,185.3438 Q1543.3438,183.9844 1543.3438,182.1875 Q1543.3438,180.1563 1544,178.7031 Q1544.6563,177.25 1545.9375,176.4688 Q1547.2188,175.6875 1549.0938,175.6875 Q1549.9844,175.6875 1550.6563,175.875 Q1551.3281,176.0469 1552.0156,176.3906 L1551.2031,178.4063 Q1550.5781,178.0938 1550.0313,177.9688 Q1549.5,177.8438 1549.0156,177.8438 Q1547.8438,177.8438 1547.1406,178.375 Q1546.4375,178.9063 1546.1406,179.8594 Q1545.8438,180.8125 1545.8438,182.0781 Q1545.8438,184.0938 1546.5625,185.0625 Q1547.2813,186.0156 1548.875,186.0156 Q1549.4688,186.0156 1550.0938,185.8594 Q1550.7188,185.7031 1551.5469,185.3281 L1551.5469,187.5469 Q1550.8125,187.8594 1550.0156,188.0156 Q1549.2344,188.1719 1548.4688,188.1719 Z "/><text fill="#000000" font-family="sans-serif" font-size="12" lengthAdjust="spacingAndGlyphs" textLength="0" x="1565.5" y="186.656"/><line style="stroke: #A80036; stroke-width: 1.5;" x1="1534.5" x2="1567.5" y1="198" y2="198"/><text fill="#000000" font-family="sans-serif" font-size="11" lengthAdjust="spacingAndGlyphs" textLength="6" x="1539.5" y="213.7589">...</text><line style="stroke: #A80036; stroke-width: 1.5;" x1="1534.5" x2="1567.5" y1="220.9819" y2="220.9819"/><!--MD5=[c84d46f5296a6d40c55e609bc327304f]
class FileSystem\UserHome\.DOMOTIX.dati.sensori.sens1--><rect fill="#FEFECE" filter="url(#fs8rmqcugegk3)" height="62.9819" id="FileSystem\UserHome\.DOMOTIX.dati.sensori.sens1" style="stroke: #A80036; stroke-width: 1.5;" width="61" x="1270.5" y="166"/><ellipse cx="1285.5" cy="182" fill="#ADD1B2" rx="11" ry="11" style="stroke: #A80036; stroke-width: 1.0;"/><path d="M1285.4688,188.1719 Q1283.7188,188.1719 1282.5781,187.4375 Q1281.4531,186.6875 1280.8906,185.3438 Q1280.3438,183.9844 1280.3438,182.1875 Q1280.3438,180.1563 1281,178.7031 Q1281.6563,177.25 1282.9375,176.4688 Q1284.2188,175.6875 1286.0938,175.6875 Q1286.9844,175.6875 1287.6563,175.875 Q1288.3281,176.0469 1289.0156,176.3906 L1288.2031,178.4063 Q1287.5781,178.0938 1287.0313,177.9688 Q1286.5,177.8438 1286.0156,177.8438 Q1284.8438,177.8438 1284.1406,178.375 Q1283.4375,178.9063 1283.1406,179.8594 Q1282.8438,180.8125 1282.8438,182.0781 Q1282.8438,184.0938 1283.5625,185.0625 Q1284.2813,186.0156 1285.875,186.0156 Q1286.4688,186.0156 1287.0938,185.8594 Q1287.7188,185.7031 1288.5469,185.3281 L1288.5469,187.5469 Q1287.8125,187.8594 1287.0156,188.0156 Q1286.2344,188.1719 1285.4688,188.1719 Z "/><text fill="#000000" font-family="sans-serif" font-size="12" lengthAdjust="spacingAndGlyphs" textLength="29" x="1299.5" y="186.656">sens1</text><line style="stroke: #A80036; stroke-width: 1.5;" x1="1271.5" x2="1330.5" y1="198" y2="198"/><text fill="#000000" font-family="sans-serif" font-size="11" lengthAdjust="spacingAndGlyphs" textLength="20" x="1276.5" y="213.7589">XML</text><line style="stroke: #A80036; stroke-width: 1.5;" x1="1271.5" x2="1330.5" y1="220.9819" y2="220.9819"/><!--MD5=[8e5728399e18fe072afec7065918c592]
class FileSystem\UserHome\.DOMOTIX.dati.sensori.sens2--><rect fill="#FEFECE" filter="url(#fs8rmqcugegk3)" height="62.9819" id="FileSystem\UserHome\.DOMOTIX.dati.sensori.sens2" style="stroke: #A80036; stroke-width: 1.5;" width="61" x="1366.5" y="166"/><ellipse cx="1381.5" cy="182" fill="#ADD1B2" rx="11" ry="11" style="stroke: #A80036; stroke-width: 1.0;"/><path d="M1381.4688,188.1719 Q1379.7188,188.1719 1378.5781,187.4375 Q1377.4531,186.6875 1376.8906,185.3438 Q1376.3438,183.9844 1376.3438,182.1875 Q1376.3438,180.1563 1377,178.7031 Q1377.6563,177.25 1378.9375,176.4688 Q1380.2188,175.6875 1382.0938,175.6875 Q1382.9844,175.6875 1383.6563,175.875 Q1384.3281,176.0469 1385.0156,176.3906 L1384.2031,178.4063 Q1383.5781,178.0938 1383.0313,177.9688 Q1382.5,177.8438 1382.0156,177.8438 Q1380.8438,177.8438 1380.1406,178.375 Q1379.4375,178.9063 1379.1406,179.8594 Q1378.8438,180.8125 1378.8438,182.0781 Q1378.8438,184.0938 1379.5625,185.0625 Q1380.2813,186.0156 1381.875,186.0156 Q1382.4688,186.0156 1383.0938,185.8594 Q1383.7188,185.7031 1384.5469,185.3281 L1384.5469,187.5469 Q1383.8125,187.8594 1383.0156,188.0156 Q1382.2344,188.1719 1381.4688,188.1719 Z "/><text fill="#000000" font-family="sans-serif" font-size="12" lengthAdjust="spacingAndGlyphs" textLength="29" x="1395.5" y="186.656">sens2</text><line style="stroke: #A80036; stroke-width: 1.5;" x1="1367.5" x2="1426.5" y1="198" y2="198"/><text fill="#000000" font-family="sans-serif" font-size="11" lengthAdjust="spacingAndGlyphs" textLength="20" x="1372.5" y="213.7589">XML</text><line style="stroke: #A80036; stroke-width: 1.5;" x1="1367.5" x2="1426.5" y1="220.9819" y2="220.9819"/><!--MD5=[b2998bba51e8508c91f6168da98862c9]
class FileSystem\UserHome\.DOMOTIX.dati.sensori.--><rect fill="#FEFECE" filter="url(#fs8rmqcugegk3)" height="62.9819" id="FileSystem\UserHome\.DOMOTIX.dati.sensori." style="stroke: #A80036; stroke-width: 1.5;" width="35" x="1283.5" y="289"/><ellipse cx="1298.5" cy="305" fill="#ADD1B2" rx="11" ry="11" style="stroke: #A80036; stroke-width: 1.0;"/><path d="M1298.4688,311.1719 Q1296.7188,311.1719 1295.5781,310.4375 Q1294.4531,309.6875 1293.8906,308.3438 Q1293.3438,306.9844 1293.3438,305.1875 Q1293.3438,303.1563 1294,301.7031 Q1294.6563,300.25 1295.9375,299.4688 Q1297.2188,298.6875 1299.0938,298.6875 Q1299.9844,298.6875 1300.6563,298.875 Q1301.3281,299.0469 1302.0156,299.3906 L1301.2031,301.4063 Q1300.5781,301.0938 1300.0313,300.9688 Q1299.5,300.8438 1299.0156,300.8438 Q1297.8438,300.8438 1297.1406,301.375 Q1296.4375,301.9063 1296.1406,302.8594 Q1295.8438,303.8125 1295.8438,305.0781 Q1295.8438,307.0938 1296.5625,308.0625 Q1297.2813,309.0156 1298.875,309.0156 Q1299.4688,309.0156 1300.0938,308.8594 Q1300.7188,308.7031 1301.5469,308.3281 L1301.5469,310.5469 Q1300.8125,310.8594 1300.0156,311.0156 Q1299.2344,311.1719 1298.4688,311.1719 Z "/><text fill="#000000" font-family="sans-serif" font-size="12" lengthAdjust="spacingAndGlyphs" textLength="0" x="1315.5" y="309.656"/><line style="stroke: #A80036; stroke-width: 1.5;" x1="1284.5" x2="1317.5" y1="321" y2="321"/><text fill="#000000" font-family="sans-serif" font-size="11" lengthAdjust="spacingAndGlyphs" textLength="6" x="1289.5" y="336.7589">...</text><line style="stroke: #A80036; stroke-width: 1.5;" x1="1284.5" x2="1317.5" y1="343.9819" y2="343.9819"/><!--MD5=[1fbefe350d91d1efc5c263fd17644a63]
class FileSystem\UserHome\.DOMOTIX.dati.attuatori.att1--><rect fill="#FEFECE" filter="url(#fs8rmqcugegk3)" height="62.9819" id="FileSystem\UserHome\.DOMOTIX.dati.attuatori.att1" style="stroke: #A80036; stroke-width: 1.5;" width="52" x="1096" y="166"/><ellipse cx="1111" cy="182" fill="#ADD1B2" rx="11" ry="11" style="stroke: #A80036; stroke-width: 1.0;"/><path d="M1110.9688,188.1719 Q1109.2188,188.1719 1108.0781,187.4375 Q1106.9531,186.6875 1106.3906,185.3438 Q1105.8438,183.9844 1105.8438,182.1875 Q1105.8438,180.1563 1106.5,178.7031 Q1107.1563,177.25 1108.4375,176.4688 Q1109.7188,175.6875 1111.5938,175.6875 Q1112.4844,175.6875 1113.1563,175.875 Q1113.8281,176.0469 1114.5156,176.3906 L1113.7031,178.4063 Q1113.0781,178.0938 1112.5313,177.9688 Q1112,177.8438 1111.5156,177.8438 Q1110.3438,177.8438 1109.6406,178.375 Q1108.9375,178.9063 1108.6406,179.8594 Q1108.3438,180.8125 1108.3438,182.0781 Q1108.3438,184.0938 1109.0625,185.0625 Q1109.7813,186.0156 1111.375,186.0156 Q1111.9688,186.0156 1112.5938,185.8594 Q1113.2188,185.7031 1114.0469,185.3281 L1114.0469,187.5469 Q1113.3125,187.8594 1112.5156,188.0156 Q1111.7344,188.1719 1110.9688,188.1719 Z "/><text fill="#000000" font-family="sans-serif" font-size="12" lengthAdjust="spacingAndGlyphs" textLength="20" x="1125" y="186.656">att1</text><line style="stroke: #A80036; stroke-width: 1.5;" x1="1097" x2="1147" y1="198" y2="198"/><text fill="#000000" font-family="sans-serif" font-size="11" lengthAdjust="spacingAndGlyphs" textLength="20" x="1102" y="213.7589">XML</text><line style="stroke: #A80036; stroke-width: 1.5;" x1="1097" x2="1147" y1="220.9819" y2="220.9819"/><!--MD5=[20ab198449d8dca52856dc17c248cad6]
class FileSystem\UserHome\.DOMOTIX.dati.attuatori.att2--><rect fill="#FEFECE" filter="url(#fs8rmqcugegk3)" height="62.9819" id="FileSystem\UserHome\.DOMOTIX.dati.attuatori.att2" style="stroke: #A80036; stroke-width: 1.5;" width="52" x="1183" y="166"/><ellipse cx="1198" cy="182" fill="#ADD1B2" rx="11" ry="11" style="stroke: #A80036; stroke-width: 1.0;"/><path d="M1197.9688,188.1719 Q1196.2188,188.1719 1195.0781,187.4375 Q1193.9531,186.6875 1193.3906,185.3438 Q1192.8438,183.9844 1192.8438,182.1875 Q1192.8438,180.1563 1193.5,178.7031 Q1194.1563,177.25 1195.4375,176.4688 Q1196.7188,175.6875 1198.5938,175.6875 Q1199.4844,175.6875 1200.1563,175.875 Q1200.8281,176.0469 1201.5156,176.3906 L1200.7031,178.4063 Q1200.0781,178.0938 1199.5313,177.9688 Q1199,177.8438 1198.5156,177.8438 Q1197.3438,177.8438 1196.6406,178.375 Q1195.9375,178.9063 1195.6406,179.8594 Q1195.3438,180.8125 1195.3438,182.0781 Q1195.3438,184.0938 1196.0625,185.0625 Q1196.7813,186.0156 1198.375,186.0156 Q1198.9688,186.0156 1199.5938,185.8594 Q1200.2188,185.7031 1201.0469,185.3281 L1201.0469,187.5469 Q1200.3125,187.8594 1199.5156,188.0156 Q1198.7344,188.1719 1197.9688,188.1719 Z "/><text fill="#000000" font-family="sans-serif" font-size="12" lengthAdjust="spacingAndGlyphs" textLength="20" x="1212" y="186.656">att2</text><line style="stroke: #A80036; stroke-width: 1.5;" x1="1184" x2="1234" y1="198" y2="198"/><text fill="#000000" font-family="sans-serif" font-size="11" lengthAdjust="spacingAndGlyphs" textLength="20" x="1189" y="213.7589">XML</text><line style="stroke: #A80036; stroke-width: 1.5;" x1="1184" x2="1234" y1="220.9819" y2="220.9819"/><!--MD5=[2a101b2696002fef5f6e88161eb5f990]
class FileSystem\UserHome\.DOMOTIX.dati.attuatori.--><rect fill="#FEFECE" filter="url(#fs8rmqcugegk3)" height="62.9819" id="FileSystem\UserHome\.DOMOTIX.dati.attuatori." style="stroke: #A80036; stroke-width: 1.5;" width="35" x="1104.5" y="289"/><ellipse cx="1119.5" cy="305" fill="#ADD1B2" rx="11" ry="11" style="stroke: #A80036; stroke-width: 1.0;"/><path d="M1119.4688,311.1719 Q1117.7188,311.1719 1116.5781,310.4375 Q1115.4531,309.6875 1114.8906,308.3438 Q1114.3438,306.9844 1114.3438,305.1875 Q1114.3438,303.1563 1115,301.7031 Q1115.6563,300.25 1116.9375,299.4688 Q1118.2188,298.6875 1120.0938,298.6875 Q1120.9844,298.6875 1121.6563,298.875 Q1122.3281,299.0469 1123.0156,299.3906 L1122.2031,301.4063 Q1121.5781,301.0938 1121.0313,300.9688 Q1120.5,300.8438 1120.0156,300.8438 Q1118.8438,300.8438 1118.1406,301.375 Q1117.4375,301.9063 1117.1406,302.8594 Q1116.8438,303.8125 1116.8438,305.0781 Q1116.8438,307.0938 1117.5625,308.0625 Q1118.2813,309.0156 1119.875,309.0156 Q1120.4688,309.0156 1121.0938,308.8594 Q1121.7188,308.7031 1122.5469,308.3281 L1122.5469,310.5469 Q1121.8125,310.8594 1121.0156,311.0156 Q1120.2344,311.1719 1119.4688,311.1719 Z "/><text fill="#000000" font-family="sans-serif" font-size="12" lengthAdjust="spacingAndGlyphs" textLength="0" x="1136.5" y="309.656"/><line style="stroke: #A80036; stroke-width: 1.5;" x1="1105.5" x2="1138.5" y1="321" y2="321"/><text fill="#000000" font-family="sans-serif" font-size="11" lengthAdjust="spacingAndGlyphs" textLength="6" x="1110.5" y="336.7589">...</text><line style="stroke: #A80036; stroke-width: 1.5;" x1="1105.5" x2="1138.5" y1="343.9819" y2="343.9819"/><!--MD5=[78cfd8bb77b59e5fc7b3eb20b1459b15]
class FileSystem\UserHome\.DOMOTIX.dati.unita_immob.unita1.unita1--><rect fill="#FEFECE" filter="url(#fs8rmqcugegk3)" height="62.9819" id="FileSystem\UserHome\.DOMOTIX.dati.unita_immob.unita1.unita1" style="stroke: #A80036; stroke-width: 1.5;" width="65" x="423.5" y="166"/><ellipse cx="438.5" cy="182" fill="#ADD1B2" rx="11" ry="11" style="stroke: #A80036; stroke-width: 1.0;"/><path d="M438.4688,188.1719 Q436.7188,188.1719 435.5781,187.4375 Q434.4531,186.6875 433.8906,185.3438 Q433.3438,183.9844 433.3438,182.1875 Q433.3438,180.1563 434,178.7031 Q434.6563,177.25 435.9375,176.4688 Q437.2188,175.6875 439.0938,175.6875 Q439.9844,175.6875 440.6563,175.875 Q441.3281,176.0469 442.0156,176.3906 L441.2031,178.4063 Q440.5781,178.0938 440.0313,177.9688 Q439.5,177.8438 439.0156,177.8438 Q437.8438,177.8438 437.1406,178.375 Q436.4375,178.9063 436.1406,179.8594 Q435.8438,180.8125 435.8438,182.0781 Q435.8438,184.0938 436.5625,185.0625 Q437.2813,186.0156 438.875,186.0156 Q439.4688,186.0156 440.0938,185.8594 Q440.7188,185.7031 441.5469,185.3281 L441.5469,187.5469 Q440.8125,187.8594 440.0156,188.0156 Q439.2344,188.1719 438.4688,188.1719 Z "/><text fill="#000000" font-family="sans-serif" font-size="12" lengthAdjust="spacingAndGlyphs" textLength="33" x="452.5" y="186.656">unita1</text><line style="stroke: #A80036; stroke-width: 1.5;" x1="424.5" x2="487.5" y1="198" y2="198"/><text fill="#000000" font-family="sans-serif" font-size="11" lengthAdjust="spacingAndGlyphs" textLength="20" x="429.5" y="213.7589">XML</text><line style="stroke: #A80036; stroke-width: 1.5;" x1="424.5" x2="487.5" y1="220.9819" y2="220.9819"/><!--MD5=[2cba44b122d11498e61862eef4c3db49]
class FileSystem\UserHome\.DOMOTIX.dati.unita_immob.unita1.stanze.stanza1--><rect fill="#FEFECE" filter="url(#fs8rmqcugegk3)" height="62.9819" id="FileSystem\UserHome\.DOMOTIX.dati.unita_immob.unita1.stanze.stanza1" style="stroke: #A80036; stroke-width: 1.5;" width="71" x="878.5" y="166"/><ellipse cx="893.5" cy="182" fill="#ADD1B2" rx="11" ry="11" style="stroke: #A80036; stroke-width: 1.0;"/><path d="M893.4688,188.1719 Q891.7188,188.1719 890.5781,187.4375 Q889.4531,186.6875 888.8906,185.3438 Q888.3438,183.9844 888.3438,182.1875 Q888.3438,180.1563 889,178.7031 Q889.6563,177.25 890.9375,176.4688 Q892.2188,175.6875 894.0938,175.6875 Q894.9844,175.6875 895.6563,175.875 Q896.3281,176.0469 897.0156,176.3906 L896.2031,178.4063 Q895.5781,178.0938 895.0313,177.9688 Q894.5,177.8438 894.0156,177.8438 Q892.8438,177.8438 892.1406,178.375 Q891.4375,178.9063 891.1406,179.8594 Q890.8438,180.8125 890.8438,182.0781 Q890.8438,184.0938 891.5625,185.0625 Q892.2813,186.0156 893.875,186.0156 Q894.4688,186.0156 895.0938,185.8594 Q895.7188,185.7031 896.5469,185.3281 L896.5469,187.5469 Q895.8125,187.8594 895.0156,188.0156 Q894.2344,188.1719 893.4688,188.1719 Z "/><text fill="#000000" font-family="sans-serif" font-size="12" lengthAdjust="spacingAndGlyphs" textLength="39" x="907.5" y="186.656">stanza1</text><line style="stroke: #A80036; stroke-width: 1.5;" x1="879.5" x2="948.5" y1="198" y2="198"/><text fill="#000000" font-family="sans-serif" font-size="11" lengthAdjust="spacingAndGlyphs" textLength="20" x="884.5" y="213.7589">XML</text><line style="stroke: #A80036; stroke-width: 1.5;" x1="879.5" x2="948.5" y1="220.9819" y2="220.9819"/><!--MD5=[1251ed9bc0f1732ba70754c442a225d4]
class FileSystem\UserHome\.DOMOTIX.dati.unita_immob.unita1.stanze.stanza2--><rect fill="#FEFECE" filter="url(#fs8rmqcugegk3)" height="62.9819" id="FileSystem\UserHome\.DOMOTIX.dati.unita_immob.unita1.stanze.stanza2" style="stroke: #A80036; stroke-width: 1.5;" width="71" x="984.5" y="166"/><ellipse cx="999.5" cy="182" fill="#ADD1B2" rx="11" ry="11" style="stroke: #A80036; stroke-width: 1.0;"/><path d="M999.4688,188.1719 Q997.7188,188.1719 996.5781,187.4375 Q995.4531,186.6875 994.8906,185.3438 Q994.3438,183.9844 994.3438,182.1875 Q994.3438,180.1563 995,178.7031 Q995.6563,177.25 996.9375,176.4688 Q998.2188,175.6875 1000.0938,175.6875 Q1000.9844,175.6875 1001.6563,175.875 Q1002.3281,176.0469 1003.0156,176.3906 L1002.2031,178.4063 Q1001.5781,178.0938 1001.0313,177.9688 Q1000.5,177.8438 1000.0156,177.8438 Q998.8438,177.8438 998.1406,178.375 Q997.4375,178.9063 997.1406,179.8594 Q996.8438,180.8125 996.8438,182.0781 Q996.8438,184.0938 997.5625,185.0625 Q998.2813,186.0156 999.875,186.0156 Q1000.4688,186.0156 1001.0938,185.8594 Q1001.7188,185.7031 1002.5469,185.3281 L1002.5469,187.5469 Q1001.8125,187.8594 1001.0156,188.0156 Q1000.2344,188.1719 999.4688,188.1719 Z "/><text fill="#000000" font-family="sans-serif" font-size="12" lengthAdjust="spacingAndGlyphs" textLength="39" x="1013.5" y="186.656">stanza2</text><line style="stroke: #A80036; stroke-width: 1.5;" x1="985.5" x2="1054.5" y1="198" y2="198"/><text fill="#000000" font-family="sans-serif" font-size="11" lengthAdjust="spacingAndGlyphs" textLength="20" x="990.5" y="213.7589">XML</text><line style="stroke: #A80036; stroke-width: 1.5;" x1="985.5" x2="1054.5" y1="220.9819" y2="220.9819"/><!--MD5=[05a2219b780067434ed8c7c73d5ff16f]
class FileSystem\UserHome\.DOMOTIX.dati.unita_immob.unita1.stanze.--><rect fill="#FEFECE" filter="url(#fs8rmqcugegk3)" height="62.9819" id="FileSystem\UserHome\.DOMOTIX.dati.unita_immob.unita1.stanze." style="stroke: #A80036; stroke-width: 1.5;" width="35" x="896.5" y="289"/><ellipse cx="911.5" cy="305" fill="#ADD1B2" rx="11" ry="11" style="stroke: #A80036; stroke-width: 1.0;"/><path d="M911.4688,311.1719 Q909.7188,311.1719 908.5781,310.4375 Q907.4531,309.6875 906.8906,308.3438 Q906.3438,306.9844 906.3438,305.1875 Q906.3438,303.1563 907,301.7031 Q907.6563,300.25 908.9375,299.4688 Q910.2188,298.6875 912.0938,298.6875 Q912.9844,298.6875 913.6563,298.875 Q914.3281,299.0469 915.0156,299.3906 L914.2031,301.4063 Q913.5781,301.0938 913.0313,300.9688 Q912.5,300.8438 912.0156,300.8438 Q910.8438,300.8438 910.1406,301.375 Q909.4375,301.9063 909.1406,302.8594 Q908.8438,303.8125 908.8438,305.0781 Q908.8438,307.0938 909.5625,308.0625 Q910.2813,309.0156 911.875,309.0156 Q912.4688,309.0156 913.0938,308.8594 Q913.7188,308.7031 914.5469,308.3281 L914.5469,310.5469 Q913.8125,310.8594 913.0156,311.0156 Q912.2344,311.1719 911.4688,311.1719 Z "/><text fill="#000000" font-family="sans-serif" font-size="12" lengthAdjust="spacingAndGlyphs" textLength="0" x="928.5" y="309.656"/><line style="stroke: #A80036; stroke-width: 1.5;" x1="897.5" x2="930.5" y1="321" y2="321"/><text fill="#000000" font-family="sans-serif" font-size="11" lengthAdjust="spacingAndGlyphs" textLength="6" x="902.5" y="336.7589">...</text><line style="stroke: #A80036; stroke-width: 1.5;" x1="897.5" x2="930.5" y1="343.9819" y2="343.9819"/><!--MD5=[cf106372dbc621b2f23eac677f4a7b12]
class FileSystem\UserHome\.DOMOTIX.dati.unita_immob.unita1.artefatti.artef1--><rect fill="#FEFECE" filter="url(#fs8rmqcugegk3)" height="62.9819" id="FileSystem\UserHome\.DOMOTIX.dati.unita_immob.unita1.artefatti.artef1" style="stroke: #A80036; stroke-width: 1.5;" width="62" x="684" y="166"/><ellipse cx="699" cy="182" fill="#ADD1B2" rx="11" ry="11" style="stroke: #A80036; stroke-width: 1.0;"/><path d="M698.9688,188.1719 Q697.2188,188.1719 696.0781,187.4375 Q694.9531,186.6875 694.3906,185.3438 Q693.8438,183.9844 693.8438,182.1875 Q693.8438,180.1563 694.5,178.7031 Q695.1563,177.25 696.4375,176.4688 Q697.7188,175.6875 699.5938,175.6875 Q700.4844,175.6875 701.1563,175.875 Q701.8281,176.0469 702.5156,176.3906 L701.7031,178.4063 Q701.0781,178.0938 700.5313,177.9688 Q700,177.8438 699.5156,177.8438 Q698.3438,177.8438 697.6406,178.375 Q696.9375,178.9063 696.6406,179.8594 Q696.3438,180.8125 696.3438,182.0781 Q696.3438,184.0938 697.0625,185.0625 Q697.7813,186.0156 699.375,186.0156 Q699.9688,186.0156 700.5938,185.8594 Q701.2188,185.7031 702.0469,185.3281 L702.0469,187.5469 Q701.3125,187.8594 700.5156,188.0156 Q699.7344,188.1719 698.9688,188.1719 Z "/><text fill="#000000" font-family="sans-serif" font-size="12" lengthAdjust="spacingAndGlyphs" textLength="30" x="713" y="186.656">artef1</text><line style="stroke: #A80036; stroke-width: 1.5;" x1="685" x2="745" y1="198" y2="198"/><text fill="#000000" font-family="sans-serif" font-size="11" lengthAdjust="spacingAndGlyphs" textLength="20" x="690" y="213.7589">XML</text><line style="stroke: #A80036; stroke-width: 1.5;" x1="685" x2="745" y1="220.9819" y2="220.9819"/><!--MD5=[58c83b3a9da54d9869ca2f945913e5c9]
class FileSystem\UserHome\.DOMOTIX.dati.unita_immob.unita1.artefatti.artef2--><rect fill="#FEFECE" filter="url(#fs8rmqcugegk3)" height="62.9819" id="FileSystem\UserHome\.DOMOTIX.dati.unita_immob.unita1.artefatti.artef2" style="stroke: #A80036; stroke-width: 1.5;" width="62" x="781" y="166"/><ellipse cx="796" cy="182" fill="#ADD1B2" rx="11" ry="11" style="stroke: #A80036; stroke-width: 1.0;"/><path d="M795.9688,188.1719 Q794.2188,188.1719 793.0781,187.4375 Q791.9531,186.6875 791.3906,185.3438 Q790.8438,183.9844 790.8438,182.1875 Q790.8438,180.1563 791.5,178.7031 Q792.1563,177.25 793.4375,176.4688 Q794.7188,175.6875 796.5938,175.6875 Q797.4844,175.6875 798.1563,175.875 Q798.8281,176.0469 799.5156,176.3906 L798.7031,178.4063 Q798.0781,178.0938 797.5313,177.9688 Q797,177.8438 796.5156,177.8438 Q795.3438,177.8438 794.6406,178.375 Q793.9375,178.9063 793.6406,179.8594 Q793.3438,180.8125 793.3438,182.0781 Q793.3438,184.0938 794.0625,185.0625 Q794.7813,186.0156 796.375,186.0156 Q796.9688,186.0156 797.5938,185.8594 Q798.2188,185.7031 799.0469,185.3281 L799.0469,187.5469 Q798.3125,187.8594 797.5156,188.0156 Q796.7344,188.1719 795.9688,188.1719 Z "/><text fill="#000000" font-family="sans-serif" font-size="12" lengthAdjust="spacingAndGlyphs" textLength="30" x="810" y="186.656">artef2</text><line style="stroke: #A80036; stroke-width: 1.5;" x1="782" x2="842" y1="198" y2="198"/><text fill="#000000" font-family="sans-serif" font-size="11" lengthAdjust="spacingAndGlyphs" textLength="20" x="787" y="213.7589">XML</text><line style="stroke: #A80036; stroke-width: 1.5;" x1="782" x2="842" y1="220.9819" y2="220.9819"/><!--MD5=[dc49d3248c8367230ec6aa3831b721ad]
class FileSystem\UserHome\.DOMOTIX.dati.unita_immob.unita1.artefatti.--><rect fill="#FEFECE" filter="url(#fs8rmqcugegk3)" height="62.9819" id="FileSystem\UserHome\.DOMOTIX.dati.unita_immob.unita1.artefatti." style="stroke: #A80036; stroke-width: 1.5;" width="35" x="697.5" y="289"/><ellipse cx="712.5" cy="305" fill="#ADD1B2" rx="11" ry="11" style="stroke: #A80036; stroke-width: 1.0;"/><path d="M712.4688,311.1719 Q710.7188,311.1719 709.5781,310.4375 Q708.4531,309.6875 707.8906,308.3438 Q707.3438,306.9844 707.3438,305.1875 Q707.3438,303.1563 708,301.7031 Q708.6563,300.25 709.9375,299.4688 Q711.2188,298.6875 713.0938,298.6875 Q713.9844,298.6875 714.6563,298.875 Q715.3281,299.0469 716.0156,299.3906 L715.2031,301.4063 Q714.5781,301.0938 714.0313,300.9688 Q713.5,300.8438 713.0156,300.8438 Q711.8438,300.8438 711.1406,301.375 Q710.4375,301.9063 710.1406,302.8594 Q709.8438,303.8125 709.8438,305.0781 Q709.8438,307.0938 710.5625,308.0625 Q711.2813,309.0156 712.875,309.0156 Q713.4688,309.0156 714.0938,308.8594 Q714.7188,308.7031 715.5469,308.3281 L715.5469,310.5469 Q714.8125,310.8594 714.0156,311.0156 Q713.2344,311.1719 712.4688,311.1719 Z "/><text fill="#000000" font-family="sans-serif" font-size="12" lengthAdjust="spacingAndGlyphs" textLength="0" x="729.5" y="309.656"/><line style="stroke: #A80036; stroke-width: 1.5;" x1="698.5" x2="731.5" y1="321" y2="321"/><text fill="#000000" font-family="sans-serif" font-size="11" lengthAdjust="spacingAndGlyphs" textLength="6" x="703.5" y="336.7589">...</text><line style="stroke: #A80036; stroke-width: 1.5;" x1="698.5" x2="731.5" y1="343.9819" y2="343.9819"/><!--MD5=[3901f11265bc8e48dd3247a2af9d1240]
class FileSystem\UserHome\.DOMOTIX.dati.unita_immob.unita1.regole.reg1--><rect fill="#FEFECE" filter="url(#fs8rmqcugegk3)" height="62.9819" id="FileSystem\UserHome\.DOMOTIX.dati.unita_immob.unita1.regole.reg1" style="stroke: #A80036; stroke-width: 1.5;" width="55" x="593.5" y="166"/><ellipse cx="608.5" cy="182" fill="#ADD1B2" rx="11" ry="11" style="stroke: #A80036; stroke-width: 1.0;"/><path d="M608.4688,188.1719 Q606.7188,188.1719 605.5781,187.4375 Q604.4531,186.6875 603.8906,185.3438 Q603.3438,183.9844 603.3438,182.1875 Q603.3438,180.1563 604,178.7031 Q604.6563,177.25 605.9375,176.4688 Q607.2188,175.6875 609.0938,175.6875 Q609.9844,175.6875 610.6563,175.875 Q611.3281,176.0469 612.0156,176.3906 L611.2031,178.4063 Q610.5781,178.0938 610.0313,177.9688 Q609.5,177.8438 609.0156,177.8438 Q607.8438,177.8438 607.1406,178.375 Q606.4375,178.9063 606.1406,179.8594 Q605.8438,180.8125 605.8438,182.0781 Q605.8438,184.0938 606.5625,185.0625 Q607.2813,186.0156 608.875,186.0156 Q609.4688,186.0156 610.0938,185.8594 Q610.7188,185.7031 611.5469,185.3281 L611.5469,187.5469 Q610.8125,187.8594 610.0156,188.0156 Q609.2344,188.1719 608.4688,188.1719 Z "/><text fill="#000000" font-family="sans-serif" font-size="12" lengthAdjust="spacingAndGlyphs" textLength="23" x="622.5" y="186.656">reg1</text><line style="stroke: #A80036; stroke-width: 1.5;" x1="594.5" x2="647.5" y1="198" y2="198"/><text fill="#000000" font-family="sans-serif" font-size="11" lengthAdjust="spacingAndGlyphs" textLength="20" x="599.5" y="213.7589">XML</text><line style="stroke: #A80036; stroke-width: 1.5;" x1="594.5" x2="647.5" y1="220.9819" y2="220.9819"/><!--MD5=[8f3ab4da2b60a8cb709dcc95637ff8bd]
class FileSystem\UserHome\.DOMOTIX.dati.unita_immob.unita1.regole.--><rect fill="#FEFECE" filter="url(#fs8rmqcugegk3)" height="62.9819" id="FileSystem\UserHome\.DOMOTIX.dati.unita_immob.unita1.regole." style="stroke: #A80036; stroke-width: 1.5;" width="35" x="523.5" y="166"/><ellipse cx="538.5" cy="182" fill="#ADD1B2" rx="11" ry="11" style="stroke: #A80036; stroke-width: 1.0;"/><path d="M538.4688,188.1719 Q536.7188,188.1719 535.5781,187.4375 Q534.4531,186.6875 533.8906,185.3438 Q533.3438,183.9844 533.3438,182.1875 Q533.3438,180.1563 534,178.7031 Q534.6563,177.25 535.9375,176.4688 Q537.2188,175.6875 539.0938,175.6875 Q539.9844,175.6875 540.6563,175.875 Q541.3281,176.0469 542.0156,176.3906 L541.2031,178.4063 Q540.5781,178.0938 540.0313,177.9688 Q539.5,177.8438 539.0156,177.8438 Q537.8438,177.8438 537.1406,178.375 Q536.4375,178.9063 536.1406,179.8594 Q535.8438,180.8125 535.8438,182.0781 Q535.8438,184.0938 536.5625,185.0625 Q537.2813,186.0156 538.875,186.0156 Q539.4688,186.0156 540.0938,185.8594 Q540.7188,185.7031 541.5469,185.3281 L541.5469,187.5469 Q540.8125,187.8594 540.0156,188.0156 Q539.2344,188.1719 538.4688,188.1719 Z "/><text fill="#000000" font-family="sans-serif" font-size="12" lengthAdjust="spacingAndGlyphs" textLength="0" x="555.5" y="186.656"/><line style="stroke: #A80036; stroke-width: 1.5;" x1="524.5" x2="557.5" y1="198" y2="198"/><text fill="#000000" font-family="sans-serif" font-size="11" lengthAdjust="spacingAndGlyphs" textLength="6" x="529.5" y="213.7589">...</text><line style="stroke: #A80036; stroke-width: 1.5;" x1="524.5" x2="557.5" y1="220.9819" y2="220.9819"/><!--MD5=[b3ba491725a35fe05bbeda74609ce084]
class unita....--><rect fill="#FEFECE" filter="url(#fs8rmqcugegk3)" height="62.9819" id="unita...." style="stroke: #A80036; stroke-width: 1.5;" width="35" x="353.5" y="166"/><ellipse cx="368.5" cy="182" fill="#ADD1B2" rx="11" ry="11" style="stroke: #A80036; stroke-width: 1.0;"/><path d="M368.4688,188.1719 Q366.7188,188.1719 365.5781,187.4375 Q364.4531,186.6875 363.8906,185.3438 Q363.3438,183.9844 363.3438,182.1875 Q363.3438,180.1563 364,178.7031 Q364.6563,177.25 365.9375,176.4688 Q367.2188,175.6875 369.0938,175.6875 Q369.9844,175.6875 370.6563,175.875 Q371.3281,176.0469 372.0156,176.3906 L371.2031,178.4063 Q370.5781,178.0938 370.0313,177.9688 Q369.5,177.8438 369.0156,177.8438 Q367.8438,177.8438 367.1406,178.375 Q366.4375,178.9063 366.1406,179.8594 Q365.8438,180.8125 365.8438,182.0781 Q365.8438,184.0938 366.5625,185.0625 Q367.2813,186.0156 368.875,186.0156 Q369.4688,186.0156 370.0938,185.8594 Q370.7188,185.7031 371.5469,185.3281 L371.5469,187.5469 Q370.8125,187.8594 370.0156,188.0156 Q369.2344,188.1719 368.4688,188.1719 Z "/><text fill="#000000" font-family="sans-serif" font-size="12" lengthAdjust="spacingAndGlyphs" textLength="0" x="385.5" y="186.656"/><line style="stroke: #A80036; stroke-width: 1.5;" x1="354.5" x2="387.5" y1="198" y2="198"/><text fill="#000000" font-family="sans-serif" font-size="11" lengthAdjust="spacingAndGlyphs" textLength="6" x="359.5" y="213.7589">...</text><line style="stroke: #A80036; stroke-width: 1.5;" x1="354.5" x2="387.5" y1="220.9819" y2="220.9819"/><polygon fill="#FFFFFF" filter="url(#fs8rmqcugegk3)" points="255.5,168.5,304.5,168.5,311.5,193.5679,318.5,193.5679,318.5,226.6358,255.5,226.6358,255.5,168.5" style="stroke: #000000; stroke-width: 1.5;"/><line style="stroke: #000000; stroke-width: 1.5;" x1="255.5" x2="311.5" y1="193.5679" y2="193.5679"/><text fill="#000000" font-family="sans-serif" font-size="14" font-weight="bold" lengthAdjust="spacingAndGlyphs" textLength="43" x="259.5" y="185.4659">stanze</text><polygon fill="#FFFFFF" filter="url(#fs8rmqcugegk3)" points="143.5,168.5,206.5,168.5,213.5,193.5679,220.5,193.5679,220.5,226.6358,143.5,226.6358,143.5,168.5" style="stroke: #000000; stroke-width: 1.5;"/><line style="stroke: #000000; stroke-width: 1.5;" x1="143.5" x2="213.5" y1="193.5679" y2="193.5679"/><text fill="#000000" font-family="sans-serif" font-size="14" font-weight="bold" lengthAdjust="spacingAndGlyphs" textLength="57" x="147.5" y="185.4659">artefatti</text><polygon fill="#FFFFFF" filter="url(#fs8rmqcugegk3)" points="46,168.5,94,168.5,101,193.5679,108,193.5679,108,226.6358,46,226.6358,46,168.5" style="stroke: #000000; stroke-width: 1.5;"/><line style="stroke: #000000; stroke-width: 1.5;" x1="46" x2="101" y1="193.5679" y2="193.5679"/><text fill="#000000" font-family="sans-serif" font-size="14" font-weight="bold" lengthAdjust="spacingAndGlyphs" textLength="42" x="50" y="185.4659">regole</text><!--MD5=[7439c31303bcd6d499150569dd61a17f]
link FileSystem\UserHome\.DOMOTIX.dati.sensori.sens1 to FileSystem\UserHome\.DOMOTIX.dati.sensori.sens2--><!--MD5=[116a237e4f3f3497adc173f117c42bff]
link FileSystem\UserHome\.DOMOTIX.dati.sensori.sens1 to FileSystem\UserHome\.DOMOTIX.dati.sensori.--><!--MD5=[f93f8f98e63d109b5a26e95ca86a67ef]
link FileSystem\UserHome\.DOMOTIX.dati.attuatori.att1 to FileSystem\UserHome\.DOMOTIX.dati.attuatori.att2--><!--MD5=[695461b35d6763c2b4f9652a5b9b0971]
link FileSystem\UserHome\.DOMOTIX.dati.attuatori.att1 to FileSystem\UserHome\.DOMOTIX.dati.attuatori.--><!--MD5=[24940305f3407e6dfa7baae9284b64da]
link FileSystem\UserHome\.DOMOTIX.dati.unita_immob.unita1.stanze.stanza1 to FileSystem\UserHome\.DOMOTIX.dati.unita_immob.unita1.stanze.stanza2--><!--MD5=[2aaf42a5d2fc09243ef345533048c51d]
link FileSystem\UserHome\.DOMOTIX.dati.unita_immob.unita1.stanze.stanza1 to FileSystem\UserHome\.DOMOTIX.dati.unita_immob.unita1.stanze.--><!--MD5=[7058869f3f828d6a64d1cd2eaf90d83c]
link FileSystem\UserHome\.DOMOTIX.dati.unita_immob.unita1.artefatti.artef1 to FileSystem\UserHome\.DOMOTIX.dati.unita_immob.unita1.artefatti.artef2--><!--MD5=[c33e7c8951dcac6385b2fde8597d703c]
link FileSystem\UserHome\.DOMOTIX.dati.unita_immob.unita1.artefatti.artef1 to FileSystem\UserHome\.DOMOTIX.dati.unita_immob.unita1.artefatti.--><!--MD5=[f03d0858cabb2f12a020a1f928e41be0]
@startuml

namespace FileSystem\UserHome\.DOMOTIX {
    namespace dati {
        namespace azioni_programmabili {
            class azione1 {
                XML
            }
            class FileSystem\UserHome\.DOMOTIX.dati.azioni_programmabili. {
                ...
            }
        }
        namespace categorie_sensori {
            namespace catSens1 {
                class catSens1 {
                    XML
                }
                namespace info_rilevabile {
                    class info1 {
                        XML
                    }
                    class FileSystem\UserHome\.DOMOTIX.dati.categorie_sensori.catSens1.info_rilevabile. {
                       ...
                    }
                }
            }
            namespace catSens... {
                class catSens.... {
                    ...
                }
                namespace info_rilevabile {
                    class catSens....info_rilevabile. {
                        ...
                    }
                }
            }
        }
        namespace categorie_attuatori {
            namespace catAtt1 {
                class catAtt1 {
                    XML
                }
                namespace modalita {
                    class mod1 {
                        XML
                    }
                    class . {
                        ...
                    }
                }
            }
            namespace catAtt... {
                class catAtt.... {
                    ...
                }
                namespace modalita {
                    class catAtt....modalita. {
                        ...
                    }
                }
            }
        }
        namespace sensori {
            class sens1 {
                XML
            }
            class sens2 {
                XML
            }
            class FileSystem\UserHome\.DOMOTIX.dati.sensori. {
                ...
            }
        }
        namespace attuatori {
            class att1 {
                XML
            }
            class att2 {
                XML
            }
            class FileSystem\UserHome\.DOMOTIX.dati.attuatori. {
                ...
            }
        }
        namespace unita_immob {
            namespace unita1 {
                class unita1 {
                    XML
                }
                namespace stanze {
                    class stanza1 {
                        XML
                    }
                    class stanza2 {
                        XML
                    }
                    class FileSystem\UserHome\.DOMOTIX.dati.unita_immob.unita1.stanze. {
                        ...
                    }
                }
                namespace artefatti {
                    class artef1 {
                        XML
                    }
                    class artef2 {
                        XML
                    }
                    class FileSystem\UserHome\.DOMOTIX.dati.unita_immob.unita1.artefatti. {
                        ...
                    }
                }
                namespace regole {
                    class reg1 {
                        XML
                    }
                    class FileSystem\UserHome\.DOMOTIX.dati.unita_immob.unita1.regole. {
                        ...
                    }
                }
            }
            namespace unita... {
                class unita.... {
                    ...
                }
                namespace stanze {

                }
                namespace artefatti {

                }
                namespace regole {

                }
            }
        }
    }
}

@enduml

PlantUML version 1.2019.11(Sun Sep 22 12:02:15 CEST 2019)
(GPL source distribution)
Java Runtime: OpenJDK Runtime Environment
JVM: OpenJDK 64-Bit Server VM
Java Version: 11.0.3+12-b304.10
Operating System: Linux
Default Encoding: UTF-8
Language: it
Country: IT
--></g></svg>