<?xml version="1.0" encoding="UTF-8" standalone="no"?><svg xmlns="http://www.w3.org/2000/svg" xmlns:xlink="http://www.w3.org/1999/xlink" contentScriptType="application/ecmascript" contentStyleType="text/css" height="200px" preserveAspectRatio="none" style="width:1543px;height:200px;" version="1.1" viewBox="0 0 1543 200" width="1543px" zoomAndPan="magnify"><defs><filter height="300%" id="f19125udh5d9hu" width="300%" x="-1" y="-1"><feGaussianBlur result="blurOut" stdDeviation="2.0"/><feColorMatrix in="blurOut" result="blurOut2" type="matrix" values="0 0 0 0 0 0 0 0 0 0 0 0 0 0 0 0 0 0 .4 0"/><feOffset dx="4.0" dy="4.0" in="blurOut2" result="blurOut3"/><feBlend in="SourceGraphic" in2="blurOut3" mode="normal"/></filter></defs><g><!--MD5=[09c7011976e9249fa1fbce023e806e19]
cluster FileSystem\UserHome\.DOMOTIX--><polygon fill="#FFFFFF" filter="url(#f19125udh5d9hu)" points="14,16,239,16,246,41.0679,1521,41.0679,1521,188,14,188,14,16" style="stroke: #000000; stroke-width: 1.5;"/><line style="stroke: #000000; stroke-width: 1.5;" x1="14" x2="246" y1="41.0679" y2="41.0679"/><text fill="#000000" font-family="sans-serif" font-size="14" font-weight="bold" lengthAdjust="spacingAndGlyphs" textLength="219" x="18" y="32.9659">FileSystem\UserHome\.DOMOTIX</text><!--MD5=[988aa9527bfb4a28d201207263c50172]
cluster FileSystem\UserHome\.DOMOTIX.libreria--><polygon fill="#FFFFFF" filter="url(#f19125udh5d9hu)" points="96,46,150,46,157,71.0679,1513,71.0679,1513,180,96,180,96,46" style="stroke: #000000; stroke-width: 1.5;"/><line style="stroke: #000000; stroke-width: 1.5;" x1="96" x2="157" y1="71.0679" y2="71.0679"/><text fill="#000000" font-family="sans-serif" font-size="14" font-weight="bold" lengthAdjust="spacingAndGlyphs" textLength="48" x="100" y="62.9659">libreria</text><!--MD5=[4dc00538fcb27794a7e3da9dcc96faa2]
cluster FileSystem\UserHome\.DOMOTIX.libreria.importata--><polygon fill="#FFFFFF" filter="url(#f19125udh5d9hu)" points="810,76,883,76,890,101.0679,1505,101.0679,1505,172,810,172,810,76" style="stroke: #000000; stroke-width: 1.5;"/><line style="stroke: #000000; stroke-width: 1.5;" x1="810" x2="890" y1="101.0679" y2="101.0679"/><text fill="#000000" font-family="sans-serif" font-size="14" font-weight="bold" lengthAdjust="spacingAndGlyphs" textLength="67" x="814" y="92.9659">importata</text><polygon fill="#FFFFFF" filter="url(#f19125udh5d9hu)" points="22,106,54,106,61,131.0679,68,131.0679,68,164.1358,22,164.1358,22,106" style="stroke: #000000; stroke-width: 1.5;"/><line style="stroke: #000000; stroke-width: 1.5;" x1="22" x2="61" y1="131.0679" y2="131.0679"/><text fill="#000000" font-family="sans-serif" font-size="14" font-weight="bold" lengthAdjust="spacingAndGlyphs" textLength="26" x="26" y="122.9659">dati</text><polygon fill="#FFFFFF" filter="url(#f19125udh5d9hu)" points="1361.5,106,1482.5,106,1489.5,131.0679,1496.5,131.0679,1496.5,164.1358,1361.5,164.1358,1361.5,106" style="stroke: #000000; stroke-width: 1.5;"/><line style="stroke: #000000; stroke-width: 1.5;" x1="1361.5" x2="1489.5" y1="131.0679" y2="131.0679"/><text fill="#000000" font-family="sans-serif" font-size="14" font-weight="bold" lengthAdjust="spacingAndGlyphs" textLength="115" x="1365.5" y="122.9659">categorie_sensori</text><polygon fill="#FFFFFF" filter="url(#f19125udh5d9hu)" points="1177.5,106,1312.5,106,1319.5,131.0679,1326.5,131.0679,1326.5,164.1358,1177.5,164.1358,1177.5,106" style="stroke: #000000; stroke-width: 1.5;"/><line style="stroke: #000000; stroke-width: 1.5;" x1="1177.5" x2="1319.5" y1="131.0679" y2="131.0679"/><text fill="#000000" font-family="sans-serif" font-size="14" font-weight="bold" lengthAdjust="spacingAndGlyphs" textLength="129" x="1181.5" y="122.9659">categorie_attuatori</text><polygon fill="#FFFFFF" filter="url(#f19125udh5d9hu)" points="1075.5,106,1128.5,106,1135.5,131.0679,1142.5,131.0679,1142.5,164.1358,1075.5,164.1358,1075.5,106" style="stroke: #000000; stroke-width: 1.5;"/><line style="stroke: #000000; stroke-width: 1.5;" x1="1075.5" x2="1135.5" y1="131.0679" y2="131.0679"/><text fill="#000000" font-family="sans-serif" font-size="14" font-weight="bold" lengthAdjust="spacingAndGlyphs" textLength="47" x="1079.5" y="122.9659">sensori</text><polygon fill="#FFFFFF" filter="url(#f19125udh5d9hu)" points="959.5,106,1026.5,106,1033.5,131.0679,1040.5,131.0679,1040.5,164.1358,959.5,164.1358,959.5,106" style="stroke: #000000; stroke-width: 1.5;"/><line style="stroke: #000000; stroke-width: 1.5;" x1="959.5" x2="1033.5" y1="131.0679" y2="131.0679"/><text fill="#000000" font-family="sans-serif" font-size="14" font-weight="bold" lengthAdjust="spacingAndGlyphs" textLength="61" x="963.5" y="122.9659">attuatori</text><polygon fill="#FFFFFF" filter="url(#f19125udh5d9hu)" points="817.5,106,910.5,106,917.5,131.0679,924.5,131.0679,924.5,164.1358,817.5,164.1358,817.5,106" style="stroke: #000000; stroke-width: 1.5;"/><line style="stroke: #000000; stroke-width: 1.5;" x1="817.5" x2="917.5" y1="131.0679" y2="131.0679"/><text fill="#000000" font-family="sans-serif" font-size="14" font-weight="bold" lengthAdjust="spacingAndGlyphs" textLength="87" x="821.5" y="122.9659">unita_immob</text><polygon fill="#FFFFFF" filter="url(#f19125udh5d9hu)" points="647.5,106,768.5,106,775.5,131.0679,782.5,131.0679,782.5,164.1358,647.5,164.1358,647.5,106" style="stroke: #000000; stroke-width: 1.5;"/><line style="stroke: #000000; stroke-width: 1.5;" x1="647.5" x2="775.5" y1="131.0679" y2="131.0679"/><text fill="#000000" font-family="sans-serif" font-size="14" font-weight="bold" lengthAdjust="spacingAndGlyphs" textLength="115" x="651.5" y="122.9659">categorie_sensori</text><polygon fill="#FFFFFF" filter="url(#f19125udh5d9hu)" points="463.5,106,598.5,106,605.5,131.0679,612.5,131.0679,612.5,164.1358,463.5,164.1358,463.5,106" style="stroke: #000000; stroke-width: 1.5;"/><line style="stroke: #000000; stroke-width: 1.5;" x1="463.5" x2="605.5" y1="131.0679" y2="131.0679"/><text fill="#000000" font-family="sans-serif" font-size="14" font-weight="bold" lengthAdjust="spacingAndGlyphs" textLength="129" x="467.5" y="122.9659">categorie_attuatori</text><polygon fill="#FFFFFF" filter="url(#f19125udh5d9hu)" points="361.5,106,414.5,106,421.5,131.0679,428.5,131.0679,428.5,164.1358,361.5,164.1358,361.5,106" style="stroke: #000000; stroke-width: 1.5;"/><line style="stroke: #000000; stroke-width: 1.5;" x1="361.5" x2="421.5" y1="131.0679" y2="131.0679"/><text fill="#000000" font-family="sans-serif" font-size="14" font-weight="bold" lengthAdjust="spacingAndGlyphs" textLength="47" x="365.5" y="122.9659">sensori</text><polygon fill="#FFFFFF" filter="url(#f19125udh5d9hu)" points="245.5,106,312.5,106,319.5,131.0679,326.5,131.0679,326.5,164.1358,245.5,164.1358,245.5,106" style="stroke: #000000; stroke-width: 1.5;"/><line style="stroke: #000000; stroke-width: 1.5;" x1="245.5" x2="319.5" y1="131.0679" y2="131.0679"/><text fill="#000000" font-family="sans-serif" font-size="14" font-weight="bold" lengthAdjust="spacingAndGlyphs" textLength="61" x="249.5" y="122.9659">attuatori</text><polygon fill="#FFFFFF" filter="url(#f19125udh5d9hu)" points="103.5,106,196.5,106,203.5,131.0679,210.5,131.0679,210.5,164.1358,103.5,164.1358,103.5,106" style="stroke: #000000; stroke-width: 1.5;"/><line style="stroke: #000000; stroke-width: 1.5;" x1="103.5" x2="203.5" y1="131.0679" y2="131.0679"/><text fill="#000000" font-family="sans-serif" font-size="14" font-weight="bold" lengthAdjust="spacingAndGlyphs" textLength="87" x="107.5" y="122.9659">unita_immob</text><!--MD5=[dd744782e2b7e10a3d2e7ec31818a8f6]
@startuml

namespace FileSystem\UserHome\.DOMOTIX {
    namespace dati {
    }
    namespace libreria {
        namespace importata {
            namespace categorie_sensori {
            }
            namespace categorie_attuatori {
            }
            namespace sensori {
            }
            namespace attuatori {
            }
            namespace unita_immob {
            }
        }
        namespace categorie_sensori {
        }
        namespace categorie_attuatori {
        }
        namespace sensori {
        }
        namespace attuatori {
        }
        namespace unita_immob {
        }
    }
}

@enduml

PlantUML version 1.2019.11(Sun Sep 22 12:02:15 CEST 2019)
(GPL source distribution)
Java Runtime: OpenJDK Runtime Environment
JVM: OpenJDK 64-Bit Server VM
Java Version: 11.0.3+12-b304.10
Operating System: Linux
Default Encoding: UTF-8
Language: it
Country: IT
--></g></svg>