<?xml version="1.0" encoding="UTF-8" standalone="no"?><svg xmlns="http://www.w3.org/2000/svg" xmlns:xlink="http://www.w3.org/1999/xlink" contentScriptType="application/ecmascript" contentStyleType="text/css" height="404px" preserveAspectRatio="none" style="width:2113px;height:404px;" version="1.1" viewBox="0 0 2113 404" width="2113px" zoomAndPan="magnify"><defs><filter height="300%" id="fiscunrb52l6f" width="300%" x="-1" y="-1"><feGaussianBlur result="blurOut" stdDeviation="2.0"/><feColorMatrix in="blurOut" result="blurOut2" type="matrix" values="0 0 0 0 0 0 0 0 0 0 0 0 0 0 0 0 0 0 .4 0"/><feOffset dx="4.0" dy="4.0" in="blurOut2" result="blurOut3"/><feBlend in="SourceGraphic" in2="blurOut3" mode="normal"/></filter></defs><g><!--MD5=[09c7011976e9249fa1fbce023e806e19]
cluster FileSystem\UserHome\.DOMOTIX--><polygon fill="#FFFFFF" filter="url(#fiscunrb52l6f)" points="14,16,239,16,246,41.0679,2091,41.0679,2091,392,14,392,14,16" style="stroke: #000000; stroke-width: 1.5;"/><line style="stroke: #000000; stroke-width: 1.5;" x1="14" x2="246" y1="41.0679" y2="41.0679"/><text fill="#000000" font-family="sans-serif" font-size="14" font-weight="bold" lengthAdjust="spacingAndGlyphs" textLength="219" x="18" y="32.9659">FileSystem\UserHome\.DOMOTIX</text><!--MD5=[dfcb3881052c3482c8265b3ef49e2806]
cluster FileSystem\UserHome\.DOMOTIX.dati--><polygon fill="#FFFFFF" filter="url(#fiscunrb52l6f)" points="22,46,54,46,61,71.0679,2083,71.0679,2083,384,22,384,22,46" style="stroke: #000000; stroke-width: 1.5;"/><line style="stroke: #000000; stroke-width: 1.5;" x1="22" x2="61" y1="71.0679" y2="71.0679"/><text fill="#000000" font-family="sans-serif" font-size="14" font-weight="bold" lengthAdjust="spacingAndGlyphs" textLength="26" x="26" y="62.9659">dati</text><!--MD5=[c9ad932b9681266f52934d27f55bb39e]
cluster FileSystem\UserHome\.DOMOTIX.dati.categorie_sensori--><polygon fill="#FFFFFF" filter="url(#fiscunrb52l6f)" points="1617,76,1738,76,1745,101.0679,2075,101.0679,2075,253,1617,253,1617,76" style="stroke: #000000; stroke-width: 1.5;"/><line style="stroke: #000000; stroke-width: 1.5;" x1="1617" x2="1745" y1="101.0679" y2="101.0679"/><text fill="#000000" font-family="sans-serif" font-size="14" font-weight="bold" lengthAdjust="spacingAndGlyphs" textLength="115" x="1621" y="92.9659">categorie_sensori</text><!--MD5=[eb7dad9f1b8212980cc04fdeb9216f80]
cluster FileSystem\UserHome\.DOMOTIX.dati.categorie_sensori.catSens1--><polygon fill="#FFFFFF" filter="url(#fiscunrb52l6f)" points="1801,106,1866,106,1873,131.0679,2067,131.0679,2067,245,1801,245,1801,106" style="stroke: #000000; stroke-width: 1.5;"/><line style="stroke: #000000; stroke-width: 1.5;" x1="1801" x2="1873" y1="131.0679" y2="131.0679"/><text fill="#000000" font-family="sans-serif" font-size="14" font-weight="bold" lengthAdjust="spacingAndGlyphs" textLength="59" x="1805" y="122.9659">catSens1</text><!--MD5=[ceb2d855b0006908d37f65a89a5f5d27]
cluster FileSystem\UserHome\.DOMOTIX.dati.categorie_sensori.catSens1.info_rilevabile--><polygon fill="#FFFFFF" filter="url(#fiscunrb52l6f)" points="1913,136,2011,136,2018,161.0679,2059,161.0679,2059,237,1913,237,1913,136" style="stroke: #000000; stroke-width: 1.5;"/><line style="stroke: #000000; stroke-width: 1.5;" x1="1913" x2="2018" y1="161.0679" y2="161.0679"/><text fill="#000000" font-family="sans-serif" font-size="14" font-weight="bold" lengthAdjust="spacingAndGlyphs" textLength="92" x="1917" y="152.9659">info_rilevabile</text><!--MD5=[299ad2d5743f8da57b706c33daae2c01]
cluster catSens...--><polygon fill="#FFFFFF" filter="url(#fiscunrb52l6f)" points="1625,106,1691,106,1698,131.0679,1793,131.0679,1793,245,1625,245,1625,106" style="stroke: #000000; stroke-width: 1.5;"/><line style="stroke: #000000; stroke-width: 1.5;" x1="1625" x2="1698" y1="131.0679" y2="131.0679"/><text fill="#000000" font-family="sans-serif" font-size="14" font-weight="bold" lengthAdjust="spacingAndGlyphs" textLength="60" x="1629" y="122.9659">catSens...</text><!--MD5=[3532c680e7618543de3d01c52ae50a34]
cluster catSens....info_rilevabile--><polygon fill="#FFFFFF" filter="url(#fiscunrb52l6f)" points="1677,136,1775,136,1782,161.0679,1785,161.0679,1785,237,1677,237,1677,136" style="stroke: #000000; stroke-width: 1.5;"/><line style="stroke: #000000; stroke-width: 1.5;" x1="1677" x2="1782" y1="161.0679" y2="161.0679"/><text fill="#000000" font-family="sans-serif" font-size="14" font-weight="bold" lengthAdjust="spacingAndGlyphs" textLength="92" x="1681" y="152.9659">info_rilevabile</text><!--MD5=[db7886c006d2f5c46b334f955763fb29]
cluster FileSystem\UserHome\.DOMOTIX.dati.categorie_attuatori--><polygon fill="#FFFFFF" filter="url(#fiscunrb52l6f)" points="1189,76,1324,76,1331,101.0679,1609,101.0679,1609,253,1189,253,1189,76" style="stroke: #000000; stroke-width: 1.5;"/><line style="stroke: #000000; stroke-width: 1.5;" x1="1189" x2="1331" y1="101.0679" y2="101.0679"/><text fill="#000000" font-family="sans-serif" font-size="14" font-weight="bold" lengthAdjust="spacingAndGlyphs" textLength="129" x="1193" y="92.9659">categorie_attuatori</text><!--MD5=[3574c8f44a4b51356f1d9dd858fa3bff]
cluster FileSystem\UserHome\.DOMOTIX.dati.categorie_attuatori.catAtt1--><polygon fill="#FFFFFF" filter="url(#fiscunrb52l6f)" points="1340,106,1396,106,1403,131.0679,1601,131.0679,1601,245,1340,245,1340,106" style="stroke: #000000; stroke-width: 1.5;"/><line style="stroke: #000000; stroke-width: 1.5;" x1="1340" x2="1403" y1="131.0679" y2="131.0679"/><text fill="#000000" font-family="sans-serif" font-size="14" font-weight="bold" lengthAdjust="spacingAndGlyphs" textLength="50" x="1344" y="122.9659">catAtt1</text><!--MD5=[248f9d4856453a7e22bc1b8aa9648a7e]
cluster FileSystem\UserHome\.DOMOTIX.dati.categorie_attuatori.catAtt1.modalita--><polygon fill="#FFFFFF" filter="url(#fiscunrb52l6f)" points="1443,136,1508,136,1515,161.0679,1593,161.0679,1593,237,1443,237,1443,136" style="stroke: #000000; stroke-width: 1.5;"/><line style="stroke: #000000; stroke-width: 1.5;" x1="1443" x2="1515" y1="161.0679" y2="161.0679"/><text fill="#000000" font-family="sans-serif" font-size="14" font-weight="bold" lengthAdjust="spacingAndGlyphs" textLength="59" x="1447" y="152.9659">modalita</text><!--MD5=[91901be6ccaf281265f1d47d80327b5d]
cluster catAtt...--><polygon fill="#FFFFFF" filter="url(#fiscunrb52l6f)" points="1197,106,1254,106,1261,131.0679,1332,131.0679,1332,245,1197,245,1197,106" style="stroke: #000000; stroke-width: 1.5;"/><line style="stroke: #000000; stroke-width: 1.5;" x1="1197" x2="1261" y1="131.0679" y2="131.0679"/><text fill="#000000" font-family="sans-serif" font-size="14" font-weight="bold" lengthAdjust="spacingAndGlyphs" textLength="51" x="1201" y="122.9659">catAtt...</text><!--MD5=[e5ea987d181c750a40c8c1c3ed0bcf88]
cluster catAtt....modalita--><polygon fill="#FFFFFF" filter="url(#fiscunrb52l6f)" points="1249,136,1314,136,1321,161.0679,1324,161.0679,1324,237,1249,237,1249,136" style="stroke: #000000; stroke-width: 1.5;"/><line style="stroke: #000000; stroke-width: 1.5;" x1="1249" x2="1321" y1="161.0679" y2="161.0679"/><text fill="#000000" font-family="sans-serif" font-size="14" font-weight="bold" lengthAdjust="spacingAndGlyphs" textLength="59" x="1253" y="152.9659">modalita</text><!--MD5=[4f67d68a44c1dd8a4347b0f9eceba487]
cluster FileSystem\UserHome\.DOMOTIX.dati.sensori--><polygon fill="#FFFFFF" filter="url(#fiscunrb52l6f)" points="1005,136,1058,136,1065,161.0679,1179,161.0679,1179,360,1005,360,1005,136" style="stroke: #000000; stroke-width: 1.5;"/><line style="stroke: #000000; stroke-width: 1.5;" x1="1005" x2="1065" y1="161.0679" y2="161.0679"/><text fill="#000000" font-family="sans-serif" font-size="14" font-weight="bold" lengthAdjust="spacingAndGlyphs" textLength="47" x="1009" y="152.9659">sensori</text><!--MD5=[2f5e6fbe39e352f1ba665d177347697a]
cluster FileSystem\UserHome\.DOMOTIX.dati.attuatori--><polygon fill="#FFFFFF" filter="url(#fiscunrb52l6f)" points="831,136,898,136,905,161.0679,986,161.0679,986,360,831,360,831,136" style="stroke: #000000; stroke-width: 1.5;"/><line style="stroke: #000000; stroke-width: 1.5;" x1="831" x2="905" y1="161.0679" y2="161.0679"/><text fill="#000000" font-family="sans-serif" font-size="14" font-weight="bold" lengthAdjust="spacingAndGlyphs" textLength="61" x="835" y="152.9659">attuatori</text><!--MD5=[1c6264558058331daeec56365a4f6c37]
cluster FileSystem\UserHome\.DOMOTIX.dati.unita_immob--><polygon fill="#FFFFFF" filter="url(#fiscunrb52l6f)" points="30,76,123,76,130,101.0679,823,101.0679,823,376,30,376,30,76" style="stroke: #000000; stroke-width: 1.5;"/><line style="stroke: #000000; stroke-width: 1.5;" x1="30" x2="130" y1="101.0679" y2="101.0679"/><text fill="#000000" font-family="sans-serif" font-size="14" font-weight="bold" lengthAdjust="spacingAndGlyphs" textLength="87" x="34" y="92.9659">unita_immob</text><!--MD5=[d4e6d05d9b65640591355e1cd689bd3b]
cluster FileSystem\UserHome\.DOMOTIX.dati.unita_immob.unita1--><polygon fill="#FFFFFF" filter="url(#fiscunrb52l6f)" points="318,106,368,106,375,131.0679,815,131.0679,815,368,318,368,318,106" style="stroke: #000000; stroke-width: 1.5;"/><line style="stroke: #000000; stroke-width: 1.5;" x1="318" x2="375" y1="131.0679" y2="131.0679"/><text fill="#000000" font-family="sans-serif" font-size="14" font-weight="bold" lengthAdjust="spacingAndGlyphs" textLength="44" x="322" y="122.9659">unita1</text><!--MD5=[ec84ec1d8c1bd0fdfea69c31680675c9]
cluster FileSystem\UserHome\.DOMOTIX.dati.unita_immob.unita1.stanze--><polygon fill="#FFFFFF" filter="url(#fiscunrb52l6f)" points="613,136,662,136,669,161.0679,807,161.0679,807,360,613,360,613,136" style="stroke: #000000; stroke-width: 1.5;"/><line style="stroke: #000000; stroke-width: 1.5;" x1="613" x2="669" y1="161.0679" y2="161.0679"/><text fill="#000000" font-family="sans-serif" font-size="14" font-weight="bold" lengthAdjust="spacingAndGlyphs" textLength="43" x="617" y="152.9659">stanze</text><!--MD5=[f779d72527b0f0221ebbd1498c74e4d4]
cluster FileSystem\UserHome\.DOMOTIX.dati.unita_immob.unita1.artefatti--><polygon fill="#FFFFFF" filter="url(#fiscunrb52l6f)" points="419,136,482,136,489,161.0679,594,161.0679,594,360,419,360,419,136" style="stroke: #000000; stroke-width: 1.5;"/><line style="stroke: #000000; stroke-width: 1.5;" x1="419" x2="489" y1="161.0679" y2="161.0679"/><text fill="#000000" font-family="sans-serif" font-size="14" font-weight="bold" lengthAdjust="spacingAndGlyphs" textLength="57" x="423" y="152.9659">artefatti</text><!--MD5=[1ddc696a0b89b24035389f3d7d46eebf]
cluster unita...--><polygon fill="#FFFFFF" filter="url(#fiscunrb52l6f)" points="38,136,89,136,96,161.0679,300,161.0679,300,237,38,237,38,136" style="stroke: #000000; stroke-width: 1.5;"/><line style="stroke: #000000; stroke-width: 1.5;" x1="38" x2="96" y1="161.0679" y2="161.0679"/><text fill="#000000" font-family="sans-serif" font-size="14" font-weight="bold" lengthAdjust="spacingAndGlyphs" textLength="45" x="42" y="152.9659">unita...</text><!--MD5=[b22ec789cc53725eaf879ec948d69af3]
class FileSystem\UserHome\.DOMOTIX.dati.categorie_sensori.catSens1.catSens1--><rect fill="#FEFECE" filter="url(#fiscunrb52l6f)" height="62.9819" id="FileSystem\UserHome\.DOMOTIX.dati.categorie_sensori.catSens1.catSens1" style="stroke: #A80036; stroke-width: 1.5;" width="77" x="1809.5" y="166"/><ellipse cx="1824.5" cy="182" fill="#ADD1B2" rx="11" ry="11" style="stroke: #A80036; stroke-width: 1.0;"/><path d="M1824.4688,188.1719 Q1822.7188,188.1719 1821.5781,187.4375 Q1820.4531,186.6875 1819.8906,185.3438 Q1819.3438,183.9844 1819.3438,182.1875 Q1819.3438,180.1563 1820,178.7031 Q1820.6563,177.25 1821.9375,176.4688 Q1823.2188,175.6875 1825.0938,175.6875 Q1825.9844,175.6875 1826.6563,175.875 Q1827.3281,176.0469 1828.0156,176.3906 L1827.2031,178.4063 Q1826.5781,178.0938 1826.0313,177.9688 Q1825.5,177.8438 1825.0156,177.8438 Q1823.8438,177.8438 1823.1406,178.375 Q1822.4375,178.9063 1822.1406,179.8594 Q1821.8438,180.8125 1821.8438,182.0781 Q1821.8438,184.0938 1822.5625,185.0625 Q1823.2813,186.0156 1824.875,186.0156 Q1825.4688,186.0156 1826.0938,185.8594 Q1826.7188,185.7031 1827.5469,185.3281 L1827.5469,187.5469 Q1826.8125,187.8594 1826.0156,188.0156 Q1825.2344,188.1719 1824.4688,188.1719 Z "/><text fill="#000000" font-family="sans-serif" font-size="12" lengthAdjust="spacingAndGlyphs" textLength="45" x="1838.5" y="186.656">catSens1</text><line style="stroke: #A80036; stroke-width: 1.5;" x1="1810.5" x2="1885.5" y1="198" y2="198"/><text fill="#000000" font-family="sans-serif" font-size="11" lengthAdjust="spacingAndGlyphs" textLength="20" x="1815.5" y="213.7589">XML</text><line style="stroke: #A80036; stroke-width: 1.5;" x1="1810.5" x2="1885.5" y1="220.9819" y2="220.9819"/><!--MD5=[303ecea41642c83c4a1ec2d4cc8ddb26]
class FileSystem\UserHome\.DOMOTIX.dati.categorie_sensori.catSens1.info_rilevabile.info1--><rect fill="#FEFECE" filter="url(#fiscunrb52l6f)" height="62.9819" id="FileSystem\UserHome\.DOMOTIX.dati.categorie_sensori.catSens1.info_rilevabile.info1" style="stroke: #A80036; stroke-width: 1.5;" width="59" x="1991.5" y="166"/><ellipse cx="2006.5" cy="182" fill="#ADD1B2" rx="11" ry="11" style="stroke: #A80036; stroke-width: 1.0;"/><path d="M2006.4688,188.1719 Q2004.7188,188.1719 2003.5781,187.4375 Q2002.4531,186.6875 2001.8906,185.3438 Q2001.3438,183.9844 2001.3438,182.1875 Q2001.3438,180.1563 2002,178.7031 Q2002.6563,177.25 2003.9375,176.4688 Q2005.2188,175.6875 2007.0938,175.6875 Q2007.9844,175.6875 2008.6563,175.875 Q2009.3281,176.0469 2010.0156,176.3906 L2009.2031,178.4063 Q2008.5781,178.0938 2008.0313,177.9688 Q2007.5,177.8438 2007.0156,177.8438 Q2005.8438,177.8438 2005.1406,178.375 Q2004.4375,178.9063 2004.1406,179.8594 Q2003.8438,180.8125 2003.8438,182.0781 Q2003.8438,184.0938 2004.5625,185.0625 Q2005.2813,186.0156 2006.875,186.0156 Q2007.4688,186.0156 2008.0938,185.8594 Q2008.7188,185.7031 2009.5469,185.3281 L2009.5469,187.5469 Q2008.8125,187.8594 2008.0156,188.0156 Q2007.2344,188.1719 2006.4688,188.1719 Z "/><text fill="#000000" font-family="sans-serif" font-size="12" lengthAdjust="spacingAndGlyphs" textLength="27" x="2020.5" y="186.656">info1</text><line style="stroke: #A80036; stroke-width: 1.5;" x1="1992.5" x2="2049.5" y1="198" y2="198"/><text fill="#000000" font-family="sans-serif" font-size="11" lengthAdjust="spacingAndGlyphs" textLength="20" x="1997.5" y="213.7589">XML</text><line style="stroke: #A80036; stroke-width: 1.5;" x1="1992.5" x2="2049.5" y1="220.9819" y2="220.9819"/><!--MD5=[c72fe4e0944e295812a2c20e89f0d4e3]
class FileSystem\UserHome\.DOMOTIX.dati.categorie_sensori.catSens1.info_rilevabile.--><rect fill="#FEFECE" filter="url(#fiscunrb52l6f)" height="62.9819" id="FileSystem\UserHome\.DOMOTIX.dati.categorie_sensori.catSens1.info_rilevabile." style="stroke: #A80036; stroke-width: 1.5;" width="35" x="1921.5" y="166"/><ellipse cx="1936.5" cy="182" fill="#ADD1B2" rx="11" ry="11" style="stroke: #A80036; stroke-width: 1.0;"/><path d="M1936.4688,188.1719 Q1934.7188,188.1719 1933.5781,187.4375 Q1932.4531,186.6875 1931.8906,185.3438 Q1931.3438,183.9844 1931.3438,182.1875 Q1931.3438,180.1563 1932,178.7031 Q1932.6563,177.25 1933.9375,176.4688 Q1935.2188,175.6875 1937.0938,175.6875 Q1937.9844,175.6875 1938.6563,175.875 Q1939.3281,176.0469 1940.0156,176.3906 L1939.2031,178.4063 Q1938.5781,178.0938 1938.0313,177.9688 Q1937.5,177.8438 1937.0156,177.8438 Q1935.8438,177.8438 1935.1406,178.375 Q1934.4375,178.9063 1934.1406,179.8594 Q1933.8438,180.8125 1933.8438,182.0781 Q1933.8438,184.0938 1934.5625,185.0625 Q1935.2813,186.0156 1936.875,186.0156 Q1937.4688,186.0156 1938.0938,185.8594 Q1938.7188,185.7031 1939.5469,185.3281 L1939.5469,187.5469 Q1938.8125,187.8594 1938.0156,188.0156 Q1937.2344,188.1719 1936.4688,188.1719 Z "/><text fill="#000000" font-family="sans-serif" font-size="12" lengthAdjust="spacingAndGlyphs" textLength="0" x="1953.5" y="186.656"/><line style="stroke: #A80036; stroke-width: 1.5;" x1="1922.5" x2="1955.5" y1="198" y2="198"/><text fill="#000000" font-family="sans-serif" font-size="11" lengthAdjust="spacingAndGlyphs" textLength="6" x="1927.5" y="213.7589">...</text><line style="stroke: #A80036; stroke-width: 1.5;" x1="1922.5" x2="1955.5" y1="220.9819" y2="220.9819"/><!--MD5=[95967aded44cbe339f3923bc31b6408f]
class catSens....--><rect fill="#FEFECE" filter="url(#fiscunrb52l6f)" height="62.9819" id="catSens...." style="stroke: #A80036; stroke-width: 1.5;" width="35" x="1633.5" y="166"/><ellipse cx="1648.5" cy="182" fill="#ADD1B2" rx="11" ry="11" style="stroke: #A80036; stroke-width: 1.0;"/><path d="M1648.4688,188.1719 Q1646.7188,188.1719 1645.5781,187.4375 Q1644.4531,186.6875 1643.8906,185.3438 Q1643.3438,183.9844 1643.3438,182.1875 Q1643.3438,180.1563 1644,178.7031 Q1644.6563,177.25 1645.9375,176.4688 Q1647.2188,175.6875 1649.0938,175.6875 Q1649.9844,175.6875 1650.6563,175.875 Q1651.3281,176.0469 1652.0156,176.3906 L1651.2031,178.4063 Q1650.5781,178.0938 1650.0313,177.9688 Q1649.5,177.8438 1649.0156,177.8438 Q1647.8438,177.8438 1647.1406,178.375 Q1646.4375,178.9063 1646.1406,179.8594 Q1645.8438,180.8125 1645.8438,182.0781 Q1645.8438,184.0938 1646.5625,185.0625 Q1647.2813,186.0156 1648.875,186.0156 Q1649.4688,186.0156 1650.0938,185.8594 Q1650.7188,185.7031 1651.5469,185.3281 L1651.5469,187.5469 Q1650.8125,187.8594 1650.0156,188.0156 Q1649.2344,188.1719 1648.4688,188.1719 Z "/><text fill="#000000" font-family="sans-serif" font-size="12" lengthAdjust="spacingAndGlyphs" textLength="0" x="1665.5" y="186.656"/><line style="stroke: #A80036; stroke-width: 1.5;" x1="1634.5" x2="1667.5" y1="198" y2="198"/><text fill="#000000" font-family="sans-serif" font-size="11" lengthAdjust="spacingAndGlyphs" textLength="6" x="1639.5" y="213.7589">...</text><line style="stroke: #A80036; stroke-width: 1.5;" x1="1634.5" x2="1667.5" y1="220.9819" y2="220.9819"/><!--MD5=[45c732598c91cad54cd72aed34a3dd10]
class catSens....info_rilevabile.--><rect fill="#FEFECE" filter="url(#fiscunrb52l6f)" height="62.9819" id="catSens....info_rilevabile." style="stroke: #A80036; stroke-width: 1.5;" width="35" x="1721.5" y="166"/><ellipse cx="1736.5" cy="182" fill="#ADD1B2" rx="11" ry="11" style="stroke: #A80036; stroke-width: 1.0;"/><path d="M1736.4688,188.1719 Q1734.7188,188.1719 1733.5781,187.4375 Q1732.4531,186.6875 1731.8906,185.3438 Q1731.3438,183.9844 1731.3438,182.1875 Q1731.3438,180.1563 1732,178.7031 Q1732.6563,177.25 1733.9375,176.4688 Q1735.2188,175.6875 1737.0938,175.6875 Q1737.9844,175.6875 1738.6563,175.875 Q1739.3281,176.0469 1740.0156,176.3906 L1739.2031,178.4063 Q1738.5781,178.0938 1738.0313,177.9688 Q1737.5,177.8438 1737.0156,177.8438 Q1735.8438,177.8438 1735.1406,178.375 Q1734.4375,178.9063 1734.1406,179.8594 Q1733.8438,180.8125 1733.8438,182.0781 Q1733.8438,184.0938 1734.5625,185.0625 Q1735.2813,186.0156 1736.875,186.0156 Q1737.4688,186.0156 1738.0938,185.8594 Q1738.7188,185.7031 1739.5469,185.3281 L1739.5469,187.5469 Q1738.8125,187.8594 1738.0156,188.0156 Q1737.2344,188.1719 1736.4688,188.1719 Z "/><text fill="#000000" font-family="sans-serif" font-size="12" lengthAdjust="spacingAndGlyphs" textLength="0" x="1753.5" y="186.656"/><line style="stroke: #A80036; stroke-width: 1.5;" x1="1722.5" x2="1755.5" y1="198" y2="198"/><text fill="#000000" font-family="sans-serif" font-size="11" lengthAdjust="spacingAndGlyphs" textLength="6" x="1727.5" y="213.7589">...</text><line style="stroke: #A80036; stroke-width: 1.5;" x1="1722.5" x2="1755.5" y1="220.9819" y2="220.9819"/><!--MD5=[9a99cbd06cc99ce78119dce53ec05d0b]
class FileSystem\UserHome\.DOMOTIX.dati.categorie_attuatori.catAtt1.catAtt1--><rect fill="#FEFECE" filter="url(#fiscunrb52l6f)" height="62.9819" id="FileSystem\UserHome\.DOMOTIX.dati.categorie_attuatori.catAtt1.catAtt1" style="stroke: #A80036; stroke-width: 1.5;" width="68" x="1348" y="166"/><ellipse cx="1363" cy="182" fill="#ADD1B2" rx="11" ry="11" style="stroke: #A80036; stroke-width: 1.0;"/><path d="M1362.9688,188.1719 Q1361.2188,188.1719 1360.0781,187.4375 Q1358.9531,186.6875 1358.3906,185.3438 Q1357.8438,183.9844 1357.8438,182.1875 Q1357.8438,180.1563 1358.5,178.7031 Q1359.1563,177.25 1360.4375,176.4688 Q1361.7188,175.6875 1363.5938,175.6875 Q1364.4844,175.6875 1365.1563,175.875 Q1365.8281,176.0469 1366.5156,176.3906 L1365.7031,178.4063 Q1365.0781,178.0938 1364.5313,177.9688 Q1364,177.8438 1363.5156,177.8438 Q1362.3438,177.8438 1361.6406,178.375 Q1360.9375,178.9063 1360.6406,179.8594 Q1360.3438,180.8125 1360.3438,182.0781 Q1360.3438,184.0938 1361.0625,185.0625 Q1361.7813,186.0156 1363.375,186.0156 Q1363.9688,186.0156 1364.5938,185.8594 Q1365.2188,185.7031 1366.0469,185.3281 L1366.0469,187.5469 Q1365.3125,187.8594 1364.5156,188.0156 Q1363.7344,188.1719 1362.9688,188.1719 Z "/><text fill="#000000" font-family="sans-serif" font-size="12" lengthAdjust="spacingAndGlyphs" textLength="36" x="1377" y="186.656">catAtt1</text><line style="stroke: #A80036; stroke-width: 1.5;" x1="1349" x2="1415" y1="198" y2="198"/><text fill="#000000" font-family="sans-serif" font-size="11" lengthAdjust="spacingAndGlyphs" textLength="20" x="1354" y="213.7589">XML</text><line style="stroke: #A80036; stroke-width: 1.5;" x1="1349" x2="1415" y1="220.9819" y2="220.9819"/><!--MD5=[d226ecf93e1204c0839a568fd8064891]
class FileSystem\UserHome\.DOMOTIX.dati.categorie_attuatori.catAtt1.modalita.mod1--><rect fill="#FEFECE" filter="url(#fiscunrb52l6f)" height="62.9819" id="FileSystem\UserHome\.DOMOTIX.dati.categorie_attuatori.catAtt1.modalita.mod1" style="stroke: #A80036; stroke-width: 1.5;" width="63" x="1521.5" y="166"/><ellipse cx="1536.5" cy="182" fill="#ADD1B2" rx="11" ry="11" style="stroke: #A80036; stroke-width: 1.0;"/><path d="M1536.4688,188.1719 Q1534.7188,188.1719 1533.5781,187.4375 Q1532.4531,186.6875 1531.8906,185.3438 Q1531.3438,183.9844 1531.3438,182.1875 Q1531.3438,180.1563 1532,178.7031 Q1532.6563,177.25 1533.9375,176.4688 Q1535.2188,175.6875 1537.0938,175.6875 Q1537.9844,175.6875 1538.6563,175.875 Q1539.3281,176.0469 1540.0156,176.3906 L1539.2031,178.4063 Q1538.5781,178.0938 1538.0313,177.9688 Q1537.5,177.8438 1537.0156,177.8438 Q1535.8438,177.8438 1535.1406,178.375 Q1534.4375,178.9063 1534.1406,179.8594 Q1533.8438,180.8125 1533.8438,182.0781 Q1533.8438,184.0938 1534.5625,185.0625 Q1535.2813,186.0156 1536.875,186.0156 Q1537.4688,186.0156 1538.0938,185.8594 Q1538.7188,185.7031 1539.5469,185.3281 L1539.5469,187.5469 Q1538.8125,187.8594 1538.0156,188.0156 Q1537.2344,188.1719 1536.4688,188.1719 Z "/><text fill="#000000" font-family="sans-serif" font-size="12" lengthAdjust="spacingAndGlyphs" textLength="31" x="1550.5" y="186.656">mod1</text><line style="stroke: #A80036; stroke-width: 1.5;" x1="1522.5" x2="1583.5" y1="198" y2="198"/><text fill="#000000" font-family="sans-serif" font-size="11" lengthAdjust="spacingAndGlyphs" textLength="20" x="1527.5" y="213.7589">XML</text><line style="stroke: #A80036; stroke-width: 1.5;" x1="1522.5" x2="1583.5" y1="220.9819" y2="220.9819"/><!--MD5=[e9dd8f9d2a4993c6ff6f6a7f43aaea15]
class --><rect fill="#FEFECE" filter="url(#fiscunrb52l6f)" height="62.9819" id="" style="stroke: #A80036; stroke-width: 1.5;" width="35" x="1451.5" y="166"/><ellipse cx="1466.5" cy="182" fill="#ADD1B2" rx="11" ry="11" style="stroke: #A80036; stroke-width: 1.0;"/><path d="M1466.4688,188.1719 Q1464.7188,188.1719 1463.5781,187.4375 Q1462.4531,186.6875 1461.8906,185.3438 Q1461.3438,183.9844 1461.3438,182.1875 Q1461.3438,180.1563 1462,178.7031 Q1462.6563,177.25 1463.9375,176.4688 Q1465.2188,175.6875 1467.0938,175.6875 Q1467.9844,175.6875 1468.6563,175.875 Q1469.3281,176.0469 1470.0156,176.3906 L1469.2031,178.4063 Q1468.5781,178.0938 1468.0313,177.9688 Q1467.5,177.8438 1467.0156,177.8438 Q1465.8438,177.8438 1465.1406,178.375 Q1464.4375,178.9063 1464.1406,179.8594 Q1463.8438,180.8125 1463.8438,182.0781 Q1463.8438,184.0938 1464.5625,185.0625 Q1465.2813,186.0156 1466.875,186.0156 Q1467.4688,186.0156 1468.0938,185.8594 Q1468.7188,185.7031 1469.5469,185.3281 L1469.5469,187.5469 Q1468.8125,187.8594 1468.0156,188.0156 Q1467.2344,188.1719 1466.4688,188.1719 Z "/><text fill="#000000" font-family="sans-serif" font-size="12" lengthAdjust="spacingAndGlyphs" textLength="0" x="1483.5" y="186.656"/><line style="stroke: #A80036; stroke-width: 1.5;" x1="1452.5" x2="1485.5" y1="198" y2="198"/><text fill="#000000" font-family="sans-serif" font-size="11" lengthAdjust="spacingAndGlyphs" textLength="6" x="1457.5" y="213.7589">...</text><line style="stroke: #A80036; stroke-width: 1.5;" x1="1452.5" x2="1485.5" y1="220.9819" y2="220.9819"/><!--MD5=[c21ea9303ffc5e4ee77676ea12ae062d]
class catAtt....--><rect fill="#FEFECE" filter="url(#fiscunrb52l6f)" height="62.9819" id="catAtt...." style="stroke: #A80036; stroke-width: 1.5;" width="35" x="1205.5" y="166"/><ellipse cx="1220.5" cy="182" fill="#ADD1B2" rx="11" ry="11" style="stroke: #A80036; stroke-width: 1.0;"/><path d="M1220.4688,188.1719 Q1218.7188,188.1719 1217.5781,187.4375 Q1216.4531,186.6875 1215.8906,185.3438 Q1215.3438,183.9844 1215.3438,182.1875 Q1215.3438,180.1563 1216,178.7031 Q1216.6563,177.25 1217.9375,176.4688 Q1219.2188,175.6875 1221.0938,175.6875 Q1221.9844,175.6875 1222.6563,175.875 Q1223.3281,176.0469 1224.0156,176.3906 L1223.2031,178.4063 Q1222.5781,178.0938 1222.0313,177.9688 Q1221.5,177.8438 1221.0156,177.8438 Q1219.8438,177.8438 1219.1406,178.375 Q1218.4375,178.9063 1218.1406,179.8594 Q1217.8438,180.8125 1217.8438,182.0781 Q1217.8438,184.0938 1218.5625,185.0625 Q1219.2813,186.0156 1220.875,186.0156 Q1221.4688,186.0156 1222.0938,185.8594 Q1222.7188,185.7031 1223.5469,185.3281 L1223.5469,187.5469 Q1222.8125,187.8594 1222.0156,188.0156 Q1221.2344,188.1719 1220.4688,188.1719 Z "/><text fill="#000000" font-family="sans-serif" font-size="12" lengthAdjust="spacingAndGlyphs" textLength="0" x="1237.5" y="186.656"/><line style="stroke: #A80036; stroke-width: 1.5;" x1="1206.5" x2="1239.5" y1="198" y2="198"/><text fill="#000000" font-family="sans-serif" font-size="11" lengthAdjust="spacingAndGlyphs" textLength="6" x="1211.5" y="213.7589">...</text><line style="stroke: #A80036; stroke-width: 1.5;" x1="1206.5" x2="1239.5" y1="220.9819" y2="220.9819"/><!--MD5=[001d10a259945547ac7a94552615505d]
class catAtt....modalita.--><rect fill="#FEFECE" filter="url(#fiscunrb52l6f)" height="62.9819" id="catAtt....modalita." style="stroke: #A80036; stroke-width: 1.5;" width="35" x="1276.5" y="166"/><ellipse cx="1291.5" cy="182" fill="#ADD1B2" rx="11" ry="11" style="stroke: #A80036; stroke-width: 1.0;"/><path d="M1291.4688,188.1719 Q1289.7188,188.1719 1288.5781,187.4375 Q1287.4531,186.6875 1286.8906,185.3438 Q1286.3438,183.9844 1286.3438,182.1875 Q1286.3438,180.1563 1287,178.7031 Q1287.6563,177.25 1288.9375,176.4688 Q1290.2188,175.6875 1292.0938,175.6875 Q1292.9844,175.6875 1293.6563,175.875 Q1294.3281,176.0469 1295.0156,176.3906 L1294.2031,178.4063 Q1293.5781,178.0938 1293.0313,177.9688 Q1292.5,177.8438 1292.0156,177.8438 Q1290.8438,177.8438 1290.1406,178.375 Q1289.4375,178.9063 1289.1406,179.8594 Q1288.8438,180.8125 1288.8438,182.0781 Q1288.8438,184.0938 1289.5625,185.0625 Q1290.2813,186.0156 1291.875,186.0156 Q1292.4688,186.0156 1293.0938,185.8594 Q1293.7188,185.7031 1294.5469,185.3281 L1294.5469,187.5469 Q1293.8125,187.8594 1293.0156,188.0156 Q1292.2344,188.1719 1291.4688,188.1719 Z "/><text fill="#000000" font-family="sans-serif" font-size="12" lengthAdjust="spacingAndGlyphs" textLength="0" x="1308.5" y="186.656"/><line style="stroke: #A80036; stroke-width: 1.5;" x1="1277.5" x2="1310.5" y1="198" y2="198"/><text fill="#000000" font-family="sans-serif" font-size="11" lengthAdjust="spacingAndGlyphs" textLength="6" x="1282.5" y="213.7589">...</text><line style="stroke: #A80036; stroke-width: 1.5;" x1="1277.5" x2="1310.5" y1="220.9819" y2="220.9819"/><!--MD5=[c84d46f5296a6d40c55e609bc327304f]
class FileSystem\UserHome\.DOMOTIX.dati.sensori.sens1--><rect fill="#FEFECE" filter="url(#fiscunrb52l6f)" height="62.9819" id="FileSystem\UserHome\.DOMOTIX.dati.sensori.sens1" style="stroke: #A80036; stroke-width: 1.5;" width="61" x="1013.5" y="166"/><ellipse cx="1028.5" cy="182" fill="#ADD1B2" rx="11" ry="11" style="stroke: #A80036; stroke-width: 1.0;"/><path d="M1028.4688,188.1719 Q1026.7188,188.1719 1025.5781,187.4375 Q1024.4531,186.6875 1023.8906,185.3438 Q1023.3438,183.9844 1023.3438,182.1875 Q1023.3438,180.1563 1024,178.7031 Q1024.6563,177.25 1025.9375,176.4688 Q1027.2188,175.6875 1029.0938,175.6875 Q1029.9844,175.6875 1030.6563,175.875 Q1031.3281,176.0469 1032.0156,176.3906 L1031.2031,178.4063 Q1030.5781,178.0938 1030.0313,177.9688 Q1029.5,177.8438 1029.0156,177.8438 Q1027.8438,177.8438 1027.1406,178.375 Q1026.4375,178.9063 1026.1406,179.8594 Q1025.8438,180.8125 1025.8438,182.0781 Q1025.8438,184.0938 1026.5625,185.0625 Q1027.2813,186.0156 1028.875,186.0156 Q1029.4688,186.0156 1030.0938,185.8594 Q1030.7188,185.7031 1031.5469,185.3281 L1031.5469,187.5469 Q1030.8125,187.8594 1030.0156,188.0156 Q1029.2344,188.1719 1028.4688,188.1719 Z "/><text fill="#000000" font-family="sans-serif" font-size="12" lengthAdjust="spacingAndGlyphs" textLength="29" x="1042.5" y="186.656">sens1</text><line style="stroke: #A80036; stroke-width: 1.5;" x1="1014.5" x2="1073.5" y1="198" y2="198"/><text fill="#000000" font-family="sans-serif" font-size="11" lengthAdjust="spacingAndGlyphs" textLength="20" x="1019.5" y="213.7589">XML</text><line style="stroke: #A80036; stroke-width: 1.5;" x1="1014.5" x2="1073.5" y1="220.9819" y2="220.9819"/><!--MD5=[8e5728399e18fe072afec7065918c592]
class FileSystem\UserHome\.DOMOTIX.dati.sensori.sens2--><rect fill="#FEFECE" filter="url(#fiscunrb52l6f)" height="62.9819" id="FileSystem\UserHome\.DOMOTIX.dati.sensori.sens2" style="stroke: #A80036; stroke-width: 1.5;" width="61" x="1109.5" y="166"/><ellipse cx="1124.5" cy="182" fill="#ADD1B2" rx="11" ry="11" style="stroke: #A80036; stroke-width: 1.0;"/><path d="M1124.4688,188.1719 Q1122.7188,188.1719 1121.5781,187.4375 Q1120.4531,186.6875 1119.8906,185.3438 Q1119.3438,183.9844 1119.3438,182.1875 Q1119.3438,180.1563 1120,178.7031 Q1120.6563,177.25 1121.9375,176.4688 Q1123.2188,175.6875 1125.0938,175.6875 Q1125.9844,175.6875 1126.6563,175.875 Q1127.3281,176.0469 1128.0156,176.3906 L1127.2031,178.4063 Q1126.5781,178.0938 1126.0313,177.9688 Q1125.5,177.8438 1125.0156,177.8438 Q1123.8438,177.8438 1123.1406,178.375 Q1122.4375,178.9063 1122.1406,179.8594 Q1121.8438,180.8125 1121.8438,182.0781 Q1121.8438,184.0938 1122.5625,185.0625 Q1123.2813,186.0156 1124.875,186.0156 Q1125.4688,186.0156 1126.0938,185.8594 Q1126.7188,185.7031 1127.5469,185.3281 L1127.5469,187.5469 Q1126.8125,187.8594 1126.0156,188.0156 Q1125.2344,188.1719 1124.4688,188.1719 Z "/><text fill="#000000" font-family="sans-serif" font-size="12" lengthAdjust="spacingAndGlyphs" textLength="29" x="1138.5" y="186.656">sens2</text><line style="stroke: #A80036; stroke-width: 1.5;" x1="1110.5" x2="1169.5" y1="198" y2="198"/><text fill="#000000" font-family="sans-serif" font-size="11" lengthAdjust="spacingAndGlyphs" textLength="20" x="1115.5" y="213.7589">XML</text><line style="stroke: #A80036; stroke-width: 1.5;" x1="1110.5" x2="1169.5" y1="220.9819" y2="220.9819"/><!--MD5=[b2998bba51e8508c91f6168da98862c9]
class FileSystem\UserHome\.DOMOTIX.dati.sensori.--><rect fill="#FEFECE" filter="url(#fiscunrb52l6f)" height="62.9819" id="FileSystem\UserHome\.DOMOTIX.dati.sensori." style="stroke: #A80036; stroke-width: 1.5;" width="35" x="1026.5" y="289"/><ellipse cx="1041.5" cy="305" fill="#ADD1B2" rx="11" ry="11" style="stroke: #A80036; stroke-width: 1.0;"/><path d="M1041.4688,311.1719 Q1039.7188,311.1719 1038.5781,310.4375 Q1037.4531,309.6875 1036.8906,308.3438 Q1036.3438,306.9844 1036.3438,305.1875 Q1036.3438,303.1563 1037,301.7031 Q1037.6563,300.25 1038.9375,299.4688 Q1040.2188,298.6875 1042.0938,298.6875 Q1042.9844,298.6875 1043.6563,298.875 Q1044.3281,299.0469 1045.0156,299.3906 L1044.2031,301.4063 Q1043.5781,301.0938 1043.0313,300.9688 Q1042.5,300.8438 1042.0156,300.8438 Q1040.8438,300.8438 1040.1406,301.375 Q1039.4375,301.9063 1039.1406,302.8594 Q1038.8438,303.8125 1038.8438,305.0781 Q1038.8438,307.0938 1039.5625,308.0625 Q1040.2813,309.0156 1041.875,309.0156 Q1042.4688,309.0156 1043.0938,308.8594 Q1043.7188,308.7031 1044.5469,308.3281 L1044.5469,310.5469 Q1043.8125,310.8594 1043.0156,311.0156 Q1042.2344,311.1719 1041.4688,311.1719 Z "/><text fill="#000000" font-family="sans-serif" font-size="12" lengthAdjust="spacingAndGlyphs" textLength="0" x="1058.5" y="309.656"/><line style="stroke: #A80036; stroke-width: 1.5;" x1="1027.5" x2="1060.5" y1="321" y2="321"/><text fill="#000000" font-family="sans-serif" font-size="11" lengthAdjust="spacingAndGlyphs" textLength="6" x="1032.5" y="336.7589">...</text><line style="stroke: #A80036; stroke-width: 1.5;" x1="1027.5" x2="1060.5" y1="343.9819" y2="343.9819"/><!--MD5=[1fbefe350d91d1efc5c263fd17644a63]
class FileSystem\UserHome\.DOMOTIX.dati.attuatori.att1--><rect fill="#FEFECE" filter="url(#fiscunrb52l6f)" height="62.9819" id="FileSystem\UserHome\.DOMOTIX.dati.attuatori.att1" style="stroke: #A80036; stroke-width: 1.5;" width="52" x="839" y="166"/><ellipse cx="854" cy="182" fill="#ADD1B2" rx="11" ry="11" style="stroke: #A80036; stroke-width: 1.0;"/><path d="M853.9688,188.1719 Q852.2188,188.1719 851.0781,187.4375 Q849.9531,186.6875 849.3906,185.3438 Q848.8438,183.9844 848.8438,182.1875 Q848.8438,180.1563 849.5,178.7031 Q850.1563,177.25 851.4375,176.4688 Q852.7188,175.6875 854.5938,175.6875 Q855.4844,175.6875 856.1563,175.875 Q856.8281,176.0469 857.5156,176.3906 L856.7031,178.4063 Q856.0781,178.0938 855.5313,177.9688 Q855,177.8438 854.5156,177.8438 Q853.3438,177.8438 852.6406,178.375 Q851.9375,178.9063 851.6406,179.8594 Q851.3438,180.8125 851.3438,182.0781 Q851.3438,184.0938 852.0625,185.0625 Q852.7813,186.0156 854.375,186.0156 Q854.9688,186.0156 855.5938,185.8594 Q856.2188,185.7031 857.0469,185.3281 L857.0469,187.5469 Q856.3125,187.8594 855.5156,188.0156 Q854.7344,188.1719 853.9688,188.1719 Z "/><text fill="#000000" font-family="sans-serif" font-size="12" lengthAdjust="spacingAndGlyphs" textLength="20" x="868" y="186.656">att1</text><line style="stroke: #A80036; stroke-width: 1.5;" x1="840" x2="890" y1="198" y2="198"/><text fill="#000000" font-family="sans-serif" font-size="11" lengthAdjust="spacingAndGlyphs" textLength="20" x="845" y="213.7589">XML</text><line style="stroke: #A80036; stroke-width: 1.5;" x1="840" x2="890" y1="220.9819" y2="220.9819"/><!--MD5=[20ab198449d8dca52856dc17c248cad6]
class FileSystem\UserHome\.DOMOTIX.dati.attuatori.att2--><rect fill="#FEFECE" filter="url(#fiscunrb52l6f)" height="62.9819" id="FileSystem\UserHome\.DOMOTIX.dati.attuatori.att2" style="stroke: #A80036; stroke-width: 1.5;" width="52" x="926" y="166"/><ellipse cx="941" cy="182" fill="#ADD1B2" rx="11" ry="11" style="stroke: #A80036; stroke-width: 1.0;"/><path d="M940.9688,188.1719 Q939.2188,188.1719 938.0781,187.4375 Q936.9531,186.6875 936.3906,185.3438 Q935.8438,183.9844 935.8438,182.1875 Q935.8438,180.1563 936.5,178.7031 Q937.1563,177.25 938.4375,176.4688 Q939.7188,175.6875 941.5938,175.6875 Q942.4844,175.6875 943.1563,175.875 Q943.8281,176.0469 944.5156,176.3906 L943.7031,178.4063 Q943.0781,178.0938 942.5313,177.9688 Q942,177.8438 941.5156,177.8438 Q940.3438,177.8438 939.6406,178.375 Q938.9375,178.9063 938.6406,179.8594 Q938.3438,180.8125 938.3438,182.0781 Q938.3438,184.0938 939.0625,185.0625 Q939.7813,186.0156 941.375,186.0156 Q941.9688,186.0156 942.5938,185.8594 Q943.2188,185.7031 944.0469,185.3281 L944.0469,187.5469 Q943.3125,187.8594 942.5156,188.0156 Q941.7344,188.1719 940.9688,188.1719 Z "/><text fill="#000000" font-family="sans-serif" font-size="12" lengthAdjust="spacingAndGlyphs" textLength="20" x="955" y="186.656">att2</text><line style="stroke: #A80036; stroke-width: 1.5;" x1="927" x2="977" y1="198" y2="198"/><text fill="#000000" font-family="sans-serif" font-size="11" lengthAdjust="spacingAndGlyphs" textLength="20" x="932" y="213.7589">XML</text><line style="stroke: #A80036; stroke-width: 1.5;" x1="927" x2="977" y1="220.9819" y2="220.9819"/><!--MD5=[2a101b2696002fef5f6e88161eb5f990]
class FileSystem\UserHome\.DOMOTIX.dati.attuatori.--><rect fill="#FEFECE" filter="url(#fiscunrb52l6f)" height="62.9819" id="FileSystem\UserHome\.DOMOTIX.dati.attuatori." style="stroke: #A80036; stroke-width: 1.5;" width="35" x="847.5" y="289"/><ellipse cx="862.5" cy="305" fill="#ADD1B2" rx="11" ry="11" style="stroke: #A80036; stroke-width: 1.0;"/><path d="M862.4688,311.1719 Q860.7188,311.1719 859.5781,310.4375 Q858.4531,309.6875 857.8906,308.3438 Q857.3438,306.9844 857.3438,305.1875 Q857.3438,303.1563 858,301.7031 Q858.6563,300.25 859.9375,299.4688 Q861.2188,298.6875 863.0938,298.6875 Q863.9844,298.6875 864.6563,298.875 Q865.3281,299.0469 866.0156,299.3906 L865.2031,301.4063 Q864.5781,301.0938 864.0313,300.9688 Q863.5,300.8438 863.0156,300.8438 Q861.8438,300.8438 861.1406,301.375 Q860.4375,301.9063 860.1406,302.8594 Q859.8438,303.8125 859.8438,305.0781 Q859.8438,307.0938 860.5625,308.0625 Q861.2813,309.0156 862.875,309.0156 Q863.4688,309.0156 864.0938,308.8594 Q864.7188,308.7031 865.5469,308.3281 L865.5469,310.5469 Q864.8125,310.8594 864.0156,311.0156 Q863.2344,311.1719 862.4688,311.1719 Z "/><text fill="#000000" font-family="sans-serif" font-size="12" lengthAdjust="spacingAndGlyphs" textLength="0" x="879.5" y="309.656"/><line style="stroke: #A80036; stroke-width: 1.5;" x1="848.5" x2="881.5" y1="321" y2="321"/><text fill="#000000" font-family="sans-serif" font-size="11" lengthAdjust="spacingAndGlyphs" textLength="6" x="853.5" y="336.7589">...</text><line style="stroke: #A80036; stroke-width: 1.5;" x1="848.5" x2="881.5" y1="343.9819" y2="343.9819"/><!--MD5=[78cfd8bb77b59e5fc7b3eb20b1459b15]
class FileSystem\UserHome\.DOMOTIX.dati.unita_immob.unita1.unita1--><rect fill="#FEFECE" filter="url(#fiscunrb52l6f)" height="62.9819" id="FileSystem\UserHome\.DOMOTIX.dati.unita_immob.unita1.unita1" style="stroke: #A80036; stroke-width: 1.5;" width="65" x="326.5" y="166"/><ellipse cx="341.5" cy="182" fill="#ADD1B2" rx="11" ry="11" style="stroke: #A80036; stroke-width: 1.0;"/><path d="M341.4688,188.1719 Q339.7188,188.1719 338.5781,187.4375 Q337.4531,186.6875 336.8906,185.3438 Q336.3438,183.9844 336.3438,182.1875 Q336.3438,180.1563 337,178.7031 Q337.6563,177.25 338.9375,176.4688 Q340.2188,175.6875 342.0938,175.6875 Q342.9844,175.6875 343.6563,175.875 Q344.3281,176.0469 345.0156,176.3906 L344.2031,178.4063 Q343.5781,178.0938 343.0313,177.9688 Q342.5,177.8438 342.0156,177.8438 Q340.8438,177.8438 340.1406,178.375 Q339.4375,178.9063 339.1406,179.8594 Q338.8438,180.8125 338.8438,182.0781 Q338.8438,184.0938 339.5625,185.0625 Q340.2813,186.0156 341.875,186.0156 Q342.4688,186.0156 343.0938,185.8594 Q343.7188,185.7031 344.5469,185.3281 L344.5469,187.5469 Q343.8125,187.8594 343.0156,188.0156 Q342.2344,188.1719 341.4688,188.1719 Z "/><text fill="#000000" font-family="sans-serif" font-size="12" lengthAdjust="spacingAndGlyphs" textLength="33" x="355.5" y="186.656">unita1</text><line style="stroke: #A80036; stroke-width: 1.5;" x1="327.5" x2="390.5" y1="198" y2="198"/><text fill="#000000" font-family="sans-serif" font-size="11" lengthAdjust="spacingAndGlyphs" textLength="20" x="332.5" y="213.7589">XML</text><line style="stroke: #A80036; stroke-width: 1.5;" x1="327.5" x2="390.5" y1="220.9819" y2="220.9819"/><!--MD5=[2cba44b122d11498e61862eef4c3db49]
class FileSystem\UserHome\.DOMOTIX.dati.unita_immob.unita1.stanze.stanza1--><rect fill="#FEFECE" filter="url(#fiscunrb52l6f)" height="62.9819" id="FileSystem\UserHome\.DOMOTIX.dati.unita_immob.unita1.stanze.stanza1" style="stroke: #A80036; stroke-width: 1.5;" width="71" x="621.5" y="166"/><ellipse cx="636.5" cy="182" fill="#ADD1B2" rx="11" ry="11" style="stroke: #A80036; stroke-width: 1.0;"/><path d="M636.4688,188.1719 Q634.7188,188.1719 633.5781,187.4375 Q632.4531,186.6875 631.8906,185.3438 Q631.3438,183.9844 631.3438,182.1875 Q631.3438,180.1563 632,178.7031 Q632.6563,177.25 633.9375,176.4688 Q635.2188,175.6875 637.0938,175.6875 Q637.9844,175.6875 638.6563,175.875 Q639.3281,176.0469 640.0156,176.3906 L639.2031,178.4063 Q638.5781,178.0938 638.0313,177.9688 Q637.5,177.8438 637.0156,177.8438 Q635.8438,177.8438 635.1406,178.375 Q634.4375,178.9063 634.1406,179.8594 Q633.8438,180.8125 633.8438,182.0781 Q633.8438,184.0938 634.5625,185.0625 Q635.2813,186.0156 636.875,186.0156 Q637.4688,186.0156 638.0938,185.8594 Q638.7188,185.7031 639.5469,185.3281 L639.5469,187.5469 Q638.8125,187.8594 638.0156,188.0156 Q637.2344,188.1719 636.4688,188.1719 Z "/><text fill="#000000" font-family="sans-serif" font-size="12" lengthAdjust="spacingAndGlyphs" textLength="39" x="650.5" y="186.656">stanza1</text><line style="stroke: #A80036; stroke-width: 1.5;" x1="622.5" x2="691.5" y1="198" y2="198"/><text fill="#000000" font-family="sans-serif" font-size="11" lengthAdjust="spacingAndGlyphs" textLength="20" x="627.5" y="213.7589">XML</text><line style="stroke: #A80036; stroke-width: 1.5;" x1="622.5" x2="691.5" y1="220.9819" y2="220.9819"/><!--MD5=[1251ed9bc0f1732ba70754c442a225d4]
class FileSystem\UserHome\.DOMOTIX.dati.unita_immob.unita1.stanze.stanza2--><rect fill="#FEFECE" filter="url(#fiscunrb52l6f)" height="62.9819" id="FileSystem\UserHome\.DOMOTIX.dati.unita_immob.unita1.stanze.stanza2" style="stroke: #A80036; stroke-width: 1.5;" width="71" x="727.5" y="166"/><ellipse cx="742.5" cy="182" fill="#ADD1B2" rx="11" ry="11" style="stroke: #A80036; stroke-width: 1.0;"/><path d="M742.4688,188.1719 Q740.7188,188.1719 739.5781,187.4375 Q738.4531,186.6875 737.8906,185.3438 Q737.3438,183.9844 737.3438,182.1875 Q737.3438,180.1563 738,178.7031 Q738.6563,177.25 739.9375,176.4688 Q741.2188,175.6875 743.0938,175.6875 Q743.9844,175.6875 744.6563,175.875 Q745.3281,176.0469 746.0156,176.3906 L745.2031,178.4063 Q744.5781,178.0938 744.0313,177.9688 Q743.5,177.8438 743.0156,177.8438 Q741.8438,177.8438 741.1406,178.375 Q740.4375,178.9063 740.1406,179.8594 Q739.8438,180.8125 739.8438,182.0781 Q739.8438,184.0938 740.5625,185.0625 Q741.2813,186.0156 742.875,186.0156 Q743.4688,186.0156 744.0938,185.8594 Q744.7188,185.7031 745.5469,185.3281 L745.5469,187.5469 Q744.8125,187.8594 744.0156,188.0156 Q743.2344,188.1719 742.4688,188.1719 Z "/><text fill="#000000" font-family="sans-serif" font-size="12" lengthAdjust="spacingAndGlyphs" textLength="39" x="756.5" y="186.656">stanza2</text><line style="stroke: #A80036; stroke-width: 1.5;" x1="728.5" x2="797.5" y1="198" y2="198"/><text fill="#000000" font-family="sans-serif" font-size="11" lengthAdjust="spacingAndGlyphs" textLength="20" x="733.5" y="213.7589">XML</text><line style="stroke: #A80036; stroke-width: 1.5;" x1="728.5" x2="797.5" y1="220.9819" y2="220.9819"/><!--MD5=[05a2219b780067434ed8c7c73d5ff16f]
class FileSystem\UserHome\.DOMOTIX.dati.unita_immob.unita1.stanze.--><rect fill="#FEFECE" filter="url(#fiscunrb52l6f)" height="62.9819" id="FileSystem\UserHome\.DOMOTIX.dati.unita_immob.unita1.stanze." style="stroke: #A80036; stroke-width: 1.5;" width="35" x="639.5" y="289"/><ellipse cx="654.5" cy="305" fill="#ADD1B2" rx="11" ry="11" style="stroke: #A80036; stroke-width: 1.0;"/><path d="M654.4688,311.1719 Q652.7188,311.1719 651.5781,310.4375 Q650.4531,309.6875 649.8906,308.3438 Q649.3438,306.9844 649.3438,305.1875 Q649.3438,303.1563 650,301.7031 Q650.6563,300.25 651.9375,299.4688 Q653.2188,298.6875 655.0938,298.6875 Q655.9844,298.6875 656.6563,298.875 Q657.3281,299.0469 658.0156,299.3906 L657.2031,301.4063 Q656.5781,301.0938 656.0313,300.9688 Q655.5,300.8438 655.0156,300.8438 Q653.8438,300.8438 653.1406,301.375 Q652.4375,301.9063 652.1406,302.8594 Q651.8438,303.8125 651.8438,305.0781 Q651.8438,307.0938 652.5625,308.0625 Q653.2813,309.0156 654.875,309.0156 Q655.4688,309.0156 656.0938,308.8594 Q656.7188,308.7031 657.5469,308.3281 L657.5469,310.5469 Q656.8125,310.8594 656.0156,311.0156 Q655.2344,311.1719 654.4688,311.1719 Z "/><text fill="#000000" font-family="sans-serif" font-size="12" lengthAdjust="spacingAndGlyphs" textLength="0" x="671.5" y="309.656"/><line style="stroke: #A80036; stroke-width: 1.5;" x1="640.5" x2="673.5" y1="321" y2="321"/><text fill="#000000" font-family="sans-serif" font-size="11" lengthAdjust="spacingAndGlyphs" textLength="6" x="645.5" y="336.7589">...</text><line style="stroke: #A80036; stroke-width: 1.5;" x1="640.5" x2="673.5" y1="343.9819" y2="343.9819"/><!--MD5=[cf106372dbc621b2f23eac677f4a7b12]
class FileSystem\UserHome\.DOMOTIX.dati.unita_immob.unita1.artefatti.artef1--><rect fill="#FEFECE" filter="url(#fiscunrb52l6f)" height="62.9819" id="FileSystem\UserHome\.DOMOTIX.dati.unita_immob.unita1.artefatti.artef1" style="stroke: #A80036; stroke-width: 1.5;" width="62" x="427" y="166"/><ellipse cx="442" cy="182" fill="#ADD1B2" rx="11" ry="11" style="stroke: #A80036; stroke-width: 1.0;"/><path d="M441.9688,188.1719 Q440.2188,188.1719 439.0781,187.4375 Q437.9531,186.6875 437.3906,185.3438 Q436.8438,183.9844 436.8438,182.1875 Q436.8438,180.1563 437.5,178.7031 Q438.1563,177.25 439.4375,176.4688 Q440.7188,175.6875 442.5938,175.6875 Q443.4844,175.6875 444.1563,175.875 Q444.8281,176.0469 445.5156,176.3906 L444.7031,178.4063 Q444.0781,178.0938 443.5313,177.9688 Q443,177.8438 442.5156,177.8438 Q441.3438,177.8438 440.6406,178.375 Q439.9375,178.9063 439.6406,179.8594 Q439.3438,180.8125 439.3438,182.0781 Q439.3438,184.0938 440.0625,185.0625 Q440.7813,186.0156 442.375,186.0156 Q442.9688,186.0156 443.5938,185.8594 Q444.2188,185.7031 445.0469,185.3281 L445.0469,187.5469 Q444.3125,187.8594 443.5156,188.0156 Q442.7344,188.1719 441.9688,188.1719 Z "/><text fill="#000000" font-family="sans-serif" font-size="12" lengthAdjust="spacingAndGlyphs" textLength="30" x="456" y="186.656">artef1</text><line style="stroke: #A80036; stroke-width: 1.5;" x1="428" x2="488" y1="198" y2="198"/><text fill="#000000" font-family="sans-serif" font-size="11" lengthAdjust="spacingAndGlyphs" textLength="20" x="433" y="213.7589">XML</text><line style="stroke: #A80036; stroke-width: 1.5;" x1="428" x2="488" y1="220.9819" y2="220.9819"/><!--MD5=[58c83b3a9da54d9869ca2f945913e5c9]
class FileSystem\UserHome\.DOMOTIX.dati.unita_immob.unita1.artefatti.artef2--><rect fill="#FEFECE" filter="url(#fiscunrb52l6f)" height="62.9819" id="FileSystem\UserHome\.DOMOTIX.dati.unita_immob.unita1.artefatti.artef2" style="stroke: #A80036; stroke-width: 1.5;" width="62" x="524" y="166"/><ellipse cx="539" cy="182" fill="#ADD1B2" rx="11" ry="11" style="stroke: #A80036; stroke-width: 1.0;"/><path d="M538.9688,188.1719 Q537.2188,188.1719 536.0781,187.4375 Q534.9531,186.6875 534.3906,185.3438 Q533.8438,183.9844 533.8438,182.1875 Q533.8438,180.1563 534.5,178.7031 Q535.1563,177.25 536.4375,176.4688 Q537.7188,175.6875 539.5938,175.6875 Q540.4844,175.6875 541.1563,175.875 Q541.8281,176.0469 542.5156,176.3906 L541.7031,178.4063 Q541.0781,178.0938 540.5313,177.9688 Q540,177.8438 539.5156,177.8438 Q538.3438,177.8438 537.6406,178.375 Q536.9375,178.9063 536.6406,179.8594 Q536.3438,180.8125 536.3438,182.0781 Q536.3438,184.0938 537.0625,185.0625 Q537.7813,186.0156 539.375,186.0156 Q539.9688,186.0156 540.5938,185.8594 Q541.2188,185.7031 542.0469,185.3281 L542.0469,187.5469 Q541.3125,187.8594 540.5156,188.0156 Q539.7344,188.1719 538.9688,188.1719 Z "/><text fill="#000000" font-family="sans-serif" font-size="12" lengthAdjust="spacingAndGlyphs" textLength="30" x="553" y="186.656">artef2</text><line style="stroke: #A80036; stroke-width: 1.5;" x1="525" x2="585" y1="198" y2="198"/><text fill="#000000" font-family="sans-serif" font-size="11" lengthAdjust="spacingAndGlyphs" textLength="20" x="530" y="213.7589">XML</text><line style="stroke: #A80036; stroke-width: 1.5;" x1="525" x2="585" y1="220.9819" y2="220.9819"/><!--MD5=[dc49d3248c8367230ec6aa3831b721ad]
class FileSystem\UserHome\.DOMOTIX.dati.unita_immob.unita1.artefatti.--><rect fill="#FEFECE" filter="url(#fiscunrb52l6f)" height="62.9819" id="FileSystem\UserHome\.DOMOTIX.dati.unita_immob.unita1.artefatti." style="stroke: #A80036; stroke-width: 1.5;" width="35" x="440.5" y="289"/><ellipse cx="455.5" cy="305" fill="#ADD1B2" rx="11" ry="11" style="stroke: #A80036; stroke-width: 1.0;"/><path d="M455.4688,311.1719 Q453.7188,311.1719 452.5781,310.4375 Q451.4531,309.6875 450.8906,308.3438 Q450.3438,306.9844 450.3438,305.1875 Q450.3438,303.1563 451,301.7031 Q451.6563,300.25 452.9375,299.4688 Q454.2188,298.6875 456.0938,298.6875 Q456.9844,298.6875 457.6563,298.875 Q458.3281,299.0469 459.0156,299.3906 L458.2031,301.4063 Q457.5781,301.0938 457.0313,300.9688 Q456.5,300.8438 456.0156,300.8438 Q454.8438,300.8438 454.1406,301.375 Q453.4375,301.9063 453.1406,302.8594 Q452.8438,303.8125 452.8438,305.0781 Q452.8438,307.0938 453.5625,308.0625 Q454.2813,309.0156 455.875,309.0156 Q456.4688,309.0156 457.0938,308.8594 Q457.7188,308.7031 458.5469,308.3281 L458.5469,310.5469 Q457.8125,310.8594 457.0156,311.0156 Q456.2344,311.1719 455.4688,311.1719 Z "/><text fill="#000000" font-family="sans-serif" font-size="12" lengthAdjust="spacingAndGlyphs" textLength="0" x="472.5" y="309.656"/><line style="stroke: #A80036; stroke-width: 1.5;" x1="441.5" x2="474.5" y1="321" y2="321"/><text fill="#000000" font-family="sans-serif" font-size="11" lengthAdjust="spacingAndGlyphs" textLength="6" x="446.5" y="336.7589">...</text><line style="stroke: #A80036; stroke-width: 1.5;" x1="441.5" x2="474.5" y1="343.9819" y2="343.9819"/><!--MD5=[b3ba491725a35fe05bbeda74609ce084]
class unita....--><rect fill="#FEFECE" filter="url(#fiscunrb52l6f)" height="62.9819" id="unita...." style="stroke: #A80036; stroke-width: 1.5;" width="35" x="256.5" y="166"/><ellipse cx="271.5" cy="182" fill="#ADD1B2" rx="11" ry="11" style="stroke: #A80036; stroke-width: 1.0;"/><path d="M271.4688,188.1719 Q269.7188,188.1719 268.5781,187.4375 Q267.4531,186.6875 266.8906,185.3438 Q266.3438,183.9844 266.3438,182.1875 Q266.3438,180.1563 267,178.7031 Q267.6563,177.25 268.9375,176.4688 Q270.2188,175.6875 272.0938,175.6875 Q272.9844,175.6875 273.6563,175.875 Q274.3281,176.0469 275.0156,176.3906 L274.2031,178.4063 Q273.5781,178.0938 273.0313,177.9688 Q272.5,177.8438 272.0156,177.8438 Q270.8438,177.8438 270.1406,178.375 Q269.4375,178.9063 269.1406,179.8594 Q268.8438,180.8125 268.8438,182.0781 Q268.8438,184.0938 269.5625,185.0625 Q270.2813,186.0156 271.875,186.0156 Q272.4688,186.0156 273.0938,185.8594 Q273.7188,185.7031 274.5469,185.3281 L274.5469,187.5469 Q273.8125,187.8594 273.0156,188.0156 Q272.2344,188.1719 271.4688,188.1719 Z "/><text fill="#000000" font-family="sans-serif" font-size="12" lengthAdjust="spacingAndGlyphs" textLength="0" x="288.5" y="186.656"/><line style="stroke: #A80036; stroke-width: 1.5;" x1="257.5" x2="290.5" y1="198" y2="198"/><text fill="#000000" font-family="sans-serif" font-size="11" lengthAdjust="spacingAndGlyphs" textLength="6" x="262.5" y="213.7589">...</text><line style="stroke: #A80036; stroke-width: 1.5;" x1="257.5" x2="290.5" y1="220.9819" y2="220.9819"/><polygon fill="#FFFFFF" filter="url(#fiscunrb52l6f)" points="158.5,168.5,207.5,168.5,214.5,193.5679,221.5,193.5679,221.5,226.6358,158.5,226.6358,158.5,168.5" style="stroke: #000000; stroke-width: 1.5;"/><line style="stroke: #000000; stroke-width: 1.5;" x1="158.5" x2="214.5" y1="193.5679" y2="193.5679"/><text fill="#000000" font-family="sans-serif" font-size="14" font-weight="bold" lengthAdjust="spacingAndGlyphs" textLength="43" x="162.5" y="185.4659">stanze</text><polygon fill="#FFFFFF" filter="url(#fiscunrb52l6f)" points="46.5,168.5,109.5,168.5,116.5,193.5679,123.5,193.5679,123.5,226.6358,46.5,226.6358,46.5,168.5" style="stroke: #000000; stroke-width: 1.5;"/><line style="stroke: #000000; stroke-width: 1.5;" x1="46.5" x2="116.5" y1="193.5679" y2="193.5679"/><text fill="#000000" font-family="sans-serif" font-size="14" font-weight="bold" lengthAdjust="spacingAndGlyphs" textLength="57" x="50.5" y="185.4659">artefatti</text><!--MD5=[7439c31303bcd6d499150569dd61a17f]
link FileSystem\UserHome\.DOMOTIX.dati.sensori.sens1 to FileSystem\UserHome\.DOMOTIX.dati.sensori.sens2--><!--MD5=[116a237e4f3f3497adc173f117c42bff]
link FileSystem\UserHome\.DOMOTIX.dati.sensori.sens1 to FileSystem\UserHome\.DOMOTIX.dati.sensori.--><!--MD5=[f93f8f98e63d109b5a26e95ca86a67ef]
link FileSystem\UserHome\.DOMOTIX.dati.attuatori.att1 to FileSystem\UserHome\.DOMOTIX.dati.attuatori.att2--><!--MD5=[695461b35d6763c2b4f9652a5b9b0971]
link FileSystem\UserHome\.DOMOTIX.dati.attuatori.att1 to FileSystem\UserHome\.DOMOTIX.dati.attuatori.--><!--MD5=[24940305f3407e6dfa7baae9284b64da]
link FileSystem\UserHome\.DOMOTIX.dati.unita_immob.unita1.stanze.stanza1 to FileSystem\UserHome\.DOMOTIX.dati.unita_immob.unita1.stanze.stanza2--><!--MD5=[2aaf42a5d2fc09243ef345533048c51d]
link FileSystem\UserHome\.DOMOTIX.dati.unita_immob.unita1.stanze.stanza1 to FileSystem\UserHome\.DOMOTIX.dati.unita_immob.unita1.stanze.--><!--MD5=[7058869f3f828d6a64d1cd2eaf90d83c]
link FileSystem\UserHome\.DOMOTIX.dati.unita_immob.unita1.artefatti.artef1 to FileSystem\UserHome\.DOMOTIX.dati.unita_immob.unita1.artefatti.artef2--><!--MD5=[c33e7c8951dcac6385b2fde8597d703c]
link FileSystem\UserHome\.DOMOTIX.dati.unita_immob.unita1.artefatti.artef1 to FileSystem\UserHome\.DOMOTIX.dati.unita_immob.unita1.artefatti.--><!--MD5=[eb4b9c6fc2cad6ab1b66fc8c7f3360eb]
@startuml

namespace FileSystem\UserHome\.DOMOTIX {
    namespace dati {
        namespace categorie_sensori {
            namespace catSens1 {
                class catSens1 {
                    XML
                }
                namespace info_rilevabile {
                    class info1 {
                        XML
                    }
                    class FileSystem\UserHome\.DOMOTIX.dati.categorie_sensori.catSens1.info_rilevabile. {
                       ...
                    }
                }
            }
            namespace catSens... {
                class catSens.... {
                    ...
                }
                namespace info_rilevabile {
                    class catSens....info_rilevabile. {
                        ...
                    }
                }
            }
        }
        namespace categorie_attuatori {
            namespace catAtt1 {
                class catAtt1 {
                    XML
                }
                namespace modalita {
                    class mod1 {
                        XML
                    }
                    class . {
                        ...
                    }
                }
            }
            namespace catAtt... {
                class catAtt.... {
                    ...
                }
                namespace modalita {
                    class catAtt....modalita. {
                        ...
                    }
                }
            }
        }
        namespace sensori {
            class sens1 {
                XML
            }
            class sens2 {
                XML
            }
            class FileSystem\UserHome\.DOMOTIX.dati.sensori. {
                ...
            }
        }
        namespace attuatori {
            class att1 {
                XML
            }
            class att2 {
                XML
            }
            class FileSystem\UserHome\.DOMOTIX.dati.attuatori. {
                ...
            }
        }
        namespace unita_immob {
            namespace unita1 {
                class unita1 {
                    XML
                }
                namespace stanze {
                    class stanza1 {
                        XML
                    }
                    class stanza2 {
                        XML
                    }
                    class FileSystem\UserHome\.DOMOTIX.dati.unita_immob.unita1.stanze. {
                        ...
                    }
                }
                namespace artefatti {
                    class artef1 {
                        XML
                    }
                    class artef2 {
                        XML
                    }
                    class FileSystem\UserHome\.DOMOTIX.dati.unita_immob.unita1.artefatti. {
                        ...
                    }
                }
            }
            namespace unita... {
                class unita.... {
                    ...
                }
                namespace stanze {

                }
                namespace artefatti {

                }
            }
        }
    }
}

@enduml

PlantUML version 1.2019.11(Sun Sep 22 12:02:15 CEST 2019)
(GPL source distribution)
Java Runtime: OpenJDK Runtime Environment
JVM: OpenJDK 64-Bit Server VM
Java Version: 11.0.3+12-b304.10
Operating System: Linux
Default Encoding: UTF-8
Language: it
Country: IT
--></g></svg>