<?xml version="1.0" encoding="UTF-8" standalone="no"?><svg xmlns="http://www.w3.org/2000/svg" xmlns:xlink="http://www.w3.org/1999/xlink" contentScriptType="application/ecmascript" contentStyleType="text/css" height="477.6px" preserveAspectRatio="none" style="width:885px;height:477px;" version="1.1" viewBox="0 0 885 477" width="885.6px" zoomAndPan="magnify"><defs><filter height="300%" id="f17q8xabwgbpee" width="300%" x="-1" y="-1"><feGaussianBlur result="blurOut" stdDeviation="1.6"/><feColorMatrix in="blurOut" result="blurOut2" type="matrix" values="0 0 0 0 0 0 0 0 0 0 0 0 0 0 0 0 0 0 .4 0"/><feOffset dx="3.2" dy="3.2" in="blurOut2" result="blurOut3"/><feBlend in="SourceGraphic" in2="blurOut3" mode="normal"/></filter></defs><g><text fill="#000000" font-family="sans-serif" font-size="14.4" lengthAdjust="spacingAndGlyphs" text-decoration="underline" textLength="283.2" x="300.4" y="15.3935">DOMOTIX &gt; VIEW &gt; MENUS's Class Diagram</text><text fill="#000000" font-family="sans-serif" font-size="14.4" lengthAdjust="spacingAndGlyphs" textLength="0" x="443.6" y="35.0062"/><!--MD5=[a270aa123fc17553ce95095edea6af5c]
cluster src.domotix.view.menus--><polygon fill="#FFFFFF" filter="url(#f17q8xabwgbpee)" points="11.2,52.0254,142.4,52.0254,148,72.0797,856,72.0797,856,392.8254,11.2,392.8254,11.2,52.0254" style="stroke: #000000; stroke-width: 1.2000000000000002;"/><line style="stroke: #000000; stroke-width: 1.2000000000000002;" x1="11.2" x2="148" y1="72.0797" y2="72.0797"/><text fill="#000000" font-family="sans-serif" font-size="11.2" font-weight="bold" lengthAdjust="spacingAndGlyphs" textLength="126.4" x="14.4" y="65.5981">src.domotix.view.menus</text><!--MD5=[702d6a1548e6b03ca0dc4267e4e60920]
cluster src.domotix.view.menus.menuPrincipale--><polygon fill="#FFFFFF" filter="url(#f17q8xabwgbpee)" points="494.4,138.4254,583.2,138.4254,588.8,158.4797,750.4,158.4797,750.4,207.2254,494.4,207.2254,494.4,138.4254" style="stroke: #000000; stroke-width: 1.2000000000000002;"/><line style="stroke: #000000; stroke-width: 1.2000000000000002;" x1="494.4" x2="588.8" y1="158.4797" y2="158.4797"/><text fill="#000000" font-family="sans-serif" font-size="11.2" font-weight="bold" lengthAdjust="spacingAndGlyphs" textLength="84" x="497.6" y="151.9981">menuPrincipale</text><!--MD5=[171676647ca269d82cf939774b48600f]
cluster src.domotix.view.menus.menuCategorie--><polygon fill="#FFFFFF" filter="url(#f17q8xabwgbpee)" points="17.6,224.8254,104.8,224.8254,110.4,244.8797,645.6,244.8797,645.6,386.4254,17.6,386.4254,17.6,224.8254" style="stroke: #000000; stroke-width: 1.2000000000000002;"/><line style="stroke: #000000; stroke-width: 1.2000000000000002;" x1="17.6" x2="110.4" y1="244.8797" y2="244.8797"/><text fill="#000000" font-family="sans-serif" font-size="11.2" font-weight="bold" lengthAdjust="spacingAndGlyphs" textLength="82.4" x="20.8" y="238.3981">menuCategorie</text><!--MD5=[6a896d3fff213cf3ec0a828c16557f16]
cluster src.domotix.view.menus.menuCategorie.sensori--><polygon fill="#FFFFFF" filter="url(#f17q8xabwgbpee)" points="24,311.2254,66.4,311.2254,72,331.2797,317.6,331.2797,317.6,380.0254,24,380.0254,24,311.2254" style="stroke: #000000; stroke-width: 1.2000000000000002;"/><line style="stroke: #000000; stroke-width: 1.2000000000000002;" x1="24" x2="72" y1="331.2797" y2="331.2797"/><text fill="#000000" font-family="sans-serif" font-size="11.2" font-weight="bold" lengthAdjust="spacingAndGlyphs" textLength="37.6" x="27.2" y="324.7981">sensori</text><!--MD5=[2b248cac9c74822cda29090c02a6afec]
cluster src.domotix.view.menus.menuCategorie.attuatori--><polygon fill="#FFFFFF" filter="url(#f17q8xabwgbpee)" points="332.8,311.2254,386.4,311.2254,392,331.2797,639.2,331.2797,639.2,380.0254,332.8,380.0254,332.8,311.2254" style="stroke: #000000; stroke-width: 1.2000000000000002;"/><line style="stroke: #000000; stroke-width: 1.2000000000000002;" x1="332.8" x2="392" y1="331.2797" y2="331.2797"/><text fill="#000000" font-family="sans-serif" font-size="11.2" font-weight="bold" lengthAdjust="spacingAndGlyphs" textLength="48.8" x="336" y="324.7981">attuatori</text><!--MD5=[00517f9916d116c0c4ccaffe7c1b1d29]
cluster src.domotix.view.menus.menuUnita--><polygon fill="#FFFFFF" filter="url(#f17q8xabwgbpee)" points="652,224.8254,717.6,224.8254,723.2,244.8797,849.6,244.8797,849.6,293.6254,652,293.6254,652,224.8254" style="stroke: #000000; stroke-width: 1.2000000000000002;"/><line style="stroke: #000000; stroke-width: 1.2000000000000002;" x1="652" x2="723.2" y1="244.8797" y2="244.8797"/><text fill="#000000" font-family="sans-serif" font-size="11.2" font-weight="bold" lengthAdjust="spacingAndGlyphs" textLength="60.8" x="655.2" y="238.3981">menuUnita</text><!--MD5=[e3c3ae39643e55df7c1a0329eec479c9]
cluster src.domotix.controller--><polygon fill="#FFFFFF" filter="url(#f17q8xabwgbpee)" points="357.6,399.2254,479.2,399.2254,484.8,419.2797,558.4,419.2797,558.4,468.0254,357.6,468.0254,357.6,399.2254" style="stroke: #000000; stroke-width: 1.2000000000000002;"/><line style="stroke: #000000; stroke-width: 1.2000000000000002;" x1="357.6" x2="484.8" y1="419.2797" y2="419.2797"/><text fill="#000000" font-family="sans-serif" font-size="11.2" font-weight="bold" lengthAdjust="spacingAndGlyphs" textLength="116.8" x="360.8" y="412.7981">src.domotix.controller</text><!--MD5=[d765f0f202665bc0cdb39d41202479e1]
class src.domotix.view.menus.MenuErroreApertura--><rect fill="#FEFECE" filter="url(#f17q8xabwgbpee)" height="38.4" id="src.domotix.view.menus.MenuErroreApertura" style="stroke: #A80036; stroke-width: 1.2000000000000002;" width="110.4" x="739.2" y="76.0254"/><ellipse cx="751.2" cy="88.8254" fill="#ADD1B2" rx="8.8" ry="8.8" style="stroke: #A80036; stroke-width: 0.8;"/><path d="M751.175,93.7629 Q749.775,93.7629 748.8625,93.1754 Q747.9625,92.5754 747.5125,91.5004 Q747.075,90.4129 747.075,88.9754 Q747.075,87.3504 747.6,86.1879 Q748.125,85.0254 749.15,84.4004 Q750.175,83.7754 751.675,83.7754 Q752.3875,83.7754 752.925,83.9254 Q753.4625,84.0629 754.0125,84.3379 L753.3625,85.9504 Q752.8625,85.7004 752.425,85.6004 Q752,85.5004 751.6125,85.5004 Q750.675,85.5004 750.1125,85.9254 Q749.55,86.3504 749.3125,87.1129 Q749.075,87.8754 749.075,88.8879 Q749.075,90.5004 749.65,91.2754 Q750.225,92.0379 751.5,92.0379 Q751.975,92.0379 752.475,91.9129 Q752.975,91.7879 753.6375,91.4879 L753.6375,93.2629 Q753.05,93.5129 752.4125,93.6379 Q751.7875,93.7629 751.175,93.7629 Z "/><text fill="#000000" font-family="sans-serif" font-size="9.6" lengthAdjust="spacingAndGlyphs" textLength="84.8" x="762.4" y="92.5502">MenuErroreApertura</text><line style="stroke: #A80036; stroke-width: 1.2000000000000002;" x1="740" x2="848.8" y1="101.6254" y2="101.6254"/><line style="stroke: #A80036; stroke-width: 1.2000000000000002;" x1="740" x2="848.8" y1="108.0254" y2="108.0254"/><!--MD5=[74a852f54c2ea3d94783cf68fcd98a5c]
class src.domotix.view.menus.MenuErroreChiusura--><rect fill="#FEFECE" filter="url(#f17q8xabwgbpee)" height="38.4" id="src.domotix.view.menus.MenuErroreChiusura" style="stroke: #A80036; stroke-width: 1.2000000000000002;" width="111.2" x="599.6" y="76.0254"/><ellipse cx="611.6" cy="88.8254" fill="#ADD1B2" rx="8.8" ry="8.8" style="stroke: #A80036; stroke-width: 0.8;"/><path d="M611.575,93.7629 Q610.175,93.7629 609.2625,93.1754 Q608.3625,92.5754 607.9125,91.5004 Q607.475,90.4129 607.475,88.9754 Q607.475,87.3504 608,86.1879 Q608.525,85.0254 609.55,84.4004 Q610.575,83.7754 612.075,83.7754 Q612.7875,83.7754 613.325,83.9254 Q613.8625,84.0629 614.4125,84.3379 L613.7625,85.9504 Q613.2625,85.7004 612.825,85.6004 Q612.4,85.5004 612.0125,85.5004 Q611.075,85.5004 610.5125,85.9254 Q609.95,86.3504 609.7125,87.1129 Q609.475,87.8754 609.475,88.8879 Q609.475,90.5004 610.05,91.2754 Q610.625,92.0379 611.9,92.0379 Q612.375,92.0379 612.875,91.9129 Q613.375,91.7879 614.0375,91.4879 L614.0375,93.2629 Q613.45,93.5129 612.8125,93.6379 Q612.1875,93.7629 611.575,93.7629 Z "/><text fill="#000000" font-family="sans-serif" font-size="9.6" lengthAdjust="spacingAndGlyphs" textLength="85.6" x="622.8" y="92.5502">MenuErroreChiusura</text><line style="stroke: #A80036; stroke-width: 1.2000000000000002;" x1="600.4" x2="710" y1="101.6254" y2="101.6254"/><line style="stroke: #A80036; stroke-width: 1.2000000000000002;" x1="600.4" x2="710" y1="108.0254" y2="108.0254"/><!--MD5=[8bb34a89a0c35167d59833084f0b1bf8]
class src.domotix.view.menus.MenuLogin--><rect fill="#FEFECE" filter="url(#f17q8xabwgbpee)" height="38.4" id="src.domotix.view.menus.MenuLogin" style="stroke: #A80036; stroke-width: 1.2000000000000002;" width="73.6" x="497.6" y="76.0254"/><ellipse cx="509.6" cy="88.8254" fill="#ADD1B2" rx="8.8" ry="8.8" style="stroke: #A80036; stroke-width: 0.8;"/><path d="M509.575,93.7629 Q508.175,93.7629 507.2625,93.1754 Q506.3625,92.5754 505.9125,91.5004 Q505.475,90.4129 505.475,88.9754 Q505.475,87.3504 506,86.1879 Q506.525,85.0254 507.55,84.4004 Q508.575,83.7754 510.075,83.7754 Q510.7875,83.7754 511.325,83.9254 Q511.8625,84.0629 512.4125,84.3379 L511.7625,85.9504 Q511.2625,85.7004 510.825,85.6004 Q510.4,85.5004 510.0125,85.5004 Q509.075,85.5004 508.5125,85.9254 Q507.95,86.3504 507.7125,87.1129 Q507.475,87.8754 507.475,88.8879 Q507.475,90.5004 508.05,91.2754 Q508.625,92.0379 509.9,92.0379 Q510.375,92.0379 510.875,91.9129 Q511.375,91.7879 512.0375,91.4879 L512.0375,93.2629 Q511.45,93.5129 510.8125,93.6379 Q510.1875,93.7629 509.575,93.7629 Z "/><text fill="#000000" font-family="sans-serif" font-size="9.6" lengthAdjust="spacingAndGlyphs" textLength="48" x="520.8" y="92.5502">MenuLogin</text><line style="stroke: #A80036; stroke-width: 1.2000000000000002;" x1="498.4" x2="570.4" y1="101.6254" y2="101.6254"/><line style="stroke: #A80036; stroke-width: 1.2000000000000002;" x1="498.4" x2="570.4" y1="108.0254" y2="108.0254"/><!--MD5=[bbe7e59fe1154a8b05e9c081f104abcd]
class src.domotix.view.menus.menuPrincipale.MenuFruitore--><rect fill="#FEFECE" filter="url(#f17q8xabwgbpee)" height="38.4" id="src.domotix.view.menus.menuPrincipale.MenuFruitore" style="stroke: #A80036; stroke-width: 1.2000000000000002;" width="82.4" x="501.2" y="162.4254"/><ellipse cx="513.2" cy="175.2254" fill="#ADD1B2" rx="8.8" ry="8.8" style="stroke: #A80036; stroke-width: 0.8;"/><path d="M513.175,180.1629 Q511.775,180.1629 510.8625,179.5754 Q509.9625,178.9754 509.5125,177.9004 Q509.075,176.8129 509.075,175.3754 Q509.075,173.7504 509.6,172.5879 Q510.125,171.4254 511.15,170.8004 Q512.175,170.1754 513.675,170.1754 Q514.3875,170.1754 514.925,170.3254 Q515.4625,170.4629 516.0125,170.7379 L515.3625,172.3504 Q514.8625,172.1004 514.425,172.0004 Q514,171.9004 513.6125,171.9004 Q512.675,171.9004 512.1125,172.3254 Q511.55,172.7504 511.3125,173.5129 Q511.075,174.2754 511.075,175.2879 Q511.075,176.9004 511.65,177.6754 Q512.225,178.4379 513.5,178.4379 Q513.975,178.4379 514.475,178.3129 Q514.975,178.1879 515.6375,177.8879 L515.6375,179.6629 Q515.05,179.9129 514.4125,180.0379 Q513.7875,180.1629 513.175,180.1629 Z "/><text fill="#000000" font-family="sans-serif" font-size="9.6" lengthAdjust="spacingAndGlyphs" textLength="56.8" x="524.4" y="178.9502">MenuFruitore</text><line style="stroke: #A80036; stroke-width: 1.2000000000000002;" x1="502" x2="582.8" y1="188.0254" y2="188.0254"/><line style="stroke: #A80036; stroke-width: 1.2000000000000002;" x1="502" x2="582.8" y1="194.4254" y2="194.4254"/><!--MD5=[4905543d80e1cc424a16b65cdb0d5e21]
class src.domotix.view.menus.menuPrincipale.MenuManutentore--><rect fill="#FEFECE" filter="url(#f17q8xabwgbpee)" height="38.4" id="src.domotix.view.menus.menuPrincipale.MenuManutentore" style="stroke: #A80036; stroke-width: 1.2000000000000002;" width="104" x="612" y="162.4254"/><ellipse cx="624" cy="175.2254" fill="#ADD1B2" rx="8.8" ry="8.8" style="stroke: #A80036; stroke-width: 0.8;"/><path d="M623.975,180.1629 Q622.575,180.1629 621.6625,179.5754 Q620.7625,178.9754 620.3125,177.9004 Q619.875,176.8129 619.875,175.3754 Q619.875,173.7504 620.4,172.5879 Q620.925,171.4254 621.95,170.8004 Q622.975,170.1754 624.475,170.1754 Q625.1875,170.1754 625.725,170.3254 Q626.2625,170.4629 626.8125,170.7379 L626.1625,172.3504 Q625.6625,172.1004 625.225,172.0004 Q624.8,171.9004 624.4125,171.9004 Q623.475,171.9004 622.9125,172.3254 Q622.35,172.7504 622.1125,173.5129 Q621.875,174.2754 621.875,175.2879 Q621.875,176.9004 622.45,177.6754 Q623.025,178.4379 624.3,178.4379 Q624.775,178.4379 625.275,178.3129 Q625.775,178.1879 626.4375,177.8879 L626.4375,179.6629 Q625.85,179.9129 625.2125,180.0379 Q624.5875,180.1629 623.975,180.1629 Z "/><text fill="#000000" font-family="sans-serif" font-size="9.6" lengthAdjust="spacingAndGlyphs" textLength="78.4" x="635.2" y="178.9502">MenuManutentore</text><line style="stroke: #A80036; stroke-width: 1.2000000000000002;" x1="612.8" x2="715.2" y1="188.0254" y2="188.0254"/><line style="stroke: #A80036; stroke-width: 1.2000000000000002;" x1="612.8" x2="715.2" y1="194.4254" y2="194.4254"/><!--MD5=[662789c5b67dd3d996627064a0ee64d1]
class src.domotix.view.menus.menuCategorie.MenuCategorieF--><rect fill="#FEFECE" filter="url(#f17q8xabwgbpee)" height="38.4" id="src.domotix.view.menus.menuCategorie.MenuCategorieF" style="stroke: #A80036; stroke-width: 1.2000000000000002;" width="94.4" x="357.6" y="248.8254"/><ellipse cx="369.6" cy="261.6254" fill="#ADD1B2" rx="8.8" ry="8.8" style="stroke: #A80036; stroke-width: 0.8;"/><path d="M369.575,266.5629 Q368.175,266.5629 367.2625,265.9754 Q366.3625,265.3754 365.9125,264.3004 Q365.475,263.2129 365.475,261.7754 Q365.475,260.1504 366,258.9879 Q366.525,257.8254 367.55,257.2004 Q368.575,256.5754 370.075,256.5754 Q370.7875,256.5754 371.325,256.7254 Q371.8625,256.8629 372.4125,257.1379 L371.7625,258.7504 Q371.2625,258.5004 370.825,258.4004 Q370.4,258.3004 370.0125,258.3004 Q369.075,258.3004 368.5125,258.7254 Q367.95,259.1504 367.7125,259.9129 Q367.475,260.6754 367.475,261.6879 Q367.475,263.3004 368.05,264.0754 Q368.625,264.8379 369.9,264.8379 Q370.375,264.8379 370.875,264.7129 Q371.375,264.5879 372.0375,264.2879 L372.0375,266.0629 Q371.45,266.3129 370.8125,266.4379 Q370.1875,266.5629 369.575,266.5629 Z "/><text fill="#000000" font-family="sans-serif" font-size="9.6" lengthAdjust="spacingAndGlyphs" textLength="68.8" x="380.8" y="265.3502">MenuCategorieF</text><line style="stroke: #A80036; stroke-width: 1.2000000000000002;" x1="358.4" x2="451.2" y1="274.4254" y2="274.4254"/><line style="stroke: #A80036; stroke-width: 1.2000000000000002;" x1="358.4" x2="451.2" y1="280.8254" y2="280.8254"/><!--MD5=[932ef37b5d39d847f9f820a16bc10099]
class src.domotix.view.menus.menuCategorie.MenuCategorieM--><rect fill="#FEFECE" filter="url(#f17q8xabwgbpee)" height="38.4" id="src.domotix.view.menus.menuCategorie.MenuCategorieM" style="stroke: #A80036; stroke-width: 1.2000000000000002;" width="97.6" x="516.8" y="248.8254"/><ellipse cx="528.8" cy="261.6254" fill="#ADD1B2" rx="8.8" ry="8.8" style="stroke: #A80036; stroke-width: 0.8;"/><path d="M528.775,266.5629 Q527.375,266.5629 526.4625,265.9754 Q525.5625,265.3754 525.1125,264.3004 Q524.675,263.2129 524.675,261.7754 Q524.675,260.1504 525.2,258.9879 Q525.725,257.8254 526.75,257.2004 Q527.775,256.5754 529.275,256.5754 Q529.9875,256.5754 530.525,256.7254 Q531.0625,256.8629 531.6125,257.1379 L530.9625,258.7504 Q530.4625,258.5004 530.025,258.4004 Q529.6,258.3004 529.2125,258.3004 Q528.275,258.3004 527.7125,258.7254 Q527.15,259.1504 526.9125,259.9129 Q526.675,260.6754 526.675,261.6879 Q526.675,263.3004 527.25,264.0754 Q527.825,264.8379 529.1,264.8379 Q529.575,264.8379 530.075,264.7129 Q530.575,264.5879 531.2375,264.2879 L531.2375,266.0629 Q530.65,266.3129 530.0125,266.4379 Q529.3875,266.5629 528.775,266.5629 Z "/><text fill="#000000" font-family="sans-serif" font-size="9.6" lengthAdjust="spacingAndGlyphs" textLength="72" x="540" y="265.3502">MenuCategorieM</text><line style="stroke: #A80036; stroke-width: 1.2000000000000002;" x1="517.6" x2="613.6" y1="274.4254" y2="274.4254"/><line style="stroke: #A80036; stroke-width: 1.2000000000000002;" x1="517.6" x2="613.6" y1="280.8254" y2="280.8254"/><!--MD5=[d074c1aade7a95907f079a2c2f1577f1]
class src.domotix.view.menus.menuCategorie.sensori.MenuCategorieSensoriF--><rect fill="#FEFECE" filter="url(#f17q8xabwgbpee)" height="38.4" id="src.domotix.view.menus.menuCategorie.sensori.MenuCategorieSensoriF" style="stroke: #A80036; stroke-width: 1.2000000000000002;" width="124.8" x="30.4" y="335.2254"/><ellipse cx="42.4" cy="348.0254" fill="#ADD1B2" rx="8.8" ry="8.8" style="stroke: #A80036; stroke-width: 0.8;"/><path d="M42.375,352.9629 Q40.975,352.9629 40.0625,352.3754 Q39.1625,351.7754 38.7125,350.7004 Q38.275,349.6129 38.275,348.1754 Q38.275,346.5504 38.8,345.3879 Q39.325,344.2254 40.35,343.6004 Q41.375,342.9754 42.875,342.9754 Q43.5875,342.9754 44.125,343.1254 Q44.6625,343.2629 45.2125,343.5379 L44.5625,345.1504 Q44.0625,344.9004 43.625,344.8004 Q43.2,344.7004 42.8125,344.7004 Q41.875,344.7004 41.3125,345.1254 Q40.75,345.5504 40.5125,346.3129 Q40.275,347.0754 40.275,348.0879 Q40.275,349.7004 40.85,350.4754 Q41.425,351.2379 42.7,351.2379 Q43.175,351.2379 43.675,351.1129 Q44.175,350.9879 44.8375,350.6879 L44.8375,352.4629 Q44.25,352.7129 43.6125,352.8379 Q42.9875,352.9629 42.375,352.9629 Z "/><text fill="#000000" font-family="sans-serif" font-size="9.6" lengthAdjust="spacingAndGlyphs" textLength="99.2" x="53.6" y="351.7502">MenuCategorieSensoriF</text><line style="stroke: #A80036; stroke-width: 1.2000000000000002;" x1="31.2" x2="154.4" y1="360.8254" y2="360.8254"/><line style="stroke: #A80036; stroke-width: 1.2000000000000002;" x1="31.2" x2="154.4" y1="367.2254" y2="367.2254"/><!--MD5=[cedddc925446b37d7e67faa811ee66b3]
class src.domotix.view.menus.menuCategorie.sensori.MenuCategorieSensoriM--><rect fill="#FEFECE" filter="url(#f17q8xabwgbpee)" height="38.4" id="src.domotix.view.menus.menuCategorie.sensori.MenuCategorieSensoriM" style="stroke: #A80036; stroke-width: 1.2000000000000002;" width="128" x="183.2" y="335.2254"/><ellipse cx="195.2" cy="348.0254" fill="#ADD1B2" rx="8.8" ry="8.8" style="stroke: #A80036; stroke-width: 0.8;"/><path d="M195.175,352.9629 Q193.775,352.9629 192.8625,352.3754 Q191.9625,351.7754 191.5125,350.7004 Q191.075,349.6129 191.075,348.1754 Q191.075,346.5504 191.6,345.3879 Q192.125,344.2254 193.15,343.6004 Q194.175,342.9754 195.675,342.9754 Q196.3875,342.9754 196.925,343.1254 Q197.4625,343.2629 198.0125,343.5379 L197.3625,345.1504 Q196.8625,344.9004 196.425,344.8004 Q196,344.7004 195.6125,344.7004 Q194.675,344.7004 194.1125,345.1254 Q193.55,345.5504 193.3125,346.3129 Q193.075,347.0754 193.075,348.0879 Q193.075,349.7004 193.65,350.4754 Q194.225,351.2379 195.5,351.2379 Q195.975,351.2379 196.475,351.1129 Q196.975,350.9879 197.6375,350.6879 L197.6375,352.4629 Q197.05,352.7129 196.4125,352.8379 Q195.7875,352.9629 195.175,352.9629 Z "/><text fill="#000000" font-family="sans-serif" font-size="9.6" lengthAdjust="spacingAndGlyphs" textLength="102.4" x="206.4" y="351.7502">MenuCategorieSensoriM</text><line style="stroke: #A80036; stroke-width: 1.2000000000000002;" x1="184" x2="310.4" y1="360.8254" y2="360.8254"/><line style="stroke: #A80036; stroke-width: 1.2000000000000002;" x1="184" x2="310.4" y1="367.2254" y2="367.2254"/><!--MD5=[8ca41d897a1f36e0ec13ff146d9018bc]
class src.domotix.view.menus.menuCategorie.attuatori.MenuCategorieAttuatoriF--><rect fill="#FEFECE" filter="url(#f17q8xabwgbpee)" height="38.4" id="src.domotix.view.menus.menuCategorie.attuatori.MenuCategorieAttuatoriF" style="stroke: #A80036; stroke-width: 1.2000000000000002;" width="131.2" x="339.2" y="335.2254"/><ellipse cx="351.2" cy="348.0254" fill="#ADD1B2" rx="8.8" ry="8.8" style="stroke: #A80036; stroke-width: 0.8;"/><path d="M351.175,352.9629 Q349.775,352.9629 348.8625,352.3754 Q347.9625,351.7754 347.5125,350.7004 Q347.075,349.6129 347.075,348.1754 Q347.075,346.5504 347.6,345.3879 Q348.125,344.2254 349.15,343.6004 Q350.175,342.9754 351.675,342.9754 Q352.3875,342.9754 352.925,343.1254 Q353.4625,343.2629 354.0125,343.5379 L353.3625,345.1504 Q352.8625,344.9004 352.425,344.8004 Q352,344.7004 351.6125,344.7004 Q350.675,344.7004 350.1125,345.1254 Q349.55,345.5504 349.3125,346.3129 Q349.075,347.0754 349.075,348.0879 Q349.075,349.7004 349.65,350.4754 Q350.225,351.2379 351.5,351.2379 Q351.975,351.2379 352.475,351.1129 Q352.975,350.9879 353.6375,350.6879 L353.6375,352.4629 Q353.05,352.7129 352.4125,352.8379 Q351.7875,352.9629 351.175,352.9629 Z "/><text fill="#000000" font-family="sans-serif" font-size="9.6" lengthAdjust="spacingAndGlyphs" textLength="105.6" x="362.4" y="351.7502">MenuCategorieAttuatoriF</text><line style="stroke: #A80036; stroke-width: 1.2000000000000002;" x1="340" x2="469.6" y1="360.8254" y2="360.8254"/><line style="stroke: #A80036; stroke-width: 1.2000000000000002;" x1="340" x2="469.6" y1="367.2254" y2="367.2254"/><!--MD5=[0abc97df493079eea983bc81eafb0b86]
class src.domotix.view.menus.menuCategorie.attuatori.MenuCategorieAttuatoriM--><rect fill="#FEFECE" filter="url(#f17q8xabwgbpee)" height="38.4" id="src.domotix.view.menus.menuCategorie.attuatori.MenuCategorieAttuatoriM" style="stroke: #A80036; stroke-width: 1.2000000000000002;" width="134.4" x="498.4" y="335.2254"/><ellipse cx="510.4" cy="348.0254" fill="#ADD1B2" rx="8.8" ry="8.8" style="stroke: #A80036; stroke-width: 0.8;"/><path d="M510.375,352.9629 Q508.975,352.9629 508.0625,352.3754 Q507.1625,351.7754 506.7125,350.7004 Q506.275,349.6129 506.275,348.1754 Q506.275,346.5504 506.8,345.3879 Q507.325,344.2254 508.35,343.6004 Q509.375,342.9754 510.875,342.9754 Q511.5875,342.9754 512.125,343.1254 Q512.6625,343.2629 513.2125,343.5379 L512.5625,345.1504 Q512.0625,344.9004 511.625,344.8004 Q511.2,344.7004 510.8125,344.7004 Q509.875,344.7004 509.3125,345.1254 Q508.75,345.5504 508.5125,346.3129 Q508.275,347.0754 508.275,348.0879 Q508.275,349.7004 508.85,350.4754 Q509.425,351.2379 510.7,351.2379 Q511.175,351.2379 511.675,351.1129 Q512.175,350.9879 512.8375,350.6879 L512.8375,352.4629 Q512.25,352.7129 511.6125,352.8379 Q510.9875,352.9629 510.375,352.9629 Z "/><text fill="#000000" font-family="sans-serif" font-size="9.6" lengthAdjust="spacingAndGlyphs" textLength="108.8" x="521.6" y="351.7502">MenuCategorieAttuatoriM</text><line style="stroke: #A80036; stroke-width: 1.2000000000000002;" x1="499.2" x2="632" y1="360.8254" y2="360.8254"/><line style="stroke: #A80036; stroke-width: 1.2000000000000002;" x1="499.2" x2="632" y1="367.2254" y2="367.2254"/><!--MD5=[8b91a9f4208df7f50b8566189b12862a]
class src.domotix.view.menus.menuUnita.MenuUnitaM--><rect fill="#FEFECE" filter="url(#f17q8xabwgbpee)" height="38.4" id="src.domotix.view.menus.menuUnita.MenuUnitaM" style="stroke: #A80036; stroke-width: 1.2000000000000002;" width="80" x="763.2" y="248.8254"/><ellipse cx="775.2" cy="261.6254" fill="#ADD1B2" rx="8.8" ry="8.8" style="stroke: #A80036; stroke-width: 0.8;"/><path d="M775.175,266.5629 Q773.775,266.5629 772.8625,265.9754 Q771.9625,265.3754 771.5125,264.3004 Q771.075,263.2129 771.075,261.7754 Q771.075,260.1504 771.6,258.9879 Q772.125,257.8254 773.15,257.2004 Q774.175,256.5754 775.675,256.5754 Q776.3875,256.5754 776.925,256.7254 Q777.4625,256.8629 778.0125,257.1379 L777.3625,258.7504 Q776.8625,258.5004 776.425,258.4004 Q776,258.3004 775.6125,258.3004 Q774.675,258.3004 774.1125,258.7254 Q773.55,259.1504 773.3125,259.9129 Q773.075,260.6754 773.075,261.6879 Q773.075,263.3004 773.65,264.0754 Q774.225,264.8379 775.5,264.8379 Q775.975,264.8379 776.475,264.7129 Q776.975,264.5879 777.6375,264.2879 L777.6375,266.0629 Q777.05,266.3129 776.4125,266.4379 Q775.7875,266.5629 775.175,266.5629 Z "/><text fill="#000000" font-family="sans-serif" font-size="9.6" lengthAdjust="spacingAndGlyphs" textLength="54.4" x="786.4" y="265.3502">MenuUnitaM</text><line style="stroke: #A80036; stroke-width: 1.2000000000000002;" x1="764" x2="842.4" y1="274.4254" y2="274.4254"/><line style="stroke: #A80036; stroke-width: 1.2000000000000002;" x1="764" x2="842.4" y1="280.8254" y2="280.8254"/><!--MD5=[a0f93abaebba79ab0a8d6b7c582b424a]
class src.domotix.view.menus.menuUnita.MenuUnitaF--><rect fill="#FEFECE" filter="url(#f17q8xabwgbpee)" height="38.4" id="src.domotix.view.menus.menuUnita.MenuUnitaF" style="stroke: #A80036; stroke-width: 1.2000000000000002;" width="76.8" x="658.4" y="248.8254"/><ellipse cx="670.4" cy="261.6254" fill="#ADD1B2" rx="8.8" ry="8.8" style="stroke: #A80036; stroke-width: 0.8;"/><path d="M670.375,266.5629 Q668.975,266.5629 668.0625,265.9754 Q667.1625,265.3754 666.7125,264.3004 Q666.275,263.2129 666.275,261.7754 Q666.275,260.1504 666.8,258.9879 Q667.325,257.8254 668.35,257.2004 Q669.375,256.5754 670.875,256.5754 Q671.5875,256.5754 672.125,256.7254 Q672.6625,256.8629 673.2125,257.1379 L672.5625,258.7504 Q672.0625,258.5004 671.625,258.4004 Q671.2,258.3004 670.8125,258.3004 Q669.875,258.3004 669.3125,258.7254 Q668.75,259.1504 668.5125,259.9129 Q668.275,260.6754 668.275,261.6879 Q668.275,263.3004 668.85,264.0754 Q669.425,264.8379 670.7,264.8379 Q671.175,264.8379 671.675,264.7129 Q672.175,264.5879 672.8375,264.2879 L672.8375,266.0629 Q672.25,266.3129 671.6125,266.4379 Q670.9875,266.5629 670.375,266.5629 Z "/><text fill="#000000" font-family="sans-serif" font-size="9.6" lengthAdjust="spacingAndGlyphs" textLength="51.2" x="681.6" y="265.3502">MenuUnitaF</text><line style="stroke: #A80036; stroke-width: 1.2000000000000002;" x1="659.2" x2="734.4" y1="274.4254" y2="274.4254"/><line style="stroke: #A80036; stroke-width: 1.2000000000000002;" x1="659.2" x2="734.4" y1="280.8254" y2="280.8254"/><!--MD5=[b71e28d46693838dc5614a2818178488]
class src.domotix.controller.Modificatore--><rect fill="#FEFECE" filter="url(#f17q8xabwgbpee)" height="38.4" id="src.domotix.controller.Modificatore" style="stroke: #A80036; stroke-width: 1.2000000000000002;" width="78.4" x="473.6" y="423.2254"/><ellipse cx="485.6" cy="436.0254" fill="#ADD1B2" rx="8.8" ry="8.8" style="stroke: #A80036; stroke-width: 0.8;"/><path d="M485.575,440.9629 Q484.175,440.9629 483.2625,440.3754 Q482.3625,439.7754 481.9125,438.7004 Q481.475,437.6129 481.475,436.1754 Q481.475,434.5504 482,433.3879 Q482.525,432.2254 483.55,431.6004 Q484.575,430.9754 486.075,430.9754 Q486.7875,430.9754 487.325,431.1254 Q487.8625,431.2629 488.4125,431.5379 L487.7625,433.1504 Q487.2625,432.9004 486.825,432.8004 Q486.4,432.7004 486.0125,432.7004 Q485.075,432.7004 484.5125,433.1254 Q483.95,433.5504 483.7125,434.3129 Q483.475,435.0754 483.475,436.0879 Q483.475,437.7004 484.05,438.4754 Q484.625,439.2379 485.9,439.2379 Q486.375,439.2379 486.875,439.1129 Q487.375,438.9879 488.0375,438.6879 L488.0375,440.4629 Q487.45,440.7129 486.8125,440.8379 Q486.1875,440.9629 485.575,440.9629 Z "/><text fill="#000000" font-family="sans-serif" font-size="9.6" lengthAdjust="spacingAndGlyphs" textLength="52.8" x="496.8" y="439.7502">Modificatore</text><line style="stroke: #A80036; stroke-width: 1.2000000000000002;" x1="474.4" x2="551.2" y1="448.8254" y2="448.8254"/><line style="stroke: #A80036; stroke-width: 1.2000000000000002;" x1="474.4" x2="551.2" y1="455.2254" y2="455.2254"/><!--MD5=[19e62dc1491eac9c9a34efd24892529b]
class src.domotix.controller.Recuperatore--><rect fill="#FEFECE" filter="url(#f17q8xabwgbpee)" height="38.4" id="src.domotix.controller.Recuperatore" style="stroke: #A80036; stroke-width: 1.2000000000000002;" width="80.8" x="364.4" y="423.2254"/><ellipse cx="376.4" cy="436.0254" fill="#ADD1B2" rx="8.8" ry="8.8" style="stroke: #A80036; stroke-width: 0.8;"/><path d="M376.375,440.9629 Q374.975,440.9629 374.0625,440.3754 Q373.1625,439.7754 372.7125,438.7004 Q372.275,437.6129 372.275,436.1754 Q372.275,434.5504 372.8,433.3879 Q373.325,432.2254 374.35,431.6004 Q375.375,430.9754 376.875,430.9754 Q377.5875,430.9754 378.125,431.1254 Q378.6625,431.2629 379.2125,431.5379 L378.5625,433.1504 Q378.0625,432.9004 377.625,432.8004 Q377.2,432.7004 376.8125,432.7004 Q375.875,432.7004 375.3125,433.1254 Q374.75,433.5504 374.5125,434.3129 Q374.275,435.0754 374.275,436.0879 Q374.275,437.7004 374.85,438.4754 Q375.425,439.2379 376.7,439.2379 Q377.175,439.2379 377.675,439.1129 Q378.175,438.9879 378.8375,438.6879 L378.8375,440.4629 Q378.25,440.7129 377.6125,440.8379 Q376.9875,440.9629 376.375,440.9629 Z "/><text fill="#000000" font-family="sans-serif" font-size="9.6" lengthAdjust="spacingAndGlyphs" textLength="55.2" x="387.6" y="439.7502">Recuperatore</text><line style="stroke: #A80036; stroke-width: 1.2000000000000002;" x1="365.2" x2="444.4" y1="448.8254" y2="448.8254"/><line style="stroke: #A80036; stroke-width: 1.2000000000000002;" x1="365.2" x2="444.4" y1="455.2254" y2="455.2254"/><!--MD5=[9367247a66981bc82ef2aa62a3c03f0c]
link src.domotix.view.menus.MenuLogin to src.domotix.view.menus.menuPrincipale--><path d="M571.3162,110.0349 C576.0774,111.6586 580.923,113.1736 585.6,114.4254 C617.1078,122.8581 640.9938,118.1657 663.1598,116.7113 C674.2428,115.9841 684.8958,116.0664 695.8566,119.0036 C701.337,120.4722 706.8944,122.6545 712.6208,125.8063 C715.4841,127.3821 718.3896,129.2004 721.349,131.2929 C722.8286,132.3391 724.3218,133.454 725.8298,134.6414 C726.5838,135.2351 727.3415,135.847 728.1032,136.4775 C728.484,136.7927 728.8658,137.1126 729.2486,137.4372 C729.44,137.5995 729.6316,137.763 729.8235,137.9277 " fill="none" id="src.domotix.view.menus.MenuLogin-&gt;src.domotix.view.menus.menuPrincipale" style="stroke: #A80036; stroke-width: 0.8;"/><polygon fill="#A80036" points="729.8235,137.9277,726.4437,130.8104,726.7881,135.3227,722.2757,135.6671,729.8235,137.9277" style="stroke: #A80036; stroke-width: 0.8;"/><!--MD5=[9bba50c7fc893cc97814f952c50d2049]
link src.domotix.view.menus.menuPrincipale.MenuManutentore to src.domotix.view.menus.menuUnita.MenuUnitaM--><path d="M706.5597,200.8975 C720.6156,207.8367 736.1009,216.118 749.6,224.8254 C759.3501,231.1145 769.4133,238.846 778.15,246.0216 " fill="none" id="src.domotix.view.menus.menuPrincipale.MenuManutentore-&gt;src.domotix.view.menus.menuUnita.MenuUnitaM" style="stroke: #A80036; stroke-width: 0.8;"/><polygon fill="#A80036" points="781.3057,248.6364,777.8032,241.5786,778.2256,246.0843,773.7199,246.5067,781.3057,248.6364" style="stroke: #A80036; stroke-width: 0.8;"/><!--MD5=[7a90fc7d5210bee4f2c3f91586b7e550]
link src.domotix.view.menus.menuPrincipale.MenuFruitore to src.domotix.view.menus.menuUnita.MenuUnitaF--><path d="M582.5526,200.9326 C587.58,203.1466 592.6824,205.2978 597.6,207.2254 C621.259,216.4992 630.205,211.759 652,224.8254 C661.2438,230.3672 670.0858,238.1491 677.4356,245.5842 " fill="none" id="src.domotix.view.menus.menuPrincipale.MenuFruitore-&gt;src.domotix.view.menus.menuUnita.MenuUnitaF" style="stroke: #A80036; stroke-width: 0.8;"/><polygon fill="#A80036" points="680.491,248.7418,677.7838,241.3423,677.7094,245.8672,673.1846,245.7928,680.491,248.7418" style="stroke: #A80036; stroke-width: 0.8;"/><!--MD5=[1d0c6aa5c73d46b02aaf008636991521]
link src.domotix.view.menus.menuPrincipale.MenuManutentore to src.domotix.view.menus.menuCategorie.MenuCategorieM--><path d="M641.9171,201.0152 C626.7243,214.3553 606.5145,232.1005 590.7088,245.9786 " fill="none" id="src.domotix.view.menus.menuPrincipale.MenuManutentore-&gt;src.domotix.view.menus.menuCategorie.MenuCategorieM" style="stroke: #A80036; stroke-width: 0.8;"/><polygon fill="#A80036" points="587.6092,248.7002,595.1309,246.3542,590.6149,246.061,590.9081,241.545,587.6092,248.7002" style="stroke: #A80036; stroke-width: 0.8;"/><!--MD5=[4b960eff92c13eb7f6a61450a90f5e15]
link src.domotix.view.menus.menuPrincipale.MenuFruitore to src.domotix.view.menus.menuCategorie.MenuCategorieF--><path d="M511.5198,201.0152 C490.009,214.522 461.3061,232.5448 439.0856,246.4972 " fill="none" id="src.domotix.view.menus.menuPrincipale.MenuFruitore-&gt;src.domotix.view.menus.menuCategorie.MenuCategorieF" style="stroke: #A80036; stroke-width: 0.8;"/><polygon fill="#A80036" points="435.577,248.7002,443.3763,247.5816,438.9646,246.5732,439.9731,242.1615,435.577,248.7002" style="stroke: #A80036; stroke-width: 0.8;"/><!--MD5=[adac0e828ef7ea1e345e5d871fdf03b6]
link src.domotix.view.menus.menuCategorie.MenuCategorieM to src.domotix.view.menus.menuCategorie.attuatori.MenuCategorieAttuatoriM--><path d="M565.6,287.4152 C565.6,300.3106 565.6,317.3223 565.6,330.9782 " fill="none" id="src.domotix.view.menus.menuCategorie.MenuCategorieM-&gt;src.domotix.view.menus.menuCategorie.attuatori.MenuCategorieAttuatoriM" style="stroke: #A80036; stroke-width: 0.8;"/><polygon fill="#A80036" points="565.6,335.1002,568.8,327.9002,565.6,331.1002,562.4,327.9002,565.6,335.1002" style="stroke: #A80036; stroke-width: 0.8;"/><!--MD5=[aefef4ca43c672a9cf0a4c5876f734a3]
link src.domotix.view.menus.menuCategorie.MenuCategorieM to src.domotix.view.menus.menuCategorie.sensori.MenuCategorieSensoriM--><path d="M516.7915,281.8199 C500.5975,286.0479 482.4123,290.4235 465.6,293.6254 C404.3418,305.2918 385.7379,292.0503 326.4,311.2254 C310.325,316.42 293.7365,324.906 279.9206,332.9878 " fill="none" id="src.domotix.view.menus.menuCategorie.MenuCategorieM-&gt;src.domotix.view.menus.menuCategorie.sensori.MenuCategorieSensoriM" style="stroke: #A80036; stroke-width: 0.8;"/><polygon fill="#A80036" points="276.4698,335.0315,284.2955,334.1158,279.9115,332.9931,281.0341,328.6091,276.4698,335.0315" style="stroke: #A80036; stroke-width: 0.8;"/><!--MD5=[6c859a37dee11511606962bacc5dc5e1]
link src.domotix.view.menus.menuCategorie.MenuCategorieF to src.domotix.view.menus.menuCategorie.attuatori.MenuCategorieAttuatoriF--><path d="M404.8,287.4152 C404.8,300.3106 404.8,317.3223 404.8,330.9782 " fill="none" id="src.domotix.view.menus.menuCategorie.MenuCategorieF-&gt;src.domotix.view.menus.menuCategorie.attuatori.MenuCategorieAttuatoriF" style="stroke: #A80036; stroke-width: 0.8;"/><polygon fill="#A80036" points="404.8,335.1002,408,327.9002,404.8,331.1002,401.6,327.9002,404.8,335.1002" style="stroke: #A80036; stroke-width: 0.8;"/><!--MD5=[9623df759dac8aece0661f2108b887e6]
link src.domotix.view.menus.menuCategorie.MenuCategorieF to src.domotix.view.menus.menuCategorie.sensori.MenuCategorieSensoriF--><path d="M357.4571,271.9843 C308.9157,277.1206 231.8194,288.2956 168.8,311.2254 C153.6775,316.7277 138.0442,325.083 124.9177,332.984 " fill="none" id="src.domotix.view.menus.menuCategorie.MenuCategorieF-&gt;src.domotix.view.menus.menuCategorie.sensori.MenuCategorieSensoriF" style="stroke: #A80036; stroke-width: 0.8;"/><polygon fill="#A80036" points="121.2842,335.1977,129.0979,334.1842,124.7002,333.1165,125.7679,328.7188,121.2842,335.1977" style="stroke: #A80036; stroke-width: 0.8;"/><!--MD5=[67630319409febaff530f5b075fdb9c9]
link src.domotix.view.menus.menuCategorie.attuatori.MenuCategorieAttuatoriM to src.domotix.controller.Modificatore--><path d="M554.0128,373.7374 C545.8972,387.2634 535.0202,405.3916 526.4784,419.628 " fill="none" id="src.domotix.view.menus.menuCategorie.attuatori.MenuCategorieAttuatoriM-&gt;src.domotix.controller.Modificatore" style="stroke: #A80036; stroke-width: 0.8;"/><polygon fill="#A80036" points="524.3602,423.1584,530.8086,418.631,526.4182,419.7285,525.3207,415.3381,524.3602,423.1584" style="stroke: #A80036; stroke-width: 0.8;"/><!--MD5=[1d96bbc4ef1a6163d1cb499ad0e8388f]
link src.domotix.view.menus.menuCategorie.attuatori.MenuCategorieAttuatoriM to src.domotix.controller.Recuperatore--><path d="M528.4416,373.709 C514.7145,380.3505 498.8753,387.4594 484,392.8254 C473.2921,396.688 469.3907,394.1529 459.2,399.2254 C448.1419,404.7296 437.2245,412.7444 428.1051,420.3799 " fill="none" id="src.domotix.view.menus.menuCategorie.attuatori.MenuCategorieAttuatoriM-&gt;src.domotix.controller.Recuperatore" style="stroke: #A80036; stroke-width: 0.8;"/><polygon fill="#A80036" points="424.8298,423.1705,432.3857,420.9368,427.8746,420.5763,428.2351,416.0652,424.8298,423.1705" style="stroke: #A80036; stroke-width: 0.8;"/><!--MD5=[e5388cecad954251b1b9ce40fb07b107]
link src.domotix.view.menus.menuCategorie.attuatori.MenuCategorieAttuatoriF to src.domotix.controller.Recuperatore--><path d="M404.8,373.7374 C404.8,387.0342 404.8,404.7784 404.8,418.9008 " fill="none" id="src.domotix.view.menus.menuCategorie.attuatori.MenuCategorieAttuatoriF-&gt;src.domotix.controller.Recuperatore" style="stroke: #A80036; stroke-width: 0.8;"/><polygon fill="#A80036" points="404.8,423.1584,408,415.9584,404.8,419.1584,401.6,415.9584,404.8,423.1584" style="stroke: #A80036; stroke-width: 0.8;"/><!--MD5=[a83117ae442eb64d8f44f6997f8e9240]
link src.domotix.view.menus.menuCategorie.sensori.MenuCategorieSensoriM to src.domotix.controller.Modificatore--><path d="M279.5878,373.7958 C293.507,381.135 310.2608,388.7077 326.4,392.8254 C355.0283,400.1294 431.5827,388.7271 459.2,399.2254 C471.2446,403.8039 482.6507,412.188 491.82,420.3602 " fill="none" id="src.domotix.view.menus.menuCategorie.sensori.MenuCategorieSensoriM-&gt;src.domotix.controller.Modificatore" style="stroke: #A80036; stroke-width: 0.8;"/><polygon fill="#A80036" points="494.8414,423.1178,491.6803,415.9006,491.8869,420.4214,487.3661,420.6279,494.8414,423.1178" style="stroke: #A80036; stroke-width: 0.8;"/><!--MD5=[b2dc2c23412e584a1aea0ff8c94916c1]
link src.domotix.view.menus.menuCategorie.sensori.MenuCategorieSensoriM to src.domotix.controller.Recuperatore--><path d="M281.786,373.7374 C306.831,387.7219 340.6864,406.6259 366.5402,421.0621 " fill="none" id="src.domotix.view.menus.menuCategorie.sensori.MenuCategorieSensoriM-&gt;src.domotix.controller.Recuperatore" style="stroke: #A80036; stroke-width: 0.8;"/><polygon fill="#A80036" points="370.2947,423.1584,365.5685,416.8542,366.8023,421.2082,362.4483,422.4421,370.2947,423.1584" style="stroke: #A80036; stroke-width: 0.8;"/><!--MD5=[609b3844c9facd757b89a51e40e4b69a]
link src.domotix.view.menus.menuCategorie.sensori.MenuCategorieSensoriF to src.domotix.controller.Recuperatore--><path d="M126.3954,373.776 C139.3234,380.5824 154.4325,387.7834 168.8,392.8254 C233.5464,415.5467 312.1185,429.5046 360.2765,436.6072 " fill="none" id="src.domotix.view.menus.menuCategorie.sensori.MenuCategorieSensoriF-&gt;src.domotix.controller.Recuperatore" style="stroke: #A80036; stroke-width: 0.8;"/><polygon fill="#A80036" points="364.265,437.19,357.6034,432.9825,360.307,436.6116,356.6779,439.3152,364.265,437.19" style="stroke: #A80036; stroke-width: 0.8;"/><!--MD5=[ccd16d8e2bf6890640138acedb9ed920]
link src.domotix.view.menus.menuPrincipale.MenuManutentore to src.domotix.controller.Modificatore--><path d="M709.4264,200.9217 C716.1102,203.2998 722.9755,205.497 729.6,207.2254 C757.0413,214.3847 837.3806,203.4338 856,224.8254 C876.0755,247.8899 872.3747,267.8015 856,293.6254 C789.8887,397.8866 632.717,429.3552 556.1774,438.6477 " fill="none" id="src.domotix.view.menus.menuPrincipale.MenuManutentore-&gt;src.domotix.controller.Modificatore" style="stroke: #A80036; stroke-width: 0.8;"/><polygon fill="#A80036" points="552.1474,439.1254,559.6741,441.4554,556.1195,438.6545,558.9205,435.1,552.1474,439.1254" style="stroke: #A80036; stroke-width: 0.8;"/><!--MD5=[7ab0d7d3aaf5612e5ca11349c8c1c65c]
@startuml

title __DOMOTIX > VIEW > MENUS's Class Diagram__\n

namespace src.domotix.view.menus {
    class src.domotix.view.menus.MenuErroreApertura {
    }

    class src.domotix.view.menus.MenuErroreChiusura {
    }

    class src.domotix.view.menus.MenuLogin {
    }

    namespace menuPrincipale {
        class src.domotix.view.menus.menuPrincipale.MenuFruitore {
        }

        class src.domotix.view.menus.menuPrincipale.MenuManutentore {
        }
    }

    namespace menuCategorie {
        class src.domotix.view.menus.menuCategorie.MenuCategorieF {
        }

        class src.domotix.view.menus.menuCategorie.MenuCategorieM {
        }

        namespace sensori {
            class src.domotix.view.menus.menuCategorie.sensori.MenuCategorieSensoriF {
            }

            class src.domotix.view.menus.menuCategorie.sensori.MenuCategorieSensoriM {
            }
        }

        namespace attuatori {
            class src.domotix.view.menus.menuCategorie.attuatori.MenuCategorieAttuatoriF {
            }

            class src.domotix.view.menus.menuCategorie.attuatori.MenuCategorieAttuatoriM {
            }
        }
    }

    namespace menuUnita {
    }
}

src.domotix.view.menus.MenuLogin - -> src.domotix.view.menus.menuPrincipale
src.domotix.view.menus.menuPrincipale.MenuManutentore - -> src.domotix.view.menus.menuUnita.MenuUnitaM
src.domotix.view.menus.menuPrincipale.MenuFruitore - -> src.domotix.view.menus.menuUnita.MenuUnitaF
src.domotix.view.menus.menuPrincipale.MenuManutentore - -> src.domotix.view.menus.menuCategorie.MenuCategorieM
src.domotix.view.menus.menuPrincipale.MenuFruitore - -> src.domotix.view.menus.menuCategorie.MenuCategorieF
src.domotix.view.menus.menuCategorie.MenuCategorieM - -> src.domotix.view.menus.menuCategorie.attuatori.MenuCategorieAttuatoriM
src.domotix.view.menus.menuCategorie.MenuCategorieM - -> src.domotix.view.menus.menuCategorie.sensori.MenuCategorieSensoriM
src.domotix.view.menus.menuCategorie.MenuCategorieF - -> src.domotix.view.menus.menuCategorie.attuatori.MenuCategorieAttuatoriF
src.domotix.view.menus.menuCategorie.MenuCategorieF - -> src.domotix.view.menus.menuCategorie.sensori.MenuCategorieSensoriF

src.domotix.view.menus.menuCategorie.attuatori.MenuCategorieAttuatoriM - -> src.domotix.controller.Modificatore
src.domotix.view.menus.menuCategorie.attuatori.MenuCategorieAttuatoriM - -> src.domotix.controller.Recuperatore
src.domotix.view.menus.menuCategorie.attuatori.MenuCategorieAttuatoriF - -> src.domotix.controller.Recuperatore
src.domotix.view.menus.menuCategorie.sensori.MenuCategorieSensoriM - -> src.domotix.controller.Modificatore
src.domotix.view.menus.menuCategorie.sensori.MenuCategorieSensoriM - -> src.domotix.controller.Recuperatore
src.domotix.view.menus.menuCategorie.sensori.MenuCategorieSensoriF - -> src.domotix.controller.Recuperatore
src.domotix.view.menus.menuPrincipale.MenuManutentore - -> src.domotix.controller.Modificatore

@enduml

PlantUML version 1.2019.11(Sun Sep 22 12:02:15 CEST 2019)
(GPL source distribution)
Java Runtime: OpenJDK Runtime Environment
JVM: OpenJDK 64-Bit Server VM
Java Version: 11.0.3+12-b304.10
Operating System: Linux
Default Encoding: UTF-8
Language: it
Country: IT
--></g></svg>