<?xml version="1.0" encoding="UTF-8" standalone="no"?><svg xmlns="http://www.w3.org/2000/svg" xmlns:xlink="http://www.w3.org/1999/xlink" contentScriptType="application/ecmascript" contentStyleType="text/css" height="669px" preserveAspectRatio="none" style="width:1090px;height:669px;" version="1.1" viewBox="0 0 1090 669" width="1090px" zoomAndPan="magnify"><defs><filter height="300%" id="fd2bu055h7t6g" width="300%" x="-1" y="-1"><feGaussianBlur result="blurOut" stdDeviation="2.0"/><feColorMatrix in="blurOut" result="blurOut2" type="matrix" values="0 0 0 0 0 0 0 0 0 0 0 0 0 0 0 0 0 0 .4 0"/><feOffset dx="4.0" dy="4.0" in="blurOut2" result="blurOut3"/><feBlend in="SourceGraphic" in2="blurOut3" mode="normal"/></filter></defs><g><text fill="#000000" font-family="sans-serif" font-size="18" lengthAdjust="spacingAndGlyphs" text-decoration="underline" textLength="477" x="296.5" y="19.2419">DOMOTIX &gt; VIEW &gt; MENUS &gt; MENUUNITA's Class Diagram</text><text fill="#000000" font-family="sans-serif" font-size="18" lengthAdjust="spacingAndGlyphs" textLength="0" x="537" y="43.7577"/><!--MD5=[00517f9916d116c0c4ccaffe7c1b1d29]
cluster src.domotix.view.menus.menuUnita--><polygon fill="#FFFFFF" filter="url(#fd2bu055h7t6g)" points="14,65.0317,257,65.0317,264,90.0996,829,90.0996,829,563.0317,14,563.0317,14,65.0317" style="stroke: #000000; stroke-width: 1.5;"/><line style="stroke: #000000; stroke-width: 1.5;" x1="14" x2="264" y1="90.0996" y2="90.0996"/><text fill="#000000" font-family="sans-serif" font-size="14" font-weight="bold" lengthAdjust="spacingAndGlyphs" textLength="237" x="18" y="81.9976">src.domotix.view.menus.menuUnita</text><!--MD5=[29e9e250c1a3862b80de2dc1bb3be89a]
cluster src.domotix.view.menus.menuUnita.gestioneUnita--><polygon fill="#FFFFFF" filter="url(#fd2bu055h7t6g)" points="421,188.0317,521,188.0317,528,213.0996,821,213.0996,821,439.0317,421,439.0317,421,188.0317" style="stroke: #000000; stroke-width: 1.5;"/><line style="stroke: #000000; stroke-width: 1.5;" x1="421" x2="528" y1="213.0996" y2="213.0996"/><text fill="#000000" font-family="sans-serif" font-size="14" font-weight="bold" lengthAdjust="spacingAndGlyphs" textLength="94" x="425" y="204.9976">gestioneUnita</text><!--MD5=[0b88bf459b025cc91fe46fa2e5935608]
cluster src.domotix.view.menus.menuUnita.gestioneStanza--><polygon fill="#FFFFFF" filter="url(#fd2bu055h7t6g)" points="22,270.5317,129,270.5317,136,295.5996,413,295.5996,413,555.0317,22,555.0317,22,270.5317" style="stroke: #000000; stroke-width: 1.5;"/><line style="stroke: #000000; stroke-width: 1.5;" x1="22" x2="136" y1="295.5996" y2="295.5996"/><text fill="#000000" font-family="sans-serif" font-size="14" font-weight="bold" lengthAdjust="spacingAndGlyphs" textLength="101" x="26" y="287.4976">gestioneStanza</text><!--MD5=[37a522b1e582d7913d7fad3a90ca75e4]
cluster src.domotix.view.menus.menuUnita.gestioneStanza.gestioneArtefatto--><polygon fill="#FFFFFF" filter="url(#fd2bu055h7t6g)" points="30,461.0317,155,461.0317,162,486.0996,405,486.0996,405,547.0317,30,547.0317,30,461.0317" style="stroke: #000000; stroke-width: 1.5;"/><line style="stroke: #000000; stroke-width: 1.5;" x1="30" x2="162" y1="486.0996" y2="486.0996"/><text fill="#000000" font-family="sans-serif" font-size="14" font-weight="bold" lengthAdjust="spacingAndGlyphs" textLength="119" x="34" y="477.9976">gestioneArtefatto</text><!--MD5=[e3c3ae39643e55df7c1a0329eec479c9]
cluster src.domotix.controller--><polygon fill="#FFFFFF" filter="url(#fd2bu055h7t6g)" points="464,571.0317,616,571.0317,623,596.0996,715,596.0996,715,657.0317,464,657.0317,464,571.0317" style="stroke: #000000; stroke-width: 1.5;"/><line style="stroke: #000000; stroke-width: 1.5;" x1="464" x2="623" y1="596.0996" y2="596.0996"/><text fill="#000000" font-family="sans-serif" font-size="14" font-weight="bold" lengthAdjust="spacingAndGlyphs" textLength="146" x="468" y="587.9976">src.domotix.controller</text><!--MD5=[a0f93abaebba79ab0a8d6b7c582b424a]
class src.domotix.view.menus.menuUnita.MenuUnitaF--><rect fill="#FEFECE" filter="url(#fd2bu055h7t6g)" height="62.9819" id="src.domotix.view.menus.menuUnita.MenuUnitaF" style="stroke: #A80036; stroke-width: 1.5;" width="178" x="623" y="95.0317"/><ellipse cx="675.75" cy="111.0317" fill="#ADD1B2" rx="11" ry="11" style="stroke: #A80036; stroke-width: 1.0;"/><path d="M675.7188,117.2036 Q673.9688,117.2036 672.8281,116.4692 Q671.7031,115.7192 671.1406,114.3754 Q670.5938,113.0161 670.5938,111.2192 Q670.5938,109.1879 671.25,107.7348 Q671.9063,106.2817 673.1875,105.5004 Q674.4688,104.7192 676.3438,104.7192 Q677.2344,104.7192 677.9063,104.9067 Q678.5781,105.0786 679.2656,105.4223 L678.4531,107.4379 Q677.8281,107.1254 677.2813,107.0004 Q676.75,106.8754 676.2656,106.8754 Q675.0938,106.8754 674.3906,107.4067 Q673.6875,107.9379 673.3906,108.8911 Q673.0938,109.8442 673.0938,111.1098 Q673.0938,113.1254 673.8125,114.0942 Q674.5313,115.0473 676.125,115.0473 Q676.7188,115.0473 677.3438,114.8911 Q677.9688,114.7348 678.7969,114.3598 L678.7969,116.5786 Q678.0625,116.8911 677.2656,117.0473 Q676.4844,117.2036 675.7188,117.2036 Z "/><text fill="#000000" font-family="sans-serif" font-size="12" lengthAdjust="spacingAndGlyphs" textLength="64" x="696.25" y="115.6877">MenuUnitaF</text><line style="stroke: #A80036; stroke-width: 1.5;" x1="624" x2="800" y1="127.0317" y2="127.0317"/><line style="stroke: #A80036; stroke-width: 1.5;" x1="624" x2="800" y1="135.0317" y2="135.0317"/><rect fill="#F24D5C" height="6" style="stroke: #C82930; stroke-width: 1.0;" width="6" x="631" y="143.0317"/><text fill="#000000" font-family="sans-serif" font-size="11" lengthAdjust="spacingAndGlyphs" text-decoration="underline" textLength="152" x="643" y="150.7906">premenuRegoleAttive_Disattive()</text><!--MD5=[8b91a9f4208df7f50b8566189b12862a]
class src.domotix.view.menus.menuUnita.MenuUnitaM--><rect fill="#FEFECE" filter="url(#fd2bu055h7t6g)" height="48" id="src.domotix.view.menus.menuUnita.MenuUnitaM" style="stroke: #A80036; stroke-width: 1.5;" width="100" x="452" y="102.5317"/><ellipse cx="467" cy="118.5317" fill="#ADD1B2" rx="11" ry="11" style="stroke: #A80036; stroke-width: 1.0;"/><path d="M466.9688,124.7036 Q465.2188,124.7036 464.0781,123.9692 Q462.9531,123.2192 462.3906,121.8754 Q461.8438,120.5161 461.8438,118.7192 Q461.8438,116.6879 462.5,115.2348 Q463.1563,113.7817 464.4375,113.0004 Q465.7188,112.2192 467.5938,112.2192 Q468.4844,112.2192 469.1563,112.4067 Q469.8281,112.5786 470.5156,112.9223 L469.7031,114.9379 Q469.0781,114.6254 468.5313,114.5004 Q468,114.3754 467.5156,114.3754 Q466.3438,114.3754 465.6406,114.9067 Q464.9375,115.4379 464.6406,116.3911 Q464.3438,117.3442 464.3438,118.6098 Q464.3438,120.6254 465.0625,121.5942 Q465.7813,122.5473 467.375,122.5473 Q467.9688,122.5473 468.5938,122.3911 Q469.2188,122.2348 470.0469,121.8598 L470.0469,124.0786 Q469.3125,124.3911 468.5156,124.5473 Q467.7344,124.7036 466.9688,124.7036 Z "/><text fill="#000000" font-family="sans-serif" font-size="12" lengthAdjust="spacingAndGlyphs" textLength="68" x="481" y="123.1877">MenuUnitaM</text><line style="stroke: #A80036; stroke-width: 1.5;" x1="453" x2="551" y1="134.5317" y2="134.5317"/><line style="stroke: #A80036; stroke-width: 1.5;" x1="453" x2="551" y1="142.5317" y2="142.5317"/><!--MD5=[3d381592564a924f84458acad633e38e]
class src.domotix.view.menus.menuUnita.gestioneUnita.MenuGestioneUnitaF--><rect fill="#FEFECE" filter="url(#fd2bu055h7t6g)" height="212.8008" id="src.domotix.view.menus.menuUnita.gestioneUnita.MenuGestioneUnitaF" style="stroke: #A80036; stroke-width: 1.5;" width="203" x="610.5" y="218.0317"/><ellipse cx="652.95" cy="234.0317" fill="#ADD1B2" rx="11" ry="11" style="stroke: #A80036; stroke-width: 1.0;"/><path d="M652.9188,240.2036 Q651.1688,240.2036 650.0281,239.4692 Q648.9031,238.7192 648.3406,237.3754 Q647.7938,236.0161 647.7938,234.2192 Q647.7938,232.1879 648.45,230.7348 Q649.1063,229.2817 650.3875,228.5004 Q651.6688,227.7192 653.5438,227.7192 Q654.4344,227.7192 655.1063,227.9067 Q655.7781,228.0786 656.4656,228.4223 L655.6531,230.4379 Q655.0281,230.1254 654.4813,230.0004 Q653.95,229.8754 653.4656,229.8754 Q652.2938,229.8754 651.5906,230.4067 Q650.8875,230.9379 650.5906,231.8911 Q650.2938,232.8442 650.2938,234.1098 Q650.2938,236.1254 651.0125,237.0942 Q651.7313,238.0473 653.325,238.0473 Q653.9188,238.0473 654.5438,237.8911 Q655.1688,237.7348 655.9969,237.3598 L655.9969,239.5786 Q655.2625,239.8911 654.4656,240.0473 Q653.6844,240.2036 652.9188,240.2036 Z "/><text fill="#000000" font-family="sans-serif" font-size="12" lengthAdjust="spacingAndGlyphs" textLength="110" x="673.05" y="238.6877">MenuGestioneUnitaF</text><line style="stroke: #A80036; stroke-width: 1.5;" x1="611.5" x2="812.5" y1="250.0317" y2="250.0317"/><rect fill="none" height="6" style="stroke: #C82930; stroke-width: 1.0;" width="6" x="618.5" y="258.0317"/><text fill="#000000" font-family="sans-serif" font-size="11" lengthAdjust="spacingAndGlyphs" text-decoration="underline" textLength="115" x="630.5" y="265.7906">GUIDA_IN_LINEA : String</text><rect fill="none" height="6" style="stroke: #C82930; stroke-width: 1.0;" width="6" x="618.5" y="273.0136"/><text fill="#000000" font-family="sans-serif" font-size="11" lengthAdjust="spacingAndGlyphs" text-decoration="underline" textLength="166" x="630.5" y="280.7725">SUCCESSO_CAMBIO_STATO : String</text><rect fill="none" height="6" style="stroke: #C82930; stroke-width: 1.0;" width="6" x="618.5" y="287.9955"/><text fill="#000000" font-family="sans-serif" font-size="11" lengthAdjust="spacingAndGlyphs" text-decoration="underline" textLength="152" x="630.5" y="295.7544">ERRORE_CAMBIO_STATO : String</text><rect fill="none" height="6" style="stroke: #C82930; stroke-width: 1.0;" width="6" x="618.5" y="302.9774"/><text fill="#000000" font-family="sans-serif" font-size="11" lengthAdjust="spacingAndGlyphs" text-decoration="underline" textLength="176" x="630.5" y="310.7363">SUCCESSO_CAMBIO_STATO_S : String</text><rect fill="none" height="6" style="stroke: #C82930; stroke-width: 1.0;" width="6" x="618.5" y="317.9592"/><text fill="#000000" font-family="sans-serif" font-size="11" lengthAdjust="spacingAndGlyphs" text-decoration="underline" textLength="177" x="630.5" y="325.7182">SUCCESSO_CAMBIO_STATO_A : String</text><rect fill="none" height="6" style="stroke: #C82930; stroke-width: 1.0;" width="6" x="618.5" y="332.9411"/><text fill="#000000" font-family="sans-serif" font-size="11" lengthAdjust="spacingAndGlyphs" text-decoration="underline" textLength="162" x="630.5" y="340.7">ERRORE_CAMBIO_STATO_S : String</text><rect fill="none" height="6" style="stroke: #C82930; stroke-width: 1.0;" width="6" x="618.5" y="347.923"/><text fill="#000000" font-family="sans-serif" font-size="11" lengthAdjust="spacingAndGlyphs" text-decoration="underline" textLength="163" x="630.5" y="355.6819">ERRORE_CAMBIO_STATO_A : String</text><rect fill="none" height="6" style="stroke: #C82930; stroke-width: 1.0;" width="6" x="618.5" y="362.9049"/><text fill="#000000" font-family="sans-serif" font-size="11" lengthAdjust="spacingAndGlyphs" text-decoration="underline" textLength="112" x="630.5" y="370.6638">SENSORI_UNITA : String</text><rect fill="none" height="6" style="stroke: #C82930; stroke-width: 1.0;" width="6" x="618.5" y="377.8868"/><text fill="#000000" font-family="sans-serif" font-size="11" lengthAdjust="spacingAndGlyphs" text-decoration="underline" textLength="126" x="630.5" y="385.6457">ATTUATORI_UNITA : String</text><line style="stroke: #A80036; stroke-width: 1.5;" x1="611.5" x2="812.5" y1="392.8687" y2="392.8687"/><rect fill="#F24D5C" height="6" style="stroke: #C82930; stroke-width: 1.0;" width="6" x="618.5" y="400.8687"/><text fill="#000000" font-family="sans-serif" font-size="11" lengthAdjust="spacingAndGlyphs" text-decoration="underline" textLength="115" x="630.5" y="408.6276">premenuAttuatoriUnita()</text><rect fill="#F24D5C" height="6" style="stroke: #C82930; stroke-width: 1.0;" width="6" x="618.5" y="415.8506"/><text fill="#000000" font-family="sans-serif" font-size="11" lengthAdjust="spacingAndGlyphs" text-decoration="underline" textLength="110" x="630.5" y="423.6095">premenuSensoriUnita()</text><!--MD5=[1d3b0bf67a3700ccd113d270ccf0d55a]
class src.domotix.view.menus.menuUnita.gestioneUnita.MenuGestioneUnitaM--><rect fill="#FEFECE" filter="url(#fd2bu055h7t6g)" height="48" id="src.domotix.view.menus.menuUnita.gestioneUnita.MenuGestioneUnitaM" style="stroke: #A80036; stroke-width: 1.5;" width="146" x="429" y="300.5317"/><ellipse cx="444" cy="316.5317" fill="#ADD1B2" rx="11" ry="11" style="stroke: #A80036; stroke-width: 1.0;"/><path d="M443.9688,322.7036 Q442.2188,322.7036 441.0781,321.9692 Q439.9531,321.2192 439.3906,319.8754 Q438.8438,318.5161 438.8438,316.7192 Q438.8438,314.6879 439.5,313.2348 Q440.1563,311.7817 441.4375,311.0004 Q442.7188,310.2192 444.5938,310.2192 Q445.4844,310.2192 446.1563,310.4067 Q446.8281,310.5786 447.5156,310.9223 L446.7031,312.9379 Q446.0781,312.6254 445.5313,312.5004 Q445,312.3754 444.5156,312.3754 Q443.3438,312.3754 442.6406,312.9067 Q441.9375,313.4379 441.6406,314.3911 Q441.3438,315.3442 441.3438,316.6098 Q441.3438,318.6254 442.0625,319.5942 Q442.7813,320.5473 444.375,320.5473 Q444.9688,320.5473 445.5938,320.3911 Q446.2188,320.2348 447.0469,319.8598 L447.0469,322.0786 Q446.3125,322.3911 445.5156,322.5473 Q444.7344,322.7036 443.9688,322.7036 Z "/><text fill="#000000" font-family="sans-serif" font-size="12" lengthAdjust="spacingAndGlyphs" textLength="114" x="458" y="321.1877">MenuGestioneUnitaM</text><line style="stroke: #A80036; stroke-width: 1.5;" x1="430" x2="574" y1="332.5317" y2="332.5317"/><line style="stroke: #A80036; stroke-width: 1.5;" x1="430" x2="574" y1="340.5317" y2="340.5317"/><!--MD5=[1dfc6043be6eade5c03735f1a83b88ae]
class src.domotix.view.menus.menuUnita.gestioneStanza.MenuGestioneStanzaF--><rect fill="#FEFECE" filter="url(#fd2bu055h7t6g)" height="48" id="src.domotix.view.menus.menuUnita.gestioneStanza.MenuGestioneStanzaF" style="stroke: #A80036; stroke-width: 1.5;" width="148" x="246" y="300.5317"/><ellipse cx="261" cy="316.5317" fill="#ADD1B2" rx="11" ry="11" style="stroke: #A80036; stroke-width: 1.0;"/><path d="M260.9688,322.7036 Q259.2188,322.7036 258.0781,321.9692 Q256.9531,321.2192 256.3906,319.8754 Q255.8438,318.5161 255.8438,316.7192 Q255.8438,314.6879 256.5,313.2348 Q257.1563,311.7817 258.4375,311.0004 Q259.7188,310.2192 261.5938,310.2192 Q262.4844,310.2192 263.1563,310.4067 Q263.8281,310.5786 264.5156,310.9223 L263.7031,312.9379 Q263.0781,312.6254 262.5313,312.5004 Q262,312.3754 261.5156,312.3754 Q260.3438,312.3754 259.6406,312.9067 Q258.9375,313.4379 258.6406,314.3911 Q258.3438,315.3442 258.3438,316.6098 Q258.3438,318.6254 259.0625,319.5942 Q259.7813,320.5473 261.375,320.5473 Q261.9688,320.5473 262.5938,320.3911 Q263.2188,320.2348 264.0469,319.8598 L264.0469,322.0786 Q263.3125,322.3911 262.5156,322.5473 Q261.7344,322.7036 260.9688,322.7036 Z "/><text fill="#000000" font-family="sans-serif" font-size="12" lengthAdjust="spacingAndGlyphs" textLength="116" x="275" y="321.1877">MenuGestioneStanzaF</text><line style="stroke: #A80036; stroke-width: 1.5;" x1="247" x2="393" y1="332.5317" y2="332.5317"/><line style="stroke: #A80036; stroke-width: 1.5;" x1="247" x2="393" y1="340.5317" y2="340.5317"/><!--MD5=[5797b409120e347596d4fd12893fa805]
class src.domotix.view.menus.menuUnita.gestioneStanza.MenuGestioneStanzaM--><rect fill="#FEFECE" filter="url(#fd2bu055h7t6g)" height="48" id="src.domotix.view.menus.menuUnita.gestioneStanza.MenuGestioneStanzaM" style="stroke: #A80036; stroke-width: 1.5;" width="152" x="59" y="300.5317"/><ellipse cx="74" cy="316.5317" fill="#ADD1B2" rx="11" ry="11" style="stroke: #A80036; stroke-width: 1.0;"/><path d="M73.9688,322.7036 Q72.2188,322.7036 71.0781,321.9692 Q69.9531,321.2192 69.3906,319.8754 Q68.8438,318.5161 68.8438,316.7192 Q68.8438,314.6879 69.5,313.2348 Q70.1563,311.7817 71.4375,311.0004 Q72.7188,310.2192 74.5938,310.2192 Q75.4844,310.2192 76.1563,310.4067 Q76.8281,310.5786 77.5156,310.9223 L76.7031,312.9379 Q76.0781,312.6254 75.5313,312.5004 Q75,312.3754 74.5156,312.3754 Q73.3438,312.3754 72.6406,312.9067 Q71.9375,313.4379 71.6406,314.3911 Q71.3438,315.3442 71.3438,316.6098 Q71.3438,318.6254 72.0625,319.5942 Q72.7813,320.5473 74.375,320.5473 Q74.9688,320.5473 75.5938,320.3911 Q76.2188,320.2348 77.0469,319.8598 L77.0469,322.0786 Q76.3125,322.3911 75.5156,322.5473 Q74.7344,322.7036 73.9688,322.7036 Z "/><text fill="#000000" font-family="sans-serif" font-size="12" lengthAdjust="spacingAndGlyphs" textLength="120" x="88" y="321.1877">MenuGestioneStanzaM</text><line style="stroke: #A80036; stroke-width: 1.5;" x1="60" x2="210" y1="332.5317" y2="332.5317"/><line style="stroke: #A80036; stroke-width: 1.5;" x1="60" x2="210" y1="340.5317" y2="340.5317"/><!--MD5=[18f140b689ad54737b31747d792ddd1e]
class src.domotix.view.menus.menuUnita.gestioneStanza.gestioneArtefatto.MenuGestioneArtefattoF--><rect fill="#FEFECE" filter="url(#fd2bu055h7t6g)" height="48" id="src.domotix.view.menus.menuUnita.gestioneStanza.gestioneArtefatto.MenuGestioneArtefattoF" style="stroke: #A80036; stroke-width: 1.5;" width="160" x="237" y="491.0317"/><ellipse cx="252" cy="507.0317" fill="#ADD1B2" rx="11" ry="11" style="stroke: #A80036; stroke-width: 1.0;"/><path d="M251.9688,513.2036 Q250.2188,513.2036 249.0781,512.4692 Q247.9531,511.7192 247.3906,510.3754 Q246.8438,509.0161 246.8438,507.2192 Q246.8438,505.1879 247.5,503.7348 Q248.1563,502.2817 249.4375,501.5004 Q250.7188,500.7192 252.5938,500.7192 Q253.4844,500.7192 254.1563,500.9067 Q254.8281,501.0786 255.5156,501.4223 L254.7031,503.4379 Q254.0781,503.1254 253.5313,503.0004 Q253,502.8754 252.5156,502.8754 Q251.3438,502.8754 250.6406,503.4067 Q249.9375,503.9379 249.6406,504.8911 Q249.3438,505.8442 249.3438,507.1098 Q249.3438,509.1254 250.0625,510.0942 Q250.7813,511.0473 252.375,511.0473 Q252.9688,511.0473 253.5938,510.8911 Q254.2188,510.7348 255.0469,510.3598 L255.0469,512.5786 Q254.3125,512.8911 253.5156,513.0473 Q252.7344,513.2036 251.9688,513.2036 Z "/><text fill="#000000" font-family="sans-serif" font-size="12" lengthAdjust="spacingAndGlyphs" textLength="128" x="266" y="511.6877">MenuGestioneArtefattoF</text><line style="stroke: #A80036; stroke-width: 1.5;" x1="238" x2="396" y1="523.0317" y2="523.0317"/><line style="stroke: #A80036; stroke-width: 1.5;" x1="238" x2="396" y1="531.0317" y2="531.0317"/><!--MD5=[b6e968ea7baf8505b035edfad6c0ea72]
class src.domotix.view.menus.menuUnita.gestioneStanza.gestioneArtefatto.MenuGestioneArtefattoM--><rect fill="#FEFECE" filter="url(#fd2bu055h7t6g)" height="48" id="src.domotix.view.menus.menuUnita.gestioneStanza.gestioneArtefatto.MenuGestioneArtefattoM" style="stroke: #A80036; stroke-width: 1.5;" width="164" x="38" y="491.0317"/><ellipse cx="53" cy="507.0317" fill="#ADD1B2" rx="11" ry="11" style="stroke: #A80036; stroke-width: 1.0;"/><path d="M52.9688,513.2036 Q51.2188,513.2036 50.0781,512.4692 Q48.9531,511.7192 48.3906,510.3754 Q47.8438,509.0161 47.8438,507.2192 Q47.8438,505.1879 48.5,503.7348 Q49.1563,502.2817 50.4375,501.5004 Q51.7188,500.7192 53.5938,500.7192 Q54.4844,500.7192 55.1563,500.9067 Q55.8281,501.0786 56.5156,501.4223 L55.7031,503.4379 Q55.0781,503.1254 54.5313,503.0004 Q54,502.8754 53.5156,502.8754 Q52.3438,502.8754 51.6406,503.4067 Q50.9375,503.9379 50.6406,504.8911 Q50.3438,505.8442 50.3438,507.1098 Q50.3438,509.1254 51.0625,510.0942 Q51.7813,511.0473 53.375,511.0473 Q53.9688,511.0473 54.5938,510.8911 Q55.2188,510.7348 56.0469,510.3598 L56.0469,512.5786 Q55.3125,512.8911 54.5156,513.0473 Q53.7344,513.2036 52.9688,513.2036 Z "/><text fill="#000000" font-family="sans-serif" font-size="12" lengthAdjust="spacingAndGlyphs" textLength="132" x="67" y="511.6877">MenuGestioneArtefattoM</text><line style="stroke: #A80036; stroke-width: 1.5;" x1="39" x2="201" y1="523.0317" y2="523.0317"/><line style="stroke: #A80036; stroke-width: 1.5;" x1="39" x2="201" y1="531.0317" y2="531.0317"/><!--MD5=[19e62dc1491eac9c9a34efd24892529b]
class src.domotix.controller.Recuperatore--><rect fill="#FEFECE" filter="url(#fd2bu055h7t6g)" height="48" id="src.domotix.controller.Recuperatore" style="stroke: #A80036; stroke-width: 1.5;" width="101" x="605.5" y="601.0317"/><ellipse cx="620.5" cy="617.0317" fill="#ADD1B2" rx="11" ry="11" style="stroke: #A80036; stroke-width: 1.0;"/><path d="M620.4688,623.2036 Q618.7188,623.2036 617.5781,622.4692 Q616.4531,621.7192 615.8906,620.3754 Q615.3438,619.0161 615.3438,617.2192 Q615.3438,615.1879 616,613.7348 Q616.6563,612.2817 617.9375,611.5004 Q619.2188,610.7192 621.0938,610.7192 Q621.9844,610.7192 622.6563,610.9067 Q623.3281,611.0786 624.0156,611.4223 L623.2031,613.4379 Q622.5781,613.1254 622.0313,613.0004 Q621.5,612.8754 621.0156,612.8754 Q619.8438,612.8754 619.1406,613.4067 Q618.4375,613.9379 618.1406,614.8911 Q617.8438,615.8442 617.8438,617.1098 Q617.8438,619.1254 618.5625,620.0942 Q619.2813,621.0473 620.875,621.0473 Q621.4688,621.0473 622.0938,620.8911 Q622.7188,620.7348 623.5469,620.3598 L623.5469,622.5786 Q622.8125,622.8911 622.0156,623.0473 Q621.2344,623.2036 620.4688,623.2036 Z "/><text fill="#000000" font-family="sans-serif" font-size="12" lengthAdjust="spacingAndGlyphs" textLength="69" x="634.5" y="621.6877">Recuperatore</text><line style="stroke: #A80036; stroke-width: 1.5;" x1="606.5" x2="705.5" y1="633.0317" y2="633.0317"/><line style="stroke: #A80036; stroke-width: 1.5;" x1="606.5" x2="705.5" y1="641.0317" y2="641.0317"/><!--MD5=[b71e28d46693838dc5614a2818178488]
class src.domotix.controller.Modificatore--><rect fill="#FEFECE" filter="url(#fd2bu055h7t6g)" height="48" id="src.domotix.controller.Modificatore" style="stroke: #A80036; stroke-width: 1.5;" width="98" x="472" y="601.0317"/><ellipse cx="487" cy="617.0317" fill="#ADD1B2" rx="11" ry="11" style="stroke: #A80036; stroke-width: 1.0;"/><path d="M486.9688,623.2036 Q485.2188,623.2036 484.0781,622.4692 Q482.9531,621.7192 482.3906,620.3754 Q481.8438,619.0161 481.8438,617.2192 Q481.8438,615.1879 482.5,613.7348 Q483.1563,612.2817 484.4375,611.5004 Q485.7188,610.7192 487.5938,610.7192 Q488.4844,610.7192 489.1563,610.9067 Q489.8281,611.0786 490.5156,611.4223 L489.7031,613.4379 Q489.0781,613.1254 488.5313,613.0004 Q488,612.8754 487.5156,612.8754 Q486.3438,612.8754 485.6406,613.4067 Q484.9375,613.9379 484.6406,614.8911 Q484.3438,615.8442 484.3438,617.1098 Q484.3438,619.1254 485.0625,620.0942 Q485.7813,621.0473 487.375,621.0473 Q487.9688,621.0473 488.5938,620.8911 Q489.2188,620.7348 490.0469,620.3598 L490.0469,622.5786 Q489.3125,622.8911 488.5156,623.0473 Q487.7344,623.2036 486.9688,623.2036 Z "/><text fill="#000000" font-family="sans-serif" font-size="12" lengthAdjust="spacingAndGlyphs" textLength="66" x="501" y="621.6877">Modificatore</text><line style="stroke: #A80036; stroke-width: 1.5;" x1="473" x2="569" y1="633.0317" y2="633.0317"/><line style="stroke: #A80036; stroke-width: 1.5;" x1="473" x2="569" y1="641.0317" y2="641.0317"/><!--MD5=[99b8393402cccebe7e68cbcd2477afca]
link src.domotix.view.menus.menuUnita.MenuUnitaM to src.domotix.view.menus.menuUnita.gestioneUnita.MenuGestioneUnitaM--><path d="M502,150.8104 C502,187.2779 502,256.0848 502,295.271 " fill="none" id="src.domotix.view.menus.menuUnita.MenuUnitaM-&gt;src.domotix.view.menus.menuUnita.gestioneUnita.MenuGestioneUnitaM" style="stroke: #A80036; stroke-width: 1.0;"/><polygon fill="#A80036" points="502,300.3644,506,291.3644,502,295.3644,498,291.3644,502,300.3644" style="stroke: #A80036; stroke-width: 1.0;"/><!--MD5=[d17eddab381dd94cab76bd28b93f25c4]
link src.domotix.view.menus.menuUnita.MenuUnitaM to src.domotix.view.menus.menuUnita.gestioneStanza.MenuGestioneStanzaM--><path d="M451.9643,133.3493 C383.474,143.4238 264.9176,163.74 229,188.0317 C189.5211,214.7319 161.7776,264.0254 147.1107,295.4974 " fill="none" id="src.domotix.view.menus.menuUnita.MenuUnitaM-&gt;src.domotix.view.menus.menuUnita.gestioneStanza.MenuGestioneStanzaM" style="stroke: #A80036; stroke-width: 1.0;"/><polygon fill="#A80036" points="144.8693,300.3893,152.2548,293.8736,146.9521,295.8438,144.982,290.5411,144.8693,300.3893" style="stroke: #A80036; stroke-width: 1.0;"/><!--MD5=[15ffd562c1e721076fe3e78925f44527]
link src.domotix.view.menus.menuUnita.gestioneStanza.MenuGestioneStanzaM to src.domotix.view.menus.menuUnita.gestioneStanza.gestioneArtefatto.MenuGestioneArtefattoM--><path d="M133.1002,348.6587 C130.3577,383.4891 125.2939,447.7987 122.3296,485.4461 " fill="none" id="src.domotix.view.menus.menuUnita.gestioneStanza.MenuGestioneStanzaM-&gt;src.domotix.view.menus.menuUnita.gestioneStanza.gestioneArtefatto.MenuGestioneArtefattoM" style="stroke: #A80036; stroke-width: 1.0;"/><polygon fill="#A80036" points="121.908,490.8005,126.6023,482.1423,122.3006,485.8159,118.627,481.5142,121.908,490.8005" style="stroke: #A80036; stroke-width: 1.0;"/><!--MD5=[033facd939b8d2ef5ed21de9716796e1]
link src.domotix.view.menus.menuUnita.MenuUnitaF to src.domotix.view.menus.menuUnita.gestioneUnita.MenuGestioneUnitaF--><path d="M712,158.3438 C712,173.561 712,192.7882 712,212.72 " fill="none" id="src.domotix.view.menus.menuUnita.MenuUnitaF-&gt;src.domotix.view.menus.menuUnita.gestioneUnita.MenuGestioneUnitaF" style="stroke: #A80036; stroke-width: 1.0;"/><polygon fill="#A80036" points="712,217.8006,716,208.8006,712,212.8006,708,208.8006,712,217.8006" style="stroke: #A80036; stroke-width: 1.0;"/><!--MD5=[0de1132eb80b295cf1383eaf2f9304c0]
link src.domotix.view.menus.menuUnita.MenuUnitaF to src.domotix.view.menus.menuUnita.gestioneStanza.MenuGestioneStanzaF--><path d="M622.7023,146.7619 C605.2456,150.5976 587.0642,154.5095 570,158.0317 C500.4264,172.3924 472.3928,149.0546 413,188.0317 C373.1761,214.1665 345.8769,263.8573 331.6159,295.5301 " fill="none" id="src.domotix.view.menus.menuUnita.MenuUnitaF-&gt;src.domotix.view.menus.menuUnita.gestioneStanza.MenuGestioneStanzaF" style="stroke: #A80036; stroke-width: 1.0;"/><polygon fill="#A80036" points="329.4392,300.4523,336.7375,293.8391,331.4615,295.8795,329.421,290.6035,329.4392,300.4523" style="stroke: #A80036; stroke-width: 1.0;"/><!--MD5=[9f9094fb9db9455906e26dbe2766b1bf]
link src.domotix.view.menus.menuUnita.gestioneStanza.MenuGestioneStanzaF to src.domotix.view.menus.menuUnita.gestioneStanza.gestioneArtefatto.MenuGestioneArtefattoF--><path d="M319.62,348.6587 C319.0715,383.4891 318.0588,447.7987 317.4659,485.4461 " fill="none" id="src.domotix.view.menus.menuUnita.gestioneStanza.MenuGestioneStanzaF-&gt;src.domotix.view.menus.menuUnita.gestioneStanza.gestioneArtefatto.MenuGestioneArtefattoF" style="stroke: #A80036; stroke-width: 1.0;"/><polygon fill="#A80036" points="317.3816,490.8005,321.523,481.8647,317.4605,485.8011,313.524,481.7385,317.3816,490.8005" style="stroke: #A80036; stroke-width: 1.0;"/><!--MD5=[36417f8139c138a2f3f9bd3c0aaa66e6]
link src.domotix.view.menus.menuUnita.MenuUnitaM to src.domotix.controller.Recuperatore--><path d="M552.0898,143.4776 C569.0538,148.7399 588.2097,154.167 606,158.0317 C654.8623,168.6464 793.7533,152.5652 829,188.0317 C946.9948,306.7624 964.0393,428.8233 864,563.0317 C845.6923,587.5926 766.7354,605.9649 711.5545,616.1021 " fill="none" id="src.domotix.view.menus.menuUnita.MenuUnitaM-&gt;src.domotix.controller.Recuperatore" style="stroke: #A80036; stroke-width: 1.0;"/><polygon fill="#A80036" points="706.6255,616.9974,716.1955,619.3243,711.545,616.1037,714.7656,611.4532,706.6255,616.9974" style="stroke: #A80036; stroke-width: 1.0;"/><!--MD5=[0559db1db5d75f3d869742205ac36c41]
link src.domotix.view.menus.menuUnita.MenuUnitaF to src.domotix.controller.Recuperatore--><path d="M801.0846,135.7579 C868.0065,144.7431 951.6517,161.0684 973,188.0317 C1076.4575,318.7004 1078.9385,434.3662 973,563.0317 C940.5627,602.4277 794.0193,617.1445 712.0135,622.3607 " fill="none" id="src.domotix.view.menus.menuUnita.MenuUnitaF-&gt;src.domotix.controller.Recuperatore" style="stroke: #A80036; stroke-width: 1.0;"/><polygon fill="#A80036" points="706.7071,622.6907,715.9381,626.1242,711.6975,622.3803,715.4414,618.1396,706.7071,622.6907" style="stroke: #A80036; stroke-width: 1.0;"/><!--MD5=[6ccaaae2a499aacdc9a464fd1053e56d]
link src.domotix.view.menus.menuUnita.gestioneUnita.MenuGestioneUnitaM to src.domotix.controller.Modificatore--><path d="M512.5413,348.6035 C523.6652,375.4266 540.4721,420.3809 547,461.0317 C554.1877,505.7916 555.9415,518.5889 547,563.0317 C544.7241,574.3439 540.3287,586.1651 535.7901,596.4153 " fill="none" id="src.domotix.view.menus.menuUnita.gestioneUnita.MenuGestioneUnitaM-&gt;src.domotix.controller.Modificatore" style="stroke: #A80036; stroke-width: 1.0;"/><polygon fill="#A80036" points="533.7018,601.0068,541.0689,594.4703,535.7718,596.4554,533.7867,591.1583,533.7018,601.0068" style="stroke: #A80036; stroke-width: 1.0;"/><!--MD5=[ff9b3d4150a1d7d40686c6e5d19e1210]
link src.domotix.view.menus.menuUnita.gestioneUnita.MenuGestioneUnitaM to src.domotix.controller.Recuperatore--><path d="M513.9682,348.8517 C528.6164,375.7808 556.0982,418.1416 593,439.0317 C625.5744,457.4721 735.3207,432.888 760,461.0317 C789.8889,495.1163 782.3915,523.6143 760,563.0317 C749.2799,581.9031 730.2896,595.6375 711.4441,605.3087 " fill="none" id="src.domotix.view.menus.menuUnita.gestioneUnita.MenuGestioneUnitaM-&gt;src.domotix.controller.Recuperatore" style="stroke: #A80036; stroke-width: 1.0;"/><polygon fill="#A80036" points="706.6611,607.6806,716.5012,607.2656,711.1405,605.4592,712.9469,600.0985,706.6611,607.6806" style="stroke: #A80036; stroke-width: 1.0;"/><!--MD5=[aaf876d14119c83b9d14dd16e7070cf2]
link src.domotix.view.menus.menuUnita.gestioneUnita.MenuGestioneUnitaF to src.domotix.controller.Recuperatore--><path d="M813.6455,429.6881 C842.9336,472.7133 860.0407,521.9335 831,563.0317 C816.822,583.0963 757.4733,601.2501 711.779,612.6537 " fill="none" id="src.domotix.view.menus.menuUnita.gestioneUnita.MenuGestioneUnitaF-&gt;src.domotix.controller.Recuperatore" style="stroke: #A80036; stroke-width: 1.0;"/><polygon fill="#A80036" points="706.8413,613.8731,716.5379,615.5985,711.6954,612.6742,714.6197,607.8318,706.8413,613.8731" style="stroke: #A80036; stroke-width: 1.0;"/><!--MD5=[57075c2f82fec43d68bbe9396874f6a8]
link src.domotix.view.menus.menuUnita.gestioneStanza.MenuGestioneStanzaM to src.domotix.controller.Modificatore--><path d="M147.5259,348.9434 C162.8068,375.9567 191.3317,418.3945 229,439.0317 C301.2304,478.6042 344.2306,415.7109 413,461.0317 C456.7289,489.8501 442.5758,519.7081 472,563.0317 C479.7577,574.4539 488.9887,586.4774 497.3358,596.8641 " fill="none" id="src.domotix.view.menus.menuUnita.gestioneStanza.MenuGestioneStanzaM-&gt;src.domotix.controller.Modificatore" style="stroke: #A80036; stroke-width: 1.0;"/><polygon fill="#A80036" points="500.6076,600.9087,498.057,591.3958,497.4629,597.0214,491.8373,596.4274,500.6076,600.9087" style="stroke: #A80036; stroke-width: 1.0;"/><!--MD5=[7aeab9784cbcd0a3dd5dfc47bae7f10c]
link src.domotix.view.menus.menuUnita.gestioneStanza.MenuGestioneStanzaM to src.domotix.controller.Recuperatore--><path d="M147.1539,348.6432 C162.2738,375.8034 190.8272,418.7884 229,439.0317 C323.2399,489.0078 369.9395,419.0447 468,461.0317 C538.686,491.2977 601.7455,558.4562 633.762,596.7832 " fill="none" id="src.domotix.view.menus.menuUnita.gestioneStanza.MenuGestioneStanzaM-&gt;src.domotix.controller.Recuperatore" style="stroke: #A80036; stroke-width: 1.0;"/><polygon fill="#A80036" points="637.137,600.8548,634.4728,591.3731,633.946,597.0054,628.3138,596.4787,637.137,600.8548" style="stroke: #A80036; stroke-width: 1.0;"/><!--MD5=[ab4865756c30f0dfeae676e840b3d9e8]
link src.domotix.view.menus.menuUnita.gestioneStanza.MenuGestioneStanzaF to src.domotix.controller.Recuperatore--><path d="M332.0119,348.5371 C346.9589,375.5976 375.1973,418.489 413,439.0317 C453.2571,460.9081 583.7061,430.6485 618,461.0317 C656.0521,494.7446 659.9374,558.3597 658.5187,595.6768 " fill="none" id="src.domotix.view.menus.menuUnita.gestioneStanza.MenuGestioneStanzaF-&gt;src.domotix.controller.Recuperatore" style="stroke: #A80036; stroke-width: 1.0;"/><polygon fill="#A80036" points="658.2744,600.9851,662.6842,592.1786,658.5044,595.9904,654.6926,591.8106,658.2744,600.9851" style="stroke: #A80036; stroke-width: 1.0;"/><!--MD5=[cc75cb6831e77bfb88190900b6179deb]
link src.domotix.view.menus.menuUnita.gestioneStanza.MenuGestioneStanzaF to src.domotix.controller.Modificatore--><path d="M334.0837,348.9133 C350.1299,374.6906 378.6308,414.8923 413,439.0317 C437.27,456.0779 455.7554,439.3578 476,461.0317 C510.6719,498.1515 519.0658,559.4461 520.8422,595.6591 " fill="none" id="src.domotix.view.menus.menuUnita.gestioneStanza.MenuGestioneStanzaF-&gt;src.domotix.controller.Modificatore" style="stroke: #A80036; stroke-width: 1.0;"/><polygon fill="#A80036" points="521.0586,600.8142,524.6776,591.6543,520.8489,595.8186,516.6846,591.9899,521.0586,600.8142" style="stroke: #A80036; stroke-width: 1.0;"/><!--MD5=[cb7e25c81c1e53eb5eac757602a45117]
link src.domotix.view.menus.menuUnita.gestioneStanza.gestioneArtefatto.MenuGestioneArtefattoM to src.domotix.controller.Modificatore--><path d="M164.322,539.18 C181.3463,547.6834 201.2052,556.6919 220,563.0317 C303.9628,591.3536 405.6687,609.0223 466.7574,617.9402 " fill="none" id="src.domotix.view.menus.menuUnita.gestioneStanza.gestioneArtefatto.MenuGestioneArtefattoM-&gt;src.domotix.controller.Modificatore" style="stroke: #A80036; stroke-width: 1.0;"/><polygon fill="#A80036" points="471.8118,618.6716,463.4775,613.4238,466.8634,617.9554,462.3317,621.3413,471.8118,618.6716" style="stroke: #A80036; stroke-width: 1.0;"/><!--MD5=[cfc3b61bcfc2e576146d5904add0cd07]
link src.domotix.view.menus.menuUnita.gestioneStanza.gestioneArtefatto.MenuGestioneArtefattoM to src.domotix.controller.Recuperatore--><path d="M160.3737,539.2554 C178.0367,548.5521 199.3971,558.107 220,563.0317 C259.778,572.5398 549.5313,557.1445 588,571.0317 C603.4147,576.5964 618.0001,587.1728 629.6807,597.5009 " fill="none" id="src.domotix.view.menus.menuUnita.gestioneStanza.gestioneArtefatto.MenuGestioneArtefattoM-&gt;src.domotix.controller.Recuperatore" style="stroke: #A80036; stroke-width: 1.0;"/><polygon fill="#A80036" points="633.5276,600.9864,629.544,591.9791,629.8224,597.6291,624.1724,597.9075,633.5276,600.9864" style="stroke: #A80036; stroke-width: 1.0;"/><!--MD5=[6154a8e2574741d3728e0a6a775b3127]
link src.domotix.view.menus.menuUnita.gestioneStanza.gestioneArtefatto.MenuGestioneArtefattoF to src.domotix.controller.Recuperatore--><path d="M397.1343,529.6389 C470.666,543.3602 570.7286,562.9542 588,571.0317 C602.2317,577.6876 616.1457,587.8738 627.6421,597.6129 " fill="none" id="src.domotix.view.menus.menuUnita.gestioneStanza.gestioneArtefatto.MenuGestioneArtefattoF-&gt;src.domotix.controller.Recuperatore" style="stroke: #A80036; stroke-width: 1.0;"/><polygon fill="#A80036" points="631.4451,600.8928,627.2421,591.9858,627.6587,597.6273,622.0173,598.044,631.4451,600.8928" style="stroke: #A80036; stroke-width: 1.0;"/><!--MD5=[3fb23d2d6247af8b761edc7574004e84]
link src.domotix.view.menus.menuUnita.gestioneStanza.gestioneArtefatto.MenuGestioneArtefattoF to src.domotix.controller.Modificatore--><path d="M361.5166,539.0357 C394.0541,556.5805 438.1789,580.3732 471.7679,598.485 " fill="none" id="src.domotix.view.menus.menuUnita.gestioneStanza.gestioneArtefatto.MenuGestioneArtefattoF-&gt;src.domotix.controller.Modificatore" style="stroke: #A80036; stroke-width: 1.0;"/><polygon fill="#A80036" points="476.2264,600.8891,470.2032,593.0967,471.8255,598.516,466.4062,600.1382,476.2264,600.8891" style="stroke: #A80036; stroke-width: 1.0;"/><!--MD5=[ab0c5c01e9aeac4d184e9e484d9408fc]
@startuml

title __DOMOTIX > VIEW > MENUS > MENUUNITA's Class Diagram__\n

namespace src.domotix.view.menus.menuUnita {
    class src.domotix.view.menus.menuUnita.MenuUnitaF {
        {static} - premenuRegoleAttive_Disattive()
    }

    class src.domotix.view.menus.menuUnita.MenuUnitaM {
    }

    namespace gestioneUnita {
        class src.domotix.view.menus.menuUnita.gestioneUnita.MenuGestioneUnitaF {
            {static} - GUIDA_IN_LINEA : String
            {static} - SUCCESSO_CAMBIO_STATO : String
            {static} - ERRORE_CAMBIO_STATO : String
            {static} - SUCCESSO_CAMBIO_STATO_S : String
            {static} - SUCCESSO_CAMBIO_STATO_A : String
            {static} - ERRORE_CAMBIO_STATO_S : String
            {static} - ERRORE_CAMBIO_STATO_A : String
            {static} - SENSORI_UNITA : String
            {static} - ATTUATORI_UNITA : String
            {static} - premenuAttuatoriUnita()
            {static} - premenuSensoriUnita()
        }

        class src.domotix.view.menus.menuUnita.gestioneUnita.MenuGestioneUnitaM {
        }
    }

    namespace gestioneStanza {
        class src.domotix.view.menus.menuUnita.gestioneStanza.MenuGestioneStanzaF {
        }

        class src.domotix.view.menus.menuUnita.gestioneStanza.MenuGestioneStanzaM {
        }

        namespace gestioneArtefatto {
            class src.domotix.view.menus.menuUnita.gestioneStanza.gestioneArtefatto.MenuGestioneArtefattoF {
            }

            class src.domotix.view.menus.menuUnita.gestioneStanza.gestioneArtefatto.MenuGestioneArtefattoM {
            }
        }
    }
}

src.domotix.view.menus.menuUnita.MenuUnitaM - -> src.domotix.view.menus.menuUnita.gestioneUnita.MenuGestioneUnitaM
src.domotix.view.menus.menuUnita.MenuUnitaM - -> src.domotix.view.menus.menuUnita.gestioneStanza.MenuGestioneStanzaM
src.domotix.view.menus.menuUnita.gestioneStanza.MenuGestioneStanzaM - -> src.domotix.view.menus.menuUnita.gestioneStanza.gestioneArtefatto.MenuGestioneArtefattoM
src.domotix.view.menus.menuUnita.MenuUnitaF - -> src.domotix.view.menus.menuUnita.gestioneUnita.MenuGestioneUnitaF
src.domotix.view.menus.menuUnita.MenuUnitaF - -> src.domotix.view.menus.menuUnita.gestioneStanza.MenuGestioneStanzaF
src.domotix.view.menus.menuUnita.gestioneStanza.MenuGestioneStanzaF - -> src.domotix.view.menus.menuUnita.gestioneStanza.gestioneArtefatto.MenuGestioneArtefattoF

src.domotix.view.menus.menuUnita.MenuUnitaM - -> src.domotix.controller.Recuperatore
src.domotix.view.menus.menuUnita.MenuUnitaF - -> src.domotix.controller.Recuperatore
src.domotix.view.menus.menuUnita.gestioneUnita.MenuGestioneUnitaM - -> src.domotix.controller.Modificatore
src.domotix.view.menus.menuUnita.gestioneUnita.MenuGestioneUnitaM - -> src.domotix.controller.Recuperatore
src.domotix.view.menus.menuUnita.gestioneUnita.MenuGestioneUnitaF - -> src.domotix.controller.Recuperatore
src.domotix.view.menus.menuUnita.gestioneStanza.MenuGestioneStanzaM - -> src.domotix.controller.Modificatore
src.domotix.view.menus.menuUnita.gestioneStanza.MenuGestioneStanzaM - -> src.domotix.controller.Recuperatore
src.domotix.view.menus.menuUnita.gestioneStanza.MenuGestioneStanzaF - -> src.domotix.controller.Recuperatore
src.domotix.view.menus.menuUnita.gestioneStanza.MenuGestioneStanzaF - -> src.domotix.controller.Modificatore
src.domotix.view.menus.menuUnita.gestioneStanza.gestioneArtefatto.MenuGestioneArtefattoM - -> src.domotix.controller.Modificatore
src.domotix.view.menus.menuUnita.gestioneStanza.gestioneArtefatto.MenuGestioneArtefattoM - -> src.domotix.controller.Recuperatore
src.domotix.view.menus.menuUnita.gestioneStanza.gestioneArtefatto.MenuGestioneArtefattoF - -> src.domotix.controller.Recuperatore
src.domotix.view.menus.menuUnita.gestioneStanza.gestioneArtefatto.MenuGestioneArtefattoF - -> src.domotix.controller.Modificatore

@enduml

PlantUML version 1.2019.11(Sun Sep 22 12:02:15 CEST 2019)
(GPL source distribution)
Java Runtime: OpenJDK Runtime Environment
JVM: OpenJDK 64-Bit Server VM
Java Version: 11.0.3+12-b304.10
Operating System: Linux
Default Encoding: UTF-8
Language: it
Country: IT
--></g></svg>