<?xml version="1.0" encoding="UTF-8" standalone="no"?><svg xmlns="http://www.w3.org/2000/svg" xmlns:xlink="http://www.w3.org/1999/xlink" contentScriptType="application/ecmascript" contentStyleType="text/css" height="732px" preserveAspectRatio="none" style="width:1107px;height:732px;" version="1.1" viewBox="0 0 1107 732" width="1107px" zoomAndPan="magnify"><defs><filter height="300%" id="fdaydws2i55zl" width="300%" x="-1" y="-1"><feGaussianBlur result="blurOut" stdDeviation="2.0"/><feColorMatrix in="blurOut" result="blurOut2" type="matrix" values="0 0 0 0 0 0 0 0 0 0 0 0 0 0 0 0 0 0 .4 0"/><feOffset dx="4.0" dy="4.0" in="blurOut2" result="blurOut3"/><feBlend in="SourceGraphic" in2="blurOut3" mode="normal"/></filter></defs><g><text fill="#000000" font-family="sans-serif" font-size="18" lengthAdjust="spacingAndGlyphs" text-decoration="underline" textLength="354" x="376" y="19.2419">DOMOTIX &gt; VIEW &gt; MENUS's Class Diagram</text><text fill="#000000" font-family="sans-serif" font-size="18" lengthAdjust="spacingAndGlyphs" textLength="0" x="555" y="43.7577"/><!--MD5=[a270aa123fc17553ce95095edea6af5c]
cluster src.domotix.view.menus--><polygon fill="#FFFFFF" filter="url(#fdaydws2i55zl)" points="14,65.0317,178,65.0317,185,90.0996,1070,90.0996,1070,626.0317,14,626.0317,14,65.0317" style="stroke: #000000; stroke-width: 1.5;"/><line style="stroke: #000000; stroke-width: 1.5;" x1="14" x2="185" y1="90.0996" y2="90.0996"/><text fill="#000000" font-family="sans-serif" font-size="14" font-weight="bold" lengthAdjust="spacingAndGlyphs" textLength="158" x="18" y="81.9976">src.domotix.view.menus</text><!--MD5=[702d6a1548e6b03ca0dc4267e4e60920]
cluster src.domotix.view.menus.menuPrincipale--><polygon fill="#FFFFFF" filter="url(#fdaydws2i55zl)" points="320,233.0317,431,233.0317,438,258.0996,769,258.0996,769,334.0317,320,334.0317,320,233.0317" style="stroke: #000000; stroke-width: 1.5;"/><line style="stroke: #000000; stroke-width: 1.5;" x1="320" x2="438" y1="258.0996" y2="258.0996"/><text fill="#000000" font-family="sans-serif" font-size="14" font-weight="bold" lengthAdjust="spacingAndGlyphs" textLength="105" x="324" y="249.9976">menuPrincipale</text><!--MD5=[171676647ca269d82cf939774b48600f]
cluster src.domotix.view.menus.menuCategorie--><polygon fill="#FFFFFF" filter="url(#fdaydws2i55zl)" points="22,416.0317,131,416.0317,138,441.0996,807,441.0996,807,618.0317,22,618.0317,22,416.0317" style="stroke: #000000; stroke-width: 1.5;"/><line style="stroke: #000000; stroke-width: 1.5;" x1="22" x2="138" y1="441.0996" y2="441.0996"/><text fill="#000000" font-family="sans-serif" font-size="14" font-weight="bold" lengthAdjust="spacingAndGlyphs" textLength="103" x="26" y="432.9976">menuCategorie</text><!--MD5=[6a896d3fff213cf3ec0a828c16557f16]
cluster src.domotix.view.menus.menuCategorie.sensori--><polygon fill="#FFFFFF" filter="url(#fdaydws2i55zl)" points="30,524.0317,83,524.0317,90,549.0996,397,549.0996,397,610.0317,30,610.0317,30,524.0317" style="stroke: #000000; stroke-width: 1.5;"/><line style="stroke: #000000; stroke-width: 1.5;" x1="30" x2="90" y1="549.0996" y2="549.0996"/><text fill="#000000" font-family="sans-serif" font-size="14" font-weight="bold" lengthAdjust="spacingAndGlyphs" textLength="47" x="34" y="540.9976">sensori</text><!--MD5=[2b248cac9c74822cda29090c02a6afec]
cluster src.domotix.view.menus.menuCategorie.attuatori--><polygon fill="#FFFFFF" filter="url(#fdaydws2i55zl)" points="416,524.0317,483,524.0317,490,549.0996,799,549.0996,799,610.0317,416,610.0317,416,524.0317" style="stroke: #000000; stroke-width: 1.5;"/><line style="stroke: #000000; stroke-width: 1.5;" x1="416" x2="490" y1="549.0996" y2="549.0996"/><text fill="#000000" font-family="sans-serif" font-size="14" font-weight="bold" lengthAdjust="spacingAndGlyphs" textLength="61" x="420" y="540.9976">attuatori</text><!--MD5=[00517f9916d116c0c4ccaffe7c1b1d29]
cluster src.domotix.view.menus.menuUnita--><polygon fill="#FFFFFF" filter="url(#fdaydws2i55zl)" points="815,416.0317,897,416.0317,904,441.0996,1062,441.0996,1062,502.0317,815,502.0317,815,416.0317" style="stroke: #000000; stroke-width: 1.5;"/><line style="stroke: #000000; stroke-width: 1.5;" x1="815" x2="904" y1="441.0996" y2="441.0996"/><text fill="#000000" font-family="sans-serif" font-size="14" font-weight="bold" lengthAdjust="spacingAndGlyphs" textLength="76" x="819" y="432.9976">menuUnita</text><!--MD5=[e3c3ae39643e55df7c1a0329eec479c9]
cluster src.domotix.controller--><polygon fill="#FFFFFF" filter="url(#fdaydws2i55zl)" points="447,634.0317,599,634.0317,606,659.0996,698,659.0996,698,720.0317,447,720.0317,447,634.0317" style="stroke: #000000; stroke-width: 1.5;"/><line style="stroke: #000000; stroke-width: 1.5;" x1="447" x2="606" y1="659.0996" y2="659.0996"/><text fill="#000000" font-family="sans-serif" font-size="14" font-weight="bold" lengthAdjust="spacingAndGlyphs" textLength="146" x="451" y="650.9976">src.domotix.controller</text><!--MD5=[d765f0f202665bc0cdb39d41202479e1]
class src.domotix.view.menus.MenuErroreApertura--><rect fill="#FEFECE" filter="url(#fdaydws2i55zl)" height="48" id="src.domotix.view.menus.MenuErroreApertura" style="stroke: #A80036; stroke-width: 1.5;" width="138" x="749" y="95.0317"/><ellipse cx="764" cy="111.0317" fill="#ADD1B2" rx="11" ry="11" style="stroke: #A80036; stroke-width: 1.0;"/><path d="M763.9688,117.2036 Q762.2188,117.2036 761.0781,116.4692 Q759.9531,115.7192 759.3906,114.3754 Q758.8438,113.0161 758.8438,111.2192 Q758.8438,109.1879 759.5,107.7348 Q760.1563,106.2817 761.4375,105.5004 Q762.7188,104.7192 764.5938,104.7192 Q765.4844,104.7192 766.1563,104.9067 Q766.8281,105.0786 767.5156,105.4223 L766.7031,107.4379 Q766.0781,107.1254 765.5313,107.0004 Q765,106.8754 764.5156,106.8754 Q763.3438,106.8754 762.6406,107.4067 Q761.9375,107.9379 761.6406,108.8911 Q761.3438,109.8442 761.3438,111.1098 Q761.3438,113.1254 762.0625,114.0942 Q762.7813,115.0473 764.375,115.0473 Q764.9688,115.0473 765.5938,114.8911 Q766.2188,114.7348 767.0469,114.3598 L767.0469,116.5786 Q766.3125,116.8911 765.5156,117.0473 Q764.7344,117.2036 763.9688,117.2036 Z "/><text fill="#000000" font-family="sans-serif" font-size="12" lengthAdjust="spacingAndGlyphs" textLength="106" x="778" y="115.6877">MenuErroreApertura</text><line style="stroke: #A80036; stroke-width: 1.5;" x1="750" x2="886" y1="127.0317" y2="127.0317"/><line style="stroke: #A80036; stroke-width: 1.5;" x1="750" x2="886" y1="135.0317" y2="135.0317"/><!--MD5=[74a852f54c2ea3d94783cf68fcd98a5c]
class src.domotix.view.menus.MenuErroreChiusura--><rect fill="#FEFECE" filter="url(#fdaydws2i55zl)" height="48" id="src.domotix.view.menus.MenuErroreChiusura" style="stroke: #A80036; stroke-width: 1.5;" width="139" x="922.5" y="95.0317"/><ellipse cx="937.5" cy="111.0317" fill="#ADD1B2" rx="11" ry="11" style="stroke: #A80036; stroke-width: 1.0;"/><path d="M937.4688,117.2036 Q935.7188,117.2036 934.5781,116.4692 Q933.4531,115.7192 932.8906,114.3754 Q932.3438,113.0161 932.3438,111.2192 Q932.3438,109.1879 933,107.7348 Q933.6563,106.2817 934.9375,105.5004 Q936.2188,104.7192 938.0938,104.7192 Q938.9844,104.7192 939.6563,104.9067 Q940.3281,105.0786 941.0156,105.4223 L940.2031,107.4379 Q939.5781,107.1254 939.0313,107.0004 Q938.5,106.8754 938.0156,106.8754 Q936.8438,106.8754 936.1406,107.4067 Q935.4375,107.9379 935.1406,108.8911 Q934.8438,109.8442 934.8438,111.1098 Q934.8438,113.1254 935.5625,114.0942 Q936.2813,115.0473 937.875,115.0473 Q938.4688,115.0473 939.0938,114.8911 Q939.7188,114.7348 940.5469,114.3598 L940.5469,116.5786 Q939.8125,116.8911 939.0156,117.0473 Q938.2344,117.2036 937.4688,117.2036 Z "/><text fill="#000000" font-family="sans-serif" font-size="12" lengthAdjust="spacingAndGlyphs" textLength="107" x="951.5" y="115.6877">MenuErroreChiusura</text><line style="stroke: #A80036; stroke-width: 1.5;" x1="923.5" x2="1060.5" y1="127.0317" y2="127.0317"/><line style="stroke: #A80036; stroke-width: 1.5;" x1="923.5" x2="1060.5" y1="135.0317" y2="135.0317"/><!--MD5=[aafb8396e2e6c35fb5858e09b610cc55]
class src.domotix.view.menus.MenuAzioniConflitto--><rect fill="#FEFECE" filter="url(#fdaydws2i55zl)" height="182.837" id="src.domotix.view.menus.MenuAzioniConflitto" style="stroke: #A80036; stroke-width: 1.5;" width="265" x="796.5" y="203.0317"/><ellipse cx="870.75" cy="219.0317" fill="#ADD1B2" rx="11" ry="11" style="stroke: #A80036; stroke-width: 1.0;"/><path d="M870.7188,225.2036 Q868.9688,225.2036 867.8281,224.4692 Q866.7031,223.7192 866.1406,222.3754 Q865.5938,221.0161 865.5938,219.2192 Q865.5938,217.1879 866.25,215.7348 Q866.9063,214.2817 868.1875,213.5004 Q869.4688,212.7192 871.3438,212.7192 Q872.2344,212.7192 872.9063,212.9067 Q873.5781,213.0786 874.2656,213.4223 L873.4531,215.4379 Q872.8281,215.1254 872.2813,215.0004 Q871.75,214.8754 871.2656,214.8754 Q870.0938,214.8754 869.3906,215.4067 Q868.6875,215.9379 868.3906,216.8911 Q868.0938,217.8442 868.0938,219.1098 Q868.0938,221.1254 868.8125,222.0942 Q869.5313,223.0473 871.125,223.0473 Q871.7188,223.0473 872.3438,222.8911 Q872.9688,222.7348 873.7969,222.3598 L873.7969,224.5786 Q873.0625,224.8911 872.2656,225.0473 Q871.4844,225.2036 870.7188,225.2036 Z "/><text fill="#000000" font-family="sans-serif" font-size="12" lengthAdjust="spacingAndGlyphs" textLength="108" x="891.25" y="223.6877">MenuAzioniConflitto</text><line style="stroke: #A80036; stroke-width: 1.5;" x1="797.5" x2="1060.5" y1="235.0317" y2="235.0317"/><rect fill="none" height="6" style="stroke: #C82930; stroke-width: 1.0;" width="6" x="804.5" y="243.0317"/><text fill="#000000" font-family="sans-serif" font-size="11" lengthAdjust="spacingAndGlyphs" text-decoration="underline" textLength="82" x="816.5" y="250.7906">NESSUNA : String</text><rect fill="none" height="6" style="stroke: #C82930; stroke-width: 1.0;" width="6" x="804.5" y="258.0136"/><text fill="#000000" font-family="sans-serif" font-size="11" lengthAdjust="spacingAndGlyphs" text-decoration="underline" textLength="114" x="816.5" y="265.7725">TITOLO_ELIMINA : String</text><rect fill="none" height="6" style="stroke: #C82930; stroke-width: 1.0;" width="6" x="804.5" y="272.9955"/><text fill="#000000" font-family="sans-serif" font-size="11" lengthAdjust="spacingAndGlyphs" text-decoration="underline" textLength="110" x="816.5" y="280.7544">TITOLO_ESEGUI : String</text><rect fill="none" height="6" style="stroke: #C82930; stroke-width: 1.0;" width="6" x="804.5" y="287.9774"/><text fill="#000000" font-family="sans-serif" font-size="11" lengthAdjust="spacingAndGlyphs" text-decoration="underline" textLength="239" x="816.5" y="295.7363">AVVISA_PROSEGUIMENTO_DOPO_ELIMINA : String</text><rect fill="none" height="6" style="stroke: #C82930; stroke-width: 1.0;" width="6" x="804.5" y="302.9592"/><text fill="#000000" font-family="sans-serif" font-size="11" lengthAdjust="spacingAndGlyphs" text-decoration="underline" textLength="235" x="816.5" y="310.7182">AVVISA_PROSEGUIMENTO_DOPO_ESEGUI : String</text><rect fill="none" height="6" style="stroke: #C82930; stroke-width: 1.0;" width="6" x="804.5" y="317.9411"/><text fill="#000000" font-family="sans-serif" font-size="11" lengthAdjust="spacingAndGlyphs" text-decoration="underline" textLength="75" x="816.5" y="325.7">menu : MyMenu</text><line style="stroke: #A80036; stroke-width: 1.5;" x1="797.5" x2="1060.5" y1="332.923" y2="332.923"/><ellipse cx="807.5" cy="343.923" fill="#84BE84" rx="3" ry="3" style="stroke: #038048; stroke-width: 1.0;"/><text fill="#000000" font-family="sans-serif" font-size="11" lengthAdjust="spacingAndGlyphs" text-decoration="underline" textLength="30" x="816.5" y="348.6819">avvia()</text><rect fill="#F24D5C" height="6" style="stroke: #C82930; stroke-width: 1.0;" width="6" x="804.5" y="355.9049"/><text fill="#000000" font-family="sans-serif" font-size="11" lengthAdjust="spacingAndGlyphs" text-decoration="underline" textLength="84" x="816.5" y="363.6638">premenuElimina()</text><rect fill="#F24D5C" height="6" style="stroke: #C82930; stroke-width: 1.0;" width="6" x="804.5" y="370.8868"/><text fill="#000000" font-family="sans-serif" font-size="11" lengthAdjust="spacingAndGlyphs" text-decoration="underline" textLength="81" x="816.5" y="378.6457">premenuEsegui()</text><!--MD5=[8bb34a89a0c35167d59833084f0b1bf8]
class src.domotix.view.menus.MenuLogin--><rect fill="#FEFECE" filter="url(#fdaydws2i55zl)" height="48" id="src.domotix.view.menus.MenuLogin" style="stroke: #A80036; stroke-width: 1.5;" width="92" x="622" y="95.0317"/><ellipse cx="637" cy="111.0317" fill="#ADD1B2" rx="11" ry="11" style="stroke: #A80036; stroke-width: 1.0;"/><path d="M636.9688,117.2036 Q635.2188,117.2036 634.0781,116.4692 Q632.9531,115.7192 632.3906,114.3754 Q631.8438,113.0161 631.8438,111.2192 Q631.8438,109.1879 632.5,107.7348 Q633.1563,106.2817 634.4375,105.5004 Q635.7188,104.7192 637.5938,104.7192 Q638.4844,104.7192 639.1563,104.9067 Q639.8281,105.0786 640.5156,105.4223 L639.7031,107.4379 Q639.0781,107.1254 638.5313,107.0004 Q638,106.8754 637.5156,106.8754 Q636.3438,106.8754 635.6406,107.4067 Q634.9375,107.9379 634.6406,108.8911 Q634.3438,109.8442 634.3438,111.1098 Q634.3438,113.1254 635.0625,114.0942 Q635.7813,115.0473 637.375,115.0473 Q637.9688,115.0473 638.5938,114.8911 Q639.2188,114.7348 640.0469,114.3598 L640.0469,116.5786 Q639.3125,116.8911 638.5156,117.0473 Q637.7344,117.2036 636.9688,117.2036 Z "/><text fill="#000000" font-family="sans-serif" font-size="12" lengthAdjust="spacingAndGlyphs" textLength="60" x="651" y="115.6877">MenuLogin</text><line style="stroke: #A80036; stroke-width: 1.5;" x1="623" x2="713" y1="127.0317" y2="127.0317"/><line style="stroke: #A80036; stroke-width: 1.5;" x1="623" x2="713" y1="135.0317" y2="135.0317"/><!--MD5=[bbe7e59fe1154a8b05e9c081f104abcd]
class src.domotix.view.menus.menuPrincipale.MenuFruitore--><rect fill="#FEFECE" filter="url(#fdaydws2i55zl)" height="62.9819" id="src.domotix.view.menus.menuPrincipale.MenuFruitore" style="stroke: #A80036; stroke-width: 1.5;" width="233" x="327.5" y="263.0317"/><ellipse cx="404.25" cy="279.0317" fill="#ADD1B2" rx="11" ry="11" style="stroke: #A80036; stroke-width: 1.0;"/><path d="M404.2188,285.2036 Q402.4688,285.2036 401.3281,284.4692 Q400.2031,283.7192 399.6406,282.3754 Q399.0938,281.0161 399.0938,279.2192 Q399.0938,277.1879 399.75,275.7348 Q400.4063,274.2817 401.6875,273.5004 Q402.9688,272.7192 404.8438,272.7192 Q405.7344,272.7192 406.4063,272.9067 Q407.0781,273.0786 407.7656,273.4223 L406.9531,275.4379 Q406.3281,275.1254 405.7813,275.0004 Q405.25,274.8754 404.7656,274.8754 Q403.5938,274.8754 402.8906,275.4067 Q402.1875,275.9379 401.8906,276.8911 Q401.5938,277.8442 401.5938,279.1098 Q401.5938,281.1254 402.3125,282.0942 Q403.0313,283.0473 404.625,283.0473 Q405.2188,283.0473 405.8438,282.8911 Q406.4688,282.7348 407.2969,282.3598 L407.2969,284.5786 Q406.5625,284.8911 405.7656,285.0473 Q404.9844,285.2036 404.2188,285.2036 Z "/><text fill="#000000" font-family="sans-serif" font-size="12" lengthAdjust="spacingAndGlyphs" textLength="71" x="424.75" y="283.6877">MenuFruitore</text><line style="stroke: #A80036; stroke-width: 1.5;" x1="328.5" x2="559.5" y1="295.0317" y2="295.0317"/><rect fill="none" height="6" style="stroke: #C82930; stroke-width: 1.0;" width="6" x="335.5" y="303.0317"/><text fill="#000000" font-family="sans-serif" font-size="11" lengthAdjust="spacingAndGlyphs" text-decoration="underline" textLength="207" x="347.5" y="310.7906">NESSUNA_AZIONE_PROGRAMMATA : String</text><line style="stroke: #A80036; stroke-width: 1.5;" x1="328.5" x2="559.5" y1="318.0136" y2="318.0136"/><!--MD5=[4905543d80e1cc424a16b65cdb0d5e21]
class src.domotix.view.menus.menuPrincipale.MenuManutentore--><rect fill="#FEFECE" filter="url(#fdaydws2i55zl)" height="48" id="src.domotix.view.menus.menuPrincipale.MenuManutentore" style="stroke: #A80036; stroke-width: 1.5;" width="130" x="596" y="270.5317"/><ellipse cx="611" cy="286.5317" fill="#ADD1B2" rx="11" ry="11" style="stroke: #A80036; stroke-width: 1.0;"/><path d="M610.9688,292.7036 Q609.2188,292.7036 608.0781,291.9692 Q606.9531,291.2192 606.3906,289.8754 Q605.8438,288.5161 605.8438,286.7192 Q605.8438,284.6879 606.5,283.2348 Q607.1563,281.7817 608.4375,281.0004 Q609.7188,280.2192 611.5938,280.2192 Q612.4844,280.2192 613.1563,280.4067 Q613.8281,280.5786 614.5156,280.9223 L613.7031,282.9379 Q613.0781,282.6254 612.5313,282.5004 Q612,282.3754 611.5156,282.3754 Q610.3438,282.3754 609.6406,282.9067 Q608.9375,283.4379 608.6406,284.3911 Q608.3438,285.3442 608.3438,286.6098 Q608.3438,288.6254 609.0625,289.5942 Q609.7813,290.5473 611.375,290.5473 Q611.9688,290.5473 612.5938,290.3911 Q613.2188,290.2348 614.0469,289.8598 L614.0469,292.0786 Q613.3125,292.3911 612.5156,292.5473 Q611.7344,292.7036 610.9688,292.7036 Z "/><text fill="#000000" font-family="sans-serif" font-size="12" lengthAdjust="spacingAndGlyphs" textLength="98" x="625" y="291.1877">MenuManutentore</text><line style="stroke: #A80036; stroke-width: 1.5;" x1="597" x2="725" y1="302.5317" y2="302.5317"/><line style="stroke: #A80036; stroke-width: 1.5;" x1="597" x2="725" y1="310.5317" y2="310.5317"/><!--MD5=[662789c5b67dd3d996627064a0ee64d1]
class src.domotix.view.menus.menuCategorie.MenuCategorieF--><rect fill="#FEFECE" filter="url(#fdaydws2i55zl)" height="48" id="src.domotix.view.menus.menuCategorie.MenuCategorieF" style="stroke: #A80036; stroke-width: 1.5;" width="118" x="385" y="446.0317"/><ellipse cx="400" cy="462.0317" fill="#ADD1B2" rx="11" ry="11" style="stroke: #A80036; stroke-width: 1.0;"/><path d="M399.9688,468.2036 Q398.2188,468.2036 397.0781,467.4692 Q395.9531,466.7192 395.3906,465.3754 Q394.8438,464.0161 394.8438,462.2192 Q394.8438,460.1879 395.5,458.7348 Q396.1563,457.2817 397.4375,456.5004 Q398.7188,455.7192 400.5938,455.7192 Q401.4844,455.7192 402.1563,455.9067 Q402.8281,456.0786 403.5156,456.4223 L402.7031,458.4379 Q402.0781,458.1254 401.5313,458.0004 Q401,457.8754 400.5156,457.8754 Q399.3438,457.8754 398.6406,458.4067 Q397.9375,458.9379 397.6406,459.8911 Q397.3438,460.8442 397.3438,462.1098 Q397.3438,464.1254 398.0625,465.0942 Q398.7813,466.0473 400.375,466.0473 Q400.9688,466.0473 401.5938,465.8911 Q402.2188,465.7348 403.0469,465.3598 L403.0469,467.5786 Q402.3125,467.8911 401.5156,468.0473 Q400.7344,468.2036 399.9688,468.2036 Z "/><text fill="#000000" font-family="sans-serif" font-size="12" lengthAdjust="spacingAndGlyphs" textLength="86" x="414" y="466.6877">MenuCategorieF</text><line style="stroke: #A80036; stroke-width: 1.5;" x1="386" x2="502" y1="478.0317" y2="478.0317"/><line style="stroke: #A80036; stroke-width: 1.5;" x1="386" x2="502" y1="486.0317" y2="486.0317"/><!--MD5=[932ef37b5d39d847f9f820a16bc10099]
class src.domotix.view.menus.menuCategorie.MenuCategorieM--><rect fill="#FEFECE" filter="url(#fdaydws2i55zl)" height="48" id="src.domotix.view.menus.menuCategorie.MenuCategorieM" style="stroke: #A80036; stroke-width: 1.5;" width="122" x="600" y="446.0317"/><ellipse cx="615" cy="462.0317" fill="#ADD1B2" rx="11" ry="11" style="stroke: #A80036; stroke-width: 1.0;"/><path d="M614.9688,468.2036 Q613.2188,468.2036 612.0781,467.4692 Q610.9531,466.7192 610.3906,465.3754 Q609.8438,464.0161 609.8438,462.2192 Q609.8438,460.1879 610.5,458.7348 Q611.1563,457.2817 612.4375,456.5004 Q613.7188,455.7192 615.5938,455.7192 Q616.4844,455.7192 617.1563,455.9067 Q617.8281,456.0786 618.5156,456.4223 L617.7031,458.4379 Q617.0781,458.1254 616.5313,458.0004 Q616,457.8754 615.5156,457.8754 Q614.3438,457.8754 613.6406,458.4067 Q612.9375,458.9379 612.6406,459.8911 Q612.3438,460.8442 612.3438,462.1098 Q612.3438,464.1254 613.0625,465.0942 Q613.7813,466.0473 615.375,466.0473 Q615.9688,466.0473 616.5938,465.8911 Q617.2188,465.7348 618.0469,465.3598 L618.0469,467.5786 Q617.3125,467.8911 616.5156,468.0473 Q615.7344,468.2036 614.9688,468.2036 Z "/><text fill="#000000" font-family="sans-serif" font-size="12" lengthAdjust="spacingAndGlyphs" textLength="90" x="629" y="466.6877">MenuCategorieM</text><line style="stroke: #A80036; stroke-width: 1.5;" x1="601" x2="721" y1="478.0317" y2="478.0317"/><line style="stroke: #A80036; stroke-width: 1.5;" x1="601" x2="721" y1="486.0317" y2="486.0317"/><!--MD5=[d074c1aade7a95907f079a2c2f1577f1]
class src.domotix.view.menus.menuCategorie.sensori.MenuCategorieSensoriF--><rect fill="#FEFECE" filter="url(#fdaydws2i55zl)" height="48" id="src.domotix.view.menus.menuCategorie.sensori.MenuCategorieSensoriF" style="stroke: #A80036; stroke-width: 1.5;" width="156" x="38" y="554.0317"/><ellipse cx="53" cy="570.0317" fill="#ADD1B2" rx="11" ry="11" style="stroke: #A80036; stroke-width: 1.0;"/><path d="M52.9688,576.2036 Q51.2188,576.2036 50.0781,575.4692 Q48.9531,574.7192 48.3906,573.3754 Q47.8438,572.0161 47.8438,570.2192 Q47.8438,568.1879 48.5,566.7348 Q49.1563,565.2817 50.4375,564.5004 Q51.7188,563.7192 53.5938,563.7192 Q54.4844,563.7192 55.1563,563.9067 Q55.8281,564.0786 56.5156,564.4223 L55.7031,566.4379 Q55.0781,566.1254 54.5313,566.0004 Q54,565.8754 53.5156,565.8754 Q52.3438,565.8754 51.6406,566.4067 Q50.9375,566.9379 50.6406,567.8911 Q50.3438,568.8442 50.3438,570.1098 Q50.3438,572.1254 51.0625,573.0942 Q51.7813,574.0473 53.375,574.0473 Q53.9688,574.0473 54.5938,573.8911 Q55.2188,573.7348 56.0469,573.3598 L56.0469,575.5786 Q55.3125,575.8911 54.5156,576.0473 Q53.7344,576.2036 52.9688,576.2036 Z "/><text fill="#000000" font-family="sans-serif" font-size="12" lengthAdjust="spacingAndGlyphs" textLength="124" x="67" y="574.6877">MenuCategorieSensoriF</text><line style="stroke: #A80036; stroke-width: 1.5;" x1="39" x2="193" y1="586.0317" y2="586.0317"/><line style="stroke: #A80036; stroke-width: 1.5;" x1="39" x2="193" y1="594.0317" y2="594.0317"/><!--MD5=[cedddc925446b37d7e67faa811ee66b3]
class src.domotix.view.menus.menuCategorie.sensori.MenuCategorieSensoriM--><rect fill="#FEFECE" filter="url(#fdaydws2i55zl)" height="48" id="src.domotix.view.menus.menuCategorie.sensori.MenuCategorieSensoriM" style="stroke: #A80036; stroke-width: 1.5;" width="160" x="229" y="554.0317"/><ellipse cx="244" cy="570.0317" fill="#ADD1B2" rx="11" ry="11" style="stroke: #A80036; stroke-width: 1.0;"/><path d="M243.9688,576.2036 Q242.2188,576.2036 241.0781,575.4692 Q239.9531,574.7192 239.3906,573.3754 Q238.8438,572.0161 238.8438,570.2192 Q238.8438,568.1879 239.5,566.7348 Q240.1563,565.2817 241.4375,564.5004 Q242.7188,563.7192 244.5938,563.7192 Q245.4844,563.7192 246.1563,563.9067 Q246.8281,564.0786 247.5156,564.4223 L246.7031,566.4379 Q246.0781,566.1254 245.5313,566.0004 Q245,565.8754 244.5156,565.8754 Q243.3438,565.8754 242.6406,566.4067 Q241.9375,566.9379 241.6406,567.8911 Q241.3438,568.8442 241.3438,570.1098 Q241.3438,572.1254 242.0625,573.0942 Q242.7813,574.0473 244.375,574.0473 Q244.9688,574.0473 245.5938,573.8911 Q246.2188,573.7348 247.0469,573.3598 L247.0469,575.5786 Q246.3125,575.8911 245.5156,576.0473 Q244.7344,576.2036 243.9688,576.2036 Z "/><text fill="#000000" font-family="sans-serif" font-size="12" lengthAdjust="spacingAndGlyphs" textLength="128" x="258" y="574.6877">MenuCategorieSensoriM</text><line style="stroke: #A80036; stroke-width: 1.5;" x1="230" x2="388" y1="586.0317" y2="586.0317"/><line style="stroke: #A80036; stroke-width: 1.5;" x1="230" x2="388" y1="594.0317" y2="594.0317"/><!--MD5=[8ca41d897a1f36e0ec13ff146d9018bc]
class src.domotix.view.menus.menuCategorie.attuatori.MenuCategorieAttuatoriF--><rect fill="#FEFECE" filter="url(#fdaydws2i55zl)" height="48" id="src.domotix.view.menus.menuCategorie.attuatori.MenuCategorieAttuatoriF" style="stroke: #A80036; stroke-width: 1.5;" width="164" x="424" y="554.0317"/><ellipse cx="439" cy="570.0317" fill="#ADD1B2" rx="11" ry="11" style="stroke: #A80036; stroke-width: 1.0;"/><path d="M438.9688,576.2036 Q437.2188,576.2036 436.0781,575.4692 Q434.9531,574.7192 434.3906,573.3754 Q433.8438,572.0161 433.8438,570.2192 Q433.8438,568.1879 434.5,566.7348 Q435.1563,565.2817 436.4375,564.5004 Q437.7188,563.7192 439.5938,563.7192 Q440.4844,563.7192 441.1563,563.9067 Q441.8281,564.0786 442.5156,564.4223 L441.7031,566.4379 Q441.0781,566.1254 440.5313,566.0004 Q440,565.8754 439.5156,565.8754 Q438.3438,565.8754 437.6406,566.4067 Q436.9375,566.9379 436.6406,567.8911 Q436.3438,568.8442 436.3438,570.1098 Q436.3438,572.1254 437.0625,573.0942 Q437.7813,574.0473 439.375,574.0473 Q439.9688,574.0473 440.5938,573.8911 Q441.2188,573.7348 442.0469,573.3598 L442.0469,575.5786 Q441.3125,575.8911 440.5156,576.0473 Q439.7344,576.2036 438.9688,576.2036 Z "/><text fill="#000000" font-family="sans-serif" font-size="12" lengthAdjust="spacingAndGlyphs" textLength="132" x="453" y="574.6877">MenuCategorieAttuatoriF</text><line style="stroke: #A80036; stroke-width: 1.5;" x1="425" x2="587" y1="586.0317" y2="586.0317"/><line style="stroke: #A80036; stroke-width: 1.5;" x1="425" x2="587" y1="594.0317" y2="594.0317"/><!--MD5=[0abc97df493079eea983bc81eafb0b86]
class src.domotix.view.menus.menuCategorie.attuatori.MenuCategorieAttuatoriM--><rect fill="#FEFECE" filter="url(#fdaydws2i55zl)" height="48" id="src.domotix.view.menus.menuCategorie.attuatori.MenuCategorieAttuatoriM" style="stroke: #A80036; stroke-width: 1.5;" width="168" x="623" y="554.0317"/><ellipse cx="638" cy="570.0317" fill="#ADD1B2" rx="11" ry="11" style="stroke: #A80036; stroke-width: 1.0;"/><path d="M637.9688,576.2036 Q636.2188,576.2036 635.0781,575.4692 Q633.9531,574.7192 633.3906,573.3754 Q632.8438,572.0161 632.8438,570.2192 Q632.8438,568.1879 633.5,566.7348 Q634.1563,565.2817 635.4375,564.5004 Q636.7188,563.7192 638.5938,563.7192 Q639.4844,563.7192 640.1563,563.9067 Q640.8281,564.0786 641.5156,564.4223 L640.7031,566.4379 Q640.0781,566.1254 639.5313,566.0004 Q639,565.8754 638.5156,565.8754 Q637.3438,565.8754 636.6406,566.4067 Q635.9375,566.9379 635.6406,567.8911 Q635.3438,568.8442 635.3438,570.1098 Q635.3438,572.1254 636.0625,573.0942 Q636.7813,574.0473 638.375,574.0473 Q638.9688,574.0473 639.5938,573.8911 Q640.2188,573.7348 641.0469,573.3598 L641.0469,575.5786 Q640.3125,575.8911 639.5156,576.0473 Q638.7344,576.2036 637.9688,576.2036 Z "/><text fill="#000000" font-family="sans-serif" font-size="12" lengthAdjust="spacingAndGlyphs" textLength="136" x="652" y="574.6877">MenuCategorieAttuatoriM</text><line style="stroke: #A80036; stroke-width: 1.5;" x1="624" x2="790" y1="586.0317" y2="586.0317"/><line style="stroke: #A80036; stroke-width: 1.5;" x1="624" x2="790" y1="594.0317" y2="594.0317"/><!--MD5=[8b91a9f4208df7f50b8566189b12862a]
class src.domotix.view.menus.menuUnita.MenuUnitaM--><rect fill="#FEFECE" filter="url(#fdaydws2i55zl)" height="48" id="src.domotix.view.menus.menuUnita.MenuUnitaM" style="stroke: #A80036; stroke-width: 1.5;" width="100" x="954" y="446.0317"/><ellipse cx="969" cy="462.0317" fill="#ADD1B2" rx="11" ry="11" style="stroke: #A80036; stroke-width: 1.0;"/><path d="M968.9688,468.2036 Q967.2188,468.2036 966.0781,467.4692 Q964.9531,466.7192 964.3906,465.3754 Q963.8438,464.0161 963.8438,462.2192 Q963.8438,460.1879 964.5,458.7348 Q965.1563,457.2817 966.4375,456.5004 Q967.7188,455.7192 969.5938,455.7192 Q970.4844,455.7192 971.1563,455.9067 Q971.8281,456.0786 972.5156,456.4223 L971.7031,458.4379 Q971.0781,458.1254 970.5313,458.0004 Q970,457.8754 969.5156,457.8754 Q968.3438,457.8754 967.6406,458.4067 Q966.9375,458.9379 966.6406,459.8911 Q966.3438,460.8442 966.3438,462.1098 Q966.3438,464.1254 967.0625,465.0942 Q967.7813,466.0473 969.375,466.0473 Q969.9688,466.0473 970.5938,465.8911 Q971.2188,465.7348 972.0469,465.3598 L972.0469,467.5786 Q971.3125,467.8911 970.5156,468.0473 Q969.7344,468.2036 968.9688,468.2036 Z "/><text fill="#000000" font-family="sans-serif" font-size="12" lengthAdjust="spacingAndGlyphs" textLength="68" x="983" y="466.6877">MenuUnitaM</text><line style="stroke: #A80036; stroke-width: 1.5;" x1="955" x2="1053" y1="478.0317" y2="478.0317"/><line style="stroke: #A80036; stroke-width: 1.5;" x1="955" x2="1053" y1="486.0317" y2="486.0317"/><!--MD5=[a0f93abaebba79ab0a8d6b7c582b424a]
class src.domotix.view.menus.menuUnita.MenuUnitaF--><rect fill="#FEFECE" filter="url(#fdaydws2i55zl)" height="48" id="src.domotix.view.menus.menuUnita.MenuUnitaF" style="stroke: #A80036; stroke-width: 1.5;" width="96" x="823" y="446.0317"/><ellipse cx="838" cy="462.0317" fill="#ADD1B2" rx="11" ry="11" style="stroke: #A80036; stroke-width: 1.0;"/><path d="M837.9688,468.2036 Q836.2188,468.2036 835.0781,467.4692 Q833.9531,466.7192 833.3906,465.3754 Q832.8438,464.0161 832.8438,462.2192 Q832.8438,460.1879 833.5,458.7348 Q834.1563,457.2817 835.4375,456.5004 Q836.7188,455.7192 838.5938,455.7192 Q839.4844,455.7192 840.1563,455.9067 Q840.8281,456.0786 841.5156,456.4223 L840.7031,458.4379 Q840.0781,458.1254 839.5313,458.0004 Q839,457.8754 838.5156,457.8754 Q837.3438,457.8754 836.6406,458.4067 Q835.9375,458.9379 835.6406,459.8911 Q835.3438,460.8442 835.3438,462.1098 Q835.3438,464.1254 836.0625,465.0942 Q836.7813,466.0473 838.375,466.0473 Q838.9688,466.0473 839.5938,465.8911 Q840.2188,465.7348 841.0469,465.3598 L841.0469,467.5786 Q840.3125,467.8911 839.5156,468.0473 Q838.7344,468.2036 837.9688,468.2036 Z "/><text fill="#000000" font-family="sans-serif" font-size="12" lengthAdjust="spacingAndGlyphs" textLength="64" x="852" y="466.6877">MenuUnitaF</text><line style="stroke: #A80036; stroke-width: 1.5;" x1="824" x2="918" y1="478.0317" y2="478.0317"/><line style="stroke: #A80036; stroke-width: 1.5;" x1="824" x2="918" y1="486.0317" y2="486.0317"/><!--MD5=[b71e28d46693838dc5614a2818178488]
class src.domotix.controller.Modificatore--><rect fill="#FEFECE" filter="url(#fdaydws2i55zl)" height="48" id="src.domotix.controller.Modificatore" style="stroke: #A80036; stroke-width: 1.5;" width="98" x="592" y="664.0317"/><ellipse cx="607" cy="680.0317" fill="#ADD1B2" rx="11" ry="11" style="stroke: #A80036; stroke-width: 1.0;"/><path d="M606.9688,686.2036 Q605.2188,686.2036 604.0781,685.4692 Q602.9531,684.7192 602.3906,683.3754 Q601.8438,682.0161 601.8438,680.2192 Q601.8438,678.1879 602.5,676.7348 Q603.1563,675.2817 604.4375,674.5004 Q605.7188,673.7192 607.5938,673.7192 Q608.4844,673.7192 609.1563,673.9067 Q609.8281,674.0786 610.5156,674.4223 L609.7031,676.4379 Q609.0781,676.1254 608.5313,676.0004 Q608,675.8754 607.5156,675.8754 Q606.3438,675.8754 605.6406,676.4067 Q604.9375,676.9379 604.6406,677.8911 Q604.3438,678.8442 604.3438,680.1098 Q604.3438,682.1254 605.0625,683.0942 Q605.7813,684.0473 607.375,684.0473 Q607.9688,684.0473 608.5938,683.8911 Q609.2188,683.7348 610.0469,683.3598 L610.0469,685.5786 Q609.3125,685.8911 608.5156,686.0473 Q607.7344,686.2036 606.9688,686.2036 Z "/><text fill="#000000" font-family="sans-serif" font-size="12" lengthAdjust="spacingAndGlyphs" textLength="66" x="621" y="684.6877">Modificatore</text><line style="stroke: #A80036; stroke-width: 1.5;" x1="593" x2="689" y1="696.0317" y2="696.0317"/><line style="stroke: #A80036; stroke-width: 1.5;" x1="593" x2="689" y1="704.0317" y2="704.0317"/><!--MD5=[19e62dc1491eac9c9a34efd24892529b]
class src.domotix.controller.Recuperatore--><rect fill="#FEFECE" filter="url(#fdaydws2i55zl)" height="48" id="src.domotix.controller.Recuperatore" style="stroke: #A80036; stroke-width: 1.5;" width="101" x="455.5" y="664.0317"/><ellipse cx="470.5" cy="680.0317" fill="#ADD1B2" rx="11" ry="11" style="stroke: #A80036; stroke-width: 1.0;"/><path d="M470.4688,686.2036 Q468.7188,686.2036 467.5781,685.4692 Q466.4531,684.7192 465.8906,683.3754 Q465.3438,682.0161 465.3438,680.2192 Q465.3438,678.1879 466,676.7348 Q466.6563,675.2817 467.9375,674.5004 Q469.2188,673.7192 471.0938,673.7192 Q471.9844,673.7192 472.6563,673.9067 Q473.3281,674.0786 474.0156,674.4223 L473.2031,676.4379 Q472.5781,676.1254 472.0313,676.0004 Q471.5,675.8754 471.0156,675.8754 Q469.8438,675.8754 469.1406,676.4067 Q468.4375,676.9379 468.1406,677.8911 Q467.8438,678.8442 467.8438,680.1098 Q467.8438,682.1254 468.5625,683.0942 Q469.2813,684.0473 470.875,684.0473 Q471.4688,684.0473 472.0938,683.8911 Q472.7188,683.7348 473.5469,683.3598 L473.5469,685.5786 Q472.8125,685.8911 472.0156,686.0473 Q471.2344,686.2036 470.4688,686.2036 Z "/><text fill="#000000" font-family="sans-serif" font-size="12" lengthAdjust="spacingAndGlyphs" textLength="69" x="484.5" y="684.6877">Recuperatore</text><line style="stroke: #A80036; stroke-width: 1.5;" x1="456.5" x2="555.5" y1="696.0317" y2="696.0317"/><line style="stroke: #A80036; stroke-width: 1.5;" x1="456.5" x2="555.5" y1="704.0317" y2="704.0317"/><!--MD5=[9367247a66981bc82ef2aa62a3c03f0c]
link src.domotix.view.menus.MenuLogin to src.domotix.view.menus.menuPrincipale--><path d="M696.0241,143.1538 C712.2227,158.6421 731.5946,180.1006 743,203.0317 C747.326,211.7292 750.6129,221.376 753.1102,231.0493 C753.2663,231.6539 753.4193,232.2586 753.5693,232.8632 " fill="none" id="src.domotix.view.menus.MenuLogin-&gt;src.domotix.view.menus.menuPrincipale" style="stroke: #A80036; stroke-width: 1.0;"/><polygon fill="#A80036" points="753.5693,232.8632,755.2846,223.1648,752.3654,228.0103,747.52,225.091,753.5693,232.8632" style="stroke: #A80036; stroke-width: 1.0;"/><!--MD5=[9bba50c7fc893cc97814f952c50d2049]
link src.domotix.view.menus.menuPrincipale.MenuManutentore to src.domotix.view.menus.menuUnita.MenuUnitaM--><path d="M675.6466,318.6627 C690.0039,340.055 713.9332,370.2745 743,386.0317 C819.7016,427.612 857.1904,380.7829 937,416.0317 C951.3654,422.3763 965.23,432.6152 976.583,442.4805 " fill="none" id="src.domotix.view.menus.menuPrincipale.MenuManutentore-&gt;src.domotix.view.menus.menuUnita.MenuUnitaM" style="stroke: #A80036; stroke-width: 1.0;"/><polygon fill="#A80036" points="980.334,445.8056,976.2527,436.8422,976.5925,442.4888,970.9459,442.8286,980.334,445.8056" style="stroke: #A80036; stroke-width: 1.0;"/><!--MD5=[7a90fc7d5210bee4f2c3f91586b7e550]
link src.domotix.view.menus.menuPrincipale.MenuFruitore to src.domotix.view.menus.menuUnita.MenuUnitaF--><path d="M479.9964,326.1442 C505.5526,346.7339 541.6518,372.2457 578,386.0317 C677.2735,423.6836 719.238,370.1784 815,416.0317 C827.6897,422.1079 839.3248,432.1806 848.6623,441.9912 " fill="none" id="src.domotix.view.menus.menuPrincipale.MenuFruitore-&gt;src.domotix.view.menus.menuUnita.MenuUnitaF" style="stroke: #A80036; stroke-width: 1.0;"/><polygon fill="#A80036" points="852.2564,445.8742,849.0784,436.5522,848.86,442.2048,843.2074,441.9864,852.2564,445.8742" style="stroke: #A80036; stroke-width: 1.0;"/><!--MD5=[1d0c6aa5c73d46b02aaf008636991521]
link src.domotix.view.menus.menuPrincipale.MenuManutentore to src.domotix.view.menus.menuCategorie.MenuCategorieM--><path d="M661,318.5662 C661,350.3785 661,406.4306 661,440.7005 " fill="none" id="src.domotix.view.menus.menuPrincipale.MenuManutentore-&gt;src.domotix.view.menus.menuCategorie.MenuCategorieM" style="stroke: #A80036; stroke-width: 1.0;"/><polygon fill="#A80036" points="661,446.0065,665,437.0065,661,441.0065,657,437.0065,661,446.0065" style="stroke: #A80036; stroke-width: 1.0;"/><!--MD5=[4b960eff92c13eb7f6a61450a90f5e15]
link src.domotix.view.menus.menuPrincipale.MenuFruitore to src.domotix.view.menus.menuCategorie.MenuCategorieF--><path d="M444,326.3134 C444,358.8083 444,408.8771 444,440.5219 " fill="none" id="src.domotix.view.menus.menuPrincipale.MenuFruitore-&gt;src.domotix.view.menus.menuCategorie.MenuCategorieF" style="stroke: #A80036; stroke-width: 1.0;"/><polygon fill="#A80036" points="444,445.8221,448,436.8221,444,440.8221,440,436.8221,444,445.8221" style="stroke: #A80036; stroke-width: 1.0;"/><!--MD5=[adac0e828ef7ea1e345e5d871fdf03b6]
link src.domotix.view.menus.menuCategorie.MenuCategorieM to src.domotix.view.menus.menuCategorie.attuatori.MenuCategorieAttuatoriM--><path d="M671.3233,494.269 C678.2481,510.5272 687.4024,532.0199 694.7042,549.1633 " fill="none" id="src.domotix.view.menus.menuCategorie.MenuCategorieM-&gt;src.domotix.view.menus.menuCategorie.attuatori.MenuCategorieAttuatoriM" style="stroke: #A80036; stroke-width: 1.0;"/><polygon fill="#A80036" points="696.7112,553.8753,696.8646,544.0276,694.7519,549.2752,689.5044,547.1625,696.7112,553.8753" style="stroke: #A80036; stroke-width: 1.0;"/><!--MD5=[aefef4ca43c672a9cf0a4c5876f734a3]
link src.domotix.view.menus.menuCategorie.MenuCategorieM to src.domotix.view.menus.menuCategorie.sensori.MenuCategorieSensoriM--><path d="M599.6628,484.3618 C574.9497,490.0285 546.1539,496.4964 520,502.0317 C470.3703,512.5354 455.7114,506.7964 408,524.0317 C388.6443,531.0238 368.4922,541.3784 351.4613,551.1552 " fill="none" id="src.domotix.view.menus.menuCategorie.MenuCategorieM-&gt;src.domotix.view.menus.menuCategorie.sensori.MenuCategorieSensoriM" style="stroke: #A80036; stroke-width: 1.0;"/><polygon fill="#A80036" points="346.7437,553.8942,356.5354,552.8344,351.0677,551.3836,352.5184,545.916,346.7437,553.8942" style="stroke: #A80036; stroke-width: 1.0;"/><!--MD5=[6c859a37dee11511606962bacc5dc5e1]
link src.domotix.view.menus.menuCategorie.MenuCategorieF to src.domotix.view.menus.menuCategorie.attuatori.MenuCategorieAttuatoriF--><path d="M457.914,494.269 C467.2474,510.5272 479.5858,532.0199 489.4274,549.1633 " fill="none" id="src.domotix.view.menus.menuCategorie.MenuCategorieF-&gt;src.domotix.view.menus.menuCategorie.attuatori.MenuCategorieAttuatoriF" style="stroke: #A80036; stroke-width: 1.0;"/><polygon fill="#A80036" points="492.1324,553.8753,491.1205,544.0786,489.643,549.5391,484.1825,548.0616,492.1324,553.8753" style="stroke: #A80036; stroke-width: 1.0;"/><!--MD5=[9623df759dac8aece0661f2108b887e6]
link src.domotix.view.menus.menuCategorie.MenuCategorieF to src.domotix.view.menus.menuCategorie.sensori.MenuCategorieSensoriF--><path d="M384.6605,478.9032 C336.7098,487.2196 268.0512,501.752 211,524.0317 C192.5856,531.2229 173.4221,541.5068 157.1703,551.1742 " fill="none" id="src.domotix.view.menus.menuCategorie.MenuCategorieF-&gt;src.domotix.view.menus.menuCategorie.sensori.MenuCategorieSensoriF" style="stroke: #A80036; stroke-width: 1.0;"/><polygon fill="#A80036" points="152.6668,553.8814,162.4412,552.6728,156.9521,551.3054,158.3196,545.8163,152.6668,553.8814" style="stroke: #A80036; stroke-width: 1.0;"/><!--MD5=[67630319409febaff530f5b075fdb9c9]
link src.domotix.view.menus.menuCategorie.attuatori.MenuCategorieAttuatoriM to src.domotix.controller.Modificatore--><path d="M692.516,602.1717 C682.3715,619.0792 668.7753,641.7395 658.098,659.535 " fill="none" id="src.domotix.view.menus.menuCategorie.attuatori.MenuCategorieAttuatoriM-&gt;src.domotix.controller.Modificatore" style="stroke: #A80036; stroke-width: 1.0;"/><polygon fill="#A80036" points="655.4502,663.948,663.5107,658.2887,658.0228,659.6606,656.6509,654.1726,655.4502,663.948" style="stroke: #A80036; stroke-width: 1.0;"/><!--MD5=[1d96bbc4ef1a6163d1cb499ad0e8388f]
link src.domotix.view.menus.menuCategorie.attuatori.MenuCategorieAttuatoriM to src.domotix.controller.Recuperatore--><path d="M660.552,602.1362 C643.3931,610.4381 623.5941,619.3243 605,626.0317 C591.6151,630.86 586.7384,627.6911 574,634.0317 C560.1774,640.912 546.5306,650.9305 535.1314,660.4749 " fill="none" id="src.domotix.view.menus.menuCategorie.attuatori.MenuCategorieAttuatoriM-&gt;src.domotix.controller.Recuperatore" style="stroke: #A80036; stroke-width: 1.0;"/><polygon fill="#A80036" points="531.0373,663.9631,540.4821,661.1711,534.8432,660.7204,535.2939,655.0816,531.0373,663.9631" style="stroke: #A80036; stroke-width: 1.0;"/><!--MD5=[e5388cecad954251b1b9ce40fb07b107]
link src.domotix.view.menus.menuCategorie.attuatori.MenuCategorieAttuatoriF to src.domotix.controller.Recuperatore--><path d="M506,602.1717 C506,618.7927 506,640.973 506,658.626 " fill="none" id="src.domotix.view.menus.menuCategorie.attuatori.MenuCategorieAttuatoriF-&gt;src.domotix.controller.Recuperatore" style="stroke: #A80036; stroke-width: 1.0;"/><polygon fill="#A80036" points="506,663.948,510,654.948,506,658.948,502,654.948,506,663.948" style="stroke: #A80036; stroke-width: 1.0;"/><!--MD5=[a83117ae442eb64d8f44f6997f8e9240]
link src.domotix.view.menus.menuCategorie.sensori.MenuCategorieSensoriM to src.domotix.controller.Modificatore--><path d="M349.4848,602.2448 C366.8837,611.4187 387.826,620.8846 408,626.0317 C443.7854,635.1617 539.4784,620.9089 574,634.0317 C589.0557,639.7549 603.3134,650.235 614.775,660.4503 " fill="none" id="src.domotix.view.menus.menuCategorie.sensori.MenuCategorieSensoriM-&gt;src.domotix.controller.Modificatore" style="stroke: #A80036; stroke-width: 1.0;"/><polygon fill="#A80036" points="618.5518,663.8972,614.6004,654.8757,614.8586,660.5267,609.2076,660.7849,618.5518,663.8972" style="stroke: #A80036; stroke-width: 1.0;"/><!--MD5=[b2dc2c23412e584a1aea0ff8c94916c1]
link src.domotix.view.menus.menuCategorie.sensori.MenuCategorieSensoriM to src.domotix.controller.Recuperatore--><path d="M352.2325,602.1717 C383.5388,619.6524 425.858,643.2824 458.1753,661.3276 " fill="none" id="src.domotix.view.menus.menuCategorie.sensori.MenuCategorieSensoriM-&gt;src.domotix.controller.Recuperatore" style="stroke: #A80036; stroke-width: 1.0;"/><polygon fill="#A80036" points="462.8684,663.948,456.9606,656.0678,458.5029,661.5103,453.0603,663.0526,462.8684,663.948" style="stroke: #A80036; stroke-width: 1.0;"/><!--MD5=[609b3844c9facd757b89a51e40e4b69a]
link src.domotix.view.menus.menuCategorie.sensori.MenuCategorieSensoriF to src.domotix.controller.Recuperatore--><path d="M157.9942,602.22 C174.1543,610.728 193.0406,619.7292 211,626.0317 C291.933,654.4334 390.1481,671.8808 450.3456,680.759 " fill="none" id="src.domotix.view.menus.menuCategorie.sensori.MenuCategorieSensoriF-&gt;src.domotix.controller.Recuperatore" style="stroke: #A80036; stroke-width: 1.0;"/><polygon fill="#A80036" points="455.3312,681.4875,447.0042,676.2281,450.3837,680.7645,445.8474,684.144,455.3312,681.4875" style="stroke: #A80036; stroke-width: 1.0;"/><!--MD5=[ccd16d8e2bf6890640138acedb9ed920]
link src.domotix.view.menus.menuPrincipale.MenuManutentore to src.domotix.controller.Modificatore--><path d="M675.1515,318.6679 C689.3227,340.3781 713.2687,371.0862 743,386.0317 C808.1978,418.8056 1020.8146,362.1273 1070,416.0317 C1095.763,444.2665 1090.4684,469.7519 1070,502.0317 C987.3609,632.3583 790.8962,671.694 695.2218,683.3096 " fill="none" id="src.domotix.view.menus.menuPrincipale.MenuManutentore-&gt;src.domotix.controller.Modificatore" style="stroke: #A80036; stroke-width: 1.0;"/><polygon fill="#A80036" points="690.1842,683.9068,699.5926,686.8193,695.1494,683.3181,698.6506,678.8749,690.1842,683.9068" style="stroke: #A80036; stroke-width: 1.0;"/><!--MD5=[a5fae502faf55c618ab995889d728872]
link src.domotix.view.menus.MenuErroreApertura to src.domotix.view.menus.MenuErroreChiusura--><!--MD5=[0b4ae70e725917f6ce174057cd32b8f5]
link src.domotix.view.menus.MenuErroreApertura to src.domotix.view.menus.MenuAzioniConflitto--><!--MD5=[82ccb5037d48910ba4db29d1023c982d]
@startuml

title __DOMOTIX > VIEW > MENUS's Class Diagram__\n

namespace src.domotix.view.menus {
    class src.domotix.view.menus.MenuErroreApertura {
    }

    class src.domotix.view.menus.MenuErroreChiusura {
    }

    class src.domotix.view.menus.MenuAzioniConflitto {
        {static} - NESSUNA : String
        {static} - TITOLO_ELIMINA : String
        {static} - TITOLO_ESEGUI : String
        {static} - AVVISA_PROSEGUIMENTO_DOPO_ELIMINA : String
        {static} - AVVISA_PROSEGUIMENTO_DOPO_ESEGUI : String
        {static} - menu : MyMenu
        {static} + avvia()
        {static} - premenuElimina()
        {static} - premenuEsegui()
    }

    class src.domotix.view.menus.MenuLogin {
    }

    namespace menuPrincipale {
        class src.domotix.view.menus.menuPrincipale.MenuFruitore {
            {static} - NESSUNA_AZIONE_PROGRAMMATA : String
        }

        class src.domotix.view.menus.menuPrincipale.MenuManutentore {
        }
    }

    namespace menuCategorie {
        class src.domotix.view.menus.menuCategorie.MenuCategorieF {
        }

        class src.domotix.view.menus.menuCategorie.MenuCategorieM {
        }

        namespace sensori {
            class src.domotix.view.menus.menuCategorie.sensori.MenuCategorieSensoriF {
            }

            class src.domotix.view.menus.menuCategorie.sensori.MenuCategorieSensoriM {
            }
        }

        namespace attuatori {
            class src.domotix.view.menus.menuCategorie.attuatori.MenuCategorieAttuatoriF {
            }

            class src.domotix.view.menus.menuCategorie.attuatori.MenuCategorieAttuatoriM {
            }
        }
    }

    namespace menuUnita {
    }
}

src.domotix.view.menus.MenuLogin - -> src.domotix.view.menus.menuPrincipale
src.domotix.view.menus.menuPrincipale.MenuManutentore - -> src.domotix.view.menus.menuUnita.MenuUnitaM
src.domotix.view.menus.menuPrincipale.MenuFruitore - -> src.domotix.view.menus.menuUnita.MenuUnitaF
src.domotix.view.menus.menuPrincipale.MenuManutentore - -> src.domotix.view.menus.menuCategorie.MenuCategorieM
src.domotix.view.menus.menuPrincipale.MenuFruitore - -> src.domotix.view.menus.menuCategorie.MenuCategorieF
src.domotix.view.menus.menuCategorie.MenuCategorieM - -> src.domotix.view.menus.menuCategorie.attuatori.MenuCategorieAttuatoriM
src.domotix.view.menus.menuCategorie.MenuCategorieM - -> src.domotix.view.menus.menuCategorie.sensori.MenuCategorieSensoriM
src.domotix.view.menus.menuCategorie.MenuCategorieF - -> src.domotix.view.menus.menuCategorie.attuatori.MenuCategorieAttuatoriF
src.domotix.view.menus.menuCategorie.MenuCategorieF - -> src.domotix.view.menus.menuCategorie.sensori.MenuCategorieSensoriF

src.domotix.view.menus.menuCategorie.attuatori.MenuCategorieAttuatoriM - -> src.domotix.controller.Modificatore
src.domotix.view.menus.menuCategorie.attuatori.MenuCategorieAttuatoriM - -> src.domotix.controller.Recuperatore
src.domotix.view.menus.menuCategorie.attuatori.MenuCategorieAttuatoriF - -> src.domotix.controller.Recuperatore
src.domotix.view.menus.menuCategorie.sensori.MenuCategorieSensoriM - -> src.domotix.controller.Modificatore
src.domotix.view.menus.menuCategorie.sensori.MenuCategorieSensoriM - -> src.domotix.controller.Recuperatore
src.domotix.view.menus.menuCategorie.sensori.MenuCategorieSensoriF - -> src.domotix.controller.Recuperatore
src.domotix.view.menus.menuPrincipale.MenuManutentore - -> src.domotix.controller.Modificatore

@enduml

PlantUML version 1.2019.11(Sun Sep 22 12:02:15 CEST 2019)
(GPL source distribution)
Java Runtime: OpenJDK Runtime Environment
JVM: OpenJDK 64-Bit Server VM
Java Version: 11.0.3+12-b304.10
Operating System: Linux
Default Encoding: UTF-8
Language: it
Country: IT
--></g></svg>