<?xml version="1.0" encoding="UTF-8" standalone="no"?><svg xmlns="http://www.w3.org/2000/svg" xmlns:xlink="http://www.w3.org/1999/xlink" contentScriptType="application/ecmascript" contentStyleType="text/css" height="489px" preserveAspectRatio="none" style="width:1044px;height:489px;" version="1.1" viewBox="0 0 1044 489" width="1044px" zoomAndPan="magnify"><defs><filter height="300%" id="f14ns964srobd0" width="300%" x="-1" y="-1"><feGaussianBlur result="blurOut" stdDeviation="2.0"/><feColorMatrix in="blurOut" result="blurOut2" type="matrix" values="0 0 0 0 0 0 0 0 0 0 0 0 0 0 0 0 0 0 .4 0"/><feOffset dx="4.0" dy="4.0" in="blurOut2" result="blurOut3"/><feBlend in="SourceGraphic" in2="blurOut3" mode="normal"/></filter></defs><g><text fill="#000000" font-family="sans-serif" font-size="18" lengthAdjust="spacingAndGlyphs" text-decoration="underline" textLength="477" x="279.5" y="19.2419">DOMOTIX &gt; VIEW &gt; MENUS &gt; MENUUNITA's Class Diagram</text><text fill="#000000" font-family="sans-serif" font-size="18" lengthAdjust="spacingAndGlyphs" textLength="0" x="520" y="43.7577"/><!--MD5=[00517f9916d116c0c4ccaffe7c1b1d29]
cluster src.domotix.view.menus.menuUnita--><polygon fill="#FFFFFF" filter="url(#f14ns964srobd0)" points="14,65.0317,257,65.0317,264,90.0996,768,90.0996,768,383.0317,14,383.0317,14,65.0317" style="stroke: #000000; stroke-width: 1.5;"/><line style="stroke: #000000; stroke-width: 1.5;" x1="14" x2="264" y1="90.0996" y2="90.0996"/><text fill="#000000" font-family="sans-serif" font-size="14" font-weight="bold" lengthAdjust="spacingAndGlyphs" textLength="237" x="18" y="81.9976">src.domotix.view.menus.menuUnita</text><!--MD5=[29e9e250c1a3862b80de2dc1bb3be89a]
cluster src.domotix.view.menus.menuUnita.gestioneUnita--><polygon fill="#FFFFFF" filter="url(#f14ns964srobd0)" points="421,173.0317,521,173.0317,528,198.0996,760,198.0996,760,259.0317,421,259.0317,421,173.0317" style="stroke: #000000; stroke-width: 1.5;"/><line style="stroke: #000000; stroke-width: 1.5;" x1="421" x2="528" y1="198.0996" y2="198.0996"/><text fill="#000000" font-family="sans-serif" font-size="14" font-weight="bold" lengthAdjust="spacingAndGlyphs" textLength="94" x="425" y="189.9976">gestioneUnita</text><!--MD5=[0b88bf459b025cc91fe46fa2e5935608]
cluster src.domotix.view.menus.menuUnita.gestioneStanza--><polygon fill="#FFFFFF" filter="url(#f14ns964srobd0)" points="22,173.0317,129,173.0317,136,198.0996,413,198.0996,413,375.0317,22,375.0317,22,173.0317" style="stroke: #000000; stroke-width: 1.5;"/><line style="stroke: #000000; stroke-width: 1.5;" x1="22" x2="136" y1="198.0996" y2="198.0996"/><text fill="#000000" font-family="sans-serif" font-size="14" font-weight="bold" lengthAdjust="spacingAndGlyphs" textLength="101" x="26" y="189.9976">gestioneStanza</text><!--MD5=[37a522b1e582d7913d7fad3a90ca75e4]
cluster src.domotix.view.menus.menuUnita.gestioneStanza.gestioneArtefatto--><polygon fill="#FFFFFF" filter="url(#f14ns964srobd0)" points="30,281.0317,155,281.0317,162,306.0996,405,306.0996,405,367.0317,30,367.0317,30,281.0317" style="stroke: #000000; stroke-width: 1.5;"/><line style="stroke: #000000; stroke-width: 1.5;" x1="30" x2="162" y1="306.0996" y2="306.0996"/><text fill="#000000" font-family="sans-serif" font-size="14" font-weight="bold" lengthAdjust="spacingAndGlyphs" textLength="119" x="34" y="297.9976">gestioneArtefatto</text><!--MD5=[e3c3ae39643e55df7c1a0329eec479c9]
cluster src.domotix.controller--><polygon fill="#FFFFFF" filter="url(#f14ns964srobd0)" points="464,391.0317,616,391.0317,623,416.0996,715,416.0996,715,477.0317,464,477.0317,464,391.0317" style="stroke: #000000; stroke-width: 1.5;"/><line style="stroke: #000000; stroke-width: 1.5;" x1="464" x2="623" y1="416.0996" y2="416.0996"/><text fill="#000000" font-family="sans-serif" font-size="14" font-weight="bold" lengthAdjust="spacingAndGlyphs" textLength="146" x="468" y="407.9976">src.domotix.controller</text><!--MD5=[a0f93abaebba79ab0a8d6b7c582b424a]
class src.domotix.view.menus.menuUnita.MenuUnitaF--><rect fill="#FEFECE" filter="url(#f14ns964srobd0)" height="48" id="src.domotix.view.menus.menuUnita.MenuUnitaF" style="stroke: #A80036; stroke-width: 1.5;" width="96" x="633" y="95.0317"/><ellipse cx="648" cy="111.0317" fill="#ADD1B2" rx="11" ry="11" style="stroke: #A80036; stroke-width: 1.0;"/><path d="M647.9688,117.2036 Q646.2188,117.2036 645.0781,116.4692 Q643.9531,115.7192 643.3906,114.3754 Q642.8438,113.0161 642.8438,111.2192 Q642.8438,109.1879 643.5,107.7348 Q644.1563,106.2817 645.4375,105.5004 Q646.7188,104.7192 648.5938,104.7192 Q649.4844,104.7192 650.1563,104.9067 Q650.8281,105.0786 651.5156,105.4223 L650.7031,107.4379 Q650.0781,107.1254 649.5313,107.0004 Q649,106.8754 648.5156,106.8754 Q647.3438,106.8754 646.6406,107.4067 Q645.9375,107.9379 645.6406,108.8911 Q645.3438,109.8442 645.3438,111.1098 Q645.3438,113.1254 646.0625,114.0942 Q646.7813,115.0473 648.375,115.0473 Q648.9688,115.0473 649.5938,114.8911 Q650.2188,114.7348 651.0469,114.3598 L651.0469,116.5786 Q650.3125,116.8911 649.5156,117.0473 Q648.7344,117.2036 647.9688,117.2036 Z "/><text fill="#000000" font-family="sans-serif" font-size="12" lengthAdjust="spacingAndGlyphs" textLength="64" x="662" y="115.6877">MenuUnitaF</text><line style="stroke: #A80036; stroke-width: 1.5;" x1="634" x2="728" y1="127.0317" y2="127.0317"/><line style="stroke: #A80036; stroke-width: 1.5;" x1="634" x2="728" y1="135.0317" y2="135.0317"/><!--MD5=[8b91a9f4208df7f50b8566189b12862a]
class src.domotix.view.menus.menuUnita.MenuUnitaM--><rect fill="#FEFECE" filter="url(#f14ns964srobd0)" height="48" id="src.domotix.view.menus.menuUnita.MenuUnitaM" style="stroke: #A80036; stroke-width: 1.5;" width="100" x="452" y="95.0317"/><ellipse cx="467" cy="111.0317" fill="#ADD1B2" rx="11" ry="11" style="stroke: #A80036; stroke-width: 1.0;"/><path d="M466.9688,117.2036 Q465.2188,117.2036 464.0781,116.4692 Q462.9531,115.7192 462.3906,114.3754 Q461.8438,113.0161 461.8438,111.2192 Q461.8438,109.1879 462.5,107.7348 Q463.1563,106.2817 464.4375,105.5004 Q465.7188,104.7192 467.5938,104.7192 Q468.4844,104.7192 469.1563,104.9067 Q469.8281,105.0786 470.5156,105.4223 L469.7031,107.4379 Q469.0781,107.1254 468.5313,107.0004 Q468,106.8754 467.5156,106.8754 Q466.3438,106.8754 465.6406,107.4067 Q464.9375,107.9379 464.6406,108.8911 Q464.3438,109.8442 464.3438,111.1098 Q464.3438,113.1254 465.0625,114.0942 Q465.7813,115.0473 467.375,115.0473 Q467.9688,115.0473 468.5938,114.8911 Q469.2188,114.7348 470.0469,114.3598 L470.0469,116.5786 Q469.3125,116.8911 468.5156,117.0473 Q467.7344,117.2036 466.9688,117.2036 Z "/><text fill="#000000" font-family="sans-serif" font-size="12" lengthAdjust="spacingAndGlyphs" textLength="68" x="481" y="115.6877">MenuUnitaM</text><line style="stroke: #A80036; stroke-width: 1.5;" x1="453" x2="551" y1="127.0317" y2="127.0317"/><line style="stroke: #A80036; stroke-width: 1.5;" x1="453" x2="551" y1="135.0317" y2="135.0317"/><!--MD5=[3d381592564a924f84458acad633e38e]
class src.domotix.view.menus.menuUnita.gestioneUnita.MenuGestioneUnitaF--><rect fill="#FEFECE" filter="url(#f14ns964srobd0)" height="48" id="src.domotix.view.menus.menuUnita.gestioneUnita.MenuGestioneUnitaF" style="stroke: #A80036; stroke-width: 1.5;" width="142" x="610" y="203.0317"/><ellipse cx="625" cy="219.0317" fill="#ADD1B2" rx="11" ry="11" style="stroke: #A80036; stroke-width: 1.0;"/><path d="M624.9688,225.2036 Q623.2188,225.2036 622.0781,224.4692 Q620.9531,223.7192 620.3906,222.3754 Q619.8438,221.0161 619.8438,219.2192 Q619.8438,217.1879 620.5,215.7348 Q621.1563,214.2817 622.4375,213.5004 Q623.7188,212.7192 625.5938,212.7192 Q626.4844,212.7192 627.1563,212.9067 Q627.8281,213.0786 628.5156,213.4223 L627.7031,215.4379 Q627.0781,215.1254 626.5313,215.0004 Q626,214.8754 625.5156,214.8754 Q624.3438,214.8754 623.6406,215.4067 Q622.9375,215.9379 622.6406,216.8911 Q622.3438,217.8442 622.3438,219.1098 Q622.3438,221.1254 623.0625,222.0942 Q623.7813,223.0473 625.375,223.0473 Q625.9688,223.0473 626.5938,222.8911 Q627.2188,222.7348 628.0469,222.3598 L628.0469,224.5786 Q627.3125,224.8911 626.5156,225.0473 Q625.7344,225.2036 624.9688,225.2036 Z "/><text fill="#000000" font-family="sans-serif" font-size="12" lengthAdjust="spacingAndGlyphs" textLength="110" x="639" y="223.6877">MenuGestioneUnitaF</text><line style="stroke: #A80036; stroke-width: 1.5;" x1="611" x2="751" y1="235.0317" y2="235.0317"/><line style="stroke: #A80036; stroke-width: 1.5;" x1="611" x2="751" y1="243.0317" y2="243.0317"/><!--MD5=[1d3b0bf67a3700ccd113d270ccf0d55a]
class src.domotix.view.menus.menuUnita.gestioneUnita.MenuGestioneUnitaM--><rect fill="#FEFECE" filter="url(#f14ns964srobd0)" height="48" id="src.domotix.view.menus.menuUnita.gestioneUnita.MenuGestioneUnitaM" style="stroke: #A80036; stroke-width: 1.5;" width="146" x="429" y="203.0317"/><ellipse cx="444" cy="219.0317" fill="#ADD1B2" rx="11" ry="11" style="stroke: #A80036; stroke-width: 1.0;"/><path d="M443.9688,225.2036 Q442.2188,225.2036 441.0781,224.4692 Q439.9531,223.7192 439.3906,222.3754 Q438.8438,221.0161 438.8438,219.2192 Q438.8438,217.1879 439.5,215.7348 Q440.1563,214.2817 441.4375,213.5004 Q442.7188,212.7192 444.5938,212.7192 Q445.4844,212.7192 446.1563,212.9067 Q446.8281,213.0786 447.5156,213.4223 L446.7031,215.4379 Q446.0781,215.1254 445.5313,215.0004 Q445,214.8754 444.5156,214.8754 Q443.3438,214.8754 442.6406,215.4067 Q441.9375,215.9379 441.6406,216.8911 Q441.3438,217.8442 441.3438,219.1098 Q441.3438,221.1254 442.0625,222.0942 Q442.7813,223.0473 444.375,223.0473 Q444.9688,223.0473 445.5938,222.8911 Q446.2188,222.7348 447.0469,222.3598 L447.0469,224.5786 Q446.3125,224.8911 445.5156,225.0473 Q444.7344,225.2036 443.9688,225.2036 Z "/><text fill="#000000" font-family="sans-serif" font-size="12" lengthAdjust="spacingAndGlyphs" textLength="114" x="458" y="223.6877">MenuGestioneUnitaM</text><line style="stroke: #A80036; stroke-width: 1.5;" x1="430" x2="574" y1="235.0317" y2="235.0317"/><line style="stroke: #A80036; stroke-width: 1.5;" x1="430" x2="574" y1="243.0317" y2="243.0317"/><!--MD5=[1dfc6043be6eade5c03735f1a83b88ae]
class src.domotix.view.menus.menuUnita.gestioneStanza.MenuGestioneStanzaF--><rect fill="#FEFECE" filter="url(#f14ns964srobd0)" height="48" id="src.domotix.view.menus.menuUnita.gestioneStanza.MenuGestioneStanzaF" style="stroke: #A80036; stroke-width: 1.5;" width="148" x="246" y="203.0317"/><ellipse cx="261" cy="219.0317" fill="#ADD1B2" rx="11" ry="11" style="stroke: #A80036; stroke-width: 1.0;"/><path d="M260.9688,225.2036 Q259.2188,225.2036 258.0781,224.4692 Q256.9531,223.7192 256.3906,222.3754 Q255.8438,221.0161 255.8438,219.2192 Q255.8438,217.1879 256.5,215.7348 Q257.1563,214.2817 258.4375,213.5004 Q259.7188,212.7192 261.5938,212.7192 Q262.4844,212.7192 263.1563,212.9067 Q263.8281,213.0786 264.5156,213.4223 L263.7031,215.4379 Q263.0781,215.1254 262.5313,215.0004 Q262,214.8754 261.5156,214.8754 Q260.3438,214.8754 259.6406,215.4067 Q258.9375,215.9379 258.6406,216.8911 Q258.3438,217.8442 258.3438,219.1098 Q258.3438,221.1254 259.0625,222.0942 Q259.7813,223.0473 261.375,223.0473 Q261.9688,223.0473 262.5938,222.8911 Q263.2188,222.7348 264.0469,222.3598 L264.0469,224.5786 Q263.3125,224.8911 262.5156,225.0473 Q261.7344,225.2036 260.9688,225.2036 Z "/><text fill="#000000" font-family="sans-serif" font-size="12" lengthAdjust="spacingAndGlyphs" textLength="116" x="275" y="223.6877">MenuGestioneStanzaF</text><line style="stroke: #A80036; stroke-width: 1.5;" x1="247" x2="393" y1="235.0317" y2="235.0317"/><line style="stroke: #A80036; stroke-width: 1.5;" x1="247" x2="393" y1="243.0317" y2="243.0317"/><!--MD5=[5797b409120e347596d4fd12893fa805]
class src.domotix.view.menus.menuUnita.gestioneStanza.MenuGestioneStanzaM--><rect fill="#FEFECE" filter="url(#f14ns964srobd0)" height="48" id="src.domotix.view.menus.menuUnita.gestioneStanza.MenuGestioneStanzaM" style="stroke: #A80036; stroke-width: 1.5;" width="152" x="59" y="203.0317"/><ellipse cx="74" cy="219.0317" fill="#ADD1B2" rx="11" ry="11" style="stroke: #A80036; stroke-width: 1.0;"/><path d="M73.9688,225.2036 Q72.2188,225.2036 71.0781,224.4692 Q69.9531,223.7192 69.3906,222.3754 Q68.8438,221.0161 68.8438,219.2192 Q68.8438,217.1879 69.5,215.7348 Q70.1563,214.2817 71.4375,213.5004 Q72.7188,212.7192 74.5938,212.7192 Q75.4844,212.7192 76.1563,212.9067 Q76.8281,213.0786 77.5156,213.4223 L76.7031,215.4379 Q76.0781,215.1254 75.5313,215.0004 Q75,214.8754 74.5156,214.8754 Q73.3438,214.8754 72.6406,215.4067 Q71.9375,215.9379 71.6406,216.8911 Q71.3438,217.8442 71.3438,219.1098 Q71.3438,221.1254 72.0625,222.0942 Q72.7813,223.0473 74.375,223.0473 Q74.9688,223.0473 75.5938,222.8911 Q76.2188,222.7348 77.0469,222.3598 L77.0469,224.5786 Q76.3125,224.8911 75.5156,225.0473 Q74.7344,225.2036 73.9688,225.2036 Z "/><text fill="#000000" font-family="sans-serif" font-size="12" lengthAdjust="spacingAndGlyphs" textLength="120" x="88" y="223.6877">MenuGestioneStanzaM</text><line style="stroke: #A80036; stroke-width: 1.5;" x1="60" x2="210" y1="235.0317" y2="235.0317"/><line style="stroke: #A80036; stroke-width: 1.5;" x1="60" x2="210" y1="243.0317" y2="243.0317"/><!--MD5=[18f140b689ad54737b31747d792ddd1e]
class src.domotix.view.menus.menuUnita.gestioneStanza.gestioneArtefatto.MenuGestioneArtefattoF--><rect fill="#FEFECE" filter="url(#f14ns964srobd0)" height="48" id="src.domotix.view.menus.menuUnita.gestioneStanza.gestioneArtefatto.MenuGestioneArtefattoF" style="stroke: #A80036; stroke-width: 1.5;" width="160" x="237" y="311.0317"/><ellipse cx="252" cy="327.0317" fill="#ADD1B2" rx="11" ry="11" style="stroke: #A80036; stroke-width: 1.0;"/><path d="M251.9688,333.2036 Q250.2188,333.2036 249.0781,332.4692 Q247.9531,331.7192 247.3906,330.3754 Q246.8438,329.0161 246.8438,327.2192 Q246.8438,325.1879 247.5,323.7348 Q248.1563,322.2817 249.4375,321.5004 Q250.7188,320.7192 252.5938,320.7192 Q253.4844,320.7192 254.1563,320.9067 Q254.8281,321.0786 255.5156,321.4223 L254.7031,323.4379 Q254.0781,323.1254 253.5313,323.0004 Q253,322.8754 252.5156,322.8754 Q251.3438,322.8754 250.6406,323.4067 Q249.9375,323.9379 249.6406,324.8911 Q249.3438,325.8442 249.3438,327.1098 Q249.3438,329.1254 250.0625,330.0942 Q250.7813,331.0473 252.375,331.0473 Q252.9688,331.0473 253.5938,330.8911 Q254.2188,330.7348 255.0469,330.3598 L255.0469,332.5786 Q254.3125,332.8911 253.5156,333.0473 Q252.7344,333.2036 251.9688,333.2036 Z "/><text fill="#000000" font-family="sans-serif" font-size="12" lengthAdjust="spacingAndGlyphs" textLength="128" x="266" y="331.6877">MenuGestioneArtefattoF</text><line style="stroke: #A80036; stroke-width: 1.5;" x1="238" x2="396" y1="343.0317" y2="343.0317"/><line style="stroke: #A80036; stroke-width: 1.5;" x1="238" x2="396" y1="351.0317" y2="351.0317"/><!--MD5=[b6e968ea7baf8505b035edfad6c0ea72]
class src.domotix.view.menus.menuUnita.gestioneStanza.gestioneArtefatto.MenuGestioneArtefattoM--><rect fill="#FEFECE" filter="url(#f14ns964srobd0)" height="48" id="src.domotix.view.menus.menuUnita.gestioneStanza.gestioneArtefatto.MenuGestioneArtefattoM" style="stroke: #A80036; stroke-width: 1.5;" width="164" x="38" y="311.0317"/><ellipse cx="53" cy="327.0317" fill="#ADD1B2" rx="11" ry="11" style="stroke: #A80036; stroke-width: 1.0;"/><path d="M52.9688,333.2036 Q51.2188,333.2036 50.0781,332.4692 Q48.9531,331.7192 48.3906,330.3754 Q47.8438,329.0161 47.8438,327.2192 Q47.8438,325.1879 48.5,323.7348 Q49.1563,322.2817 50.4375,321.5004 Q51.7188,320.7192 53.5938,320.7192 Q54.4844,320.7192 55.1563,320.9067 Q55.8281,321.0786 56.5156,321.4223 L55.7031,323.4379 Q55.0781,323.1254 54.5313,323.0004 Q54,322.8754 53.5156,322.8754 Q52.3438,322.8754 51.6406,323.4067 Q50.9375,323.9379 50.6406,324.8911 Q50.3438,325.8442 50.3438,327.1098 Q50.3438,329.1254 51.0625,330.0942 Q51.7813,331.0473 53.375,331.0473 Q53.9688,331.0473 54.5938,330.8911 Q55.2188,330.7348 56.0469,330.3598 L56.0469,332.5786 Q55.3125,332.8911 54.5156,333.0473 Q53.7344,333.2036 52.9688,333.2036 Z "/><text fill="#000000" font-family="sans-serif" font-size="12" lengthAdjust="spacingAndGlyphs" textLength="132" x="67" y="331.6877">MenuGestioneArtefattoM</text><line style="stroke: #A80036; stroke-width: 1.5;" x1="39" x2="201" y1="343.0317" y2="343.0317"/><line style="stroke: #A80036; stroke-width: 1.5;" x1="39" x2="201" y1="351.0317" y2="351.0317"/><!--MD5=[19e62dc1491eac9c9a34efd24892529b]
class src.domotix.controller.Recuperatore--><rect fill="#FEFECE" filter="url(#f14ns964srobd0)" height="48" id="src.domotix.controller.Recuperatore" style="stroke: #A80036; stroke-width: 1.5;" width="101" x="605.5" y="421.0317"/><ellipse cx="620.5" cy="437.0317" fill="#ADD1B2" rx="11" ry="11" style="stroke: #A80036; stroke-width: 1.0;"/><path d="M620.4688,443.2036 Q618.7188,443.2036 617.5781,442.4692 Q616.4531,441.7192 615.8906,440.3754 Q615.3438,439.0161 615.3438,437.2192 Q615.3438,435.1879 616,433.7348 Q616.6563,432.2817 617.9375,431.5004 Q619.2188,430.7192 621.0938,430.7192 Q621.9844,430.7192 622.6563,430.9067 Q623.3281,431.0786 624.0156,431.4223 L623.2031,433.4379 Q622.5781,433.1254 622.0313,433.0004 Q621.5,432.8754 621.0156,432.8754 Q619.8438,432.8754 619.1406,433.4067 Q618.4375,433.9379 618.1406,434.8911 Q617.8438,435.8442 617.8438,437.1098 Q617.8438,439.1254 618.5625,440.0942 Q619.2813,441.0473 620.875,441.0473 Q621.4688,441.0473 622.0938,440.8911 Q622.7188,440.7348 623.5469,440.3598 L623.5469,442.5786 Q622.8125,442.8911 622.0156,443.0473 Q621.2344,443.2036 620.4688,443.2036 Z "/><text fill="#000000" font-family="sans-serif" font-size="12" lengthAdjust="spacingAndGlyphs" textLength="69" x="634.5" y="441.6877">Recuperatore</text><line style="stroke: #A80036; stroke-width: 1.5;" x1="606.5" x2="705.5" y1="453.0317" y2="453.0317"/><line style="stroke: #A80036; stroke-width: 1.5;" x1="606.5" x2="705.5" y1="461.0317" y2="461.0317"/><!--MD5=[b71e28d46693838dc5614a2818178488]
class src.domotix.controller.Modificatore--><rect fill="#FEFECE" filter="url(#f14ns964srobd0)" height="48" id="src.domotix.controller.Modificatore" style="stroke: #A80036; stroke-width: 1.5;" width="98" x="472" y="421.0317"/><ellipse cx="487" cy="437.0317" fill="#ADD1B2" rx="11" ry="11" style="stroke: #A80036; stroke-width: 1.0;"/><path d="M486.9688,443.2036 Q485.2188,443.2036 484.0781,442.4692 Q482.9531,441.7192 482.3906,440.3754 Q481.8438,439.0161 481.8438,437.2192 Q481.8438,435.1879 482.5,433.7348 Q483.1563,432.2817 484.4375,431.5004 Q485.7188,430.7192 487.5938,430.7192 Q488.4844,430.7192 489.1563,430.9067 Q489.8281,431.0786 490.5156,431.4223 L489.7031,433.4379 Q489.0781,433.1254 488.5313,433.0004 Q488,432.8754 487.5156,432.8754 Q486.3438,432.8754 485.6406,433.4067 Q484.9375,433.9379 484.6406,434.8911 Q484.3438,435.8442 484.3438,437.1098 Q484.3438,439.1254 485.0625,440.0942 Q485.7813,441.0473 487.375,441.0473 Q487.9688,441.0473 488.5938,440.8911 Q489.2188,440.7348 490.0469,440.3598 L490.0469,442.5786 Q489.3125,442.8911 488.5156,443.0473 Q487.7344,443.2036 486.9688,443.2036 Z "/><text fill="#000000" font-family="sans-serif" font-size="12" lengthAdjust="spacingAndGlyphs" textLength="66" x="501" y="441.6877">Modificatore</text><line style="stroke: #A80036; stroke-width: 1.5;" x1="473" x2="569" y1="453.0317" y2="453.0317"/><line style="stroke: #A80036; stroke-width: 1.5;" x1="473" x2="569" y1="461.0317" y2="461.0317"/><!--MD5=[99b8393402cccebe7e68cbcd2477afca]
link src.domotix.view.menus.menuUnita.MenuUnitaM to src.domotix.view.menus.menuUnita.gestioneUnita.MenuGestioneUnitaM--><path d="M502,143.269 C502,159.3882 502,180.6529 502,197.7228 " fill="none" id="src.domotix.view.menus.menuUnita.MenuUnitaM-&gt;src.domotix.view.menus.menuUnita.gestioneUnita.MenuGestioneUnitaM" style="stroke: #A80036; stroke-width: 1.0;"/><polygon fill="#A80036" points="502,202.8753,506,193.8753,502,197.8753,498,193.8753,502,202.8753" style="stroke: #A80036; stroke-width: 1.0;"/><!--MD5=[d17eddab381dd94cab76bd28b93f25c4]
link src.domotix.view.menus.menuUnita.MenuUnitaM to src.domotix.view.menus.menuUnita.gestioneStanza.MenuGestioneStanzaM--><path d="M451.8433,123.9913 C396.0409,130.6342 303.8804,144.9868 229,173.0317 C210.4731,179.9706 191.3122,190.3157 175.1618,200.0998 " fill="none" id="src.domotix.view.menus.menuUnita.MenuUnitaM-&gt;src.domotix.view.menus.menuUnita.gestioneStanza.MenuGestioneStanzaM" style="stroke: #A80036; stroke-width: 1.0;"/><polygon fill="#A80036" points="170.6894,202.8412,180.453,201.5482,174.9523,200.2282,176.2723,194.7275,170.6894,202.8412" style="stroke: #A80036; stroke-width: 1.0;"/><!--MD5=[15ffd562c1e721076fe3e78925f44527]
link src.domotix.view.menus.menuUnita.gestioneStanza.MenuGestioneStanzaM to src.domotix.view.menus.menuUnita.gestioneStanza.gestioneArtefatto.MenuGestioneArtefattoM--><path d="M131.6337,251.269 C129.3949,267.3882 126.4415,288.6529 124.0707,305.7228 " fill="none" id="src.domotix.view.menus.menuUnita.gestioneStanza.MenuGestioneStanzaM-&gt;src.domotix.view.menus.menuUnita.gestioneStanza.gestioneArtefatto.MenuGestioneArtefattoM" style="stroke: #A80036; stroke-width: 1.0;"/><polygon fill="#A80036" points="123.3551,310.8753,128.5555,302.5113,124.0431,305.9229,120.6316,301.4105,123.3551,310.8753" style="stroke: #A80036; stroke-width: 1.0;"/><!--MD5=[033facd939b8d2ef5ed21de9716796e1]
link src.domotix.view.menus.menuUnita.MenuUnitaF to src.domotix.view.menus.menuUnita.gestioneUnita.MenuGestioneUnitaF--><path d="M681,143.269 C681,159.3882 681,180.6529 681,197.7228 " fill="none" id="src.domotix.view.menus.menuUnita.MenuUnitaF-&gt;src.domotix.view.menus.menuUnita.gestioneUnita.MenuGestioneUnitaF" style="stroke: #A80036; stroke-width: 1.0;"/><polygon fill="#A80036" points="681,202.8753,685,193.8753,681,197.8753,677,193.8753,681,202.8753" style="stroke: #A80036; stroke-width: 1.0;"/><!--MD5=[0de1132eb80b295cf1383eaf2f9304c0]
link src.domotix.view.menus.menuUnita.MenuUnitaF to src.domotix.view.menus.menuUnita.gestioneStanza.MenuGestioneStanzaF--><path d="M632.973,129.6806 C613.4551,133.9392 590.6721,138.8225 570,143.0317 C500.3882,157.206 479.5503,148.1766 413,173.0317 C394.6148,179.8982 375.6478,190.2304 359.6767,200.0243 " fill="none" id="src.domotix.view.menus.menuUnita.MenuUnitaF-&gt;src.domotix.view.menus.menuUnita.gestioneStanza.MenuGestioneStanzaF" style="stroke: #A80036; stroke-width: 1.0;"/><polygon fill="#A80036" points="355.2545,202.7691,365.0107,201.4214,359.5027,200.1323,360.7918,194.6243,355.2545,202.7691" style="stroke: #A80036; stroke-width: 1.0;"/><!--MD5=[9f9094fb9db9455906e26dbe2766b1bf]
link src.domotix.view.menus.menuUnita.gestioneStanza.MenuGestioneStanzaF to src.domotix.view.menus.menuUnita.gestioneStanza.gestioneArtefatto.MenuGestioneArtefattoF--><path d="M319.3267,251.269 C318.879,267.3882 318.2883,288.6529 317.8141,305.7228 " fill="none" id="src.domotix.view.menus.menuUnita.gestioneStanza.MenuGestioneStanzaF-&gt;src.domotix.view.menus.menuUnita.gestioneStanza.gestioneArtefatto.MenuGestioneArtefattoF" style="stroke: #A80036; stroke-width: 1.0;"/><polygon fill="#A80036" points="317.671,310.8753,321.9194,301.9898,317.8099,305.8772,313.9225,301.7677,317.671,310.8753" style="stroke: #A80036; stroke-width: 1.0;"/><!--MD5=[36417f8139c138a2f3f9bd3c0aaa66e6]
link src.domotix.view.menus.menuUnita.MenuUnitaM to src.domotix.controller.Recuperatore--><path d="M552.1966,129.7422 C572.0562,133.9423 595.0924,138.7678 616,143.0317 C683.47,156.7915 708.0518,139.1533 768,173.0317 C824.4284,204.921 842.6555,220.5658 866,281.0317 C882.3275,323.3226 893.1403,346.7204 866,383.0317 C847.443,407.8593 767.3106,426.2149 711.5832,436.2691 " fill="none" id="src.domotix.view.menus.menuUnita.MenuUnitaM-&gt;src.domotix.controller.Recuperatore" style="stroke: #A80036; stroke-width: 1.0;"/><polygon fill="#A80036" points="706.6066,437.1568,716.1691,439.5143,711.5289,436.2788,714.7644,431.6386,706.6066,437.1568" style="stroke: #A80036; stroke-width: 1.0;"/><!--MD5=[0559db1db5d75f3d869742205ac36c41]
link src.domotix.view.menus.menuUnita.MenuUnitaF to src.domotix.controller.Recuperatore--><path d="M729.1879,120.7448 C803.9653,124.5295 942.5408,136.4231 973,173.0317 C1032.6951,244.7785 1032.3255,310.979 973,383.0317 C940.5627,422.4277 794.0193,437.1445 712.0135,442.3607 " fill="none" id="src.domotix.view.menus.menuUnita.MenuUnitaF-&gt;src.domotix.controller.Recuperatore" style="stroke: #A80036; stroke-width: 1.0;"/><polygon fill="#A80036" points="706.7071,442.6907,715.9381,446.1242,711.6975,442.3803,715.4414,438.1396,706.7071,442.6907" style="stroke: #A80036; stroke-width: 1.0;"/><!--MD5=[6ccaaae2a499aacdc9a464fd1053e56d]
link src.domotix.view.menus.menuUnita.gestioneUnita.MenuGestioneUnitaM to src.domotix.controller.Modificatore--><path d="M528.088,251.0368 C535.6866,259.6684 543.0118,270.0161 547,281.0317 C562.4326,323.6573 555.9415,338.5889 547,383.0317 C544.7241,394.3439 540.3287,406.1651 535.7901,416.4153 " fill="none" id="src.domotix.view.menus.menuUnita.gestioneUnita.MenuGestioneUnitaM-&gt;src.domotix.controller.Modificatore" style="stroke: #A80036; stroke-width: 1.0;"/><polygon fill="#A80036" points="533.7018,421.0068,541.0689,414.4703,535.7718,416.4554,533.7867,411.1583,533.7018,421.0068" style="stroke: #A80036; stroke-width: 1.0;"/><!--MD5=[ff9b3d4150a1d7d40686c6e5d19e1210]
link src.domotix.view.menus.menuUnita.gestioneUnita.MenuGestioneUnitaM to src.domotix.controller.Recuperatore--><path d="M565.1397,251.1168 C574.3932,254.0947 583.8785,256.852 593,259.0317 C629.4067,267.7315 735.3207,252.888 760,281.0317 C789.8889,315.1163 782.3915,343.6143 760,383.0317 C749.2799,401.9031 730.2896,415.6375 711.4441,425.3087 " fill="none" id="src.domotix.view.menus.menuUnita.gestioneUnita.MenuGestioneUnitaM-&gt;src.domotix.controller.Recuperatore" style="stroke: #A80036; stroke-width: 1.0;"/><polygon fill="#A80036" points="706.6611,427.6806,716.5012,427.2656,711.1405,425.4592,712.9469,420.0985,706.6611,427.6806" style="stroke: #A80036; stroke-width: 1.0;"/><!--MD5=[aaf876d14119c83b9d14dd16e7070cf2]
link src.domotix.view.menus.menuUnita.gestioneUnita.MenuGestioneUnitaF to src.domotix.controller.Recuperatore--><path d="M752.0554,244.2174 C785.9173,253.9897 821.1724,267.0488 831,281.0317 C857.0673,318.1209 857.1612,346.0087 831,383.0317 C816.822,403.0963 757.4733,421.2501 711.779,432.6537 " fill="none" id="src.domotix.view.menus.menuUnita.gestioneUnita.MenuGestioneUnitaF-&gt;src.domotix.controller.Recuperatore" style="stroke: #A80036; stroke-width: 1.0;"/><polygon fill="#A80036" points="706.8413,433.8731,716.5379,435.5985,711.6954,432.6742,714.6197,427.8318,706.8413,433.8731" style="stroke: #A80036; stroke-width: 1.0;"/><!--MD5=[57075c2f82fec43d68bbe9396874f6a8]
link src.domotix.view.menus.menuUnita.gestioneStanza.MenuGestioneStanzaM to src.domotix.controller.Modificatore--><path d="M199.9809,251.1093 C209.6182,254.1073 219.5023,256.8723 229,259.0317 C269.1553,268.1614 378.6153,258.3713 413,281.0317 C456.7289,309.8501 442.5758,339.7081 472,383.0317 C479.7577,394.4539 488.9887,406.4774 497.3358,416.8641 " fill="none" id="src.domotix.view.menus.menuUnita.gestioneStanza.MenuGestioneStanzaM-&gt;src.domotix.controller.Modificatore" style="stroke: #A80036; stroke-width: 1.0;"/><polygon fill="#A80036" points="500.6076,420.9087,498.057,411.3958,497.4629,417.0214,491.8373,416.4274,500.6076,420.9087" style="stroke: #A80036; stroke-width: 1.0;"/><!--MD5=[7aeab9784cbcd0a3dd5dfc47bae7f10c]
link src.domotix.view.menus.menuUnita.gestioneStanza.MenuGestioneStanzaM to src.domotix.controller.Recuperatore--><path d="M199.1613,251.1085 C209.0478,254.1656 219.2209,256.9478 229,259.0317 C333.3288,281.2638 369.9395,239.0447 468,281.0317 C538.686,311.2977 601.7455,378.4562 633.762,416.7832 " fill="none" id="src.domotix.view.menus.menuUnita.gestioneStanza.MenuGestioneStanzaM-&gt;src.domotix.controller.Recuperatore" style="stroke: #A80036; stroke-width: 1.0;"/><polygon fill="#A80036" points="637.137,420.8548,634.4728,411.3731,633.946,417.0054,628.3138,416.4787,637.137,420.8548" style="stroke: #A80036; stroke-width: 1.0;"/><!--MD5=[ab4865756c30f0dfeae676e840b3d9e8]
link src.domotix.view.menus.menuUnita.gestioneStanza.MenuGestioneStanzaF to src.domotix.controller.Recuperatore--><path d="M383.7471,251.0638 C393.4467,254.1072 403.4168,256.8972 413,259.0317 C457.7213,268.9924 583.7061,250.6485 618,281.0317 C656.0521,314.7446 659.9374,378.3597 658.5187,415.6768 " fill="none" id="src.domotix.view.menus.menuUnita.gestioneStanza.MenuGestioneStanzaF-&gt;src.domotix.controller.Recuperatore" style="stroke: #A80036; stroke-width: 1.0;"/><polygon fill="#A80036" points="658.2744,420.9851,662.6842,412.1786,658.5044,415.9904,654.6926,411.8106,658.2744,420.9851" style="stroke: #A80036; stroke-width: 1.0;"/><!--MD5=[cc75cb6831e77bfb88190900b6179deb]
link src.domotix.view.menus.menuUnita.gestioneStanza.MenuGestioneStanzaF to src.domotix.controller.Modificatore--><path d="M389.6511,251.0436 C431.1279,265.3584 475.7903,280.8078 476,281.0317 C510.7224,318.1042 519.0989,379.4151 520.8585,415.6439 " fill="none" id="src.domotix.view.menus.menuUnita.gestioneStanza.MenuGestioneStanzaF-&gt;src.domotix.controller.Modificatore" style="stroke: #A80036; stroke-width: 1.0;"/><polygon fill="#A80036" points="521.0725,420.8013,524.6959,411.6432,520.8652,415.8056,516.7028,411.9749,521.0725,420.8013" style="stroke: #A80036; stroke-width: 1.0;"/><!--MD5=[cb7e25c81c1e53eb5eac757602a45117]
link src.domotix.view.menus.menuUnita.gestioneStanza.gestioneArtefatto.MenuGestioneArtefattoM to src.domotix.controller.Modificatore--><path d="M164.322,359.18 C181.3463,367.6834 201.2052,376.6919 220,383.0317 C303.9628,411.3536 405.6687,429.0223 466.7574,437.9402 " fill="none" id="src.domotix.view.menus.menuUnita.gestioneStanza.gestioneArtefatto.MenuGestioneArtefattoM-&gt;src.domotix.controller.Modificatore" style="stroke: #A80036; stroke-width: 1.0;"/><polygon fill="#A80036" points="471.8118,438.6716,463.4775,433.4238,466.8634,437.9554,462.3317,441.3413,471.8118,438.6716" style="stroke: #A80036; stroke-width: 1.0;"/><!--MD5=[cfc3b61bcfc2e576146d5904add0cd07]
link src.domotix.view.menus.menuUnita.gestioneStanza.gestioneArtefatto.MenuGestioneArtefattoM to src.domotix.controller.Recuperatore--><path d="M160.3737,359.2554 C178.0367,368.5521 199.3971,378.107 220,383.0317 C259.778,392.5398 549.5313,377.1445 588,391.0317 C603.4147,396.5964 618.0001,407.1728 629.6807,417.5009 " fill="none" id="src.domotix.view.menus.menuUnita.gestioneStanza.gestioneArtefatto.MenuGestioneArtefattoM-&gt;src.domotix.controller.Recuperatore" style="stroke: #A80036; stroke-width: 1.0;"/><polygon fill="#A80036" points="633.5276,420.9864,629.544,411.9791,629.8224,417.6291,624.1724,417.9075,633.5276,420.9864" style="stroke: #A80036; stroke-width: 1.0;"/><!--MD5=[6154a8e2574741d3728e0a6a775b3127]
link src.domotix.view.menus.menuUnita.gestioneStanza.gestioneArtefatto.MenuGestioneArtefattoF to src.domotix.controller.Recuperatore--><path d="M397.1343,349.6389 C470.666,363.3602 570.7286,382.9542 588,391.0317 C602.2317,397.6876 616.1457,407.8738 627.6421,417.6129 " fill="none" id="src.domotix.view.menus.menuUnita.gestioneStanza.gestioneArtefatto.MenuGestioneArtefattoF-&gt;src.domotix.controller.Recuperatore" style="stroke: #A80036; stroke-width: 1.0;"/><polygon fill="#A80036" points="631.4451,420.8928,627.2421,411.9858,627.6587,417.6273,622.0173,418.044,631.4451,420.8928" style="stroke: #A80036; stroke-width: 1.0;"/><!--MD5=[3fb23d2d6247af8b761edc7574004e84]
link src.domotix.view.menus.menuUnita.gestioneStanza.gestioneArtefatto.MenuGestioneArtefattoF to src.domotix.controller.Modificatore--><path d="M361.5166,359.0357 C394.0541,376.5805 438.1789,400.3732 471.7679,418.485 " fill="none" id="src.domotix.view.menus.menuUnita.gestioneStanza.gestioneArtefatto.MenuGestioneArtefattoF-&gt;src.domotix.controller.Modificatore" style="stroke: #A80036; stroke-width: 1.0;"/><polygon fill="#A80036" points="476.2264,420.8891,470.2032,413.0967,471.8255,418.516,466.4062,420.1382,476.2264,420.8891" style="stroke: #A80036; stroke-width: 1.0;"/><!--MD5=[a243d89a9c183fb404ead41171dc9a30]
@startuml

title __DOMOTIX > VIEW > MENUS > MENUUNITA's Class Diagram__\n

namespace src.domotix.view.menus.menuUnita {
    class src.domotix.view.menus.menuUnita.MenuUnitaF {
    }

    class src.domotix.view.menus.menuUnita.MenuUnitaM {
    }

    namespace gestioneUnita {
        class src.domotix.view.menus.menuUnita.gestioneUnita.MenuGestioneUnitaF {
        }

        class src.domotix.view.menus.menuUnita.gestioneUnita.MenuGestioneUnitaM {
        }
    }

    namespace gestioneStanza {
        class src.domotix.view.menus.menuUnita.gestioneStanza.MenuGestioneStanzaF {
        }

        class src.domotix.view.menus.menuUnita.gestioneStanza.MenuGestioneStanzaM {
        }

        namespace gestioneArtefatto {
            class src.domotix.view.menus.menuUnita.gestioneStanza.gestioneArtefatto.MenuGestioneArtefattoF {
            }

            class src.domotix.view.menus.menuUnita.gestioneStanza.gestioneArtefatto.MenuGestioneArtefattoM {
            }
        }
    }
}

src.domotix.view.menus.menuUnita.MenuUnitaM - -> src.domotix.view.menus.menuUnita.gestioneUnita.MenuGestioneUnitaM
src.domotix.view.menus.menuUnita.MenuUnitaM - -> src.domotix.view.menus.menuUnita.gestioneStanza.MenuGestioneStanzaM
src.domotix.view.menus.menuUnita.gestioneStanza.MenuGestioneStanzaM - -> src.domotix.view.menus.menuUnita.gestioneStanza.gestioneArtefatto.MenuGestioneArtefattoM
src.domotix.view.menus.menuUnita.MenuUnitaF - -> src.domotix.view.menus.menuUnita.gestioneUnita.MenuGestioneUnitaF
src.domotix.view.menus.menuUnita.MenuUnitaF - -> src.domotix.view.menus.menuUnita.gestioneStanza.MenuGestioneStanzaF
src.domotix.view.menus.menuUnita.gestioneStanza.MenuGestioneStanzaF - -> src.domotix.view.menus.menuUnita.gestioneStanza.gestioneArtefatto.MenuGestioneArtefattoF

src.domotix.view.menus.menuUnita.MenuUnitaM - -> src.domotix.controller.Recuperatore
src.domotix.view.menus.menuUnita.MenuUnitaF - -> src.domotix.controller.Recuperatore
src.domotix.view.menus.menuUnita.gestioneUnita.MenuGestioneUnitaM - -> src.domotix.controller.Modificatore
src.domotix.view.menus.menuUnita.gestioneUnita.MenuGestioneUnitaM - -> src.domotix.controller.Recuperatore
src.domotix.view.menus.menuUnita.gestioneUnita.MenuGestioneUnitaF - -> src.domotix.controller.Recuperatore
src.domotix.view.menus.menuUnita.gestioneStanza.MenuGestioneStanzaM - -> src.domotix.controller.Modificatore
src.domotix.view.menus.menuUnita.gestioneStanza.MenuGestioneStanzaM - -> src.domotix.controller.Recuperatore
src.domotix.view.menus.menuUnita.gestioneStanza.MenuGestioneStanzaF - -> src.domotix.controller.Recuperatore
src.domotix.view.menus.menuUnita.gestioneStanza.MenuGestioneStanzaF - -> src.domotix.controller.Modificatore
src.domotix.view.menus.menuUnita.gestioneStanza.gestioneArtefatto.MenuGestioneArtefattoM - -> src.domotix.controller.Modificatore
src.domotix.view.menus.menuUnita.gestioneStanza.gestioneArtefatto.MenuGestioneArtefattoM - -> src.domotix.controller.Recuperatore
src.domotix.view.menus.menuUnita.gestioneStanza.gestioneArtefatto.MenuGestioneArtefattoF - -> src.domotix.controller.Recuperatore
src.domotix.view.menus.menuUnita.gestioneStanza.gestioneArtefatto.MenuGestioneArtefattoF - -> src.domotix.controller.Modificatore

@enduml

PlantUML version 1.2019.11(Sun Sep 22 12:02:15 CEST 2019)
(GPL source distribution)
Java Runtime: OpenJDK Runtime Environment
JVM: OpenJDK 64-Bit Server VM
Java Version: 11.0.3+12-b304.10
Operating System: Linux
Default Encoding: UTF-8
Language: it
Country: IT
--></g></svg>