<?xml version="1.0" encoding="UTF-8" standalone="no"?><svg xmlns="http://www.w3.org/2000/svg" xmlns:xlink="http://www.w3.org/1999/xlink" contentScriptType="application/ecmascript" contentStyleType="text/css" height="792px" preserveAspectRatio="none" style="width:1240px;height:792px;" version="1.1" viewBox="0 0 1240 792" width="1240px" zoomAndPan="magnify"><defs><filter height="300%" id="f1v7a8h70gpkel" width="300%" x="-1" y="-1"><feGaussianBlur result="blurOut" stdDeviation="2.0"/><feColorMatrix in="blurOut" result="blurOut2" type="matrix" values="0 0 0 0 0 0 0 0 0 0 0 0 0 0 0 0 0 0 .4 0"/><feOffset dx="4.0" dy="4.0" in="blurOut2" result="blurOut3"/><feBlend in="SourceGraphic" in2="blurOut3" mode="normal"/></filter></defs><g><text fill="#000000" font-family="sans-serif" font-size="18" lengthAdjust="spacingAndGlyphs" text-decoration="underline" textLength="354" x="442" y="19.2419">DOMOTIX &gt; VIEW &gt; MENUS's Class Diagram</text><text fill="#000000" font-family="sans-serif" font-size="18" lengthAdjust="spacingAndGlyphs" textLength="0" x="621" y="43.7577"/><!--MD5=[a270aa123fc17553ce95095edea6af5c]
cluster src.domotix.view.menus--><polygon fill="#FFFFFF" filter="url(#f1v7a8h70gpkel)" points="14,65.0317,178,65.0317,185,90.0996,1204,90.0996,1204,686.0317,14,686.0317,14,65.0317" style="stroke: #000000; stroke-width: 1.5;"/><line style="stroke: #000000; stroke-width: 1.5;" x1="14" x2="185" y1="90.0996" y2="90.0996"/><text fill="#000000" font-family="sans-serif" font-size="14" font-weight="bold" lengthAdjust="spacingAndGlyphs" textLength="158" x="18" y="81.9976">src.domotix.view.menus</text><!--MD5=[702d6a1548e6b03ca0dc4267e4e60920]
cluster src.domotix.view.menus.menuPrincipale--><polygon fill="#FFFFFF" filter="url(#f1v7a8h70gpkel)" points="646,173.0317,757,173.0317,764,198.0996,1080,198.0996,1080,364.0317,646,364.0317,646,173.0317" style="stroke: #000000; stroke-width: 1.5;"/><line style="stroke: #000000; stroke-width: 1.5;" x1="646" x2="764" y1="198.0996" y2="198.0996"/><text fill="#000000" font-family="sans-serif" font-size="14" font-weight="bold" lengthAdjust="spacingAndGlyphs" textLength="105" x="650" y="189.9976">menuPrincipale</text><!--MD5=[171676647ca269d82cf939774b48600f]
cluster src.domotix.view.menus.menuCategorie--><polygon fill="#FFFFFF" filter="url(#f1v7a8h70gpkel)" points="22,386.0317,131,386.0317,138,411.0996,941,411.0996,941,678.0317,22,678.0317,22,386.0317" style="stroke: #000000; stroke-width: 1.5;"/><line style="stroke: #000000; stroke-width: 1.5;" x1="22" x2="138" y1="411.0996" y2="411.0996"/><text fill="#000000" font-family="sans-serif" font-size="14" font-weight="bold" lengthAdjust="spacingAndGlyphs" textLength="103" x="26" y="402.9976">menuCategorie</text><!--MD5=[6a896d3fff213cf3ec0a828c16557f16]
cluster src.domotix.view.menus.menuCategorie.sensori--><polygon fill="#FFFFFF" filter="url(#f1v7a8h70gpkel)" points="30,494.0317,83,494.0317,90,519.0996,449,519.0996,449,670.0317,30,670.0317,30,494.0317" style="stroke: #000000; stroke-width: 1.5;"/><line style="stroke: #000000; stroke-width: 1.5;" x1="30" x2="90" y1="519.0996" y2="519.0996"/><text fill="#000000" font-family="sans-serif" font-size="14" font-weight="bold" lengthAdjust="spacingAndGlyphs" textLength="47" x="34" y="510.9976">sensori</text><!--MD5=[2b248cac9c74822cda29090c02a6afec]
cluster src.domotix.view.menus.menuCategorie.attuatori--><polygon fill="#FFFFFF" filter="url(#f1v7a8h70gpkel)" points="468,494.0317,535,494.0317,542,519.0996,933,519.0996,933,670.0317,468,670.0317,468,494.0317" style="stroke: #000000; stroke-width: 1.5;"/><line style="stroke: #000000; stroke-width: 1.5;" x1="468" x2="542" y1="519.0996" y2="519.0996"/><text fill="#000000" font-family="sans-serif" font-size="14" font-weight="bold" lengthAdjust="spacingAndGlyphs" textLength="61" x="472" y="510.9976">attuatori</text><!--MD5=[00517f9916d116c0c4ccaffe7c1b1d29]
cluster src.domotix.view.menus.menuUnita--><polygon fill="#FFFFFF" filter="url(#f1v7a8h70gpkel)" points="949,386.0317,1031,386.0317,1038,411.0996,1196,411.0996,1196,472.0317,949,472.0317,949,386.0317" style="stroke: #000000; stroke-width: 1.5;"/><line style="stroke: #000000; stroke-width: 1.5;" x1="949" x2="1038" y1="411.0996" y2="411.0996"/><text fill="#000000" font-family="sans-serif" font-size="14" font-weight="bold" lengthAdjust="spacingAndGlyphs" textLength="76" x="953" y="402.9976">menuUnita</text><!--MD5=[e3c3ae39643e55df7c1a0329eec479c9]
cluster src.domotix.controller--><polygon fill="#FFFFFF" filter="url(#f1v7a8h70gpkel)" points="499,694.0317,651,694.0317,658,719.0996,750,719.0996,750,780.0317,499,780.0317,499,694.0317" style="stroke: #000000; stroke-width: 1.5;"/><line style="stroke: #000000; stroke-width: 1.5;" x1="499" x2="658" y1="719.0996" y2="719.0996"/><text fill="#000000" font-family="sans-serif" font-size="14" font-weight="bold" lengthAdjust="spacingAndGlyphs" textLength="146" x="503" y="710.9976">src.domotix.controller</text><!--MD5=[d765f0f202665bc0cdb39d41202479e1]
class src.domotix.view.menus.MenuErroreApertura--><rect fill="#FEFECE" filter="url(#f1v7a8h70gpkel)" height="48" id="src.domotix.view.menus.MenuErroreApertura" style="stroke: #A80036; stroke-width: 1.5;" width="138" x="1058" y="95.0317"/><ellipse cx="1073" cy="111.0317" fill="#ADD1B2" rx="11" ry="11" style="stroke: #A80036; stroke-width: 1.0;"/><path d="M1072.9688,117.2036 Q1071.2188,117.2036 1070.0781,116.4692 Q1068.9531,115.7192 1068.3906,114.3754 Q1067.8438,113.0161 1067.8438,111.2192 Q1067.8438,109.1879 1068.5,107.7348 Q1069.1563,106.2817 1070.4375,105.5004 Q1071.7188,104.7192 1073.5938,104.7192 Q1074.4844,104.7192 1075.1563,104.9067 Q1075.8281,105.0786 1076.5156,105.4223 L1075.7031,107.4379 Q1075.0781,107.1254 1074.5313,107.0004 Q1074,106.8754 1073.5156,106.8754 Q1072.3438,106.8754 1071.6406,107.4067 Q1070.9375,107.9379 1070.6406,108.8911 Q1070.3438,109.8442 1070.3438,111.1098 Q1070.3438,113.1254 1071.0625,114.0942 Q1071.7813,115.0473 1073.375,115.0473 Q1073.9688,115.0473 1074.5938,114.8911 Q1075.2188,114.7348 1076.0469,114.3598 L1076.0469,116.5786 Q1075.3125,116.8911 1074.5156,117.0473 Q1073.7344,117.2036 1072.9688,117.2036 Z "/><text fill="#000000" font-family="sans-serif" font-size="12" lengthAdjust="spacingAndGlyphs" textLength="106" x="1087" y="115.6877">MenuErroreApertura</text><line style="stroke: #A80036; stroke-width: 1.5;" x1="1059" x2="1195" y1="127.0317" y2="127.0317"/><line style="stroke: #A80036; stroke-width: 1.5;" x1="1059" x2="1195" y1="135.0317" y2="135.0317"/><!--MD5=[74a852f54c2ea3d94783cf68fcd98a5c]
class src.domotix.view.menus.MenuErroreChiusura--><rect fill="#FEFECE" filter="url(#f1v7a8h70gpkel)" height="48" id="src.domotix.view.menus.MenuErroreChiusura" style="stroke: #A80036; stroke-width: 1.5;" width="139" x="883.5" y="95.0317"/><ellipse cx="898.5" cy="111.0317" fill="#ADD1B2" rx="11" ry="11" style="stroke: #A80036; stroke-width: 1.0;"/><path d="M898.4688,117.2036 Q896.7188,117.2036 895.5781,116.4692 Q894.4531,115.7192 893.8906,114.3754 Q893.3438,113.0161 893.3438,111.2192 Q893.3438,109.1879 894,107.7348 Q894.6563,106.2817 895.9375,105.5004 Q897.2188,104.7192 899.0938,104.7192 Q899.9844,104.7192 900.6563,104.9067 Q901.3281,105.0786 902.0156,105.4223 L901.2031,107.4379 Q900.5781,107.1254 900.0313,107.0004 Q899.5,106.8754 899.0156,106.8754 Q897.8438,106.8754 897.1406,107.4067 Q896.4375,107.9379 896.1406,108.8911 Q895.8438,109.8442 895.8438,111.1098 Q895.8438,113.1254 896.5625,114.0942 Q897.2813,115.0473 898.875,115.0473 Q899.4688,115.0473 900.0938,114.8911 Q900.7188,114.7348 901.5469,114.3598 L901.5469,116.5786 Q900.8125,116.8911 900.0156,117.0473 Q899.2344,117.2036 898.4688,117.2036 Z "/><text fill="#000000" font-family="sans-serif" font-size="12" lengthAdjust="spacingAndGlyphs" textLength="107" x="912.5" y="115.6877">MenuErroreChiusura</text><line style="stroke: #A80036; stroke-width: 1.5;" x1="884.5" x2="1021.5" y1="127.0317" y2="127.0317"/><line style="stroke: #A80036; stroke-width: 1.5;" x1="884.5" x2="1021.5" y1="135.0317" y2="135.0317"/><!--MD5=[8bb34a89a0c35167d59833084f0b1bf8]
class src.domotix.view.menus.MenuLogin--><rect fill="#FEFECE" filter="url(#f1v7a8h70gpkel)" height="48" id="src.domotix.view.menus.MenuLogin" style="stroke: #A80036; stroke-width: 1.5;" width="92" x="756" y="95.0317"/><ellipse cx="771" cy="111.0317" fill="#ADD1B2" rx="11" ry="11" style="stroke: #A80036; stroke-width: 1.0;"/><path d="M770.9688,117.2036 Q769.2188,117.2036 768.0781,116.4692 Q766.9531,115.7192 766.3906,114.3754 Q765.8438,113.0161 765.8438,111.2192 Q765.8438,109.1879 766.5,107.7348 Q767.1563,106.2817 768.4375,105.5004 Q769.7188,104.7192 771.5938,104.7192 Q772.4844,104.7192 773.1563,104.9067 Q773.8281,105.0786 774.5156,105.4223 L773.7031,107.4379 Q773.0781,107.1254 772.5313,107.0004 Q772,106.8754 771.5156,106.8754 Q770.3438,106.8754 769.6406,107.4067 Q768.9375,107.9379 768.6406,108.8911 Q768.3438,109.8442 768.3438,111.1098 Q768.3438,113.1254 769.0625,114.0942 Q769.7813,115.0473 771.375,115.0473 Q771.9688,115.0473 772.5938,114.8911 Q773.2188,114.7348 774.0469,114.3598 L774.0469,116.5786 Q773.3125,116.8911 772.5156,117.0473 Q771.7344,117.2036 770.9688,117.2036 Z "/><text fill="#000000" font-family="sans-serif" font-size="12" lengthAdjust="spacingAndGlyphs" textLength="60" x="785" y="115.6877">MenuLogin</text><line style="stroke: #A80036; stroke-width: 1.5;" x1="757" x2="847" y1="127.0317" y2="127.0317"/><line style="stroke: #A80036; stroke-width: 1.5;" x1="757" x2="847" y1="135.0317" y2="135.0317"/><!--MD5=[bbe7e59fe1154a8b05e9c081f104abcd]
class src.domotix.view.menus.menuPrincipale.MenuFruitore--><rect fill="#FEFECE" filter="url(#f1v7a8h70gpkel)" height="48" id="src.domotix.view.menus.menuPrincipale.MenuFruitore" style="stroke: #A80036; stroke-width: 1.5;" width="103" x="654.5" y="255.5317"/><ellipse cx="669.5" cy="271.5317" fill="#ADD1B2" rx="11" ry="11" style="stroke: #A80036; stroke-width: 1.0;"/><path d="M669.4688,277.7036 Q667.7188,277.7036 666.5781,276.9692 Q665.4531,276.2192 664.8906,274.8754 Q664.3438,273.5161 664.3438,271.7192 Q664.3438,269.6879 665,268.2348 Q665.6563,266.7817 666.9375,266.0004 Q668.2188,265.2192 670.0938,265.2192 Q670.9844,265.2192 671.6563,265.4067 Q672.3281,265.5786 673.0156,265.9223 L672.2031,267.9379 Q671.5781,267.6254 671.0313,267.5004 Q670.5,267.3754 670.0156,267.3754 Q668.8438,267.3754 668.1406,267.9067 Q667.4375,268.4379 667.1406,269.3911 Q666.8438,270.3442 666.8438,271.6098 Q666.8438,273.6254 667.5625,274.5942 Q668.2813,275.5473 669.875,275.5473 Q670.4688,275.5473 671.0938,275.3911 Q671.7188,275.2348 672.5469,274.8598 L672.5469,277.0786 Q671.8125,277.3911 671.0156,277.5473 Q670.2344,277.7036 669.4688,277.7036 Z "/><text fill="#000000" font-family="sans-serif" font-size="12" lengthAdjust="spacingAndGlyphs" textLength="71" x="683.5" y="276.1877">MenuFruitore</text><line style="stroke: #A80036; stroke-width: 1.5;" x1="655.5" x2="756.5" y1="287.5317" y2="287.5317"/><line style="stroke: #A80036; stroke-width: 1.5;" x1="655.5" x2="756.5" y1="295.5317" y2="295.5317"/><!--MD5=[4905543d80e1cc424a16b65cdb0d5e21]
class src.domotix.view.menus.menuPrincipale.MenuManutentore--><rect fill="#FEFECE" filter="url(#f1v7a8h70gpkel)" height="152.8732" id="src.domotix.view.menus.menuPrincipale.MenuManutentore" style="stroke: #A80036; stroke-width: 1.5;" width="244" x="793" y="203.0317"/><ellipse cx="861.75" cy="219.0317" fill="#ADD1B2" rx="11" ry="11" style="stroke: #A80036; stroke-width: 1.0;"/><path d="M861.7188,225.2036 Q859.9688,225.2036 858.8281,224.4692 Q857.7031,223.7192 857.1406,222.3754 Q856.5938,221.0161 856.5938,219.2192 Q856.5938,217.1879 857.25,215.7348 Q857.9063,214.2817 859.1875,213.5004 Q860.4688,212.7192 862.3438,212.7192 Q863.2344,212.7192 863.9063,212.9067 Q864.5781,213.0786 865.2656,213.4223 L864.4531,215.4379 Q863.8281,215.1254 863.2813,215.0004 Q862.75,214.8754 862.2656,214.8754 Q861.0938,214.8754 860.3906,215.4067 Q859.6875,215.9379 859.3906,216.8911 Q859.0938,217.8442 859.0938,219.1098 Q859.0938,221.1254 859.8125,222.0942 Q860.5313,223.0473 862.125,223.0473 Q862.7188,223.0473 863.3438,222.8911 Q863.9688,222.7348 864.7969,222.3598 L864.7969,224.5786 Q864.0625,224.8911 863.2656,225.0473 Q862.4844,225.2036 861.7188,225.2036 Z "/><text fill="#000000" font-family="sans-serif" font-size="12" lengthAdjust="spacingAndGlyphs" textLength="98" x="882.25" y="223.6877">MenuManutentore</text><line style="stroke: #A80036; stroke-width: 1.5;" x1="794" x2="1036" y1="235.0317" y2="235.0317"/><rect fill="none" height="6" style="stroke: #C82930; stroke-width: 1.0;" width="6" x="801" y="243.0317"/><text fill="#000000" font-family="sans-serif" font-size="11" lengthAdjust="spacingAndGlyphs" text-decoration="underline" textLength="194" x="813" y="250.7906">SUCCESSO_INSERIMENTO_UNITA : String</text><rect fill="none" height="6" style="stroke: #C82930; stroke-width: 1.0;" width="6" x="801" y="258.0136"/><text fill="#000000" font-family="sans-serif" font-size="11" lengthAdjust="spacingAndGlyphs" text-decoration="underline" textLength="180" x="813" y="265.7725">ERRORE_INSERIMENTO_UNITA : String</text><rect fill="none" height="6" style="stroke: #C82930; stroke-width: 1.0;" width="6" x="801" y="272.9955"/><text fill="#000000" font-family="sans-serif" font-size="11" lengthAdjust="spacingAndGlyphs" text-decoration="underline" textLength="182" x="813" y="280.7544">SUCCESSO_RIMOZIONE_UNITA : String</text><rect fill="none" height="6" style="stroke: #C82930; stroke-width: 1.0;" width="6" x="801" y="287.9774"/><text fill="#000000" font-family="sans-serif" font-size="11" lengthAdjust="spacingAndGlyphs" text-decoration="underline" textLength="168" x="813" y="295.7363">ERRORE_RIMOZIONE_UNITA : String</text><rect fill="none" height="6" style="stroke: #C82930; stroke-width: 1.0;" width="6" x="801" y="302.9592"/><text fill="#000000" font-family="sans-serif" font-size="11" lengthAdjust="spacingAndGlyphs" text-decoration="underline" textLength="218" x="813" y="310.7182">NOMI_UNITA_IMMOBILIARI_ESISTENTI : String</text><rect fill="none" height="6" style="stroke: #C82930; stroke-width: 1.0;" width="6" x="801" y="317.9411"/><text fill="#000000" font-family="sans-serif" font-size="11" lengthAdjust="spacingAndGlyphs" text-decoration="underline" textLength="141" x="813" y="325.7">NOME_NUOVA_UNITA : String</text><line style="stroke: #A80036; stroke-width: 1.5;" x1="794" x2="1036" y1="332.923" y2="332.923"/><rect fill="#F24D5C" height="6" style="stroke: #C82930; stroke-width: 1.0;" width="6" x="801" y="340.923"/><text fill="#000000" font-family="sans-serif" font-size="11" lengthAdjust="spacingAndGlyphs" text-decoration="underline" textLength="75" x="813" y="348.6819">premenuUnita()</text><!--MD5=[662789c5b67dd3d996627064a0ee64d1]
class src.domotix.view.menus.menuCategorie.MenuCategorieF--><rect fill="#FEFECE" filter="url(#f1v7a8h70gpkel)" height="48" id="src.domotix.view.menus.menuCategorie.MenuCategorieF" style="stroke: #A80036; stroke-width: 1.5;" width="118" x="499" y="416.0317"/><ellipse cx="514" cy="432.0317" fill="#ADD1B2" rx="11" ry="11" style="stroke: #A80036; stroke-width: 1.0;"/><path d="M513.9688,438.2036 Q512.2188,438.2036 511.0781,437.4692 Q509.9531,436.7192 509.3906,435.3754 Q508.8438,434.0161 508.8438,432.2192 Q508.8438,430.1879 509.5,428.7348 Q510.1563,427.2817 511.4375,426.5004 Q512.7188,425.7192 514.5938,425.7192 Q515.4844,425.7192 516.1563,425.9067 Q516.8281,426.0786 517.5156,426.4223 L516.7031,428.4379 Q516.0781,428.1254 515.5313,428.0004 Q515,427.8754 514.5156,427.8754 Q513.3438,427.8754 512.6406,428.4067 Q511.9375,428.9379 511.6406,429.8911 Q511.3438,430.8442 511.3438,432.1098 Q511.3438,434.1254 512.0625,435.0942 Q512.7813,436.0473 514.375,436.0473 Q514.9688,436.0473 515.5938,435.8911 Q516.2188,435.7348 517.0469,435.3598 L517.0469,437.5786 Q516.3125,437.8911 515.5156,438.0473 Q514.7344,438.2036 513.9688,438.2036 Z "/><text fill="#000000" font-family="sans-serif" font-size="12" lengthAdjust="spacingAndGlyphs" textLength="86" x="528" y="436.6877">MenuCategorieF</text><line style="stroke: #A80036; stroke-width: 1.5;" x1="500" x2="616" y1="448.0317" y2="448.0317"/><line style="stroke: #A80036; stroke-width: 1.5;" x1="500" x2="616" y1="456.0317" y2="456.0317"/><!--MD5=[932ef37b5d39d847f9f820a16bc10099]
class src.domotix.view.menus.menuCategorie.MenuCategorieM--><rect fill="#FEFECE" filter="url(#f1v7a8h70gpkel)" height="48" id="src.domotix.view.menus.menuCategorie.MenuCategorieM" style="stroke: #A80036; stroke-width: 1.5;" width="122" x="739" y="416.0317"/><ellipse cx="754" cy="432.0317" fill="#ADD1B2" rx="11" ry="11" style="stroke: #A80036; stroke-width: 1.0;"/><path d="M753.9688,438.2036 Q752.2188,438.2036 751.0781,437.4692 Q749.9531,436.7192 749.3906,435.3754 Q748.8438,434.0161 748.8438,432.2192 Q748.8438,430.1879 749.5,428.7348 Q750.1563,427.2817 751.4375,426.5004 Q752.7188,425.7192 754.5938,425.7192 Q755.4844,425.7192 756.1563,425.9067 Q756.8281,426.0786 757.5156,426.4223 L756.7031,428.4379 Q756.0781,428.1254 755.5313,428.0004 Q755,427.8754 754.5156,427.8754 Q753.3438,427.8754 752.6406,428.4067 Q751.9375,428.9379 751.6406,429.8911 Q751.3438,430.8442 751.3438,432.1098 Q751.3438,434.1254 752.0625,435.0942 Q752.7813,436.0473 754.375,436.0473 Q754.9688,436.0473 755.5938,435.8911 Q756.2188,435.7348 757.0469,435.3598 L757.0469,437.5786 Q756.3125,437.8911 755.5156,438.0473 Q754.7344,438.2036 753.9688,438.2036 Z "/><text fill="#000000" font-family="sans-serif" font-size="12" lengthAdjust="spacingAndGlyphs" textLength="90" x="768" y="436.6877">MenuCategorieM</text><line style="stroke: #A80036; stroke-width: 1.5;" x1="740" x2="860" y1="448.0317" y2="448.0317"/><line style="stroke: #A80036; stroke-width: 1.5;" x1="740" x2="860" y1="456.0317" y2="456.0317"/><!--MD5=[d074c1aade7a95907f079a2c2f1577f1]
class src.domotix.view.menus.menuCategorie.sensori.MenuCategorieSensoriF--><rect fill="#FEFECE" filter="url(#f1v7a8h70gpkel)" height="48" id="src.domotix.view.menus.menuCategorie.sensori.MenuCategorieSensoriF" style="stroke: #A80036; stroke-width: 1.5;" width="156" x="38" y="569.0317"/><ellipse cx="53" cy="585.0317" fill="#ADD1B2" rx="11" ry="11" style="stroke: #A80036; stroke-width: 1.0;"/><path d="M52.9688,591.2036 Q51.2188,591.2036 50.0781,590.4692 Q48.9531,589.7192 48.3906,588.3754 Q47.8438,587.0161 47.8438,585.2192 Q47.8438,583.1879 48.5,581.7348 Q49.1563,580.2817 50.4375,579.5004 Q51.7188,578.7192 53.5938,578.7192 Q54.4844,578.7192 55.1563,578.9067 Q55.8281,579.0786 56.5156,579.4223 L55.7031,581.4379 Q55.0781,581.1254 54.5313,581.0004 Q54,580.8754 53.5156,580.8754 Q52.3438,580.8754 51.6406,581.4067 Q50.9375,581.9379 50.6406,582.8911 Q50.3438,583.8442 50.3438,585.1098 Q50.3438,587.1254 51.0625,588.0942 Q51.7813,589.0473 53.375,589.0473 Q53.9688,589.0473 54.5938,588.8911 Q55.2188,588.7348 56.0469,588.3598 L56.0469,590.5786 Q55.3125,590.8911 54.5156,591.0473 Q53.7344,591.2036 52.9688,591.2036 Z "/><text fill="#000000" font-family="sans-serif" font-size="12" lengthAdjust="spacingAndGlyphs" textLength="124" x="67" y="589.6877">MenuCategorieSensoriF</text><line style="stroke: #A80036; stroke-width: 1.5;" x1="39" x2="193" y1="601.0317" y2="601.0317"/><line style="stroke: #A80036; stroke-width: 1.5;" x1="39" x2="193" y1="609.0317" y2="609.0317"/><!--MD5=[cedddc925446b37d7e67faa811ee66b3]
class src.domotix.view.menus.menuCategorie.sensori.MenuCategorieSensoriM--><rect fill="#FEFECE" filter="url(#f1v7a8h70gpkel)" height="137.8913" id="src.domotix.view.menus.menuCategorie.sensori.MenuCategorieSensoriM" style="stroke: #A80036; stroke-width: 1.5;" width="212" x="229" y="524.0317"/><ellipse cx="267.4" cy="540.0317" fill="#ADD1B2" rx="11" ry="11" style="stroke: #A80036; stroke-width: 1.0;"/><path d="M267.3688,546.2036 Q265.6188,546.2036 264.4781,545.4692 Q263.3531,544.7192 262.7906,543.3754 Q262.2438,542.0161 262.2438,540.2192 Q262.2438,538.1879 262.9,536.7348 Q263.5563,535.2817 264.8375,534.5004 Q266.1188,533.7192 267.9938,533.7192 Q268.8844,533.7192 269.5563,533.9067 Q270.2281,534.0786 270.9156,534.4223 L270.1031,536.4379 Q269.4781,536.1254 268.9313,536.0004 Q268.4,535.8754 267.9156,535.8754 Q266.7438,535.8754 266.0406,536.4067 Q265.3375,536.9379 265.0406,537.8911 Q264.7438,538.8442 264.7438,540.1098 Q264.7438,542.1254 265.4625,543.0942 Q266.1813,544.0473 267.775,544.0473 Q268.3688,544.0473 268.9938,543.8911 Q269.6188,543.7348 270.4469,543.3598 L270.4469,545.5786 Q269.7125,545.8911 268.9156,546.0473 Q268.1344,546.2036 267.3688,546.2036 Z "/><text fill="#000000" font-family="sans-serif" font-size="12" lengthAdjust="spacingAndGlyphs" textLength="128" x="286.6" y="544.6877">MenuCategorieSensoriM</text><line style="stroke: #A80036; stroke-width: 1.5;" x1="230" x2="440" y1="556.0317" y2="556.0317"/><rect fill="none" height="6" style="stroke: #C82930; stroke-width: 1.0;" width="6" x="237" y="564.0317"/><text fill="#000000" font-family="sans-serif" font-size="11" lengthAdjust="spacingAndGlyphs" text-decoration="underline" textLength="104" x="249" y="571.7906">TERMINATORE : String</text><rect fill="none" height="6" style="stroke: #C82930; stroke-width: 1.0;" width="6" x="237" y="579.0136"/><text fill="#000000" font-family="sans-serif" font-size="11" lengthAdjust="spacingAndGlyphs" text-decoration="underline" textLength="186" x="249" y="586.7725">SUCCESSO_INSERIMENTO_INFO : String</text><rect fill="none" height="6" style="stroke: #C82930; stroke-width: 1.0;" width="6" x="237" y="593.9955"/><text fill="#000000" font-family="sans-serif" font-size="11" lengthAdjust="spacingAndGlyphs" text-decoration="underline" textLength="172" x="249" y="601.7544">ERRORE_INSERIMENTO_INFO : String</text><rect fill="none" height="6" style="stroke: #C82930; stroke-width: 1.0;" width="6" x="237" y="608.9774"/><text fill="#000000" font-family="sans-serif" font-size="11" lengthAdjust="spacingAndGlyphs" text-decoration="underline" textLength="165" x="249" y="616.7363">INSERIMENTO_NOME_INFO : String</text><rect fill="none" height="6" style="stroke: #C82930; stroke-width: 1.0;" width="6" x="237" y="623.9592"/><text fill="#000000" font-family="sans-serif" font-size="11" lengthAdjust="spacingAndGlyphs" text-decoration="underline" textLength="131" x="249" y="631.7182">ALMENO_UNA_INFO : String</text><rect fill="none" height="6" style="stroke: #C82930; stroke-width: 1.0;" width="6" x="237" y="638.9411"/><text fill="#000000" font-family="sans-serif" font-size="11" lengthAdjust="spacingAndGlyphs" text-decoration="underline" textLength="99" x="249" y="646.7">IS_NUMERICA : String</text><line style="stroke: #A80036; stroke-width: 1.5;" x1="230" x2="440" y1="653.923" y2="653.923"/><!--MD5=[8ca41d897a1f36e0ec13ff146d9018bc]
class src.domotix.view.menus.menuCategorie.attuatori.MenuCategorieAttuatoriF--><rect fill="#FEFECE" filter="url(#f1v7a8h70gpkel)" height="48" id="src.domotix.view.menus.menuCategorie.attuatori.MenuCategorieAttuatoriF" style="stroke: #A80036; stroke-width: 1.5;" width="164" x="476" y="569.0317"/><ellipse cx="491" cy="585.0317" fill="#ADD1B2" rx="11" ry="11" style="stroke: #A80036; stroke-width: 1.0;"/><path d="M490.9688,591.2036 Q489.2188,591.2036 488.0781,590.4692 Q486.9531,589.7192 486.3906,588.3754 Q485.8438,587.0161 485.8438,585.2192 Q485.8438,583.1879 486.5,581.7348 Q487.1563,580.2817 488.4375,579.5004 Q489.7188,578.7192 491.5938,578.7192 Q492.4844,578.7192 493.1563,578.9067 Q493.8281,579.0786 494.5156,579.4223 L493.7031,581.4379 Q493.0781,581.1254 492.5313,581.0004 Q492,580.8754 491.5156,580.8754 Q490.3438,580.8754 489.6406,581.4067 Q488.9375,581.9379 488.6406,582.8911 Q488.3438,583.8442 488.3438,585.1098 Q488.3438,587.1254 489.0625,588.0942 Q489.7813,589.0473 491.375,589.0473 Q491.9688,589.0473 492.5938,588.8911 Q493.2188,588.7348 494.0469,588.3598 L494.0469,590.5786 Q493.3125,590.8911 492.5156,591.0473 Q491.7344,591.2036 490.9688,591.2036 Z "/><text fill="#000000" font-family="sans-serif" font-size="12" lengthAdjust="spacingAndGlyphs" textLength="132" x="505" y="589.6877">MenuCategorieAttuatoriF</text><line style="stroke: #A80036; stroke-width: 1.5;" x1="477" x2="639" y1="601.0317" y2="601.0317"/><line style="stroke: #A80036; stroke-width: 1.5;" x1="477" x2="639" y1="609.0317" y2="609.0317"/><!--MD5=[0abc97df493079eea983bc81eafb0b86]
class src.domotix.view.menus.menuCategorie.attuatori.MenuCategorieAttuatoriM--><rect fill="#FEFECE" filter="url(#f1v7a8h70gpkel)" height="137.8913" id="src.domotix.view.menus.menuCategorie.attuatori.MenuCategorieAttuatoriM" style="stroke: #A80036; stroke-width: 1.5;" width="249" x="675.5" y="524.0317"/><ellipse cx="727.75" cy="540.0317" fill="#ADD1B2" rx="11" ry="11" style="stroke: #A80036; stroke-width: 1.0;"/><path d="M727.7188,546.2036 Q725.9688,546.2036 724.8281,545.4692 Q723.7031,544.7192 723.1406,543.3754 Q722.5938,542.0161 722.5938,540.2192 Q722.5938,538.1879 723.25,536.7348 Q723.9063,535.2817 725.1875,534.5004 Q726.4688,533.7192 728.3438,533.7192 Q729.2344,533.7192 729.9063,533.9067 Q730.5781,534.0786 731.2656,534.4223 L730.4531,536.4379 Q729.8281,536.1254 729.2813,536.0004 Q728.75,535.8754 728.2656,535.8754 Q727.0938,535.8754 726.3906,536.4067 Q725.6875,536.9379 725.3906,537.8911 Q725.0938,538.8442 725.0938,540.1098 Q725.0938,542.1254 725.8125,543.0942 Q726.5313,544.0473 728.125,544.0473 Q728.7188,544.0473 729.3438,543.8911 Q729.9688,543.7348 730.7969,543.3598 L730.7969,545.5786 Q730.0625,545.8911 729.2656,546.0473 Q728.4844,546.2036 727.7188,546.2036 Z "/><text fill="#000000" font-family="sans-serif" font-size="12" lengthAdjust="spacingAndGlyphs" textLength="136" x="748.25" y="544.6877">MenuCategorieAttuatoriM</text><line style="stroke: #A80036; stroke-width: 1.5;" x1="676.5" x2="923.5" y1="556.0317" y2="556.0317"/><rect fill="none" height="6" style="stroke: #C82930; stroke-width: 1.0;" width="6" x="683.5" y="564.0317"/><text fill="#000000" font-family="sans-serif" font-size="11" lengthAdjust="spacingAndGlyphs" text-decoration="underline" textLength="115" x="695.5" y="571.7906">IS_PARAMETRICA : String</text><rect fill="none" height="6" style="stroke: #C82930; stroke-width: 1.0;" width="6" x="683.5" y="579.0136"/><text fill="#000000" font-family="sans-serif" font-size="11" lengthAdjust="spacingAndGlyphs" text-decoration="underline" textLength="202" x="695.5" y="586.7725">INSERIMENTO_NOME_PARAMETRO : String</text><rect fill="none" height="6" style="stroke: #C82930; stroke-width: 1.0;" width="6" x="683.5" y="593.9955"/><text fill="#000000" font-family="sans-serif" font-size="11" lengthAdjust="spacingAndGlyphs" text-decoration="underline" textLength="223" x="695.5" y="601.7544">SUCCESSO_INSERIMENTO_PARAMETRO : String</text><rect fill="none" height="6" style="stroke: #C82930; stroke-width: 1.0;" width="6" x="683.5" y="608.9774"/><text fill="#000000" font-family="sans-serif" font-size="11" lengthAdjust="spacingAndGlyphs" text-decoration="underline" textLength="203" x="695.5" y="616.7363">ERRORE_ALMENO_UN_PARAMETRO : String</text><rect fill="none" height="6" style="stroke: #C82930; stroke-width: 1.0;" width="6" x="683.5" y="623.9592"/><text fill="#000000" font-family="sans-serif" font-size="11" lengthAdjust="spacingAndGlyphs" text-decoration="underline" textLength="209" x="695.5" y="631.7182">ERRORE_INSERIMENTO_PARAMETRO : String</text><rect fill="none" height="6" style="stroke: #C82930; stroke-width: 1.0;" width="6" x="683.5" y="638.9411"/><text fill="#000000" font-family="sans-serif" font-size="11" lengthAdjust="spacingAndGlyphs" text-decoration="underline" textLength="209" x="695.5" y="646.7">INSERIMENTO_VALORE_PARAMETRO : String</text><line style="stroke: #A80036; stroke-width: 1.5;" x1="676.5" x2="923.5" y1="653.923" y2="653.923"/><!--MD5=[8b91a9f4208df7f50b8566189b12862a]
class src.domotix.view.menus.menuUnita.MenuUnitaM--><rect fill="#FEFECE" filter="url(#f1v7a8h70gpkel)" height="48" id="src.domotix.view.menus.menuUnita.MenuUnitaM" style="stroke: #A80036; stroke-width: 1.5;" width="100" x="1088" y="416.0317"/><ellipse cx="1103" cy="432.0317" fill="#ADD1B2" rx="11" ry="11" style="stroke: #A80036; stroke-width: 1.0;"/><path d="M1102.9688,438.2036 Q1101.2188,438.2036 1100.0781,437.4692 Q1098.9531,436.7192 1098.3906,435.3754 Q1097.8438,434.0161 1097.8438,432.2192 Q1097.8438,430.1879 1098.5,428.7348 Q1099.1563,427.2817 1100.4375,426.5004 Q1101.7188,425.7192 1103.5938,425.7192 Q1104.4844,425.7192 1105.1563,425.9067 Q1105.8281,426.0786 1106.5156,426.4223 L1105.7031,428.4379 Q1105.0781,428.1254 1104.5313,428.0004 Q1104,427.8754 1103.5156,427.8754 Q1102.3438,427.8754 1101.6406,428.4067 Q1100.9375,428.9379 1100.6406,429.8911 Q1100.3438,430.8442 1100.3438,432.1098 Q1100.3438,434.1254 1101.0625,435.0942 Q1101.7813,436.0473 1103.375,436.0473 Q1103.9688,436.0473 1104.5938,435.8911 Q1105.2188,435.7348 1106.0469,435.3598 L1106.0469,437.5786 Q1105.3125,437.8911 1104.5156,438.0473 Q1103.7344,438.2036 1102.9688,438.2036 Z "/><text fill="#000000" font-family="sans-serif" font-size="12" lengthAdjust="spacingAndGlyphs" textLength="68" x="1117" y="436.6877">MenuUnitaM</text><line style="stroke: #A80036; stroke-width: 1.5;" x1="1089" x2="1187" y1="448.0317" y2="448.0317"/><line style="stroke: #A80036; stroke-width: 1.5;" x1="1089" x2="1187" y1="456.0317" y2="456.0317"/><!--MD5=[a0f93abaebba79ab0a8d6b7c582b424a]
class src.domotix.view.menus.menuUnita.MenuUnitaF--><rect fill="#FEFECE" filter="url(#f1v7a8h70gpkel)" height="48" id="src.domotix.view.menus.menuUnita.MenuUnitaF" style="stroke: #A80036; stroke-width: 1.5;" width="96" x="957" y="416.0317"/><ellipse cx="972" cy="432.0317" fill="#ADD1B2" rx="11" ry="11" style="stroke: #A80036; stroke-width: 1.0;"/><path d="M971.9688,438.2036 Q970.2188,438.2036 969.0781,437.4692 Q967.9531,436.7192 967.3906,435.3754 Q966.8438,434.0161 966.8438,432.2192 Q966.8438,430.1879 967.5,428.7348 Q968.1563,427.2817 969.4375,426.5004 Q970.7188,425.7192 972.5938,425.7192 Q973.4844,425.7192 974.1563,425.9067 Q974.8281,426.0786 975.5156,426.4223 L974.7031,428.4379 Q974.0781,428.1254 973.5313,428.0004 Q973,427.8754 972.5156,427.8754 Q971.3438,427.8754 970.6406,428.4067 Q969.9375,428.9379 969.6406,429.8911 Q969.3438,430.8442 969.3438,432.1098 Q969.3438,434.1254 970.0625,435.0942 Q970.7813,436.0473 972.375,436.0473 Q972.9688,436.0473 973.5938,435.8911 Q974.2188,435.7348 975.0469,435.3598 L975.0469,437.5786 Q974.3125,437.8911 973.5156,438.0473 Q972.7344,438.2036 971.9688,438.2036 Z "/><text fill="#000000" font-family="sans-serif" font-size="12" lengthAdjust="spacingAndGlyphs" textLength="64" x="986" y="436.6877">MenuUnitaF</text><line style="stroke: #A80036; stroke-width: 1.5;" x1="958" x2="1052" y1="448.0317" y2="448.0317"/><line style="stroke: #A80036; stroke-width: 1.5;" x1="958" x2="1052" y1="456.0317" y2="456.0317"/><!--MD5=[b71e28d46693838dc5614a2818178488]
class src.domotix.controller.Modificatore--><rect fill="#FEFECE" filter="url(#f1v7a8h70gpkel)" height="48" id="src.domotix.controller.Modificatore" style="stroke: #A80036; stroke-width: 1.5;" width="98" x="644" y="724.0317"/><ellipse cx="659" cy="740.0317" fill="#ADD1B2" rx="11" ry="11" style="stroke: #A80036; stroke-width: 1.0;"/><path d="M658.9688,746.2036 Q657.2188,746.2036 656.0781,745.4692 Q654.9531,744.7192 654.3906,743.3754 Q653.8438,742.0161 653.8438,740.2192 Q653.8438,738.1879 654.5,736.7348 Q655.1563,735.2817 656.4375,734.5004 Q657.7188,733.7192 659.5938,733.7192 Q660.4844,733.7192 661.1563,733.9067 Q661.8281,734.0786 662.5156,734.4223 L661.7031,736.4379 Q661.0781,736.1254 660.5313,736.0004 Q660,735.8754 659.5156,735.8754 Q658.3438,735.8754 657.6406,736.4067 Q656.9375,736.9379 656.6406,737.8911 Q656.3438,738.8442 656.3438,740.1098 Q656.3438,742.1254 657.0625,743.0942 Q657.7813,744.0473 659.375,744.0473 Q659.9688,744.0473 660.5938,743.8911 Q661.2188,743.7348 662.0469,743.3598 L662.0469,745.5786 Q661.3125,745.8911 660.5156,746.0473 Q659.7344,746.2036 658.9688,746.2036 Z "/><text fill="#000000" font-family="sans-serif" font-size="12" lengthAdjust="spacingAndGlyphs" textLength="66" x="673" y="744.6877">Modificatore</text><line style="stroke: #A80036; stroke-width: 1.5;" x1="645" x2="741" y1="756.0317" y2="756.0317"/><line style="stroke: #A80036; stroke-width: 1.5;" x1="645" x2="741" y1="764.0317" y2="764.0317"/><!--MD5=[19e62dc1491eac9c9a34efd24892529b]
class src.domotix.controller.Recuperatore--><rect fill="#FEFECE" filter="url(#f1v7a8h70gpkel)" height="48" id="src.domotix.controller.Recuperatore" style="stroke: #A80036; stroke-width: 1.5;" width="101" x="507.5" y="724.0317"/><ellipse cx="522.5" cy="740.0317" fill="#ADD1B2" rx="11" ry="11" style="stroke: #A80036; stroke-width: 1.0;"/><path d="M522.4688,746.2036 Q520.7188,746.2036 519.5781,745.4692 Q518.4531,744.7192 517.8906,743.3754 Q517.3438,742.0161 517.3438,740.2192 Q517.3438,738.1879 518,736.7348 Q518.6563,735.2817 519.9375,734.5004 Q521.2188,733.7192 523.0938,733.7192 Q523.9844,733.7192 524.6563,733.9067 Q525.3281,734.0786 526.0156,734.4223 L525.2031,736.4379 Q524.5781,736.1254 524.0313,736.0004 Q523.5,735.8754 523.0156,735.8754 Q521.8438,735.8754 521.1406,736.4067 Q520.4375,736.9379 520.1406,737.8911 Q519.8438,738.8442 519.8438,740.1098 Q519.8438,742.1254 520.5625,743.0942 Q521.2813,744.0473 522.875,744.0473 Q523.4688,744.0473 524.0938,743.8911 Q524.7188,743.7348 525.5469,743.3598 L525.5469,745.5786 Q524.8125,745.8911 524.0156,746.0473 Q523.2344,746.2036 522.4688,746.2036 Z "/><text fill="#000000" font-family="sans-serif" font-size="12" lengthAdjust="spacingAndGlyphs" textLength="69" x="536.5" y="744.6877">Recuperatore</text><line style="stroke: #A80036; stroke-width: 1.5;" x1="508.5" x2="607.5" y1="756.0317" y2="756.0317"/><line style="stroke: #A80036; stroke-width: 1.5;" x1="508.5" x2="607.5" y1="764.0317" y2="764.0317"/><!--MD5=[9367247a66981bc82ef2aa62a3c03f0c]
link src.domotix.view.menus.MenuLogin to src.domotix.view.menus.menuPrincipale--><path d="M848.135,137.5821 C854.0883,139.6053 860.1485,141.487 866,143.0317 C886.5587,148.4588 926.2878,148.4445 964.6377,150.8306 C983.8127,152.0236 1002.6428,153.8167 1018.5594,157.1902 C1026.5177,158.8769 1033.7477,160.9587 1039.9281,163.5581 C1043.0184,164.8578 1045.8462,166.2869 1048.3716,167.8608 C1049.6343,168.6477 1050.8213,169.4708 1051.9277,170.3319 C1052.4809,170.7625 1053.014,171.2026 1053.5262,171.6525 C1053.7824,171.8775 1054.0333,172.1048 1054.2789,172.3347 C1054.4018,172.4496 1054.5233,172.5652 1054.6435,172.6813 " fill="none" id="src.domotix.view.menus.MenuLogin-&gt;src.domotix.view.menus.menuPrincipale" style="stroke: #A80036; stroke-width: 1.0;"/><polygon fill="#A80036" points="1054.6435,172.6813,1050.9523,163.5503,1051.0484,169.2064,1045.3923,169.3025,1054.6435,172.6813" style="stroke: #A80036; stroke-width: 1.0;"/><!--MD5=[9bba50c7fc893cc97814f952c50d2049]
link src.domotix.view.menus.menuPrincipale.MenuManutentore to src.domotix.view.menus.menuUnita.MenuUnitaM--><path d="M1029.4804,356.149 C1043.5832,366.0375 1057.7041,376.1593 1071,386.0317 C1082.3237,394.4397 1094.4073,403.9901 1105.1503,412.6969 " fill="none" id="src.domotix.view.menus.menuPrincipale.MenuManutentore-&gt;src.domotix.view.menus.menuUnita.MenuUnitaM" style="stroke: #A80036; stroke-width: 1.0;"/><polygon fill="#A80036" points="1109.0437,415.8628,1104.5843,407.0813,1105.1643,412.7084,1099.5373,413.2884,1109.0437,415.8628" style="stroke: #A80036; stroke-width: 1.0;"/><!--MD5=[7a90fc7d5210bee4f2c3f91586b7e550]
link src.domotix.view.menus.menuPrincipale.MenuFruitore to src.domotix.view.menus.menuUnita.MenuUnitaF--><path d="M718.9111,303.9153 C730.731,323.62 750.1491,350.2645 775,364.0317 C843.185,401.8055 878.6926,352.3729 949,386.0317 C961.6902,392.107 973.3253,402.1795 982.6627,411.9902 " fill="none" id="src.domotix.view.menus.menuPrincipale.MenuFruitore-&gt;src.domotix.view.menus.menuUnita.MenuUnitaF" style="stroke: #A80036; stroke-width: 1.0;"/><polygon fill="#A80036" points="986.2568,415.8733,983.079,406.5512,982.8605,412.2038,977.2078,411.9853,986.2568,415.8733" style="stroke: #A80036; stroke-width: 1.0;"/><!--MD5=[1d0c6aa5c73d46b02aaf008636991521]
link src.domotix.view.menus.menuPrincipale.MenuManutentore to src.domotix.view.menus.menuCategorie.MenuCategorieM--><path d="M859.8578,356.491 C845.7367,376.1992 831.4256,396.1725 820.3389,411.6456 " fill="none" id="src.domotix.view.menus.menuPrincipale.MenuManutentore-&gt;src.domotix.view.menus.menuCategorie.MenuCategorieM" style="stroke: #A80036; stroke-width: 1.0;"/><polygon fill="#A80036" points="817.3003,415.8865,825.7939,410.9006,820.2126,411.8222,819.291,406.2409,817.3003,415.8865" style="stroke: #A80036; stroke-width: 1.0;"/><!--MD5=[4b960eff92c13eb7f6a61450a90f5e15]
link src.domotix.view.menus.menuPrincipale.MenuFruitore to src.domotix.view.menus.menuCategorie.MenuCategorieF--><path d="M683.8429,303.5602 C657.1408,332.5176 612.3403,381.1019 584.0203,411.8137 " fill="none" id="src.domotix.view.menus.menuPrincipale.MenuFruitore-&gt;src.domotix.view.menus.menuCategorie.MenuCategorieF" style="stroke: #A80036; stroke-width: 1.0;"/><polygon fill="#A80036" points="580.3086,415.839,589.3504,411.9344,583.6982,412.1633,583.4693,406.5111,580.3086,415.839" style="stroke: #A80036; stroke-width: 1.0;"/><!--MD5=[adac0e828ef7ea1e345e5d871fdf03b6]
link src.domotix.view.menus.menuCategorie.MenuCategorieM to src.domotix.view.menus.menuCategorie.attuatori.MenuCategorieAttuatoriM--><path d="M800,464.275 C800,479.1893 800,499.1795 800,518.9538 " fill="none" id="src.domotix.view.menus.menuCategorie.MenuCategorieM-&gt;src.domotix.view.menus.menuCategorie.attuatori.MenuCategorieAttuatoriM" style="stroke: #A80036; stroke-width: 1.0;"/><polygon fill="#A80036" points="800,523.9733,804,514.9733,800,518.9733,796,514.9733,800,523.9733" style="stroke: #A80036; stroke-width: 1.0;"/><!--MD5=[aefef4ca43c672a9cf0a4c5876f734a3]
link src.domotix.view.menus.menuCategorie.MenuCategorieM to src.domotix.view.menus.menuCategorie.sensori.MenuCategorieSensoriM--><path d="M738.6771,452.8347 C707.4292,459.1087 668.7808,466.4865 634,472.0317 C557.0232,484.3043 531.8622,463.8345 460,494.0317 C443.7869,500.8446 427.9229,510.3727 413.2332,520.8488 " fill="none" id="src.domotix.view.menus.menuCategorie.MenuCategorieM-&gt;src.domotix.view.menus.menuCategorie.sensori.MenuCategorieSensoriM" style="stroke: #A80036; stroke-width: 1.0;"/><polygon fill="#A80036" points="409.1218,523.8273,418.7569,521.7865,413.1709,520.8939,414.0635,515.3079,409.1218,523.8273" style="stroke: #A80036; stroke-width: 1.0;"/><!--MD5=[6c859a37dee11511606962bacc5dc5e1]
link src.domotix.view.menus.menuCategorie.MenuCategorieF to src.domotix.view.menus.menuCategorie.attuatori.MenuCategorieAttuatoriF--><path d="M558,464.275 C558,491.2452 558,534.8146 558,563.6887 " fill="none" id="src.domotix.view.menus.menuCategorie.MenuCategorieF-&gt;src.domotix.view.menus.menuCategorie.attuatori.MenuCategorieAttuatoriF" style="stroke: #A80036; stroke-width: 1.0;"/><polygon fill="#A80036" points="558,568.9018,562,559.9018,558,563.9018,554,559.9018,558,568.9018" style="stroke: #A80036; stroke-width: 1.0;"/><!--MD5=[9623df759dac8aece0661f2108b887e6]
link src.domotix.view.menus.menuCategorie.MenuCategorieF to src.domotix.view.menus.menuCategorie.sensori.MenuCategorieSensoriF--><path d="M498.702,444.6574 C413.1364,452.1026 259.936,468.5428 211,494.0317 C179.3767,510.5031 152.2556,541.5585 135.183,564.5122 " fill="none" id="src.domotix.view.menus.menuCategorie.MenuCategorieF-&gt;src.domotix.view.menus.menuCategorie.sensori.MenuCategorieSensoriF" style="stroke: #A80036; stroke-width: 1.0;"/><polygon fill="#A80036" points="132.1133,568.6985,140.661,563.8059,135.0699,564.6663,134.2095,559.0753,132.1133,568.6985" style="stroke: #A80036; stroke-width: 1.0;"/><!--MD5=[67630319409febaff530f5b075fdb9c9]
link src.domotix.view.menus.menuCategorie.attuatori.MenuCategorieAttuatoriM to src.domotix.controller.Modificatore--><path d="M752.1333,662.3713 C738.1973,682.559 723.7457,703.4936 712.6176,719.6137 " fill="none" id="src.domotix.view.menus.menuCategorie.attuatori.MenuCategorieAttuatoriM-&gt;src.domotix.controller.Modificatore" style="stroke: #A80036; stroke-width: 1.0;"/><polygon fill="#A80036" points="709.5702,724.0281,717.975,718.8939,712.4107,719.9133,711.3913,714.3491,709.5702,724.0281" style="stroke: #A80036; stroke-width: 1.0;"/><!--MD5=[1d96bbc4ef1a6163d1cb499ad0e8388f]
link src.domotix.view.menus.menuCategorie.attuatori.MenuCategorieAttuatoriM to src.domotix.controller.Recuperatore--><path d="M702.7242,662.1615 C687.8351,670.9967 672.3148,679.2917 657,686.0317 C643.9763,691.7634 638.7384,687.6911 626,694.0317 C612.1774,700.912 598.5306,710.9305 587.1314,720.4749 " fill="none" id="src.domotix.view.menus.menuCategorie.attuatori.MenuCategorieAttuatoriM-&gt;src.domotix.controller.Recuperatore" style="stroke: #A80036; stroke-width: 1.0;"/><polygon fill="#A80036" points="583.0373,723.9631,592.4821,721.1711,586.8432,720.7204,587.2939,715.0816,583.0373,723.9631" style="stroke: #A80036; stroke-width: 1.0;"/><!--MD5=[e5388cecad954251b1b9ce40fb07b107]
link src.domotix.view.menus.menuCategorie.attuatori.MenuCategorieAttuatoriF to src.domotix.controller.Recuperatore--><path d="M558,617.2504 C558,644.6635 558,689.3147 558,718.6845 " fill="none" id="src.domotix.view.menus.menuCategorie.attuatori.MenuCategorieAttuatoriF-&gt;src.domotix.controller.Recuperatore" style="stroke: #A80036; stroke-width: 1.0;"/><polygon fill="#A80036" points="558,723.983,562,714.983,558,718.983,554,714.983,558,723.983" style="stroke: #A80036; stroke-width: 1.0;"/><!--MD5=[a83117ae442eb64d8f44f6997f8e9240]
link src.domotix.view.menus.menuCategorie.sensori.MenuCategorieSensoriM to src.domotix.controller.Modificatore--><path d="M413.66,662.1102 C428.24,671.7362 443.9571,680.2862 460,686.0317 C494.7692,698.4837 591.4784,680.9089 626,694.0317 C641.0557,699.7549 655.3134,710.235 666.775,720.4503 " fill="none" id="src.domotix.view.menus.menuCategorie.sensori.MenuCategorieSensoriM-&gt;src.domotix.controller.Modificatore" style="stroke: #A80036; stroke-width: 1.0;"/><polygon fill="#A80036" points="670.5518,723.8972,666.6004,714.8757,666.8586,720.5267,661.2076,720.7849,670.5518,723.8972" style="stroke: #A80036; stroke-width: 1.0;"/><!--MD5=[b2dc2c23412e584a1aea0ff8c94916c1]
link src.domotix.view.menus.menuCategorie.sensori.MenuCategorieSensoriM to src.domotix.controller.Recuperatore--><path d="M426.2437,662.1475 C437.5217,670.3248 448.9636,678.451 460,686.0317 C477.4405,698.0112 497.0773,710.6038 514.168,721.2872 " fill="none" id="src.domotix.view.menus.menuCategorie.sensori.MenuCategorieSensoriM-&gt;src.domotix.controller.Recuperatore" style="stroke: #A80036; stroke-width: 1.0;"/><polygon fill="#A80036" points="518.4554,723.9606,512.9349,715.8043,514.2127,721.315,508.702,722.5927,518.4554,723.9606" style="stroke: #A80036; stroke-width: 1.0;"/><!--MD5=[609b3844c9facd757b89a51e40e4b69a]
link src.domotix.view.menus.menuCategorie.sensori.MenuCategorieSensoriF to src.domotix.controller.Recuperatore--><path d="M133.8435,617.3853 C151.0804,639.0089 179.1986,669.6456 211,686.0317 C260.9374,711.7627 417.7168,732.4749 502.4091,742.133 " fill="none" id="src.domotix.view.menus.menuCategorie.sensori.MenuCategorieSensoriF-&gt;src.domotix.controller.Recuperatore" style="stroke: #A80036; stroke-width: 1.0;"/><polygon fill="#A80036" points="507.3831,742.697,498.8912,737.7083,502.4149,742.1336,497.9897,745.6573,507.3831,742.697" style="stroke: #A80036; stroke-width: 1.0;"/><!--MD5=[ccd16d8e2bf6890640138acedb9ed920]
link src.domotix.view.menus.menuPrincipale.MenuManutentore to src.domotix.controller.Modificatore--><path d="M1034.4555,356.1026 C1040.9544,359.0148 1047.4908,361.6857 1054,364.0317 C1085.6942,375.4548 1181.9738,360.5394 1204,386.0317 C1228.9894,414.9535 1220.4145,437.5135 1204,472.0317 C1139.284,608.1235 1075.762,618.5904 941,686.0317 C878.6481,717.2355 799.4252,733.4905 747.521,741.3928 " fill="none" id="src.domotix.view.menus.menuPrincipale.MenuManutentore-&gt;src.domotix.controller.Modificatore" style="stroke: #A80036; stroke-width: 1.0;"/><polygon fill="#A80036" points="742.2717,742.1777,751.7643,744.8025,747.2167,741.4381,750.5811,736.8905,742.2717,742.1777" style="stroke: #A80036; stroke-width: 1.0;"/><!--MD5=[0aac5beeab32cbac163165256360ae54]
@startuml

title __DOMOTIX > VIEW > MENUS's Class Diagram__\n

namespace src.domotix.view.menus {
    class src.domotix.view.menus.MenuErroreApertura {
    }

    class src.domotix.view.menus.MenuErroreChiusura {
    }

    class src.domotix.view.menus.MenuLogin {
    }

    namespace menuPrincipale {
        class src.domotix.view.menus.menuPrincipale.MenuFruitore {
        }

        class src.domotix.view.menus.menuPrincipale.MenuManutentore {
            {static} - SUCCESSO_INSERIMENTO_UNITA : String
            {static} - ERRORE_INSERIMENTO_UNITA : String
            {static} - SUCCESSO_RIMOZIONE_UNITA : String
            {static} - ERRORE_RIMOZIONE_UNITA : String
            {static} - NOMI_UNITA_IMMOBILIARI_ESISTENTI : String
            {static} - NOME_NUOVA_UNITA : String
            {static} - premenuUnita()
        }
    }

    namespace menuCategorie {
        class src.domotix.view.menus.menuCategorie.MenuCategorieF {
        }

        class src.domotix.view.menus.menuCategorie.MenuCategorieM {
        }

        namespace sensori {
            class src.domotix.view.menus.menuCategorie.sensori.MenuCategorieSensoriF {
            }

            class src.domotix.view.menus.menuCategorie.sensori.MenuCategorieSensoriM {
                {static} - TERMINATORE : String
                {static} - SUCCESSO_INSERIMENTO_INFO : String
                {static} - ERRORE_INSERIMENTO_INFO : String
                {static} - INSERIMENTO_NOME_INFO : String
                {static} - ALMENO_UNA_INFO : String
                {static} - IS_NUMERICA : String
            }
        }

        namespace attuatori {
            class src.domotix.view.menus.menuCategorie.attuatori.MenuCategorieAttuatoriF {
            }

            class src.domotix.view.menus.menuCategorie.attuatori.MenuCategorieAttuatoriM {
                {static} - IS_PARAMETRICA : String
                {static} - INSERIMENTO_NOME_PARAMETRO : String
                {static} - SUCCESSO_INSERIMENTO_PARAMETRO : String
                {static} - ERRORE_ALMENO_UN_PARAMETRO : String
                {static} - ERRORE_INSERIMENTO_PARAMETRO : String
                {static} - INSERIMENTO_VALORE_PARAMETRO : String
            }
        }
    }

    namespace menuUnita {
    }
}

src.domotix.view.menus.MenuLogin - -> src.domotix.view.menus.menuPrincipale
src.domotix.view.menus.menuPrincipale.MenuManutentore - -> src.domotix.view.menus.menuUnita.MenuUnitaM
src.domotix.view.menus.menuPrincipale.MenuFruitore - -> src.domotix.view.menus.menuUnita.MenuUnitaF
src.domotix.view.menus.menuPrincipale.MenuManutentore - -> src.domotix.view.menus.menuCategorie.MenuCategorieM
src.domotix.view.menus.menuPrincipale.MenuFruitore - -> src.domotix.view.menus.menuCategorie.MenuCategorieF
src.domotix.view.menus.menuCategorie.MenuCategorieM - -> src.domotix.view.menus.menuCategorie.attuatori.MenuCategorieAttuatoriM
src.domotix.view.menus.menuCategorie.MenuCategorieM - -> src.domotix.view.menus.menuCategorie.sensori.MenuCategorieSensoriM
src.domotix.view.menus.menuCategorie.MenuCategorieF - -> src.domotix.view.menus.menuCategorie.attuatori.MenuCategorieAttuatoriF
src.domotix.view.menus.menuCategorie.MenuCategorieF - -> src.domotix.view.menus.menuCategorie.sensori.MenuCategorieSensoriF

src.domotix.view.menus.menuCategorie.attuatori.MenuCategorieAttuatoriM - -> src.domotix.controller.Modificatore
src.domotix.view.menus.menuCategorie.attuatori.MenuCategorieAttuatoriM - -> src.domotix.controller.Recuperatore
src.domotix.view.menus.menuCategorie.attuatori.MenuCategorieAttuatoriF - -> src.domotix.controller.Recuperatore
src.domotix.view.menus.menuCategorie.sensori.MenuCategorieSensoriM - -> src.domotix.controller.Modificatore
src.domotix.view.menus.menuCategorie.sensori.MenuCategorieSensoriM - -> src.domotix.controller.Recuperatore
src.domotix.view.menus.menuCategorie.sensori.MenuCategorieSensoriF - -> src.domotix.controller.Recuperatore
src.domotix.view.menus.menuPrincipale.MenuManutentore - -> src.domotix.controller.Modificatore

@enduml

PlantUML version 1.2019.11(Sun Sep 22 12:02:15 CEST 2019)
(GPL source distribution)
Java Runtime: OpenJDK Runtime Environment
JVM: OpenJDK 64-Bit Server VM
Java Version: 11.0.3+12-b304.10
Operating System: Linux
Default Encoding: UTF-8
Language: it
Country: IT
--></g></svg>