<?xml version="1.0" encoding="UTF-8" standalone="no"?><svg xmlns="http://www.w3.org/2000/svg" xmlns:xlink="http://www.w3.org/1999/xlink" contentScriptType="application/ecmascript" contentStyleType="text/css" height="777px" preserveAspectRatio="none" style="width:1192px;height:777px;" version="1.1" viewBox="0 0 1192 777" width="1192px" zoomAndPan="magnify"><defs><filter height="300%" id="f7httsf2s1nwm" width="300%" x="-1" y="-1"><feGaussianBlur result="blurOut" stdDeviation="2.0"/><feColorMatrix in="blurOut" result="blurOut2" type="matrix" values="0 0 0 0 0 0 0 0 0 0 0 0 0 0 0 0 0 0 .4 0"/><feOffset dx="4.0" dy="4.0" in="blurOut2" result="blurOut3"/><feBlend in="SourceGraphic" in2="blurOut3" mode="normal"/></filter></defs><g><text fill="#000000" font-family="sans-serif" font-size="18" lengthAdjust="spacingAndGlyphs" text-decoration="underline" textLength="354" x="417.5" y="19.2419">DOMOTIX &gt; VIEW &gt; MENUS's Class Diagram</text><text fill="#000000" font-family="sans-serif" font-size="18" lengthAdjust="spacingAndGlyphs" textLength="0" x="596.5" y="43.7577"/><!--MD5=[a270aa123fc17553ce95095edea6af5c]
cluster src.domotix.view.menus--><polygon fill="#FFFFFF" filter="url(#f7httsf2s1nwm)" points="14,65.0317,178,65.0317,185,90.0996,1154,90.0996,1154,671.0317,14,671.0317,14,65.0317" style="stroke: #000000; stroke-width: 1.5;"/><line style="stroke: #000000; stroke-width: 1.5;" x1="14" x2="185" y1="90.0996" y2="90.0996"/><text fill="#000000" font-family="sans-serif" font-size="14" font-weight="bold" lengthAdjust="spacingAndGlyphs" textLength="158" x="18" y="81.9976">src.domotix.view.menus</text><!--MD5=[702d6a1548e6b03ca0dc4267e4e60920]
cluster src.domotix.view.menus.menuPrincipale--><polygon fill="#FFFFFF" filter="url(#f7httsf2s1nwm)" points="513,173.0317,624,173.0317,631,198.0996,884,198.0996,884,349.0317,513,349.0317,513,173.0317" style="stroke: #000000; stroke-width: 1.5;"/><line style="stroke: #000000; stroke-width: 1.5;" x1="513" x2="631" y1="198.0996" y2="198.0996"/><text fill="#000000" font-family="sans-serif" font-size="14" font-weight="bold" lengthAdjust="spacingAndGlyphs" textLength="105" x="517" y="189.9976">menuPrincipale</text><!--MD5=[171676647ca269d82cf939774b48600f]
cluster src.domotix.view.menus.menuCategorie--><polygon fill="#FFFFFF" filter="url(#f7httsf2s1nwm)" points="22,371.0317,131,371.0317,138,396.0996,891,396.0996,891,663.0317,22,663.0317,22,371.0317" style="stroke: #000000; stroke-width: 1.5;"/><line style="stroke: #000000; stroke-width: 1.5;" x1="22" x2="138" y1="396.0996" y2="396.0996"/><text fill="#000000" font-family="sans-serif" font-size="14" font-weight="bold" lengthAdjust="spacingAndGlyphs" textLength="103" x="26" y="387.9976">menuCategorie</text><!--MD5=[6a896d3fff213cf3ec0a828c16557f16]
cluster src.domotix.view.menus.menuCategorie.sensori--><polygon fill="#FFFFFF" filter="url(#f7httsf2s1nwm)" points="30,479.0317,83,479.0317,90,504.0996,443,504.0996,443,655.0317,30,655.0317,30,479.0317" style="stroke: #000000; stroke-width: 1.5;"/><line style="stroke: #000000; stroke-width: 1.5;" x1="30" x2="90" y1="504.0996" y2="504.0996"/><text fill="#000000" font-family="sans-serif" font-size="14" font-weight="bold" lengthAdjust="spacingAndGlyphs" textLength="47" x="34" y="495.9976">sensori</text><!--MD5=[2b248cac9c74822cda29090c02a6afec]
cluster src.domotix.view.menus.menuCategorie.attuatori--><polygon fill="#FFFFFF" filter="url(#f7httsf2s1nwm)" points="462,486.5317,529,486.5317,536,511.5996,883,511.5996,883,647.5317,462,647.5317,462,486.5317" style="stroke: #000000; stroke-width: 1.5;"/><line style="stroke: #000000; stroke-width: 1.5;" x1="462" x2="536" y1="511.5996" y2="511.5996"/><text fill="#000000" font-family="sans-serif" font-size="14" font-weight="bold" lengthAdjust="spacingAndGlyphs" textLength="61" x="466" y="503.4976">attuatori</text><!--MD5=[00517f9916d116c0c4ccaffe7c1b1d29]
cluster src.domotix.view.menus.menuUnita--><polygon fill="#FFFFFF" filter="url(#f7httsf2s1nwm)" points="899,371.0317,981,371.0317,988,396.0996,1146,396.0996,1146,457.0317,899,457.0317,899,371.0317" style="stroke: #000000; stroke-width: 1.5;"/><line style="stroke: #000000; stroke-width: 1.5;" x1="899" x2="988" y1="396.0996" y2="396.0996"/><text fill="#000000" font-family="sans-serif" font-size="14" font-weight="bold" lengthAdjust="spacingAndGlyphs" textLength="76" x="903" y="387.9976">menuUnita</text><!--MD5=[e3c3ae39643e55df7c1a0329eec479c9]
cluster src.domotix.controller--><polygon fill="#FFFFFF" filter="url(#f7httsf2s1nwm)" points="493,679.0317,645,679.0317,652,704.0996,744,704.0996,744,765.0317,493,765.0317,493,679.0317" style="stroke: #000000; stroke-width: 1.5;"/><line style="stroke: #000000; stroke-width: 1.5;" x1="493" x2="652" y1="704.0996" y2="704.0996"/><text fill="#000000" font-family="sans-serif" font-size="14" font-weight="bold" lengthAdjust="spacingAndGlyphs" textLength="146" x="497" y="695.9976">src.domotix.controller</text><!--MD5=[d765f0f202665bc0cdb39d41202479e1]
class src.domotix.view.menus.MenuErroreApertura--><rect fill="#FEFECE" filter="url(#f7httsf2s1nwm)" height="48" id="src.domotix.view.menus.MenuErroreApertura" style="stroke: #A80036; stroke-width: 1.5;" width="138" x="833" y="95.0317"/><ellipse cx="848" cy="111.0317" fill="#ADD1B2" rx="11" ry="11" style="stroke: #A80036; stroke-width: 1.0;"/><path d="M847.9688,117.2036 Q846.2188,117.2036 845.0781,116.4692 Q843.9531,115.7192 843.3906,114.3754 Q842.8438,113.0161 842.8438,111.2192 Q842.8438,109.1879 843.5,107.7348 Q844.1563,106.2817 845.4375,105.5004 Q846.7188,104.7192 848.5938,104.7192 Q849.4844,104.7192 850.1563,104.9067 Q850.8281,105.0786 851.5156,105.4223 L850.7031,107.4379 Q850.0781,107.1254 849.5313,107.0004 Q849,106.8754 848.5156,106.8754 Q847.3438,106.8754 846.6406,107.4067 Q845.9375,107.9379 845.6406,108.8911 Q845.3438,109.8442 845.3438,111.1098 Q845.3438,113.1254 846.0625,114.0942 Q846.7813,115.0473 848.375,115.0473 Q848.9688,115.0473 849.5938,114.8911 Q850.2188,114.7348 851.0469,114.3598 L851.0469,116.5786 Q850.3125,116.8911 849.5156,117.0473 Q848.7344,117.2036 847.9688,117.2036 Z "/><text fill="#000000" font-family="sans-serif" font-size="12" lengthAdjust="spacingAndGlyphs" textLength="106" x="862" y="115.6877">MenuErroreApertura</text><line style="stroke: #A80036; stroke-width: 1.5;" x1="834" x2="970" y1="127.0317" y2="127.0317"/><line style="stroke: #A80036; stroke-width: 1.5;" x1="834" x2="970" y1="135.0317" y2="135.0317"/><!--MD5=[74a852f54c2ea3d94783cf68fcd98a5c]
class src.domotix.view.menus.MenuErroreChiusura--><rect fill="#FEFECE" filter="url(#f7httsf2s1nwm)" height="48" id="src.domotix.view.menus.MenuErroreChiusura" style="stroke: #A80036; stroke-width: 1.5;" width="139" x="1006.5" y="95.0317"/><ellipse cx="1021.5" cy="111.0317" fill="#ADD1B2" rx="11" ry="11" style="stroke: #A80036; stroke-width: 1.0;"/><path d="M1021.4688,117.2036 Q1019.7188,117.2036 1018.5781,116.4692 Q1017.4531,115.7192 1016.8906,114.3754 Q1016.3438,113.0161 1016.3438,111.2192 Q1016.3438,109.1879 1017,107.7348 Q1017.6563,106.2817 1018.9375,105.5004 Q1020.2188,104.7192 1022.0938,104.7192 Q1022.9844,104.7192 1023.6563,104.9067 Q1024.3281,105.0786 1025.0156,105.4223 L1024.2031,107.4379 Q1023.5781,107.1254 1023.0313,107.0004 Q1022.5,106.8754 1022.0156,106.8754 Q1020.8438,106.8754 1020.1406,107.4067 Q1019.4375,107.9379 1019.1406,108.8911 Q1018.8438,109.8442 1018.8438,111.1098 Q1018.8438,113.1254 1019.5625,114.0942 Q1020.2813,115.0473 1021.875,115.0473 Q1022.4688,115.0473 1023.0938,114.8911 Q1023.7188,114.7348 1024.5469,114.3598 L1024.5469,116.5786 Q1023.8125,116.8911 1023.0156,117.0473 Q1022.2344,117.2036 1021.4688,117.2036 Z "/><text fill="#000000" font-family="sans-serif" font-size="12" lengthAdjust="spacingAndGlyphs" textLength="107" x="1035.5" y="115.6877">MenuErroreChiusura</text><line style="stroke: #A80036; stroke-width: 1.5;" x1="1007.5" x2="1144.5" y1="127.0317" y2="127.0317"/><line style="stroke: #A80036; stroke-width: 1.5;" x1="1007.5" x2="1144.5" y1="135.0317" y2="135.0317"/><!--MD5=[aafb8396e2e6c35fb5858e09b610cc55]
class src.domotix.view.menus.MenuAzioniConflitto--><rect fill="#FEFECE" filter="url(#f7httsf2s1nwm)" height="48" id="src.domotix.view.menus.MenuAzioniConflitto" style="stroke: #A80036; stroke-width: 1.5;" width="140" x="911" y="248.0317"/><ellipse cx="926" cy="264.0317" fill="#ADD1B2" rx="11" ry="11" style="stroke: #A80036; stroke-width: 1.0;"/><path d="M925.9688,270.2036 Q924.2188,270.2036 923.0781,269.4692 Q921.9531,268.7192 921.3906,267.3754 Q920.8438,266.0161 920.8438,264.2192 Q920.8438,262.1879 921.5,260.7348 Q922.1563,259.2817 923.4375,258.5004 Q924.7188,257.7192 926.5938,257.7192 Q927.4844,257.7192 928.1563,257.9067 Q928.8281,258.0786 929.5156,258.4223 L928.7031,260.4379 Q928.0781,260.1254 927.5313,260.0004 Q927,259.8754 926.5156,259.8754 Q925.3438,259.8754 924.6406,260.4067 Q923.9375,260.9379 923.6406,261.8911 Q923.3438,262.8442 923.3438,264.1098 Q923.3438,266.1254 924.0625,267.0942 Q924.7813,268.0473 926.375,268.0473 Q926.9688,268.0473 927.5938,267.8911 Q928.2188,267.7348 929.0469,267.3598 L929.0469,269.5786 Q928.3125,269.8911 927.5156,270.0473 Q926.7344,270.2036 925.9688,270.2036 Z "/><text fill="#000000" font-family="sans-serif" font-size="12" lengthAdjust="spacingAndGlyphs" textLength="108" x="940" y="268.6877">MenuAzioniConflitto</text><line style="stroke: #A80036; stroke-width: 1.5;" x1="912" x2="1050" y1="280.0317" y2="280.0317"/><line style="stroke: #A80036; stroke-width: 1.5;" x1="912" x2="1050" y1="288.0317" y2="288.0317"/><!--MD5=[8bb34a89a0c35167d59833084f0b1bf8]
class src.domotix.view.menus.MenuLogin--><rect fill="#FEFECE" filter="url(#f7httsf2s1nwm)" height="48" id="src.domotix.view.menus.MenuLogin" style="stroke: #A80036; stroke-width: 1.5;" width="92" x="706" y="95.0317"/><ellipse cx="721" cy="111.0317" fill="#ADD1B2" rx="11" ry="11" style="stroke: #A80036; stroke-width: 1.0;"/><path d="M720.9688,117.2036 Q719.2188,117.2036 718.0781,116.4692 Q716.9531,115.7192 716.3906,114.3754 Q715.8438,113.0161 715.8438,111.2192 Q715.8438,109.1879 716.5,107.7348 Q717.1563,106.2817 718.4375,105.5004 Q719.7188,104.7192 721.5938,104.7192 Q722.4844,104.7192 723.1563,104.9067 Q723.8281,105.0786 724.5156,105.4223 L723.7031,107.4379 Q723.0781,107.1254 722.5313,107.0004 Q722,106.8754 721.5156,106.8754 Q720.3438,106.8754 719.6406,107.4067 Q718.9375,107.9379 718.6406,108.8911 Q718.3438,109.8442 718.3438,111.1098 Q718.3438,113.1254 719.0625,114.0942 Q719.7813,115.0473 721.375,115.0473 Q721.9688,115.0473 722.5938,114.8911 Q723.2188,114.7348 724.0469,114.3598 L724.0469,116.5786 Q723.3125,116.8911 722.5156,117.0473 Q721.7344,117.2036 720.9688,117.2036 Z "/><text fill="#000000" font-family="sans-serif" font-size="12" lengthAdjust="spacingAndGlyphs" textLength="60" x="735" y="115.6877">MenuLogin</text><line style="stroke: #A80036; stroke-width: 1.5;" x1="707" x2="797" y1="127.0317" y2="127.0317"/><line style="stroke: #A80036; stroke-width: 1.5;" x1="707" x2="797" y1="135.0317" y2="135.0317"/><!--MD5=[bbe7e59fe1154a8b05e9c081f104abcd]
class src.domotix.view.menus.menuPrincipale.MenuFruitore--><rect fill="#FEFECE" filter="url(#f7httsf2s1nwm)" height="48" id="src.domotix.view.menus.menuPrincipale.MenuFruitore" style="stroke: #A80036; stroke-width: 1.5;" width="103" x="521.5" y="248.0317"/><ellipse cx="536.5" cy="264.0317" fill="#ADD1B2" rx="11" ry="11" style="stroke: #A80036; stroke-width: 1.0;"/><path d="M536.4688,270.2036 Q534.7188,270.2036 533.5781,269.4692 Q532.4531,268.7192 531.8906,267.3754 Q531.3438,266.0161 531.3438,264.2192 Q531.3438,262.1879 532,260.7348 Q532.6563,259.2817 533.9375,258.5004 Q535.2188,257.7192 537.0938,257.7192 Q537.9844,257.7192 538.6563,257.9067 Q539.3281,258.0786 540.0156,258.4223 L539.2031,260.4379 Q538.5781,260.1254 538.0313,260.0004 Q537.5,259.8754 537.0156,259.8754 Q535.8438,259.8754 535.1406,260.4067 Q534.4375,260.9379 534.1406,261.8911 Q533.8438,262.8442 533.8438,264.1098 Q533.8438,266.1254 534.5625,267.0942 Q535.2813,268.0473 536.875,268.0473 Q537.4688,268.0473 538.0938,267.8911 Q538.7188,267.7348 539.5469,267.3598 L539.5469,269.5786 Q538.8125,269.8911 538.0156,270.0473 Q537.2344,270.2036 536.4688,270.2036 Z "/><text fill="#000000" font-family="sans-serif" font-size="12" lengthAdjust="spacingAndGlyphs" textLength="71" x="550.5" y="268.6877">MenuFruitore</text><line style="stroke: #A80036; stroke-width: 1.5;" x1="522.5" x2="623.5" y1="280.0317" y2="280.0317"/><line style="stroke: #A80036; stroke-width: 1.5;" x1="522.5" x2="623.5" y1="288.0317" y2="288.0317"/><!--MD5=[4905543d80e1cc424a16b65cdb0d5e21]
class src.domotix.view.menus.menuPrincipale.MenuManutentore--><rect fill="#FEFECE" filter="url(#f7httsf2s1nwm)" height="137.8913" id="src.domotix.view.menus.menuPrincipale.MenuManutentore" style="stroke: #A80036; stroke-width: 1.5;" width="181" x="659.5" y="203.0317"/><ellipse cx="697.45" cy="219.0317" fill="#ADD1B2" rx="11" ry="11" style="stroke: #A80036; stroke-width: 1.0;"/><path d="M697.4188,225.2036 Q695.6688,225.2036 694.5281,224.4692 Q693.4031,223.7192 692.8406,222.3754 Q692.2938,221.0161 692.2938,219.2192 Q692.2938,217.1879 692.95,215.7348 Q693.6063,214.2817 694.8875,213.5004 Q696.1688,212.7192 698.0438,212.7192 Q698.9344,212.7192 699.6063,212.9067 Q700.2781,213.0786 700.9656,213.4223 L700.1531,215.4379 Q699.5281,215.1254 698.9813,215.0004 Q698.45,214.8754 697.9656,214.8754 Q696.7938,214.8754 696.0906,215.4067 Q695.3875,215.9379 695.0906,216.8911 Q694.7938,217.8442 694.7938,219.1098 Q694.7938,221.1254 695.5125,222.0942 Q696.2313,223.0473 697.825,223.0473 Q698.4188,223.0473 699.0438,222.8911 Q699.6688,222.7348 700.4969,222.3598 L700.4969,224.5786 Q699.7625,224.8911 698.9656,225.0473 Q698.1844,225.2036 697.4188,225.2036 Z "/><text fill="#000000" font-family="sans-serif" font-size="12" lengthAdjust="spacingAndGlyphs" textLength="98" x="716.55" y="223.6877">MenuManutentore</text><line style="stroke: #A80036; stroke-width: 1.5;" x1="660.5" x2="839.5" y1="235.0317" y2="235.0317"/><rect fill="none" height="6" style="stroke: #C82930; stroke-width: 1.0;" width="6" x="667.5" y="243.0317"/><text fill="#000000" font-family="sans-serif" font-size="11" lengthAdjust="spacingAndGlyphs" text-decoration="underline" textLength="142" x="679.5" y="250.7906">INTRO_IMPORT_UNITA : String</text><rect fill="none" height="6" style="stroke: #C82930; stroke-width: 1.0;" width="6" x="667.5" y="258.0136"/><text fill="#000000" font-family="sans-serif" font-size="11" lengthAdjust="spacingAndGlyphs" text-decoration="underline" textLength="125" x="679.5" y="265.7725">IMPORT_UNITA_OK : String</text><rect fill="none" height="6" style="stroke: #C82930; stroke-width: 1.0;" width="6" x="667.5" y="272.9955"/><text fill="#000000" font-family="sans-serif" font-size="11" lengthAdjust="spacingAndGlyphs" text-decoration="underline" textLength="115" x="679.5" y="280.7544">GUIDA_IN_LINEA : String</text><rect fill="none" height="6" style="stroke: #C82930; stroke-width: 1.0;" width="6" x="667.5" y="287.9774"/><text fill="#000000" font-family="sans-serif" font-size="11" lengthAdjust="spacingAndGlyphs" text-decoration="underline" textLength="155" x="679.5" y="295.7363">UNITA_NON_IMPORTATA : String</text><rect fill="none" height="6" style="stroke: #C82930; stroke-width: 1.0;" width="6" x="667.5" y="302.9592"/><text fill="#000000" font-family="sans-serif" font-size="11" lengthAdjust="spacingAndGlyphs" text-decoration="underline" textLength="109" x="679.5" y="310.7182">IMPORT_FAILED : String</text><rect fill="none" height="6" style="stroke: #C82930; stroke-width: 1.0;" width="6" x="667.5" y="317.9411"/><text fill="#000000" font-family="sans-serif" font-size="11" lengthAdjust="spacingAndGlyphs" text-decoration="underline" textLength="138" x="679.5" y="325.7">NOTHING_IMPORTED : String</text><line style="stroke: #A80036; stroke-width: 1.5;" x1="660.5" x2="839.5" y1="332.923" y2="332.923"/><!--MD5=[662789c5b67dd3d996627064a0ee64d1]
class src.domotix.view.menus.menuCategorie.MenuCategorieF--><rect fill="#FEFECE" filter="url(#f7httsf2s1nwm)" height="48" id="src.domotix.view.menus.menuCategorie.MenuCategorieF" style="stroke: #A80036; stroke-width: 1.5;" width="118" x="493" y="401.0317"/><ellipse cx="508" cy="417.0317" fill="#ADD1B2" rx="11" ry="11" style="stroke: #A80036; stroke-width: 1.0;"/><path d="M507.9688,423.2036 Q506.2188,423.2036 505.0781,422.4692 Q503.9531,421.7192 503.3906,420.3754 Q502.8438,419.0161 502.8438,417.2192 Q502.8438,415.1879 503.5,413.7348 Q504.1563,412.2817 505.4375,411.5004 Q506.7188,410.7192 508.5938,410.7192 Q509.4844,410.7192 510.1563,410.9067 Q510.8281,411.0786 511.5156,411.4223 L510.7031,413.4379 Q510.0781,413.1254 509.5313,413.0004 Q509,412.8754 508.5156,412.8754 Q507.3438,412.8754 506.6406,413.4067 Q505.9375,413.9379 505.6406,414.8911 Q505.3438,415.8442 505.3438,417.1098 Q505.3438,419.1254 506.0625,420.0942 Q506.7813,421.0473 508.375,421.0473 Q508.9688,421.0473 509.5938,420.8911 Q510.2188,420.7348 511.0469,420.3598 L511.0469,422.5786 Q510.3125,422.8911 509.5156,423.0473 Q508.7344,423.2036 507.9688,423.2036 Z "/><text fill="#000000" font-family="sans-serif" font-size="12" lengthAdjust="spacingAndGlyphs" textLength="86" x="522" y="421.6877">MenuCategorieF</text><line style="stroke: #A80036; stroke-width: 1.5;" x1="494" x2="610" y1="433.0317" y2="433.0317"/><line style="stroke: #A80036; stroke-width: 1.5;" x1="494" x2="610" y1="441.0317" y2="441.0317"/><!--MD5=[932ef37b5d39d847f9f820a16bc10099]
class src.domotix.view.menus.menuCategorie.MenuCategorieM--><rect fill="#FEFECE" filter="url(#f7httsf2s1nwm)" height="48" id="src.domotix.view.menus.menuCategorie.MenuCategorieM" style="stroke: #A80036; stroke-width: 1.5;" width="122" x="689" y="401.0317"/><ellipse cx="704" cy="417.0317" fill="#ADD1B2" rx="11" ry="11" style="stroke: #A80036; stroke-width: 1.0;"/><path d="M703.9688,423.2036 Q702.2188,423.2036 701.0781,422.4692 Q699.9531,421.7192 699.3906,420.3754 Q698.8438,419.0161 698.8438,417.2192 Q698.8438,415.1879 699.5,413.7348 Q700.1563,412.2817 701.4375,411.5004 Q702.7188,410.7192 704.5938,410.7192 Q705.4844,410.7192 706.1563,410.9067 Q706.8281,411.0786 707.5156,411.4223 L706.7031,413.4379 Q706.0781,413.1254 705.5313,413.0004 Q705,412.8754 704.5156,412.8754 Q703.3438,412.8754 702.6406,413.4067 Q701.9375,413.9379 701.6406,414.8911 Q701.3438,415.8442 701.3438,417.1098 Q701.3438,419.1254 702.0625,420.0942 Q702.7813,421.0473 704.375,421.0473 Q704.9688,421.0473 705.5938,420.8911 Q706.2188,420.7348 707.0469,420.3598 L707.0469,422.5786 Q706.3125,422.8911 705.5156,423.0473 Q704.7344,423.2036 703.9688,423.2036 Z "/><text fill="#000000" font-family="sans-serif" font-size="12" lengthAdjust="spacingAndGlyphs" textLength="90" x="718" y="421.6877">MenuCategorieM</text><line style="stroke: #A80036; stroke-width: 1.5;" x1="690" x2="810" y1="433.0317" y2="433.0317"/><line style="stroke: #A80036; stroke-width: 1.5;" x1="690" x2="810" y1="441.0317" y2="441.0317"/><!--MD5=[d074c1aade7a95907f079a2c2f1577f1]
class src.domotix.view.menus.menuCategorie.sensori.MenuCategorieSensoriF--><rect fill="#FEFECE" filter="url(#f7httsf2s1nwm)" height="48" id="src.domotix.view.menus.menuCategorie.sensori.MenuCategorieSensoriF" style="stroke: #A80036; stroke-width: 1.5;" width="156" x="38" y="554.0317"/><ellipse cx="53" cy="570.0317" fill="#ADD1B2" rx="11" ry="11" style="stroke: #A80036; stroke-width: 1.0;"/><path d="M52.9688,576.2036 Q51.2188,576.2036 50.0781,575.4692 Q48.9531,574.7192 48.3906,573.3754 Q47.8438,572.0161 47.8438,570.2192 Q47.8438,568.1879 48.5,566.7348 Q49.1563,565.2817 50.4375,564.5004 Q51.7188,563.7192 53.5938,563.7192 Q54.4844,563.7192 55.1563,563.9067 Q55.8281,564.0786 56.5156,564.4223 L55.7031,566.4379 Q55.0781,566.1254 54.5313,566.0004 Q54,565.8754 53.5156,565.8754 Q52.3438,565.8754 51.6406,566.4067 Q50.9375,566.9379 50.6406,567.8911 Q50.3438,568.8442 50.3438,570.1098 Q50.3438,572.1254 51.0625,573.0942 Q51.7813,574.0473 53.375,574.0473 Q53.9688,574.0473 54.5938,573.8911 Q55.2188,573.7348 56.0469,573.3598 L56.0469,575.5786 Q55.3125,575.8911 54.5156,576.0473 Q53.7344,576.2036 52.9688,576.2036 Z "/><text fill="#000000" font-family="sans-serif" font-size="12" lengthAdjust="spacingAndGlyphs" textLength="124" x="67" y="574.6877">MenuCategorieSensoriF</text><line style="stroke: #A80036; stroke-width: 1.5;" x1="39" x2="193" y1="586.0317" y2="586.0317"/><line style="stroke: #A80036; stroke-width: 1.5;" x1="39" x2="193" y1="594.0317" y2="594.0317"/><!--MD5=[cedddc925446b37d7e67faa811ee66b3]
class src.domotix.view.menus.menuCategorie.sensori.MenuCategorieSensoriM--><rect fill="#FEFECE" filter="url(#f7httsf2s1nwm)" height="137.8913" id="src.domotix.view.menus.menuCategorie.sensori.MenuCategorieSensoriM" style="stroke: #A80036; stroke-width: 1.5;" width="206" x="229" y="509.0317"/><ellipse cx="264.7" cy="525.0317" fill="#ADD1B2" rx="11" ry="11" style="stroke: #A80036; stroke-width: 1.0;"/><path d="M264.6688,531.2036 Q262.9188,531.2036 261.7781,530.4692 Q260.6531,529.7192 260.0906,528.3754 Q259.5438,527.0161 259.5438,525.2192 Q259.5438,523.1879 260.2,521.7348 Q260.8563,520.2817 262.1375,519.5004 Q263.4188,518.7192 265.2938,518.7192 Q266.1844,518.7192 266.8563,518.9067 Q267.5281,519.0786 268.2156,519.4223 L267.4031,521.4379 Q266.7781,521.1254 266.2313,521.0004 Q265.7,520.8754 265.2156,520.8754 Q264.0438,520.8754 263.3406,521.4067 Q262.6375,521.9379 262.3406,522.8911 Q262.0438,523.8442 262.0438,525.1098 Q262.0438,527.1254 262.7625,528.0942 Q263.4813,529.0473 265.075,529.0473 Q265.6688,529.0473 266.2938,528.8911 Q266.9188,528.7348 267.7469,528.3598 L267.7469,530.5786 Q267.0125,530.8911 266.2156,531.0473 Q265.4344,531.2036 264.6688,531.2036 Z "/><text fill="#000000" font-family="sans-serif" font-size="12" lengthAdjust="spacingAndGlyphs" textLength="128" x="283.3" y="529.6877">MenuCategorieSensoriM</text><line style="stroke: #A80036; stroke-width: 1.5;" x1="230" x2="434" y1="541.0317" y2="541.0317"/><rect fill="none" height="6" style="stroke: #C82930; stroke-width: 1.0;" width="6" x="237" y="549.0317"/><text fill="#000000" font-family="sans-serif" font-size="11" lengthAdjust="spacingAndGlyphs" text-decoration="underline" textLength="159" x="249" y="556.7906">INTRO_IMPORT_CAT_SENS : String</text><rect fill="none" height="6" style="stroke: #C82930; stroke-width: 1.0;" width="6" x="237" y="564.0136"/><text fill="#000000" font-family="sans-serif" font-size="11" lengthAdjust="spacingAndGlyphs" text-decoration="underline" textLength="115" x="249" y="571.7725">GUIDA_IN_LINEA : String</text><rect fill="none" height="6" style="stroke: #C82930; stroke-width: 1.0;" width="6" x="237" y="578.9955"/><text fill="#000000" font-family="sans-serif" font-size="11" lengthAdjust="spacingAndGlyphs" text-decoration="underline" textLength="180" x="249" y="586.7544">CATEGORIA_NON_IMPORTATA : String</text><rect fill="none" height="6" style="stroke: #C82930; stroke-width: 1.0;" width="6" x="237" y="593.9774"/><text fill="#000000" font-family="sans-serif" font-size="11" lengthAdjust="spacingAndGlyphs" text-decoration="underline" textLength="134" x="249" y="601.7363">IMPORT_CAT_SES_OK : String</text><rect fill="none" height="6" style="stroke: #C82930; stroke-width: 1.0;" width="6" x="237" y="608.9592"/><text fill="#000000" font-family="sans-serif" font-size="11" lengthAdjust="spacingAndGlyphs" text-decoration="underline" textLength="109" x="249" y="616.7182">IMPORT_FAILED : String</text><rect fill="none" height="6" style="stroke: #C82930; stroke-width: 1.0;" width="6" x="237" y="623.9411"/><text fill="#000000" font-family="sans-serif" font-size="11" lengthAdjust="spacingAndGlyphs" text-decoration="underline" textLength="138" x="249" y="631.7">NOTHING_IMPORTED : String</text><line style="stroke: #A80036; stroke-width: 1.5;" x1="230" x2="434" y1="638.923" y2="638.923"/><!--MD5=[8ca41d897a1f36e0ec13ff146d9018bc]
class src.domotix.view.menus.menuCategorie.attuatori.MenuCategorieAttuatoriF--><rect fill="#FEFECE" filter="url(#f7httsf2s1nwm)" height="48" id="src.domotix.view.menus.menuCategorie.attuatori.MenuCategorieAttuatoriF" style="stroke: #A80036; stroke-width: 1.5;" width="164" x="470" y="554.0317"/><ellipse cx="485" cy="570.0317" fill="#ADD1B2" rx="11" ry="11" style="stroke: #A80036; stroke-width: 1.0;"/><path d="M484.9688,576.2036 Q483.2188,576.2036 482.0781,575.4692 Q480.9531,574.7192 480.3906,573.3754 Q479.8438,572.0161 479.8438,570.2192 Q479.8438,568.1879 480.5,566.7348 Q481.1563,565.2817 482.4375,564.5004 Q483.7188,563.7192 485.5938,563.7192 Q486.4844,563.7192 487.1563,563.9067 Q487.8281,564.0786 488.5156,564.4223 L487.7031,566.4379 Q487.0781,566.1254 486.5313,566.0004 Q486,565.8754 485.5156,565.8754 Q484.3438,565.8754 483.6406,566.4067 Q482.9375,566.9379 482.6406,567.8911 Q482.3438,568.8442 482.3438,570.1098 Q482.3438,572.1254 483.0625,573.0942 Q483.7813,574.0473 485.375,574.0473 Q485.9688,574.0473 486.5938,573.8911 Q487.2188,573.7348 488.0469,573.3598 L488.0469,575.5786 Q487.3125,575.8911 486.5156,576.0473 Q485.7344,576.2036 484.9688,576.2036 Z "/><text fill="#000000" font-family="sans-serif" font-size="12" lengthAdjust="spacingAndGlyphs" textLength="132" x="499" y="574.6877">MenuCategorieAttuatoriF</text><line style="stroke: #A80036; stroke-width: 1.5;" x1="471" x2="633" y1="586.0317" y2="586.0317"/><line style="stroke: #A80036; stroke-width: 1.5;" x1="471" x2="633" y1="594.0317" y2="594.0317"/><!--MD5=[0abc97df493079eea983bc81eafb0b86]
class src.domotix.view.menus.menuCategorie.attuatori.MenuCategorieAttuatoriM--><rect fill="#FEFECE" filter="url(#f7httsf2s1nwm)" height="122.9094" id="src.domotix.view.menus.menuCategorie.attuatori.MenuCategorieAttuatoriM" style="stroke: #A80036; stroke-width: 1.5;" width="206" x="669" y="516.5317"/><ellipse cx="701.1" cy="532.5317" fill="#ADD1B2" rx="11" ry="11" style="stroke: #A80036; stroke-width: 1.0;"/><path d="M701.0688,538.7036 Q699.3188,538.7036 698.1781,537.9692 Q697.0531,537.2192 696.4906,535.8754 Q695.9438,534.5161 695.9438,532.7192 Q695.9438,530.6879 696.6,529.2348 Q697.2563,527.7817 698.5375,527.0004 Q699.8188,526.2192 701.6938,526.2192 Q702.5844,526.2192 703.2563,526.4067 Q703.9281,526.5786 704.6156,526.9223 L703.8031,528.9379 Q703.1781,528.6254 702.6313,528.5004 Q702.1,528.3754 701.6156,528.3754 Q700.4438,528.3754 699.7406,528.9067 Q699.0375,529.4379 698.7406,530.3911 Q698.4438,531.3442 698.4438,532.6098 Q698.4438,534.6254 699.1625,535.5942 Q699.8813,536.5473 701.475,536.5473 Q702.0688,536.5473 702.6938,536.3911 Q703.3188,536.2348 704.1469,535.8598 L704.1469,538.0786 Q703.4125,538.3911 702.6156,538.5473 Q701.8344,538.7036 701.0688,538.7036 Z "/><text fill="#000000" font-family="sans-serif" font-size="12" lengthAdjust="spacingAndGlyphs" textLength="136" x="718.9" y="537.1877">MenuCategorieAttuatoriM</text><line style="stroke: #A80036; stroke-width: 1.5;" x1="670" x2="874" y1="548.5317" y2="548.5317"/><rect fill="none" height="6" style="stroke: #C82930; stroke-width: 1.0;" width="6" x="677" y="556.5317"/><text fill="#000000" font-family="sans-serif" font-size="11" lengthAdjust="spacingAndGlyphs" text-decoration="underline" textLength="152" x="689" y="564.2906">INTRO_IMPORT_CAT_ATT : String</text><rect fill="none" height="6" style="stroke: #C82930; stroke-width: 1.0;" width="6" x="677" y="571.5136"/><text fill="#000000" font-family="sans-serif" font-size="11" lengthAdjust="spacingAndGlyphs" text-decoration="underline" textLength="180" x="689" y="579.2725">CATEGORIA_NON_IMPORTATA : String</text><rect fill="none" height="6" style="stroke: #C82930; stroke-width: 1.0;" width="6" x="677" y="586.4955"/><text fill="#000000" font-family="sans-serif" font-size="11" lengthAdjust="spacingAndGlyphs" text-decoration="underline" textLength="135" x="689" y="594.2544">IMPORT_CAT_ATT_OK : String</text><rect fill="none" height="6" style="stroke: #C82930; stroke-width: 1.0;" width="6" x="677" y="601.4774"/><text fill="#000000" font-family="sans-serif" font-size="11" lengthAdjust="spacingAndGlyphs" text-decoration="underline" textLength="109" x="689" y="609.2363">IMPORT_FAILED : String</text><rect fill="none" height="6" style="stroke: #C82930; stroke-width: 1.0;" width="6" x="677" y="616.4592"/><text fill="#000000" font-family="sans-serif" font-size="11" lengthAdjust="spacingAndGlyphs" text-decoration="underline" textLength="138" x="689" y="624.2182">NOTHING_IMPORTED : String</text><line style="stroke: #A80036; stroke-width: 1.5;" x1="670" x2="874" y1="631.4411" y2="631.4411"/><!--MD5=[8b91a9f4208df7f50b8566189b12862a]
class src.domotix.view.menus.menuUnita.MenuUnitaM--><rect fill="#FEFECE" filter="url(#f7httsf2s1nwm)" height="48" id="src.domotix.view.menus.menuUnita.MenuUnitaM" style="stroke: #A80036; stroke-width: 1.5;" width="100" x="1038" y="401.0317"/><ellipse cx="1053" cy="417.0317" fill="#ADD1B2" rx="11" ry="11" style="stroke: #A80036; stroke-width: 1.0;"/><path d="M1052.9688,423.2036 Q1051.2188,423.2036 1050.0781,422.4692 Q1048.9531,421.7192 1048.3906,420.3754 Q1047.8438,419.0161 1047.8438,417.2192 Q1047.8438,415.1879 1048.5,413.7348 Q1049.1563,412.2817 1050.4375,411.5004 Q1051.7188,410.7192 1053.5938,410.7192 Q1054.4844,410.7192 1055.1563,410.9067 Q1055.8281,411.0786 1056.5156,411.4223 L1055.7031,413.4379 Q1055.0781,413.1254 1054.5313,413.0004 Q1054,412.8754 1053.5156,412.8754 Q1052.3438,412.8754 1051.6406,413.4067 Q1050.9375,413.9379 1050.6406,414.8911 Q1050.3438,415.8442 1050.3438,417.1098 Q1050.3438,419.1254 1051.0625,420.0942 Q1051.7813,421.0473 1053.375,421.0473 Q1053.9688,421.0473 1054.5938,420.8911 Q1055.2188,420.7348 1056.0469,420.3598 L1056.0469,422.5786 Q1055.3125,422.8911 1054.5156,423.0473 Q1053.7344,423.2036 1052.9688,423.2036 Z "/><text fill="#000000" font-family="sans-serif" font-size="12" lengthAdjust="spacingAndGlyphs" textLength="68" x="1067" y="421.6877">MenuUnitaM</text><line style="stroke: #A80036; stroke-width: 1.5;" x1="1039" x2="1137" y1="433.0317" y2="433.0317"/><line style="stroke: #A80036; stroke-width: 1.5;" x1="1039" x2="1137" y1="441.0317" y2="441.0317"/><!--MD5=[a0f93abaebba79ab0a8d6b7c582b424a]
class src.domotix.view.menus.menuUnita.MenuUnitaF--><rect fill="#FEFECE" filter="url(#f7httsf2s1nwm)" height="48" id="src.domotix.view.menus.menuUnita.MenuUnitaF" style="stroke: #A80036; stroke-width: 1.5;" width="96" x="907" y="401.0317"/><ellipse cx="922" cy="417.0317" fill="#ADD1B2" rx="11" ry="11" style="stroke: #A80036; stroke-width: 1.0;"/><path d="M921.9688,423.2036 Q920.2188,423.2036 919.0781,422.4692 Q917.9531,421.7192 917.3906,420.3754 Q916.8438,419.0161 916.8438,417.2192 Q916.8438,415.1879 917.5,413.7348 Q918.1563,412.2817 919.4375,411.5004 Q920.7188,410.7192 922.5938,410.7192 Q923.4844,410.7192 924.1563,410.9067 Q924.8281,411.0786 925.5156,411.4223 L924.7031,413.4379 Q924.0781,413.1254 923.5313,413.0004 Q923,412.8754 922.5156,412.8754 Q921.3438,412.8754 920.6406,413.4067 Q919.9375,413.9379 919.6406,414.8911 Q919.3438,415.8442 919.3438,417.1098 Q919.3438,419.1254 920.0625,420.0942 Q920.7813,421.0473 922.375,421.0473 Q922.9688,421.0473 923.5938,420.8911 Q924.2188,420.7348 925.0469,420.3598 L925.0469,422.5786 Q924.3125,422.8911 923.5156,423.0473 Q922.7344,423.2036 921.9688,423.2036 Z "/><text fill="#000000" font-family="sans-serif" font-size="12" lengthAdjust="spacingAndGlyphs" textLength="64" x="936" y="421.6877">MenuUnitaF</text><line style="stroke: #A80036; stroke-width: 1.5;" x1="908" x2="1002" y1="433.0317" y2="433.0317"/><line style="stroke: #A80036; stroke-width: 1.5;" x1="908" x2="1002" y1="441.0317" y2="441.0317"/><!--MD5=[b71e28d46693838dc5614a2818178488]
class src.domotix.controller.Modificatore--><rect fill="#FEFECE" filter="url(#f7httsf2s1nwm)" height="48" id="src.domotix.controller.Modificatore" style="stroke: #A80036; stroke-width: 1.5;" width="98" x="638" y="709.0317"/><ellipse cx="653" cy="725.0317" fill="#ADD1B2" rx="11" ry="11" style="stroke: #A80036; stroke-width: 1.0;"/><path d="M652.9688,731.2036 Q651.2188,731.2036 650.0781,730.4692 Q648.9531,729.7192 648.3906,728.3754 Q647.8438,727.0161 647.8438,725.2192 Q647.8438,723.1879 648.5,721.7348 Q649.1563,720.2817 650.4375,719.5004 Q651.7188,718.7192 653.5938,718.7192 Q654.4844,718.7192 655.1563,718.9067 Q655.8281,719.0786 656.5156,719.4223 L655.7031,721.4379 Q655.0781,721.1254 654.5313,721.0004 Q654,720.8754 653.5156,720.8754 Q652.3438,720.8754 651.6406,721.4067 Q650.9375,721.9379 650.6406,722.8911 Q650.3438,723.8442 650.3438,725.1098 Q650.3438,727.1254 651.0625,728.0942 Q651.7813,729.0473 653.375,729.0473 Q653.9688,729.0473 654.5938,728.8911 Q655.2188,728.7348 656.0469,728.3598 L656.0469,730.5786 Q655.3125,730.8911 654.5156,731.0473 Q653.7344,731.2036 652.9688,731.2036 Z "/><text fill="#000000" font-family="sans-serif" font-size="12" lengthAdjust="spacingAndGlyphs" textLength="66" x="667" y="729.6877">Modificatore</text><line style="stroke: #A80036; stroke-width: 1.5;" x1="639" x2="735" y1="741.0317" y2="741.0317"/><line style="stroke: #A80036; stroke-width: 1.5;" x1="639" x2="735" y1="749.0317" y2="749.0317"/><!--MD5=[19e62dc1491eac9c9a34efd24892529b]
class src.domotix.controller.Recuperatore--><rect fill="#FEFECE" filter="url(#f7httsf2s1nwm)" height="48" id="src.domotix.controller.Recuperatore" style="stroke: #A80036; stroke-width: 1.5;" width="101" x="501.5" y="709.0317"/><ellipse cx="516.5" cy="725.0317" fill="#ADD1B2" rx="11" ry="11" style="stroke: #A80036; stroke-width: 1.0;"/><path d="M516.4688,731.2036 Q514.7188,731.2036 513.5781,730.4692 Q512.4531,729.7192 511.8906,728.3754 Q511.3438,727.0161 511.3438,725.2192 Q511.3438,723.1879 512,721.7348 Q512.6563,720.2817 513.9375,719.5004 Q515.2188,718.7192 517.0938,718.7192 Q517.9844,718.7192 518.6563,718.9067 Q519.3281,719.0786 520.0156,719.4223 L519.2031,721.4379 Q518.5781,721.1254 518.0313,721.0004 Q517.5,720.8754 517.0156,720.8754 Q515.8438,720.8754 515.1406,721.4067 Q514.4375,721.9379 514.1406,722.8911 Q513.8438,723.8442 513.8438,725.1098 Q513.8438,727.1254 514.5625,728.0942 Q515.2813,729.0473 516.875,729.0473 Q517.4688,729.0473 518.0938,728.8911 Q518.7188,728.7348 519.5469,728.3598 L519.5469,730.5786 Q518.8125,730.8911 518.0156,731.0473 Q517.2344,731.2036 516.4688,731.2036 Z "/><text fill="#000000" font-family="sans-serif" font-size="12" lengthAdjust="spacingAndGlyphs" textLength="69" x="530.5" y="729.6877">Recuperatore</text><line style="stroke: #A80036; stroke-width: 1.5;" x1="502.5" x2="601.5" y1="741.0317" y2="741.0317"/><line style="stroke: #A80036; stroke-width: 1.5;" x1="502.5" x2="601.5" y1="749.0317" y2="749.0317"/><!--MD5=[9367247a66981bc82ef2aa62a3c03f0c]
link src.domotix.view.menus.MenuLogin to src.domotix.view.menus.menuPrincipale--><path d="M798.2203,137.6983 C810.6028,143.1545 823.5519,149.3057 834.4032,155.434 C839.8289,158.4981 844.7302,161.5565 848.774,164.5194 C850.7959,166.0008 852.6034,167.4584 854.155,168.8808 C854.9307,169.592 855.6425,170.2945 856.2851,170.9868 C856.6064,171.3329 856.9104,171.6765 857.1964,172.0174 C857.3394,172.1878 857.4779,172.3576 857.6119,172.5266 C857.6789,172.6112 857.7447,172.6955 857.8094,172.7797 C857.8418,172.8218 857.8738,172.8638 857.9056,172.9058 " fill="none" id="src.domotix.view.menus.MenuLogin-&gt;src.domotix.view.menus.menuPrincipale" style="stroke: #A80036; stroke-width: 1.0;"/><polygon fill="#A80036" points="857.9056,172.9058,855.6666,163.3148,854.8894,168.918,849.2862,168.1408,857.9056,172.9058" style="stroke: #A80036; stroke-width: 1.0;"/><!--MD5=[9bba50c7fc893cc97814f952c50d2049]
link src.domotix.view.menus.menuPrincipale.MenuManutentore to src.domotix.view.menus.menuUnita.MenuUnitaM--><path d="M840.7709,341.1516 C846.4555,344.0827 852.2187,346.7442 858,349.0317 C925.9739,375.9268 953.8489,342.1435 1021,371.0317 C1035.5492,377.2907 1049.5384,387.6266 1060.9363,397.5893 " fill="none" id="src.domotix.view.menus.menuPrincipale.MenuManutentore-&gt;src.domotix.view.menus.menuUnita.MenuUnitaM" style="stroke: #A80036; stroke-width: 1.0;"/><polygon fill="#A80036" points="1064.6994,400.9473,1060.6474,391.9706,1060.9687,397.6183,1055.321,397.9397,1064.6994,400.9473" style="stroke: #A80036; stroke-width: 1.0;"/><!--MD5=[7a90fc7d5210bee4f2c3f91586b7e550]
link src.domotix.view.menus.menuPrincipale.MenuFruitore to src.domotix.view.menus.menuUnita.MenuUnitaF--><path d="M587.5315,296.3534 C599.6668,314.2527 618.7099,337.4123 642,349.0317 C744.5822,400.2099 794.6204,323.6268 899,371.0317 C911.9188,376.8989 923.6652,387.0444 933.0259,396.9688 " fill="none" id="src.domotix.view.menus.menuPrincipale.MenuFruitore-&gt;src.domotix.view.menus.menuUnita.MenuUnitaF" style="stroke: #A80036; stroke-width: 1.0;"/><polygon fill="#A80036" points="936.6247,400.8988,933.4963,391.56,933.2479,397.2114,927.5965,396.9629,936.6247,400.8988" style="stroke: #A80036; stroke-width: 1.0;"/><!--MD5=[1d0c6aa5c73d46b02aaf008636991521]
link src.domotix.view.menus.menuPrincipale.MenuManutentore to src.domotix.view.menus.menuCategorie.MenuCategorieM--><path d="M750,341.3692 C750,360.5489 750,380.3344 750,395.8464 " fill="none" id="src.domotix.view.menus.menuPrincipale.MenuManutentore-&gt;src.domotix.view.menus.menuCategorie.MenuCategorieM" style="stroke: #A80036; stroke-width: 1.0;"/><polygon fill="#A80036" points="750,400.9361,754,391.9361,750,395.9361,746,391.9361,750,400.9361" style="stroke: #A80036; stroke-width: 1.0;"/><!--MD5=[4b960eff92c13eb7f6a61450a90f5e15]
link src.domotix.view.menus.menuPrincipale.MenuFruitore to src.domotix.view.menus.menuCategorie.MenuCategorieF--><path d="M569.6725,296.275 C565.9707,323.2452 559.9906,366.8146 556.0275,395.6887 " fill="none" id="src.domotix.view.menus.menuPrincipale.MenuFruitore-&gt;src.domotix.view.menus.menuCategorie.MenuCategorieF" style="stroke: #A80036; stroke-width: 1.0;"/><polygon fill="#A80036" points="555.3119,400.9018,560.4987,392.5294,555.9919,395.9482,552.5731,391.4414,555.3119,400.9018" style="stroke: #A80036; stroke-width: 1.0;"/><!--MD5=[adac0e828ef7ea1e345e5d871fdf03b6]
link src.domotix.view.menus.menuCategorie.MenuCategorieM to src.domotix.view.menus.menuCategorie.attuatori.MenuCategorieAttuatoriM--><path d="M753.486,449.275 C755.8965,466.0391 759.2292,489.2164 762.4034,511.2914 " fill="none" id="src.domotix.view.menus.menuCategorie.MenuCategorieM-&gt;src.domotix.view.menus.menuCategorie.attuatori.MenuCategorieAttuatoriM" style="stroke: #A80036; stroke-width: 1.0;"/><polygon fill="#A80036" points="763.1204,516.2779,765.7986,506.8002,762.4087,511.3288,757.88,507.9389,763.1204,516.2779" style="stroke: #A80036; stroke-width: 1.0;"/><!--MD5=[aefef4ca43c672a9cf0a4c5876f734a3]
link src.domotix.view.menus.menuCategorie.MenuCategorieM to src.domotix.view.menus.menuCategorie.sensori.MenuCategorieSensoriM--><path d="M688.9206,442.7253 C669.561,447.8819 647.9934,453.1629 628,457.0317 C551.4706,471.8405 525.6819,448.409 454,479.0317 C438.0649,485.8392 422.5258,495.3645 408.1673,505.8396 " fill="none" id="src.domotix.view.menus.menuCategorie.MenuCategorieM-&gt;src.domotix.view.menus.menuCategorie.sensori.MenuCategorieSensoriM" style="stroke: #A80036; stroke-width: 1.0;"/><polygon fill="#A80036" points="404.1494,508.8178,413.7616,506.6717,408.1662,505.8403,408.9976,500.2449,404.1494,508.8178" style="stroke: #A80036; stroke-width: 1.0;"/><!--MD5=[6c859a37dee11511606962bacc5dc5e1]
link src.domotix.view.menus.menuCategorie.MenuCategorieF to src.domotix.view.menus.menuCategorie.attuatori.MenuCategorieAttuatoriF--><path d="M552,449.275 C552,476.2452 552,519.8146 552,548.6887 " fill="none" id="src.domotix.view.menus.menuCategorie.MenuCategorieF-&gt;src.domotix.view.menus.menuCategorie.attuatori.MenuCategorieAttuatoriF" style="stroke: #A80036; stroke-width: 1.0;"/><polygon fill="#A80036" points="552,553.9018,556,544.9018,552,548.9018,548,544.9018,552,553.9018" style="stroke: #A80036; stroke-width: 1.0;"/><!--MD5=[9623df759dac8aece0661f2108b887e6]
link src.domotix.view.menus.menuCategorie.MenuCategorieF to src.domotix.view.menus.menuCategorie.sensori.MenuCategorieSensoriF--><path d="M492.6752,429.8461 C408.3874,437.4547 258.8772,454.0129 211,479.0317 C179.3987,495.5453 152.2739,526.5936 135.1944,549.534 " fill="none" id="src.domotix.view.menus.menuCategorie.MenuCategorieF-&gt;src.domotix.view.menus.menuCategorie.sensori.MenuCategorieSensoriF" style="stroke: #A80036; stroke-width: 1.0;"/><polygon fill="#A80036" points="132.1234,553.7178,140.6734,548.8293,135.082,549.6871,134.2243,544.0956,132.1234,553.7178" style="stroke: #A80036; stroke-width: 1.0;"/><!--MD5=[67630319409febaff530f5b075fdb9c9]
link src.domotix.view.menus.menuCategorie.attuatori.MenuCategorieAttuatoriM to src.domotix.controller.Modificatore--><path d="M738.1615,639.7372 C725.9552,661.9958 712.7534,686.0697 702.8182,704.1868 " fill="none" id="src.domotix.view.menus.menuCategorie.attuatori.MenuCategorieAttuatoriM-&gt;src.domotix.controller.Modificatore" style="stroke: #A80036; stroke-width: 1.0;"/><polygon fill="#A80036" points="700.3652,708.6598,708.2,702.6919,702.7694,704.2758,701.1856,698.8452,700.3652,708.6598" style="stroke: #A80036; stroke-width: 1.0;"/><!--MD5=[1d96bbc4ef1a6163d1cb499ad0e8388f]
link src.domotix.view.menus.menuCategorie.attuatori.MenuCategorieAttuatoriM to src.domotix.controller.Recuperatore--><path d="M701.5534,639.6564 C685.6907,651.3442 668.3826,662.5506 651,671.0317 C638.2118,677.2711 632.7384,672.6911 620,679.0317 C606.1774,685.912 592.5306,695.9305 581.1314,705.4749 " fill="none" id="src.domotix.view.menus.menuCategorie.attuatori.MenuCategorieAttuatoriM-&gt;src.domotix.controller.Recuperatore" style="stroke: #A80036; stroke-width: 1.0;"/><polygon fill="#A80036" points="577.0373,708.9631,586.4821,706.1711,580.8432,705.7204,581.2939,700.0816,577.0373,708.9631" style="stroke: #A80036; stroke-width: 1.0;"/><!--MD5=[e5388cecad954251b1b9ce40fb07b107]
link src.domotix.view.menus.menuCategorie.attuatori.MenuCategorieAttuatoriF to src.domotix.controller.Recuperatore--><path d="M552,602.2504 C552,629.6635 552,674.3147 552,703.6845 " fill="none" id="src.domotix.view.menus.menuCategorie.attuatori.MenuCategorieAttuatoriF-&gt;src.domotix.controller.Recuperatore" style="stroke: #A80036; stroke-width: 1.0;"/><polygon fill="#A80036" points="552,708.983,556,699.983,552,703.983,548,699.983,552,708.983" style="stroke: #A80036; stroke-width: 1.0;"/><!--MD5=[a83117ae442eb64d8f44f6997f8e9240]
link src.domotix.view.menus.menuCategorie.sensori.MenuCategorieSensoriM to src.domotix.controller.Modificatore--><path d="M408.5931,647.1038 C422.8439,656.7306 438.2371,665.2824 454,671.0317 C488.6959,683.6865 585.4784,665.9089 620,679.0317 C635.0557,684.7549 649.3134,695.235 660.775,705.4503 " fill="none" id="src.domotix.view.menus.menuCategorie.sensori.MenuCategorieSensoriM-&gt;src.domotix.controller.Modificatore" style="stroke: #A80036; stroke-width: 1.0;"/><polygon fill="#A80036" points="664.5518,708.8972,660.6004,699.8757,660.8586,705.5267,655.2076,705.7849,664.5518,708.8972" style="stroke: #A80036; stroke-width: 1.0;"/><!--MD5=[b2dc2c23412e584a1aea0ff8c94916c1]
link src.domotix.view.menus.menuCategorie.sensori.MenuCategorieSensoriM to src.domotix.controller.Recuperatore--><path d="M420.9536,647.2516 C431.9783,655.4108 443.1771,663.5043 454,671.0317 C471.2179,683.0068 490.6504,695.5024 507.6443,706.1119 " fill="none" id="src.domotix.view.menus.menuCategorie.sensori.MenuCategorieSensoriM-&gt;src.domotix.controller.Recuperatore" style="stroke: #A80036; stroke-width: 1.0;"/><polygon fill="#A80036" points="511.9093,708.7671,506.383,700.6148,507.6647,706.1246,502.1549,707.4063,511.9093,708.7671" style="stroke: #A80036; stroke-width: 1.0;"/><!--MD5=[609b3844c9facd757b89a51e40e4b69a]
link src.domotix.view.menus.menuCategorie.sensori.MenuCategorieSensoriF to src.domotix.controller.Recuperatore--><path d="M133.8552,602.3627 C151.1002,623.9707 179.2236,654.5972 211,671.0317 C259.7684,696.2544 412.294,717.0232 495.8644,726.8707 " fill="none" id="src.domotix.view.menus.menuCategorie.sensori.MenuCategorieSensoriF-&gt;src.domotix.controller.Recuperatore" style="stroke: #A80036; stroke-width: 1.0;"/><polygon fill="#A80036" points="501.2675,727.5034,492.794,722.4835,496.3015,726.9217,491.8633,730.4292,501.2675,727.5034" style="stroke: #A80036; stroke-width: 1.0;"/><!--MD5=[ccd16d8e2bf6890640138acedb9ed920]
link src.domotix.view.menus.menuPrincipale.MenuManutentore to src.domotix.controller.Modificatore--><path d="M839.6592,341.0966 C845.6914,344.113 851.8278,346.8012 858,349.0317 C889.0164,360.2405 1131.5608,346.8628 1154,371.0317 C1180.0063,399.0426 1170.4145,422.5135 1154,457.0317 C1075.2709,622.5917 846.2547,695.9527 741.0261,721.6034 " fill="none" id="src.domotix.view.menus.menuPrincipale.MenuManutentore-&gt;src.domotix.controller.Modificatore" style="stroke: #A80036; stroke-width: 1.0;"/><polygon fill="#A80036" points="736.1099,722.789,745.7969,724.5674,740.9705,721.6167,743.9212,716.7904,736.1099,722.789" style="stroke: #A80036; stroke-width: 1.0;"/><!--MD5=[a5fae502faf55c618ab995889d728872]
link src.domotix.view.menus.MenuErroreApertura to src.domotix.view.menus.MenuErroreChiusura--><!--MD5=[0b4ae70e725917f6ce174057cd32b8f5]
link src.domotix.view.menus.MenuErroreApertura to src.domotix.view.menus.MenuAzioniConflitto--><!--MD5=[5d1aaed72dbb47d6629f41b05f3d77d3]
@startuml

title __DOMOTIX > VIEW > MENUS's Class Diagram__\n

namespace src.domotix.view.menus {
    class src.domotix.view.menus.MenuErroreApertura {
    }

    class src.domotix.view.menus.MenuErroreChiusura {
    }

    class src.domotix.view.menus.MenuAzioniConflitto {
    }

    class src.domotix.view.menus.MenuLogin {
    }

    namespace menuPrincipale {
        class src.domotix.view.menus.menuPrincipale.MenuFruitore {
        }

        class src.domotix.view.menus.menuPrincipale.MenuManutentore {
            {static} - INTRO_IMPORT_UNITA : String
            {static} - IMPORT_UNITA_OK : String
            {static} - GUIDA_IN_LINEA : String
            {static} - UNITA_NON_IMPORTATA : String
            {static} - IMPORT_FAILED : String
            {static} - NOTHING_IMPORTED : String
        }
    }

    namespace menuCategorie {
        class src.domotix.view.menus.menuCategorie.MenuCategorieF {
        }

        class src.domotix.view.menus.menuCategorie.MenuCategorieM {
        }

        namespace sensori {
            class src.domotix.view.menus.menuCategorie.sensori.MenuCategorieSensoriF {
            }

            class src.domotix.view.menus.menuCategorie.sensori.MenuCategorieSensoriM {
                {static} - INTRO_IMPORT_CAT_SENS : String
                {static} - GUIDA_IN_LINEA : String
                {static} - CATEGORIA_NON_IMPORTATA : String
                {static} - IMPORT_CAT_SES_OK : String
                {static} - IMPORT_FAILED : String
                {static} - NOTHING_IMPORTED : String
            }
        }

        namespace attuatori {
            class src.domotix.view.menus.menuCategorie.attuatori.MenuCategorieAttuatoriF {
            }

            class src.domotix.view.menus.menuCategorie.attuatori.MenuCategorieAttuatoriM {
                {static} - INTRO_IMPORT_CAT_ATT : String
                {static} - CATEGORIA_NON_IMPORTATA : String
                {static} - IMPORT_CAT_ATT_OK : String
                {static} - IMPORT_FAILED : String
                {static} - NOTHING_IMPORTED : String
            }
        }
    }

    namespace menuUnita {
    }
}

src.domotix.view.menus.MenuLogin - -> src.domotix.view.menus.menuPrincipale
src.domotix.view.menus.menuPrincipale.MenuManutentore - -> src.domotix.view.menus.menuUnita.MenuUnitaM
src.domotix.view.menus.menuPrincipale.MenuFruitore - -> src.domotix.view.menus.menuUnita.MenuUnitaF
src.domotix.view.menus.menuPrincipale.MenuManutentore - -> src.domotix.view.menus.menuCategorie.MenuCategorieM
src.domotix.view.menus.menuPrincipale.MenuFruitore - -> src.domotix.view.menus.menuCategorie.MenuCategorieF
src.domotix.view.menus.menuCategorie.MenuCategorieM - -> src.domotix.view.menus.menuCategorie.attuatori.MenuCategorieAttuatoriM
src.domotix.view.menus.menuCategorie.MenuCategorieM - -> src.domotix.view.menus.menuCategorie.sensori.MenuCategorieSensoriM
src.domotix.view.menus.menuCategorie.MenuCategorieF - -> src.domotix.view.menus.menuCategorie.attuatori.MenuCategorieAttuatoriF
src.domotix.view.menus.menuCategorie.MenuCategorieF - -> src.domotix.view.menus.menuCategorie.sensori.MenuCategorieSensoriF

src.domotix.view.menus.menuCategorie.attuatori.MenuCategorieAttuatoriM - -> src.domotix.controller.Modificatore
src.domotix.view.menus.menuCategorie.attuatori.MenuCategorieAttuatoriM - -> src.domotix.controller.Recuperatore
src.domotix.view.menus.menuCategorie.attuatori.MenuCategorieAttuatoriF - -> src.domotix.controller.Recuperatore
src.domotix.view.menus.menuCategorie.sensori.MenuCategorieSensoriM - -> src.domotix.controller.Modificatore
src.domotix.view.menus.menuCategorie.sensori.MenuCategorieSensoriM - -> src.domotix.controller.Recuperatore
src.domotix.view.menus.menuCategorie.sensori.MenuCategorieSensoriF - -> src.domotix.controller.Recuperatore
src.domotix.view.menus.menuPrincipale.MenuManutentore - -> src.domotix.controller.Modificatore

@enduml

PlantUML version 1.2019.11(Sun Sep 22 12:02:15 CEST 2019)
(GPL source distribution)
Java Runtime: OpenJDK Runtime Environment
JVM: OpenJDK 64-Bit Server VM
Java Version: 11.0.3+12-b304.10
Operating System: Linux
Default Encoding: UTF-8
Language: it
Country: IT
--></g></svg>