<?xml version="1.0" encoding="UTF-8" standalone="no"?><svg xmlns="http://www.w3.org/2000/svg" xmlns:xlink="http://www.w3.org/1999/xlink" contentScriptType="application/ecmascript" contentStyleType="text/css" height="602.4px" preserveAspectRatio="none" style="width:173px;height:602px;" version="1.1" viewBox="0 0 173 602" width="173.4px" zoomAndPan="magnify"><defs><filter height="300%" id="fcwf5rdftc9xm" width="300%" x="-1" y="-1"><feGaussianBlur result="blurOut" stdDeviation="1.2"/><feColorMatrix in="blurOut" result="blurOut2" type="matrix" values="0 0 0 0 0 0 0 0 0 0 0 0 0 0 0 0 0 0 .4 0"/><feOffset dx="2.4" dy="2.4" in="blurOut2" result="blurOut3"/><feBlend in="SourceGraphic" in2="blurOut3" mode="normal"/></filter></defs><g><text fill="#000000" font-family="sans-serif" font-size="10.8" lengthAdjust="spacingAndGlyphs" text-decoration="underline" textLength="165" x="1.2" y="11.5451">DOMOTIX &gt; VIEW's Class Diagram</text><text fill="#000000" font-family="sans-serif" font-size="10.8" lengthAdjust="spacingAndGlyphs" textLength="0" x="84.9" y="26.2546"/><!--MD5=[8e0e0f0c97ec05372c8c81240809cf06]
cluster src.domotix.view--><polygon fill="#FFFFFF" filter="url(#fcwf5rdftc9xm)" points="20.1,39.019,89.7,39.019,93.9,54.0598,140.1,54.0598,140.1,595.219,20.1,595.219,20.1,39.019" style="stroke: #000000; stroke-width: 0.8999999999999999;"/><line style="stroke: #000000; stroke-width: 0.8999999999999999;" x1="20.1" x2="93.9" y1="54.0598" y2="54.0598"/><text fill="#000000" font-family="sans-serif" font-size="8.4" font-weight="bold" lengthAdjust="spacingAndGlyphs" textLength="66" x="22.5" y="49.1986">src.domotix.view</text><!--MD5=[7a4cbc776998db6dfca9d13cc710d20e]
class src.domotix.view.InputDati--><rect fill="#FEFECE" filter="url(#fcwf5rdftc9xm)" height="253.5283" id="src.domotix.view.InputDati" style="stroke: #A80036; stroke-width: 0.8999999999999999;" width="111" x="24.6" y="336.619"/><ellipse cx="62.55" cy="346.219" fill="#ADD1B2" rx="6.6" ry="6.6" style="stroke: #A80036; stroke-width: 0.6;"/><path d="M62.5313,349.9221 Q61.4812,349.9221 60.7969,349.4815 Q60.1219,349.0315 59.7844,348.2253 Q59.4563,347.4096 59.4563,346.3315 Q59.4563,345.1128 59.85,344.2409 Q60.2438,343.369 61.0125,342.9003 Q61.7813,342.4315 62.9063,342.4315 Q63.4406,342.4315 63.8438,342.544 Q64.2469,342.6471 64.6594,342.8534 L64.1719,344.0628 Q63.7969,343.8753 63.4688,343.8003 Q63.15,343.7253 62.8594,343.7253 Q62.1563,343.7253 61.7344,344.044 Q61.3125,344.3628 61.1344,344.9346 Q60.9563,345.5065 60.9563,346.2659 Q60.9563,347.4753 61.3875,348.0565 Q61.8187,348.6284 62.775,348.6284 Q63.1312,348.6284 63.5062,348.5346 Q63.8812,348.4409 64.3781,348.2159 L64.3781,349.5471 Q63.9375,349.7346 63.4594,349.8284 Q62.9906,349.9221 62.5313,349.9221 Z "/><text fill="#000000" font-family="sans-serif" font-size="7.2" lengthAdjust="spacingAndGlyphs" textLength="30" x="74.85" y="349.0126">InputDati</text><line style="stroke: #A80036; stroke-width: 0.8999999999999999;" x1="25.2" x2="135" y1="355.819" y2="355.819"/><ellipse cx="31.2" cy="362.419" fill="none" rx="1.8" ry="1.8" style="stroke: #038048; stroke-width: 0.6;"/><text fill="#000000" font-family="sans-serif" font-size="6.6" lengthAdjust="spacingAndGlyphs" text-decoration="underline" textLength="43.8" x="36.6" y="365.2744">in : InputStream</text><ellipse cx="31.2" cy="371.4081" fill="none" rx="1.8" ry="1.8" style="stroke: #038048; stroke-width: 0.6;"/><text fill="#000000" font-family="sans-serif" font-size="6.6" lengthAdjust="spacingAndGlyphs" text-decoration="underline" textLength="46.2" x="36.6" y="374.2635">out : PrintStream</text><rect fill="none" height="3.6" style="stroke: #C82930; stroke-width: 0.6;" width="3.6" x="29.4" y="378.5973"/><text fill="#000000" font-family="sans-serif" font-size="6.6" lengthAdjust="spacingAndGlyphs" text-decoration="underline" textLength="74.4" x="36.6" y="383.2526">ERRORE_FORMATO : String</text><rect fill="none" height="3.6" style="stroke: #C82930; stroke-width: 0.6;" width="3.6" x="29.4" y="387.5864"/><text fill="#000000" font-family="sans-serif" font-size="6.6" lengthAdjust="spacingAndGlyphs" text-decoration="underline" textLength="73.8" x="36.6" y="392.2418">ERRORE_MASSIMO : String</text><rect fill="none" height="3.6" style="stroke: #C82930; stroke-width: 0.6;" width="3.6" x="29.4" y="396.5755"/><text fill="#000000" font-family="sans-serif" font-size="6.6" lengthAdjust="spacingAndGlyphs" text-decoration="underline" textLength="69" x="36.6" y="401.2309">ERRORE_MINIMO : String</text><rect fill="none" height="3.6" style="stroke: #C82930; stroke-width: 0.6;" width="3.6" x="29.4" y="405.5647"/><text fill="#000000" font-family="sans-serif" font-size="6.6" lengthAdjust="spacingAndGlyphs" text-decoration="underline" textLength="94.8" x="36.6" y="410.22">ERRORE_STRINGA_VUOTA : String</text><rect fill="none" height="3.6" style="stroke: #C82930; stroke-width: 0.6;" width="3.6" x="29.4" y="414.5538"/><text fill="#000000" font-family="sans-serif" font-size="6.6" lengthAdjust="spacingAndGlyphs" text-decoration="underline" textLength="95.4" x="36.6" y="419.2092">MESSAGGIO_AMMISSIBILI : String</text><rect fill="none" height="3.6" style="stroke: #C82930; stroke-width: 0.6;" width="3.6" x="29.4" y="423.5429"/><text fill="#000000" font-family="sans-serif" font-size="6.6" lengthAdjust="spacingAndGlyphs" text-decoration="underline" textLength="57" x="36.6" y="428.1983">RISPOSTA_NO : char</text><rect fill="none" height="3.6" style="stroke: #C82930; stroke-width: 0.6;" width="3.6" x="29.4" y="432.5321"/><text fill="#000000" font-family="sans-serif" font-size="6.6" lengthAdjust="spacingAndGlyphs" text-decoration="underline" textLength="52.8" x="36.6" y="437.1874">RISPOSTA_SI : char</text><rect fill="none" height="3.6" style="stroke: #C82930; stroke-width: 0.6;" width="3.6" x="29.4" y="441.5212"/><text fill="#000000" font-family="sans-serif" font-size="6.6" lengthAdjust="spacingAndGlyphs" text-decoration="underline" textLength="45" x="36.6" y="446.1766">lettore : Scanner</text><line style="stroke: #A80036; stroke-width: 0.8999999999999999;" x1="25.2" x2="135" y1="450.5103" y2="450.5103"/><ellipse cx="31.2" cy="457.1103" fill="#84BE84" rx="1.8" ry="1.8" style="stroke: #038048; stroke-width: 0.6;"/><text fill="#000000" font-family="sans-serif" font-size="6.6" lengthAdjust="spacingAndGlyphs" text-decoration="underline" textLength="30" x="36.6" y="459.9657">leggiChar()</text><ellipse cx="31.2" cy="466.0995" fill="#84BE84" rx="1.8" ry="1.8" style="stroke: #038048; stroke-width: 0.6;"/><text fill="#000000" font-family="sans-serif" font-size="6.6" lengthAdjust="spacingAndGlyphs" text-decoration="underline" textLength="37.2" x="36.6" y="468.9548">leggiDouble()</text><ellipse cx="31.2" cy="475.0886" fill="#84BE84" rx="1.8" ry="1.8" style="stroke: #038048; stroke-width: 0.6;"/><text fill="#000000" font-family="sans-serif" font-size="6.6" lengthAdjust="spacingAndGlyphs" text-decoration="underline" textLength="69" x="36.6" y="477.944">leggiDoubleConMinimo()</text><ellipse cx="31.2" cy="484.0777" fill="#84BE84" rx="1.8" ry="1.8" style="stroke: #038048; stroke-width: 0.6;"/><text fill="#000000" font-family="sans-serif" font-size="6.6" lengthAdjust="spacingAndGlyphs" text-decoration="underline" textLength="33.6" x="36.6" y="486.9331">leggiIntero()</text><ellipse cx="31.2" cy="493.0669" fill="#84BE84" rx="1.8" ry="1.8" style="stroke: #038048; stroke-width: 0.6;"/><text fill="#000000" font-family="sans-serif" font-size="6.6" lengthAdjust="spacingAndGlyphs" text-decoration="underline" textLength="33.6" x="36.6" y="495.9222">leggiIntero()</text><ellipse cx="31.2" cy="502.056" fill="#84BE84" rx="1.8" ry="1.8" style="stroke: #038048; stroke-width: 0.6;"/><text fill="#000000" font-family="sans-serif" font-size="6.6" lengthAdjust="spacingAndGlyphs" text-decoration="underline" textLength="65.4" x="36.6" y="504.9114">leggiInteroConMinimo()</text><ellipse cx="31.2" cy="511.0451" fill="#84BE84" rx="1.8" ry="1.8" style="stroke: #038048; stroke-width: 0.6;"/><text fill="#000000" font-family="sans-serif" font-size="6.6" lengthAdjust="spacingAndGlyphs" text-decoration="underline" textLength="70.8" x="36.6" y="513.9005">leggiInteroNonNegativo()</text><ellipse cx="31.2" cy="520.0343" fill="#84BE84" rx="1.8" ry="1.8" style="stroke: #038048; stroke-width: 0.6;"/><text fill="#000000" font-family="sans-serif" font-size="6.6" lengthAdjust="spacingAndGlyphs" text-decoration="underline" textLength="54.6" x="36.6" y="522.8896">leggiInteroPositivo()</text><ellipse cx="31.2" cy="529.0234" fill="#84BE84" rx="1.8" ry="1.8" style="stroke: #038048; stroke-width: 0.6;"/><text fill="#000000" font-family="sans-serif" font-size="6.6" lengthAdjust="spacingAndGlyphs" text-decoration="underline" textLength="36.6" x="36.6" y="531.8788">leggiStringa()</text><ellipse cx="31.2" cy="538.0125" fill="#84BE84" rx="1.8" ry="1.8" style="stroke: #038048; stroke-width: 0.6;"/><text fill="#000000" font-family="sans-serif" font-size="6.6" lengthAdjust="spacingAndGlyphs" text-decoration="underline" textLength="64.8" x="36.6" y="540.8679">leggiStringaNonVuota()</text><ellipse cx="31.2" cy="547.0017" fill="#84BE84" rx="1.8" ry="1.8" style="stroke: #038048; stroke-width: 0.6;"/><text fill="#000000" font-family="sans-serif" font-size="6.6" lengthAdjust="spacingAndGlyphs" text-decoration="underline" textLength="48" x="36.6" y="549.857">leggiUpperChar()</text><ellipse cx="31.2" cy="555.9908" fill="#84BE84" rx="1.8" ry="1.8" style="stroke: #038048; stroke-width: 0.6;"/><text fill="#000000" font-family="sans-serif" font-size="6.6" lengthAdjust="spacingAndGlyphs" text-decoration="underline" textLength="17.4" x="36.6" y="558.8461">setIn()</text><ellipse cx="31.2" cy="564.9799" fill="#84BE84" rx="1.8" ry="1.8" style="stroke: #038048; stroke-width: 0.6;"/><text fill="#000000" font-family="sans-serif" font-size="6.6" lengthAdjust="spacingAndGlyphs" text-decoration="underline" textLength="22.2" x="36.6" y="567.8353">setOut()</text><ellipse cx="31.2" cy="573.9691" fill="#84BE84" rx="1.8" ry="1.8" style="stroke: #038048; stroke-width: 0.6;"/><text fill="#000000" font-family="sans-serif" font-size="6.6" lengthAdjust="spacingAndGlyphs" text-decoration="underline" textLength="28.8" x="36.6" y="576.8244">yesOrNo()</text><rect fill="#F24D5C" height="3.6" style="stroke: #C82930; stroke-width: 0.6;" width="3.6" x="29.4" y="581.1582"/><text fill="#000000" font-family="sans-serif" font-size="6.6" lengthAdjust="spacingAndGlyphs" text-decoration="underline" textLength="39.6" x="36.6" y="585.8135">creaScanner()</text><!--MD5=[fd886aa4c579c9e1d43306c829fd53ae]
class src.domotix.view.MyMenu--><rect fill="#FEFECE" filter="url(#fcwf5rdftc9xm)" height="172.6261" id="src.domotix.view.MyMenu" style="stroke: #A80036; stroke-width: 0.8999999999999999;" width="109.8" x="25.2" y="127.819"/><ellipse cx="63.75" cy="137.419" fill="#ADD1B2" rx="6.6" ry="6.6" style="stroke: #A80036; stroke-width: 0.6;"/><path d="M63.7312,141.1221 Q62.6813,141.1221 61.9969,140.6815 Q61.3219,140.2315 60.9844,139.4253 Q60.6563,138.6096 60.6563,137.5315 Q60.6563,136.3128 61.05,135.4409 Q61.4437,134.569 62.2125,134.1003 Q62.9812,133.6315 64.1063,133.6315 Q64.6406,133.6315 65.0438,133.744 Q65.4469,133.8471 65.8594,134.0534 L65.3719,135.2628 Q64.9969,135.0753 64.6688,135.0003 Q64.35,134.9253 64.0594,134.9253 Q63.3562,134.9253 62.9344,135.244 Q62.5125,135.5628 62.3344,136.1346 Q62.1563,136.7065 62.1563,137.4659 Q62.1563,138.6753 62.5875,139.2565 Q63.0188,139.8284 63.975,139.8284 Q64.3313,139.8284 64.7063,139.7346 Q65.0813,139.6409 65.5781,139.4159 L65.5781,140.7471 Q65.1375,140.9346 64.6594,141.0284 Q64.1906,141.1221 63.7312,141.1221 Z "/><text fill="#000000" font-family="sans-serif" font-size="7.2" lengthAdjust="spacingAndGlyphs" textLength="27.6" x="76.05" y="140.2126">MyMenu</text><line style="stroke: #A80036; stroke-width: 0.8999999999999999;" x1="25.8" x2="134.4" y1="147.019" y2="147.019"/><rect fill="none" height="3.6" style="stroke: #C82930; stroke-width: 0.6;" width="3.6" x="30" y="151.819"/><text fill="#000000" font-family="sans-serif" font-size="6.6" lengthAdjust="spacingAndGlyphs" text-decoration="underline" textLength="64.2" x="37.2" y="156.4744">CORNICE_CHAR : String</text><rect fill="none" height="3.6" style="stroke: #C82930; stroke-width: 0.6;" width="3.6" x="30" y="160.8081"/><text fill="#000000" font-family="sans-serif" font-size="6.6" lengthAdjust="spacingAndGlyphs" text-decoration="underline" textLength="94.2" x="37.2" y="165.4635">RICHIESTA_INSERIMENTO : String</text><rect fill="none" height="3.6" style="stroke: #C82930; stroke-width: 0.6;" width="3.6" x="30" y="169.7973"/><text fill="#000000" font-family="sans-serif" font-size="6.6" lengthAdjust="spacingAndGlyphs" textLength="40.2" x="37.2" y="174.4526">cornice : String</text><rect fill="none" height="3.6" style="stroke: #C82930; stroke-width: 0.6;" width="3.6" x="30" y="178.7864"/><text fill="#000000" font-family="sans-serif" font-size="6.6" lengthAdjust="spacingAndGlyphs" textLength="46.8" x="37.2" y="183.4418">sottotitolo : String</text><rect fill="none" height="3.6" style="stroke: #C82930; stroke-width: 0.6;" width="3.6" x="30" y="187.7755"/><text fill="#000000" font-family="sans-serif" font-size="6.6" lengthAdjust="spacingAndGlyphs" textLength="33" x="37.2" y="192.4309">titolo : String</text><rect fill="none" height="3.6" style="stroke: #C82930; stroke-width: 0.6;" width="3.6" x="30" y="196.7647"/><text fill="#000000" font-family="sans-serif" font-size="6.6" lengthAdjust="spacingAndGlyphs" textLength="34.2" x="37.2" y="201.42">voci : String[]</text><line style="stroke: #A80036; stroke-width: 0.8999999999999999;" x1="25.8" x2="134.4" y1="205.7538" y2="205.7538"/><ellipse cx="31.8" cy="212.3538" fill="#84BE84" rx="1.8" ry="1.8" style="stroke: #038048; stroke-width: 0.6;"/><text fill="#000000" font-family="sans-serif" font-size="6.6" lengthAdjust="spacingAndGlyphs" textLength="28.2" x="37.2" y="215.2092">MyMenu()</text><ellipse cx="31.8" cy="221.3429" fill="#84BE84" rx="1.8" ry="1.8" style="stroke: #038048; stroke-width: 0.6;"/><text fill="#000000" font-family="sans-serif" font-size="6.6" lengthAdjust="spacingAndGlyphs" textLength="28.2" x="37.2" y="224.1983">MyMenu()</text><ellipse cx="31.8" cy="230.3321" fill="#84BE84" rx="1.8" ry="1.8" style="stroke: #038048; stroke-width: 0.6;"/><text fill="#000000" font-family="sans-serif" font-size="6.6" lengthAdjust="spacingAndGlyphs" textLength="19.2" x="37.2" y="233.1874">scegli()</text><ellipse cx="31.8" cy="239.3212" fill="#84BE84" rx="1.8" ry="1.8" style="stroke: #038048; stroke-width: 0.6;"/><text fill="#000000" font-family="sans-serif" font-size="6.6" lengthAdjust="spacingAndGlyphs" textLength="19.2" x="37.2" y="242.1766">scegli()</text><ellipse cx="31.8" cy="248.3103" fill="#84BE84" rx="1.8" ry="1.8" style="stroke: #038048; stroke-width: 0.6;"/><text fill="#000000" font-family="sans-serif" font-size="6.6" lengthAdjust="spacingAndGlyphs" textLength="39.6" x="37.2" y="251.1657">setSottotitolo()</text><ellipse cx="31.8" cy="257.2995" fill="#84BE84" rx="1.8" ry="1.8" style="stroke: #038048; stroke-width: 0.6;"/><text fill="#000000" font-family="sans-serif" font-size="6.6" lengthAdjust="spacingAndGlyphs" textLength="27" x="37.2" y="260.1548">setTitolo()</text><ellipse cx="31.8" cy="266.2886" fill="#84BE84" rx="1.8" ry="1.8" style="stroke: #038048; stroke-width: 0.6;"/><text fill="#000000" font-family="sans-serif" font-size="6.6" lengthAdjust="spacingAndGlyphs" textLength="23.4" x="37.2" y="269.144">setVoci()</text><ellipse cx="31.8" cy="275.2777" fill="#84BE84" rx="1.8" ry="1.8" style="stroke: #038048; stroke-width: 0.6;"/><text fill="#000000" font-family="sans-serif" font-size="6.6" lengthAdjust="spacingAndGlyphs" textLength="41.4" x="37.2" y="278.1331">stampaMenu()</text><rect fill="#F24D5C" height="3.6" style="stroke: #C82930; stroke-width: 0.6;" width="3.6" x="30" y="282.4669"/><text fill="#000000" font-family="sans-serif" font-size="6.6" lengthAdjust="spacingAndGlyphs" textLength="55.8" x="37.2" y="287.1222">componiSottotitolo()</text><rect fill="#F24D5C" height="3.6" style="stroke: #C82930; stroke-width: 0.6;" width="3.6" x="30" y="291.456"/><text fill="#000000" font-family="sans-serif" font-size="6.6" lengthAdjust="spacingAndGlyphs" textLength="47.4" x="37.2" y="296.1114">impostaCornice()</text><polygon fill="#FFFFFF" filter="url(#fcwf5rdftc9xm)" points="60.6,57.019,91.2,57.019,95.4,72.0598,99.6,72.0598,99.6,91.9005,60.6,91.9005,60.6,57.019" style="stroke: #000000; stroke-width: 0.8999999999999999;"/><line style="stroke: #000000; stroke-width: 0.8999999999999999;" x1="60.6" x2="95.4" y1="72.0598" y2="72.0598"/><text fill="#000000" font-family="sans-serif" font-size="8.4" font-weight="bold" lengthAdjust="spacingAndGlyphs" textLength="27" x="63" y="67.1986">menus</text><!--MD5=[88b51129beb978c79bcd0253be8b60cc]
link src.domotix.view.MyMenu to src.domotix.view.InputDati--><path d="M80.1,300.7124 C80.1,311.3175 80.1,322.3304 80.1,333.401 " fill="none" id="src.domotix.view.MyMenu-&gt;src.domotix.view.InputDati" style="stroke: #A80036; stroke-width: 0.6;"/><polygon fill="#A80036" points="80.1,336.5247,82.5,331.1247,80.1,333.5247,77.7,331.1247,80.1,336.5247" style="stroke: #A80036; stroke-width: 0.6;"/><!--MD5=[284e6af6be64e8b77bbcd21f9bb0ad45]
link src.domotix.view.menus to src.domotix.view.MyMenu--><path d="M80.1,91.8421 C80.1,100.719 80.1,112.2568 80.1,124.6969 " fill="none" id="src.domotix.view.menus-&gt;src.domotix.view.MyMenu" style="stroke: #A80036; stroke-width: 0.6;"/><polygon fill="#A80036" points="80.1,127.7053,82.5,122.3053,80.1,124.7053,77.7,122.3053,80.1,127.7053" style="stroke: #A80036; stroke-width: 0.6;"/><!--MD5=[e9e7b64c8f2beb9a9895babc474204a2]
@startuml

title __DOMOTIX > VIEW's Class Diagram__\n

namespace src.domotix.view {

    class src.domotix.view.InputDati {
        {static} + in : InputStream
        {static} + out : PrintStream
        {static} - ERRORE_FORMATO : String
        {static} - ERRORE_MASSIMO : String
        {static} - ERRORE_MINIMO : String
        {static} - ERRORE_STRINGA_VUOTA : String
        {static} - MESSAGGIO_AMMISSIBILI : String
        {static} - RISPOSTA_NO : char
        {static} - RISPOSTA_SI : char
        {static} - lettore : Scanner
        {static} + leggiChar()
        {static} + leggiDouble()
        {static} + leggiDoubleConMinimo()
        {static} + leggiIntero()
        {static} + leggiIntero()
        {static} + leggiInteroConMinimo()
        {static} + leggiInteroNonNegativo()
        {static} + leggiInteroPositivo()
        {static} + leggiStringa()
        {static} + leggiStringaNonVuota()
        {static} + leggiUpperChar()
        {static} + setIn()
        {static} + setOut()
        {static} + yesOrNo()
        {static} - creaScanner()
    }

    class src.domotix.view.MyMenu {
        {static} - CORNICE_CHAR : String
        {static} - RICHIESTA_INSERIMENTO : String
        - cornice : String
        - sottotitolo : String
        - titolo : String
        - voci : String[]
        + MyMenu()
        + MyMenu()
        + scegli()
        + scegli()
        + setSottotitolo()
        + setTitolo()
        + setVoci()
        + stampaMenu()
        - componiSottotitolo()
        - impostaCornice()
    }

    namespace menus {
    }

}


src.domotix.view.MyMenu - -> src.domotix.view.InputDati
src.domotix.view.menus - -> src.domotix.view.MyMenu


@enduml

PlantUML version 1.2019.11(Sun Sep 22 12:02:15 CEST 2019)
(GPL source distribution)
Java Runtime: OpenJDK Runtime Environment
JVM: OpenJDK 64-Bit Server VM
Java Version: 11.0.3+12-b304.10
Operating System: Linux
Default Encoding: UTF-8
Language: it
Country: IT
--></g></svg>