<?xml version="1.0" encoding="UTF-8" standalone="no"?><svg xmlns="http://www.w3.org/2000/svg" xmlns:xlink="http://www.w3.org/1999/xlink" contentScriptType="application/ecmascript" contentStyleType="text/css" height="699px" preserveAspectRatio="none" style="width:1190px;height:699px;" version="1.1" viewBox="0 0 1190 699" width="1190px" zoomAndPan="magnify"><defs><filter height="300%" id="fhjk04ja1xpu1" width="300%" x="-1" y="-1"><feGaussianBlur result="blurOut" stdDeviation="2.0"/><feColorMatrix in="blurOut" result="blurOut2" type="matrix" values="0 0 0 0 0 0 0 0 0 0 0 0 0 0 0 0 0 0 .4 0"/><feOffset dx="4.0" dy="4.0" in="blurOut2" result="blurOut3"/><feBlend in="SourceGraphic" in2="blurOut3" mode="normal"/></filter></defs><g><text fill="#000000" font-family="sans-serif" font-size="18" lengthAdjust="spacingAndGlyphs" text-decoration="underline" textLength="477" x="344.5" y="19.2419">DOMOTIX &gt; VIEW &gt; MENUS &gt; MENUUNITA's Class Diagram</text><text fill="#000000" font-family="sans-serif" font-size="18" lengthAdjust="spacingAndGlyphs" textLength="0" x="585" y="43.7577"/><!--MD5=[00517f9916d116c0c4ccaffe7c1b1d29]
cluster src.domotix.view.menus.menuUnita--><polygon fill="#FFFFFF" filter="url(#fhjk04ja1xpu1)" points="14,65.0317,257,65.0317,264,90.0996,854,90.0996,854,593.0317,14,593.0317,14,65.0317" style="stroke: #000000; stroke-width: 1.5;"/><line style="stroke: #000000; stroke-width: 1.5;" x1="14" x2="264" y1="90.0996" y2="90.0996"/><text fill="#000000" font-family="sans-serif" font-size="14" font-weight="bold" lengthAdjust="spacingAndGlyphs" textLength="237" x="18" y="81.9976">src.domotix.view.menus.menuUnita</text><!--MD5=[29e9e250c1a3862b80de2dc1bb3be89a]
cluster src.domotix.view.menus.menuUnita.gestioneUnita--><polygon fill="#FFFFFF" filter="url(#fhjk04ja1xpu1)" points="507,225.5317,607,225.5317,614,250.5996,846,250.5996,846,311.5317,507,311.5317,507,225.5317" style="stroke: #000000; stroke-width: 1.5;"/><line style="stroke: #000000; stroke-width: 1.5;" x1="507" x2="614" y1="250.5996" y2="250.5996"/><text fill="#000000" font-family="sans-serif" font-size="14" font-weight="bold" lengthAdjust="spacingAndGlyphs" textLength="94" x="511" y="242.4976">gestioneUnita</text><!--MD5=[0b88bf459b025cc91fe46fa2e5935608]
cluster src.domotix.view.menus.menuUnita.gestioneStanza--><polygon fill="#FFFFFF" filter="url(#fhjk04ja1xpu1)" points="22,173.0317,129,173.0317,136,198.0996,499,198.0996,499,585.0317,22,585.0317,22,173.0317" style="stroke: #000000; stroke-width: 1.5;"/><line style="stroke: #000000; stroke-width: 1.5;" x1="22" x2="136" y1="198.0996" y2="198.0996"/><text fill="#000000" font-family="sans-serif" font-size="14" font-weight="bold" lengthAdjust="spacingAndGlyphs" textLength="101" x="26" y="189.9976">gestioneStanza</text><!--MD5=[37a522b1e582d7913d7fad3a90ca75e4]
cluster src.domotix.view.menus.menuUnita.gestioneStanza.gestioneArtefatto--><polygon fill="#FFFFFF" filter="url(#fhjk04ja1xpu1)" points="30,386.0317,155,386.0317,162,411.0996,491,411.0996,491,577.0317,30,577.0317,30,386.0317" style="stroke: #000000; stroke-width: 1.5;"/><line style="stroke: #000000; stroke-width: 1.5;" x1="30" x2="162" y1="411.0996" y2="411.0996"/><text fill="#000000" font-family="sans-serif" font-size="14" font-weight="bold" lengthAdjust="spacingAndGlyphs" textLength="119" x="34" y="402.9976">gestioneArtefatto</text><!--MD5=[e3c3ae39643e55df7c1a0329eec479c9]
cluster src.domotix.controller--><polygon fill="#FFFFFF" filter="url(#fhjk04ja1xpu1)" points="550,601.0317,702,601.0317,709,626.0996,801,626.0996,801,687.0317,550,687.0317,550,601.0317" style="stroke: #000000; stroke-width: 1.5;"/><line style="stroke: #000000; stroke-width: 1.5;" x1="550" x2="709" y1="626.0996" y2="626.0996"/><text fill="#000000" font-family="sans-serif" font-size="14" font-weight="bold" lengthAdjust="spacingAndGlyphs" textLength="146" x="554" y="617.9976">src.domotix.controller</text><!--MD5=[a0f93abaebba79ab0a8d6b7c582b424a]
class src.domotix.view.menus.menuUnita.MenuUnitaF--><rect fill="#FEFECE" filter="url(#fhjk04ja1xpu1)" height="48" id="src.domotix.view.menus.menuUnita.MenuUnitaF" style="stroke: #A80036; stroke-width: 1.5;" width="96" x="719" y="95.0317"/><ellipse cx="734" cy="111.0317" fill="#ADD1B2" rx="11" ry="11" style="stroke: #A80036; stroke-width: 1.0;"/><path d="M733.9688,117.2036 Q732.2188,117.2036 731.0781,116.4692 Q729.9531,115.7192 729.3906,114.3754 Q728.8438,113.0161 728.8438,111.2192 Q728.8438,109.1879 729.5,107.7348 Q730.1563,106.2817 731.4375,105.5004 Q732.7188,104.7192 734.5938,104.7192 Q735.4844,104.7192 736.1563,104.9067 Q736.8281,105.0786 737.5156,105.4223 L736.7031,107.4379 Q736.0781,107.1254 735.5313,107.0004 Q735,106.8754 734.5156,106.8754 Q733.3438,106.8754 732.6406,107.4067 Q731.9375,107.9379 731.6406,108.8911 Q731.3438,109.8442 731.3438,111.1098 Q731.3438,113.1254 732.0625,114.0942 Q732.7813,115.0473 734.375,115.0473 Q734.9688,115.0473 735.5938,114.8911 Q736.2188,114.7348 737.0469,114.3598 L737.0469,116.5786 Q736.3125,116.8911 735.5156,117.0473 Q734.7344,117.2036 733.9688,117.2036 Z "/><text fill="#000000" font-family="sans-serif" font-size="12" lengthAdjust="spacingAndGlyphs" textLength="64" x="748" y="115.6877">MenuUnitaF</text><line style="stroke: #A80036; stroke-width: 1.5;" x1="720" x2="814" y1="127.0317" y2="127.0317"/><line style="stroke: #A80036; stroke-width: 1.5;" x1="720" x2="814" y1="135.0317" y2="135.0317"/><!--MD5=[8b91a9f4208df7f50b8566189b12862a]
class src.domotix.view.menus.menuUnita.MenuUnitaM--><rect fill="#FEFECE" filter="url(#fhjk04ja1xpu1)" height="48" id="src.domotix.view.menus.menuUnita.MenuUnitaM" style="stroke: #A80036; stroke-width: 1.5;" width="100" x="538" y="95.0317"/><ellipse cx="553" cy="111.0317" fill="#ADD1B2" rx="11" ry="11" style="stroke: #A80036; stroke-width: 1.0;"/><path d="M552.9688,117.2036 Q551.2188,117.2036 550.0781,116.4692 Q548.9531,115.7192 548.3906,114.3754 Q547.8438,113.0161 547.8438,111.2192 Q547.8438,109.1879 548.5,107.7348 Q549.1563,106.2817 550.4375,105.5004 Q551.7188,104.7192 553.5938,104.7192 Q554.4844,104.7192 555.1563,104.9067 Q555.8281,105.0786 556.5156,105.4223 L555.7031,107.4379 Q555.0781,107.1254 554.5313,107.0004 Q554,106.8754 553.5156,106.8754 Q552.3438,106.8754 551.6406,107.4067 Q550.9375,107.9379 550.6406,108.8911 Q550.3438,109.8442 550.3438,111.1098 Q550.3438,113.1254 551.0625,114.0942 Q551.7813,115.0473 553.375,115.0473 Q553.9688,115.0473 554.5938,114.8911 Q555.2188,114.7348 556.0469,114.3598 L556.0469,116.5786 Q555.3125,116.8911 554.5156,117.0473 Q553.7344,117.2036 552.9688,117.2036 Z "/><text fill="#000000" font-family="sans-serif" font-size="12" lengthAdjust="spacingAndGlyphs" textLength="68" x="567" y="115.6877">MenuUnitaM</text><line style="stroke: #A80036; stroke-width: 1.5;" x1="539" x2="637" y1="127.0317" y2="127.0317"/><line style="stroke: #A80036; stroke-width: 1.5;" x1="539" x2="637" y1="135.0317" y2="135.0317"/><!--MD5=[3d381592564a924f84458acad633e38e]
class src.domotix.view.menus.menuUnita.gestioneUnita.MenuGestioneUnitaF--><rect fill="#FEFECE" filter="url(#fhjk04ja1xpu1)" height="48" id="src.domotix.view.menus.menuUnita.gestioneUnita.MenuGestioneUnitaF" style="stroke: #A80036; stroke-width: 1.5;" width="142" x="696" y="255.5317"/><ellipse cx="711" cy="271.5317" fill="#ADD1B2" rx="11" ry="11" style="stroke: #A80036; stroke-width: 1.0;"/><path d="M710.9688,277.7036 Q709.2188,277.7036 708.0781,276.9692 Q706.9531,276.2192 706.3906,274.8754 Q705.8438,273.5161 705.8438,271.7192 Q705.8438,269.6879 706.5,268.2348 Q707.1563,266.7817 708.4375,266.0004 Q709.7188,265.2192 711.5938,265.2192 Q712.4844,265.2192 713.1563,265.4067 Q713.8281,265.5786 714.5156,265.9223 L713.7031,267.9379 Q713.0781,267.6254 712.5313,267.5004 Q712,267.3754 711.5156,267.3754 Q710.3438,267.3754 709.6406,267.9067 Q708.9375,268.4379 708.6406,269.3911 Q708.3438,270.3442 708.3438,271.6098 Q708.3438,273.6254 709.0625,274.5942 Q709.7813,275.5473 711.375,275.5473 Q711.9688,275.5473 712.5938,275.3911 Q713.2188,275.2348 714.0469,274.8598 L714.0469,277.0786 Q713.3125,277.3911 712.5156,277.5473 Q711.7344,277.7036 710.9688,277.7036 Z "/><text fill="#000000" font-family="sans-serif" font-size="12" lengthAdjust="spacingAndGlyphs" textLength="110" x="725" y="276.1877">MenuGestioneUnitaF</text><line style="stroke: #A80036; stroke-width: 1.5;" x1="697" x2="837" y1="287.5317" y2="287.5317"/><line style="stroke: #A80036; stroke-width: 1.5;" x1="697" x2="837" y1="295.5317" y2="295.5317"/><!--MD5=[1d3b0bf67a3700ccd113d270ccf0d55a]
class src.domotix.view.menus.menuUnita.gestioneUnita.MenuGestioneUnitaM--><rect fill="#FEFECE" filter="url(#fhjk04ja1xpu1)" height="48" id="src.domotix.view.menus.menuUnita.gestioneUnita.MenuGestioneUnitaM" style="stroke: #A80036; stroke-width: 1.5;" width="146" x="515" y="255.5317"/><ellipse cx="530" cy="271.5317" fill="#ADD1B2" rx="11" ry="11" style="stroke: #A80036; stroke-width: 1.0;"/><path d="M529.9688,277.7036 Q528.2188,277.7036 527.0781,276.9692 Q525.9531,276.2192 525.3906,274.8754 Q524.8438,273.5161 524.8438,271.7192 Q524.8438,269.6879 525.5,268.2348 Q526.1563,266.7817 527.4375,266.0004 Q528.7188,265.2192 530.5938,265.2192 Q531.4844,265.2192 532.1563,265.4067 Q532.8281,265.5786 533.5156,265.9223 L532.7031,267.9379 Q532.0781,267.6254 531.5313,267.5004 Q531,267.3754 530.5156,267.3754 Q529.3438,267.3754 528.6406,267.9067 Q527.9375,268.4379 527.6406,269.3911 Q527.3438,270.3442 527.3438,271.6098 Q527.3438,273.6254 528.0625,274.5942 Q528.7813,275.5473 530.375,275.5473 Q530.9688,275.5473 531.5938,275.3911 Q532.2188,275.2348 533.0469,274.8598 L533.0469,277.0786 Q532.3125,277.3911 531.5156,277.5473 Q530.7344,277.7036 529.9688,277.7036 Z "/><text fill="#000000" font-family="sans-serif" font-size="12" lengthAdjust="spacingAndGlyphs" textLength="114" x="544" y="276.1877">MenuGestioneUnitaM</text><line style="stroke: #A80036; stroke-width: 1.5;" x1="516" x2="660" y1="287.5317" y2="287.5317"/><line style="stroke: #A80036; stroke-width: 1.5;" x1="516" x2="660" y1="295.5317" y2="295.5317"/><!--MD5=[1dfc6043be6eade5c03735f1a83b88ae]
class src.domotix.view.menus.menuUnita.gestioneStanza.MenuGestioneStanzaF--><rect fill="#FEFECE" filter="url(#fhjk04ja1xpu1)" height="152.8732" id="src.domotix.view.menus.menuUnita.gestioneStanza.MenuGestioneStanzaF" style="stroke: #A80036; stroke-width: 1.5;" width="240" x="240" y="203.0317"/><ellipse cx="297.75" cy="219.0317" fill="#ADD1B2" rx="11" ry="11" style="stroke: #A80036; stroke-width: 1.0;"/><path d="M297.7188,225.2036 Q295.9688,225.2036 294.8281,224.4692 Q293.7031,223.7192 293.1406,222.3754 Q292.5938,221.0161 292.5938,219.2192 Q292.5938,217.1879 293.25,215.7348 Q293.9063,214.2817 295.1875,213.5004 Q296.4688,212.7192 298.3438,212.7192 Q299.2344,212.7192 299.9063,212.9067 Q300.5781,213.0786 301.2656,213.4223 L300.4531,215.4379 Q299.8281,215.1254 299.2813,215.0004 Q298.75,214.8754 298.2656,214.8754 Q297.0938,214.8754 296.3906,215.4067 Q295.6875,215.9379 295.3906,216.8911 Q295.0938,217.8442 295.0938,219.1098 Q295.0938,221.1254 295.8125,222.0942 Q296.5313,223.0473 298.125,223.0473 Q298.7188,223.0473 299.3438,222.8911 Q299.9688,222.7348 300.7969,222.3598 L300.7969,224.5786 Q300.0625,224.8911 299.2656,225.0473 Q298.4844,225.2036 297.7188,225.2036 Z "/><text fill="#000000" font-family="sans-serif" font-size="12" lengthAdjust="spacingAndGlyphs" textLength="116" x="318.25" y="223.6877">MenuGestioneStanzaF</text><line style="stroke: #A80036; stroke-width: 1.5;" x1="241" x2="479" y1="235.0317" y2="235.0317"/><rect fill="none" height="6" style="stroke: #C82930; stroke-width: 1.0;" width="6" x="248" y="243.0317"/><text fill="#000000" font-family="sans-serif" font-size="11" lengthAdjust="spacingAndGlyphs" text-decoration="underline" textLength="177" x="260" y="250.7906">ELENCO_ATTUATORI_STANZA : String</text><rect fill="none" height="6" style="stroke: #C82930; stroke-width: 1.0;" width="6" x="248" y="258.0136"/><text fill="#000000" font-family="sans-serif" font-size="11" lengthAdjust="spacingAndGlyphs" text-decoration="underline" textLength="144" x="260" y="265.7725">MODALITA_OPERATIVE : String</text><rect fill="none" height="6" style="stroke: #C82930; stroke-width: 1.0;" width="6" x="248" y="272.9955"/><text fill="#000000" font-family="sans-serif" font-size="11" lengthAdjust="spacingAndGlyphs" text-decoration="underline" textLength="63" x="260" y="280.7544">NONE : String</text><rect fill="none" height="6" style="stroke: #C82930; stroke-width: 1.0;" width="6" x="248" y="287.9774"/><text fill="#000000" font-family="sans-serif" font-size="11" lengthAdjust="spacingAndGlyphs" text-decoration="underline" textLength="204" x="260" y="295.7363">SUCCESSO_SETTAGGIO_MODALITA : String</text><rect fill="none" height="6" style="stroke: #C82930; stroke-width: 1.0;" width="6" x="248" y="302.9592"/><text fill="#000000" font-family="sans-serif" font-size="11" lengthAdjust="spacingAndGlyphs" text-decoration="underline" textLength="214" x="260" y="310.7182">FALLIMENTO_SETTAGGIO_MODALITA : String</text><line style="stroke: #A80036; stroke-width: 1.5;" x1="241" x2="479" y1="317.9411" y2="317.9411"/><rect fill="#F24D5C" height="6" style="stroke: #C82930; stroke-width: 1.0;" width="6" x="248" y="325.9411"/><text fill="#000000" font-family="sans-serif" font-size="11" lengthAdjust="spacingAndGlyphs" text-decoration="underline" textLength="90" x="260" y="333.7">premenuAttuatori()</text><rect fill="#F24D5C" height="6" style="stroke: #C82930; stroke-width: 1.0;" width="6" x="248" y="340.923"/><text fill="#000000" font-family="sans-serif" font-size="11" lengthAdjust="spacingAndGlyphs" text-decoration="underline" textLength="136" x="260" y="348.6819">premenuModalitaOperative()</text><!--MD5=[5797b409120e347596d4fd12893fa805]
class src.domotix.view.menus.menuUnita.gestioneStanza.MenuGestioneStanzaM--><rect fill="#FEFECE" filter="url(#fhjk04ja1xpu1)" height="48" id="src.domotix.view.menus.menuUnita.gestioneStanza.MenuGestioneStanzaM" style="stroke: #A80036; stroke-width: 1.5;" width="152" x="53" y="255.5317"/><ellipse cx="68" cy="271.5317" fill="#ADD1B2" rx="11" ry="11" style="stroke: #A80036; stroke-width: 1.0;"/><path d="M67.9688,277.7036 Q66.2188,277.7036 65.0781,276.9692 Q63.9531,276.2192 63.3906,274.8754 Q62.8438,273.5161 62.8438,271.7192 Q62.8438,269.6879 63.5,268.2348 Q64.1563,266.7817 65.4375,266.0004 Q66.7188,265.2192 68.5938,265.2192 Q69.4844,265.2192 70.1563,265.4067 Q70.8281,265.5786 71.5156,265.9223 L70.7031,267.9379 Q70.0781,267.6254 69.5313,267.5004 Q69,267.3754 68.5156,267.3754 Q67.3438,267.3754 66.6406,267.9067 Q65.9375,268.4379 65.6406,269.3911 Q65.3438,270.3442 65.3438,271.6098 Q65.3438,273.6254 66.0625,274.5942 Q66.7813,275.5473 68.375,275.5473 Q68.9688,275.5473 69.5938,275.3911 Q70.2188,275.2348 71.0469,274.8598 L71.0469,277.0786 Q70.3125,277.3911 69.5156,277.5473 Q68.7344,277.7036 67.9688,277.7036 Z "/><text fill="#000000" font-family="sans-serif" font-size="12" lengthAdjust="spacingAndGlyphs" textLength="120" x="82" y="276.1877">MenuGestioneStanzaM</text><line style="stroke: #A80036; stroke-width: 1.5;" x1="54" x2="204" y1="287.5317" y2="287.5317"/><line style="stroke: #A80036; stroke-width: 1.5;" x1="54" x2="204" y1="295.5317" y2="295.5317"/><!--MD5=[18f140b689ad54737b31747d792ddd1e]
class src.domotix.view.menus.menuUnita.gestioneStanza.gestioneArtefatto.MenuGestioneArtefattoF--><rect fill="#FEFECE" filter="url(#fhjk04ja1xpu1)" height="152.8732" id="src.domotix.view.menus.menuUnita.gestioneStanza.gestioneArtefatto.MenuGestioneArtefattoF" style="stroke: #A80036; stroke-width: 1.5;" width="246" x="237" y="416.0317"/><ellipse cx="291.75" cy="432.0317" fill="#ADD1B2" rx="11" ry="11" style="stroke: #A80036; stroke-width: 1.0;"/><path d="M291.7188,438.2036 Q289.9688,438.2036 288.8281,437.4692 Q287.7031,436.7192 287.1406,435.3754 Q286.5938,434.0161 286.5938,432.2192 Q286.5938,430.1879 287.25,428.7348 Q287.9063,427.2817 289.1875,426.5004 Q290.4688,425.7192 292.3438,425.7192 Q293.2344,425.7192 293.9063,425.9067 Q294.5781,426.0786 295.2656,426.4223 L294.4531,428.4379 Q293.8281,428.1254 293.2813,428.0004 Q292.75,427.8754 292.2656,427.8754 Q291.0938,427.8754 290.3906,428.4067 Q289.6875,428.9379 289.3906,429.8911 Q289.0938,430.8442 289.0938,432.1098 Q289.0938,434.1254 289.8125,435.0942 Q290.5313,436.0473 292.125,436.0473 Q292.7188,436.0473 293.3438,435.8911 Q293.9688,435.7348 294.7969,435.3598 L294.7969,437.5786 Q294.0625,437.8911 293.2656,438.0473 Q292.4844,438.2036 291.7188,438.2036 Z "/><text fill="#000000" font-family="sans-serif" font-size="12" lengthAdjust="spacingAndGlyphs" textLength="128" x="312.25" y="436.6877">MenuGestioneArtefattoF</text><line style="stroke: #A80036; stroke-width: 1.5;" x1="238" x2="482" y1="448.0317" y2="448.0317"/><rect fill="none" height="6" style="stroke: #C82930; stroke-width: 1.0;" width="6" x="245" y="456.0317"/><text fill="#000000" font-family="sans-serif" font-size="11" lengthAdjust="spacingAndGlyphs" text-decoration="underline" textLength="194" x="257" y="463.7906">ELENCO_ATTUATORI_ARTEFATTO : String</text><rect fill="none" height="6" style="stroke: #C82930; stroke-width: 1.0;" width="6" x="245" y="471.0136"/><text fill="#000000" font-family="sans-serif" font-size="11" lengthAdjust="spacingAndGlyphs" text-decoration="underline" textLength="144" x="257" y="478.7725">MODALITA_OPERATIVE : String</text><rect fill="none" height="6" style="stroke: #C82930; stroke-width: 1.0;" width="6" x="245" y="485.9955"/><text fill="#000000" font-family="sans-serif" font-size="11" lengthAdjust="spacingAndGlyphs" text-decoration="underline" textLength="63" x="257" y="493.7544">NONE : String</text><rect fill="none" height="6" style="stroke: #C82930; stroke-width: 1.0;" width="6" x="245" y="500.9774"/><text fill="#000000" font-family="sans-serif" font-size="11" lengthAdjust="spacingAndGlyphs" text-decoration="underline" textLength="204" x="257" y="508.7363">SUCCESSO_SETTAGGIO_MODALITA : String</text><rect fill="none" height="6" style="stroke: #C82930; stroke-width: 1.0;" width="6" x="245" y="515.9592"/><text fill="#000000" font-family="sans-serif" font-size="11" lengthAdjust="spacingAndGlyphs" text-decoration="underline" textLength="220" x="257" y="523.7182">FALLIMENTO_SETTAGGIO_MODALITA : String[]</text><line style="stroke: #A80036; stroke-width: 1.5;" x1="238" x2="482" y1="530.9411" y2="530.9411"/><rect fill="#F24D5C" height="6" style="stroke: #C82930; stroke-width: 1.0;" width="6" x="245" y="538.9411"/><text fill="#000000" font-family="sans-serif" font-size="11" lengthAdjust="spacingAndGlyphs" text-decoration="underline" textLength="90" x="257" y="546.7">premenuAttuatori()</text><rect fill="#F24D5C" height="6" style="stroke: #C82930; stroke-width: 1.0;" width="6" x="245" y="553.923"/><text fill="#000000" font-family="sans-serif" font-size="11" lengthAdjust="spacingAndGlyphs" text-decoration="underline" textLength="136" x="257" y="561.6819">premenuModalitaOperative()</text><!--MD5=[b6e968ea7baf8505b035edfad6c0ea72]
class src.domotix.view.menus.menuUnita.gestioneStanza.gestioneArtefatto.MenuGestioneArtefattoM--><rect fill="#FEFECE" filter="url(#fhjk04ja1xpu1)" height="48" id="src.domotix.view.menus.menuUnita.gestioneStanza.gestioneArtefatto.MenuGestioneArtefattoM" style="stroke: #A80036; stroke-width: 1.5;" width="164" x="38" y="468.5317"/><ellipse cx="53" cy="484.5317" fill="#ADD1B2" rx="11" ry="11" style="stroke: #A80036; stroke-width: 1.0;"/><path d="M52.9688,490.7036 Q51.2188,490.7036 50.0781,489.9692 Q48.9531,489.2192 48.3906,487.8754 Q47.8438,486.5161 47.8438,484.7192 Q47.8438,482.6879 48.5,481.2348 Q49.1563,479.7817 50.4375,479.0004 Q51.7188,478.2192 53.5938,478.2192 Q54.4844,478.2192 55.1563,478.4067 Q55.8281,478.5786 56.5156,478.9223 L55.7031,480.9379 Q55.0781,480.6254 54.5313,480.5004 Q54,480.3754 53.5156,480.3754 Q52.3438,480.3754 51.6406,480.9067 Q50.9375,481.4379 50.6406,482.3911 Q50.3438,483.3442 50.3438,484.6098 Q50.3438,486.6254 51.0625,487.5942 Q51.7813,488.5473 53.375,488.5473 Q53.9688,488.5473 54.5938,488.3911 Q55.2188,488.2348 56.0469,487.8598 L56.0469,490.0786 Q55.3125,490.3911 54.5156,490.5473 Q53.7344,490.7036 52.9688,490.7036 Z "/><text fill="#000000" font-family="sans-serif" font-size="12" lengthAdjust="spacingAndGlyphs" textLength="132" x="67" y="489.1877">MenuGestioneArtefattoM</text><line style="stroke: #A80036; stroke-width: 1.5;" x1="39" x2="201" y1="500.5317" y2="500.5317"/><line style="stroke: #A80036; stroke-width: 1.5;" x1="39" x2="201" y1="508.5317" y2="508.5317"/><!--MD5=[19e62dc1491eac9c9a34efd24892529b]
class src.domotix.controller.Recuperatore--><rect fill="#FEFECE" filter="url(#fhjk04ja1xpu1)" height="48" id="src.domotix.controller.Recuperatore" style="stroke: #A80036; stroke-width: 1.5;" width="101" x="691.5" y="631.0317"/><ellipse cx="706.5" cy="647.0317" fill="#ADD1B2" rx="11" ry="11" style="stroke: #A80036; stroke-width: 1.0;"/><path d="M706.4688,653.2036 Q704.7188,653.2036 703.5781,652.4692 Q702.4531,651.7192 701.8906,650.3754 Q701.3438,649.0161 701.3438,647.2192 Q701.3438,645.1879 702,643.7348 Q702.6563,642.2817 703.9375,641.5004 Q705.2188,640.7192 707.0938,640.7192 Q707.9844,640.7192 708.6563,640.9067 Q709.3281,641.0786 710.0156,641.4223 L709.2031,643.4379 Q708.5781,643.1254 708.0313,643.0004 Q707.5,642.8754 707.0156,642.8754 Q705.8438,642.8754 705.1406,643.4067 Q704.4375,643.9379 704.1406,644.8911 Q703.8438,645.8442 703.8438,647.1098 Q703.8438,649.1254 704.5625,650.0942 Q705.2813,651.0473 706.875,651.0473 Q707.4688,651.0473 708.0938,650.8911 Q708.7188,650.7348 709.5469,650.3598 L709.5469,652.5786 Q708.8125,652.8911 708.0156,653.0473 Q707.2344,653.2036 706.4688,653.2036 Z "/><text fill="#000000" font-family="sans-serif" font-size="12" lengthAdjust="spacingAndGlyphs" textLength="69" x="720.5" y="651.6877">Recuperatore</text><line style="stroke: #A80036; stroke-width: 1.5;" x1="692.5" x2="791.5" y1="663.0317" y2="663.0317"/><line style="stroke: #A80036; stroke-width: 1.5;" x1="692.5" x2="791.5" y1="671.0317" y2="671.0317"/><!--MD5=[b71e28d46693838dc5614a2818178488]
class src.domotix.controller.Modificatore--><rect fill="#FEFECE" filter="url(#fhjk04ja1xpu1)" height="48" id="src.domotix.controller.Modificatore" style="stroke: #A80036; stroke-width: 1.5;" width="98" x="558" y="631.0317"/><ellipse cx="573" cy="647.0317" fill="#ADD1B2" rx="11" ry="11" style="stroke: #A80036; stroke-width: 1.0;"/><path d="M572.9688,653.2036 Q571.2188,653.2036 570.0781,652.4692 Q568.9531,651.7192 568.3906,650.3754 Q567.8438,649.0161 567.8438,647.2192 Q567.8438,645.1879 568.5,643.7348 Q569.1563,642.2817 570.4375,641.5004 Q571.7188,640.7192 573.5938,640.7192 Q574.4844,640.7192 575.1563,640.9067 Q575.8281,641.0786 576.5156,641.4223 L575.7031,643.4379 Q575.0781,643.1254 574.5313,643.0004 Q574,642.8754 573.5156,642.8754 Q572.3438,642.8754 571.6406,643.4067 Q570.9375,643.9379 570.6406,644.8911 Q570.3438,645.8442 570.3438,647.1098 Q570.3438,649.1254 571.0625,650.0942 Q571.7813,651.0473 573.375,651.0473 Q573.9688,651.0473 574.5938,650.8911 Q575.2188,650.7348 576.0469,650.3598 L576.0469,652.5786 Q575.3125,652.8911 574.5156,653.0473 Q573.7344,653.2036 572.9688,653.2036 Z "/><text fill="#000000" font-family="sans-serif" font-size="12" lengthAdjust="spacingAndGlyphs" textLength="66" x="587" y="651.6877">Modificatore</text><line style="stroke: #A80036; stroke-width: 1.5;" x1="559" x2="655" y1="663.0317" y2="663.0317"/><line style="stroke: #A80036; stroke-width: 1.5;" x1="559" x2="655" y1="671.0317" y2="671.0317"/><!--MD5=[99b8393402cccebe7e68cbcd2477afca]
link src.domotix.view.menus.menuUnita.MenuUnitaM to src.domotix.view.menus.menuUnita.gestioneUnita.MenuGestioneUnitaM--><path d="M588,143.0602 C588,171.663 588,219.415 588,250.1776 " fill="none" id="src.domotix.view.menus.menuUnita.MenuUnitaM-&gt;src.domotix.view.menus.menuUnita.gestioneUnita.MenuGestioneUnitaM" style="stroke: #A80036; stroke-width: 1.0;"/><polygon fill="#A80036" points="588,255.339,592,246.339,588,250.339,584,246.339,588,255.339" style="stroke: #A80036; stroke-width: 1.0;"/><!--MD5=[d17eddab381dd94cab76bd28b93f25c4]
link src.domotix.view.menus.menuUnita.MenuUnitaM to src.domotix.view.menus.menuUnita.gestioneStanza.MenuGestioneStanzaM--><path d="M537.7059,122.209 C450.7144,128.4005 276.3439,144.0786 223,173.0317 C189.6024,191.1587 162.3542,226.0475 145.9522,250.9532 " fill="none" id="src.domotix.view.menus.menuUnita.MenuUnitaM-&gt;src.domotix.view.menus.menuUnita.gestioneStanza.MenuGestioneStanzaM" style="stroke: #A80036; stroke-width: 1.0;"/><polygon fill="#A80036" points="143.2154,255.1702,151.4703,249.7983,145.9374,250.9761,144.7597,245.4432,143.2154,255.1702" style="stroke: #A80036; stroke-width: 1.0;"/><!--MD5=[15ffd562c1e721076fe3e78925f44527]
link src.domotix.view.menus.menuUnita.gestioneStanza.MenuGestioneStanzaM to src.domotix.view.menus.menuUnita.gestioneStanza.gestioneArtefatto.MenuGestioneArtefattoM--><path d="M127.9851,303.5515 C126.3241,342.8618 123.0308,420.8019 121.2362,463.2742 " fill="none" id="src.domotix.view.menus.menuUnita.gestioneStanza.MenuGestioneStanzaM-&gt;src.domotix.view.menus.menuUnita.gestioneStanza.gestioneArtefatto.MenuGestioneArtefattoM" style="stroke: #A80036; stroke-width: 1.0;"/><polygon fill="#A80036" points="121.025,468.2729,125.4015,459.4498,121.2361,463.2774,117.4086,459.112,121.025,468.2729" style="stroke: #A80036; stroke-width: 1.0;"/><!--MD5=[033facd939b8d2ef5ed21de9716796e1]
link src.domotix.view.menus.menuUnita.MenuUnitaF to src.domotix.view.menus.menuUnita.gestioneUnita.MenuGestioneUnitaF--><path d="M767,143.0602 C767,171.663 767,219.415 767,250.1776 " fill="none" id="src.domotix.view.menus.menuUnita.MenuUnitaF-&gt;src.domotix.view.menus.menuUnita.gestioneUnita.MenuGestioneUnitaF" style="stroke: #A80036; stroke-width: 1.0;"/><polygon fill="#A80036" points="767,255.339,771,246.339,767,250.339,763,246.339,767,255.339" style="stroke: #A80036; stroke-width: 1.0;"/><!--MD5=[0de1132eb80b295cf1383eaf2f9304c0]
link src.domotix.view.menus.menuUnita.MenuUnitaF to src.domotix.view.menus.menuUnita.gestioneStanza.MenuGestioneStanzaF--><path d="M718.973,129.6806 C699.4551,133.9392 676.6721,138.8225 656,143.0317 C586.3882,157.206 563.8285,143.9804 499,173.0317 C482.8973,180.2477 466.9511,189.6664 451.9181,199.9179 " fill="none" id="src.domotix.view.menus.menuUnita.MenuUnitaF-&gt;src.domotix.view.menus.menuUnita.gestioneStanza.MenuGestioneStanzaF" style="stroke: #A80036; stroke-width: 1.0;"/><polygon fill="#A80036" points="447.7028,202.8303,457.381,201.005,451.8164,199.988,452.8334,194.4233,447.7028,202.8303" style="stroke: #A80036; stroke-width: 1.0;"/><!--MD5=[9f9094fb9db9455906e26dbe2766b1bf]
link src.domotix.view.menus.menuUnita.gestioneStanza.MenuGestioneStanzaF to src.domotix.view.menus.menuUnita.gestioneStanza.gestioneArtefatto.MenuGestioneArtefattoF--><path d="M360,356.1287 C360,373.8986 360,392.8772 360,410.8562 " fill="none" id="src.domotix.view.menus.menuUnita.gestioneStanza.MenuGestioneStanzaF-&gt;src.domotix.view.menus.menuUnita.gestioneStanza.gestioneArtefatto.MenuGestioneArtefattoF" style="stroke: #A80036; stroke-width: 1.0;"/><polygon fill="#A80036" points="360,415.8989,364,406.8989,360,410.8989,356,406.8989,360,415.8989" style="stroke: #A80036; stroke-width: 1.0;"/><!--MD5=[36417f8139c138a2f3f9bd3c0aaa66e6]
link src.domotix.view.menus.menuUnita.MenuUnitaM to src.domotix.controller.Recuperatore--><path d="M638.1966,129.7422 C658.0562,133.9423 681.0924,138.7678 702,143.0317 C769.47,156.7915 799.2639,131.2527 854,173.0317 C938.0543,237.1886 935.8023,283.0962 960,386.0317 C981.0531,475.5904 1015.4465,519.6172 960,593.0317 C940.4622,618.901 855.7589,637.1547 797.8733,646.8789 " fill="none" id="src.domotix.view.menus.menuUnita.MenuUnitaM-&gt;src.domotix.controller.Recuperatore" style="stroke: #A80036; stroke-width: 1.0;"/><polygon fill="#A80036" points="792.708,647.736,802.2414,650.2086,797.6405,646.9174,800.9317,642.3165,792.708,647.736" style="stroke: #A80036; stroke-width: 1.0;"/><!--MD5=[0559db1db5d75f3d869742205ac36c41]
link src.domotix.view.menus.menuUnita.MenuUnitaF to src.domotix.controller.Recuperatore--><path d="M815.1879,120.7448 C889.9653,124.5295 1028.5408,136.4231 1059,173.0317 C1178.3902,316.5253 1177.6511,448.9263 1059,593.0317 C1026.5627,632.4277 880.0193,647.1445 798.0135,652.3607 " fill="none" id="src.domotix.view.menus.menuUnita.MenuUnitaF-&gt;src.domotix.controller.Recuperatore" style="stroke: #A80036; stroke-width: 1.0;"/><polygon fill="#A80036" points="792.7071,652.6907,801.9381,656.1242,797.6975,652.3803,801.4414,648.1396,792.7071,652.6907" style="stroke: #A80036; stroke-width: 1.0;"/><!--MD5=[6ccaaae2a499aacdc9a464fd1053e56d]
link src.domotix.view.menus.menuUnita.gestioneUnita.MenuGestioneUnitaM to src.domotix.controller.Modificatore--><path d="M601.4635,303.5916 C612.4069,324.6107 626.9817,356.3259 633,386.0317 C651.2677,476.1998 651.1459,502.839 633,593.0317 C630.7241,604.3439 626.3287,616.1651 621.7901,626.4153 " fill="none" id="src.domotix.view.menus.menuUnita.gestioneUnita.MenuGestioneUnitaM-&gt;src.domotix.controller.Modificatore" style="stroke: #A80036; stroke-width: 1.0;"/><polygon fill="#A80036" points="619.7018,631.0068,627.0689,624.4703,621.7718,626.4554,619.7867,621.1583,619.7018,631.0068" style="stroke: #A80036; stroke-width: 1.0;"/><!--MD5=[ff9b3d4150a1d7d40686c6e5d19e1210]
link src.domotix.view.menus.menuUnita.gestioneUnita.MenuGestioneUnitaM to src.domotix.controller.Recuperatore--><path d="M609.9183,303.7657 C627.0138,321.1013 652.2766,343.5032 679,356.0317 C747.2791,388.0424 797.62,328.1863 846,386.0317 C905.0232,456.6027 891.4416,513.0376 846,593.0317 C835.2799,611.9031 816.2896,625.6375 797.4441,635.3087 " fill="none" id="src.domotix.view.menus.menuUnita.gestioneUnita.MenuGestioneUnitaM-&gt;src.domotix.controller.Recuperatore" style="stroke: #A80036; stroke-width: 1.0;"/><polygon fill="#A80036" points="792.6611,637.6806,802.5012,637.2656,797.1405,635.4592,798.9469,630.0985,792.6611,637.6806" style="stroke: #A80036; stroke-width: 1.0;"/><!--MD5=[aaf876d14119c83b9d14dd16e7070cf2]
link src.domotix.view.menus.menuUnita.gestioneUnita.MenuGestioneUnitaF to src.domotix.controller.Recuperatore--><path d="M824.4895,303.7227 C858.0823,321.2236 897.5827,348.4317 917,386.0317 C959.2138,467.7752 970.0918,517.8967 917,593.0317 C902.822,613.0963 843.4733,631.2501 797.779,642.6537 " fill="none" id="src.domotix.view.menus.menuUnita.gestioneUnita.MenuGestioneUnitaF-&gt;src.domotix.controller.Recuperatore" style="stroke: #A80036; stroke-width: 1.0;"/><polygon fill="#A80036" points="792.8413,643.8731,802.5379,645.5985,797.6954,642.6742,800.6197,637.8318,792.8413,643.8731" style="stroke: #A80036; stroke-width: 1.0;"/><!--MD5=[57075c2f82fec43d68bbe9396874f6a8]
link src.domotix.view.menus.menuUnita.gestioneStanza.MenuGestioneStanzaM to src.domotix.controller.Modificatore--><path d="M150.8139,303.5738 C168.4305,321.2914 194.8483,344.272 223,356.0317 C279.9274,379.8118 451.8413,346.2538 499,386.0317 C572.1246,447.7116 514.3992,507.8814 558,593.0317 C564.1275,604.9984 572.7435,616.8881 581.0452,627.0065 " fill="none" id="src.domotix.view.menus.menuUnita.gestioneStanza.MenuGestioneStanzaM-&gt;src.domotix.controller.Modificatore" style="stroke: #A80036; stroke-width: 1.0;"/><polygon fill="#A80036" points="584.328,630.9384,581.6303,621.4662,581.1235,627.1003,575.4894,626.5934,584.328,630.9384" style="stroke: #A80036; stroke-width: 1.0;"/><!--MD5=[7aeab9784cbcd0a3dd5dfc47bae7f10c]
link src.domotix.view.menus.menuUnita.gestioneStanza.MenuGestioneStanzaM to src.domotix.controller.Recuperatore--><path d="M150.7552,303.716 C168.3403,321.5101 194.7443,344.5242 223,356.0317 C359.8038,411.7469 426.2241,311.9184 554,386.0317 C560.2695,389.6682 675.4038,557.5559 722.3354,626.2223 " fill="none" id="src.domotix.view.menus.menuUnita.gestioneStanza.MenuGestioneStanzaM-&gt;src.domotix.controller.Recuperatore" style="stroke: #A80036; stroke-width: 1.0;"/><polygon fill="#A80036" points="725.3261,630.5989,723.551,620.9113,722.5051,626.4707,716.9458,625.4249,725.3261,630.5989" style="stroke: #A80036; stroke-width: 1.0;"/><!--MD5=[ab4865756c30f0dfeae676e840b3d9e8]
link src.domotix.view.menus.menuUnita.gestioneStanza.MenuGestioneStanzaF to src.domotix.controller.Recuperatore--><path d="M480.1243,348.9518 C486.4204,351.5422 492.7336,353.9257 499,356.0317 C542.6421,370.6987 671.5253,353.3951 704,386.0317 C768.1338,450.4854 757.2248,570.4115 747.9257,625.712 " fill="none" id="src.domotix.view.menus.menuUnita.gestioneStanza.MenuGestioneStanzaF-&gt;src.domotix.controller.Recuperatore" style="stroke: #A80036; stroke-width: 1.0;"/><polygon fill="#A80036" points="747.0334,630.8579,752.5125,622.6738,747.8878,625.9314,744.6302,621.3067,747.0334,630.8579" style="stroke: #A80036; stroke-width: 1.0;"/><!--MD5=[cc75cb6831e77bfb88190900b6179deb]
link src.domotix.view.menus.menuUnita.gestioneStanza.MenuGestioneStanzaF to src.domotix.controller.Modificatore--><path d="M480.3138,346.311 C486.6156,349.6321 492.8722,352.8899 499,356.0317 C526.5967,370.181 543.3289,361.2694 562,386.0317 C616.4323,458.2219 614.7003,572.3734 610.3046,625.7301 " fill="none" id="src.domotix.view.menus.menuUnita.gestioneStanza.MenuGestioneStanzaF-&gt;src.domotix.controller.Modificatore" style="stroke: #A80036; stroke-width: 1.0;"/><polygon fill="#A80036" points="609.8445,631.0082,614.6113,622.3898,610.2789,626.0271,606.6416,621.6947,609.8445,631.0082" style="stroke: #A80036; stroke-width: 1.0;"/><!--MD5=[cb7e25c81c1e53eb5eac757602a45117]
link src.domotix.view.menus.menuUnita.gestioneStanza.gestioneArtefatto.MenuGestioneArtefattoM to src.domotix.controller.Modificatore--><path d="M136.8533,516.7562 C154.649,540.3084 184.9486,575.0777 220,593.0317 C277.1348,622.2972 460.2787,642.1032 552.6461,650.4959 " fill="none" id="src.domotix.view.menus.menuUnita.gestioneStanza.gestioneArtefatto.MenuGestioneArtefattoM-&gt;src.domotix.controller.Modificatore" style="stroke: #A80036; stroke-width: 1.0;"/><polygon fill="#A80036" points="557.7861,650.9597,549.1821,646.1669,552.8063,650.5103,548.463,654.1345,557.7861,650.9597" style="stroke: #A80036; stroke-width: 1.0;"/><!--MD5=[cfc3b61bcfc2e576146d5904add0cd07]
link src.domotix.view.menus.menuUnita.gestioneStanza.gestioneArtefatto.MenuGestioneArtefattoM to src.domotix.controller.Recuperatore--><path d="M135.7088,516.9095 C153.0152,541.3088 183.3162,577.4028 220,593.0317 C266.4153,612.8067 626.5101,583.9983 674,601.0317 C689.4261,606.5647 704.0132,617.1362 715.692,627.4694 " fill="none" id="src.domotix.view.menus.menuUnita.gestioneStanza.gestioneArtefatto.MenuGestioneArtefattoM-&gt;src.domotix.controller.Recuperatore" style="stroke: #A80036; stroke-width: 1.0;"/><polygon fill="#A80036" points="719.5382,630.9569,715.558,621.9481,715.8342,627.5982,710.1841,627.8744,719.5382,630.9569" style="stroke: #A80036; stroke-width: 1.0;"/><!--MD5=[6154a8e2574741d3728e0a6a775b3127]
link src.domotix.view.menus.menuUnita.gestioneStanza.gestioneArtefatto.MenuGestioneArtefattoF to src.domotix.controller.Recuperatore--><path d="M483.2707,534.8664 C570.2354,564.7735 671.697,599.7678 674,601.0317 C687.3005,608.331 700.6528,618.2368 711.9605,627.5717 " fill="none" id="src.domotix.view.menus.menuUnita.gestioneStanza.gestioneArtefatto.MenuGestioneArtefattoF-&gt;src.domotix.controller.Recuperatore" style="stroke: #A80036; stroke-width: 1.0;"/><polygon fill="#A80036" points="716.0301,630.9792,711.6973,622.1346,712.1964,627.7694,706.5616,628.2685,716.0301,630.9792" style="stroke: #A80036; stroke-width: 1.0;"/><!--MD5=[3fb23d2d6247af8b761edc7574004e84]
link src.domotix.view.menus.menuUnita.gestioneStanza.gestioneArtefatto.MenuGestioneArtefattoF to src.domotix.controller.Modificatore--><path d="M473.6707,569.0644 C485.909,577.1927 498.1972,585.307 510,593.0317 C527.7292,604.6351 547.4095,617.2609 564.3845,628.0723 " fill="none" id="src.domotix.view.menus.menuUnita.gestioneStanza.gestioneArtefatto.MenuGestioneArtefattoF-&gt;src.domotix.controller.Modificatore" style="stroke: #A80036; stroke-width: 1.0;"/><polygon fill="#A80036" points="568.6391,630.7802,563.1943,622.5733,564.421,628.0955,558.8988,629.3222,568.6391,630.7802" style="stroke: #A80036; stroke-width: 1.0;"/><!--MD5=[26cae088a49cc6042f6a6a92af576572]
@startuml

title __DOMOTIX > VIEW > MENUS > MENUUNITA's Class Diagram__\n

namespace src.domotix.view.menus.menuUnita {
    class src.domotix.view.menus.menuUnita.MenuUnitaF {
    }

    class src.domotix.view.menus.menuUnita.MenuUnitaM {
    }

    namespace gestioneUnita {
        class src.domotix.view.menus.menuUnita.gestioneUnita.MenuGestioneUnitaF {
        }

        class src.domotix.view.menus.menuUnita.gestioneUnita.MenuGestioneUnitaM {
        }
    }

    namespace gestioneStanza {
        class src.domotix.view.menus.menuUnita.gestioneStanza.MenuGestioneStanzaF {
            {static} - ELENCO_ATTUATORI_STANZA : String
            {static} - MODALITA_OPERATIVE : String
            {static} - NONE : String
            {static} - SUCCESSO_SETTAGGIO_MODALITA : String
            {static} - FALLIMENTO_SETTAGGIO_MODALITA : String
            {static} - premenuAttuatori()
            {static} - premenuModalitaOperative()
        }

        class src.domotix.view.menus.menuUnita.gestioneStanza.MenuGestioneStanzaM {
        }

        namespace gestioneArtefatto {
            class src.domotix.view.menus.menuUnita.gestioneStanza.gestioneArtefatto.MenuGestioneArtefattoF {
                {static} - ELENCO_ATTUATORI_ARTEFATTO : String
                {static} - MODALITA_OPERATIVE : String
                {static} - NONE : String
                {static} - SUCCESSO_SETTAGGIO_MODALITA : String
                {static} - FALLIMENTO_SETTAGGIO_MODALITA : String[]
                {static} - premenuAttuatori()
                {static} - premenuModalitaOperative()
            }

            class src.domotix.view.menus.menuUnita.gestioneStanza.gestioneArtefatto.MenuGestioneArtefattoM {
            }
        }
    }
}

src.domotix.view.menus.menuUnita.MenuUnitaM - -> src.domotix.view.menus.menuUnita.gestioneUnita.MenuGestioneUnitaM
src.domotix.view.menus.menuUnita.MenuUnitaM - -> src.domotix.view.menus.menuUnita.gestioneStanza.MenuGestioneStanzaM
src.domotix.view.menus.menuUnita.gestioneStanza.MenuGestioneStanzaM - -> src.domotix.view.menus.menuUnita.gestioneStanza.gestioneArtefatto.MenuGestioneArtefattoM
src.domotix.view.menus.menuUnita.MenuUnitaF - -> src.domotix.view.menus.menuUnita.gestioneUnita.MenuGestioneUnitaF
src.domotix.view.menus.menuUnita.MenuUnitaF - -> src.domotix.view.menus.menuUnita.gestioneStanza.MenuGestioneStanzaF
src.domotix.view.menus.menuUnita.gestioneStanza.MenuGestioneStanzaF - -> src.domotix.view.menus.menuUnita.gestioneStanza.gestioneArtefatto.MenuGestioneArtefattoF

src.domotix.view.menus.menuUnita.MenuUnitaM - -> src.domotix.controller.Recuperatore
src.domotix.view.menus.menuUnita.MenuUnitaF - -> src.domotix.controller.Recuperatore
src.domotix.view.menus.menuUnita.gestioneUnita.MenuGestioneUnitaM - -> src.domotix.controller.Modificatore
src.domotix.view.menus.menuUnita.gestioneUnita.MenuGestioneUnitaM - -> src.domotix.controller.Recuperatore
src.domotix.view.menus.menuUnita.gestioneUnita.MenuGestioneUnitaF - -> src.domotix.controller.Recuperatore
src.domotix.view.menus.menuUnita.gestioneStanza.MenuGestioneStanzaM - -> src.domotix.controller.Modificatore
src.domotix.view.menus.menuUnita.gestioneStanza.MenuGestioneStanzaM - -> src.domotix.controller.Recuperatore
src.domotix.view.menus.menuUnita.gestioneStanza.MenuGestioneStanzaF - -> src.domotix.controller.Recuperatore
src.domotix.view.menus.menuUnita.gestioneStanza.MenuGestioneStanzaF - -> src.domotix.controller.Modificatore
src.domotix.view.menus.menuUnita.gestioneStanza.gestioneArtefatto.MenuGestioneArtefattoM - -> src.domotix.controller.Modificatore
src.domotix.view.menus.menuUnita.gestioneStanza.gestioneArtefatto.MenuGestioneArtefattoM - -> src.domotix.controller.Recuperatore
src.domotix.view.menus.menuUnita.gestioneStanza.gestioneArtefatto.MenuGestioneArtefattoF - -> src.domotix.controller.Recuperatore
src.domotix.view.menus.menuUnita.gestioneStanza.gestioneArtefatto.MenuGestioneArtefattoF - -> src.domotix.controller.Modificatore

@enduml

PlantUML version 1.2019.11(Sun Sep 22 12:02:15 CEST 2019)
(GPL source distribution)
Java Runtime: OpenJDK Runtime Environment
JVM: OpenJDK 64-Bit Server VM
Java Version: 11.0.3+12-b304.10
Operating System: Linux
Default Encoding: UTF-8
Language: it
Country: IT
--></g></svg>